<svg xmlns="http://www.w3.org/2000/svg" xmlns:xlink="http://www.w3.org/1999/xlink" width="192" height="196pt" viewBox="0 0 144 196"><g id="graph0" class="graph" transform="scale(1 1) rotate(0) translate(4 192)"><title>CLFineSVMMemoryRegion</title><polygon fill="#fff" stroke="transparent" points="-4 4 -4 -192 140 -192 140 4 -4 4"/><g id="node1" class="node"><title>Node0</title><polygon fill="#bfbfbf" stroke="#000" points="0 -.5 0 -19.5 136 -19.5 136 -.5 0 -.5"/><text x="68" y="-7.5" fill="#000" font-family="Helvetica,sans-Serif" font-size="10" text-anchor="middle">CLFineSVMMemoryRegion</text></g><g id="node2" class="node"><title>Node1</title><g id="a_node2"><a target="_top" xlink:href="classarm__compute_1_1_i_c_l_s_v_m_memory_region.xhtml" xlink:title="OpenCL SVM memory region interface."><polygon fill="#fff" stroke="#000" points="8 -56.5 8 -75.5 128 -75.5 128 -56.5 8 -56.5"/><text x="68" y="-63.5" fill="#000" font-family="Helvetica,sans-Serif" font-size="10" text-anchor="middle">ICLSVMMemoryRegion</text></a></g></g><g id="edge1" class="edge"><title>Node1-&gt;Node0</title><path fill="none" stroke="#191970" d="M68,-46.1575C68,-37.155 68,-26.9199 68,-19.6427"/><polygon fill="#191970" stroke="#191970" points="64.5 -46.245 68 -56.245 71.5 -46.246 64.5 -46.245"/></g><g id="node3" class="node"><title>Node2</title><g id="a_node3"><a target="_top" xlink:href="classarm__compute_1_1_i_c_l_memory_region.xhtml" xlink:title="OpenCL memory region interface."><polygon fill="#fff" stroke="#000" points="19 -112.5 19 -131.5 117 -131.5 117 -112.5 19 -112.5"/><text x="68" y="-119.5" fill="#000" font-family="Helvetica,sans-Serif" font-size="10" text-anchor="middle">ICLMemoryRegion</text></a></g></g><g id="edge2" class="edge"><title>Node2-&gt;Node1</title><path fill="none" stroke="#191970" d="M68,-102.1575C68,-93.155 68,-82.9199 68,-75.6427"/><polygon fill="#191970" stroke="#191970" points="64.5 -102.246 68 -112.246 71.5 -102.246 64.5 -102.246"/></g><g id="node4" class="node"><title>Node3</title><g id="a_node4"><a target="_top" xlink:href="classarm__compute_1_1_i_memory_region.xhtml" xlink:title="Memory region interface."><polygon fill="#fff" stroke="#000" points="25 -168.5 25 -187.5 111 -187.5 111 -168.5 25 -168.5"/><text x="68" y="-175.5" fill="#000" font-family="Helvetica,sans-Serif" font-size="10" text-anchor="middle">IMemoryRegion</text></a></g></g><g id="edge3" class="edge"><title>Node3-&gt;Node2</title><path fill="none" stroke="#191970" d="M68,-158.1575C68,-149.155 68,-138.9199 68,-131.6427"/><polygon fill="#191970" stroke="#191970" points="64.5 -158.245 68 -168.245 71.5 -158.246 64.5 -158.245"/></g></g></svg>