<svg xmlns="http://www.w3.org/2000/svg" xmlns:xlink="http://www.w3.org/1999/xlink" width="109pt" height="140pt" viewBox="0 0 109 140"><g id="graph0" class="graph" transform="scale(1 1) rotate(0) translate(4 136)"><title>NEGaussian3x3</title><polygon fill="#fff" stroke="transparent" points="-4 4 -4 -136 105 -136 105 4 -4 4"/><g id="node1" class="node"><title>Node0</title><polygon fill="#bfbfbf" stroke="#000" points="6.5 -.5 6.5 -19.5 94.5 -19.5 94.5 -.5 6.5 -.5"/><text x="50.5" y="-7.5" fill="#000" font-family="Helvetica,sans-Serif" font-size="10" text-anchor="middle">NEGaussian3x3</text></g><g id="node2" class="node"><title>Node1</title><g id="a_node2"><a target="_top" xlink:href="classarm__compute_1_1_i_n_e_simple_function.xhtml" xlink:title="Basic interface for functions which have a single NEON kernel."><polygon fill="#fff" stroke="#000" points="0 -56.5 0 -75.5 101 -75.5 101 -56.5 0 -56.5"/><text x="50.5" y="-63.5" fill="#000" font-family="Helvetica,sans-Serif" font-size="10" text-anchor="middle">INESimpleFunction</text></a></g></g><g id="edge1" class="edge"><title>Node1-&gt;Node0</title><path fill="none" stroke="#191970" d="M50.5,-46.1575C50.5,-37.155 50.5,-26.9199 50.5,-19.6427"/><polygon fill="#191970" stroke="#191970" points="47 -46.245 50.5 -56.245 54 -46.246 47 -46.245"/></g><g id="node3" class="node"><title>Node2</title><g id="a_node3"><a target="_top" xlink:href="classarm__compute_1_1_i_function.xhtml" xlink:title="Base class for all functions."><polygon fill="#fff" stroke="#000" points="22 -112.5 22 -131.5 79 -131.5 79 -112.5 22 -112.5"/><text x="50.5" y="-119.5" fill="#000" font-family="Helvetica,sans-Serif" font-size="10" text-anchor="middle">IFunction</text></a></g></g><g id="edge2" class="edge"><title>Node2-&gt;Node1</title><path fill="none" stroke="#191970" d="M50.5,-102.1575C50.5,-93.155 50.5,-82.9199 50.5,-75.6427"/><polygon fill="#191970" stroke="#191970" points="47 -102.246 50.5 -112.246 54 -102.246 47 -102.246"/></g></g></svg>