<svg xmlns="http://www.w3.org/2000/svg" xmlns:xlink="http://www.w3.org/1999/xlink" width="156" height="140pt" viewBox="0 0 117 140"><g id="graph0" class="graph" transform="scale(1 1) rotate(0) translate(4 136)"><title>CLHarrisScoreKernel</title><polygon fill="#fff" stroke="transparent" points="-4 4 -4 -136 113 -136 113 4 -4 4"/><g id="node1" class="node"><title>Node0</title><polygon fill="#bfbfbf" stroke="#000" points="0 -.5 0 -19.5 109 -19.5 109 -.5 0 -.5"/><text x="54.5" y="-7.5" fill="#000" font-family="Helvetica,sans-Serif" font-size="10" text-anchor="middle">CLHarrisScoreKernel</text></g><g id="node2" class="node"><title>Node1</title><g id="a_node2"><a target="_top" xlink:href="classarm__compute_1_1_i_c_l_kernel.xhtml" xlink:title="Common interface for all the OpenCL kernels."><polygon fill="#fff" stroke="#000" points="24.5 -56.5 24.5 -75.5 84.5 -75.5 84.5 -56.5 24.5 -56.5"/><text x="54.5" y="-63.5" fill="#000" font-family="Helvetica,sans-Serif" font-size="10" text-anchor="middle">ICLKernel</text></a></g></g><g id="edge1" class="edge"><title>Node1-&gt;Node0</title><path fill="none" stroke="#191970" d="M54.5,-46.1575C54.5,-37.155 54.5,-26.9199 54.5,-19.6427"/><polygon fill="#191970" stroke="#191970" points="51 -46.245 54.5 -56.245 58 -46.246 51 -46.245"/></g><g id="node3" class="node"><title>Node2</title><g id="a_node3"><a target="_top" xlink:href="classarm__compute_1_1_i_kernel.xhtml" xlink:title="Common information for all the kernels."><polygon fill="#fff" stroke="#000" points="31 -112.5 31 -131.5 78 -131.5 78 -112.5 31 -112.5"/><text x="54.5" y="-119.5" fill="#000" font-family="Helvetica,sans-Serif" font-size="10" text-anchor="middle">IKernel</text></a></g></g><g id="edge2" class="edge"><title>Node2-&gt;Node1</title><path fill="none" stroke="#191970" d="M54.5,-102.1575C54.5,-93.155 54.5,-82.9199 54.5,-75.6427"/><polygon fill="#191970" stroke="#191970" points="51 -102.246 54.5 -112.246 58 -102.246 51 -102.246"/></g></g></svg>