<svg xmlns="http://www.w3.org/2000/svg" xmlns:xlink="http://www.w3.org/1999/xlink" width="152pt" height="151pt" viewBox="0 0 152 151"><g id="graph0" class="graph" transform="scale(1 1) rotate(0) translate(4 147)"><title>CLGEMMLowpMatrixMultiplyKernel</title><polygon fill="#fff" stroke="transparent" points="-4 4 -4 -147 148 -147 148 4 -4 4"/><g id="node1" class="node"><title>Node0</title><polygon fill="#bfbfbf" stroke="#000" points="0 -.5 0 -30.5 144 -30.5 144 -.5 0 -.5"/><text x="8" y="-18.5" fill="#000" font-family="Helvetica,sans-Serif" font-size="10" text-anchor="start">CLGEMMLowpMatrixMultiply</text><text x="72" y="-7.5" fill="#000" font-family="Helvetica,sans-Serif" font-size="10" text-anchor="middle">Kernel</text></g><g id="node2" class="node"><title>Node1</title><g id="a_node2"><a target="_top" xlink:href="classarm__compute_1_1_i_c_l_kernel.xhtml" xlink:title="Common interface for all the OpenCL kernels."><polygon fill="#fff" stroke="#000" points="42 -67.5 42 -86.5 102 -86.5 102 -67.5 42 -67.5"/><text x="72" y="-74.5" fill="#000" font-family="Helvetica,sans-Serif" font-size="10" text-anchor="middle">ICLKernel</text></a></g></g><g id="edge1" class="edge"><title>Node1-&gt;Node0</title><path fill="none" stroke="#191970" d="M72,-57.3693C72,-48.681 72,-38.6241 72,-30.5446"/><polygon fill="#191970" stroke="#191970" points="68.5 -57.391 72 -67.391 75.5 -57.391 68.5 -57.391"/></g><g id="node3" class="node"><title>Node2</title><g id="a_node3"><a target="_top" xlink:href="classarm__compute_1_1_i_kernel.xhtml" xlink:title="Common information for all the kernels."><polygon fill="#fff" stroke="#000" points="48.5 -123.5 48.5 -142.5 95.5 -142.5 95.5 -123.5 48.5 -123.5"/><text x="72" y="-130.5" fill="#000" font-family="Helvetica,sans-Serif" font-size="10" text-anchor="middle">IKernel</text></a></g></g><g id="edge2" class="edge"><title>Node2-&gt;Node1</title><path fill="none" stroke="#191970" d="M72,-113.1575C72,-104.155 72,-93.9199 72,-86.6427"/><polygon fill="#191970" stroke="#191970" points="68.5 -113.246 72 -123.246 75.5 -113.246 68.5 -113.246"/></g></g></svg>