<svg xmlns="http://www.w3.org/2000/svg" xmlns:xlink="http://www.w3.org/1999/xlink" width="164" height="140pt" viewBox="0 0 123 140"><g id="graph0" class="graph" transform="scale(1 1) rotate(0) translate(4 136)"><title>GCAbsoluteDifference</title><polygon fill="#fff" stroke="transparent" points="-4 4 -4 -136 119 -136 119 4 -4 4"/><g id="node1" class="node"><title>Node0</title><polygon fill="#bfbfbf" stroke="#000" points="0 -.5 0 -19.5 115 -19.5 115 -.5 0 -.5"/><text x="57.5" y="-7.5" fill="#000" font-family="Helvetica,sans-Serif" font-size="10" text-anchor="middle">GCAbsoluteDifference</text></g><g id="node2" class="node"><title>Node1</title><g id="a_node2"><a target="_top" xlink:href="classarm__compute_1_1_i_g_c_simple_function.xhtml" xlink:title="Basic interface for functions which have a single OpenGL ES kernel."><polygon fill="#fff" stroke="#000" points="6.5 -56.5 6.5 -75.5 108.5 -75.5 108.5 -56.5 6.5 -56.5"/><text x="57.5" y="-63.5" fill="#000" font-family="Helvetica,sans-Serif" font-size="10" text-anchor="middle">IGCSimpleFunction</text></a></g></g><g id="edge1" class="edge"><title>Node1-&gt;Node0</title><path fill="none" stroke="#191970" d="M57.5,-46.1575C57.5,-37.155 57.5,-26.9199 57.5,-19.6427"/><polygon fill="#191970" stroke="#191970" points="54 -46.245 57.5 -56.245 61 -46.246 54 -46.245"/></g><g id="node3" class="node"><title>Node2</title><g id="a_node3"><a target="_top" xlink:href="classarm__compute_1_1_i_function.xhtml" xlink:title="Base class for all functions."><polygon fill="#fff" stroke="#000" points="29 -112.5 29 -131.5 86 -131.5 86 -112.5 29 -112.5"/><text x="57.5" y="-119.5" fill="#000" font-family="Helvetica,sans-Serif" font-size="10" text-anchor="middle">IFunction</text></a></g></g><g id="edge2" class="edge"><title>Node2-&gt;Node1</title><path fill="none" stroke="#191970" d="M57.5,-102.1575C57.5,-93.155 57.5,-82.9199 57.5,-75.6427"/><polygon fill="#191970" stroke="#191970" points="54 -102.246 57.5 -112.246 61 -102.246 54 -102.246"/></g></g></svg>