<svg xmlns="http://www.w3.org/2000/svg" xmlns:xlink="http://www.w3.org/1999/xlink" width="170pt" height="151pt" viewBox="0 0 170 151"><g id="graph0" class="graph" transform="scale(1 1) rotate(0) translate(4 147)"><title>NEFullyConnectedLayerReshapeWeights</title><polygon fill="#fff" stroke="transparent" points="-4 4 -4 -147 166 -147 166 4 -4 4"/><g id="node1" class="node"><title>Node0</title><polygon fill="#bfbfbf" stroke="#000" points="0 -.5 0 -30.5 162 -30.5 162 -.5 0 -.5"/><text x="8" y="-18.5" fill="#000" font-family="Helvetica,sans-Serif" font-size="10" text-anchor="start">NEFullyConnectedLayerReshape</text><text x="81" y="-7.5" fill="#000" font-family="Helvetica,sans-Serif" font-size="10" text-anchor="middle">Weights</text></g><g id="node2" class="node"><title>Node1</title><g id="a_node2"><a target="_top" xlink:href="classarm__compute_1_1_i_n_e_simple_function.xhtml" xlink:title="Basic interface for functions which have a single NEON kernel."><polygon fill="#fff" stroke="#000" points="30.5 -67.5 30.5 -86.5 131.5 -86.5 131.5 -67.5 30.5 -67.5"/><text x="81" y="-74.5" fill="#000" font-family="Helvetica,sans-Serif" font-size="10" text-anchor="middle">INESimpleFunction</text></a></g></g><g id="edge1" class="edge"><title>Node1-&gt;Node0</title><path fill="none" stroke="#191970" d="M81,-57.3693C81,-48.681 81,-38.6241 81,-30.5446"/><polygon fill="#191970" stroke="#191970" points="77.5 -57.391 81 -67.391 84.5 -57.391 77.5 -57.391"/></g><g id="node3" class="node"><title>Node2</title><g id="a_node3"><a target="_top" xlink:href="classarm__compute_1_1_i_function.xhtml" xlink:title="Base class for all functions."><polygon fill="#fff" stroke="#000" points="52.5 -123.5 52.5 -142.5 109.5 -142.5 109.5 -123.5 52.5 -123.5"/><text x="81" y="-130.5" fill="#000" font-family="Helvetica,sans-Serif" font-size="10" text-anchor="middle">IFunction</text></a></g></g><g id="edge2" class="edge"><title>Node2-&gt;Node1</title><path fill="none" stroke="#191970" d="M81,-113.1575C81,-104.155 81,-93.9199 81,-86.6427"/><polygon fill="#191970" stroke="#191970" points="77.5 -113.246 81 -123.246 84.5 -113.246 77.5 -113.246"/></g></g></svg>