<svg xmlns="http://www.w3.org/2000/svg" xmlns:xlink="http://www.w3.org/1999/xlink" width="134pt" height="140pt" viewBox="0 0 134 140"><g id="graph0" class="graph" transform="scale(1 1) rotate(0) translate(4 136)"><title>NEGaussianPyramidHalf</title><polygon fill="#fff" stroke="transparent" points="-4 4 -4 -136 130 -136 130 4 -4 4"/><g id="node1" class="node"><title>Node0</title><polygon fill="#bfbfbf" stroke="#000" points="0 -.5 0 -19.5 126 -19.5 126 -.5 0 -.5"/><text x="63" y="-7.5" fill="#000" font-family="Helvetica,sans-Serif" font-size="10" text-anchor="middle">NEGaussianPyramidHalf</text></g><g id="node2" class="node"><title>Node1</title><g id="a_node2"><a target="_top" xlink:href="classarm__compute_1_1_n_e_gaussian_pyramid.xhtml" xlink:title="Common interface for all Gaussian pyramid functions."><polygon fill="#fff" stroke="#000" points="9 -56.5 9 -75.5 117 -75.5 117 -56.5 9 -56.5"/><text x="63" y="-63.5" fill="#000" font-family="Helvetica,sans-Serif" font-size="10" text-anchor="middle">NEGaussianPyramid</text></a></g></g><g id="edge1" class="edge"><title>Node1-&gt;Node0</title><path fill="none" stroke="#191970" d="M63,-46.1575C63,-37.155 63,-26.9199 63,-19.6427"/><polygon fill="#191970" stroke="#191970" points="59.5 -46.245 63 -56.245 66.5 -46.246 59.5 -46.245"/></g><g id="node3" class="node"><title>Node2</title><g id="a_node3"><a target="_top" xlink:href="classarm__compute_1_1_i_function.xhtml" xlink:title="Base class for all functions."><polygon fill="#fff" stroke="#000" points="34.5 -112.5 34.5 -131.5 91.5 -131.5 91.5 -112.5 34.5 -112.5"/><text x="63" y="-119.5" fill="#000" font-family="Helvetica,sans-Serif" font-size="10" text-anchor="middle">IFunction</text></a></g></g><g id="edge2" class="edge"><title>Node2-&gt;Node1</title><path fill="none" stroke="#191970" d="M63,-102.1575C63,-93.155 63,-82.9199 63,-75.6427"/><polygon fill="#191970" stroke="#191970" points="59.5 -102.246 63 -112.246 66.5 -102.246 59.5 -102.246"/></g></g></svg>