<svg xmlns="http://www.w3.org/2000/svg" xmlns:xlink="http://www.w3.org/1999/xlink" width="134pt" height="196pt" viewBox="0 0 134 196"><g id="graph0" class="graph" transform="scale(1 1) rotate(0) translate(4 192)"><title>NEChannelExtractKernel</title><polygon fill="#fff" stroke="transparent" points="-4 4 -4 -192 130 -192 130 4 -4 4"/><g id="node1" class="node"><title>Node0</title><polygon fill="#bfbfbf" stroke="#000" points="0 -.5 0 -19.5 126 -19.5 126 -.5 0 -.5"/><text x="63" y="-7.5" fill="#000" font-family="Helvetica,sans-Serif" font-size="10" text-anchor="middle">NEChannelExtractKernel</text></g><g id="node2" class="node"><title>Node1</title><g id="a_node2"><a target="_top" xlink:href="classarm__compute_1_1_i_c_p_p_simple_kernel.xhtml" xlink:title="Interface for simple C++ kernels having 1 tensor input and 1 tensor output."><polygon fill="#fff" stroke="#000" points="17 -56.5 17 -75.5 109 -75.5 109 -56.5 17 -56.5"/><text x="63" y="-63.5" fill="#000" font-family="Helvetica,sans-Serif" font-size="10" text-anchor="middle">INESimpleKernel</text></a></g></g><g id="edge1" class="edge"><title>Node1-&gt;Node0</title><path fill="none" stroke="#191970" d="M63,-46.1575C63,-37.155 63,-26.9199 63,-19.6427"/><polygon fill="#191970" stroke="#191970" points="59.5 -46.245 63 -56.245 66.5 -46.246 59.5 -46.245"/></g><g id="node3" class="node"><title>Node2</title><g id="a_node3"><a target="_top" xlink:href="classarm__compute_1_1_i_c_p_p_kernel.xhtml" xlink:title="Common interface for all kernels implemented in C++."><polygon fill="#fff" stroke="#000" points="29 -112.5 29 -131.5 97 -131.5 97 -112.5 29 -112.5"/><text x="63" y="-119.5" fill="#000" font-family="Helvetica,sans-Serif" font-size="10" text-anchor="middle">ICPPKernel</text></a></g></g><g id="edge2" class="edge"><title>Node2-&gt;Node1</title><path fill="none" stroke="#191970" d="M63,-102.1575C63,-93.155 63,-82.9199 63,-75.6427"/><polygon fill="#191970" stroke="#191970" points="59.5 -102.246 63 -112.246 66.5 -102.246 59.5 -102.246"/></g><g id="node4" class="node"><title>Node3</title><g id="a_node4"><a target="_top" xlink:href="classarm__compute_1_1_i_kernel.xhtml" xlink:title="Common information for all the kernels."><polygon fill="#fff" stroke="#000" points="39.5 -168.5 39.5 -187.5 86.5 -187.5 86.5 -168.5 39.5 -168.5"/><text x="63" y="-175.5" fill="#000" font-family="Helvetica,sans-Serif" font-size="10" text-anchor="middle">IKernel</text></a></g></g><g id="edge3" class="edge"><title>Node3-&gt;Node2</title><path fill="none" stroke="#191970" d="M63,-158.1575C63,-149.155 63,-138.9199 63,-131.6427"/><polygon fill="#191970" stroke="#191970" points="59.5 -158.245 63 -168.245 66.5 -158.246 59.5 -158.245"/></g></g></svg>