<svg xmlns="http://www.w3.org/2000/svg" xmlns:xlink="http://www.w3.org/1999/xlink" width="152" height="336" viewBox="0 0 114 252"><g id="graph0" class="graph" transform="scale(1 1) rotate(0) translate(4 248)"><title>CLWarpAffineKernel</title><polygon fill="#fff" stroke="transparent" points="-4 4 -4 -248 110 -248 110 4 -4 4"/><g id="node1" class="node"><title>Node0</title><polygon fill="#bfbfbf" stroke="#000" points="0 -.5 0 -19.5 106 -19.5 106 -.5 0 -.5"/><text x="53" y="-7.5" fill="#000" font-family="Helvetica,sans-Serif" font-size="10" text-anchor="middle">CLWarpAffineKernel</text></g><g id="node2" class="node"><title>Node1</title><g id="a_node2"><a target="_top" xlink:href="classarm__compute_1_1_i_c_l_simple2_d_kernel.xhtml" xlink:title="Interface for simple OpenCL kernels having 1 tensor input and 1 tensor output."><polygon fill="#fff" stroke="#000" points="1.5 -56.5 1.5 -75.5 104.5 -75.5 104.5 -56.5 1.5 -56.5"/><text x="53" y="-63.5" fill="#000" font-family="Helvetica,sans-Serif" font-size="10" text-anchor="middle">ICLSimple2DKernel</text></a></g></g><g id="edge1" class="edge"><title>Node1-&gt;Node0</title><path fill="none" stroke="#191970" d="M53,-46.1575C53,-37.155 53,-26.9199 53,-19.6427"/><polygon fill="#191970" stroke="#191970" points="49.5 -46.245 53 -56.245 56.5 -46.246 49.5 -46.245"/></g><g id="node3" class="node"><title>Node2</title><g id="a_node3"><a target="_top" xlink:href="classarm__compute_1_1_i_c_l_simple_kernel.xhtml" xlink:title="Interface for simple OpenCL kernels having 1 tensor input and 1 tensor output."><polygon fill="#fff" stroke="#000" points="8 -112.5 8 -131.5 98 -131.5 98 -112.5 8 -112.5"/><text x="53" y="-119.5" fill="#000" font-family="Helvetica,sans-Serif" font-size="10" text-anchor="middle">ICLSimpleKernel</text></a></g></g><g id="edge2" class="edge"><title>Node2-&gt;Node1</title><path fill="none" stroke="#191970" d="M53,-102.1575C53,-93.155 53,-82.9199 53,-75.6427"/><polygon fill="#191970" stroke="#191970" points="49.5 -102.246 53 -112.246 56.5 -102.246 49.5 -102.246"/></g><g id="node4" class="node"><title>Node3</title><g id="a_node4"><a target="_top" xlink:href="classarm__compute_1_1_i_c_l_kernel.xhtml" xlink:title="Common interface for all the OpenCL kernels."><polygon fill="#fff" stroke="#000" points="23 -168.5 23 -187.5 83 -187.5 83 -168.5 23 -168.5"/><text x="53" y="-175.5" fill="#000" font-family="Helvetica,sans-Serif" font-size="10" text-anchor="middle">ICLKernel</text></a></g></g><g id="edge3" class="edge"><title>Node3-&gt;Node2</title><path fill="none" stroke="#191970" d="M53,-158.1575C53,-149.155 53,-138.9199 53,-131.6427"/><polygon fill="#191970" stroke="#191970" points="49.5 -158.245 53 -168.245 56.5 -158.246 49.5 -158.245"/></g><g id="node5" class="node"><title>Node4</title><g id="a_node5"><a target="_top" xlink:href="classarm__compute_1_1_i_kernel.xhtml" xlink:title="Common information for all the kernels."><polygon fill="#fff" stroke="#000" points="29.5 -224.5 29.5 -243.5 76.5 -243.5 76.5 -224.5 29.5 -224.5"/><text x="53" y="-231.5" fill="#000" font-family="Helvetica,sans-Serif" font-size="10" text-anchor="middle">IKernel</text></a></g></g><g id="edge4" class="edge"><title>Node4-&gt;Node3</title><path fill="none" stroke="#191970" d="M53,-214.1575C53,-205.155 53,-194.9199 53,-187.6427"/><polygon fill="#191970" stroke="#191970" points="49.5 -214.245 53 -224.245 56.5 -214.246 49.5 -214.245"/></g></g></svg>