<svg xmlns="http://www.w3.org/2000/svg" xmlns:xlink="http://www.w3.org/1999/xlink" width="178pt" height="151pt" viewBox="0 0 178 151"><g id="graph0" class="graph" transform="scale(1 1) rotate(0) translate(4 147)"><title>CLGEMMLowpQuantizeDownInt32ToUint8ScaleByFloat</title><polygon fill="#fff" stroke="transparent" points="-4 4 -4 -147 174 -147 174 4 -4 4"/><g id="node1" class="node"><title>Node0</title><polygon fill="#bfbfbf" stroke="#000" points="0 -.5 0 -30.5 170 -30.5 170 -.5 0 -.5"/><text x="8" y="-18.5" fill="#000" font-family="Helvetica,sans-Serif" font-size="10" text-anchor="start">CLGEMMLowpQuantizeDownInt32</text><text x="85" y="-7.5" fill="#000" font-family="Helvetica,sans-Serif" font-size="10" text-anchor="middle">ToUint8ScaleByFloat</text></g><g id="node2" class="node"><title>Node1</title><g id="a_node2"><a target="_top" xlink:href="classarm__compute_1_1_i_c_l_simple_function.xhtml" xlink:title="Basic interface for functions which have a single OpenCL kernel."><polygon fill="#fff" stroke="#000" points="35 -67.5 35 -86.5 135 -86.5 135 -67.5 35 -67.5"/><text x="85" y="-74.5" fill="#000" font-family="Helvetica,sans-Serif" font-size="10" text-anchor="middle">ICLSimpleFunction</text></a></g></g><g id="edge1" class="edge"><title>Node1-&gt;Node0</title><path fill="none" stroke="#191970" d="M85,-57.3693C85,-48.681 85,-38.6241 85,-30.5446"/><polygon fill="#191970" stroke="#191970" points="81.5 -57.391 85 -67.391 88.5 -57.391 81.5 -57.391"/></g><g id="node3" class="node"><title>Node2</title><g id="a_node3"><a target="_top" xlink:href="classarm__compute_1_1_i_function.xhtml" xlink:title="Base class for all functions."><polygon fill="#fff" stroke="#000" points="56.5 -123.5 56.5 -142.5 113.5 -142.5 113.5 -123.5 56.5 -123.5"/><text x="85" y="-130.5" fill="#000" font-family="Helvetica,sans-Serif" font-size="10" text-anchor="middle">IFunction</text></a></g></g><g id="edge2" class="edge"><title>Node2-&gt;Node1</title><path fill="none" stroke="#191970" d="M85,-113.1575C85,-104.155 85,-93.9199 85,-86.6427"/><polygon fill="#191970" stroke="#191970" points="81.5 -113.246 85 -123.246 88.5 -113.246 81.5 -113.246"/></g></g></svg>