<svg xmlns="http://www.w3.org/2000/svg" xmlns:xlink="http://www.w3.org/1999/xlink" width="328" height="196pt" viewBox="0 0 246 196"><g id="graph0" class="graph" transform="scale(1 1) rotate(0) translate(4 192)"><title>CLDirectConvolutionLayerKernel</title><polygon fill="#fff" stroke="transparent" points="-4 4 -4 -192 242 -192 242 4 -4 4"/><g id="node1" class="node"><title>Node0</title><polygon fill="#bfbfbf" stroke="#000" points="43.5 -.5 43.5 -30.5 174.5 -30.5 174.5 -.5 43.5 -.5"/><text x="51.5" y="-18.5" fill="#000" font-family="Helvetica,sans-Serif" font-size="10" text-anchor="start">CLDirectConvolutionLayer</text><text x="109" y="-7.5" fill="#000" font-family="Helvetica,sans-Serif" font-size="10" text-anchor="middle">Kernel</text></g><g id="node2" class="node"><title>Node1</title><g id="a_node2"><a target="_top" xlink:href="classarm__compute_1_1_i_c_l_kernel.xhtml" xlink:title="Common interface for all the OpenCL kernels."><polygon fill="#fff" stroke="#000" points="0 -111.5 0 -130.5 60 -130.5 60 -111.5 0 -111.5"/><text x="30" y="-118.5" fill="#000" font-family="Helvetica,sans-Serif" font-size="10" text-anchor="middle">ICLKernel</text></a></g></g><g id="edge1" class="edge"><title>Node1-&gt;Node0</title><path fill="none" stroke="#191970" d="M43.386,-103.1238C58.6568,-82.7305 83.3618,-49.7384 97.7022,-30.5875"/><polygon fill="#191970" stroke="#191970" points="40.483 -101.162 37.291 -111.264 46.086 -105.357 40.483 -101.162"/></g><g id="node3" class="node"><title>Node2</title><g id="a_node3"><a target="_top" xlink:href="classarm__compute_1_1_i_kernel.xhtml" xlink:title="Common information for all the kernels."><polygon fill="#fff" stroke="#000" points="6.5 -168.5 6.5 -187.5 53.5 -187.5 53.5 -168.5 6.5 -168.5"/><text x="30" y="-175.5" fill="#000" font-family="Helvetica,sans-Serif" font-size="10" text-anchor="middle">IKernel</text></a></g></g><g id="edge2" class="edge"><title>Node2-&gt;Node1</title><path fill="none" stroke="#191970" d="M30,-158.2342C30,-148.8491 30,-138.0651 30,-130.5265"/><polygon fill="#191970" stroke="#191970" points="26.5 -158.331 30 -168.331 33.5 -158.331 26.5 -158.331"/></g><g id="node4" class="node"><title>Node3</title><g id="a_node4"><a target="_top" xlink:href="classarm__compute_1_1_i_c_l_tensor.xhtml" xlink:title="Interface for OpenCL tensor."><polygon fill="#fff" stroke="#000" points="78 -111.5 78 -130.5 140 -130.5 140 -111.5 78 -111.5"/><text x="109" y="-118.5" fill="#000" font-family="Helvetica,sans-Serif" font-size="10" text-anchor="middle">ICLTensor</text></a></g></g><g id="edge3" class="edge"><title>Node3-&gt;Node0</title><path fill="none" stroke="#9a32cd" stroke-dasharray="5 2" d="M109,-101.1669C109,-80.6729 109,-49.1372 109,-30.5875"/><polygon fill="#9a32cd" stroke="#9a32cd" points="105.5 -101.264 109 -111.264 112.5 -101.264 105.5 -101.264"/><text x="129" y="-85" fill="#000" font-family="Helvetica,sans-Serif" font-size="10" text-anchor="middle">_output</text><text x="129" y="-74" fill="#000" font-family="Helvetica,sans-Serif" font-size="10" text-anchor="middle">_weights</text><text x="129" y="-63" fill="#000" font-family="Helvetica,sans-Serif" font-size="10" text-anchor="middle">_biases</text><text x="129" y="-52" fill="#000" font-family="Helvetica,sans-Serif" font-size="10" text-anchor="middle">_input</text></g><g id="node5" class="node"><title>Node4</title><g id="a_node5"><a target="_top" xlink:href="classarm__compute_1_1_i_tensor.xhtml" xlink:title="Interface for NEON tensor."><polygon fill="#fff" stroke="#000" points="84 -168.5 84 -187.5 134 -187.5 134 -168.5 84 -168.5"/><text x="109" y="-175.5" fill="#000" font-family="Helvetica,sans-Serif" font-size="10" text-anchor="middle">ITensor</text></a></g></g><g id="edge4" class="edge"><title>Node4-&gt;Node3</title><path fill="none" stroke="#191970" d="M109,-158.2342C109,-148.8491 109,-138.0651 109,-130.5265"/><polygon fill="#191970" stroke="#191970" points="105.5 -158.331 109 -168.331 112.5 -158.331 105.5 -158.331"/></g><g id="node6" class="node"><title>Node5</title><g id="a_node6"><a target="_top" xlink:href="structarm__compute_1_1_border_size.xhtml" xlink:title="Container for 2D border size."><polygon fill="#fff" stroke="#000" points="158.5 -111.5 158.5 -130.5 223.5 -130.5 223.5 -111.5 158.5 -111.5"/><text x="191" y="-118.5" fill="#000" font-family="Helvetica,sans-Serif" font-size="10" text-anchor="middle">BorderSize</text></a></g></g><g id="edge5" class="edge"><title>Node5-&gt;Node0</title><path fill="none" stroke="#9a32cd" stroke-dasharray="5 2" d="M183.6199,-101.852C177.0915,-86.4951 166.5101,-64.9475 153,-49 147.2905,-42.2604 140.0021,-36.0384 133.007,-30.8323"/><polygon fill="#9a32cd" stroke="#9a32cd" points="180.472 -103.402 187.478 -111.35 186.957 -100.768 180.472 -103.402"/><text x="208.5" y="-68.5" fill="#000" font-family="Helvetica,sans-Serif" font-size="10" text-anchor="middle">_border_size</text></g></g></svg>