<svg xmlns="http://www.w3.org/2000/svg" xmlns:xlink="http://www.w3.org/1999/xlink" width="142pt" height="276" viewBox="0 0 142 207"><g id="graph0" class="graph" transform="scale(1 1) rotate(0) translate(4 203)"><title>NEWarpPerspectiveKernel&lt; interpolation &gt;</title><polygon fill="#fff" stroke="transparent" points="-4 4 -4 -203 138 -203 138 4 -4 4"/><g id="node1" class="node"><title>Node0</title><polygon fill="#bfbfbf" stroke="#000" points="0 -.5 0 -30.5 134 -30.5 134 -.5 0 -.5"/><text x="8" y="-18.5" fill="#000" font-family="Helvetica,sans-Serif" font-size="10" text-anchor="start">NEWarpPerspectiveKernel</text><text x="67" y="-7.5" fill="#000" font-family="Helvetica,sans-Serif" font-size="10" text-anchor="middle">&lt; interpolation &gt;</text></g><g id="node2" class="node"><title>Node1</title><g id="a_node2"><a target="_top" xlink:href="classarm__compute_1_1_i_n_e_warp_kernel.xhtml" xlink:title="Common interface for warp affine and warp perspective."><polygon fill="#fff" stroke="#000" points="24.5 -67.5 24.5 -86.5 109.5 -86.5 109.5 -67.5 24.5 -67.5"/><text x="67" y="-74.5" fill="#000" font-family="Helvetica,sans-Serif" font-size="10" text-anchor="middle">INEWarpKernel</text></a></g></g><g id="edge1" class="edge"><title>Node1-&gt;Node0</title><path fill="none" stroke="#191970" d="M67,-57.3693C67,-48.681 67,-38.6241 67,-30.5446"/><polygon fill="#191970" stroke="#191970" points="63.5 -57.391 67 -67.391 70.5 -57.391 63.5 -57.391"/></g><g id="node3" class="node"><title>Node2</title><g id="a_node3"><a target="_top" xlink:href="classarm__compute_1_1_i_c_p_p_kernel.xhtml" xlink:title="Common interface for all kernels implemented in C++."><polygon fill="#fff" stroke="#000" points="36 -123.5 36 -142.5 98 -142.5 98 -123.5 36 -123.5"/><text x="67" y="-130.5" fill="#000" font-family="Helvetica,sans-Serif" font-size="10" text-anchor="middle">INEKernel</text></a></g></g><g id="edge2" class="edge"><title>Node2-&gt;Node1</title><path fill="none" stroke="#191970" d="M67,-113.1575C67,-104.155 67,-93.9199 67,-86.6427"/><polygon fill="#191970" stroke="#191970" points="63.5 -113.246 67 -123.246 70.5 -113.246 63.5 -113.246"/></g><g id="node4" class="node"><title>Node3</title><g id="a_node4"><a target="_top" xlink:href="classarm__compute_1_1_i_kernel.xhtml" xlink:title="Common information for all the kernels."><polygon fill="#fff" stroke="#000" points="43.5 -179.5 43.5 -198.5 90.5 -198.5 90.5 -179.5 43.5 -179.5"/><text x="67" y="-186.5" fill="#000" font-family="Helvetica,sans-Serif" font-size="10" text-anchor="middle">IKernel</text></a></g></g><g id="edge3" class="edge"><title>Node3-&gt;Node2</title><path fill="none" stroke="#191970" d="M67,-169.1575C67,-160.155 67,-149.9199 67,-142.6427"/><polygon fill="#191970" stroke="#191970" points="63.5 -169.245 67 -179.245 70.5 -169.246 63.5 -169.245"/></g></g></svg>