<svg xmlns="http://www.w3.org/2000/svg" xmlns:xlink="http://www.w3.org/1999/xlink" width="116" height="140pt" viewBox="0 0 87 140"><g id="graph0" class="graph" transform="scale(1 1) rotate(0) translate(4 136)"><title>CLFloorKernel</title><polygon fill="#fff" stroke="transparent" points="-4 4 -4 -136 83 -136 83 4 -4 4"/><g id="node1" class="node"><title>Node0</title><polygon fill="#bfbfbf" stroke="#000" points="0 -.5 0 -19.5 79 -19.5 79 -.5 0 -.5"/><text x="39.5" y="-7.5" fill="#000" font-family="Helvetica,sans-Serif" font-size="10" text-anchor="middle">CLFloorKernel</text></g><g id="node2" class="node"><title>Node1</title><g id="a_node2"><a target="_top" xlink:href="classarm__compute_1_1_i_c_l_kernel.xhtml" xlink:title="Common interface for all the OpenCL kernels."><polygon fill="#fff" stroke="#000" points="9.5 -56.5 9.5 -75.5 69.5 -75.5 69.5 -56.5 9.5 -56.5"/><text x="39.5" y="-63.5" fill="#000" font-family="Helvetica,sans-Serif" font-size="10" text-anchor="middle">ICLKernel</text></a></g></g><g id="edge1" class="edge"><title>Node1-&gt;Node0</title><path fill="none" stroke="#191970" d="M39.5,-46.1575C39.5,-37.155 39.5,-26.9199 39.5,-19.6427"/><polygon fill="#191970" stroke="#191970" points="36 -46.245 39.5 -56.245 43 -46.246 36 -46.245"/></g><g id="node3" class="node"><title>Node2</title><g id="a_node3"><a target="_top" xlink:href="classarm__compute_1_1_i_kernel.xhtml" xlink:title="Common information for all the kernels."><polygon fill="#fff" stroke="#000" points="16 -112.5 16 -131.5 63 -131.5 63 -112.5 16 -112.5"/><text x="39.5" y="-119.5" fill="#000" font-family="Helvetica,sans-Serif" font-size="10" text-anchor="middle">IKernel</text></a></g></g><g id="edge2" class="edge"><title>Node2-&gt;Node1</title><path fill="none" stroke="#191970" d="M39.5,-102.1575C39.5,-93.155 39.5,-82.9199 39.5,-75.6427"/><polygon fill="#191970" stroke="#191970" points="36 -102.246 39.5 -112.246 43 -102.246 36 -102.246"/></g></g></svg>