<svg xmlns="http://www.w3.org/2000/svg" xmlns:xlink="http://www.w3.org/1999/xlink" width="148pt" height="263pt" viewBox="0 0 148 263"><g id="graph0" class="graph" transform="scale(1 1) rotate(0) translate(4 259)"><title>CLSeparableConvolutionHorKernel&lt; matrix_size &gt;</title><polygon fill="#fff" stroke="transparent" points="-4 4 -4 -259 144 -259 144 4 -4 4"/><g id="node1" class="node"><title>Node0</title><polygon fill="#bfbfbf" stroke="#000" points="0 -.5 0 -30.5 140 -30.5 140 -.5 0 -.5"/><text x="8" y="-18.5" fill="#000" font-family="Helvetica,sans-Serif" font-size="10" text-anchor="start">CLSeparableConvolutionHor</text><text x="70" y="-7.5" fill="#000" font-family="Helvetica,sans-Serif" font-size="10" text-anchor="middle">Kernel&lt; matrix_size &gt;</text></g><g id="node2" class="node"><title>Node1</title><g id="a_node2"><a target="_top" xlink:href="classarm__compute_1_1_i_c_l_simple2_d_kernel.xhtml" xlink:title="Interface for simple OpenCL kernels having 1 tensor input and 1 tensor output."><polygon fill="#fff" stroke="#000" points="18.5 -67.5 18.5 -86.5 121.5 -86.5 121.5 -67.5 18.5 -67.5"/><text x="70" y="-74.5" fill="#000" font-family="Helvetica,sans-Serif" font-size="10" text-anchor="middle">ICLSimple2DKernel</text></a></g></g><g id="edge1" class="edge"><title>Node1-&gt;Node0</title><path fill="none" stroke="#191970" d="M70,-57.3693C70,-48.681 70,-38.6241 70,-30.5446"/><polygon fill="#191970" stroke="#191970" points="66.5 -57.391 70 -67.391 73.5 -57.391 66.5 -57.391"/></g><g id="node3" class="node"><title>Node2</title><g id="a_node3"><a target="_top" xlink:href="classarm__compute_1_1_i_c_l_simple_kernel.xhtml" xlink:title="Interface for simple OpenCL kernels having 1 tensor input and 1 tensor output."><polygon fill="#fff" stroke="#000" points="25 -123.5 25 -142.5 115 -142.5 115 -123.5 25 -123.5"/><text x="70" y="-130.5" fill="#000" font-family="Helvetica,sans-Serif" font-size="10" text-anchor="middle">ICLSimpleKernel</text></a></g></g><g id="edge2" class="edge"><title>Node2-&gt;Node1</title><path fill="none" stroke="#191970" d="M70,-113.1575C70,-104.155 70,-93.9199 70,-86.6427"/><polygon fill="#191970" stroke="#191970" points="66.5 -113.246 70 -123.246 73.5 -113.246 66.5 -113.246"/></g><g id="node4" class="node"><title>Node3</title><g id="a_node4"><a target="_top" xlink:href="classarm__compute_1_1_i_c_l_kernel.xhtml" xlink:title="Common interface for all the OpenCL kernels."><polygon fill="#fff" stroke="#000" points="40 -179.5 40 -198.5 100 -198.5 100 -179.5 40 -179.5"/><text x="70" y="-186.5" fill="#000" font-family="Helvetica,sans-Serif" font-size="10" text-anchor="middle">ICLKernel</text></a></g></g><g id="edge3" class="edge"><title>Node3-&gt;Node2</title><path fill="none" stroke="#191970" d="M70,-169.1575C70,-160.155 70,-149.9199 70,-142.6427"/><polygon fill="#191970" stroke="#191970" points="66.5 -169.245 70 -179.245 73.5 -169.246 66.5 -169.245"/></g><g id="node5" class="node"><title>Node4</title><g id="a_node5"><a target="_top" xlink:href="classarm__compute_1_1_i_kernel.xhtml" xlink:title="Common information for all the kernels."><polygon fill="#fff" stroke="#000" points="46.5 -235.5 46.5 -254.5 93.5 -254.5 93.5 -235.5 46.5 -235.5"/><text x="70" y="-242.5" fill="#000" font-family="Helvetica,sans-Serif" font-size="10" text-anchor="middle">IKernel</text></a></g></g><g id="edge4" class="edge"><title>Node4-&gt;Node3</title><path fill="none" stroke="#191970" d="M70,-225.1575C70,-216.155 70,-205.9199 70,-198.6427"/><polygon fill="#191970" stroke="#191970" points="66.5 -225.245 70 -235.245 73.5 -225.246 66.5 -225.245"/></g></g></svg>