<svg xmlns="http://www.w3.org/2000/svg" xmlns:xlink="http://www.w3.org/1999/xlink" width="85pt" height="140pt" viewBox="0 0 85 140"><g id="graph0" class="graph" transform="scale(1 1) rotate(0) translate(4 136)"><title>CLSubTensor</title><polygon fill="#fff" stroke="transparent" points="-4 4 -4 -136 81 -136 81 4 -4 4"/><g id="node1" class="node"><title>Node0</title><polygon fill="#bfbfbf" stroke="#000" points="0 -.5 0 -19.5 77 -19.5 77 -.5 0 -.5"/><text x="38.5" y="-7.5" fill="#000" font-family="Helvetica,sans-Serif" font-size="10" text-anchor="middle">CLSubTensor</text></g><g id="node2" class="node"><title>Node1</title><g id="a_node2"><a target="_top" xlink:href="classarm__compute_1_1_i_c_l_tensor.xhtml" xlink:title="Interface for OpenCL tensor."><polygon fill="#fff" stroke="#000" points="7.5 -56.5 7.5 -75.5 69.5 -75.5 69.5 -56.5 7.5 -56.5"/><text x="38.5" y="-63.5" fill="#000" font-family="Helvetica,sans-Serif" font-size="10" text-anchor="middle">ICLTensor</text></a></g></g><g id="edge1" class="edge"><title>Node1-&gt;Node0</title><path fill="none" stroke="#191970" d="M38.5,-46.1575C38.5,-37.155 38.5,-26.9199 38.5,-19.6427"/><polygon fill="#191970" stroke="#191970" points="35 -46.245 38.5 -56.245 42 -46.246 35 -46.245"/></g><g id="node3" class="node"><title>Node2</title><g id="a_node3"><a target="_top" xlink:href="classarm__compute_1_1_i_tensor.xhtml" xlink:title="Interface for NEON tensor."><polygon fill="#fff" stroke="#000" points="13.5 -112.5 13.5 -131.5 63.5 -131.5 63.5 -112.5 13.5 -112.5"/><text x="38.5" y="-119.5" fill="#000" font-family="Helvetica,sans-Serif" font-size="10" text-anchor="middle">ITensor</text></a></g></g><g id="edge2" class="edge"><title>Node2-&gt;Node1</title><path fill="none" stroke="#191970" d="M38.5,-102.1575C38.5,-93.155 38.5,-82.9199 38.5,-75.6427"/><polygon fill="#191970" stroke="#191970" points="35 -102.246 38.5 -112.246 42 -102.246 35 -102.246"/></g></g></svg>