<svg xmlns="http://www.w3.org/2000/svg" xmlns:xlink="http://www.w3.org/1999/xlink" width="140pt" height="163pt" viewBox="0 0 140 163"><g id="graph0" class="graph" transform="scale(1 1) rotate(0) translate(4 159)"><title>Steps</title><polygon fill="#fff" stroke="transparent" points="-4 4 -4 -159 136 -159 136 4 -4 4"/><g id="node1" class="node"><title>Node0</title><polygon fill="#bfbfbf" stroke="#000" points="37 -.5 37 -19.5 79 -19.5 79 -.5 37 -.5"/><text x="58" y="-7.5" fill="#000" font-family="Helvetica,sans-Serif" font-size="10" text-anchor="middle">Steps</text></g><g id="node2" class="node"><title>Node1</title><g id="a_node2"><a target="_top" xlink:href="classarm__compute_1_1_dimensions.xhtml" xlink:title="Dimensions\&lt; unsigned\l int \&gt;"><polygon fill="#fff" stroke="#000" points="0 -57.5 0 -87.5 116 -87.5 116 -57.5 0 -57.5"/><text x="8" y="-75.5" fill="#000" font-family="Helvetica,sans-Serif" font-size="10" text-anchor="start">Dimensions&lt; unsigned</text><text x="58" y="-64.5" fill="#000" font-family="Helvetica,sans-Serif" font-size="10" text-anchor="middle">int &gt;</text></a></g></g><g id="edge1" class="edge"><title>Node1-&gt;Node0</title><path fill="none" stroke="#191970" d="M58,-47.3498C58,-37.6481 58,-27.1303 58,-19.7356"/><polygon fill="#191970" stroke="#191970" points="54.5 -47.37 58 -57.37 61.5 -47.37 54.5 -47.37"/></g><g id="node3" class="node"><title>Node2</title><g id="a_node3"><a target="_top" xlink:href="classarm__compute_1_1_dimensions.xhtml" xlink:title="Dimensions with dimensionality."><polygon fill="#fff" stroke="#000" points="12 -135.5 12 -154.5 104 -154.5 104 -135.5 12 -135.5"/><text x="58" y="-142.5" fill="#000" font-family="Helvetica,sans-Serif" font-size="10" text-anchor="middle">Dimensions&lt; T &gt;</text></a></g></g><g id="edge2" class="edge"><title>Node2-&gt;Node1</title><path fill="none" stroke="orange" stroke-dasharray="5 2" d="M58,-125.0177C58,-113.2164 58,-98.513 58,-87.668"/><polygon fill="orange" stroke="orange" points="54.5 -125.222 58 -135.222 61.5 -125.222 54.5 -125.222"/><text x="95" y="-109" fill="#000" font-family="Helvetica,sans-Serif" font-size="10" text-anchor="middle">&lt; unsigned int &gt;</text></g></g></svg>