<svg xmlns="http://www.w3.org/2000/svg" xmlns:xlink="http://www.w3.org/1999/xlink" width="175pt" height="209pt" viewBox="0 0 175 209"><g id="graph0" class="graph" transform="scale(1 1) rotate(0) translate(4 205)"><title>ToggleOption</title><polygon fill="#fff" stroke="transparent" points="-4 4 -4 -205 171 -205 171 4 -4 4"/><g id="node1" class="node"><title>Node0</title><polygon fill="#bfbfbf" stroke="#000" points="18.5 -.5 18.5 -19.5 92.5 -19.5 92.5 -.5 18.5 -.5"/><text x="55.5" y="-7.5" fill="#000" font-family="Helvetica,sans-Serif" font-size="10" text-anchor="middle">ToggleOption</text></g><g id="node2" class="node"><title>Node1</title><g id="a_node2"><a target="_top" xlink:href="classarm__compute_1_1utils_1_1_simple_option.xhtml" xlink:title="SimpleOption\&lt; bool \&gt;"><polygon fill="#fff" stroke="#000" points="0 -57.5 0 -76.5 111 -76.5 111 -57.5 0 -57.5"/><text x="55.5" y="-64.5" fill="#000" font-family="Helvetica,sans-Serif" font-size="10" text-anchor="middle">SimpleOption&lt; bool &gt;</text></a></g></g><g id="edge1" class="edge"><title>Node1-&gt;Node0</title><path fill="none" stroke="#191970" d="M55.5,-47.2342C55.5,-37.8491 55.5,-27.0651 55.5,-19.5265"/><polygon fill="#191970" stroke="#191970" points="52 -47.331 55.5 -57.331 59 -47.331 52 -47.331"/></g><g id="node3" class="node"><title>Node2</title><g id="a_node3"><a target="_top" xlink:href="classarm__compute_1_1utils_1_1_option.xhtml" xlink:title="Abstract base class for a command line option."><polygon fill="#fff" stroke="#000" points="29 -181.5 29 -200.5 74 -200.5 74 -181.5 29 -181.5"/><text x="51.5" y="-188.5" fill="#000" font-family="Helvetica,sans-Serif" font-size="10" text-anchor="middle">Option</text></a></g></g><g id="edge2" class="edge"><title>Node2-&gt;Node1</title><path fill="none" stroke="#191970" d="M52.1429,-171.0697C53.0138,-144.0713 54.5346,-96.9273 55.1876,-76.6849"/><polygon fill="#191970" stroke="#191970" points="48.638 -171.162 51.814 -181.27 55.635 -171.388 48.638 -171.162"/></g><g id="node4" class="node"><title>Node3</title><g id="a_node4"><a target="_top" xlink:href="classarm__compute_1_1utils_1_1_simple_option.xhtml" xlink:title="Implementation of an option that accepts a single value."><polygon fill="#fff" stroke="#000" points="68 -124.5 68 -143.5 167 -143.5 167 -124.5 68 -124.5"/><text x="117.5" y="-131.5" fill="#000" font-family="Helvetica,sans-Serif" font-size="10" text-anchor="middle">SimpleOption&lt; T &gt;</text></a></g></g><g id="edge4" class="edge"><title>Node2-&gt;Node3</title><path fill="none" stroke="#191970" d="M70.5674,-174.5327C82.2141,-164.4742 96.6967,-151.9664 106.4693,-143.5265"/><polygon fill="#191970" stroke="#191970" points="67.977 -172.146 62.696 -181.331 72.552 -177.443 67.977 -172.146"/></g><g id="edge3" class="edge"><title>Node3-&gt;Node1</title><path fill="none" stroke="orange" stroke-dasharray="5 2" d="M101.5047,-116.7147C89.6842,-103.941 74.0282,-87.0224 64.3666,-76.5817"/><polygon fill="orange" stroke="orange" points="99.256 -119.438 108.617 -124.4 104.394 -114.684 99.256 -119.438"/><text x="109.5" y="-98" fill="#000" font-family="Helvetica,sans-Serif" font-size="10" text-anchor="middle">&lt; bool &gt;</text></g></g></svg>