<svg xmlns="http://www.w3.org/2000/svg" xmlns:xlink="http://www.w3.org/1999/xlink" width="112" height="140pt" viewBox="0 0 84 140"><g id="graph0" class="graph" transform="scale(1 1) rotate(0) translate(4 136)"><title>CLMultiHOG</title><polygon fill="#fff" stroke="transparent" points="-4 4 -4 -136 80 -136 80 4 -4 4"/><g id="node1" class="node"><title>Node0</title><polygon fill="#bfbfbf" stroke="#000" points="1.5 -.5 1.5 -19.5 74.5 -19.5 74.5 -.5 1.5 -.5"/><text x="38" y="-7.5" fill="#000" font-family="Helvetica,sans-Serif" font-size="10" text-anchor="middle">CLMultiHOG</text></g><g id="node2" class="node"><title>Node1</title><g id="a_node2"><a target="_top" xlink:href="classarm__compute_1_1_i_c_l_multi_h_o_g.xhtml" xlink:title="Interface for storing multiple HOG data-objects."><polygon fill="#fff" stroke="#000" points="0 -56.5 0 -75.5 76 -75.5 76 -56.5 0 -56.5"/><text x="38" y="-63.5" fill="#000" font-family="Helvetica,sans-Serif" font-size="10" text-anchor="middle">ICLMultiHOG</text></a></g></g><g id="edge1" class="edge"><title>Node1-&gt;Node0</title><path fill="none" stroke="#191970" d="M38,-46.1575C38,-37.155 38,-26.9199 38,-19.6427"/><polygon fill="#191970" stroke="#191970" points="34.5 -46.245 38 -56.245 41.5 -46.246 34.5 -46.245"/></g><g id="node3" class="node"><title>Node2</title><g id="a_node3"><a target="_top" xlink:href="classarm__compute_1_1_i_multi_h_o_g.xhtml" xlink:title="Interface for storing multiple HOG data-objects."><polygon fill="#fff" stroke="#000" points="6.5 -112.5 6.5 -131.5 69.5 -131.5 69.5 -112.5 6.5 -112.5"/><text x="38" y="-119.5" fill="#000" font-family="Helvetica,sans-Serif" font-size="10" text-anchor="middle">IMultiHOG</text></a></g></g><g id="edge2" class="edge"><title>Node2-&gt;Node1</title><path fill="none" stroke="#191970" d="M38,-102.1575C38,-93.155 38,-82.9199 38,-75.6427"/><polygon fill="#191970" stroke="#191970" points="34.5 -102.246 38 -112.246 41.5 -102.246 34.5 -102.246"/></g></g></svg>