<svg xmlns="http://www.w3.org/2000/svg" xmlns:xlink="http://www.w3.org/1999/xlink" width="125pt" height="308pt" viewBox="0 0 125 308"><g id="graph0" class="graph" transform="scale(1 1) rotate(0) translate(4 304)"><title>GCLogits1DMaxKernel</title><polygon fill="#fff" stroke="transparent" points="-4 4 -4 -304 121 -304 121 4 -4 4"/><g id="node1" class="node"><title>Node0</title><polygon fill="#bfbfbf" stroke="#000" points="0 -.5 0 -19.5 117 -19.5 117 -.5 0 -.5"/><text x="58.5" y="-7.5" fill="#000" font-family="Helvetica,sans-Serif" font-size="10" text-anchor="middle">GCLogits1DMaxKernel</text></g><g id="node2" class="node"><title>Node1</title><g id="a_node2"><a target="_top" xlink:href="classarm__compute_1_1_i_g_c_simple3_d_kernel.xhtml" xlink:title="Interface for simple GLES kernels having 1 tensor input and 1 tensor output."><polygon fill="#fff" stroke="#000" points="6 -56.5 6 -75.5 111 -75.5 111 -56.5 6 -56.5"/><text x="58.5" y="-63.5" fill="#000" font-family="Helvetica,sans-Serif" font-size="10" text-anchor="middle">IGCSimple3DKernel</text></a></g></g><g id="edge1" class="edge"><title>Node1-&gt;Node0</title><path fill="none" stroke="#191970" d="M58.5,-46.1575C58.5,-37.155 58.5,-26.9199 58.5,-19.6427"/><polygon fill="#191970" stroke="#191970" points="55 -46.245 58.5 -56.245 62 -46.246 55 -46.245"/></g><g id="node3" class="node"><title>Node2</title><g id="a_node3"><a target="_top" xlink:href="classarm__compute_1_1_i_g_c_simple2_d_kernel.xhtml" xlink:title="Interface for simple OpenGL ES kernels having 1 tensor input and 1 tensor output. ..."><polygon fill="#fff" stroke="#000" points="6 -112.5 6 -131.5 111 -131.5 111 -112.5 6 -112.5"/><text x="58.5" y="-119.5" fill="#000" font-family="Helvetica,sans-Serif" font-size="10" text-anchor="middle">IGCSimple2DKernel</text></a></g></g><g id="edge2" class="edge"><title>Node2-&gt;Node1</title><path fill="none" stroke="#191970" d="M58.5,-102.1575C58.5,-93.155 58.5,-82.9199 58.5,-75.6427"/><polygon fill="#191970" stroke="#191970" points="55 -102.246 58.5 -112.246 62 -102.246 55 -102.246"/></g><g id="node4" class="node"><title>Node3</title><g id="a_node4"><a target="_top" xlink:href="classarm__compute_1_1_i_g_c_simple_kernel.xhtml" xlink:title="Interface for simple OpenGL ES kernels having 1 tensor input and 1 tensor output. ..."><polygon fill="#fff" stroke="#000" points="12.5 -168.5 12.5 -187.5 104.5 -187.5 104.5 -168.5 12.5 -168.5"/><text x="58.5" y="-175.5" fill="#000" font-family="Helvetica,sans-Serif" font-size="10" text-anchor="middle">IGCSimpleKernel</text></a></g></g><g id="edge3" class="edge"><title>Node3-&gt;Node2</title><path fill="none" stroke="#191970" d="M58.5,-158.1575C58.5,-149.155 58.5,-138.9199 58.5,-131.6427"/><polygon fill="#191970" stroke="#191970" points="55 -158.245 58.5 -168.245 62 -158.246 55 -158.245"/></g><g id="node5" class="node"><title>Node4</title><g id="a_node5"><a target="_top" xlink:href="classarm__compute_1_1_i_g_c_kernel.xhtml" xlink:title="Common interface for all the GLES kernels."><polygon fill="#fff" stroke="#000" points="27.5 -224.5 27.5 -243.5 89.5 -243.5 89.5 -224.5 27.5 -224.5"/><text x="58.5" y="-231.5" fill="#000" font-family="Helvetica,sans-Serif" font-size="10" text-anchor="middle">IGCKernel</text></a></g></g><g id="edge4" class="edge"><title>Node4-&gt;Node3</title><path fill="none" stroke="#191970" d="M58.5,-214.1575C58.5,-205.155 58.5,-194.9199 58.5,-187.6427"/><polygon fill="#191970" stroke="#191970" points="55 -214.245 58.5 -224.245 62 -214.246 55 -214.245"/></g><g id="node6" class="node"><title>Node5</title><g id="a_node6"><a target="_top" xlink:href="classarm__compute_1_1_i_kernel.xhtml" xlink:title="Common information for all the kernels."><polygon fill="#fff" stroke="#000" points="35 -280.5 35 -299.5 82 -299.5 82 -280.5 35 -280.5"/><text x="58.5" y="-287.5" fill="#000" font-family="Helvetica,sans-Serif" font-size="10" text-anchor="middle">IKernel</text></a></g></g><g id="edge5" class="edge"><title>Node5-&gt;Node4</title><path fill="none" stroke="#191970" d="M58.5,-270.1575C58.5,-261.155 58.5,-250.9199 58.5,-243.6427"/><polygon fill="#191970" stroke="#191970" points="55 -270.245 58.5 -280.245 62 -270.246 55 -270.245"/></g></g></svg>