<svg xmlns="http://www.w3.org/2000/svg" xmlns:xlink="http://www.w3.org/1999/xlink" width="127pt" height="140pt" viewBox="0 0 127 140"><g id="graph0" class="graph" transform="scale(1 1) rotate(0) translate(4 136)"><title>NEAccumulateSquared</title><polygon fill="#fff" stroke="transparent" points="-4 4 -4 -136 123 -136 123 4 -4 4"/><g id="node1" class="node"><title>Node0</title><polygon fill="#bfbfbf" stroke="#000" points="0 -.5 0 -19.5 119 -19.5 119 -.5 0 -.5"/><text x="59.5" y="-7.5" fill="#000" font-family="Helvetica,sans-Serif" font-size="10" text-anchor="middle">NEAccumulateSquared</text></g><g id="node2" class="node"><title>Node1</title><g id="a_node2"><a target="_top" xlink:href="classarm__compute_1_1_i_n_e_simple_function.xhtml" xlink:title="Basic interface for functions which have a single NEON kernel."><polygon fill="#fff" stroke="#000" points="9 -56.5 9 -75.5 110 -75.5 110 -56.5 9 -56.5"/><text x="59.5" y="-63.5" fill="#000" font-family="Helvetica,sans-Serif" font-size="10" text-anchor="middle">INESimpleFunction</text></a></g></g><g id="edge1" class="edge"><title>Node1-&gt;Node0</title><path fill="none" stroke="#191970" d="M59.5,-46.1575C59.5,-37.155 59.5,-26.9199 59.5,-19.6427"/><polygon fill="#191970" stroke="#191970" points="56 -46.245 59.5 -56.245 63 -46.246 56 -46.245"/></g><g id="node3" class="node"><title>Node2</title><g id="a_node3"><a target="_top" xlink:href="classarm__compute_1_1_i_function.xhtml" xlink:title="Base class for all functions."><polygon fill="#fff" stroke="#000" points="31 -112.5 31 -131.5 88 -131.5 88 -112.5 31 -112.5"/><text x="59.5" y="-119.5" fill="#000" font-family="Helvetica,sans-Serif" font-size="10" text-anchor="middle">IFunction</text></a></g></g><g id="edge2" class="edge"><title>Node2-&gt;Node1</title><path fill="none" stroke="#191970" d="M59.5,-102.1575C59.5,-93.155 59.5,-82.9199 59.5,-75.6427"/><polygon fill="#191970" stroke="#191970" points="56 -102.246 59.5 -112.246 63 -102.246 56 -102.246"/></g></g></svg>