<svg xmlns="http://www.w3.org/2000/svg" xmlns:xlink="http://www.w3.org/1999/xlink" width="176pt" height="320" viewBox="0 0 176 240"><g id="graph0" class="graph" transform="scale(1 1) rotate(0) translate(4 236)"><title>NEWinogradLayerTransformOutputKernel&lt; T, OutputTileRows, OutputTileCols, KernelRows, KernelCols &gt;</title><polygon fill="#fff" stroke="transparent" points="-4 4 -4 -236 172 -236 172 4 -4 4"/><g id="node1" class="node"><title>Node0</title><polygon fill="#bfbfbf" stroke="#000" points="0 -.5 0 -52.5 168 -52.5 168 -.5 0 -.5"/><text x="8" y="-40.5" fill="#000" font-family="Helvetica,sans-Serif" font-size="10" text-anchor="start">NEWinogradLayerTransform</text><text x="8" y="-29.5" fill="#000" font-family="Helvetica,sans-Serif" font-size="10" text-anchor="start">OutputKernel&lt; T, OutputTileRows,</text><text x="8" y="-18.5" fill="#000" font-family="Helvetica,sans-Serif" font-size="10" text-anchor="start">OutputTileCols, KernelRows,</text><text x="84" y="-7.5" fill="#000" font-family="Helvetica,sans-Serif" font-size="10" text-anchor="middle">KernelCols &gt;</text></g><g id="node2" class="node"><title>Node1</title><g id="a_node2"><a target="_top" xlink:href="classarm__compute_1_1_i_n_e_winograd_layer_transform_output_kernel.xhtml" xlink:title="Interface for the NEON kernel to perform Winograd output transform."><polygon fill="#fff" stroke="#000" points="12.5 -89.5 12.5 -119.5 155.5 -119.5 155.5 -89.5 12.5 -89.5"/><text x="20.5" y="-107.5" fill="#000" font-family="Helvetica,sans-Serif" font-size="10" text-anchor="start">INEWinogradLayerTransform</text><text x="84" y="-96.5" fill="#000" font-family="Helvetica,sans-Serif" font-size="10" text-anchor="middle">OutputKernel&lt; T &gt;</text></a></g></g><g id="edge1" class="edge"><title>Node1-&gt;Node0</title><path fill="none" stroke="#191970" d="M84,-79.314C84,-70.756 84,-61.1787 84,-52.5542"/><polygon fill="#191970" stroke="#191970" points="80.5 -79.461 84 -89.461 87.5 -79.461 80.5 -79.461"/></g><g id="node3" class="node"><title>Node2</title><g id="a_node3"><a target="_top" xlink:href="classarm__compute_1_1_i_c_p_p_kernel.xhtml" xlink:title="Common interface for all kernels implemented in C++."><polygon fill="#fff" stroke="#000" points="53 -156.5 53 -175.5 115 -175.5 115 -156.5 53 -156.5"/><text x="84" y="-163.5" fill="#000" font-family="Helvetica,sans-Serif" font-size="10" text-anchor="middle">INEKernel</text></a></g></g><g id="edge2" class="edge"><title>Node2-&gt;Node1</title><path fill="none" stroke="#191970" d="M84,-146.3693C84,-137.681 84,-127.6241 84,-119.5446"/><polygon fill="#191970" stroke="#191970" points="80.5 -146.391 84 -156.391 87.5 -146.391 80.5 -146.391"/></g><g id="node4" class="node"><title>Node3</title><g id="a_node4"><a target="_top" xlink:href="classarm__compute_1_1_i_kernel.xhtml" xlink:title="Common information for all the kernels."><polygon fill="#fff" stroke="#000" points="60.5 -212.5 60.5 -231.5 107.5 -231.5 107.5 -212.5 60.5 -212.5"/><text x="84" y="-219.5" fill="#000" font-family="Helvetica,sans-Serif" font-size="10" text-anchor="middle">IKernel</text></a></g></g><g id="edge3" class="edge"><title>Node3-&gt;Node2</title><path fill="none" stroke="#191970" d="M84,-202.1575C84,-193.155 84,-182.9199 84,-175.6427"/><polygon fill="#191970" stroke="#191970" points="80.5 -202.245 84 -212.245 87.5 -202.246 80.5 -202.245"/></g></g></svg>