<svg xmlns="http://www.w3.org/2000/svg" xmlns:xlink="http://www.w3.org/1999/xlink" width="157pt" height="140pt" viewBox="0 0 157 140"><g id="graph0" class="graph" transform="scale(1 1) rotate(0) translate(4 136)"><title>GCGEMMInterleave4x4Kernel</title><polygon fill="#fff" stroke="transparent" points="-4 4 -4 -136 153 -136 153 4 -4 4"/><g id="node1" class="node"><title>Node0</title><polygon fill="#bfbfbf" stroke="#000" points="0 -.5 0 -19.5 149 -19.5 149 -.5 0 -.5"/><text x="74.5" y="-7.5" fill="#000" font-family="Helvetica,sans-Serif" font-size="10" text-anchor="middle">GCGEMMInterleave4x4Kernel</text></g><g id="node2" class="node"><title>Node1</title><g id="a_node2"><a target="_top" xlink:href="classarm__compute_1_1_i_g_c_kernel.xhtml" xlink:title="Common interface for all the GLES kernels."><polygon fill="#fff" stroke="#000" points="43.5 -56.5 43.5 -75.5 105.5 -75.5 105.5 -56.5 43.5 -56.5"/><text x="74.5" y="-63.5" fill="#000" font-family="Helvetica,sans-Serif" font-size="10" text-anchor="middle">IGCKernel</text></a></g></g><g id="edge1" class="edge"><title>Node1-&gt;Node0</title><path fill="none" stroke="#191970" d="M74.5,-46.1575C74.5,-37.155 74.5,-26.9199 74.5,-19.6427"/><polygon fill="#191970" stroke="#191970" points="71 -46.245 74.5 -56.245 78 -46.246 71 -46.245"/></g><g id="node3" class="node"><title>Node2</title><g id="a_node3"><a target="_top" xlink:href="classarm__compute_1_1_i_kernel.xhtml" xlink:title="Common information for all the kernels."><polygon fill="#fff" stroke="#000" points="51 -112.5 51 -131.5 98 -131.5 98 -112.5 51 -112.5"/><text x="74.5" y="-119.5" fill="#000" font-family="Helvetica,sans-Serif" font-size="10" text-anchor="middle">IKernel</text></a></g></g><g id="edge2" class="edge"><title>Node2-&gt;Node1</title><path fill="none" stroke="#191970" d="M74.5,-102.1575C74.5,-93.155 74.5,-82.9199 74.5,-75.6427"/><polygon fill="#191970" stroke="#191970" points="71 -102.246 74.5 -112.246 78 -102.246 71 -102.246"/></g></g></svg>