<svg xmlns="http://www.w3.org/2000/svg" xmlns:xlink="http://www.w3.org/1999/xlink" width="156" height="263pt" viewBox="0 0 117 263"><g id="graph0" class="graph" transform="scale(1 1) rotate(0) translate(4 259)"><title>CLConvolutionKernel&lt; matrix_size &gt;</title><polygon fill="#fff" stroke="transparent" points="-4 4 -4 -259 113 -259 113 4 -4 4"/><g id="node1" class="node"><title>Node0</title><polygon fill="#bfbfbf" stroke="#000" points="0 -.5 0 -30.5 109 -30.5 109 -.5 0 -.5"/><text x="8" y="-18.5" fill="#000" font-family="Helvetica,sans-Serif" font-size="10" text-anchor="start">CLConvolutionKernel</text><text x="54.5" y="-7.5" fill="#000" font-family="Helvetica,sans-Serif" font-size="10" text-anchor="middle">&lt; matrix_size &gt;</text></g><g id="node2" class="node"><title>Node1</title><g id="a_node2"><a target="_top" xlink:href="classarm__compute_1_1_i_c_l_simple2_d_kernel.xhtml" xlink:title="Interface for simple OpenCL kernels having 1 tensor input and 1 tensor output."><polygon fill="#fff" stroke="#000" points="3 -67.5 3 -86.5 106 -86.5 106 -67.5 3 -67.5"/><text x="54.5" y="-74.5" fill="#000" font-family="Helvetica,sans-Serif" font-size="10" text-anchor="middle">ICLSimple2DKernel</text></a></g></g><g id="edge1" class="edge"><title>Node1-&gt;Node0</title><path fill="none" stroke="#191970" d="M54.5,-57.3693C54.5,-48.681 54.5,-38.6241 54.5,-30.5446"/><polygon fill="#191970" stroke="#191970" points="51 -57.391 54.5 -67.391 58 -57.391 51 -57.391"/></g><g id="node3" class="node"><title>Node2</title><g id="a_node3"><a target="_top" xlink:href="classarm__compute_1_1_i_c_l_simple_kernel.xhtml" xlink:title="Interface for simple OpenCL kernels having 1 tensor input and 1 tensor output."><polygon fill="#fff" stroke="#000" points="9.5 -123.5 9.5 -142.5 99.5 -142.5 99.5 -123.5 9.5 -123.5"/><text x="54.5" y="-130.5" fill="#000" font-family="Helvetica,sans-Serif" font-size="10" text-anchor="middle">ICLSimpleKernel</text></a></g></g><g id="edge2" class="edge"><title>Node2-&gt;Node1</title><path fill="none" stroke="#191970" d="M54.5,-113.1575C54.5,-104.155 54.5,-93.9199 54.5,-86.6427"/><polygon fill="#191970" stroke="#191970" points="51 -113.246 54.5 -123.246 58 -113.246 51 -113.246"/></g><g id="node4" class="node"><title>Node3</title><g id="a_node4"><a target="_top" xlink:href="classarm__compute_1_1_i_c_l_kernel.xhtml" xlink:title="Common interface for all the OpenCL kernels."><polygon fill="#fff" stroke="#000" points="24.5 -179.5 24.5 -198.5 84.5 -198.5 84.5 -179.5 24.5 -179.5"/><text x="54.5" y="-186.5" fill="#000" font-family="Helvetica,sans-Serif" font-size="10" text-anchor="middle">ICLKernel</text></a></g></g><g id="edge3" class="edge"><title>Node3-&gt;Node2</title><path fill="none" stroke="#191970" d="M54.5,-169.1575C54.5,-160.155 54.5,-149.9199 54.5,-142.6427"/><polygon fill="#191970" stroke="#191970" points="51 -169.245 54.5 -179.245 58 -169.246 51 -169.245"/></g><g id="node5" class="node"><title>Node4</title><g id="a_node5"><a target="_top" xlink:href="classarm__compute_1_1_i_kernel.xhtml" xlink:title="Common information for all the kernels."><polygon fill="#fff" stroke="#000" points="31 -235.5 31 -254.5 78 -254.5 78 -235.5 31 -235.5"/><text x="54.5" y="-242.5" fill="#000" font-family="Helvetica,sans-Serif" font-size="10" text-anchor="middle">IKernel</text></a></g></g><g id="edge4" class="edge"><title>Node4-&gt;Node3</title><path fill="none" stroke="#191970" d="M54.5,-225.1575C54.5,-216.155 54.5,-205.9199 54.5,-198.6427"/><polygon fill="#191970" stroke="#191970" points="51 -225.245 54.5 -235.245 58 -225.246 51 -225.245"/></g></g></svg>