<svg xmlns="http://www.w3.org/2000/svg" xmlns:xlink="http://www.w3.org/1999/xlink" width="160pt" height="263pt" viewBox="0 0 160 263"><g id="graph0" class="graph" transform="scale(1 1) rotate(0) translate(4 259)"><title>CLNonMaximaSuppression3x3Kernel</title><polygon fill="#fff" stroke="transparent" points="-4 4 -4 -259 156 -259 156 4 -4 4"/><g id="node1" class="node"><title>Node0</title><polygon fill="#bfbfbf" stroke="#000" points="0 -.5 0 -30.5 152 -30.5 152 -.5 0 -.5"/><text x="8" y="-18.5" fill="#000" font-family="Helvetica,sans-Serif" font-size="10" text-anchor="start">CLNonMaximaSuppression3x3</text><text x="76" y="-7.5" fill="#000" font-family="Helvetica,sans-Serif" font-size="10" text-anchor="middle">Kernel</text></g><g id="node2" class="node"><title>Node1</title><g id="a_node2"><a target="_top" xlink:href="classarm__compute_1_1_i_c_l_simple2_d_kernel.xhtml" xlink:title="Interface for simple OpenCL kernels having 1 tensor input and 1 tensor output."><polygon fill="#fff" stroke="#000" points="24.5 -67.5 24.5 -86.5 127.5 -86.5 127.5 -67.5 24.5 -67.5"/><text x="76" y="-74.5" fill="#000" font-family="Helvetica,sans-Serif" font-size="10" text-anchor="middle">ICLSimple2DKernel</text></a></g></g><g id="edge1" class="edge"><title>Node1-&gt;Node0</title><path fill="none" stroke="#191970" d="M76,-57.3693C76,-48.681 76,-38.6241 76,-30.5446"/><polygon fill="#191970" stroke="#191970" points="72.5 -57.391 76 -67.391 79.5 -57.391 72.5 -57.391"/></g><g id="node3" class="node"><title>Node2</title><g id="a_node3"><a target="_top" xlink:href="classarm__compute_1_1_i_c_l_simple_kernel.xhtml" xlink:title="Interface for simple OpenCL kernels having 1 tensor input and 1 tensor output."><polygon fill="#fff" stroke="#000" points="31 -123.5 31 -142.5 121 -142.5 121 -123.5 31 -123.5"/><text x="76" y="-130.5" fill="#000" font-family="Helvetica,sans-Serif" font-size="10" text-anchor="middle">ICLSimpleKernel</text></a></g></g><g id="edge2" class="edge"><title>Node2-&gt;Node1</title><path fill="none" stroke="#191970" d="M76,-113.1575C76,-104.155 76,-93.9199 76,-86.6427"/><polygon fill="#191970" stroke="#191970" points="72.5 -113.246 76 -123.246 79.5 -113.246 72.5 -113.246"/></g><g id="node4" class="node"><title>Node3</title><g id="a_node4"><a target="_top" xlink:href="classarm__compute_1_1_i_c_l_kernel.xhtml" xlink:title="Common interface for all the OpenCL kernels."><polygon fill="#fff" stroke="#000" points="46 -179.5 46 -198.5 106 -198.5 106 -179.5 46 -179.5"/><text x="76" y="-186.5" fill="#000" font-family="Helvetica,sans-Serif" font-size="10" text-anchor="middle">ICLKernel</text></a></g></g><g id="edge3" class="edge"><title>Node3-&gt;Node2</title><path fill="none" stroke="#191970" d="M76,-169.1575C76,-160.155 76,-149.9199 76,-142.6427"/><polygon fill="#191970" stroke="#191970" points="72.5 -169.245 76 -179.245 79.5 -169.246 72.5 -169.245"/></g><g id="node5" class="node"><title>Node4</title><g id="a_node5"><a target="_top" xlink:href="classarm__compute_1_1_i_kernel.xhtml" xlink:title="Common information for all the kernels."><polygon fill="#fff" stroke="#000" points="52.5 -235.5 52.5 -254.5 99.5 -254.5 99.5 -235.5 52.5 -235.5"/><text x="76" y="-242.5" fill="#000" font-family="Helvetica,sans-Serif" font-size="10" text-anchor="middle">IKernel</text></a></g></g><g id="edge4" class="edge"><title>Node4-&gt;Node3</title><path fill="none" stroke="#191970" d="M76,-225.1575C76,-216.155 76,-205.9199 76,-198.6427"/><polygon fill="#191970" stroke="#191970" points="72.5 -225.245 76 -235.245 79.5 -225.246 72.5 -225.245"/></g></g></svg>