<svg xmlns="http://www.w3.org/2000/svg" xmlns:xlink="http://www.w3.org/1999/xlink" width="157pt" height="196pt" viewBox="0 0 157 196"><g id="graph0" class="graph" transform="scale(1 1) rotate(0) translate(4 192)"><title>CLCoarseSVMMemoryRegion</title><polygon fill="#fff" stroke="transparent" points="-4 4 -4 -192 153 -192 153 4 -4 4"/><g id="node1" class="node"><title>Node0</title><polygon fill="#bfbfbf" stroke="#000" points="0 -.5 0 -19.5 149 -19.5 149 -.5 0 -.5"/><text x="74.5" y="-7.5" fill="#000" font-family="Helvetica,sans-Serif" font-size="10" text-anchor="middle">CLCoarseSVMMemoryRegion</text></g><g id="node2" class="node"><title>Node1</title><g id="a_node2"><a target="_top" xlink:href="classarm__compute_1_1_i_c_l_s_v_m_memory_region.xhtml" xlink:title="OpenCL SVM memory region interface."><polygon fill="#fff" stroke="#000" points="14.5 -56.5 14.5 -75.5 134.5 -75.5 134.5 -56.5 14.5 -56.5"/><text x="74.5" y="-63.5" fill="#000" font-family="Helvetica,sans-Serif" font-size="10" text-anchor="middle">ICLSVMMemoryRegion</text></a></g></g><g id="edge1" class="edge"><title>Node1-&gt;Node0</title><path fill="none" stroke="#191970" d="M74.5,-46.1575C74.5,-37.155 74.5,-26.9199 74.5,-19.6427"/><polygon fill="#191970" stroke="#191970" points="71 -46.245 74.5 -56.245 78 -46.246 71 -46.245"/></g><g id="node3" class="node"><title>Node2</title><g id="a_node3"><a target="_top" xlink:href="classarm__compute_1_1_i_c_l_memory_region.xhtml" xlink:title="OpenCL memory region interface."><polygon fill="#fff" stroke="#000" points="25.5 -112.5 25.5 -131.5 123.5 -131.5 123.5 -112.5 25.5 -112.5"/><text x="74.5" y="-119.5" fill="#000" font-family="Helvetica,sans-Serif" font-size="10" text-anchor="middle">ICLMemoryRegion</text></a></g></g><g id="edge2" class="edge"><title>Node2-&gt;Node1</title><path fill="none" stroke="#191970" d="M74.5,-102.1575C74.5,-93.155 74.5,-82.9199 74.5,-75.6427"/><polygon fill="#191970" stroke="#191970" points="71 -102.246 74.5 -112.246 78 -102.246 71 -102.246"/></g><g id="node4" class="node"><title>Node3</title><g id="a_node4"><a target="_top" xlink:href="classarm__compute_1_1_i_memory_region.xhtml" xlink:title="Memory region interface."><polygon fill="#fff" stroke="#000" points="31.5 -168.5 31.5 -187.5 117.5 -187.5 117.5 -168.5 31.5 -168.5"/><text x="74.5" y="-175.5" fill="#000" font-family="Helvetica,sans-Serif" font-size="10" text-anchor="middle">IMemoryRegion</text></a></g></g><g id="edge3" class="edge"><title>Node3-&gt;Node2</title><path fill="none" stroke="#191970" d="M74.5,-158.1575C74.5,-149.155 74.5,-138.9199 74.5,-131.6427"/><polygon fill="#191970" stroke="#191970" points="71 -158.245 74.5 -168.245 78 -158.246 71 -158.245"/></g></g></svg>