<svg xmlns="http://www.w3.org/2000/svg" xmlns:xlink="http://www.w3.org/1999/xlink" width="1034pt" height="407pt" viewBox="0 0 1034 407.48"><g id="graph0" class="graph" transform="scale(1 1) rotate(0) translate(4 403.4832)"><title>CommonGraphOptions</title><polygon fill="#fff" stroke="transparent" points="-4 4 -4 -403.483 1030 -403.483 1030 4 -4 4"/><g id="node1" class="node"><title>Node0</title><polygon fill="#bfbfbf" stroke="#000" points="910 -192.983 910 -211.983 1026 -211.983 1026 -192.983 910 -192.983"/><text x="968" y="-199.983" fill="#000" font-family="Helvetica,sans-Serif" font-size="10" text-anchor="middle">CommonGraphOptions</text></g><g id="node2" class="node"><title>Node1</title><g id="a_node2"><a target="_top" xlink:href="classarm__compute_1_1utils_1_1_toggle_option.xhtml" xlink:title="Implementation of an option that can be either true or false."><polygon fill="#fff" stroke="#000" points="702.5 -310.983 702.5 -329.983 776.5 -329.983 776.5 -310.983 702.5 -310.983"/><text x="739.5" y="-317.983" fill="#000" font-family="Helvetica,sans-Serif" font-size="10" text-anchor="middle">ToggleOption</text></a></g></g><g id="edge1" class="edge"><title>Node1-&gt;Node0</title><path fill="none" stroke="#9a32cd" stroke-dasharray="5 2" d="M781.0379,-307.671C790.3784,-304.3696 800.1431,-300.5796 809,-296.4832 865.1727,-270.5025 927.0191,-230.2686 954.0571,-212.0394"/><polygon fill="#9a32cd" stroke="#9a32cd" points="779.844 -304.38 771.514 -310.927 782.108 -311.004 779.844 -304.38"/><text x="859.5" y="-313.483" fill="#000" font-family="Helvetica,sans-Serif" font-size="10" text-anchor="middle">help</text><text x="859.5" y="-302.483" fill="#000" font-family="Helvetica,sans-Serif" font-size="10" text-anchor="middle">enable_tuner</text><text x="859.5" y="-291.483" fill="#000" font-family="Helvetica,sans-Serif" font-size="10" text-anchor="middle">fast_math_hint</text></g><g id="node3" class="node"><title>Node2</title><g id="a_node3"><a target="_top" xlink:href="classarm__compute_1_1utils_1_1_simple_option.xhtml" xlink:title="SimpleOption\&lt; bool \&gt;"><polygon fill="#fff" stroke="#000" points="370 -310.983 370 -329.983 481 -329.983 481 -310.983 370 -310.983"/><text x="425.5" y="-317.983" fill="#000" font-family="Helvetica,sans-Serif" font-size="10" text-anchor="middle">SimpleOption&lt; bool &gt;</text></a></g></g><g id="edge2" class="edge"><title>Node2-&gt;Node1</title><path fill="none" stroke="#191970" d="M491.2834,-320.4832C555.3749,-320.4832 650.5174,-320.4832 702.4226,-320.4832"/><polygon fill="#191970" stroke="#191970" points="491.275 -316.983 481.275 -320.483 491.275 -323.983 491.275 -316.983"/></g><g id="node4" class="node"><title>Node3</title><g id="a_node4"><a target="_top" xlink:href="classarm__compute_1_1utils_1_1_option.xhtml" xlink:title="Abstract base class for a command line option."><polygon fill="#fff" stroke="#000" points="0 -168.983 0 -187.983 45 -187.983 45 -168.983 0 -168.983"/><text x="22.5" y="-175.983" fill="#000" font-family="Helvetica,sans-Serif" font-size="10" text-anchor="middle">Option</text></a></g></g><g id="edge3" class="edge"><title>Node3-&gt;Node2</title><path fill="none" stroke="#191970" d="M35.3759,-196.5691C46.51,-211.3026 63.6664,-231.9693 82,-246.4832 128.1414,-283.011 142.2839,-292.7798 199,-308.4832 255.7356,-324.192 323.4509,-325.6459 369.9729,-324.1368"/><polygon fill="#191970" stroke="#191970" points="38.013 -194.247 29.265 -188.27 32.376 -198.398 38.013 -194.247"/></g><g id="node5" class="node"><title>Node4</title><g id="a_node5"><a target="_top" xlink:href="classarm__compute_1_1utils_1_1_simple_option.xhtml" xlink:title="Implementation of an option that accepts a single value."><polygon fill="#fff" stroke="#000" points="82 -187.983 82 -206.983 181 -206.983 181 -187.983 82 -187.983"/><text x="131.5" y="-194.983" fill="#000" font-family="Helvetica,sans-Serif" font-size="10" text-anchor="middle">SimpleOption&lt; T &gt;</text></a></g></g><g id="edge5" class="edge"><title>Node3-&gt;Node4</title><path fill="none" stroke="#191970" d="M54.9535,-184.1402C63.4516,-185.6215 72.8098,-187.2528 81.9785,-188.851"/><polygon fill="#191970" stroke="#191970" points="55.537 -180.689 45.085 -182.42 54.335 -187.585 55.537 -180.689"/></g><g id="node6" class="node"><title>Node5</title><g id="a_node6"><a target="_top" xlink:href="classarm__compute_1_1utils_1_1_simple_option.xhtml" xlink:title="SimpleOption\&lt; int \&gt;"><polygon fill="#fff" stroke="#000" points="373.5 -356.983 373.5 -375.983 477.5 -375.983 477.5 -356.983 373.5 -356.983"/><text x="425.5" y="-363.983" fill="#000" font-family="Helvetica,sans-Serif" font-size="10" text-anchor="middle">SimpleOption&lt; int &gt;</text></a></g></g><g id="edge7" class="edge"><title>Node3-&gt;Node5</title><path fill="none" stroke="#191970" d="M29.3407,-197.6733C38.5002,-221.3472 56.5916,-261.8451 82,-289.4832 123.966,-335.1318 139.586,-347.7374 199,-365.4832 256.8366,-382.7578 326.7483,-379.6759 373.4604,-374.4386"/><polygon fill="#191970" stroke="#191970" points="32.539 -196.234 25.767 -188.087 25.98 -198.679 32.539 -196.234"/></g><g id="node8" class="node"><title>Node7</title><g id="a_node8"><a target="_top" xlink:href="classarm__compute_1_1utils_1_1_simple_option.xhtml" xlink:title="SimpleOption\&lt; arm_compute\l::graph::Target \&gt;"><polygon fill="#fff" stroke="#000" points="354 -173.483 354 -203.483 497 -203.483 497 -173.483 354 -173.483"/><text x="362" y="-191.483" fill="#000" font-family="Helvetica,sans-Serif" font-size="10" text-anchor="start">SimpleOption&lt; arm_compute</text><text x="425.5" y="-180.483" fill="#000" font-family="Helvetica,sans-Serif" font-size="10" text-anchor="middle">::graph::Target &gt;</text></a></g></g><g id="edge11" class="edge"><title>Node3-&gt;Node7</title><path fill="none" stroke="#191970" d="M55.2125,-178.0932C87.2642,-177.8032 137.4973,-177.5939 181,-178.4832 239.1901,-179.6727 305.1215,-182.4529 353.8434,-184.7807"/><polygon fill="#191970" stroke="#191970" points="55.041 -174.595 45.076 -178.193 55.11 -181.594 55.041 -174.595"/></g><g id="node10" class="node"><title>Node9</title><g id="a_node10"><a target="_top" xlink:href="classarm__compute_1_1utils_1_1_simple_option.xhtml" xlink:title="Implementation of an option that accepts a single value."><polygon fill="#fff" stroke="#000" points="82 -52.983 82 -71.983 181 -71.983 181 -52.983 82 -52.983"/><text x="131.5" y="-59.983" fill="#000" font-family="Helvetica,sans-Serif" font-size="10" text-anchor="middle">SimpleOption&lt; T &gt;</text></a></g></g><g id="edge15" class="edge"><title>Node3-&gt;Node9</title><path fill="none" stroke="#191970" d="M26.2521,-159.0767C31.221,-138.3854 41.9347,-105.9723 63,-86.4832 69.8448,-80.1505 78.4561,-75.4736 87.2407,-72.0243"/><polygon fill="#191970" stroke="#191970" points="22.809 -158.439 24.103 -168.954 29.649 -159.927 22.809 -158.439"/></g><g id="node12" class="node"><title>Node11</title><g id="a_node12"><a target="_top" xlink:href="classarm__compute_1_1utils_1_1_simple_option.xhtml" xlink:title="SimpleOption\&lt; arm_compute\l::DataLayout \&gt;"><polygon fill="#fff" stroke="#000" points="354 -104.483 354 -134.483 497 -134.483 497 -104.483 354 -104.483"/><text x="362" y="-122.483" fill="#000" font-family="Helvetica,sans-Serif" font-size="10" text-anchor="start">SimpleOption&lt; arm_compute</text><text x="425.5" y="-111.483" fill="#000" font-family="Helvetica,sans-Serif" font-size="10" text-anchor="middle">::DataLayout &gt;</text></a></g></g><g id="edge18" class="edge"><title>Node3-&gt;Node11</title><path fill="none" stroke="#191970" d="M54.8585,-169.4355C90.0423,-159.9587 148.0707,-145.3772 199,-137.4832 250.4555,-129.5076 309.0668,-124.9712 353.7742,-122.4478"/><polygon fill="#191970" stroke="#191970" points="53.866 -166.078 45.136 -172.081 55.704 -172.833 53.866 -166.078"/></g><g id="node14" class="node"><title>Node13</title><g id="a_node14"><a target="_top" xlink:href="classarm__compute_1_1utils_1_1_simple_option.xhtml" xlink:title="SimpleOption\&lt; arm_compute\l::DataType \&gt;"><polygon fill="#fff" stroke="#000" points="354 -10.483 354 -40.483 497 -40.483 497 -10.483 354 -10.483"/><text x="362" y="-28.483" fill="#000" font-family="Helvetica,sans-Serif" font-size="10" text-anchor="start">SimpleOption&lt; arm_compute</text><text x="425.5" y="-17.483" fill="#000" font-family="Helvetica,sans-Serif" font-size="10" text-anchor="middle">::DataType &gt;</text></a></g></g><g id="edge23" class="edge"><title>Node3-&gt;Node13</title><path fill="none" stroke="#191970" d="M24.6213,-158.8085C29.1068,-128.0889 42.6298,-69.5542 82,-43.4832 165.025,11.4962 285.6304,2.4891 359.6331,-10.4737"/><polygon fill="#191970" stroke="#191970" points="21.146 -158.392 23.347 -168.756 28.089 -159.282 21.146 -158.392"/></g><g id="node15" class="node"><title>Node14</title><g id="a_node15"><a target="_top" xlink:href="classarm__compute_1_1utils_1_1_simple_option.xhtml" xlink:title="SimpleOption\&lt; std::\lstring \&gt;"><polygon fill="#fff" stroke="#000" points="373.5 -222.483 373.5 -252.483 477.5 -252.483 477.5 -222.483 373.5 -222.483"/><text x="381.5" y="-240.483" fill="#000" font-family="Helvetica,sans-Serif" font-size="10" text-anchor="start">SimpleOption&lt; std::</text><text x="425.5" y="-229.483" fill="#000" font-family="Helvetica,sans-Serif" font-size="10" text-anchor="middle">string &gt;</text></a></g></g><g id="edge27" class="edge"><title>Node3-&gt;Node14</title><path fill="none" stroke="#191970" d="M43.547,-194.1968C54.5446,-201.8062 68.4974,-210.5553 82,-216.4832 186.1334,-262.1994 222.4494,-253.8071 336,-247.4832 348.0202,-246.8137 360.9066,-245.6423 373.0505,-244.3314"/><polygon fill="#191970" stroke="#191970" points="45.253 -191.115 35.079 -188.16 41.19 -196.815 45.253 -191.115"/></g><g id="edge4" class="edge"><title>Node4-&gt;Node2</title><path fill="none" stroke="orange" stroke-dasharray="5 2" d="M149.9464,-213.7406C162.9329,-224.5118 181.1239,-238.2975 199,-247.4832 233.0831,-264.9968 336.6981,-295.4586 391.1825,-310.9082"/><polygon fill="orange" stroke="orange" points="152.107 -210.983 142.22 -207.176 147.575 -216.318 152.107 -210.983"/><text x="267.5" y="-298.483" fill="#000" font-family="Helvetica,sans-Serif" font-size="10" text-anchor="middle">&lt; bool &gt;</text></g><g id="edge8" class="edge"><title>Node4-&gt;Node5</title><path fill="none" stroke="orange" stroke-dasharray="5 2" d="M137.7056,-216.7342C146.9221,-242.1779 166.7002,-286.567 199,-310.4832 226.3456,-330.731 315.3455,-348.5207 373.3017,-358.3586"/><polygon fill="orange" stroke="orange" points="140.956 -215.424 134.397 -207.105 134.336 -217.699 140.956 -215.424"/><text x="267.5" y="-353.483" fill="#000" font-family="Helvetica,sans-Serif" font-size="10" text-anchor="middle">&lt; int &gt;</text></g><g id="edge12" class="edge"><title>Node4-&gt;Node7</title><path fill="none" stroke="orange" stroke-dasharray="5 2" d="M191.3262,-193.8201C193.9187,-193.6986 196.4855,-193.5854 199,-193.4832 250.7778,-191.3782 309.2523,-190.1156 353.8167,-189.3858"/><polygon fill="orange" stroke="orange" points="191.066 -190.329 181.254 -194.325 191.417 -197.32 191.066 -190.329"/><text x="216.5" y="-207.483" fill="#000" font-family="Helvetica,sans-Serif" font-size="10" text-anchor="start">&lt; arm_compute::graph</text><text x="267.5" y="-196.483" fill="#000" font-family="Helvetica,sans-Serif" font-size="10" text-anchor="middle">::Target &gt;</text></g><g id="edge19" class="edge"><title>Node4-&gt;Node11</title><path fill="none" stroke="orange" stroke-dasharray="5 2" d="M169.0579,-184.7066C178.7684,-181.5508 189.2378,-178.2769 199,-175.4832 252.5476,-160.1593 313.9155,-145.1413 359.2553,-134.5215"/><polygon fill="orange" stroke="orange" points="167.679 -181.476 159.275 -187.927 169.868 -188.125 167.679 -181.476"/><text x="267.5" y="-178.483" fill="#000" font-family="Helvetica,sans-Serif" font-size="10" text-anchor="middle">&lt; arm_compute::DataLayout &gt;</text></g><g id="edge24" class="edge"><title>Node4-&gt;Node13</title><path fill="none" stroke="orange" stroke-dasharray="5 2" d="M145.0448,-179.7394C157.6691,-164.1316 177.7044,-141.6038 199,-126.4832 255.1696,-86.6008 329.6037,-57.1183 377.5305,-40.6148"/><polygon fill="orange" stroke="orange" points="142.282 -177.59 138.833 -187.607 147.777 -181.928 142.282 -177.59"/><text x="267.5" y="-129.483" fill="#000" font-family="Helvetica,sans-Serif" font-size="10" text-anchor="middle">&lt; arm_compute::DataType &gt;</text></g><g id="edge28" class="edge"><title>Node4-&gt;Node14</title><path fill="none" stroke="orange" stroke-dasharray="5 2" d="M172.7124,-209.6184C181.3394,-211.8352 190.4217,-213.9336 199,-215.4832 258.2901,-226.1934 327.3179,-231.9504 373.442,-234.8548"/><polygon fill="orange" stroke="orange" points="173.416 -206.184 162.852 -206.987 171.611 -212.947 173.416 -206.184"/><text x="267.5" y="-235.483" fill="#000" font-family="Helvetica,sans-Serif" font-size="10" text-anchor="middle">&lt; std::string &gt;</text></g><g id="edge6" class="edge"><title>Node5-&gt;Node0</title><path fill="none" stroke="#9a32cd" stroke-dasharray="5 2" d="M481.7862,-377.7111C575.5949,-393.1541 766.0253,-410.235 892,-325.4832 934.4871,-296.8992 957.5211,-235.7647 965.1257,-212.1082"/><polygon fill="#9a32cd" stroke="#9a32cd" points="482.098 -374.214 471.652 -375.987 480.923 -381.115 482.098 -374.214"/><text x="739.5" y="-391.483" fill="#000" font-family="Helvetica,sans-Serif" font-size="10" text-anchor="middle">threads</text></g><g id="node7" class="node"><title>Node6</title><g id="a_node7"><a target="_top" xlink:href="classarm__compute_1_1utils_1_1_enum_option.xhtml" xlink:title="EnumOption\&lt; arm_compute\l::graph::Target \&gt;"><polygon fill="#fff" stroke="#000" points="670 -148.483 670 -178.483 809 -178.483 809 -148.483 670 -148.483"/><text x="678" y="-166.483" fill="#000" font-family="Helvetica,sans-Serif" font-size="10" text-anchor="start">EnumOption&lt; arm_compute</text><text x="739.5" y="-155.483" fill="#000" font-family="Helvetica,sans-Serif" font-size="10" text-anchor="middle">::graph::Target &gt;</text></a></g></g><g id="edge9" class="edge"><title>Node6-&gt;Node0</title><path fill="none" stroke="#9a32cd" stroke-dasharray="5 2" d="M819.5028,-177.1379C850.0392,-182.3498 884.1722,-188.1756 912.0066,-192.9263"/><polygon fill="#9a32cd" stroke="#9a32cd" points="819.745 -173.629 809.299 -175.396 818.568 -180.529 819.745 -173.629"/><text x="859.5" y="-192.483" fill="#000" font-family="Helvetica,sans-Serif" font-size="10" text-anchor="middle">target</text></g><g id="edge10" class="edge"><title>Node7-&gt;Node6</title><path fill="none" stroke="#191970" d="M507.4013,-184.6742C550.4848,-182.3538 604.1551,-178.9647 652,-174.4832 657.7927,-173.9406 663.7936,-173.3167 669.8133,-172.6476"/><polygon fill="#191970" stroke="#191970" points="507.053 -181.188 497.252 -185.212 507.423 -188.178 507.053 -181.188"/></g><g id="node9" class="node"><title>Node8</title><g id="a_node9"><a target="_top" xlink:href="classarm__compute_1_1utils_1_1_enum_option.xhtml" xlink:title="Implementation of a simple option that accepts a value from a fixed set."><polygon fill="#fff" stroke="#000" points="378 -65.983 378 -84.983 473 -84.983 473 -65.983 378 -65.983"/><text x="425.5" y="-72.983" fill="#000" font-family="Helvetica,sans-Serif" font-size="10" text-anchor="middle">EnumOption&lt; T &gt;</text></a></g></g><g id="edge13" class="edge"><title>Node8-&gt;Node6</title><path fill="none" stroke="orange" stroke-dasharray="5 2" d="M482.7817,-87.1676C487.7712,-89.2251 492.5919,-91.6428 497,-94.4832 507.6198,-101.3261 504.2015,-109.926 515,-116.4832 528.2957,-124.5567 608.994,-140.2837 669.8634,-151.314"/><polygon fill="orange" stroke="orange" points="483.637 -83.755 473.043 -83.638 481.252 -90.336 483.637 -83.755"/><text x="532.5" y="-161.483" fill="#000" font-family="Helvetica,sans-Serif" font-size="10" text-anchor="start">&lt; arm_compute::graph</text><text x="583.5" y="-150.483" fill="#000" font-family="Helvetica,sans-Serif" font-size="10" text-anchor="middle">::Target &gt;</text></g><g id="node11" class="node"><title>Node10</title><g id="a_node11"><a target="_top" xlink:href="classarm__compute_1_1utils_1_1_enum_option.xhtml" xlink:title="EnumOption\&lt; arm_compute\l::DataLayout \&gt;"><polygon fill="#fff" stroke="#000" points="670 -99.483 670 -129.483 809 -129.483 809 -99.483 670 -99.483"/><text x="678" y="-117.483" fill="#000" font-family="Helvetica,sans-Serif" font-size="10" text-anchor="start">EnumOption&lt; arm_compute</text><text x="739.5" y="-106.483" fill="#000" font-family="Helvetica,sans-Serif" font-size="10" text-anchor="middle">::DataLayout &gt;</text></a></g></g><g id="edge20" class="edge"><title>Node8-&gt;Node10</title><path fill="none" stroke="orange" stroke-dasharray="5 2" d="M483.3207,-81.5853C529.1274,-86.5487 594.7212,-93.9428 652,-101.4832 657.786,-102.2449 663.7822,-103.0669 669.7988,-103.9145"/><polygon fill="orange" stroke="orange" points="483.597 -78.095 473.279 -80.502 482.846 -85.055 483.597 -78.095"/><text x="583.5" y="-104.483" fill="#000" font-family="Helvetica,sans-Serif" font-size="10" text-anchor="middle">&lt; arm_compute::DataLayout &gt;</text></g><g id="node13" class="node"><title>Node12</title><g id="a_node13"><a target="_top" xlink:href="classarm__compute_1_1utils_1_1_enum_option.xhtml" xlink:title="EnumOption\&lt; arm_compute\l::DataType \&gt;"><polygon fill="#fff" stroke="#000" points="670 -43.483 670 -73.483 809 -73.483 809 -43.483 670 -43.483"/><text x="678" y="-61.483" fill="#000" font-family="Helvetica,sans-Serif" font-size="10" text-anchor="start">EnumOption&lt; arm_compute</text><text x="739.5" y="-50.483" fill="#000" font-family="Helvetica,sans-Serif" font-size="10" text-anchor="middle">::DataType &gt;</text></a></g></g><g id="edge25" class="edge"><title>Node8-&gt;Node12</title><path fill="none" stroke="orange" stroke-dasharray="5 2" d="M480.2361,-64.1574C491.674,-62.2248 503.6929,-60.5113 515,-59.4832 566.6252,-54.789 625.204,-54.7025 669.5769,-55.703"/><polygon fill="orange" stroke="orange" points="479.606 -60.715 470.367 -65.9 480.823 -67.608 479.606 -60.715"/><text x="583.5" y="-62.483" fill="#000" font-family="Helvetica,sans-Serif" font-size="10" text-anchor="middle">&lt; arm_compute::DataType &gt;</text></g><g id="edge14" class="edge"><title>Node9-&gt;Node8</title><path fill="none" stroke="#191970" d="M191.3458,-65.1294C246.3637,-67.5622 326.8753,-71.1222 377.7087,-73.37"/><polygon fill="#191970" stroke="#191970" points="191.185 -61.619 181.041 -64.674 190.876 -68.612 191.185 -61.619"/></g><g id="edge16" class="edge"><title>Node10-&gt;Node0</title><path fill="none" stroke="#9a32cd" stroke-dasharray="5 2" d="M799.6607,-132.6056C827.9932,-141.6461 862.0631,-153.2509 892,-165.4832 912.2413,-173.7538 934.6662,-184.931 949.876,-192.8296"/><polygon fill="#9a32cd" stroke="#9a32cd" points="800.485 -129.195 789.895 -129.518 798.374 -135.87 800.485 -129.195"/><text x="859.5" y="-168.483" fill="#000" font-family="Helvetica,sans-Serif" font-size="10" text-anchor="middle">data_layout</text></g><g id="edge17" class="edge"><title>Node11-&gt;Node10</title><path fill="none" stroke="#191970" d="M507.3661,-118.1796C557.8018,-117.3765 621.7741,-116.3578 669.7843,-115.5933"/><polygon fill="#191970" stroke="#191970" points="507.087 -114.683 497.144 -118.342 507.199 -121.683 507.087 -114.683"/></g><g id="edge21" class="edge"><title>Node12-&gt;Node0</title><path fill="none" stroke="#9a32cd" stroke-dasharray="5 2" d="M782.7507,-77.6166C791.4561,-81.5122 800.5313,-85.6053 809,-89.4832 846.0579,-106.4522 858.4917,-105.2792 892,-128.4832 919.8579,-147.7743 946.9318,-177.5629 959.9572,-192.7931"/><polygon fill="#9a32cd" stroke="#9a32cd" points="784.054 -74.366 773.496 -73.487 781.201 -80.758 784.054 -74.366"/><text x="859.5" y="-131.483" fill="#000" font-family="Helvetica,sans-Serif" font-size="10" text-anchor="middle">data_type</text></g><g id="edge22" class="edge"><title>Node13-&gt;Node12</title><path fill="none" stroke="#191970" d="M507.3661,-34.0869C557.8018,-39.3875 621.7741,-46.1107 669.7843,-51.1564"/><polygon fill="#191970" stroke="#191970" points="507.455 -30.577 497.144 -33.013 506.724 -37.539 507.455 -30.577"/></g><g id="edge26" class="edge"><title>Node14-&gt;Node0</title><path fill="none" stroke="#9a32cd" stroke-dasharray="5 2" d="M487.7108,-233.4696C593.4095,-226.6503 806.5926,-212.8966 909.6251,-206.2493"/><polygon fill="#9a32cd" stroke="#9a32cd" points="487.271 -229.991 477.517 -234.127 487.722 -236.976 487.271 -229.991"/><text x="739.5" y="-290.483" fill="#000" font-family="Helvetica,sans-Serif" font-size="10" text-anchor="middle">data_path</text><text x="739.5" y="-279.483" fill="#000" font-family="Helvetica,sans-Serif" font-size="10" text-anchor="middle">validation_range</text><text x="739.5" y="-268.483" fill="#000" font-family="Helvetica,sans-Serif" font-size="10" text-anchor="middle">validation_path</text><text x="739.5" y="-257.483" fill="#000" font-family="Helvetica,sans-Serif" font-size="10" text-anchor="middle">tuner_file</text><text x="739.5" y="-246.483" fill="#000" font-family="Helvetica,sans-Serif" font-size="10" text-anchor="middle">image</text><text x="739.5" y="-235.483" fill="#000" font-family="Helvetica,sans-Serif" font-size="10" text-anchor="middle">validation_file</text><text x="739.5" y="-224.483" fill="#000" font-family="Helvetica,sans-Serif" font-size="10" text-anchor="middle">labels</text></g></g></svg>