<svg xmlns="http://www.w3.org/2000/svg" xmlns:xlink="http://www.w3.org/1999/xlink" width="169pt" height="276" viewBox="0 0 169 207"><g id="graph0" class="graph" transform="scale(1 1) rotate(0) translate(4 203)"><title>CLGEMMLowpMatrixBReductionKernel</title><polygon fill="#fff" stroke="transparent" points="-4 4 -4 -203 165 -203 165 4 -4 4"/><g id="node1" class="node"><title>Node0</title><polygon fill="#bfbfbf" stroke="#000" points="0 -.5 0 -30.5 161 -30.5 161 -.5 0 -.5"/><text x="8" y="-18.5" fill="#000" font-family="Helvetica,sans-Serif" font-size="10" text-anchor="start">CLGEMMLowpMatrixBReduction</text><text x="80.5" y="-7.5" fill="#000" font-family="Helvetica,sans-Serif" font-size="10" text-anchor="middle">Kernel</text></g><g id="node2" class="node"><title>Node1</title><g id="a_node2"><a target="_top" xlink:href="classarm__compute_1_1_i_c_l_g_e_m_m_lowp_reduction_kernel.xhtml" xlink:title="Common interface for all OpenCL reduction kernels."><polygon fill="#fff" stroke="#000" points="1.5 -67.5 1.5 -86.5 159.5 -86.5 159.5 -67.5 1.5 -67.5"/><text x="80.5" y="-74.5" fill="#000" font-family="Helvetica,sans-Serif" font-size="10" text-anchor="middle">ICLGEMMLowpReductionKernel</text></a></g></g><g id="edge1" class="edge"><title>Node1-&gt;Node0</title><path fill="none" stroke="#191970" d="M80.5,-57.3693C80.5,-48.681 80.5,-38.6241 80.5,-30.5446"/><polygon fill="#191970" stroke="#191970" points="77 -57.391 80.5 -67.391 84 -57.391 77 -57.391"/></g><g id="node3" class="node"><title>Node2</title><g id="a_node3"><a target="_top" xlink:href="classarm__compute_1_1_i_c_l_kernel.xhtml" xlink:title="Common interface for all the OpenCL kernels."><polygon fill="#fff" stroke="#000" points="50.5 -123.5 50.5 -142.5 110.5 -142.5 110.5 -123.5 50.5 -123.5"/><text x="80.5" y="-130.5" fill="#000" font-family="Helvetica,sans-Serif" font-size="10" text-anchor="middle">ICLKernel</text></a></g></g><g id="edge2" class="edge"><title>Node2-&gt;Node1</title><path fill="none" stroke="#191970" d="M80.5,-113.1575C80.5,-104.155 80.5,-93.9199 80.5,-86.6427"/><polygon fill="#191970" stroke="#191970" points="77 -113.246 80.5 -123.246 84 -113.246 77 -113.246"/></g><g id="node4" class="node"><title>Node3</title><g id="a_node4"><a target="_top" xlink:href="classarm__compute_1_1_i_kernel.xhtml" xlink:title="Common information for all the kernels."><polygon fill="#fff" stroke="#000" points="57 -179.5 57 -198.5 104 -198.5 104 -179.5 57 -179.5"/><text x="80.5" y="-186.5" fill="#000" font-family="Helvetica,sans-Serif" font-size="10" text-anchor="middle">IKernel</text></a></g></g><g id="edge3" class="edge"><title>Node3-&gt;Node2</title><path fill="none" stroke="#191970" d="M80.5,-169.1575C80.5,-160.155 80.5,-149.9199 80.5,-142.6427"/><polygon fill="#191970" stroke="#191970" points="77 -169.245 80.5 -179.245 84 -169.246 77 -169.245"/></g></g></svg>