<svg xmlns="http://www.w3.org/2000/svg" xmlns:xlink="http://www.w3.org/1999/xlink" width="130pt" height="140pt" viewBox="0 0 130 140"><g id="graph0" class="graph" transform="scale(1 1) rotate(0) translate(4 136)"><title>OffsetLifetimeManager</title><polygon fill="#fff" stroke="transparent" points="-4 4 -4 -136 126 -136 126 4 -4 4"/><g id="node1" class="node"><title>Node0</title><polygon fill="#bfbfbf" stroke="#000" points="3 -.5 3 -19.5 119 -19.5 119 -.5 3 -.5"/><text x="61" y="-7.5" fill="#000" font-family="Helvetica,sans-Serif" font-size="10" text-anchor="middle">OffsetLifetimeManager</text></g><g id="node2" class="node"><title>Node1</title><g id="a_node2"><a target="_top" xlink:href="classarm__compute_1_1_i_simple_lifetime_manager.xhtml" xlink:title="Abstract class of the simple lifetime manager interface."><polygon fill="#fff" stroke="#000" points="0 -56.5 0 -75.5 122 -75.5 122 -56.5 0 -56.5"/><text x="61" y="-63.5" fill="#000" font-family="Helvetica,sans-Serif" font-size="10" text-anchor="middle">ISimpleLifetimeManager</text></a></g></g><g id="edge1" class="edge"><title>Node1-&gt;Node0</title><path fill="none" stroke="#191970" d="M61,-46.1575C61,-37.155 61,-26.9199 61,-19.6427"/><polygon fill="#191970" stroke="#191970" points="57.5 -46.245 61 -56.245 64.5 -46.246 57.5 -46.245"/></g><g id="node3" class="node"><title>Node2</title><g id="a_node3"><a target="_top" xlink:href="classarm__compute_1_1_i_lifetime_manager.xhtml" xlink:title="Interface for managing the lifetime of objects."><polygon fill="#fff" stroke="#000" points="15 -112.5 15 -131.5 107 -131.5 107 -112.5 15 -112.5"/><text x="61" y="-119.5" fill="#000" font-family="Helvetica,sans-Serif" font-size="10" text-anchor="middle">ILifetimeManager</text></a></g></g><g id="edge2" class="edge"><title>Node2-&gt;Node1</title><path fill="none" stroke="#191970" d="M61,-102.1575C61,-93.155 61,-82.9199 61,-75.6427"/><polygon fill="#191970" stroke="#191970" points="57.5 -102.246 61 -112.246 64.5 -102.246 57.5 -102.246"/></g></g></svg>