<svg xmlns="http://www.w3.org/2000/svg" xmlns:xlink="http://www.w3.org/1999/xlink" width="228" height="276" viewBox="0 0 171 207"><g id="graph0" class="graph" transform="scale(1 1) rotate(0) translate(4 203)"><title>NEGEMMLowpMatrixBReductionKernel</title><polygon fill="#fff" stroke="transparent" points="-4 4 -4 -203 167 -203 167 4 -4 4"/><g id="node1" class="node"><title>Node0</title><polygon fill="#bfbfbf" stroke="#000" points="0 -.5 0 -30.5 163 -30.5 163 -.5 0 -.5"/><text x="8" y="-18.5" fill="#000" font-family="Helvetica,sans-Serif" font-size="10" text-anchor="start">NEGEMMLowpMatrixBReduction</text><text x="81.5" y="-7.5" fill="#000" font-family="Helvetica,sans-Serif" font-size="10" text-anchor="middle">Kernel</text></g><g id="node2" class="node"><title>Node1</title><g id="a_node2"><a target="_top" xlink:href="classarm__compute_1_1_i_n_e_g_e_m_m_lowp_reduction_kernel.xhtml" xlink:title="Common interface for all NEON reduction kernels."><polygon fill="#fff" stroke="#000" points="1.5 -67.5 1.5 -86.5 161.5 -86.5 161.5 -67.5 1.5 -67.5"/><text x="81.5" y="-74.5" fill="#000" font-family="Helvetica,sans-Serif" font-size="10" text-anchor="middle">INEGEMMLowpReductionKernel</text></a></g></g><g id="edge1" class="edge"><title>Node1-&gt;Node0</title><path fill="none" stroke="#191970" d="M81.5,-57.3693C81.5,-48.681 81.5,-38.6241 81.5,-30.5446"/><polygon fill="#191970" stroke="#191970" points="78 -57.391 81.5 -67.391 85 -57.391 78 -57.391"/></g><g id="node3" class="node"><title>Node2</title><g id="a_node3"><a target="_top" xlink:href="classarm__compute_1_1_i_c_p_p_kernel.xhtml" xlink:title="Common interface for all kernels implemented in C++."><polygon fill="#fff" stroke="#000" points="50.5 -123.5 50.5 -142.5 112.5 -142.5 112.5 -123.5 50.5 -123.5"/><text x="81.5" y="-130.5" fill="#000" font-family="Helvetica,sans-Serif" font-size="10" text-anchor="middle">INEKernel</text></a></g></g><g id="edge2" class="edge"><title>Node2-&gt;Node1</title><path fill="none" stroke="#191970" d="M81.5,-113.1575C81.5,-104.155 81.5,-93.9199 81.5,-86.6427"/><polygon fill="#191970" stroke="#191970" points="78 -113.246 81.5 -123.246 85 -113.246 78 -113.246"/></g><g id="node4" class="node"><title>Node3</title><g id="a_node4"><a target="_top" xlink:href="classarm__compute_1_1_i_kernel.xhtml" xlink:title="Common information for all the kernels."><polygon fill="#fff" stroke="#000" points="58 -179.5 58 -198.5 105 -198.5 105 -179.5 58 -179.5"/><text x="81.5" y="-186.5" fill="#000" font-family="Helvetica,sans-Serif" font-size="10" text-anchor="middle">IKernel</text></a></g></g><g id="edge3" class="edge"><title>Node3-&gt;Node2</title><path fill="none" stroke="#191970" d="M81.5,-169.1575C81.5,-160.155 81.5,-149.9199 81.5,-142.6427"/><polygon fill="#191970" stroke="#191970" points="78 -169.245 81.5 -179.245 85 -169.246 78 -169.245"/></g></g></svg>