<svg xmlns="http://www.w3.org/2000/svg" xmlns:xlink="http://www.w3.org/1999/xlink" width="148pt" height="151pt" viewBox="0 0 148 151"><g id="graph0" class="graph" transform="scale(1 1) rotate(0) translate(4 147)"><title>NEBatchNormalizationLayerKernel</title><polygon fill="#fff" stroke="transparent" points="-4 4 -4 -147 144 -147 144 4 -4 4"/><g id="node1" class="node"><title>Node0</title><polygon fill="#bfbfbf" stroke="#000" points="0 -.5 0 -30.5 140 -30.5 140 -.5 0 -.5"/><text x="8" y="-18.5" fill="#000" font-family="Helvetica,sans-Serif" font-size="10" text-anchor="start">NEBatchNormalizationLayer</text><text x="70" y="-7.5" fill="#000" font-family="Helvetica,sans-Serif" font-size="10" text-anchor="middle">Kernel</text></g><g id="node2" class="node"><title>Node1</title><g id="a_node2"><a target="_top" xlink:href="classarm__compute_1_1_i_c_p_p_kernel.xhtml" xlink:title="Common interface for all kernels implemented in C++."><polygon fill="#fff" stroke="#000" points="39 -67.5 39 -86.5 101 -86.5 101 -67.5 39 -67.5"/><text x="70" y="-74.5" fill="#000" font-family="Helvetica,sans-Serif" font-size="10" text-anchor="middle">INEKernel</text></a></g></g><g id="edge1" class="edge"><title>Node1-&gt;Node0</title><path fill="none" stroke="#191970" d="M70,-57.3693C70,-48.681 70,-38.6241 70,-30.5446"/><polygon fill="#191970" stroke="#191970" points="66.5 -57.391 70 -67.391 73.5 -57.391 66.5 -57.391"/></g><g id="node3" class="node"><title>Node2</title><g id="a_node3"><a target="_top" xlink:href="classarm__compute_1_1_i_kernel.xhtml" xlink:title="Common information for all the kernels."><polygon fill="#fff" stroke="#000" points="46.5 -123.5 46.5 -142.5 93.5 -142.5 93.5 -123.5 46.5 -123.5"/><text x="70" y="-130.5" fill="#000" font-family="Helvetica,sans-Serif" font-size="10" text-anchor="middle">IKernel</text></a></g></g><g id="edge2" class="edge"><title>Node2-&gt;Node1</title><path fill="none" stroke="#191970" d="M70,-113.1575C70,-104.155 70,-93.9199 70,-86.6427"/><polygon fill="#191970" stroke="#191970" points="66.5 -113.246 70 -123.246 73.5 -113.246 66.5 -113.246"/></g></g></svg>