<svg xmlns="http://www.w3.org/2000/svg" xmlns:xlink="http://www.w3.org/1999/xlink" width="228" height="151pt" viewBox="0 0 171 151"><g id="graph0" class="graph" transform="scale(1 1) rotate(0) translate(4 147)"><title>GCFullyConnectedLayerReshapeWeights</title><polygon fill="#fff" stroke="transparent" points="-4 4 -4 -147 167 -147 167 4 -4 4"/><g id="node1" class="node"><title>Node0</title><polygon fill="#bfbfbf" stroke="#000" points="0 -.5 0 -30.5 163 -30.5 163 -.5 0 -.5"/><text x="8" y="-18.5" fill="#000" font-family="Helvetica,sans-Serif" font-size="10" text-anchor="start">GCFullyConnectedLayerReshape</text><text x="81.5" y="-7.5" fill="#000" font-family="Helvetica,sans-Serif" font-size="10" text-anchor="middle">Weights</text></g><g id="node2" class="node"><title>Node1</title><g id="a_node2"><a target="_top" xlink:href="classarm__compute_1_1_i_g_c_simple_function.xhtml" xlink:title="Basic interface for functions which have a single OpenGL ES kernel."><polygon fill="#fff" stroke="#000" points="30.5 -67.5 30.5 -86.5 132.5 -86.5 132.5 -67.5 30.5 -67.5"/><text x="81.5" y="-74.5" fill="#000" font-family="Helvetica,sans-Serif" font-size="10" text-anchor="middle">IGCSimpleFunction</text></a></g></g><g id="edge1" class="edge"><title>Node1-&gt;Node0</title><path fill="none" stroke="#191970" d="M81.5,-57.3693C81.5,-48.681 81.5,-38.6241 81.5,-30.5446"/><polygon fill="#191970" stroke="#191970" points="78 -57.391 81.5 -67.391 85 -57.391 78 -57.391"/></g><g id="node3" class="node"><title>Node2</title><g id="a_node3"><a target="_top" xlink:href="classarm__compute_1_1_i_function.xhtml" xlink:title="Base class for all functions."><polygon fill="#fff" stroke="#000" points="53 -123.5 53 -142.5 110 -142.5 110 -123.5 53 -123.5"/><text x="81.5" y="-130.5" fill="#000" font-family="Helvetica,sans-Serif" font-size="10" text-anchor="middle">IFunction</text></a></g></g><g id="edge2" class="edge"><title>Node2-&gt;Node1</title><path fill="none" stroke="#191970" d="M81.5,-113.1575C81.5,-104.155 81.5,-93.9199 81.5,-86.6427"/><polygon fill="#191970" stroke="#191970" points="78 -113.246 81.5 -123.246 85 -113.246 78 -113.246"/></g></g></svg>