<svg xmlns="http://www.w3.org/2000/svg" xmlns:xlink="http://www.w3.org/1999/xlink" width="452" height="163pt" viewBox="0 0 338.5 163"><g id="graph0" class="graph" transform="scale(1 1) rotate(0) translate(4 159)"><title>CLPoolingLayerKernel</title><polygon fill="#fff" stroke="transparent" points="-4 4 -4 -159 334.5 -159 334.5 4 -4 4"/><g id="node1" class="node"><title>Node0</title><polygon fill="#bfbfbf" stroke="#000" points="104.5 -.5 104.5 -19.5 217.5 -19.5 217.5 -.5 104.5 -.5"/><text x="161" y="-7.5" fill="#000" font-family="Helvetica,sans-Serif" font-size="10" text-anchor="middle">CLPoolingLayerKernel</text></g><g id="node2" class="node"><title>Node1</title><g id="a_node2"><a target="_top" xlink:href="classarm__compute_1_1_i_c_l_kernel.xhtml" xlink:title="Common interface for all the OpenCL kernels."><polygon fill="#fff" stroke="#000" points="0 -78.5 0 -97.5 60 -97.5 60 -78.5 0 -78.5"/><text x="30" y="-85.5" fill="#000" font-family="Helvetica,sans-Serif" font-size="10" text-anchor="middle">ICLKernel</text></a></g></g><g id="edge1" class="edge"><title>Node1-&gt;Node0</title><path fill="none" stroke="#191970" d="M54.7393,-73.2697C81.1525,-57.5428 122.2426,-33.0769 144.8054,-19.6426"/><polygon fill="#191970" stroke="#191970" points="52.865 -70.312 46.063 -78.436 56.446 -76.327 52.865 -70.312"/></g><g id="node3" class="node"><title>Node2</title><g id="a_node3"><a target="_top" xlink:href="classarm__compute_1_1_i_kernel.xhtml" xlink:title="Common information for all the kernels."><polygon fill="#fff" stroke="#000" points="6.5 -135.5 6.5 -154.5 53.5 -154.5 53.5 -135.5 6.5 -135.5"/><text x="30" y="-142.5" fill="#000" font-family="Helvetica,sans-Serif" font-size="10" text-anchor="middle">IKernel</text></a></g></g><g id="edge2" class="edge"><title>Node2-&gt;Node1</title><path fill="none" stroke="#191970" d="M30,-125.2342C30,-115.8491 30,-105.0651 30,-97.5265"/><polygon fill="#191970" stroke="#191970" points="26.5 -125.331 30 -135.331 33.5 -125.331 26.5 -125.331"/></g><g id="node4" class="node"><title>Node3</title><g id="a_node4"><a target="_top" xlink:href="classarm__compute_1_1_i_c_l_tensor.xhtml" xlink:title="Interface for OpenCL tensor."><polygon fill="#fff" stroke="#000" points="78 -78.5 78 -97.5 140 -97.5 140 -78.5 78 -78.5"/><text x="109" y="-85.5" fill="#000" font-family="Helvetica,sans-Serif" font-size="10" text-anchor="middle">ICLTensor</text></a></g></g><g id="edge3" class="edge"><title>Node3-&gt;Node0</title><path fill="none" stroke="#9a32cd" stroke-dasharray="5 2" d="M115.9165,-68.6826C119.8573,-59.0067 125.3414,-47.3856 132,-38 136.8594,-31.1505 143.5352,-24.57 149.2567,-19.5114"/><polygon fill="#9a32cd" stroke="#9a32cd" points="112.572 -67.63 112.263 -78.221 119.109 -70.134 112.572 -67.63"/><text x="150" y="-52" fill="#000" font-family="Helvetica,sans-Serif" font-size="10" text-anchor="middle">_output</text><text x="150" y="-41" fill="#000" font-family="Helvetica,sans-Serif" font-size="10" text-anchor="middle">_input</text></g><g id="node5" class="node"><title>Node4</title><g id="a_node5"><a target="_top" xlink:href="classarm__compute_1_1_i_tensor.xhtml" xlink:title="Interface for NEON tensor."><polygon fill="#fff" stroke="#000" points="84 -135.5 84 -154.5 134 -154.5 134 -135.5 84 -135.5"/><text x="109" y="-142.5" fill="#000" font-family="Helvetica,sans-Serif" font-size="10" text-anchor="middle">ITensor</text></a></g></g><g id="edge4" class="edge"><title>Node4-&gt;Node3</title><path fill="none" stroke="#191970" d="M109,-125.2342C109,-115.8491 109,-105.0651 109,-97.5265"/><polygon fill="#191970" stroke="#191970" points="105.5 -125.331 109 -135.331 112.5 -125.331 105.5 -125.331"/></g><g id="node6" class="node"><title>Node5</title><g id="a_node6"><a target="_top" xlink:href="structarm__compute_1_1_border_size.xhtml" xlink:title="Container for 2D border size."><polygon fill="#fff" stroke="#000" points="158.5 -78.5 158.5 -97.5 223.5 -97.5 223.5 -78.5 158.5 -78.5"/><text x="191" y="-85.5" fill="#000" font-family="Helvetica,sans-Serif" font-size="10" text-anchor="middle">BorderSize</text></a></g></g><g id="edge5" class="edge"><title>Node5-&gt;Node0</title><path fill="none" stroke="#9a32cd" stroke-dasharray="5 2" d="M183.5915,-68.7379C177.5955,-53.1484 169.4019,-31.845 164.7087,-19.6426"/><polygon fill="#9a32cd" stroke="#9a32cd" points="180.465 -70.359 187.321 -78.436 186.998 -67.846 180.465 -70.359"/><text x="208.5" y="-46.5" fill="#000" font-family="Helvetica,sans-Serif" font-size="10" text-anchor="middle">_border_size</text></g><g id="node7" class="node"><title>Node6</title><g id="a_node7"><a target="_top" xlink:href="classarm__compute_1_1_pooling_layer_info.xhtml" xlink:title="Pooling Layer Information class."><polygon fill="#fff" stroke="#000" points="241.5 -78.5 241.5 -97.5 330.5 -97.5 330.5 -78.5 241.5 -78.5"/><text x="286" y="-85.5" fill="#000" font-family="Helvetica,sans-Serif" font-size="10" text-anchor="middle">PoolingLayerInfo</text></a></g></g><g id="edge6" class="edge"><title>Node6-&gt;Node0</title><path fill="none" stroke="#9a32cd" stroke-dasharray="5 2" d="M273.8157,-69.976C265.8482,-59.3841 254.6025,-46.456 242,-38 229.8917,-29.8756 215.1836,-23.8682 201.6406,-19.5475"/><polygon fill="#9a32cd" stroke="#9a32cd" points="271.023 -72.088 279.695 -78.174 276.712 -68.008 271.023 -72.088"/><text x="288" y="-46.5" fill="#000" font-family="Helvetica,sans-Serif" font-size="10" text-anchor="middle">_pool_info</text></g></g></svg>