<svg xmlns="http://www.w3.org/2000/svg" xmlns:xlink="http://www.w3.org/1999/xlink" width="115pt" height="276" viewBox="0 0 115 207"><g id="graph0" class="graph" transform="scale(1 1) rotate(0) translate(4 203)"><title>NEWarpAffineKernel&lt; interpolation &gt;</title><polygon fill="#fff" stroke="transparent" points="-4 4 -4 -203 111 -203 111 4 -4 4"/><g id="node1" class="node"><title>Node0</title><polygon fill="#bfbfbf" stroke="#000" points="0 -.5 0 -30.5 107 -30.5 107 -.5 0 -.5"/><text x="8" y="-18.5" fill="#000" font-family="Helvetica,sans-Serif" font-size="10" text-anchor="start">NEWarpAffineKernel</text><text x="53.5" y="-7.5" fill="#000" font-family="Helvetica,sans-Serif" font-size="10" text-anchor="middle">&lt; interpolation &gt;</text></g><g id="node2" class="node"><title>Node1</title><g id="a_node2"><a target="_top" xlink:href="classarm__compute_1_1_i_n_e_warp_kernel.xhtml" xlink:title="Common interface for warp affine and warp perspective."><polygon fill="#fff" stroke="#000" points="11 -67.5 11 -86.5 96 -86.5 96 -67.5 11 -67.5"/><text x="53.5" y="-74.5" fill="#000" font-family="Helvetica,sans-Serif" font-size="10" text-anchor="middle">INEWarpKernel</text></a></g></g><g id="edge1" class="edge"><title>Node1-&gt;Node0</title><path fill="none" stroke="#191970" d="M53.5,-57.3693C53.5,-48.681 53.5,-38.6241 53.5,-30.5446"/><polygon fill="#191970" stroke="#191970" points="50 -57.391 53.5 -67.391 57 -57.391 50 -57.391"/></g><g id="node3" class="node"><title>Node2</title><g id="a_node3"><a target="_top" xlink:href="classarm__compute_1_1_i_c_p_p_kernel.xhtml" xlink:title="Common interface for all kernels implemented in C++."><polygon fill="#fff" stroke="#000" points="22.5 -123.5 22.5 -142.5 84.5 -142.5 84.5 -123.5 22.5 -123.5"/><text x="53.5" y="-130.5" fill="#000" font-family="Helvetica,sans-Serif" font-size="10" text-anchor="middle">INEKernel</text></a></g></g><g id="edge2" class="edge"><title>Node2-&gt;Node1</title><path fill="none" stroke="#191970" d="M53.5,-113.1575C53.5,-104.155 53.5,-93.9199 53.5,-86.6427"/><polygon fill="#191970" stroke="#191970" points="50 -113.246 53.5 -123.246 57 -113.246 50 -113.246"/></g><g id="node4" class="node"><title>Node3</title><g id="a_node4"><a target="_top" xlink:href="classarm__compute_1_1_i_kernel.xhtml" xlink:title="Common information for all the kernels."><polygon fill="#fff" stroke="#000" points="30 -179.5 30 -198.5 77 -198.5 77 -179.5 30 -179.5"/><text x="53.5" y="-186.5" fill="#000" font-family="Helvetica,sans-Serif" font-size="10" text-anchor="middle">IKernel</text></a></g></g><g id="edge3" class="edge"><title>Node3-&gt;Node2</title><path fill="none" stroke="#191970" d="M53.5,-169.1575C53.5,-160.155 53.5,-149.9199 53.5,-142.6427"/><polygon fill="#191970" stroke="#191970" points="50 -169.245 53.5 -179.245 57 -169.246 50 -169.245"/></g></g></svg>