<svg xmlns="http://www.w3.org/2000/svg" xmlns:xlink="http://www.w3.org/1999/xlink" width="200" height="276" viewBox="0 0 150 207"><g id="graph0" class="graph" transform="scale(1 1) rotate(0) translate(4 203)"><title>NESeparableConvolutionHorKernel&lt; matrix_size &gt;</title><polygon fill="#fff" stroke="transparent" points="-4 4 -4 -203 146 -203 146 4 -4 4"/><g id="node1" class="node"><title>Node0</title><polygon fill="#bfbfbf" stroke="#000" points="0 -.5 0 -30.5 142 -30.5 142 -.5 0 -.5"/><text x="8" y="-18.5" fill="#000" font-family="Helvetica,sans-Serif" font-size="10" text-anchor="start">NESeparableConvolutionHor</text><text x="71" y="-7.5" fill="#000" font-family="Helvetica,sans-Serif" font-size="10" text-anchor="middle">Kernel&lt; matrix_size &gt;</text></g><g id="node2" class="node"><title>Node1</title><g id="a_node2"><a target="_top" xlink:href="classarm__compute_1_1_i_c_p_p_simple_kernel.xhtml" xlink:title="Interface for simple C++ kernels having 1 tensor input and 1 tensor output."><polygon fill="#fff" stroke="#000" points="25 -67.5 25 -86.5 117 -86.5 117 -67.5 25 -67.5"/><text x="71" y="-74.5" fill="#000" font-family="Helvetica,sans-Serif" font-size="10" text-anchor="middle">INESimpleKernel</text></a></g></g><g id="edge1" class="edge"><title>Node1-&gt;Node0</title><path fill="none" stroke="#191970" d="M71,-57.3693C71,-48.681 71,-38.6241 71,-30.5446"/><polygon fill="#191970" stroke="#191970" points="67.5 -57.391 71 -67.391 74.5 -57.391 67.5 -57.391"/></g><g id="node3" class="node"><title>Node2</title><g id="a_node3"><a target="_top" xlink:href="classarm__compute_1_1_i_c_p_p_kernel.xhtml" xlink:title="Common interface for all kernels implemented in C++."><polygon fill="#fff" stroke="#000" points="37 -123.5 37 -142.5 105 -142.5 105 -123.5 37 -123.5"/><text x="71" y="-130.5" fill="#000" font-family="Helvetica,sans-Serif" font-size="10" text-anchor="middle">ICPPKernel</text></a></g></g><g id="edge2" class="edge"><title>Node2-&gt;Node1</title><path fill="none" stroke="#191970" d="M71,-113.1575C71,-104.155 71,-93.9199 71,-86.6427"/><polygon fill="#191970" stroke="#191970" points="67.5 -113.246 71 -123.246 74.5 -113.246 67.5 -113.246"/></g><g id="node4" class="node"><title>Node3</title><g id="a_node4"><a target="_top" xlink:href="classarm__compute_1_1_i_kernel.xhtml" xlink:title="Common information for all the kernels."><polygon fill="#fff" stroke="#000" points="47.5 -179.5 47.5 -198.5 94.5 -198.5 94.5 -179.5 47.5 -179.5"/><text x="71" y="-186.5" fill="#000" font-family="Helvetica,sans-Serif" font-size="10" text-anchor="middle">IKernel</text></a></g></g><g id="edge3" class="edge"><title>Node3-&gt;Node2</title><path fill="none" stroke="#191970" d="M71,-169.1575C71,-160.155 71,-149.9199 71,-142.6427"/><polygon fill="#191970" stroke="#191970" points="67.5 -169.245 71 -179.245 74.5 -169.246 67.5 -169.245"/></g></g></svg>