<svg xmlns="http://www.w3.org/2000/svg" xmlns:xlink="http://www.w3.org/1999/xlink" width="130pt" height="196pt" viewBox="0 0 130 196"><g id="graph0" class="graph" transform="scale(1 1) rotate(0) translate(4 192)"><title>NEReshapeLayerKernel</title><polygon fill="#fff" stroke="transparent" points="-4 4 -4 -192 126 -192 126 4 -4 4"/><g id="node1" class="node"><title>Node0</title><polygon fill="#bfbfbf" stroke="#000" points="0 -.5 0 -19.5 122 -19.5 122 -.5 0 -.5"/><text x="61" y="-7.5" fill="#000" font-family="Helvetica,sans-Serif" font-size="10" text-anchor="middle">NEReshapeLayerKernel</text></g><g id="node2" class="node"><title>Node1</title><g id="a_node2"><a target="_top" xlink:href="classarm__compute_1_1_i_c_p_p_simple_kernel.xhtml" xlink:title="Interface for simple C++ kernels having 1 tensor input and 1 tensor output."><polygon fill="#fff" stroke="#000" points="15 -56.5 15 -75.5 107 -75.5 107 -56.5 15 -56.5"/><text x="61" y="-63.5" fill="#000" font-family="Helvetica,sans-Serif" font-size="10" text-anchor="middle">INESimpleKernel</text></a></g></g><g id="edge1" class="edge"><title>Node1-&gt;Node0</title><path fill="none" stroke="#191970" d="M61,-46.1575C61,-37.155 61,-26.9199 61,-19.6427"/><polygon fill="#191970" stroke="#191970" points="57.5 -46.245 61 -56.245 64.5 -46.246 57.5 -46.245"/></g><g id="node3" class="node"><title>Node2</title><g id="a_node3"><a target="_top" xlink:href="classarm__compute_1_1_i_c_p_p_kernel.xhtml" xlink:title="Common interface for all kernels implemented in C++."><polygon fill="#fff" stroke="#000" points="27 -112.5 27 -131.5 95 -131.5 95 -112.5 27 -112.5"/><text x="61" y="-119.5" fill="#000" font-family="Helvetica,sans-Serif" font-size="10" text-anchor="middle">ICPPKernel</text></a></g></g><g id="edge2" class="edge"><title>Node2-&gt;Node1</title><path fill="none" stroke="#191970" d="M61,-102.1575C61,-93.155 61,-82.9199 61,-75.6427"/><polygon fill="#191970" stroke="#191970" points="57.5 -102.246 61 -112.246 64.5 -102.246 57.5 -102.246"/></g><g id="node4" class="node"><title>Node3</title><g id="a_node4"><a target="_top" xlink:href="classarm__compute_1_1_i_kernel.xhtml" xlink:title="Common information for all the kernels."><polygon fill="#fff" stroke="#000" points="37.5 -168.5 37.5 -187.5 84.5 -187.5 84.5 -168.5 37.5 -168.5"/><text x="61" y="-175.5" fill="#000" font-family="Helvetica,sans-Serif" font-size="10" text-anchor="middle">IKernel</text></a></g></g><g id="edge3" class="edge"><title>Node3-&gt;Node2</title><path fill="none" stroke="#191970" d="M61,-158.1575C61,-149.155 61,-138.9199 61,-131.6427"/><polygon fill="#191970" stroke="#191970" points="57.5 -158.245 61 -168.245 64.5 -158.246 57.5 -158.245"/></g></g></svg>