<svg xmlns="http://www.w3.org/2000/svg" xmlns:xlink="http://www.w3.org/1999/xlink" width="91pt" height="140pt" viewBox="0 0 91 140"><g id="graph0" class="graph" transform="scale(1 1) rotate(0) translate(4 136)"><title>NEScaleKernel</title><polygon fill="#fff" stroke="transparent" points="-4 4 -4 -136 87 -136 87 4 -4 4"/><g id="node1" class="node"><title>Node0</title><polygon fill="#bfbfbf" stroke="#000" points="0 -.5 0 -19.5 83 -19.5 83 -.5 0 -.5"/><text x="41.5" y="-7.5" fill="#000" font-family="Helvetica,sans-Serif" font-size="10" text-anchor="middle">NEScaleKernel</text></g><g id="node2" class="node"><title>Node1</title><g id="a_node2"><a target="_top" xlink:href="classarm__compute_1_1_i_c_p_p_kernel.xhtml" xlink:title="Common interface for all kernels implemented in C++."><polygon fill="#fff" stroke="#000" points="10.5 -56.5 10.5 -75.5 72.5 -75.5 72.5 -56.5 10.5 -56.5"/><text x="41.5" y="-63.5" fill="#000" font-family="Helvetica,sans-Serif" font-size="10" text-anchor="middle">INEKernel</text></a></g></g><g id="edge1" class="edge"><title>Node1-&gt;Node0</title><path fill="none" stroke="#191970" d="M41.5,-46.1575C41.5,-37.155 41.5,-26.9199 41.5,-19.6427"/><polygon fill="#191970" stroke="#191970" points="38 -46.245 41.5 -56.245 45 -46.246 38 -46.245"/></g><g id="node3" class="node"><title>Node2</title><g id="a_node3"><a target="_top" xlink:href="classarm__compute_1_1_i_kernel.xhtml" xlink:title="Common information for all the kernels."><polygon fill="#fff" stroke="#000" points="18 -112.5 18 -131.5 65 -131.5 65 -112.5 18 -112.5"/><text x="41.5" y="-119.5" fill="#000" font-family="Helvetica,sans-Serif" font-size="10" text-anchor="middle">IKernel</text></a></g></g><g id="edge2" class="edge"><title>Node2-&gt;Node1</title><path fill="none" stroke="#191970" d="M41.5,-102.1575C41.5,-93.155 41.5,-82.9199 41.5,-75.6427"/><polygon fill="#191970" stroke="#191970" points="38 -102.246 41.5 -112.246 45 -102.246 38 -102.246"/></g></g></svg>