<svg xmlns="http://www.w3.org/2000/svg" xmlns:xlink="http://www.w3.org/1999/xlink" width="170pt" height="140pt" viewBox="0 0 170 140"><g id="graph0" class="graph" transform="scale(1 1) rotate(0) translate(4 136)"><title>CLWidthConcatenateLayerKernel</title><polygon fill="#fff" stroke="transparent" points="-4 4 -4 -136 166 -136 166 4 -4 4"/><g id="node1" class="node"><title>Node0</title><polygon fill="#bfbfbf" stroke="#000" points="0 -.5 0 -19.5 162 -19.5 162 -.5 0 -.5"/><text x="81" y="-7.5" fill="#000" font-family="Helvetica,sans-Serif" font-size="10" text-anchor="middle">CLWidthConcatenateLayerKernel</text></g><g id="node2" class="node"><title>Node1</title><g id="a_node2"><a target="_top" xlink:href="classarm__compute_1_1_i_c_l_kernel.xhtml" xlink:title="Common interface for all the OpenCL kernels."><polygon fill="#fff" stroke="#000" points="51 -56.5 51 -75.5 111 -75.5 111 -56.5 51 -56.5"/><text x="81" y="-63.5" fill="#000" font-family="Helvetica,sans-Serif" font-size="10" text-anchor="middle">ICLKernel</text></a></g></g><g id="edge1" class="edge"><title>Node1-&gt;Node0</title><path fill="none" stroke="#191970" d="M81,-46.1575C81,-37.155 81,-26.9199 81,-19.6427"/><polygon fill="#191970" stroke="#191970" points="77.5 -46.245 81 -56.245 84.5 -46.246 77.5 -46.245"/></g><g id="node3" class="node"><title>Node2</title><g id="a_node3"><a target="_top" xlink:href="classarm__compute_1_1_i_kernel.xhtml" xlink:title="Common information for all the kernels."><polygon fill="#fff" stroke="#000" points="57.5 -112.5 57.5 -131.5 104.5 -131.5 104.5 -112.5 57.5 -112.5"/><text x="81" y="-119.5" fill="#000" font-family="Helvetica,sans-Serif" font-size="10" text-anchor="middle">IKernel</text></a></g></g><g id="edge2" class="edge"><title>Node2-&gt;Node1</title><path fill="none" stroke="#191970" d="M81,-102.1575C81,-93.155 81,-82.9199 81,-75.6427"/><polygon fill="#191970" stroke="#191970" points="77.5 -102.246 81 -112.246 84.5 -102.246 77.5 -102.246"/></g></g></svg>