<svg xmlns="http://www.w3.org/2000/svg" xmlns:xlink="http://www.w3.org/1999/xlink" width="190pt" height="151pt" viewBox="0 0 190 151"><g id="graph0" class="graph" transform="scale(1 1) rotate(0) translate(4 147)"><title>CPPBoxWithNonMaximaSuppressionLimit</title><polygon fill="#fff" stroke="transparent" points="-4 4 -4 -147 186 -147 186 4 -4 4"/><g id="node1" class="node"><title>Node0</title><polygon fill="#bfbfbf" stroke="#000" points="0 -.5 0 -30.5 182 -30.5 182 -.5 0 -.5"/><text x="8" y="-18.5" fill="#000" font-family="Helvetica,sans-Serif" font-size="10" text-anchor="start">CPPBoxWithNonMaximaSuppression</text><text x="91" y="-7.5" fill="#000" font-family="Helvetica,sans-Serif" font-size="10" text-anchor="middle">Limit</text></g><g id="node2" class="node"><title>Node1</title><g id="a_node2"><a target="_top" xlink:href="classarm__compute_1_1_i_c_p_p_simple_function.xhtml" xlink:title="Basic interface for functions which have a single CPP kernel."><polygon fill="#fff" stroke="#000" points="37 -67.5 37 -86.5 145 -86.5 145 -67.5 37 -67.5"/><text x="91" y="-74.5" fill="#000" font-family="Helvetica,sans-Serif" font-size="10" text-anchor="middle">ICPPSimpleFunction</text></a></g></g><g id="edge1" class="edge"><title>Node1-&gt;Node0</title><path fill="none" stroke="#191970" d="M91,-57.3693C91,-48.681 91,-38.6241 91,-30.5446"/><polygon fill="#191970" stroke="#191970" points="87.5 -57.391 91 -67.391 94.5 -57.391 87.5 -57.391"/></g><g id="node3" class="node"><title>Node2</title><g id="a_node3"><a target="_top" xlink:href="classarm__compute_1_1_i_function.xhtml" xlink:title="Base class for all functions."><polygon fill="#fff" stroke="#000" points="62.5 -123.5 62.5 -142.5 119.5 -142.5 119.5 -123.5 62.5 -123.5"/><text x="91" y="-130.5" fill="#000" font-family="Helvetica,sans-Serif" font-size="10" text-anchor="middle">IFunction</text></a></g></g><g id="edge2" class="edge"><title>Node2-&gt;Node1</title><path fill="none" stroke="#191970" d="M91,-113.1575C91,-104.155 91,-93.9199 91,-86.6427"/><polygon fill="#191970" stroke="#191970" points="87.5 -113.246 91 -123.246 94.5 -113.246 87.5 -113.246"/></g></g></svg>