<svg xmlns="http://www.w3.org/2000/svg" xmlns:xlink="http://www.w3.org/1999/xlink" width="176pt" height="140pt" viewBox="0 0 176 140"><g id="graph0" class="graph" transform="scale(1 1) rotate(0) translate(4 136)"><title>CLConvertFullyConnectedWeights</title><polygon fill="#fff" stroke="transparent" points="-4 4 -4 -136 172 -136 172 4 -4 4"/><g id="node1" class="node"><title>Node0</title><polygon fill="#bfbfbf" stroke="#000" points="0 -.5 0 -19.5 168 -19.5 168 -.5 0 -.5"/><text x="84" y="-7.5" fill="#000" font-family="Helvetica,sans-Serif" font-size="10" text-anchor="middle">CLConvertFullyConnectedWeights</text></g><g id="node2" class="node"><title>Node1</title><g id="a_node2"><a target="_top" xlink:href="classarm__compute_1_1_i_c_l_simple_function.xhtml" xlink:title="Basic interface for functions which have a single OpenCL kernel."><polygon fill="#fff" stroke="#000" points="34 -56.5 34 -75.5 134 -75.5 134 -56.5 34 -56.5"/><text x="84" y="-63.5" fill="#000" font-family="Helvetica,sans-Serif" font-size="10" text-anchor="middle">ICLSimpleFunction</text></a></g></g><g id="edge1" class="edge"><title>Node1-&gt;Node0</title><path fill="none" stroke="#191970" d="M84,-46.1575C84,-37.155 84,-26.9199 84,-19.6427"/><polygon fill="#191970" stroke="#191970" points="80.5 -46.245 84 -56.245 87.5 -46.246 80.5 -46.245"/></g><g id="node3" class="node"><title>Node2</title><g id="a_node3"><a target="_top" xlink:href="classarm__compute_1_1_i_function.xhtml" xlink:title="Base class for all functions."><polygon fill="#fff" stroke="#000" points="55.5 -112.5 55.5 -131.5 112.5 -131.5 112.5 -112.5 55.5 -112.5"/><text x="84" y="-119.5" fill="#000" font-family="Helvetica,sans-Serif" font-size="10" text-anchor="middle">IFunction</text></a></g></g><g id="edge2" class="edge"><title>Node2-&gt;Node1</title><path fill="none" stroke="#191970" d="M84,-102.1575C84,-93.155 84,-82.9199 84,-75.6427"/><polygon fill="#191970" stroke="#191970" points="80.5 -102.246 84 -112.246 87.5 -102.246 80.5 -102.246"/></g></g></svg>