<svg xmlns="http://www.w3.org/2000/svg" xmlns:xlink="http://www.w3.org/1999/xlink" width="192" height="151pt" viewBox="0 0 144 151"><g id="graph0" class="graph" transform="scale(1 1) rotate(0) translate(4 147)"><title>NELocallyConnectedMatrixMultiplyKernel</title><polygon fill="#fff" stroke="transparent" points="-4 4 -4 -147 140 -147 140 4 -4 4"/><g id="node1" class="node"><title>Node0</title><polygon fill="#bfbfbf" stroke="#000" points="0 -.5 0 -30.5 136 -30.5 136 -.5 0 -.5"/><text x="8" y="-18.5" fill="#000" font-family="Helvetica,sans-Serif" font-size="10" text-anchor="start">NELocallyConnectedMatrix</text><text x="68" y="-7.5" fill="#000" font-family="Helvetica,sans-Serif" font-size="10" text-anchor="middle">MultiplyKernel</text></g><g id="node2" class="node"><title>Node1</title><g id="a_node2"><a target="_top" xlink:href="classarm__compute_1_1_i_c_p_p_kernel.xhtml" xlink:title="Common interface for all kernels implemented in C++."><polygon fill="#fff" stroke="#000" points="37 -67.5 37 -86.5 99 -86.5 99 -67.5 37 -67.5"/><text x="68" y="-74.5" fill="#000" font-family="Helvetica,sans-Serif" font-size="10" text-anchor="middle">INEKernel</text></a></g></g><g id="edge1" class="edge"><title>Node1-&gt;Node0</title><path fill="none" stroke="#191970" d="M68,-57.3693C68,-48.681 68,-38.6241 68,-30.5446"/><polygon fill="#191970" stroke="#191970" points="64.5 -57.391 68 -67.391 71.5 -57.391 64.5 -57.391"/></g><g id="node3" class="node"><title>Node2</title><g id="a_node3"><a target="_top" xlink:href="classarm__compute_1_1_i_kernel.xhtml" xlink:title="Common information for all the kernels."><polygon fill="#fff" stroke="#000" points="44.5 -123.5 44.5 -142.5 91.5 -142.5 91.5 -123.5 44.5 -123.5"/><text x="68" y="-130.5" fill="#000" font-family="Helvetica,sans-Serif" font-size="10" text-anchor="middle">IKernel</text></a></g></g><g id="edge2" class="edge"><title>Node2-&gt;Node1</title><path fill="none" stroke="#191970" d="M68,-113.1575C68,-104.155 68,-93.9199 68,-86.6427"/><polygon fill="#191970" stroke="#191970" points="64.5 -113.246 68 -123.246 71.5 -113.246 64.5 -113.246"/></g></g></svg>