<svg xmlns="http://www.w3.org/2000/svg" xmlns:xlink="http://www.w3.org/1999/xlink" width="164" height="308pt" viewBox="0 0 123 308"><g id="graph0" class="graph" transform="scale(1 1) rotate(0) translate(4 304)"><title>CLLogits1DMaxKernel</title><polygon fill="#fff" stroke="transparent" points="-4 4 -4 -304 119 -304 119 4 -4 4"/><g id="node1" class="node"><title>Node0</title><polygon fill="#bfbfbf" stroke="#000" points="0 -.5 0 -19.5 115 -19.5 115 -.5 0 -.5"/><text x="57.5" y="-7.5" fill="#000" font-family="Helvetica,sans-Serif" font-size="10" text-anchor="middle">CLLogits1DMaxKernel</text></g><g id="node2" class="node"><title>Node1</title><g id="a_node2"><a target="_top" xlink:href="classarm__compute_1_1_i_c_l_simple3_d_kernel.xhtml" xlink:title="Interface for simple OpenCL kernels having 1 tensor input and 1 tensor output."><polygon fill="#fff" stroke="#000" points="6 -56.5 6 -75.5 109 -75.5 109 -56.5 6 -56.5"/><text x="57.5" y="-63.5" fill="#000" font-family="Helvetica,sans-Serif" font-size="10" text-anchor="middle">ICLSimple3DKernel</text></a></g></g><g id="edge1" class="edge"><title>Node1-&gt;Node0</title><path fill="none" stroke="#191970" d="M57.5,-46.1575C57.5,-37.155 57.5,-26.9199 57.5,-19.6427"/><polygon fill="#191970" stroke="#191970" points="54 -46.245 57.5 -56.245 61 -46.246 54 -46.245"/></g><g id="node3" class="node"><title>Node2</title><g id="a_node3"><a target="_top" xlink:href="classarm__compute_1_1_i_c_l_simple2_d_kernel.xhtml" xlink:title="Interface for simple OpenCL kernels having 1 tensor input and 1 tensor output."><polygon fill="#fff" stroke="#000" points="6 -112.5 6 -131.5 109 -131.5 109 -112.5 6 -112.5"/><text x="57.5" y="-119.5" fill="#000" font-family="Helvetica,sans-Serif" font-size="10" text-anchor="middle">ICLSimple2DKernel</text></a></g></g><g id="edge2" class="edge"><title>Node2-&gt;Node1</title><path fill="none" stroke="#191970" d="M57.5,-102.1575C57.5,-93.155 57.5,-82.9199 57.5,-75.6427"/><polygon fill="#191970" stroke="#191970" points="54 -102.246 57.5 -112.246 61 -102.246 54 -102.246"/></g><g id="node4" class="node"><title>Node3</title><g id="a_node4"><a target="_top" xlink:href="classarm__compute_1_1_i_c_l_simple_kernel.xhtml" xlink:title="Interface for simple OpenCL kernels having 1 tensor input and 1 tensor output."><polygon fill="#fff" stroke="#000" points="12.5 -168.5 12.5 -187.5 102.5 -187.5 102.5 -168.5 12.5 -168.5"/><text x="57.5" y="-175.5" fill="#000" font-family="Helvetica,sans-Serif" font-size="10" text-anchor="middle">ICLSimpleKernel</text></a></g></g><g id="edge3" class="edge"><title>Node3-&gt;Node2</title><path fill="none" stroke="#191970" d="M57.5,-158.1575C57.5,-149.155 57.5,-138.9199 57.5,-131.6427"/><polygon fill="#191970" stroke="#191970" points="54 -158.245 57.5 -168.245 61 -158.246 54 -158.245"/></g><g id="node5" class="node"><title>Node4</title><g id="a_node5"><a target="_top" xlink:href="classarm__compute_1_1_i_c_l_kernel.xhtml" xlink:title="Common interface for all the OpenCL kernels."><polygon fill="#fff" stroke="#000" points="27.5 -224.5 27.5 -243.5 87.5 -243.5 87.5 -224.5 27.5 -224.5"/><text x="57.5" y="-231.5" fill="#000" font-family="Helvetica,sans-Serif" font-size="10" text-anchor="middle">ICLKernel</text></a></g></g><g id="edge4" class="edge"><title>Node4-&gt;Node3</title><path fill="none" stroke="#191970" d="M57.5,-214.1575C57.5,-205.155 57.5,-194.9199 57.5,-187.6427"/><polygon fill="#191970" stroke="#191970" points="54 -214.245 57.5 -224.245 61 -214.246 54 -214.245"/></g><g id="node6" class="node"><title>Node5</title><g id="a_node6"><a target="_top" xlink:href="classarm__compute_1_1_i_kernel.xhtml" xlink:title="Common information for all the kernels."><polygon fill="#fff" stroke="#000" points="34 -280.5 34 -299.5 81 -299.5 81 -280.5 34 -280.5"/><text x="57.5" y="-287.5" fill="#000" font-family="Helvetica,sans-Serif" font-size="10" text-anchor="middle">IKernel</text></a></g></g><g id="edge5" class="edge"><title>Node5-&gt;Node4</title><path fill="none" stroke="#191970" d="M57.5,-270.1575C57.5,-261.155 57.5,-250.9199 57.5,-243.6427"/><polygon fill="#191970" stroke="#191970" points="54 -270.245 57.5 -280.245 61 -270.246 54 -270.245"/></g></g></svg>