<svg xmlns="http://www.w3.org/2000/svg" xmlns:xlink="http://www.w3.org/1999/xlink" width="146pt" height="140pt" viewBox="0 0 146 140"><g id="graph0" class="graph" transform="scale(1 1) rotate(0) translate(4 136)"><title>NEArithmeticAdditionKernel</title><polygon fill="#fff" stroke="transparent" points="-4 4 -4 -136 142 -136 142 4 -4 4"/><g id="node1" class="node"><title>Node0</title><polygon fill="#bfbfbf" stroke="#000" points="0 -.5 0 -19.5 138 -19.5 138 -.5 0 -.5"/><text x="69" y="-7.5" fill="#000" font-family="Helvetica,sans-Serif" font-size="10" text-anchor="middle">NEArithmeticAdditionKernel</text></g><g id="node2" class="node"><title>Node1</title><g id="a_node2"><a target="_top" xlink:href="classarm__compute_1_1_i_c_p_p_kernel.xhtml" xlink:title="Common interface for all kernels implemented in C++."><polygon fill="#fff" stroke="#000" points="38 -56.5 38 -75.5 100 -75.5 100 -56.5 38 -56.5"/><text x="69" y="-63.5" fill="#000" font-family="Helvetica,sans-Serif" font-size="10" text-anchor="middle">INEKernel</text></a></g></g><g id="edge1" class="edge"><title>Node1-&gt;Node0</title><path fill="none" stroke="#191970" d="M69,-46.1575C69,-37.155 69,-26.9199 69,-19.6427"/><polygon fill="#191970" stroke="#191970" points="65.5 -46.245 69 -56.245 72.5 -46.246 65.5 -46.245"/></g><g id="node3" class="node"><title>Node2</title><g id="a_node3"><a target="_top" xlink:href="classarm__compute_1_1_i_kernel.xhtml" xlink:title="Common information for all the kernels."><polygon fill="#fff" stroke="#000" points="45.5 -112.5 45.5 -131.5 92.5 -131.5 92.5 -112.5 45.5 -112.5"/><text x="69" y="-119.5" fill="#000" font-family="Helvetica,sans-Serif" font-size="10" text-anchor="middle">IKernel</text></a></g></g><g id="edge2" class="edge"><title>Node2-&gt;Node1</title><path fill="none" stroke="#191970" d="M69,-102.1575C69,-93.155 69,-82.9199 69,-75.6427"/><polygon fill="#191970" stroke="#191970" points="65.5 -102.246 69 -112.246 72.5 -102.246 65.5 -102.246"/></g></g></svg>