<svg xmlns="http://www.w3.org/2000/svg" xmlns:xlink="http://www.w3.org/1999/xlink" width="118pt" height="140pt" viewBox="0 0 118 140"><g id="graph0" class="graph" transform="scale(1 1) rotate(0) translate(4 136)"><title>NEArithmeticAddition</title><polygon fill="#fff" stroke="transparent" points="-4 4 -4 -136 114 -136 114 4 -4 4"/><g id="node1" class="node"><title>Node0</title><polygon fill="#bfbfbf" stroke="#000" points="0 -.5 0 -19.5 110 -19.5 110 -.5 0 -.5"/><text x="55" y="-7.5" fill="#000" font-family="Helvetica,sans-Serif" font-size="10" text-anchor="middle">NEArithmeticAddition</text></g><g id="node2" class="node"><title>Node1</title><g id="a_node2"><a target="_top" xlink:href="classarm__compute_1_1_i_n_e_simple_function.xhtml" xlink:title="Basic interface for functions which have a single NEON kernel."><polygon fill="#fff" stroke="#000" points="4.5 -56.5 4.5 -75.5 105.5 -75.5 105.5 -56.5 4.5 -56.5"/><text x="55" y="-63.5" fill="#000" font-family="Helvetica,sans-Serif" font-size="10" text-anchor="middle">INESimpleFunction</text></a></g></g><g id="edge1" class="edge"><title>Node1-&gt;Node0</title><path fill="none" stroke="#191970" d="M55,-46.1575C55,-37.155 55,-26.9199 55,-19.6427"/><polygon fill="#191970" stroke="#191970" points="51.5 -46.245 55 -56.245 58.5 -46.246 51.5 -46.245"/></g><g id="node3" class="node"><title>Node2</title><g id="a_node3"><a target="_top" xlink:href="classarm__compute_1_1_i_function.xhtml" xlink:title="Base class for all functions."><polygon fill="#fff" stroke="#000" points="26.5 -112.5 26.5 -131.5 83.5 -131.5 83.5 -112.5 26.5 -112.5"/><text x="55" y="-119.5" fill="#000" font-family="Helvetica,sans-Serif" font-size="10" text-anchor="middle">IFunction</text></a></g></g><g id="edge2" class="edge"><title>Node2-&gt;Node1</title><path fill="none" stroke="#191970" d="M55,-102.1575C55,-93.155 55,-82.9199 55,-75.6427"/><polygon fill="#191970" stroke="#191970" points="51.5 -102.246 55 -112.246 58.5 -102.246 51.5 -102.246"/></g></g></svg>