<svg xmlns="http://www.w3.org/2000/svg" xmlns:xlink="http://www.w3.org/1999/xlink" width="70pt" height="140pt" viewBox="0 0 70 140"><g id="graph0" class="graph" transform="scale(1 1) rotate(0) translate(4 136)"><title>CLTensor</title><polygon fill="#fff" stroke="transparent" points="-4 4 -4 -136 66 -136 66 4 -4 4"/><g id="node1" class="node"><title>Node0</title><polygon fill="#bfbfbf" stroke="#000" points="1.5 -.5 1.5 -19.5 60.5 -19.5 60.5 -.5 1.5 -.5"/><text x="31" y="-7.5" fill="#000" font-family="Helvetica,sans-Serif" font-size="10" text-anchor="middle">CLTensor</text></g><g id="node2" class="node"><title>Node1</title><g id="a_node2"><a target="_top" xlink:href="classarm__compute_1_1_i_c_l_tensor.xhtml" xlink:title="Interface for OpenCL tensor."><polygon fill="#fff" stroke="#000" points="0 -56.5 0 -75.5 62 -75.5 62 -56.5 0 -56.5"/><text x="31" y="-63.5" fill="#000" font-family="Helvetica,sans-Serif" font-size="10" text-anchor="middle">ICLTensor</text></a></g></g><g id="edge1" class="edge"><title>Node1-&gt;Node0</title><path fill="none" stroke="#191970" d="M31,-46.1575C31,-37.155 31,-26.9199 31,-19.6427"/><polygon fill="#191970" stroke="#191970" points="27.5 -46.245 31 -56.245 34.5 -46.246 27.5 -46.245"/></g><g id="node3" class="node"><title>Node2</title><g id="a_node3"><a target="_top" xlink:href="classarm__compute_1_1_i_tensor.xhtml" xlink:title="Interface for NEON tensor."><polygon fill="#fff" stroke="#000" points="6 -112.5 6 -131.5 56 -131.5 56 -112.5 6 -112.5"/><text x="31" y="-119.5" fill="#000" font-family="Helvetica,sans-Serif" font-size="10" text-anchor="middle">ITensor</text></a></g></g><g id="edge2" class="edge"><title>Node2-&gt;Node1</title><path fill="none" stroke="#191970" d="M31,-102.1575C31,-93.155 31,-82.9199 31,-75.6427"/><polygon fill="#191970" stroke="#191970" points="27.5 -102.246 31 -112.246 34.5 -102.246 27.5 -102.246"/></g></g></svg>