<svg xmlns="http://www.w3.org/2000/svg" xmlns:xlink="http://www.w3.org/1999/xlink" width="121pt" height="152pt" viewBox="0 0 121 152"><g id="graph0" class="graph" transform="scale(1 1) rotate(0) translate(4 148)"><title>TensorShape</title><polygon fill="#fff" stroke="transparent" points="-4 4 -4 -148 117 -148 117 4 -4 4"/><g id="node1" class="node"><title>Node0</title><polygon fill="#bfbfbf" stroke="#000" points="19.5 -.5 19.5 -19.5 93.5 -19.5 93.5 -.5 19.5 -.5"/><text x="56.5" y="-7.5" fill="#000" font-family="Helvetica,sans-Serif" font-size="10" text-anchor="middle">TensorShape</text></g><g id="node2" class="node"><title>Node1</title><g id="a_node2"><a target="_top" xlink:href="classarm__compute_1_1_dimensions.xhtml" xlink:title="Dimensions\&lt; size_t \&gt;"><polygon fill="#fff" stroke="#000" points="0 -57.5 0 -76.5 113 -76.5 113 -57.5 0 -57.5"/><text x="56.5" y="-64.5" fill="#000" font-family="Helvetica,sans-Serif" font-size="10" text-anchor="middle">Dimensions&lt; size_t &gt;</text></a></g></g><g id="edge1" class="edge"><title>Node1-&gt;Node0</title><path fill="none" stroke="#191970" d="M56.5,-47.2342C56.5,-37.8491 56.5,-27.0651 56.5,-19.5265"/><polygon fill="#191970" stroke="#191970" points="53 -47.331 56.5 -57.331 60 -47.331 53 -47.331"/></g><g id="node3" class="node"><title>Node2</title><g id="a_node3"><a target="_top" xlink:href="classarm__compute_1_1_dimensions.xhtml" xlink:title="Dimensions with dimensionality."><polygon fill="#fff" stroke="#000" points="10.5 -124.5 10.5 -143.5 102.5 -143.5 102.5 -124.5 10.5 -124.5"/><text x="56.5" y="-131.5" fill="#000" font-family="Helvetica,sans-Serif" font-size="10" text-anchor="middle">Dimensions&lt; T &gt;</text></a></g></g><g id="edge2" class="edge"><title>Node2-&gt;Node1</title><path fill="none" stroke="orange" stroke-dasharray="5 2" d="M56.5,-114.1079C56.5,-101.714 56.5,-86.3263 56.5,-76.5817"/><polygon fill="orange" stroke="orange" points="53 -114.4 56.5 -124.4 60 -114.401 53 -114.4"/><text x="80.5" y="-98" fill="#000" font-family="Helvetica,sans-Serif" font-size="10" text-anchor="middle">&lt; size_t &gt;</text></g></g></svg>