<svg xmlns="http://www.w3.org/2000/svg" xmlns:xlink="http://www.w3.org/1999/xlink" width="158pt" height="336" viewBox="0 0 158 252"><g id="graph0" class="graph" transform="scale(1 1) rotate(0) translate(4 248)"><title>CLAccumulateWeightedKernel</title><polygon fill="#fff" stroke="transparent" points="-4 4 -4 -248 154 -248 154 4 -4 4"/><g id="node1" class="node"><title>Node0</title><polygon fill="#bfbfbf" stroke="#000" points="0 -.5 0 -19.5 150 -19.5 150 -.5 0 -.5"/><text x="75" y="-7.5" fill="#000" font-family="Helvetica,sans-Serif" font-size="10" text-anchor="middle">CLAccumulateWeightedKernel</text></g><g id="node2" class="node"><title>Node1</title><g id="a_node2"><a target="_top" xlink:href="classarm__compute_1_1_i_c_l_simple2_d_kernel.xhtml" xlink:title="Interface for simple OpenCL kernels having 1 tensor input and 1 tensor output."><polygon fill="#fff" stroke="#000" points="23.5 -56.5 23.5 -75.5 126.5 -75.5 126.5 -56.5 23.5 -56.5"/><text x="75" y="-63.5" fill="#000" font-family="Helvetica,sans-Serif" font-size="10" text-anchor="middle">ICLSimple2DKernel</text></a></g></g><g id="edge1" class="edge"><title>Node1-&gt;Node0</title><path fill="none" stroke="#191970" d="M75,-46.1575C75,-37.155 75,-26.9199 75,-19.6427"/><polygon fill="#191970" stroke="#191970" points="71.5 -46.245 75 -56.245 78.5 -46.246 71.5 -46.245"/></g><g id="node3" class="node"><title>Node2</title><g id="a_node3"><a target="_top" xlink:href="classarm__compute_1_1_i_c_l_simple_kernel.xhtml" xlink:title="Interface for simple OpenCL kernels having 1 tensor input and 1 tensor output."><polygon fill="#fff" stroke="#000" points="30 -112.5 30 -131.5 120 -131.5 120 -112.5 30 -112.5"/><text x="75" y="-119.5" fill="#000" font-family="Helvetica,sans-Serif" font-size="10" text-anchor="middle">ICLSimpleKernel</text></a></g></g><g id="edge2" class="edge"><title>Node2-&gt;Node1</title><path fill="none" stroke="#191970" d="M75,-102.1575C75,-93.155 75,-82.9199 75,-75.6427"/><polygon fill="#191970" stroke="#191970" points="71.5 -102.246 75 -112.246 78.5 -102.246 71.5 -102.246"/></g><g id="node4" class="node"><title>Node3</title><g id="a_node4"><a target="_top" xlink:href="classarm__compute_1_1_i_c_l_kernel.xhtml" xlink:title="Common interface for all the OpenCL kernels."><polygon fill="#fff" stroke="#000" points="45 -168.5 45 -187.5 105 -187.5 105 -168.5 45 -168.5"/><text x="75" y="-175.5" fill="#000" font-family="Helvetica,sans-Serif" font-size="10" text-anchor="middle">ICLKernel</text></a></g></g><g id="edge3" class="edge"><title>Node3-&gt;Node2</title><path fill="none" stroke="#191970" d="M75,-158.1575C75,-149.155 75,-138.9199 75,-131.6427"/><polygon fill="#191970" stroke="#191970" points="71.5 -158.245 75 -168.245 78.5 -158.246 71.5 -158.245"/></g><g id="node5" class="node"><title>Node4</title><g id="a_node5"><a target="_top" xlink:href="classarm__compute_1_1_i_kernel.xhtml" xlink:title="Common information for all the kernels."><polygon fill="#fff" stroke="#000" points="51.5 -224.5 51.5 -243.5 98.5 -243.5 98.5 -224.5 51.5 -224.5"/><text x="75" y="-231.5" fill="#000" font-family="Helvetica,sans-Serif" font-size="10" text-anchor="middle">IKernel</text></a></g></g><g id="edge4" class="edge"><title>Node4-&gt;Node3</title><path fill="none" stroke="#191970" d="M75,-214.1575C75,-205.155 75,-194.9199 75,-187.6427"/><polygon fill="#191970" stroke="#191970" points="71.5 -214.245 75 -224.245 78.5 -214.246 71.5 -214.245"/></g></g></svg>