<svg xmlns="http://www.w3.org/2000/svg" xmlns:xlink="http://www.w3.org/1999/xlink" width="178pt" height="218pt" viewBox="0 0 178 218"><g id="graph0" class="graph" transform="scale(1 1) rotate(0) translate(4 214)"><title>CLDepthwiseConvolutionLayer3x3NCHWKernel</title><polygon fill="#fff" stroke="transparent" points="-4 4 -4 -214 174 -214 174 4 -4 4"/><g id="node1" class="node"><title>Node0</title><polygon fill="#bfbfbf" stroke="#000" points="1.5 -.5 1.5 -30.5 168.5 -30.5 168.5 -.5 1.5 -.5"/><text x="9.5" y="-18.5" fill="#000" font-family="Helvetica,sans-Serif" font-size="10" text-anchor="start">CLDepthwiseConvolutionLayer3x3</text><text x="85" y="-7.5" fill="#000" font-family="Helvetica,sans-Serif" font-size="10" text-anchor="middle">NCHWKernel</text></g><g id="node2" class="node"><title>Node1</title><g id="a_node2"><a target="_top" xlink:href="classarm__compute_1_1_i_c_l_depthwise_convolution_layer3x3_kernel.xhtml" xlink:title="Interface for the kernel to run a 3x3 depthwise convolution on a tensor."><polygon fill="#fff" stroke="#000" points="0 -67.5 0 -97.5 170 -97.5 170 -67.5 0 -67.5"/><text x="8" y="-85.5" fill="#000" font-family="Helvetica,sans-Serif" font-size="10" text-anchor="start">ICLDepthwiseConvolutionLayer3x3</text><text x="85" y="-74.5" fill="#000" font-family="Helvetica,sans-Serif" font-size="10" text-anchor="middle">Kernel</text></a></g></g><g id="edge1" class="edge"><title>Node1-&gt;Node0</title><path fill="none" stroke="#191970" d="M85,-57.0249C85,-48.128 85,-38.4287 85,-30.6432"/><polygon fill="#191970" stroke="#191970" points="81.5 -57.297 85 -67.297 88.5 -57.297 81.5 -57.297"/></g><g id="node3" class="node"><title>Node2</title><g id="a_node3"><a target="_top" xlink:href="classarm__compute_1_1_i_c_l_kernel.xhtml" xlink:title="Common interface for all the OpenCL kernels."><polygon fill="#fff" stroke="#000" points="55 -134.5 55 -153.5 115 -153.5 115 -134.5 55 -134.5"/><text x="85" y="-141.5" fill="#000" font-family="Helvetica,sans-Serif" font-size="10" text-anchor="middle">ICLKernel</text></a></g></g><g id="edge2" class="edge"><title>Node2-&gt;Node1</title><path fill="none" stroke="#191970" d="M85,-124.3693C85,-115.681 85,-105.6241 85,-97.5446"/><polygon fill="#191970" stroke="#191970" points="81.5 -124.391 85 -134.391 88.5 -124.391 81.5 -124.391"/></g><g id="node4" class="node"><title>Node3</title><g id="a_node4"><a target="_top" xlink:href="classarm__compute_1_1_i_kernel.xhtml" xlink:title="Common information for all the kernels."><polygon fill="#fff" stroke="#000" points="61.5 -190.5 61.5 -209.5 108.5 -209.5 108.5 -190.5 61.5 -190.5"/><text x="85" y="-197.5" fill="#000" font-family="Helvetica,sans-Serif" font-size="10" text-anchor="middle">IKernel</text></a></g></g><g id="edge3" class="edge"><title>Node3-&gt;Node2</title><path fill="none" stroke="#191970" d="M85,-180.1575C85,-171.155 85,-160.9199 85,-153.6427"/><polygon fill="#191970" stroke="#191970" points="81.5 -180.245 85 -190.245 88.5 -180.246 81.5 -180.245"/></g></g></svg>