<svg xmlns="http://www.w3.org/2000/svg" xmlns:xlink="http://www.w3.org/1999/xlink" width="184pt" height="320" viewBox="0 0 184 240"><g id="graph0" class="graph" transform="scale(1 1) rotate(0) translate(4 236)"><title>NEWinogradLayerTransformWeightsKernel&lt; T, OutputTileRows, OutputTileCols, KernelRows, KernelCols &gt;</title><polygon fill="#fff" stroke="transparent" points="-4 4 -4 -236 180 -236 180 4 -4 4"/><g id="node1" class="node"><title>Node0</title><polygon fill="#bfbfbf" stroke="#000" points="0 -.5 0 -52.5 176 -52.5 176 -.5 0 -.5"/><text x="8" y="-40.5" fill="#000" font-family="Helvetica,sans-Serif" font-size="10" text-anchor="start">NEWinogradLayerTransform</text><text x="8" y="-29.5" fill="#000" font-family="Helvetica,sans-Serif" font-size="10" text-anchor="start">WeightsKernel&lt; T, OutputTile</text><text x="8" y="-18.5" fill="#000" font-family="Helvetica,sans-Serif" font-size="10" text-anchor="start">Rows, OutputTileCols, KernelRows,</text><text x="88" y="-7.5" fill="#000" font-family="Helvetica,sans-Serif" font-size="10" text-anchor="middle">KernelCols &gt;</text></g><g id="node2" class="node"><title>Node1</title><g id="a_node2"><a target="_top" xlink:href="classarm__compute_1_1_i_n_e_winograd_layer_transform_weights_kernel.xhtml" xlink:title="Interface for the NEON kernel to perform Winograd weights transform."><polygon fill="#fff" stroke="#000" points="16.5 -89.5 16.5 -119.5 159.5 -119.5 159.5 -89.5 16.5 -89.5"/><text x="24.5" y="-107.5" fill="#000" font-family="Helvetica,sans-Serif" font-size="10" text-anchor="start">INEWinogradLayerTransform</text><text x="88" y="-96.5" fill="#000" font-family="Helvetica,sans-Serif" font-size="10" text-anchor="middle">WeightsKernel&lt; T &gt;</text></a></g></g><g id="edge1" class="edge"><title>Node1-&gt;Node0</title><path fill="none" stroke="#191970" d="M88,-79.314C88,-70.756 88,-61.1787 88,-52.5542"/><polygon fill="#191970" stroke="#191970" points="84.5 -79.461 88 -89.461 91.5 -79.461 84.5 -79.461"/></g><g id="node3" class="node"><title>Node2</title><g id="a_node3"><a target="_top" xlink:href="classarm__compute_1_1_i_c_p_p_kernel.xhtml" xlink:title="Common interface for all kernels implemented in C++."><polygon fill="#fff" stroke="#000" points="57 -156.5 57 -175.5 119 -175.5 119 -156.5 57 -156.5"/><text x="88" y="-163.5" fill="#000" font-family="Helvetica,sans-Serif" font-size="10" text-anchor="middle">INEKernel</text></a></g></g><g id="edge2" class="edge"><title>Node2-&gt;Node1</title><path fill="none" stroke="#191970" d="M88,-146.3693C88,-137.681 88,-127.6241 88,-119.5446"/><polygon fill="#191970" stroke="#191970" points="84.5 -146.391 88 -156.391 91.5 -146.391 84.5 -146.391"/></g><g id="node4" class="node"><title>Node3</title><g id="a_node4"><a target="_top" xlink:href="classarm__compute_1_1_i_kernel.xhtml" xlink:title="Common information for all the kernels."><polygon fill="#fff" stroke="#000" points="64.5 -212.5 64.5 -231.5 111.5 -231.5 111.5 -212.5 64.5 -212.5"/><text x="88" y="-219.5" fill="#000" font-family="Helvetica,sans-Serif" font-size="10" text-anchor="middle">IKernel</text></a></g></g><g id="edge3" class="edge"><title>Node3-&gt;Node2</title><path fill="none" stroke="#191970" d="M88,-202.1575C88,-193.155 88,-182.9199 88,-175.6427"/><polygon fill="#191970" stroke="#191970" points="84.5 -202.245 88 -212.245 91.5 -202.246 84.5 -202.245"/></g></g></svg>