<svg xmlns="http://www.w3.org/2000/svg" xmlns:xlink="http://www.w3.org/1999/xlink" width="119pt" height="140pt" viewBox="0 0 119 140"><g id="graph0" class="graph" transform="scale(1 1) rotate(0) translate(4 136)"><title>GCArithmeticAddition</title><polygon fill="#fff" stroke="transparent" points="-4 4 -4 -136 115 -136 115 4 -4 4"/><g id="node1" class="node"><title>Node0</title><polygon fill="#bfbfbf" stroke="#000" points="0 -.5 0 -19.5 111 -19.5 111 -.5 0 -.5"/><text x="55.5" y="-7.5" fill="#000" font-family="Helvetica,sans-Serif" font-size="10" text-anchor="middle">GCArithmeticAddition</text></g><g id="node2" class="node"><title>Node1</title><g id="a_node2"><a target="_top" xlink:href="classarm__compute_1_1_i_g_c_simple_function.xhtml" xlink:title="Basic interface for functions which have a single OpenGL ES kernel."><polygon fill="#fff" stroke="#000" points="4.5 -56.5 4.5 -75.5 106.5 -75.5 106.5 -56.5 4.5 -56.5"/><text x="55.5" y="-63.5" fill="#000" font-family="Helvetica,sans-Serif" font-size="10" text-anchor="middle">IGCSimpleFunction</text></a></g></g><g id="edge1" class="edge"><title>Node1-&gt;Node0</title><path fill="none" stroke="#191970" d="M55.5,-46.1575C55.5,-37.155 55.5,-26.9199 55.5,-19.6427"/><polygon fill="#191970" stroke="#191970" points="52 -46.245 55.5 -56.245 59 -46.246 52 -46.245"/></g><g id="node3" class="node"><title>Node2</title><g id="a_node3"><a target="_top" xlink:href="classarm__compute_1_1_i_function.xhtml" xlink:title="Base class for all functions."><polygon fill="#fff" stroke="#000" points="27 -112.5 27 -131.5 84 -131.5 84 -112.5 27 -112.5"/><text x="55.5" y="-119.5" fill="#000" font-family="Helvetica,sans-Serif" font-size="10" text-anchor="middle">IFunction</text></a></g></g><g id="edge2" class="edge"><title>Node2-&gt;Node1</title><path fill="none" stroke="#191970" d="M55.5,-102.1575C55.5,-93.155 55.5,-82.9199 55.5,-75.6427"/><polygon fill="#191970" stroke="#191970" points="52 -102.246 55.5 -112.246 59 -102.246 52 -102.246"/></g></g></svg>