<svg xmlns="http://www.w3.org/2000/svg" xmlns:xlink="http://www.w3.org/1999/xlink" width="112pt" height="336" viewBox="0 0 112 252"><g id="graph0" class="graph" transform="scale(1 1) rotate(0) translate(4 248)"><title>CLMedian3x3Kernel</title><polygon fill="#fff" stroke="transparent" points="-4 4 -4 -248 108 -248 108 4 -4 4"/><g id="node1" class="node"><title>Node0</title><polygon fill="#bfbfbf" stroke="#000" points="0 -.5 0 -19.5 104 -19.5 104 -.5 0 -.5"/><text x="52" y="-7.5" fill="#000" font-family="Helvetica,sans-Serif" font-size="10" text-anchor="middle">CLMedian3x3Kernel</text></g><g id="node2" class="node"><title>Node1</title><g id="a_node2"><a target="_top" xlink:href="classarm__compute_1_1_i_c_l_simple2_d_kernel.xhtml" xlink:title="Interface for simple OpenCL kernels having 1 tensor input and 1 tensor output."><polygon fill="#fff" stroke="#000" points=".5 -56.5 .5 -75.5 103.5 -75.5 103.5 -56.5 .5 -56.5"/><text x="52" y="-63.5" fill="#000" font-family="Helvetica,sans-Serif" font-size="10" text-anchor="middle">ICLSimple2DKernel</text></a></g></g><g id="edge1" class="edge"><title>Node1-&gt;Node0</title><path fill="none" stroke="#191970" d="M52,-46.1575C52,-37.155 52,-26.9199 52,-19.6427"/><polygon fill="#191970" stroke="#191970" points="48.5 -46.245 52 -56.245 55.5 -46.246 48.5 -46.245"/></g><g id="node3" class="node"><title>Node2</title><g id="a_node3"><a target="_top" xlink:href="classarm__compute_1_1_i_c_l_simple_kernel.xhtml" xlink:title="Interface for simple OpenCL kernels having 1 tensor input and 1 tensor output."><polygon fill="#fff" stroke="#000" points="7 -112.5 7 -131.5 97 -131.5 97 -112.5 7 -112.5"/><text x="52" y="-119.5" fill="#000" font-family="Helvetica,sans-Serif" font-size="10" text-anchor="middle">ICLSimpleKernel</text></a></g></g><g id="edge2" class="edge"><title>Node2-&gt;Node1</title><path fill="none" stroke="#191970" d="M52,-102.1575C52,-93.155 52,-82.9199 52,-75.6427"/><polygon fill="#191970" stroke="#191970" points="48.5 -102.246 52 -112.246 55.5 -102.246 48.5 -102.246"/></g><g id="node4" class="node"><title>Node3</title><g id="a_node4"><a target="_top" xlink:href="classarm__compute_1_1_i_c_l_kernel.xhtml" xlink:title="Common interface for all the OpenCL kernels."><polygon fill="#fff" stroke="#000" points="22 -168.5 22 -187.5 82 -187.5 82 -168.5 22 -168.5"/><text x="52" y="-175.5" fill="#000" font-family="Helvetica,sans-Serif" font-size="10" text-anchor="middle">ICLKernel</text></a></g></g><g id="edge3" class="edge"><title>Node3-&gt;Node2</title><path fill="none" stroke="#191970" d="M52,-158.1575C52,-149.155 52,-138.9199 52,-131.6427"/><polygon fill="#191970" stroke="#191970" points="48.5 -158.245 52 -168.245 55.5 -158.246 48.5 -158.245"/></g><g id="node5" class="node"><title>Node4</title><g id="a_node5"><a target="_top" xlink:href="classarm__compute_1_1_i_kernel.xhtml" xlink:title="Common information for all the kernels."><polygon fill="#fff" stroke="#000" points="28.5 -224.5 28.5 -243.5 75.5 -243.5 75.5 -224.5 28.5 -224.5"/><text x="52" y="-231.5" fill="#000" font-family="Helvetica,sans-Serif" font-size="10" text-anchor="middle">IKernel</text></a></g></g><g id="edge4" class="edge"><title>Node4-&gt;Node3</title><path fill="none" stroke="#191970" d="M52,-214.1575C52,-205.155 52,-194.9199 52,-187.6427"/><polygon fill="#191970" stroke="#191970" points="48.5 -214.245 52 -224.245 55.5 -214.246 48.5 -214.245"/></g></g></svg>