<svg xmlns="http://www.w3.org/2000/svg" xmlns:xlink="http://www.w3.org/1999/xlink" width="328pt" height="163pt" viewBox="0 0 328 163"><g id="graph0" class="graph" transform="scale(1 1) rotate(0) translate(4 159)"><title>CLIm2ColKernel</title><polygon fill="#fff" stroke="transparent" points="-4 4 -4 -159 324 -159 324 4 -4 4"/><g id="node1" class="node"><title>Node0</title><polygon fill="#bfbfbf" stroke="#000" points="121.5 -.5 121.5 -19.5 210.5 -19.5 210.5 -.5 121.5 -.5"/><text x="166" y="-7.5" fill="#000" font-family="Helvetica,sans-Serif" font-size="10" text-anchor="middle">CLIm2ColKernel</text></g><g id="node2" class="node"><title>Node1</title><g id="a_node2"><a target="_top" xlink:href="classarm__compute_1_1_i_c_l_kernel.xhtml" xlink:title="Common interface for all the OpenCL kernels."><polygon fill="#fff" stroke="#000" points="0 -78.5 0 -97.5 60 -97.5 60 -78.5 0 -78.5"/><text x="30" y="-85.5" fill="#000" font-family="Helvetica,sans-Serif" font-size="10" text-anchor="middle">ICLKernel</text></a></g></g><g id="edge1" class="edge"><title>Node1-&gt;Node0</title><path fill="none" stroke="#191970" d="M55.6836,-73.2697C83.1049,-57.5428 125.7633,-33.0769 149.1873,-19.6426"/><polygon fill="#191970" stroke="#191970" points="53.609 -70.424 46.676 -78.436 57.092 -76.497 53.609 -70.424"/></g><g id="node3" class="node"><title>Node2</title><g id="a_node3"><a target="_top" xlink:href="classarm__compute_1_1_i_kernel.xhtml" xlink:title="Common information for all the kernels."><polygon fill="#fff" stroke="#000" points="6.5 -135.5 6.5 -154.5 53.5 -154.5 53.5 -135.5 6.5 -135.5"/><text x="30" y="-142.5" fill="#000" font-family="Helvetica,sans-Serif" font-size="10" text-anchor="middle">IKernel</text></a></g></g><g id="edge2" class="edge"><title>Node2-&gt;Node1</title><path fill="none" stroke="#191970" d="M30,-125.2342C30,-115.8491 30,-105.0651 30,-97.5265"/><polygon fill="#191970" stroke="#191970" points="26.5 -125.331 30 -135.331 33.5 -125.331 26.5 -125.331"/></g><g id="node4" class="node"><title>Node3</title><g id="a_node4"><a target="_top" xlink:href="classarm__compute_1_1_i_c_l_tensor.xhtml" xlink:title="Interface for OpenCL tensor."><polygon fill="#fff" stroke="#000" points="78 -78.5 78 -97.5 140 -97.5 140 -78.5 78 -78.5"/><text x="109" y="-85.5" fill="#000" font-family="Helvetica,sans-Serif" font-size="10" text-anchor="middle">ICLTensor</text></a></g></g><g id="edge3" class="edge"><title>Node3-&gt;Node0</title><path fill="none" stroke="#9a32cd" stroke-dasharray="5 2" d="M117.9272,-69.0778C122.9141,-59.3649 129.6068,-47.591 137,-38 142.1272,-31.3486 148.8198,-24.7806 154.4835,-19.6792"/><polygon fill="#9a32cd" stroke="#9a32cd" points="114.675 -67.759 113.39 -78.276 120.953 -70.856 114.675 -67.759"/><text x="155" y="-52" fill="#000" font-family="Helvetica,sans-Serif" font-size="10" text-anchor="middle">_output</text><text x="155" y="-41" fill="#000" font-family="Helvetica,sans-Serif" font-size="10" text-anchor="middle">_input</text></g><g id="node5" class="node"><title>Node4</title><g id="a_node5"><a target="_top" xlink:href="classarm__compute_1_1_i_tensor.xhtml" xlink:title="Interface for NEON tensor."><polygon fill="#fff" stroke="#000" points="84 -135.5 84 -154.5 134 -154.5 134 -135.5 84 -135.5"/><text x="109" y="-142.5" fill="#000" font-family="Helvetica,sans-Serif" font-size="10" text-anchor="middle">ITensor</text></a></g></g><g id="edge4" class="edge"><title>Node4-&gt;Node3</title><path fill="none" stroke="#191970" d="M109,-125.2342C109,-115.8491 109,-105.0651 109,-97.5265"/><polygon fill="#191970" stroke="#191970" points="105.5 -125.331 109 -135.331 112.5 -125.331 105.5 -125.331"/></g><g id="node6" class="node"><title>Node5</title><g id="a_node6"><a target="_top" xlink:href="classarm__compute_1_1_pad_stride_info.xhtml" xlink:title="Padding and stride information class."><polygon fill="#fff" stroke="#000" points="158 -78.5 158 -97.5 234 -97.5 234 -78.5 158 -78.5"/><text x="196" y="-85.5" fill="#000" font-family="Helvetica,sans-Serif" font-size="10" text-anchor="middle">PadStrideInfo</text></a></g></g><g id="edge5" class="edge"><title>Node5-&gt;Node0</title><path fill="none" stroke="#9a32cd" stroke-dasharray="5 2" d="M188.5915,-68.7379C182.5955,-53.1484 174.4019,-31.845 169.7087,-19.6426"/><polygon fill="#9a32cd" stroke="#9a32cd" points="185.465 -70.359 192.321 -78.436 191.998 -67.846 185.465 -70.359"/><text x="209.5" y="-46.5" fill="#000" font-family="Helvetica,sans-Serif" font-size="10" text-anchor="middle">_conv_info</text></g><g id="node7" class="node"><title>Node6</title><g id="a_node7"><a target="_top" xlink:href="classarm__compute_1_1_size2_d.xhtml" xlink:title="Class for specifying the size of an image or rectangle."><polygon fill="#fff" stroke="#000" points="252.5 -78.5 252.5 -97.5 301.5 -97.5 301.5 -78.5 252.5 -78.5"/><text x="277" y="-85.5" fill="#000" font-family="Helvetica,sans-Serif" font-size="10" text-anchor="middle">Size2D</text></a></g></g><g id="edge6" class="edge"><title>Node6-&gt;Node0</title><path fill="none" stroke="#9a32cd" stroke-dasharray="5 2" d="M266.471,-69.4332C259.7567,-58.9967 250.2184,-46.4154 239,-38 228.2502,-29.9361 214.8974,-23.9217 202.5626,-19.5776"/><polygon fill="#9a32cd" stroke="#9a32cd" points="263.631 -71.5 271.811 -78.234 269.616 -67.869 263.631 -71.5"/><text x="289.5" y="-46.5" fill="#000" font-family="Helvetica,sans-Serif" font-size="10" text-anchor="middle">_kernel_dims</text></g></g></svg>