<svg xmlns="http://www.w3.org/2000/svg" xmlns:xlink="http://www.w3.org/1999/xlink" width="73pt" height="140pt" viewBox="0 0 73 140"><g id="graph0" class="graph" transform="scale(1 1) rotate(0) translate(4 136)"><title>GCTensor</title><polygon fill="#fff" stroke="transparent" points="-4 4 -4 -136 69 -136 69 4 -4 4"/><g id="node1" class="node"><title>Node0</title><polygon fill="#bfbfbf" stroke="#000" points="1.5 -.5 1.5 -19.5 63.5 -19.5 63.5 -.5 1.5 -.5"/><text x="32.5" y="-7.5" fill="#000" font-family="Helvetica,sans-Serif" font-size="10" text-anchor="middle">GCTensor</text></g><g id="node2" class="node"><title>Node1</title><g id="a_node2"><a target="_top" xlink:href="classarm__compute_1_1_i_g_c_tensor.xhtml" xlink:title="Interface for GLES Compute tensor."><polygon fill="#fff" stroke="#000" points="0 -56.5 0 -75.5 65 -75.5 65 -56.5 0 -56.5"/><text x="32.5" y="-63.5" fill="#000" font-family="Helvetica,sans-Serif" font-size="10" text-anchor="middle">IGCTensor</text></a></g></g><g id="edge1" class="edge"><title>Node1-&gt;Node0</title><path fill="none" stroke="#191970" d="M32.5,-46.1575C32.5,-37.155 32.5,-26.9199 32.5,-19.6427"/><polygon fill="#191970" stroke="#191970" points="29 -46.245 32.5 -56.245 36 -46.246 29 -46.245"/></g><g id="node3" class="node"><title>Node2</title><g id="a_node3"><a target="_top" xlink:href="classarm__compute_1_1_i_tensor.xhtml" xlink:title="Interface for NEON tensor."><polygon fill="#fff" stroke="#000" points="7.5 -112.5 7.5 -131.5 57.5 -131.5 57.5 -112.5 7.5 -112.5"/><text x="32.5" y="-119.5" fill="#000" font-family="Helvetica,sans-Serif" font-size="10" text-anchor="middle">ITensor</text></a></g></g><g id="edge2" class="edge"><title>Node2-&gt;Node1</title><path fill="none" stroke="#191970" d="M32.5,-102.1575C32.5,-93.155 32.5,-82.9199 32.5,-75.6427"/><polygon fill="#191970" stroke="#191970" points="29 -102.246 32.5 -112.246 36 -102.246 29 -102.246"/></g></g></svg>