<svg xmlns="http://www.w3.org/2000/svg" xmlns:xlink="http://www.w3.org/1999/xlink" width="142pt" height="106pt" viewBox="0 0 142 106"><g id="graph0" class="graph" transform="scale(1 1) rotate(0) translate(4 102)"><title>GemmImpl_gemv_batched&lt; Top, Tret &gt;</title><polygon fill="#fff" stroke="transparent" points="-4 4 -4 -102 138 -102 138 4 -4 4"/><g id="node1" class="node"><title>Node0</title><polygon fill="#bfbfbf" stroke="#000" points="0 -.5 0 -30.5 134 -30.5 134 -.5 0 -.5"/><text x="8" y="-18.5" fill="#000" font-family="Helvetica,sans-Serif" font-size="10" text-anchor="start">GemmImpl_gemv_batched</text><text x="67" y="-7.5" fill="#000" font-family="Helvetica,sans-Serif" font-size="10" text-anchor="middle">&lt; Top, Tret &gt;</text></g><g id="node2" class="node"><title>Node1</title><g id="a_node2"><a target="_top" xlink:href="classarm__gemm_1_1_gemm_implementation.xhtml" xlink:title="GemmImplementation\l\&lt; Top, Tret \&gt;"><polygon fill="#fff" stroke="#000" points="10.5 -67.5 10.5 -97.5 123.5 -97.5 123.5 -67.5 10.5 -67.5"/><text x="18.5" y="-85.5" fill="#000" font-family="Helvetica,sans-Serif" font-size="10" text-anchor="start">GemmImplementation</text><text x="67" y="-74.5" fill="#000" font-family="Helvetica,sans-Serif" font-size="10" text-anchor="middle">&lt; Top, Tret &gt;</text></a></g></g><g id="edge1" class="edge"><title>Node1-&gt;Node0</title><path fill="none" stroke="#191970" d="M67,-57.0249C67,-48.128 67,-38.4287 67,-30.6432"/><polygon fill="#191970" stroke="#191970" points="63.5 -57.297 67 -67.297 70.5 -57.297 63.5 -57.297"/></g></g></svg>