<svg xmlns="http://www.w3.org/2000/svg" xmlns:xlink="http://www.w3.org/1999/xlink" width="169pt" height="151pt" viewBox="0 0 169 151"><g id="graph0" class="graph" transform="scale(1 1) rotate(0) translate(4 147)"><title>CLFullyConnectedLayerReshapeWeights</title><polygon fill="#fff" stroke="transparent" points="-4 4 -4 -147 165 -147 165 4 -4 4"/><g id="node1" class="node"><title>Node0</title><polygon fill="#bfbfbf" stroke="#000" points="0 -.5 0 -30.5 161 -30.5 161 -.5 0 -.5"/><text x="8" y="-18.5" fill="#000" font-family="Helvetica,sans-Serif" font-size="10" text-anchor="start">CLFullyConnectedLayerReshape</text><text x="80.5" y="-7.5" fill="#000" font-family="Helvetica,sans-Serif" font-size="10" text-anchor="middle">Weights</text></g><g id="node2" class="node"><title>Node1</title><g id="a_node2"><a target="_top" xlink:href="classarm__compute_1_1_i_c_l_simple_function.xhtml" xlink:title="Basic interface for functions which have a single OpenCL kernel."><polygon fill="#fff" stroke="#000" points="30.5 -67.5 30.5 -86.5 130.5 -86.5 130.5 -67.5 30.5 -67.5"/><text x="80.5" y="-74.5" fill="#000" font-family="Helvetica,sans-Serif" font-size="10" text-anchor="middle">ICLSimpleFunction</text></a></g></g><g id="edge1" class="edge"><title>Node1-&gt;Node0</title><path fill="none" stroke="#191970" d="M80.5,-57.3693C80.5,-48.681 80.5,-38.6241 80.5,-30.5446"/><polygon fill="#191970" stroke="#191970" points="77 -57.391 80.5 -67.391 84 -57.391 77 -57.391"/></g><g id="node3" class="node"><title>Node2</title><g id="a_node3"><a target="_top" xlink:href="classarm__compute_1_1_i_function.xhtml" xlink:title="Base class for all functions."><polygon fill="#fff" stroke="#000" points="52 -123.5 52 -142.5 109 -142.5 109 -123.5 52 -123.5"/><text x="80.5" y="-130.5" fill="#000" font-family="Helvetica,sans-Serif" font-size="10" text-anchor="middle">IFunction</text></a></g></g><g id="edge2" class="edge"><title>Node2-&gt;Node1</title><path fill="none" stroke="#191970" d="M80.5,-113.1575C80.5,-104.155 80.5,-93.9199 80.5,-86.6427"/><polygon fill="#191970" stroke="#191970" points="77 -113.246 80.5 -123.246 84 -113.246 77 -113.246"/></g></g></svg>