<svg xmlns="http://www.w3.org/2000/svg" xmlns:xlink="http://www.w3.org/1999/xlink" width="140" height="152pt" viewBox="0 0 105 152"><g id="graph0" class="graph" transform="scale(1 1) rotate(0) translate(4 148)"><title>Coordinates</title><polygon fill="#fff" stroke="transparent" points="-4 4 -4 -148 101 -148 101 4 -4 4"/><g id="node1" class="node"><title>Node0</title><polygon fill="#bfbfbf" stroke="#000" points="14 -.5 14 -19.5 83 -19.5 83 -.5 14 -.5"/><text x="48.5" y="-7.5" fill="#000" font-family="Helvetica,sans-Serif" font-size="10" text-anchor="middle">Coordinates</text></g><g id="node2" class="node"><title>Node1</title><g id="a_node2"><a target="_top" xlink:href="classarm__compute_1_1_dimensions.xhtml" xlink:title="Dimensions\&lt; int \&gt;"><polygon fill="#fff" stroke="#000" points="0 -57.5 0 -76.5 97 -76.5 97 -57.5 0 -57.5"/><text x="48.5" y="-64.5" fill="#000" font-family="Helvetica,sans-Serif" font-size="10" text-anchor="middle">Dimensions&lt; int &gt;</text></a></g></g><g id="edge1" class="edge"><title>Node1-&gt;Node0</title><path fill="none" stroke="#191970" d="M48.5,-47.2342C48.5,-37.8491 48.5,-27.0651 48.5,-19.5265"/><polygon fill="#191970" stroke="#191970" points="45 -47.331 48.5 -57.331 52 -47.331 45 -47.331"/></g><g id="node3" class="node"><title>Node2</title><g id="a_node3"><a target="_top" xlink:href="classarm__compute_1_1_dimensions.xhtml" xlink:title="Dimensions with dimensionality."><polygon fill="#fff" stroke="#000" points="2.5 -124.5 2.5 -143.5 94.5 -143.5 94.5 -124.5 2.5 -124.5"/><text x="48.5" y="-131.5" fill="#000" font-family="Helvetica,sans-Serif" font-size="10" text-anchor="middle">Dimensions&lt; T &gt;</text></a></g></g><g id="edge2" class="edge"><title>Node2-&gt;Node1</title><path fill="none" stroke="orange" stroke-dasharray="5 2" d="M48.5,-114.1079C48.5,-101.714 48.5,-86.3263 48.5,-76.5817"/><polygon fill="orange" stroke="orange" points="45 -114.4 48.5 -124.4 52 -114.401 45 -114.4"/><text x="64.5" y="-98" fill="#000" font-family="Helvetica,sans-Serif" font-size="10" text-anchor="middle">&lt; int &gt;</text></g></g></svg>