<svg xmlns="http://www.w3.org/2000/svg" xmlns:xlink="http://www.w3.org/1999/xlink" width="156" height="336" viewBox="0 0 117 252"><g id="graph0" class="graph" transform="scale(1 1) rotate(0) translate(4 248)"><title>CLAccumulateKernel</title><polygon fill="#fff" stroke="transparent" points="-4 4 -4 -248 113 -248 113 4 -4 4"/><g id="node1" class="node"><title>Node0</title><polygon fill="#bfbfbf" stroke="#000" points="0 -.5 0 -19.5 109 -19.5 109 -.5 0 -.5"/><text x="54.5" y="-7.5" fill="#000" font-family="Helvetica,sans-Serif" font-size="10" text-anchor="middle">CLAccumulateKernel</text></g><g id="node2" class="node"><title>Node1</title><g id="a_node2"><a target="_top" xlink:href="classarm__compute_1_1_i_c_l_simple2_d_kernel.xhtml" xlink:title="Interface for simple OpenCL kernels having 1 tensor input and 1 tensor output."><polygon fill="#fff" stroke="#000" points="3 -56.5 3 -75.5 106 -75.5 106 -56.5 3 -56.5"/><text x="54.5" y="-63.5" fill="#000" font-family="Helvetica,sans-Serif" font-size="10" text-anchor="middle">ICLSimple2DKernel</text></a></g></g><g id="edge1" class="edge"><title>Node1-&gt;Node0</title><path fill="none" stroke="#191970" d="M54.5,-46.1575C54.5,-37.155 54.5,-26.9199 54.5,-19.6427"/><polygon fill="#191970" stroke="#191970" points="51 -46.245 54.5 -56.245 58 -46.246 51 -46.245"/></g><g id="node3" class="node"><title>Node2</title><g id="a_node3"><a target="_top" xlink:href="classarm__compute_1_1_i_c_l_simple_kernel.xhtml" xlink:title="Interface for simple OpenCL kernels having 1 tensor input and 1 tensor output."><polygon fill="#fff" stroke="#000" points="9.5 -112.5 9.5 -131.5 99.5 -131.5 99.5 -112.5 9.5 -112.5"/><text x="54.5" y="-119.5" fill="#000" font-family="Helvetica,sans-Serif" font-size="10" text-anchor="middle">ICLSimpleKernel</text></a></g></g><g id="edge2" class="edge"><title>Node2-&gt;Node1</title><path fill="none" stroke="#191970" d="M54.5,-102.1575C54.5,-93.155 54.5,-82.9199 54.5,-75.6427"/><polygon fill="#191970" stroke="#191970" points="51 -102.246 54.5 -112.246 58 -102.246 51 -102.246"/></g><g id="node4" class="node"><title>Node3</title><g id="a_node4"><a target="_top" xlink:href="classarm__compute_1_1_i_c_l_kernel.xhtml" xlink:title="Common interface for all the OpenCL kernels."><polygon fill="#fff" stroke="#000" points="24.5 -168.5 24.5 -187.5 84.5 -187.5 84.5 -168.5 24.5 -168.5"/><text x="54.5" y="-175.5" fill="#000" font-family="Helvetica,sans-Serif" font-size="10" text-anchor="middle">ICLKernel</text></a></g></g><g id="edge3" class="edge"><title>Node3-&gt;Node2</title><path fill="none" stroke="#191970" d="M54.5,-158.1575C54.5,-149.155 54.5,-138.9199 54.5,-131.6427"/><polygon fill="#191970" stroke="#191970" points="51 -158.245 54.5 -168.245 58 -158.246 51 -158.245"/></g><g id="node5" class="node"><title>Node4</title><g id="a_node5"><a target="_top" xlink:href="classarm__compute_1_1_i_kernel.xhtml" xlink:title="Common information for all the kernels."><polygon fill="#fff" stroke="#000" points="31 -224.5 31 -243.5 78 -243.5 78 -224.5 31 -224.5"/><text x="54.5" y="-231.5" fill="#000" font-family="Helvetica,sans-Serif" font-size="10" text-anchor="middle">IKernel</text></a></g></g><g id="edge4" class="edge"><title>Node4-&gt;Node3</title><path fill="none" stroke="#191970" d="M54.5,-214.1575C54.5,-205.155 54.5,-194.9199 54.5,-187.6427"/><polygon fill="#191970" stroke="#191970" points="51 -214.245 54.5 -224.245 58 -214.246 51 -214.245"/></g></g></svg>