<svg xmlns="http://www.w3.org/2000/svg" xmlns:xlink="http://www.w3.org/1999/xlink" width="154pt" height="151pt" viewBox="0 0 154 151"><g id="graph0" class="graph" transform="scale(1 1) rotate(0) translate(4 147)"><title>CLDepthwiseVectorToTensorKernel</title><polygon fill="#fff" stroke="transparent" points="-4 4 -4 -147 150 -147 150 4 -4 4"/><g id="node1" class="node"><title>Node0</title><polygon fill="#bfbfbf" stroke="#000" points="0 -.5 0 -30.5 146 -30.5 146 -.5 0 -.5"/><text x="8" y="-18.5" fill="#000" font-family="Helvetica,sans-Serif" font-size="10" text-anchor="start">CLDepthwiseVectorToTensor</text><text x="73" y="-7.5" fill="#000" font-family="Helvetica,sans-Serif" font-size="10" text-anchor="middle">Kernel</text></g><g id="node2" class="node"><title>Node1</title><g id="a_node2"><a target="_top" xlink:href="classarm__compute_1_1_i_c_l_kernel.xhtml" xlink:title="Common interface for all the OpenCL kernels."><polygon fill="#fff" stroke="#000" points="43 -67.5 43 -86.5 103 -86.5 103 -67.5 43 -67.5"/><text x="73" y="-74.5" fill="#000" font-family="Helvetica,sans-Serif" font-size="10" text-anchor="middle">ICLKernel</text></a></g></g><g id="edge1" class="edge"><title>Node1-&gt;Node0</title><path fill="none" stroke="#191970" d="M73,-57.3693C73,-48.681 73,-38.6241 73,-30.5446"/><polygon fill="#191970" stroke="#191970" points="69.5 -57.391 73 -67.391 76.5 -57.391 69.5 -57.391"/></g><g id="node3" class="node"><title>Node2</title><g id="a_node3"><a target="_top" xlink:href="classarm__compute_1_1_i_kernel.xhtml" xlink:title="Common information for all the kernels."><polygon fill="#fff" stroke="#000" points="49.5 -123.5 49.5 -142.5 96.5 -142.5 96.5 -123.5 49.5 -123.5"/><text x="73" y="-130.5" fill="#000" font-family="Helvetica,sans-Serif" font-size="10" text-anchor="middle">IKernel</text></a></g></g><g id="edge2" class="edge"><title>Node2-&gt;Node1</title><path fill="none" stroke="#191970" d="M73,-113.1575C73,-104.155 73,-93.9199 73,-86.6427"/><polygon fill="#191970" stroke="#191970" points="69.5 -113.246 73 -123.246 76.5 -113.246 69.5 -113.246"/></g></g></svg>