<svg xmlns="http://www.w3.org/2000/svg" xmlns:xlink="http://www.w3.org/1999/xlink" width="84" height="140pt" viewBox="0 0 63 140"><g id="graph0" class="graph" transform="scale(1 1) rotate(0) translate(4 136)"><title>CLHOG</title><polygon fill="#fff" stroke="transparent" points="-4 4 -4 -136 59 -136 59 4 -4 4"/><g id="node1" class="node"><title>Node0</title><polygon fill="#bfbfbf" stroke="#000" points="1.5 -.5 1.5 -19.5 53.5 -19.5 53.5 -.5 1.5 -.5"/><text x="27.5" y="-7.5" fill="#000" font-family="Helvetica,sans-Serif" font-size="10" text-anchor="middle">CLHOG</text></g><g id="node2" class="node"><title>Node1</title><g id="a_node2"><a target="_top" xlink:href="classarm__compute_1_1_i_c_l_h_o_g.xhtml" xlink:title="Interface for OpenCL HOG data-object."><polygon fill="#fff" stroke="#000" points="0 -56.5 0 -75.5 55 -75.5 55 -56.5 0 -56.5"/><text x="27.5" y="-63.5" fill="#000" font-family="Helvetica,sans-Serif" font-size="10" text-anchor="middle">ICLHOG</text></a></g></g><g id="edge1" class="edge"><title>Node1-&gt;Node0</title><path fill="none" stroke="#191970" d="M27.5,-46.1575C27.5,-37.155 27.5,-26.9199 27.5,-19.6427"/><polygon fill="#191970" stroke="#191970" points="24 -46.245 27.5 -56.245 31 -46.246 24 -46.245"/></g><g id="node3" class="node"><title>Node2</title><g id="a_node3"><a target="_top" xlink:href="classarm__compute_1_1_i_h_o_g.xhtml" xlink:title="Interface for HOG data-object."><polygon fill="#fff" stroke="#000" points="6.5 -112.5 6.5 -131.5 48.5 -131.5 48.5 -112.5 6.5 -112.5"/><text x="27.5" y="-119.5" fill="#000" font-family="Helvetica,sans-Serif" font-size="10" text-anchor="middle">IHOG</text></a></g></g><g id="edge2" class="edge"><title>Node2-&gt;Node1</title><path fill="none" stroke="#191970" d="M27.5,-102.1575C27.5,-93.155 27.5,-82.9199 27.5,-75.6427"/><polygon fill="#191970" stroke="#191970" points="24 -102.246 27.5 -112.246 31 -102.246 24 -102.246"/></g></g></svg>