<svg xmlns="http://www.w3.org/2000/svg" xmlns:xlink="http://www.w3.org/1999/xlink" width="145pt" height="152pt" viewBox="0 0 144.5 152"><g id="graph0" class="graph" transform="scale(1 1) rotate(0) translate(4 148)"><title>ITensorInfo</title><polygon fill="#fff" stroke="transparent" points="-4 4 -4 -148 140.5 -148 140.5 4 -4 4"/><g id="node1" class="node"><title>Node0</title><polygon fill="#bfbfbf" stroke="#000" points="32.5 -.5 32.5 -19.5 98.5 -19.5 98.5 -.5 32.5 -.5"/><text x="65.5" y="-7.5" fill="#000" font-family="Helvetica,sans-Serif" font-size="10" text-anchor="middle">ITensorInfo</text></g><g id="node2" class="node"><title>Node1</title><g id="a_node2"><a target="_top" xlink:href="classarm__compute_1_1misc_1_1_i_cloneable.xhtml" xlink:title="ICloneable\&lt; ITensorInfo \&gt;"><polygon fill="#fff" stroke="#000" points="0 -57.5 0 -76.5 131 -76.5 131 -57.5 0 -57.5"/><text x="65.5" y="-64.5" fill="#000" font-family="Helvetica,sans-Serif" font-size="10" text-anchor="middle">ICloneable&lt; ITensorInfo &gt;</text></a></g></g><g id="edge1" class="edge"><title>Node1-&gt;Node0</title><path fill="none" stroke="#191970" d="M65.5,-47.2342C65.5,-37.8491 65.5,-27.0651 65.5,-19.5265"/><polygon fill="#191970" stroke="#191970" points="62 -47.331 65.5 -57.331 69 -47.331 62 -47.331"/></g><g id="node3" class="node"><title>Node2</title><g id="a_node3"><a target="_top" xlink:href="classarm__compute_1_1misc_1_1_i_cloneable.xhtml" xlink:title="Clonable Interface."><polygon fill="#fff" stroke="#000" points="22 -124.5 22 -143.5 109 -143.5 109 -124.5 22 -124.5"/><text x="65.5" y="-131.5" fill="#000" font-family="Helvetica,sans-Serif" font-size="10" text-anchor="middle">ICloneable&lt; T &gt;</text></a></g></g><g id="edge2" class="edge"><title>Node2-&gt;Node1</title><path fill="none" stroke="orange" stroke-dasharray="5 2" d="M65.5,-114.1079C65.5,-101.714 65.5,-86.3263 65.5,-76.5817"/><polygon fill="orange" stroke="orange" points="62 -114.4 65.5 -124.4 69 -114.401 62 -114.4"/><text x="101" y="-98" fill="#000" font-family="Helvetica,sans-Serif" font-size="10" text-anchor="middle">&lt; ITensorInfo &gt;</text></g></g></svg>