<svg xmlns="http://www.w3.org/2000/svg" xmlns:xlink="http://www.w3.org/1999/xlink" width="136pt" height="140pt" viewBox="0 0 136 140"><g id="graph0" class="graph" transform="scale(1 1) rotate(0) translate(4 136)"><title>NEGEMMTranspose1xW</title><polygon fill="#fff" stroke="transparent" points="-4 4 -4 -136 132 -136 132 4 -4 4"/><g id="node1" class="node"><title>Node0</title><polygon fill="#bfbfbf" stroke="#000" points="0 -.5 0 -19.5 128 -19.5 128 -.5 0 -.5"/><text x="64" y="-7.5" fill="#000" font-family="Helvetica,sans-Serif" font-size="10" text-anchor="middle">NEGEMMTranspose1xW</text></g><g id="node2" class="node"><title>Node1</title><g id="a_node2"><a target="_top" xlink:href="classarm__compute_1_1_i_n_e_simple_function.xhtml" xlink:title="Basic interface for functions which have a single NEON kernel."><polygon fill="#fff" stroke="#000" points="13.5 -56.5 13.5 -75.5 114.5 -75.5 114.5 -56.5 13.5 -56.5"/><text x="64" y="-63.5" fill="#000" font-family="Helvetica,sans-Serif" font-size="10" text-anchor="middle">INESimpleFunction</text></a></g></g><g id="edge1" class="edge"><title>Node1-&gt;Node0</title><path fill="none" stroke="#191970" d="M64,-46.1575C64,-37.155 64,-26.9199 64,-19.6427"/><polygon fill="#191970" stroke="#191970" points="60.5 -46.245 64 -56.245 67.5 -46.246 60.5 -46.245"/></g><g id="node3" class="node"><title>Node2</title><g id="a_node3"><a target="_top" xlink:href="classarm__compute_1_1_i_function.xhtml" xlink:title="Base class for all functions."><polygon fill="#fff" stroke="#000" points="35.5 -112.5 35.5 -131.5 92.5 -131.5 92.5 -112.5 35.5 -112.5"/><text x="64" y="-119.5" fill="#000" font-family="Helvetica,sans-Serif" font-size="10" text-anchor="middle">IFunction</text></a></g></g><g id="edge2" class="edge"><title>Node2-&gt;Node1</title><path fill="none" stroke="#191970" d="M64,-102.1575C64,-93.155 64,-82.9199 64,-75.6427"/><polygon fill="#191970" stroke="#191970" points="60.5 -102.246 64 -112.246 67.5 -102.246 60.5 -102.246"/></g></g></svg>