<svg xmlns="http://www.w3.org/2000/svg" xmlns:xlink="http://www.w3.org/1999/xlink" width="196" height="151pt" viewBox="0 0 147 151"><g id="graph0" class="graph" transform="scale(1 1) rotate(0) translate(4 147)"><title>CLBatchNormalizationLayerKernel</title><polygon fill="#fff" stroke="transparent" points="-4 4 -4 -147 143 -147 143 4 -4 4"/><g id="node1" class="node"><title>Node0</title><polygon fill="#bfbfbf" stroke="#000" points="0 -.5 0 -30.5 139 -30.5 139 -.5 0 -.5"/><text x="8" y="-18.5" fill="#000" font-family="Helvetica,sans-Serif" font-size="10" text-anchor="start">CLBatchNormalizationLayer</text><text x="69.5" y="-7.5" fill="#000" font-family="Helvetica,sans-Serif" font-size="10" text-anchor="middle">Kernel</text></g><g id="node2" class="node"><title>Node1</title><g id="a_node2"><a target="_top" xlink:href="classarm__compute_1_1_i_c_l_kernel.xhtml" xlink:title="Common interface for all the OpenCL kernels."><polygon fill="#fff" stroke="#000" points="39.5 -67.5 39.5 -86.5 99.5 -86.5 99.5 -67.5 39.5 -67.5"/><text x="69.5" y="-74.5" fill="#000" font-family="Helvetica,sans-Serif" font-size="10" text-anchor="middle">ICLKernel</text></a></g></g><g id="edge1" class="edge"><title>Node1-&gt;Node0</title><path fill="none" stroke="#191970" d="M69.5,-57.3693C69.5,-48.681 69.5,-38.6241 69.5,-30.5446"/><polygon fill="#191970" stroke="#191970" points="66 -57.391 69.5 -67.391 73 -57.391 66 -57.391"/></g><g id="node3" class="node"><title>Node2</title><g id="a_node3"><a target="_top" xlink:href="classarm__compute_1_1_i_kernel.xhtml" xlink:title="Common information for all the kernels."><polygon fill="#fff" stroke="#000" points="46 -123.5 46 -142.5 93 -142.5 93 -123.5 46 -123.5"/><text x="69.5" y="-130.5" fill="#000" font-family="Helvetica,sans-Serif" font-size="10" text-anchor="middle">IKernel</text></a></g></g><g id="edge2" class="edge"><title>Node2-&gt;Node1</title><path fill="none" stroke="#191970" d="M69.5,-113.1575C69.5,-104.155 69.5,-93.9199 69.5,-86.6427"/><polygon fill="#191970" stroke="#191970" points="66 -113.246 69.5 -123.246 73 -113.246 66 -113.246"/></g></g></svg>