<svg xmlns="http://www.w3.org/2000/svg" xmlns:xlink="http://www.w3.org/1999/xlink" width="175pt" height="151pt" viewBox="0 0 175 151"><g id="graph0" class="graph" transform="scale(1 1) rotate(0) translate(4 147)"><title>CPPDetectionWindowNonMaximaSuppressionKernel</title><polygon fill="#fff" stroke="transparent" points="-4 4 -4 -147 171 -147 171 4 -4 4"/><g id="node1" class="node"><title>Node0</title><polygon fill="#bfbfbf" stroke="#000" points="0 -.5 0 -30.5 167 -30.5 167 -.5 0 -.5"/><text x="8" y="-18.5" fill="#000" font-family="Helvetica,sans-Serif" font-size="10" text-anchor="start">CPPDetectionWindowNonMaxima</text><text x="83.5" y="-7.5" fill="#000" font-family="Helvetica,sans-Serif" font-size="10" text-anchor="middle">SuppressionKernel</text></g><g id="node2" class="node"><title>Node1</title><g id="a_node2"><a target="_top" xlink:href="classarm__compute_1_1_i_c_p_p_kernel.xhtml" xlink:title="Common interface for all kernels implemented in C++."><polygon fill="#fff" stroke="#000" points="49.5 -67.5 49.5 -86.5 117.5 -86.5 117.5 -67.5 49.5 -67.5"/><text x="83.5" y="-74.5" fill="#000" font-family="Helvetica,sans-Serif" font-size="10" text-anchor="middle">ICPPKernel</text></a></g></g><g id="edge1" class="edge"><title>Node1-&gt;Node0</title><path fill="none" stroke="#191970" d="M83.5,-57.3693C83.5,-48.681 83.5,-38.6241 83.5,-30.5446"/><polygon fill="#191970" stroke="#191970" points="80 -57.391 83.5 -67.391 87 -57.391 80 -57.391"/></g><g id="node3" class="node"><title>Node2</title><g id="a_node3"><a target="_top" xlink:href="classarm__compute_1_1_i_kernel.xhtml" xlink:title="Common information for all the kernels."><polygon fill="#fff" stroke="#000" points="60 -123.5 60 -142.5 107 -142.5 107 -123.5 60 -123.5"/><text x="83.5" y="-130.5" fill="#000" font-family="Helvetica,sans-Serif" font-size="10" text-anchor="middle">IKernel</text></a></g></g><g id="edge2" class="edge"><title>Node2-&gt;Node1</title><path fill="none" stroke="#191970" d="M83.5,-113.1575C83.5,-104.155 83.5,-93.9199 83.5,-86.6427"/><polygon fill="#191970" stroke="#191970" points="80 -113.246 83.5 -123.246 87 -113.246 80 -113.246"/></g></g></svg>