<svg xmlns="http://www.w3.org/2000/svg" xmlns:xlink="http://www.w3.org/1999/xlink" width="121pt" height="276" viewBox="0 0 121 207"><g id="graph0" class="graph" transform="scale(1 1) rotate(0) translate(4 203)"><title>NEHarrisScoreKernel&lt; block_size &gt;</title><polygon fill="#fff" stroke="transparent" points="-4 4 -4 -203 117 -203 117 4 -4 4"/><g id="node1" class="node"><title>Node0</title><polygon fill="#bfbfbf" stroke="#000" points="1.5 -.5 1.5 -30.5 111.5 -30.5 111.5 -.5 1.5 -.5"/><text x="9.5" y="-18.5" fill="#000" font-family="Helvetica,sans-Serif" font-size="10" text-anchor="start">NEHarrisScoreKernel</text><text x="56.5" y="-7.5" fill="#000" font-family="Helvetica,sans-Serif" font-size="10" text-anchor="middle">&lt; block_size &gt;</text></g><g id="node2" class="node"><title>Node1</title><g id="a_node2"><a target="_top" xlink:href="classarm__compute_1_1_i_n_e_harris_score_kernel.xhtml" xlink:title="Common interface for all Harris Score kernels."><polygon fill="#fff" stroke="#000" points="0 -67.5 0 -86.5 113 -86.5 113 -67.5 0 -67.5"/><text x="56.5" y="-74.5" fill="#000" font-family="Helvetica,sans-Serif" font-size="10" text-anchor="middle">INEHarrisScoreKernel</text></a></g></g><g id="edge1" class="edge"><title>Node1-&gt;Node0</title><path fill="none" stroke="#191970" d="M56.5,-57.3693C56.5,-48.681 56.5,-38.6241 56.5,-30.5446"/><polygon fill="#191970" stroke="#191970" points="53 -57.391 56.5 -67.391 60 -57.391 53 -57.391"/></g><g id="node3" class="node"><title>Node2</title><g id="a_node3"><a target="_top" xlink:href="classarm__compute_1_1_i_c_p_p_kernel.xhtml" xlink:title="Common interface for all kernels implemented in C++."><polygon fill="#fff" stroke="#000" points="25.5 -123.5 25.5 -142.5 87.5 -142.5 87.5 -123.5 25.5 -123.5"/><text x="56.5" y="-130.5" fill="#000" font-family="Helvetica,sans-Serif" font-size="10" text-anchor="middle">INEKernel</text></a></g></g><g id="edge2" class="edge"><title>Node2-&gt;Node1</title><path fill="none" stroke="#191970" d="M56.5,-113.1575C56.5,-104.155 56.5,-93.9199 56.5,-86.6427"/><polygon fill="#191970" stroke="#191970" points="53 -113.246 56.5 -123.246 60 -113.246 53 -113.246"/></g><g id="node4" class="node"><title>Node3</title><g id="a_node4"><a target="_top" xlink:href="classarm__compute_1_1_i_kernel.xhtml" xlink:title="Common information for all the kernels."><polygon fill="#fff" stroke="#000" points="33 -179.5 33 -198.5 80 -198.5 80 -179.5 33 -179.5"/><text x="56.5" y="-186.5" fill="#000" font-family="Helvetica,sans-Serif" font-size="10" text-anchor="middle">IKernel</text></a></g></g><g id="edge3" class="edge"><title>Node3-&gt;Node2</title><path fill="none" stroke="#191970" d="M56.5,-169.1575C56.5,-160.155 56.5,-149.9199 56.5,-142.6427"/><polygon fill="#191970" stroke="#191970" points="53 -169.245 56.5 -179.245 60 -169.246 53 -169.245"/></g></g></svg>