<svg xmlns="http://www.w3.org/2000/svg" xmlns:xlink="http://www.w3.org/1999/xlink" width="178pt" height="140pt" viewBox="0 0 178 140"><g id="graph0" class="graph" transform="scale(1 1) rotate(0) translate(4 136)"><title>CLEdgeNonMaxSuppressionKernel</title><polygon fill="#fff" stroke="transparent" points="-4 4 -4 -136 174 -136 174 4 -4 4"/><g id="node1" class="node"><title>Node0</title><polygon fill="#bfbfbf" stroke="#000" points="0 -.5 0 -19.5 170 -19.5 170 -.5 0 -.5"/><text x="85" y="-7.5" fill="#000" font-family="Helvetica,sans-Serif" font-size="10" text-anchor="middle">CLEdgeNonMaxSuppressionKernel</text></g><g id="node2" class="node"><title>Node1</title><g id="a_node2"><a target="_top" xlink:href="classarm__compute_1_1_i_c_l_kernel.xhtml" xlink:title="Common interface for all the OpenCL kernels."><polygon fill="#fff" stroke="#000" points="55 -56.5 55 -75.5 115 -75.5 115 -56.5 55 -56.5"/><text x="85" y="-63.5" fill="#000" font-family="Helvetica,sans-Serif" font-size="10" text-anchor="middle">ICLKernel</text></a></g></g><g id="edge1" class="edge"><title>Node1-&gt;Node0</title><path fill="none" stroke="#191970" d="M85,-46.1575C85,-37.155 85,-26.9199 85,-19.6427"/><polygon fill="#191970" stroke="#191970" points="81.5 -46.245 85 -56.245 88.5 -46.246 81.5 -46.245"/></g><g id="node3" class="node"><title>Node2</title><g id="a_node3"><a target="_top" xlink:href="classarm__compute_1_1_i_kernel.xhtml" xlink:title="Common information for all the kernels."><polygon fill="#fff" stroke="#000" points="61.5 -112.5 61.5 -131.5 108.5 -131.5 108.5 -112.5 61.5 -112.5"/><text x="85" y="-119.5" fill="#000" font-family="Helvetica,sans-Serif" font-size="10" text-anchor="middle">IKernel</text></a></g></g><g id="edge2" class="edge"><title>Node2-&gt;Node1</title><path fill="none" stroke="#191970" d="M85,-102.1575C85,-93.155 85,-82.9199 85,-75.6427"/><polygon fill="#191970" stroke="#191970" points="81.5 -102.246 85 -112.246 88.5 -102.246 81.5 -102.246"/></g></g></svg>