<svg xmlns="http://www.w3.org/2000/svg" xmlns:xlink="http://www.w3.org/1999/xlink" width="164pt" height="336" viewBox="0 0 164 252"><g id="graph0" class="graph" transform="scale(1 1) rotate(0) translate(4 248)"><title>GCGEMMTranspose1xWKernel</title><polygon fill="#fff" stroke="transparent" points="-4 4 -4 -248 160 -248 160 4 -4 4"/><g id="node1" class="node"><title>Node0</title><polygon fill="#bfbfbf" stroke="#000" points="0 -.5 0 -19.5 156 -19.5 156 -.5 0 -.5"/><text x="78" y="-7.5" fill="#000" font-family="Helvetica,sans-Serif" font-size="10" text-anchor="middle">GCGEMMTranspose1xWKernel</text></g><g id="node2" class="node"><title>Node1</title><g id="a_node2"><a target="_top" xlink:href="classarm__compute_1_1_i_g_c_simple2_d_kernel.xhtml" xlink:title="Interface for simple OpenGL ES kernels having 1 tensor input and 1 tensor output. ..."><polygon fill="#fff" stroke="#000" points="25.5 -56.5 25.5 -75.5 130.5 -75.5 130.5 -56.5 25.5 -56.5"/><text x="78" y="-63.5" fill="#000" font-family="Helvetica,sans-Serif" font-size="10" text-anchor="middle">IGCSimple2DKernel</text></a></g></g><g id="edge1" class="edge"><title>Node1-&gt;Node0</title><path fill="none" stroke="#191970" d="M78,-46.1575C78,-37.155 78,-26.9199 78,-19.6427"/><polygon fill="#191970" stroke="#191970" points="74.5 -46.245 78 -56.245 81.5 -46.246 74.5 -46.245"/></g><g id="node3" class="node"><title>Node2</title><g id="a_node3"><a target="_top" xlink:href="classarm__compute_1_1_i_g_c_simple_kernel.xhtml" xlink:title="Interface for simple OpenGL ES kernels having 1 tensor input and 1 tensor output. ..."><polygon fill="#fff" stroke="#000" points="32 -112.5 32 -131.5 124 -131.5 124 -112.5 32 -112.5"/><text x="78" y="-119.5" fill="#000" font-family="Helvetica,sans-Serif" font-size="10" text-anchor="middle">IGCSimpleKernel</text></a></g></g><g id="edge2" class="edge"><title>Node2-&gt;Node1</title><path fill="none" stroke="#191970" d="M78,-102.1575C78,-93.155 78,-82.9199 78,-75.6427"/><polygon fill="#191970" stroke="#191970" points="74.5 -102.246 78 -112.246 81.5 -102.246 74.5 -102.246"/></g><g id="node4" class="node"><title>Node3</title><g id="a_node4"><a target="_top" xlink:href="classarm__compute_1_1_i_g_c_kernel.xhtml" xlink:title="Common interface for all the GLES kernels."><polygon fill="#fff" stroke="#000" points="47 -168.5 47 -187.5 109 -187.5 109 -168.5 47 -168.5"/><text x="78" y="-175.5" fill="#000" font-family="Helvetica,sans-Serif" font-size="10" text-anchor="middle">IGCKernel</text></a></g></g><g id="edge3" class="edge"><title>Node3-&gt;Node2</title><path fill="none" stroke="#191970" d="M78,-158.1575C78,-149.155 78,-138.9199 78,-131.6427"/><polygon fill="#191970" stroke="#191970" points="74.5 -158.245 78 -168.245 81.5 -158.246 74.5 -158.245"/></g><g id="node5" class="node"><title>Node4</title><g id="a_node5"><a target="_top" xlink:href="classarm__compute_1_1_i_kernel.xhtml" xlink:title="Common information for all the kernels."><polygon fill="#fff" stroke="#000" points="54.5 -224.5 54.5 -243.5 101.5 -243.5 101.5 -224.5 54.5 -224.5"/><text x="78" y="-231.5" fill="#000" font-family="Helvetica,sans-Serif" font-size="10" text-anchor="middle">IKernel</text></a></g></g><g id="edge4" class="edge"><title>Node4-&gt;Node3</title><path fill="none" stroke="#191970" d="M78,-214.1575C78,-205.155 78,-194.9199 78,-187.6427"/><polygon fill="#191970" stroke="#191970" points="74.5 -214.245 78 -224.245 81.5 -214.246 74.5 -214.245"/></g></g></svg>