<svg xmlns="http://www.w3.org/2000/svg" xmlns:xlink="http://www.w3.org/1999/xlink" width="200" height="336" viewBox="0 0 150 252"><g id="graph0" class="graph" transform="scale(1 1) rotate(0) translate(4 248)"><title>CLDepthConvertLayerKernel</title><polygon fill="#fff" stroke="transparent" points="-4 4 -4 -248 146 -248 146 4 -4 4"/><g id="node1" class="node"><title>Node0</title><polygon fill="#bfbfbf" stroke="#000" points="0 -.5 0 -19.5 142 -19.5 142 -.5 0 -.5"/><text x="71" y="-7.5" fill="#000" font-family="Helvetica,sans-Serif" font-size="10" text-anchor="middle">CLDepthConvertLayerKernel</text></g><g id="node2" class="node"><title>Node1</title><g id="a_node2"><a target="_top" xlink:href="classarm__compute_1_1_i_c_l_simple2_d_kernel.xhtml" xlink:title="Interface for simple OpenCL kernels having 1 tensor input and 1 tensor output."><polygon fill="#fff" stroke="#000" points="19.5 -56.5 19.5 -75.5 122.5 -75.5 122.5 -56.5 19.5 -56.5"/><text x="71" y="-63.5" fill="#000" font-family="Helvetica,sans-Serif" font-size="10" text-anchor="middle">ICLSimple2DKernel</text></a></g></g><g id="edge1" class="edge"><title>Node1-&gt;Node0</title><path fill="none" stroke="#191970" d="M71,-46.1575C71,-37.155 71,-26.9199 71,-19.6427"/><polygon fill="#191970" stroke="#191970" points="67.5 -46.245 71 -56.245 74.5 -46.246 67.5 -46.245"/></g><g id="node3" class="node"><title>Node2</title><g id="a_node3"><a target="_top" xlink:href="classarm__compute_1_1_i_c_l_simple_kernel.xhtml" xlink:title="Interface for simple OpenCL kernels having 1 tensor input and 1 tensor output."><polygon fill="#fff" stroke="#000" points="26 -112.5 26 -131.5 116 -131.5 116 -112.5 26 -112.5"/><text x="71" y="-119.5" fill="#000" font-family="Helvetica,sans-Serif" font-size="10" text-anchor="middle">ICLSimpleKernel</text></a></g></g><g id="edge2" class="edge"><title>Node2-&gt;Node1</title><path fill="none" stroke="#191970" d="M71,-102.1575C71,-93.155 71,-82.9199 71,-75.6427"/><polygon fill="#191970" stroke="#191970" points="67.5 -102.246 71 -112.246 74.5 -102.246 67.5 -102.246"/></g><g id="node4" class="node"><title>Node3</title><g id="a_node4"><a target="_top" xlink:href="classarm__compute_1_1_i_c_l_kernel.xhtml" xlink:title="Common interface for all the OpenCL kernels."><polygon fill="#fff" stroke="#000" points="41 -168.5 41 -187.5 101 -187.5 101 -168.5 41 -168.5"/><text x="71" y="-175.5" fill="#000" font-family="Helvetica,sans-Serif" font-size="10" text-anchor="middle">ICLKernel</text></a></g></g><g id="edge3" class="edge"><title>Node3-&gt;Node2</title><path fill="none" stroke="#191970" d="M71,-158.1575C71,-149.155 71,-138.9199 71,-131.6427"/><polygon fill="#191970" stroke="#191970" points="67.5 -158.245 71 -168.245 74.5 -158.246 67.5 -158.245"/></g><g id="node5" class="node"><title>Node4</title><g id="a_node5"><a target="_top" xlink:href="classarm__compute_1_1_i_kernel.xhtml" xlink:title="Common information for all the kernels."><polygon fill="#fff" stroke="#000" points="47.5 -224.5 47.5 -243.5 94.5 -243.5 94.5 -224.5 47.5 -224.5"/><text x="71" y="-231.5" fill="#000" font-family="Helvetica,sans-Serif" font-size="10" text-anchor="middle">IKernel</text></a></g></g><g id="edge4" class="edge"><title>Node4-&gt;Node3</title><path fill="none" stroke="#191970" d="M71,-214.1575C71,-205.155 71,-194.9199 71,-187.6427"/><polygon fill="#191970" stroke="#191970" points="67.5 -214.245 71 -224.245 74.5 -214.246 67.5 -214.245"/></g></g></svg>