<svg xmlns="http://www.w3.org/2000/svg" xmlns:xlink="http://www.w3.org/1999/xlink" width="157pt" height="232" viewBox="0 0 157 174"><g id="graph0" class="graph" transform="scale(1 1) rotate(0) translate(4 170)"><title>CLGEMMMatrixMultiplyKernel</title><polygon fill="#fff" stroke="transparent" points="-4 4 -4 -170 153 -170 153 4 -4 4"/><g id="node1" class="node"><title>Node0</title><polygon fill="#bfbfbf" stroke="#000" points="0 -.5 0 -19.5 149 -19.5 149 -.5 0 -.5"/><text x="74.5" y="-7.5" fill="#000" font-family="Helvetica,sans-Serif" font-size="10" text-anchor="middle">CLGEMMMatrixMultiplyKernel</text></g><g id="node2" class="node"><title>Node1</title><g id="a_node2"><a target="_top" xlink:href="classarm__compute_1_1_i_c_l_kernel.xhtml" xlink:title="Common interface for all the OpenCL kernels."><polygon fill="#fff" stroke="#000" points="5.5 -89.5 5.5 -108.5 65.5 -108.5 65.5 -89.5 5.5 -89.5"/><text x="35.5" y="-96.5" fill="#000" font-family="Helvetica,sans-Serif" font-size="10" text-anchor="middle">ICLKernel</text></a></g></g><g id="edge1" class="edge"><title>Node1-&gt;Node0</title><path fill="none" stroke="#191970" d="M43.7056,-80.2744C51.8092,-61.7815 63.8843,-34.2255 70.2381,-19.7259"/><polygon fill="#191970" stroke="#191970" points="40.482 -78.911 39.674 -89.475 46.893 -81.721 40.482 -78.911"/></g><g id="node3" class="node"><title>Node2</title><g id="a_node3"><a target="_top" xlink:href="classarm__compute_1_1_i_kernel.xhtml" xlink:title="Common information for all the kernels."><polygon fill="#fff" stroke="#000" points="12 -146.5 12 -165.5 59 -165.5 59 -146.5 12 -146.5"/><text x="35.5" y="-153.5" fill="#000" font-family="Helvetica,sans-Serif" font-size="10" text-anchor="middle">IKernel</text></a></g></g><g id="edge2" class="edge"><title>Node2-&gt;Node1</title><path fill="none" stroke="#191970" d="M35.5,-136.2342C35.5,-126.8491 35.5,-116.0651 35.5,-108.5265"/><polygon fill="#191970" stroke="#191970" points="32 -136.331 35.5 -146.331 39 -136.331 32 -136.331"/></g><g id="node4" class="node"><title>Node3</title><g id="a_node4"><a target="_top" xlink:href="classarm__compute_1_1_i_c_l_tensor.xhtml" xlink:title="Interface for OpenCL tensor."><polygon fill="#fff" stroke="#000" points="83.5 -89.5 83.5 -108.5 145.5 -108.5 145.5 -89.5 83.5 -89.5"/><text x="114.5" y="-96.5" fill="#000" font-family="Helvetica,sans-Serif" font-size="10" text-anchor="middle">ICLTensor</text></a></g></g><g id="edge3" class="edge"><title>Node3-&gt;Node0</title><path fill="none" stroke="#9a32cd" stroke-dasharray="5 2" d="M106.084,-80.2744C97.7726,-61.7815 85.3879,-34.2255 78.8712,-19.7259"/><polygon fill="#9a32cd" stroke="#9a32cd" points="102.927 -81.789 110.219 -89.475 109.312 -78.919 102.927 -81.789"/><text x="120.5" y="-63" fill="#000" font-family="Helvetica,sans-Serif" font-size="10" text-anchor="middle">_output</text><text x="120.5" y="-52" fill="#000" font-family="Helvetica,sans-Serif" font-size="10" text-anchor="middle">_input0</text><text x="120.5" y="-41" fill="#000" font-family="Helvetica,sans-Serif" font-size="10" text-anchor="middle">_input1</text></g><g id="node5" class="node"><title>Node4</title><g id="a_node5"><a target="_top" xlink:href="classarm__compute_1_1_i_tensor.xhtml" xlink:title="Interface for NEON tensor."><polygon fill="#fff" stroke="#000" points="89.5 -146.5 89.5 -165.5 139.5 -165.5 139.5 -146.5 89.5 -146.5"/><text x="114.5" y="-153.5" fill="#000" font-family="Helvetica,sans-Serif" font-size="10" text-anchor="middle">ITensor</text></a></g></g><g id="edge4" class="edge"><title>Node4-&gt;Node3</title><path fill="none" stroke="#191970" d="M114.5,-136.2342C114.5,-126.8491 114.5,-116.0651 114.5,-108.5265"/><polygon fill="#191970" stroke="#191970" points="111 -136.331 114.5 -146.331 118 -136.331 111 -136.331"/></g></g></svg>