<svg xmlns="http://www.w3.org/2000/svg" xmlns:xlink="http://www.w3.org/1999/xlink" width="224" height="151pt" viewBox="0 0 168 151"><g id="graph0" class="graph" transform="scale(1 1) rotate(0) translate(4 147)"><title>CLDeconvolutionLayerUpsampleKernel</title><polygon fill="#fff" stroke="transparent" points="-4 4 -4 -147 164 -147 164 4 -4 4"/><g id="node1" class="node"><title>Node0</title><polygon fill="#bfbfbf" stroke="#000" points="0 -.5 0 -30.5 160 -30.5 160 -.5 0 -.5"/><text x="8" y="-18.5" fill="#000" font-family="Helvetica,sans-Serif" font-size="10" text-anchor="start">CLDeconvolutionLayerUpsample</text><text x="80" y="-7.5" fill="#000" font-family="Helvetica,sans-Serif" font-size="10" text-anchor="middle">Kernel</text></g><g id="node2" class="node"><title>Node1</title><g id="a_node2"><a target="_top" xlink:href="classarm__compute_1_1_i_c_l_kernel.xhtml" xlink:title="Common interface for all the OpenCL kernels."><polygon fill="#fff" stroke="#000" points="50 -67.5 50 -86.5 110 -86.5 110 -67.5 50 -67.5"/><text x="80" y="-74.5" fill="#000" font-family="Helvetica,sans-Serif" font-size="10" text-anchor="middle">ICLKernel</text></a></g></g><g id="edge1" class="edge"><title>Node1-&gt;Node0</title><path fill="none" stroke="#191970" d="M80,-57.3693C80,-48.681 80,-38.6241 80,-30.5446"/><polygon fill="#191970" stroke="#191970" points="76.5 -57.391 80 -67.391 83.5 -57.391 76.5 -57.391"/></g><g id="node3" class="node"><title>Node2</title><g id="a_node3"><a target="_top" xlink:href="classarm__compute_1_1_i_kernel.xhtml" xlink:title="Common information for all the kernels."><polygon fill="#fff" stroke="#000" points="56.5 -123.5 56.5 -142.5 103.5 -142.5 103.5 -123.5 56.5 -123.5"/><text x="80" y="-130.5" fill="#000" font-family="Helvetica,sans-Serif" font-size="10" text-anchor="middle">IKernel</text></a></g></g><g id="edge2" class="edge"><title>Node2-&gt;Node1</title><path fill="none" stroke="#191970" d="M80,-113.1575C80,-104.155 80,-93.9199 80,-86.6427"/><polygon fill="#191970" stroke="#191970" points="76.5 -113.246 80 -123.246 83.5 -113.246 76.5 -113.246"/></g></g></svg>