<svg xmlns="http://www.w3.org/2000/svg" xmlns:xlink="http://www.w3.org/1999/xlink" width="113pt" height="336" viewBox="0 0 113 252"><g id="graph0" class="graph" transform="scale(1 1) rotate(0) translate(4 248)"><title>GCTransposeKernel</title><polygon fill="#fff" stroke="transparent" points="-4 4 -4 -248 109 -248 109 4 -4 4"/><g id="node1" class="node"><title>Node0</title><polygon fill="#bfbfbf" stroke="#000" points="0 -.5 0 -19.5 105 -19.5 105 -.5 0 -.5"/><text x="52.5" y="-7.5" fill="#000" font-family="Helvetica,sans-Serif" font-size="10" text-anchor="middle">GCTransposeKernel</text></g><g id="node2" class="node"><title>Node1</title><g id="a_node2"><a target="_top" xlink:href="classarm__compute_1_1_i_g_c_simple2_d_kernel.xhtml" xlink:title="Interface for simple OpenGL ES kernels having 1 tensor input and 1 tensor output. ..."><polygon fill="#fff" stroke="#000" points="0 -56.5 0 -75.5 105 -75.5 105 -56.5 0 -56.5"/><text x="52.5" y="-63.5" fill="#000" font-family="Helvetica,sans-Serif" font-size="10" text-anchor="middle">IGCSimple2DKernel</text></a></g></g><g id="edge1" class="edge"><title>Node1-&gt;Node0</title><path fill="none" stroke="#191970" d="M52.5,-46.1575C52.5,-37.155 52.5,-26.9199 52.5,-19.6427"/><polygon fill="#191970" stroke="#191970" points="49 -46.245 52.5 -56.245 56 -46.246 49 -46.245"/></g><g id="node3" class="node"><title>Node2</title><g id="a_node3"><a target="_top" xlink:href="classarm__compute_1_1_i_g_c_simple_kernel.xhtml" xlink:title="Interface for simple OpenGL ES kernels having 1 tensor input and 1 tensor output. ..."><polygon fill="#fff" stroke="#000" points="6.5 -112.5 6.5 -131.5 98.5 -131.5 98.5 -112.5 6.5 -112.5"/><text x="52.5" y="-119.5" fill="#000" font-family="Helvetica,sans-Serif" font-size="10" text-anchor="middle">IGCSimpleKernel</text></a></g></g><g id="edge2" class="edge"><title>Node2-&gt;Node1</title><path fill="none" stroke="#191970" d="M52.5,-102.1575C52.5,-93.155 52.5,-82.9199 52.5,-75.6427"/><polygon fill="#191970" stroke="#191970" points="49 -102.246 52.5 -112.246 56 -102.246 49 -102.246"/></g><g id="node4" class="node"><title>Node3</title><g id="a_node4"><a target="_top" xlink:href="classarm__compute_1_1_i_g_c_kernel.xhtml" xlink:title="Common interface for all the GLES kernels."><polygon fill="#fff" stroke="#000" points="21.5 -168.5 21.5 -187.5 83.5 -187.5 83.5 -168.5 21.5 -168.5"/><text x="52.5" y="-175.5" fill="#000" font-family="Helvetica,sans-Serif" font-size="10" text-anchor="middle">IGCKernel</text></a></g></g><g id="edge3" class="edge"><title>Node3-&gt;Node2</title><path fill="none" stroke="#191970" d="M52.5,-158.1575C52.5,-149.155 52.5,-138.9199 52.5,-131.6427"/><polygon fill="#191970" stroke="#191970" points="49 -158.245 52.5 -168.245 56 -158.246 49 -158.245"/></g><g id="node5" class="node"><title>Node4</title><g id="a_node5"><a target="_top" xlink:href="classarm__compute_1_1_i_kernel.xhtml" xlink:title="Common information for all the kernels."><polygon fill="#fff" stroke="#000" points="29 -224.5 29 -243.5 76 -243.5 76 -224.5 29 -224.5"/><text x="52.5" y="-231.5" fill="#000" font-family="Helvetica,sans-Serif" font-size="10" text-anchor="middle">IKernel</text></a></g></g><g id="edge4" class="edge"><title>Node4-&gt;Node3</title><path fill="none" stroke="#191970" d="M52.5,-214.1575C52.5,-205.155 52.5,-194.9199 52.5,-187.6427"/><polygon fill="#191970" stroke="#191970" points="49 -214.245 52.5 -224.245 56 -214.246 49 -214.245"/></g></g></svg>