<svg xmlns="http://www.w3.org/2000/svg" xmlns:xlink="http://www.w3.org/1999/xlink" width="212" height="276" viewBox="0 0 159 207"><g id="graph0" class="graph" transform="scale(1 1) rotate(0) translate(4 203)"><title>NEGEMMMatrixVectorMultiplyKernel</title><polygon fill="#fff" stroke="transparent" points="-4 4 -4 -203 155 -203 155 4 -4 4"/><g id="node1" class="node"><title>Node0</title><polygon fill="#bfbfbf" stroke="#000" points="0 -.5 0 -30.5 151 -30.5 151 -.5 0 -.5"/><text x="8" y="-18.5" fill="#000" font-family="Helvetica,sans-Serif" font-size="10" text-anchor="start">NEGEMMMatrixVectorMultiply</text><text x="75.5" y="-7.5" fill="#000" font-family="Helvetica,sans-Serif" font-size="10" text-anchor="middle">Kernel</text></g><g id="node2" class="node"><title>Node1</title><g id="a_node2"><a target="_top" xlink:href="classarm__compute_1_1_i_c_p_p_simple_kernel.xhtml" xlink:title="Interface for simple C++ kernels having 1 tensor input and 1 tensor output."><polygon fill="#fff" stroke="#000" points="29.5 -67.5 29.5 -86.5 121.5 -86.5 121.5 -67.5 29.5 -67.5"/><text x="75.5" y="-74.5" fill="#000" font-family="Helvetica,sans-Serif" font-size="10" text-anchor="middle">INESimpleKernel</text></a></g></g><g id="edge1" class="edge"><title>Node1-&gt;Node0</title><path fill="none" stroke="#191970" d="M75.5,-57.3693C75.5,-48.681 75.5,-38.6241 75.5,-30.5446"/><polygon fill="#191970" stroke="#191970" points="72 -57.391 75.5 -67.391 79 -57.391 72 -57.391"/></g><g id="node3" class="node"><title>Node2</title><g id="a_node3"><a target="_top" xlink:href="classarm__compute_1_1_i_c_p_p_kernel.xhtml" xlink:title="Common interface for all kernels implemented in C++."><polygon fill="#fff" stroke="#000" points="41.5 -123.5 41.5 -142.5 109.5 -142.5 109.5 -123.5 41.5 -123.5"/><text x="75.5" y="-130.5" fill="#000" font-family="Helvetica,sans-Serif" font-size="10" text-anchor="middle">ICPPKernel</text></a></g></g><g id="edge2" class="edge"><title>Node2-&gt;Node1</title><path fill="none" stroke="#191970" d="M75.5,-113.1575C75.5,-104.155 75.5,-93.9199 75.5,-86.6427"/><polygon fill="#191970" stroke="#191970" points="72 -113.246 75.5 -123.246 79 -113.246 72 -113.246"/></g><g id="node4" class="node"><title>Node3</title><g id="a_node4"><a target="_top" xlink:href="classarm__compute_1_1_i_kernel.xhtml" xlink:title="Common information for all the kernels."><polygon fill="#fff" stroke="#000" points="52 -179.5 52 -198.5 99 -198.5 99 -179.5 52 -179.5"/><text x="75.5" y="-186.5" fill="#000" font-family="Helvetica,sans-Serif" font-size="10" text-anchor="middle">IKernel</text></a></g></g><g id="edge3" class="edge"><title>Node3-&gt;Node2</title><path fill="none" stroke="#191970" d="M75.5,-169.1575C75.5,-160.155 75.5,-149.9199 75.5,-142.6427"/><polygon fill="#191970" stroke="#191970" points="72 -169.245 75.5 -179.245 79 -169.246 72 -169.245"/></g></g></svg>