<svg xmlns="http://www.w3.org/2000/svg" xmlns:xlink="http://www.w3.org/1999/xlink" width="148pt" height="163pt" viewBox="0 0 148 163"><g id="graph0" class="graph" transform="scale(1 1) rotate(0) translate(4 159)"><title>CLFlattenLayerKernel</title><polygon fill="#fff" stroke="transparent" points="-4 4 -4 -159 144 -159 144 4 -4 4"/><g id="node1" class="node"><title>Node0</title><polygon fill="#bfbfbf" stroke="#000" points="13.5 -.5 13.5 -19.5 124.5 -19.5 124.5 -.5 13.5 -.5"/><text x="69" y="-7.5" fill="#000" font-family="Helvetica,sans-Serif" font-size="10" text-anchor="middle">CLFlattenLayerKernel</text></g><g id="node2" class="node"><title>Node1</title><g id="a_node2"><a target="_top" xlink:href="classarm__compute_1_1_i_c_l_kernel.xhtml" xlink:title="Common interface for all the OpenCL kernels."><polygon fill="#fff" stroke="#000" points="0 -78.5 0 -97.5 60 -97.5 60 -78.5 0 -78.5"/><text x="30" y="-85.5" fill="#000" font-family="Helvetica,sans-Serif" font-size="10" text-anchor="middle">ICLKernel</text></a></g></g><g id="edge1" class="edge"><title>Node1-&gt;Node0</title><path fill="none" stroke="#191970" d="M39.407,-69.186C47.2206,-53.5589 58.0189,-31.9623 64.1787,-19.6426"/><polygon fill="#191970" stroke="#191970" points="36.124 -67.926 34.782 -78.436 42.385 -71.057 36.124 -67.926"/></g><g id="node3" class="node"><title>Node2</title><g id="a_node3"><a target="_top" xlink:href="classarm__compute_1_1_i_kernel.xhtml" xlink:title="Common information for all the kernels."><polygon fill="#fff" stroke="#000" points="6.5 -135.5 6.5 -154.5 53.5 -154.5 53.5 -135.5 6.5 -135.5"/><text x="30" y="-142.5" fill="#000" font-family="Helvetica,sans-Serif" font-size="10" text-anchor="middle">IKernel</text></a></g></g><g id="edge2" class="edge"><title>Node2-&gt;Node1</title><path fill="none" stroke="#191970" d="M30,-125.2342C30,-115.8491 30,-105.0651 30,-97.5265"/><polygon fill="#191970" stroke="#191970" points="26.5 -125.331 30 -135.331 33.5 -125.331 26.5 -125.331"/></g><g id="node4" class="node"><title>Node3</title><g id="a_node4"><a target="_top" xlink:href="classarm__compute_1_1_i_c_l_tensor.xhtml" xlink:title="Interface for OpenCL tensor."><polygon fill="#fff" stroke="#000" points="78 -78.5 78 -97.5 140 -97.5 140 -78.5 78 -78.5"/><text x="109" y="-85.5" fill="#000" font-family="Helvetica,sans-Serif" font-size="10" text-anchor="middle">ICLTensor</text></a></g></g><g id="edge3" class="edge"><title>Node3-&gt;Node0</title><path fill="none" stroke="#9a32cd" stroke-dasharray="5 2" d="M99.3518,-69.186C91.3379,-53.5589 80.2627,-31.9623 73.9449,-19.6426"/><polygon fill="#9a32cd" stroke="#9a32cd" points="96.418 -71.135 104.095 -78.436 102.646 -67.94 96.418 -71.135"/><text x="112" y="-52" fill="#000" font-family="Helvetica,sans-Serif" font-size="10" text-anchor="middle">_output</text><text x="112" y="-41" fill="#000" font-family="Helvetica,sans-Serif" font-size="10" text-anchor="middle">_input</text></g><g id="node5" class="node"><title>Node4</title><g id="a_node5"><a target="_top" xlink:href="classarm__compute_1_1_i_tensor.xhtml" xlink:title="Interface for NEON tensor."><polygon fill="#fff" stroke="#000" points="84 -135.5 84 -154.5 134 -154.5 134 -135.5 84 -135.5"/><text x="109" y="-142.5" fill="#000" font-family="Helvetica,sans-Serif" font-size="10" text-anchor="middle">ITensor</text></a></g></g><g id="edge4" class="edge"><title>Node4-&gt;Node3</title><path fill="none" stroke="#191970" d="M109,-125.2342C109,-115.8491 109,-105.0651 109,-97.5265"/><polygon fill="#191970" stroke="#191970" points="105.5 -125.331 109 -135.331 112.5 -125.331 105.5 -125.331"/></g></g></svg>