<svg xmlns="http://www.w3.org/2000/svg" xmlns:xlink="http://www.w3.org/1999/xlink" width="148" height="196pt" viewBox="0 0 111 196"><g id="graph0" class="graph" transform="scale(1 1) rotate(0) translate(4 192)"><title>ICLSimple2DKernel</title><polygon fill="#fff" stroke="transparent" points="-4 4 -4 -192 107 -192 107 4 -4 4"/><g id="node1" class="node"><title>Node0</title><polygon fill="#bfbfbf" stroke="#000" points="0 -.5 0 -19.5 103 -19.5 103 -.5 0 -.5"/><text x="51.5" y="-7.5" fill="#000" font-family="Helvetica,sans-Serif" font-size="10" text-anchor="middle">ICLSimple2DKernel</text></g><g id="node2" class="node"><title>Node1</title><g id="a_node2"><a target="_top" xlink:href="classarm__compute_1_1_i_c_l_simple_kernel.xhtml" xlink:title="Interface for simple OpenCL kernels having 1 tensor input and 1 tensor output."><polygon fill="#fff" stroke="#000" points="6.5 -56.5 6.5 -75.5 96.5 -75.5 96.5 -56.5 6.5 -56.5"/><text x="51.5" y="-63.5" fill="#000" font-family="Helvetica,sans-Serif" font-size="10" text-anchor="middle">ICLSimpleKernel</text></a></g></g><g id="edge1" class="edge"><title>Node1-&gt;Node0</title><path fill="none" stroke="#191970" d="M51.5,-46.1575C51.5,-37.155 51.5,-26.9199 51.5,-19.6427"/><polygon fill="#191970" stroke="#191970" points="48 -46.245 51.5 -56.245 55 -46.246 48 -46.245"/></g><g id="node3" class="node"><title>Node2</title><g id="a_node3"><a target="_top" xlink:href="classarm__compute_1_1_i_c_l_kernel.xhtml" xlink:title="Common interface for all the OpenCL kernels."><polygon fill="#fff" stroke="#000" points="21.5 -112.5 21.5 -131.5 81.5 -131.5 81.5 -112.5 21.5 -112.5"/><text x="51.5" y="-119.5" fill="#000" font-family="Helvetica,sans-Serif" font-size="10" text-anchor="middle">ICLKernel</text></a></g></g><g id="edge2" class="edge"><title>Node2-&gt;Node1</title><path fill="none" stroke="#191970" d="M51.5,-102.1575C51.5,-93.155 51.5,-82.9199 51.5,-75.6427"/><polygon fill="#191970" stroke="#191970" points="48 -102.246 51.5 -112.246 55 -102.246 48 -102.246"/></g><g id="node4" class="node"><title>Node3</title><g id="a_node4"><a target="_top" xlink:href="classarm__compute_1_1_i_kernel.xhtml" xlink:title="Common information for all the kernels."><polygon fill="#fff" stroke="#000" points="28 -168.5 28 -187.5 75 -187.5 75 -168.5 28 -168.5"/><text x="51.5" y="-175.5" fill="#000" font-family="Helvetica,sans-Serif" font-size="10" text-anchor="middle">IKernel</text></a></g></g><g id="edge3" class="edge"><title>Node3-&gt;Node2</title><path fill="none" stroke="#191970" d="M51.5,-158.1575C51.5,-149.155 51.5,-138.9199 51.5,-131.6427"/><polygon fill="#191970" stroke="#191970" points="48 -158.245 51.5 -168.245 55 -158.246 48 -158.245"/></g></g></svg>