<svg xmlns="http://www.w3.org/2000/svg" xmlns:xlink="http://www.w3.org/1999/xlink" width="110pt" height="140pt" viewBox="0 0 110 140"><g id="graph0" class="graph" transform="scale(1 1) rotate(0) translate(4 136)"><title>GCScale</title><polygon fill="#fff" stroke="transparent" points="-4 4 -4 -136 106 -136 106 4 -4 4"/><g id="node1" class="node"><title>Node0</title><polygon fill="#bfbfbf" stroke="#000" points="23 -.5 23 -19.5 79 -19.5 79 -.5 23 -.5"/><text x="51" y="-7.5" fill="#000" font-family="Helvetica,sans-Serif" font-size="10" text-anchor="middle">GCScale</text></g><g id="node2" class="node"><title>Node1</title><g id="a_node2"><a target="_top" xlink:href="classarm__compute_1_1_i_g_c_simple_function.xhtml" xlink:title="Basic interface for functions which have a single OpenGL ES kernel."><polygon fill="#fff" stroke="#000" points="0 -56.5 0 -75.5 102 -75.5 102 -56.5 0 -56.5"/><text x="51" y="-63.5" fill="#000" font-family="Helvetica,sans-Serif" font-size="10" text-anchor="middle">IGCSimpleFunction</text></a></g></g><g id="edge1" class="edge"><title>Node1-&gt;Node0</title><path fill="none" stroke="#191970" d="M51,-46.1575C51,-37.155 51,-26.9199 51,-19.6427"/><polygon fill="#191970" stroke="#191970" points="47.5 -46.245 51 -56.245 54.5 -46.246 47.5 -46.245"/></g><g id="node3" class="node"><title>Node2</title><g id="a_node3"><a target="_top" xlink:href="classarm__compute_1_1_i_function.xhtml" xlink:title="Base class for all functions."><polygon fill="#fff" stroke="#000" points="22.5 -112.5 22.5 -131.5 79.5 -131.5 79.5 -112.5 22.5 -112.5"/><text x="51" y="-119.5" fill="#000" font-family="Helvetica,sans-Serif" font-size="10" text-anchor="middle">IFunction</text></a></g></g><g id="edge2" class="edge"><title>Node2-&gt;Node1</title><path fill="none" stroke="#191970" d="M51,-102.1575C51,-93.155 51,-82.9199 51,-75.6427"/><polygon fill="#191970" stroke="#191970" points="47.5 -102.246 51 -112.246 54.5 -102.246 47.5 -102.246"/></g></g></svg>