<svg xmlns="http://www.w3.org/2000/svg" xmlns:xlink="http://www.w3.org/1999/xlink" width="179pt" height="151pt" viewBox="0 0 179 151"><g id="graph0" class="graph" transform="scale(1 1) rotate(0) translate(4 147)"><title>NEGEMMLowpQuantizeDownInt32ToUint8ScaleByFixedPointKernel</title><polygon fill="#fff" stroke="transparent" points="-4 4 -4 -147 175 -147 175 4 -4 4"/><g id="node1" class="node"><title>Node0</title><polygon fill="#bfbfbf" stroke="#000" points="0 -.5 0 -30.5 171 -30.5 171 -.5 0 -.5"/><text x="8" y="-18.5" fill="#000" font-family="Helvetica,sans-Serif" font-size="10" text-anchor="start">NEGEMMLowpQuantizeDownInt32</text><text x="85.5" y="-7.5" fill="#000" font-family="Helvetica,sans-Serif" font-size="10" text-anchor="middle">ToUint8ScaleByFixedPointKernel</text></g><g id="node2" class="node"><title>Node1</title><g id="a_node2"><a target="_top" xlink:href="classarm__compute_1_1_i_c_p_p_kernel.xhtml" xlink:title="Common interface for all kernels implemented in C++."><polygon fill="#fff" stroke="#000" points="54.5 -67.5 54.5 -86.5 116.5 -86.5 116.5 -67.5 54.5 -67.5"/><text x="85.5" y="-74.5" fill="#000" font-family="Helvetica,sans-Serif" font-size="10" text-anchor="middle">INEKernel</text></a></g></g><g id="edge1" class="edge"><title>Node1-&gt;Node0</title><path fill="none" stroke="#191970" d="M85.5,-57.3693C85.5,-48.681 85.5,-38.6241 85.5,-30.5446"/><polygon fill="#191970" stroke="#191970" points="82 -57.391 85.5 -67.391 89 -57.391 82 -57.391"/></g><g id="node3" class="node"><title>Node2</title><g id="a_node3"><a target="_top" xlink:href="classarm__compute_1_1_i_kernel.xhtml" xlink:title="Common information for all the kernels."><polygon fill="#fff" stroke="#000" points="62 -123.5 62 -142.5 109 -142.5 109 -123.5 62 -123.5"/><text x="85.5" y="-130.5" fill="#000" font-family="Helvetica,sans-Serif" font-size="10" text-anchor="middle">IKernel</text></a></g></g><g id="edge2" class="edge"><title>Node2-&gt;Node1</title><path fill="none" stroke="#191970" d="M85.5,-113.1575C85.5,-104.155 85.5,-93.9199 85.5,-86.6427"/><polygon fill="#191970" stroke="#191970" points="82 -113.246 85.5 -123.246 89 -113.246 82 -113.246"/></g></g></svg>