<svg xmlns="http://www.w3.org/2000/svg" xmlns:xlink="http://www.w3.org/1999/xlink" width="145pt" height="209pt" viewBox="0 0 144.5 209"><g id="graph0" class="graph" transform="scale(1 1) rotate(0) translate(4 205)"><title>TensorInfo</title><polygon fill="#fff" stroke="transparent" points="-4 4 -4 -205 140.5 -205 140.5 4 -4 4"/><g id="node1" class="node"><title>Node0</title><polygon fill="#bfbfbf" stroke="#000" points="34 -.5 34 -19.5 97 -19.5 97 -.5 34 -.5"/><text x="65.5" y="-7.5" fill="#000" font-family="Helvetica,sans-Serif" font-size="10" text-anchor="middle">TensorInfo</text></g><g id="node2" class="node"><title>Node1</title><g id="a_node2"><a target="_top" xlink:href="classarm__compute_1_1_i_tensor_info.xhtml" xlink:title="Store the tensor's metadata."><polygon fill="#fff" stroke="#000" points="32.5 -57.5 32.5 -76.5 98.5 -76.5 98.5 -57.5 32.5 -57.5"/><text x="65.5" y="-64.5" fill="#000" font-family="Helvetica,sans-Serif" font-size="10" text-anchor="middle">ITensorInfo</text></a></g></g><g id="edge1" class="edge"><title>Node1-&gt;Node0</title><path fill="none" stroke="#191970" d="M65.5,-47.2342C65.5,-37.8491 65.5,-27.0651 65.5,-19.5265"/><polygon fill="#191970" stroke="#191970" points="62 -47.331 65.5 -57.331 69 -47.331 62 -47.331"/></g><g id="node3" class="node"><title>Node2</title><g id="a_node3"><a target="_top" xlink:href="classarm__compute_1_1misc_1_1_i_cloneable.xhtml" xlink:title="ICloneable\&lt; ITensorInfo \&gt;"><polygon fill="#fff" stroke="#000" points="0 -114.5 0 -133.5 131 -133.5 131 -114.5 0 -114.5"/><text x="65.5" y="-121.5" fill="#000" font-family="Helvetica,sans-Serif" font-size="10" text-anchor="middle">ICloneable&lt; ITensorInfo &gt;</text></a></g></g><g id="edge2" class="edge"><title>Node2-&gt;Node1</title><path fill="none" stroke="#191970" d="M65.5,-104.2342C65.5,-94.8491 65.5,-84.0651 65.5,-76.5265"/><polygon fill="#191970" stroke="#191970" points="62 -104.331 65.5 -114.331 69 -104.331 62 -104.331"/></g><g id="node4" class="node"><title>Node3</title><g id="a_node4"><a target="_top" xlink:href="classarm__compute_1_1misc_1_1_i_cloneable.xhtml" xlink:title="Clonable Interface."><polygon fill="#fff" stroke="#000" points="22 -181.5 22 -200.5 109 -200.5 109 -181.5 22 -181.5"/><text x="65.5" y="-188.5" fill="#000" font-family="Helvetica,sans-Serif" font-size="10" text-anchor="middle">ICloneable&lt; T &gt;</text></a></g></g><g id="edge3" class="edge"><title>Node3-&gt;Node2</title><path fill="none" stroke="orange" stroke-dasharray="5 2" d="M65.5,-171.1079C65.5,-158.714 65.5,-143.3263 65.5,-133.5817"/><polygon fill="orange" stroke="orange" points="62 -171.4 65.5 -181.4 69 -171.401 62 -171.4"/><text x="101" y="-155" fill="#000" font-family="Helvetica,sans-Serif" font-size="10" text-anchor="middle">&lt; ITensorInfo &gt;</text></g></g></svg>