<svg xmlns="http://www.w3.org/2000/svg" xmlns:xlink="http://www.w3.org/1999/xlink" width="140pt" height="140pt" viewBox="0 0 140 140"><g id="graph0" class="graph" transform="scale(1 1) rotate(0) translate(4 136)"><title>CLWeightsReshapeKernel</title><polygon fill="#fff" stroke="transparent" points="-4 4 -4 -136 136 -136 136 4 -4 4"/><g id="node1" class="node"><title>Node0</title><polygon fill="#bfbfbf" stroke="#000" points="0 -.5 0 -19.5 132 -19.5 132 -.5 0 -.5"/><text x="66" y="-7.5" fill="#000" font-family="Helvetica,sans-Serif" font-size="10" text-anchor="middle">CLWeightsReshapeKernel</text></g><g id="node2" class="node"><title>Node1</title><g id="a_node2"><a target="_top" xlink:href="classarm__compute_1_1_i_c_l_kernel.xhtml" xlink:title="Common interface for all the OpenCL kernels."><polygon fill="#fff" stroke="#000" points="36 -56.5 36 -75.5 96 -75.5 96 -56.5 36 -56.5"/><text x="66" y="-63.5" fill="#000" font-family="Helvetica,sans-Serif" font-size="10" text-anchor="middle">ICLKernel</text></a></g></g><g id="edge1" class="edge"><title>Node1-&gt;Node0</title><path fill="none" stroke="#191970" d="M66,-46.1575C66,-37.155 66,-26.9199 66,-19.6427"/><polygon fill="#191970" stroke="#191970" points="62.5 -46.245 66 -56.245 69.5 -46.246 62.5 -46.245"/></g><g id="node3" class="node"><title>Node2</title><g id="a_node3"><a target="_top" xlink:href="classarm__compute_1_1_i_kernel.xhtml" xlink:title="Common information for all the kernels."><polygon fill="#fff" stroke="#000" points="42.5 -112.5 42.5 -131.5 89.5 -131.5 89.5 -112.5 42.5 -112.5"/><text x="66" y="-119.5" fill="#000" font-family="Helvetica,sans-Serif" font-size="10" text-anchor="middle">IKernel</text></a></g></g><g id="edge2" class="edge"><title>Node2-&gt;Node1</title><path fill="none" stroke="#191970" d="M66,-102.1575C66,-93.155 66,-82.9199 66,-75.6427"/><polygon fill="#191970" stroke="#191970" points="62.5 -102.246 66 -112.246 69.5 -102.246 62.5 -102.246"/></g></g></svg>