<svg xmlns="http://www.w3.org/2000/svg" xmlns:xlink="http://www.w3.org/1999/xlink" width="122pt" height="196pt" viewBox="0 0 122 196"><g id="graph0" class="graph" transform="scale(1 1) rotate(0) translate(4 192)"><title>NETableLookupKernel</title><polygon fill="#fff" stroke="transparent" points="-4 4 -4 -192 118 -192 118 4 -4 4"/><g id="node1" class="node"><title>Node0</title><polygon fill="#bfbfbf" stroke="#000" points="0 -.5 0 -19.5 114 -19.5 114 -.5 0 -.5"/><text x="57" y="-7.5" fill="#000" font-family="Helvetica,sans-Serif" font-size="10" text-anchor="middle">NETableLookupKernel</text></g><g id="node2" class="node"><title>Node1</title><g id="a_node2"><a target="_top" xlink:href="classarm__compute_1_1_i_c_p_p_simple_kernel.xhtml" xlink:title="Interface for simple C++ kernels having 1 tensor input and 1 tensor output."><polygon fill="#fff" stroke="#000" points="11 -56.5 11 -75.5 103 -75.5 103 -56.5 11 -56.5"/><text x="57" y="-63.5" fill="#000" font-family="Helvetica,sans-Serif" font-size="10" text-anchor="middle">INESimpleKernel</text></a></g></g><g id="edge1" class="edge"><title>Node1-&gt;Node0</title><path fill="none" stroke="#191970" d="M57,-46.1575C57,-37.155 57,-26.9199 57,-19.6427"/><polygon fill="#191970" stroke="#191970" points="53.5 -46.245 57 -56.245 60.5 -46.246 53.5 -46.245"/></g><g id="node3" class="node"><title>Node2</title><g id="a_node3"><a target="_top" xlink:href="classarm__compute_1_1_i_c_p_p_kernel.xhtml" xlink:title="Common interface for all kernels implemented in C++."><polygon fill="#fff" stroke="#000" points="23 -112.5 23 -131.5 91 -131.5 91 -112.5 23 -112.5"/><text x="57" y="-119.5" fill="#000" font-family="Helvetica,sans-Serif" font-size="10" text-anchor="middle">ICPPKernel</text></a></g></g><g id="edge2" class="edge"><title>Node2-&gt;Node1</title><path fill="none" stroke="#191970" d="M57,-102.1575C57,-93.155 57,-82.9199 57,-75.6427"/><polygon fill="#191970" stroke="#191970" points="53.5 -102.246 57 -112.246 60.5 -102.246 53.5 -102.246"/></g><g id="node4" class="node"><title>Node3</title><g id="a_node4"><a target="_top" xlink:href="classarm__compute_1_1_i_kernel.xhtml" xlink:title="Common information for all the kernels."><polygon fill="#fff" stroke="#000" points="33.5 -168.5 33.5 -187.5 80.5 -187.5 80.5 -168.5 33.5 -168.5"/><text x="57" y="-175.5" fill="#000" font-family="Helvetica,sans-Serif" font-size="10" text-anchor="middle">IKernel</text></a></g></g><g id="edge3" class="edge"><title>Node3-&gt;Node2</title><path fill="none" stroke="#191970" d="M57,-158.1575C57,-149.155 57,-138.9199 57,-131.6427"/><polygon fill="#191970" stroke="#191970" points="53.5 -158.245 57 -168.245 60.5 -158.246 53.5 -158.245"/></g></g></svg>