<svg xmlns="http://www.w3.org/2000/svg" xmlns:xlink="http://www.w3.org/1999/xlink" width="176" height="140pt" viewBox="0 0 132 140"><g id="graph0" class="graph" transform="scale(1 1) rotate(0) translate(4 136)"><title>GCBufferMemoryRegion</title><polygon fill="#fff" stroke="transparent" points="-4 4 -4 -136 128 -136 128 4 -4 4"/><g id="node1" class="node"><title>Node0</title><polygon fill="#bfbfbf" stroke="#000" points="0 -.5 0 -19.5 124 -19.5 124 -.5 0 -.5"/><text x="62" y="-7.5" fill="#000" font-family="Helvetica,sans-Serif" font-size="10" text-anchor="middle">GCBufferMemoryRegion</text></g><g id="node2" class="node"><title>Node1</title><g id="a_node2"><a target="_top" xlink:href="classarm__compute_1_1_i_g_c_memory_region.xhtml" xlink:title="GLES memory region interface."><polygon fill="#fff" stroke="#000" points="11.5 -56.5 11.5 -75.5 112.5 -75.5 112.5 -56.5 11.5 -56.5"/><text x="62" y="-63.5" fill="#000" font-family="Helvetica,sans-Serif" font-size="10" text-anchor="middle">IGCMemoryRegion</text></a></g></g><g id="edge1" class="edge"><title>Node1-&gt;Node0</title><path fill="none" stroke="#191970" d="M62,-46.1575C62,-37.155 62,-26.9199 62,-19.6427"/><polygon fill="#191970" stroke="#191970" points="58.5 -46.245 62 -56.245 65.5 -46.246 58.5 -46.245"/></g><g id="node3" class="node"><title>Node2</title><g id="a_node3"><a target="_top" xlink:href="classarm__compute_1_1_i_memory_region.xhtml" xlink:title="Memory region interface."><polygon fill="#fff" stroke="#000" points="19 -112.5 19 -131.5 105 -131.5 105 -112.5 19 -112.5"/><text x="62" y="-119.5" fill="#000" font-family="Helvetica,sans-Serif" font-size="10" text-anchor="middle">IMemoryRegion</text></a></g></g><g id="edge2" class="edge"><title>Node2-&gt;Node1</title><path fill="none" stroke="#191970" d="M62,-102.1575C62,-93.155 62,-82.9199 62,-75.6427"/><polygon fill="#191970" stroke="#191970" points="58.5 -102.246 62 -112.246 65.5 -102.246 58.5 -102.246"/></g></g></svg>