<svg xmlns="http://www.w3.org/2000/svg" xmlns:xlink="http://www.w3.org/1999/xlink" width="118pt" height="276" viewBox="0 0 118 207"><g id="graph0" class="graph" transform="scale(1 1) rotate(0) translate(4 203)"><title>NEConvolutionKernel&lt; matrix_size &gt;</title><polygon fill="#fff" stroke="transparent" points="-4 4 -4 -203 114 -203 114 4 -4 4"/><g id="node1" class="node"><title>Node0</title><polygon fill="#bfbfbf" stroke="#000" points="0 -.5 0 -30.5 110 -30.5 110 -.5 0 -.5"/><text x="8" y="-18.5" fill="#000" font-family="Helvetica,sans-Serif" font-size="10" text-anchor="start">NEConvolutionKernel</text><text x="55" y="-7.5" fill="#000" font-family="Helvetica,sans-Serif" font-size="10" text-anchor="middle">&lt; matrix_size &gt;</text></g><g id="node2" class="node"><title>Node1</title><g id="a_node2"><a target="_top" xlink:href="classarm__compute_1_1_i_c_p_p_simple_kernel.xhtml" xlink:title="Interface for simple C++ kernels having 1 tensor input and 1 tensor output."><polygon fill="#fff" stroke="#000" points="9 -67.5 9 -86.5 101 -86.5 101 -67.5 9 -67.5"/><text x="55" y="-74.5" fill="#000" font-family="Helvetica,sans-Serif" font-size="10" text-anchor="middle">INESimpleKernel</text></a></g></g><g id="edge1" class="edge"><title>Node1-&gt;Node0</title><path fill="none" stroke="#191970" d="M55,-57.3693C55,-48.681 55,-38.6241 55,-30.5446"/><polygon fill="#191970" stroke="#191970" points="51.5 -57.391 55 -67.391 58.5 -57.391 51.5 -57.391"/></g><g id="node3" class="node"><title>Node2</title><g id="a_node3"><a target="_top" xlink:href="classarm__compute_1_1_i_c_p_p_kernel.xhtml" xlink:title="Common interface for all kernels implemented in C++."><polygon fill="#fff" stroke="#000" points="21 -123.5 21 -142.5 89 -142.5 89 -123.5 21 -123.5"/><text x="55" y="-130.5" fill="#000" font-family="Helvetica,sans-Serif" font-size="10" text-anchor="middle">ICPPKernel</text></a></g></g><g id="edge2" class="edge"><title>Node2-&gt;Node1</title><path fill="none" stroke="#191970" d="M55,-113.1575C55,-104.155 55,-93.9199 55,-86.6427"/><polygon fill="#191970" stroke="#191970" points="51.5 -113.246 55 -123.246 58.5 -113.246 51.5 -113.246"/></g><g id="node4" class="node"><title>Node3</title><g id="a_node4"><a target="_top" xlink:href="classarm__compute_1_1_i_kernel.xhtml" xlink:title="Common information for all the kernels."><polygon fill="#fff" stroke="#000" points="31.5 -179.5 31.5 -198.5 78.5 -198.5 78.5 -179.5 31.5 -179.5"/><text x="55" y="-186.5" fill="#000" font-family="Helvetica,sans-Serif" font-size="10" text-anchor="middle">IKernel</text></a></g></g><g id="edge3" class="edge"><title>Node3-&gt;Node2</title><path fill="none" stroke="#191970" d="M55,-169.1575C55,-160.155 55,-149.9199 55,-142.6427"/><polygon fill="#191970" stroke="#191970" points="51.5 -169.245 55 -179.245 58.5 -169.246 51.5 -169.245"/></g></g></svg>