<svg xmlns="http://www.w3.org/2000/svg" xmlns:xlink="http://www.w3.org/1999/xlink" width="152pt" height="276" viewBox="0 0 152 207"><g id="graph0" class="graph" transform="scale(1 1) rotate(0) translate(4 203)"><title>NESeparableConvolutionVertKernel&lt; matrix_size &gt;</title><polygon fill="#fff" stroke="transparent" points="-4 4 -4 -203 148 -203 148 4 -4 4"/><g id="node1" class="node"><title>Node0</title><polygon fill="#bfbfbf" stroke="#000" points="0 -.5 0 -30.5 144 -30.5 144 -.5 0 -.5"/><text x="8" y="-18.5" fill="#000" font-family="Helvetica,sans-Serif" font-size="10" text-anchor="start">NESeparableConvolutionVert</text><text x="72" y="-7.5" fill="#000" font-family="Helvetica,sans-Serif" font-size="10" text-anchor="middle">Kernel&lt; matrix_size &gt;</text></g><g id="node2" class="node"><title>Node1</title><g id="a_node2"><a target="_top" xlink:href="classarm__compute_1_1_i_c_p_p_simple_kernel.xhtml" xlink:title="Interface for simple C++ kernels having 1 tensor input and 1 tensor output."><polygon fill="#fff" stroke="#000" points="26 -67.5 26 -86.5 118 -86.5 118 -67.5 26 -67.5"/><text x="72" y="-74.5" fill="#000" font-family="Helvetica,sans-Serif" font-size="10" text-anchor="middle">INESimpleKernel</text></a></g></g><g id="edge1" class="edge"><title>Node1-&gt;Node0</title><path fill="none" stroke="#191970" d="M72,-57.3693C72,-48.681 72,-38.6241 72,-30.5446"/><polygon fill="#191970" stroke="#191970" points="68.5 -57.391 72 -67.391 75.5 -57.391 68.5 -57.391"/></g><g id="node3" class="node"><title>Node2</title><g id="a_node3"><a target="_top" xlink:href="classarm__compute_1_1_i_c_p_p_kernel.xhtml" xlink:title="Common interface for all kernels implemented in C++."><polygon fill="#fff" stroke="#000" points="38 -123.5 38 -142.5 106 -142.5 106 -123.5 38 -123.5"/><text x="72" y="-130.5" fill="#000" font-family="Helvetica,sans-Serif" font-size="10" text-anchor="middle">ICPPKernel</text></a></g></g><g id="edge2" class="edge"><title>Node2-&gt;Node1</title><path fill="none" stroke="#191970" d="M72,-113.1575C72,-104.155 72,-93.9199 72,-86.6427"/><polygon fill="#191970" stroke="#191970" points="68.5 -113.246 72 -123.246 75.5 -113.246 68.5 -113.246"/></g><g id="node4" class="node"><title>Node3</title><g id="a_node4"><a target="_top" xlink:href="classarm__compute_1_1_i_kernel.xhtml" xlink:title="Common information for all the kernels."><polygon fill="#fff" stroke="#000" points="48.5 -179.5 48.5 -198.5 95.5 -198.5 95.5 -179.5 48.5 -179.5"/><text x="72" y="-186.5" fill="#000" font-family="Helvetica,sans-Serif" font-size="10" text-anchor="middle">IKernel</text></a></g></g><g id="edge3" class="edge"><title>Node3-&gt;Node2</title><path fill="none" stroke="#191970" d="M72,-169.1575C72,-160.155 72,-149.9199 72,-142.6427"/><polygon fill="#191970" stroke="#191970" points="68.5 -169.245 72 -179.245 75.5 -169.246 68.5 -169.245"/></g></g></svg>