<svg xmlns="http://www.w3.org/2000/svg" xmlns:xlink="http://www.w3.org/1999/xlink" width="208" height="196pt" viewBox="0 0 156 196"><g id="graph0" class="graph" transform="scale(1 1) rotate(0) translate(4 192)"><title>NEGEMMInterleave4x4Kernel</title><polygon fill="#fff" stroke="transparent" points="-4 4 -4 -192 152 -192 152 4 -4 4"/><g id="node1" class="node"><title>Node0</title><polygon fill="#bfbfbf" stroke="#000" points="0 -.5 0 -19.5 148 -19.5 148 -.5 0 -.5"/><text x="74" y="-7.5" fill="#000" font-family="Helvetica,sans-Serif" font-size="10" text-anchor="middle">NEGEMMInterleave4x4Kernel</text></g><g id="node2" class="node"><title>Node1</title><g id="a_node2"><a target="_top" xlink:href="classarm__compute_1_1_i_c_p_p_simple_kernel.xhtml" xlink:title="Interface for simple C++ kernels having 1 tensor input and 1 tensor output."><polygon fill="#fff" stroke="#000" points="28 -56.5 28 -75.5 120 -75.5 120 -56.5 28 -56.5"/><text x="74" y="-63.5" fill="#000" font-family="Helvetica,sans-Serif" font-size="10" text-anchor="middle">INESimpleKernel</text></a></g></g><g id="edge1" class="edge"><title>Node1-&gt;Node0</title><path fill="none" stroke="#191970" d="M74,-46.1575C74,-37.155 74,-26.9199 74,-19.6427"/><polygon fill="#191970" stroke="#191970" points="70.5 -46.245 74 -56.245 77.5 -46.246 70.5 -46.245"/></g><g id="node3" class="node"><title>Node2</title><g id="a_node3"><a target="_top" xlink:href="classarm__compute_1_1_i_c_p_p_kernel.xhtml" xlink:title="Common interface for all kernels implemented in C++."><polygon fill="#fff" stroke="#000" points="40 -112.5 40 -131.5 108 -131.5 108 -112.5 40 -112.5"/><text x="74" y="-119.5" fill="#000" font-family="Helvetica,sans-Serif" font-size="10" text-anchor="middle">ICPPKernel</text></a></g></g><g id="edge2" class="edge"><title>Node2-&gt;Node1</title><path fill="none" stroke="#191970" d="M74,-102.1575C74,-93.155 74,-82.9199 74,-75.6427"/><polygon fill="#191970" stroke="#191970" points="70.5 -102.246 74 -112.246 77.5 -102.246 70.5 -102.246"/></g><g id="node4" class="node"><title>Node3</title><g id="a_node4"><a target="_top" xlink:href="classarm__compute_1_1_i_kernel.xhtml" xlink:title="Common information for all the kernels."><polygon fill="#fff" stroke="#000" points="50.5 -168.5 50.5 -187.5 97.5 -187.5 97.5 -168.5 50.5 -168.5"/><text x="74" y="-175.5" fill="#000" font-family="Helvetica,sans-Serif" font-size="10" text-anchor="middle">IKernel</text></a></g></g><g id="edge3" class="edge"><title>Node3-&gt;Node2</title><path fill="none" stroke="#191970" d="M74,-158.1575C74,-149.155 74,-138.9199 74,-131.6427"/><polygon fill="#191970" stroke="#191970" points="70.5 -158.245 74 -168.245 77.5 -158.246 70.5 -158.245"/></g></g></svg>