<svg xmlns="http://www.w3.org/2000/svg" xmlns:xlink="http://www.w3.org/1999/xlink" width="110pt" height="151pt" viewBox="0 0 110 151"><g id="graph0" class="graph" transform="scale(1 1) rotate(0) translate(4 147)"><title>src/core/utils/quantization</title><polygon fill="#fff" stroke="transparent" points="-4 4 -4 -147 106 -147 106 4 -4 4"/><g id="clust1" class="cluster"><title>clusterdir_a8053b3d69cfefb2b2e6ec7bf9dd5c1a</title><g id="a_clust1"><a target="_top" xlink:href="dir_a8053b3d69cfefb2b2e6ec7bf9dd5c1a.xhtml" xlink:title="utils"><polygon fill="#dde" stroke="#000" points="8 -64 8 -135 94 -135 94 -64 8 -64"/><text x="51" y="-123" fill="#000" font-family="Helvetica,sans-Serif" font-size="10" text-anchor="middle">utils</text></a></g></g><g id="node1" class="node"><title>dir_dfd177d17fe198b2123c626051c4d924</title><g id="a_node1"><a target="_top" xlink:href="dir_dfd177d17fe198b2123c626051c4d924.xhtml" xlink:title="quantization"><polygon fill="#eef" stroke="#000" points="85.5 -108 16.5 -108 16.5 -72 85.5 -72 85.5 -108"/><text x="51" y="-87.5" fill="#000" font-family="Helvetica,sans-Serif" font-size="10" text-anchor="middle">quantization</text></a></g></g><g id="node2" class="node"><title>dir_214608ef36d61442cb2b0c1c4e9a7def</title><g id="a_node2"><a target="_top" xlink:href="dir_214608ef36d61442cb2b0c1c4e9a7def.xhtml" xlink:title="arm_compute"><polygon fill="#fff" stroke="red" points="89 -36 13 -36 13 0 89 0 89 -36"/><text x="51" y="-15.5" fill="#000" font-family="Helvetica,sans-Serif" font-size="10" text-anchor="middle">arm_compute</text></a></g></g><g id="edge1" class="edge"><title>dir_dfd177d17fe198b2123c626051c4d924-&gt;dir_214608ef36d61442cb2b0c1c4e9a7def</title><path fill="none" stroke="#000" d="M51,-71.8314C51,-64.131 51,-54.9743 51,-46.4166"/><polygon fill="#000" stroke="#000" points="54.5 -46.413 51 -36.413 47.5 -46.413 54.5 -46.413"/><g id="a_edge1-headlabel"><a target="_top" xlink:href="dir_000088_000000.xhtml" xlink:title="1"><text x="57.339" y="-47.508" fill="#000" font-family="Helvetica,sans-Serif" font-size="10" text-anchor="middle">1</text></a></g></g></g></svg>