<svg xmlns="http://www.w3.org/2000/svg" xmlns:xlink="http://www.w3.org/1999/xlink" width="115pt" height="308" viewBox="0 0 115 231"><g id="graph0" class="graph" transform="scale(1 1) rotate(0) translate(4 227)"><title>arm_compute/runtime/CPP</title><polygon fill="#fff" stroke="transparent" points="-4 4 -4 -227 111 -227 111 4 -4 4"/><g id="clust1" class="cluster"><title>clusterdir_8bc26130589aa16388b5a02f17abf2c2</title><g id="a_clust1"><a target="_top" xlink:href="dir_8bc26130589aa16388b5a02f17abf2c2.xhtml" xlink:title="runtime"><polygon fill="#dde" stroke="#000" points="8 -56 8 -215 96 -215 96 -56 8 -56"/><text x="52" y="-203" fill="#000" font-family="Helvetica,sans-Serif" font-size="10" text-anchor="middle">runtime</text></a></g></g><g id="clust2" class="cluster"><title>clusterdir_b496024afd63bafbf4e8da80d7d3a81a</title><g id="a_clust2"><a target="_top" xlink:href="dir_b496024afd63bafbf4e8da80d7d3a81a.xhtml"><polygon fill="#eef" stroke="#000" points="16 -64 16 -188 88 -188 88 -64 16 -64"/></a></g></g><g id="node1" class="node"><title>dir_b496024afd63bafbf4e8da80d7d3a81a</title><text x="52" y="-159.5" fill="#000" font-family="Helvetica,sans-Serif" font-size="10" text-anchor="middle">CPP</text></g><g id="node2" class="node"><title>dir_0f1ff859406f1a8b0006aceabacdc4c4</title><g id="a_node2"><a target="_top" xlink:href="dir_0f1ff859406f1a8b0006aceabacdc4c4.xhtml" xlink:title="functions"><polygon fill="#fff" stroke="#000" points="80 -108 24 -108 24 -72 80 -72 80 -108"/><text x="52" y="-87.5" fill="#000" font-family="Helvetica,sans-Serif" font-size="10" text-anchor="middle">functions</text></a></g></g><g id="edge2" class="edge"><title>dir_b496024afd63bafbf4e8da80d7d3a81a-&gt;dir_0f1ff859406f1a8b0006aceabacdc4c4</title><path fill="none" stroke="#000" d="M52,-143.8314C52,-136.131 52,-126.9743 52,-118.4166"/><polygon fill="#000" stroke="#000" points="55.5 -118.413 52 -108.413 48.5 -118.413 55.5 -118.413"/><g id="a_edge2-headlabel"><a target="_top" xlink:href="dir_000045_000046.xhtml" xlink:title="3"><text x="58.339" y="-119.508" fill="#000" font-family="Helvetica,sans-Serif" font-size="10" text-anchor="middle">3</text></a></g></g><g id="node3" class="node"><title>dir_1fb090f0c6070330bfaccc4236d3ca0d</title><g id="a_node3"><a target="_top" xlink:href="dir_1fb090f0c6070330bfaccc4236d3ca0d.xhtml" xlink:title="core"><polygon fill="#fff" stroke="red" points="107 -36 53 -36 53 0 107 0 107 -36"/><text x="80" y="-15.5" fill="#000" font-family="Helvetica,sans-Serif" font-size="10" text-anchor="middle">core</text></a></g></g><g id="edge1" class="edge"><title>dir_b496024afd63bafbf4e8da80d7d3a81a-&gt;dir_1fb090f0c6070330bfaccc4236d3ca0d</title><path fill="none" stroke="#000" d="M68.4281,-143.989C76.3025,-134.1289 84.898,-121.2441 89,-108 95.2527,-87.8122 92.4435,-63.976 88.3724,-45.9072"/><polygon fill="#000" stroke="#000" points="91.717 -44.854 85.888 -36.006 84.927 -46.557 91.717 -44.854"/><g id="a_edge1-headlabel"><a target="_top" xlink:href="dir_000045_000001.xhtml" xlink:title="4"><text x="95.345" y="-45.15" fill="#000" font-family="Helvetica,sans-Serif" font-size="10" text-anchor="middle">4</text></a></g></g><g id="edge3" class="edge"><title>dir_0f1ff859406f1a8b0006aceabacdc4c4-&gt;dir_1fb090f0c6070330bfaccc4236d3ca0d</title><path fill="none" stroke="#000" d="M59.0656,-71.8314C62.126,-63.9617 65.7779,-54.5712 69.1682,-45.8533"/><polygon fill="#000" stroke="#000" points="72.477 -47.002 72.839 -36.413 65.953 -44.465 72.477 -47.002"/><g id="a_edge3-headlabel"><a target="_top" xlink:href="dir_000046_000001.xhtml" xlink:title="3"><text x="73.82" y="-48.881" fill="#000" font-family="Helvetica,sans-Serif" font-size="10" text-anchor="middle">3</text></a></g></g></g></svg>