<svg xmlns="http://www.w3.org/2000/svg" xmlns:xlink="http://www.w3.org/1999/xlink" width="184" height="151pt" viewBox="0 0 138 151"><g id="graph0" class="graph" transform="scale(1 1) rotate(0) translate(4 147)"><title>tests/GLES_COMPUTE</title><polygon fill="#fff" stroke="transparent" points="-4 4 -4 -147 134 -147 134 4 -4 4"/><g id="clust1" class="cluster"><title>clusterdir_59425e443f801f1f2fd8bbe4959a3ccf</title><g id="a_clust1"><a target="_top" xlink:href="dir_59425e443f801f1f2fd8bbe4959a3ccf.xhtml" xlink:title="tests"><polygon fill="#dde" stroke="#000" points="8 -64 8 -135 122 -135 122 -64 8 -64"/><text x="65" y="-123" fill="#000" font-family="Helvetica,sans-Serif" font-size="10" text-anchor="middle">tests</text></a></g></g><g id="node1" class="node"><title>dir_7365e77196b52ca311bb83f181e59b8c</title><g id="a_node1"><a target="_top" xlink:href="dir_7365e77196b52ca311bb83f181e59b8c.xhtml" xlink:title="GLES_COMPUTE"><polygon fill="#eef" stroke="#000" points="114 -108 16 -108 16 -72 114 -72 114 -108"/><text x="65" y="-87.5" fill="#000" font-family="Helvetica,sans-Serif" font-size="10" text-anchor="middle">GLES_COMPUTE</text></a></g></g><g id="node2" class="node"><title>dir_214608ef36d61442cb2b0c1c4e9a7def</title><g id="a_node2"><a target="_top" xlink:href="dir_214608ef36d61442cb2b0c1c4e9a7def.xhtml" xlink:title="arm_compute"><polygon fill="#fff" stroke="red" points="103 -36 27 -36 27 0 103 0 103 -36"/><text x="65" y="-15.5" fill="#000" font-family="Helvetica,sans-Serif" font-size="10" text-anchor="middle">arm_compute</text></a></g></g><g id="edge1" class="edge"><title>dir_7365e77196b52ca311bb83f181e59b8c-&gt;dir_214608ef36d61442cb2b0c1c4e9a7def</title><path fill="none" stroke="#000" d="M65,-71.8314C65,-64.131 65,-54.9743 65,-46.4166"/><polygon fill="#000" stroke="#000" points="68.5 -46.413 65 -36.413 61.5 -46.413 68.5 -46.413"/><g id="a_edge1-headlabel"><a target="_top" xlink:href="dir_000121_000000.xhtml" xlink:title="3"><text x="71.339" y="-47.508" fill="#000" font-family="Helvetica,sans-Serif" font-size="10" text-anchor="middle">3</text></a></g></g></g></svg>