<svg xmlns="http://www.w3.org/2000/svg" xmlns:xlink="http://www.w3.org/1999/xlink" width="1156" height="500" viewBox="0 0 866.7 375"><g id="graph0" class="graph" transform="scale(1 1) rotate(0) translate(4 371)"><title>tests/validation</title><polygon fill="#fff" stroke="transparent" points="-4 4 -4 -371 862.696 -371 862.696 4 -4 4"/><g id="clust1" class="cluster"><title>clusterdir_59425e443f801f1f2fd8bbe4959a3ccf</title><g id="a_clust1"><a target="_top" xlink:href="dir_59425e443f801f1f2fd8bbe4959a3ccf.xhtml" xlink:title="tests"><polygon fill="#dde" stroke="#000" points="8 -200 8 -359 502 -359 502 -200 8 -200"/><text x="255" y="-347" fill="#000" font-family="Helvetica,sans-Serif" font-size="10" text-anchor="middle">tests</text></a></g></g><g id="clust2" class="cluster"><title>clusterdir_e7c7b16542faa38cb4655ff1750d3604</title><g id="a_clust2"><a target="_top" xlink:href="dir_e7c7b16542faa38cb4655ff1750d3604.xhtml"><polygon fill="#eef" stroke="#000" points="16 -208 16 -332 494 -332 494 -208 16 -208"/></a></g></g><g id="node1" class="node"><title>dir_e7c7b16542faa38cb4655ff1750d3604</title><text x="457" y="-303.5" fill="#000" font-family="Helvetica,sans-Serif" font-size="10" text-anchor="middle">validation</text></g><g id="node2" class="node"><title>dir_f7024513cd67abef53e86ee9382ac5ce</title><g id="a_node2"><a target="_top" xlink:href="dir_f7024513cd67abef53e86ee9382ac5ce.xhtml" xlink:title="CL"><polygon fill="#fff" stroke="red" points="78 -324 24 -324 24 -288 78 -288 78 -324"/><text x="51" y="-303.5" fill="#000" font-family="Helvetica,sans-Serif" font-size="10" text-anchor="middle">CL</text></a></g></g><g id="node6" class="node"><title>dir_46fdb196cebdbffe77dac340cde62f29</title><g id="a_node6"><a target="_top" xlink:href="dir_46fdb196cebdbffe77dac340cde62f29.xhtml" xlink:title="reference"><polygon fill="#fff" stroke="#000" points="288.5 -252 231.5 -252 231.5 -216 288.5 -216 288.5 -252"/><text x="260" y="-231.5" fill="#000" font-family="Helvetica,sans-Serif" font-size="10" text-anchor="middle">reference</text></a></g></g><g id="edge22" class="edge"><title>dir_f7024513cd67abef53e86ee9382ac5ce-&gt;dir_46fdb196cebdbffe77dac340cde62f29</title><path fill="none" stroke="#000" d="M78.3081,-291.7769C81.2134,-290.4352 84.1483,-289.1493 87,-288 132.1539,-269.8024 185.9226,-253.8758 221.3979,-244.1227"/><polygon fill="#000" stroke="#000" points="222.611 -247.42 231.343 -241.419 220.775 -240.665 222.611 -247.42"/><g id="a_edge22-headlabel"><a target="_top" xlink:href="dir_000102_000026.xhtml" xlink:title="2"><text x="219.888" y="-248.603" fill="#000" font-family="Helvetica,sans-Serif" font-size="10" text-anchor="middle">2</text></a></g></g><g id="node8" class="node"><title>dir_cbdb8362360e11eafe2fa3bc74cf0ffd</title><g id="a_node8"><a target="_top" xlink:href="dir_cbdb8362360e11eafe2fa3bc74cf0ffd.xhtml" xlink:title="utils"><polygon fill="#fff" stroke="red" points="471 -180 417 -180 417 -144 471 -144 471 -180"/><text x="444" y="-159.5" fill="#000" font-family="Helvetica,sans-Serif" font-size="10" text-anchor="middle">utils</text></a></g></g><g id="edge23" class="edge"><title>dir_f7024513cd67abef53e86ee9382ac5ce-&gt;dir_cbdb8362360e11eafe2fa3bc74cf0ffd</title><path fill="none" stroke="#000" d="M78.1183,-291.2366C81.0606,-290.0003 84.056,-288.8867 87,-288 213.4721,-249.9089 269.0173,-320.4181 382,-252 388.4685,-248.0829 410.9246,-214.1419 426.9475,-189.0902"/><polygon fill="#000" stroke="#000" points="430.103 -190.651 432.518 -180.335 424.197 -186.893 430.103 -190.651"/><g id="a_edge23-headlabel"><a target="_top" xlink:href="dir_000102_000027.xhtml" xlink:title="4"><text x="430.569" y="-192.708" fill="#000" font-family="Helvetica,sans-Serif" font-size="10" text-anchor="middle">4</text></a></g></g><g id="node10" class="node"><title>dir_9e71e2da941d3cafc4d98a9f6ae3de4f</title><g id="a_node10"><a target="_top" xlink:href="dir_9e71e2da941d3cafc4d98a9f6ae3de4f.xhtml" xlink:title="framework"><polygon fill="#fff" stroke="red" points="726 -252 664 -252 664 -216 726 -216 726 -252"/><text x="695" y="-231.5" fill="#000" font-family="Helvetica,sans-Serif" font-size="10" text-anchor="middle">framework</text></a></g></g><g id="edge24" class="edge"><title>dir_f7024513cd67abef53e86ee9382ac5ce-&gt;dir_9e71e2da941d3cafc4d98a9f6ae3de4f</title><path fill="none" stroke="#000" d="M78.0716,-291.0736C81.023,-289.8691 84.0333,-288.8074 87,-288 314.8113,-225.9964 383.4587,-286.6539 617,-252 629.0147,-250.2172 641.917,-247.5537 653.7004,-244.8187"/><polygon fill="#000" stroke="#000" points="654.809 -248.152 663.717 -242.417 653.177 -241.345 654.809 -248.152"/><g id="a_edge24-headlabel"><a target="_top" xlink:href="dir_000102_000025.xhtml" xlink:title="284"><text x="651.975" y="-249.251" fill="#000" font-family="Helvetica,sans-Serif" font-size="10" text-anchor="middle">284</text></a></g></g><g id="node12" class="node"><title>dir_214608ef36d61442cb2b0c1c4e9a7def</title><g id="a_node12"><a target="_top" xlink:href="dir_214608ef36d61442cb2b0c1c4e9a7def.xhtml" xlink:title="arm_compute"><polygon fill="#fff" stroke="red" points="537 -108 461 -108 461 -72 537 -72 537 -108"/><text x="499" y="-87.5" fill="#000" font-family="Helvetica,sans-Serif" font-size="10" text-anchor="middle">arm_compute</text></a></g></g><g id="edge25" class="edge"><title>dir_f7024513cd67abef53e86ee9382ac5ce-&gt;dir_214608ef36d61442cb2b0c1c4e9a7def</title><path fill="none" stroke="#000" d="M78.15,-291.3388C81.0861,-290.0825 84.0715,-288.9363 87,-288 185.5521,-256.4903 226.8488,-302.7754 317,-252 371.6896,-221.1974 360.1179,-184.5839 408,-144 421.7065,-132.3826 438.2224,-121.7601 453.4004,-113.068"/><polygon fill="#000" stroke="#000" points="455.127 -116.112 462.151 -108.18 451.714 -110.001 455.127 -116.112"/><g id="a_edge25-headlabel"><a target="_top" xlink:href="dir_000102_000000.xhtml" xlink:title="384"><text x="453.374" y="-117.844" fill="#000" font-family="Helvetica,sans-Serif" font-size="10" text-anchor="middle">384</text></a></g></g><g id="node13" class="node"><title>dir_896191444cf08ec8ade6f88256cb2bdd</title><g id="a_node13"><a target="_top" xlink:href="dir_896191444cf08ec8ade6f88256cb2bdd.xhtml" xlink:title="CL"><polygon fill="none" stroke="#000" points="323 -180 269 -180 269 -144 323 -144 323 -180"/><text x="296" y="-159.5" fill="#000" font-family="Helvetica,sans-Serif" font-size="10" text-anchor="middle">CL</text></a></g></g><g id="edge26" class="edge"><title>dir_f7024513cd67abef53e86ee9382ac5ce-&gt;dir_896191444cf08ec8ade6f88256cb2bdd</title><path fill="none" stroke="#000" d="M78.1642,-291.3825C81.0975,-290.1177 84.0783,-288.9576 87,-288 176.9851,-258.5078 235.9591,-324.3955 297,-252 311.1733,-235.1903 309.4637,-209.669 305.0493,-190.0913"/><polygon fill="#000" stroke="#000" points="308.382 -188.998 302.484 -180.197 301.606 -190.755 308.382 -188.998"/><g id="a_edge26-headlabel"><a target="_top" xlink:href="dir_000102_000120.xhtml" xlink:title="120"><text x="312.032" y="-189.265" fill="#000" font-family="Helvetica,sans-Serif" font-size="10" text-anchor="middle">120</text></a></g></g><g id="node14" class="node"><title>dir_5815af820a9cc9481f1d0990a0d60286</title><g id="a_node14"><a target="_top" xlink:href="dir_5815af820a9cc9481f1d0990a0d60286.xhtml" xlink:title="support"><polygon fill="none" stroke="#000" points="295 -36 241 -36 241 0 295 0 295 -36"/><text x="268" y="-15.5" fill="#000" font-family="Helvetica,sans-Serif" font-size="10" text-anchor="middle">support</text></a></g></g><g id="edge27" class="edge"><title>dir_f7024513cd67abef53e86ee9382ac5ce-&gt;dir_5815af820a9cc9481f1d0990a0d60286</title><path fill="none" stroke="#000" d="M56.9496,-287.822C71.5349,-245.5404 112.6408,-139.0949 177,-72 192.3777,-55.9687 213.5315,-43.0339 231.5738,-33.8473"/><polygon fill="#000" stroke="#000" points="233.237 -36.93 240.678 -29.388 230.158 -30.644 233.237 -36.93"/><g id="a_edge27-headlabel"><a target="_top" xlink:href="dir_000102_000119.xhtml" xlink:title="3"><text x="231.257" y="-38.561" fill="#000" font-family="Helvetica,sans-Serif" font-size="10" text-anchor="middle">3</text></a></g></g><g id="node3" class="node"><title>dir_420d2db1b9c99f59825a3985434c3703</title><g id="a_node3"><a target="_top" xlink:href="dir_420d2db1b9c99f59825a3985434c3703.xhtml" xlink:title="CPP"><polygon fill="#fff" stroke="#000" points="410 -324 356 -324 356 -288 410 -288 410 -324"/><text x="383" y="-303.5" fill="#000" font-family="Helvetica,sans-Serif" font-size="10" text-anchor="middle">CPP</text></a></g></g><g id="node9" class="node"><title>dir_445738e6fed662d0b65e690e3f1e1de0</title><g id="a_node9"><a target="_top" xlink:href="dir_445738e6fed662d0b65e690e3f1e1de0.xhtml" xlink:title="NEON"><polygon fill="none" stroke="#000" points="836 -252 782 -252 782 -216 836 -216 836 -252"/><text x="809" y="-231.5" fill="#000" font-family="Helvetica,sans-Serif" font-size="10" text-anchor="middle">NEON</text></a></g></g><g id="edge35" class="edge"><title>dir_420d2db1b9c99f59825a3985434c3703-&gt;dir_445738e6fed662d0b65e690e3f1e1de0</title><path fill="none" stroke="#000" d="M410.1016,-291.1801C413.0471,-289.9548 416.0479,-288.8592 419,-288 568.7219,-244.4247 617.2364,-291.8222 768,-252 769.2683,-251.665 770.5476,-251.2959 771.8309,-250.8988"/><polygon fill="#000" stroke="#000" points="773.389 -254.059 781.631 -247.403 771.037 -247.466 773.389 -254.059"/><g id="a_edge35-headlabel"><a target="_top" xlink:href="dir_000126_000122.xhtml" xlink:title="1"><text x="770.957" y="-255.441" fill="#000" font-family="Helvetica,sans-Serif" font-size="10" text-anchor="middle">1</text></a></g></g><g id="edge36" class="edge"><title>dir_420d2db1b9c99f59825a3985434c3703-&gt;dir_9e71e2da941d3cafc4d98a9f6ae3de4f</title><path fill="none" stroke="#000" d="M410.1494,-291.3368C413.0856,-290.0809 416.0711,-288.9354 419,-288 517.9808,-256.3893 549.791,-279.4699 650,-252 651.4201,-251.6107 652.8564,-251.1905 654.2999,-250.7455"/><polygon fill="#000" stroke="#000" points="655.492 -254.037 663.839 -247.512 653.245 -247.408 655.492 -254.037"/><g id="a_edge36-headlabel"><a target="_top" xlink:href="dir_000126_000025.xhtml" xlink:title="3"><text x="652.999" y="-255.38" fill="#000" font-family="Helvetica,sans-Serif" font-size="10" text-anchor="middle">3</text></a></g></g><g id="edge37" class="edge"><title>dir_420d2db1b9c99f59825a3985434c3703-&gt;dir_214608ef36d61442cb2b0c1c4e9a7def</title><path fill="none" stroke="#000" d="M410.0855,-291.1239C413.0342,-289.9095 416.0401,-288.8319 419,-288 510.4607,-262.2955 780.7126,-321.9493 845,-252 881.3145,-212.4872 838.2693,-169.4089 791,-144 749.6127,-121.7529 619.1162,-103.809 547.3952,-95.3198"/><polygon fill="#000" stroke="#000" points="547.596 -91.82 537.257 -94.136 546.784 -98.772 547.596 -91.82"/><g id="a_edge37-headlabel"><a target="_top" xlink:href="dir_000126_000000.xhtml" xlink:title="4"><text x="551.495" y="-86.916" fill="#000" font-family="Helvetica,sans-Serif" font-size="10" text-anchor="middle">4</text></a></g></g><g id="node4" class="node"><title>dir_fbdf7bf92663091dc4d5520df638c068</title><g id="a_node4"><a target="_top" xlink:href="dir_fbdf7bf92663091dc4d5520df638c068.xhtml" xlink:title="GLES_COMPUTE"><polygon fill="#fff" stroke="red" points="266 -324 168 -324 168 -288 266 -288 266 -324"/><text x="217" y="-303.5" fill="#000" font-family="Helvetica,sans-Serif" font-size="10" text-anchor="middle">GLES_COMPUTE</text></a></g></g><g id="edge4" class="edge"><title>dir_fbdf7bf92663091dc4d5520df638c068-&gt;dir_9e71e2da941d3cafc4d98a9f6ae3de4f</title><path fill="none" stroke="#000" d="M266.183,-289.9829C269.1508,-289.2513 272.1058,-288.5816 275,-288 439.1513,-255.013 487.291,-291.4912 650,-252 651.431,-251.6527 652.8766,-251.2688 654.3281,-250.8548"/><polygon fill="#000" stroke="#000" points="655.465 -254.166 663.902 -247.758 653.311 -247.506 655.465 -254.166"/><g id="a_edge4-headlabel"><a target="_top" xlink:href="dir_000103_000025.xhtml" xlink:title="56"><text x="652.919" y="-255.473" fill="#000" font-family="Helvetica,sans-Serif" font-size="10" text-anchor="middle">56</text></a></g></g><g id="node11" class="node"><title>dir_7365e77196b52ca311bb83f181e59b8c</title><g id="a_node11"><a target="_top" xlink:href="dir_7365e77196b52ca311bb83f181e59b8c.xhtml" xlink:title="GLES_COMPUTE"><polygon fill="none" stroke="#000" points="608 -252 510 -252 510 -216 608 -216 608 -252"/><text x="559" y="-231.5" fill="#000" font-family="Helvetica,sans-Serif" font-size="10" text-anchor="middle">GLES_COMPUTE</text></a></g></g><g id="edge5" class="edge"><title>dir_fbdf7bf92663091dc4d5520df638c068-&gt;dir_7365e77196b52ca311bb83f181e59b8c</title><path fill="none" stroke="#000" d="M266.2311,-290.2038C269.1868,-289.4166 272.126,-288.6744 275,-288 372.7394,-265.0647 400.1027,-274.2514 498,-252 498.6056,-251.8623 499.2141,-251.722 499.825,-251.5793"/><polygon fill="#000" stroke="#000" points="501.009 -254.892 509.868 -249.08 499.318 -248.099 501.009 -254.892"/><g id="a_edge5-headlabel"><a target="_top" xlink:href="dir_000103_000121.xhtml" xlink:title="21"><text x="498.206" y="-256.015" fill="#000" font-family="Helvetica,sans-Serif" font-size="10" text-anchor="middle">21</text></a></g></g><g id="edge6" class="edge"><title>dir_fbdf7bf92663091dc4d5520df638c068-&gt;dir_214608ef36d61442cb2b0c1c4e9a7def</title><path fill="none" stroke="#000" d="M266.1894,-290.0145C269.1556,-289.275 272.1085,-288.5949 275,-288 349.8523,-272.6007 565.8696,-308.7951 617,-252 658.1784,-206.2596 586.1209,-146.3888 537.647,-113.7503"/><polygon fill="#000" stroke="#000" points="539.474 -110.763 529.2 -108.175 535.618 -116.605 539.474 -110.763"/><g id="a_edge6-headlabel"><a target="_top" xlink:href="dir_000103_000000.xhtml" xlink:title="79"><text x="544.038" y="-107.873" fill="#000" font-family="Helvetica,sans-Serif" font-size="10" text-anchor="middle">79</text></a></g></g><g id="edge7" class="edge"><title>dir_fbdf7bf92663091dc4d5520df638c068-&gt;dir_5815af820a9cc9481f1d0990a0d60286</title><path fill="none" stroke="#000" d="M211.4554,-287.7012C208.6035,-277.3353 205.4319,-264.0653 204,-252 194.535,-172.2442 183.4362,-143.5098 220,-72 225.2464,-61.7393 232.9095,-51.8883 240.5788,-43.4744"/><polygon fill="#000" stroke="#000" points="243.172 -45.827 247.555 -36.181 238.113 -40.988 243.172 -45.827"/><g id="a_edge7-headlabel"><a target="_top" xlink:href="dir_000103_000119.xhtml" xlink:title="1"><text x="242.739" y="-47.887" fill="#000" font-family="Helvetica,sans-Serif" font-size="10" text-anchor="middle">1</text></a></g></g><g id="node5" class="node"><title>dir_0538a82dae0483a21d0f1e9d7e0a45c6</title><g id="a_node5"><a target="_top" xlink:href="dir_0538a82dae0483a21d0f1e9d7e0a45c6.xhtml" xlink:title="NEON"><polygon fill="#fff" stroke="red" points="338 -324 284 -324 284 -288 338 -288 338 -324"/><text x="311" y="-303.5" fill="#000" font-family="Helvetica,sans-Serif" font-size="10" text-anchor="middle">NEON</text></a></g></g><g id="edge28" class="edge"><title>dir_0538a82dae0483a21d0f1e9d7e0a45c6-&gt;dir_46fdb196cebdbffe77dac340cde62f29</title><path fill="none" stroke="#000" d="M298.1305,-287.8314C292.3165,-279.6232 285.3304,-269.7606 278.9354,-260.7323"/><polygon fill="#000" stroke="#000" points="281.679 -258.55 273.043 -252.413 275.967 -262.597 281.679 -258.55"/><g id="a_edge28-headlabel"><a target="_top" xlink:href="dir_000104_000026.xhtml" xlink:title="2"><text x="286.074" y="-257.343" fill="#000" font-family="Helvetica,sans-Serif" font-size="10" text-anchor="middle">2</text></a></g></g><g id="edge29" class="edge"><title>dir_0538a82dae0483a21d0f1e9d7e0a45c6-&gt;dir_445738e6fed662d0b65e690e3f1e1de0</title><path fill="none" stroke="#000" d="M338.0863,-291.1269C341.0348,-289.912 344.0405,-288.8333 347,-288 527.7644,-237.1 586.0207,-298.3693 768,-252 769.2712,-251.6761 770.553,-251.3167 771.8384,-250.9278"/><polygon fill="#000" stroke="#000" points="773.38 -254.096 781.649 -247.472 771.054 -247.493 773.38 -254.096"/><g id="a_edge29-headlabel"><a target="_top" xlink:href="dir_000104_000122.xhtml" xlink:title="99"><text x="770.933" y="-255.468" fill="#000" font-family="Helvetica,sans-Serif" font-size="10" text-anchor="middle">99</text></a></g></g><g id="edge30" class="edge"><title>dir_0538a82dae0483a21d0f1e9d7e0a45c6-&gt;dir_9e71e2da941d3cafc4d98a9f6ae3de4f</title><path fill="none" stroke="#000" d="M338.1154,-291.227C341.0583,-289.9925 344.0546,-288.882 347,-288 476.9141,-249.0972 518.5814,-285.4702 650,-252 651.427,-251.6366 652.8691,-251.2387 654.3177,-250.8129"/><polygon fill="#000" stroke="#000" points="655.476 -254.116 663.879 -247.663 653.286 -247.468 655.476 -254.116"/><g id="a_edge30-headlabel"><a target="_top" xlink:href="dir_000104_000025.xhtml" xlink:title="246"><text x="652.95" y="-255.438" fill="#000" font-family="Helvetica,sans-Serif" font-size="10" text-anchor="middle">246</text></a></g></g><g id="edge31" class="edge"><title>dir_0538a82dae0483a21d0f1e9d7e0a45c6-&gt;dir_214608ef36d61442cb2b0c1c4e9a7def</title><path fill="none" stroke="#000" d="M338.0926,-291.1489C341.0399,-289.9296 344.0435,-288.844 347,-288 430.266,-264.2292 676.6668,-315.9961 735,-252 771.8458,-211.5773 723.2547,-171.5426 676,-144 635.7862,-120.5613 584.3995,-106.3569 547.3657,-98.4418"/><polygon fill="#000" stroke="#000" points="547.822 -94.963 537.322 -96.374 546.411 -101.819 547.822 -94.963"/><g id="a_edge31-headlabel"><a target="_top" xlink:href="dir_000104_000000.xhtml" xlink:title="326"><text x="551.916" y="-90.406" fill="#000" font-family="Helvetica,sans-Serif" font-size="10" text-anchor="middle">326</text></a></g></g><g id="edge32" class="edge"><title>dir_0538a82dae0483a21d0f1e9d7e0a45c6-&gt;dir_5815af820a9cc9481f1d0990a0d60286</title><path fill="none" stroke="#000" d="M283.8678,-291.3132C259.003,-277.575 225.5241,-258.2603 222,-252 183.9033,-184.3245 226.3319,-90.1931 251.7338,-44.7094"/><polygon fill="#000" stroke="#000" points="254.774 -46.443 256.709 -36.026 248.701 -42.962 254.774 -46.443"/><g id="a_edge32-headlabel"><a target="_top" xlink:href="dir_000104_000119.xhtml" xlink:title="2"><text x="255.451" y="-48.473" fill="#000" font-family="Helvetica,sans-Serif" font-size="10" text-anchor="middle">2</text></a></g></g><g id="edge1" class="edge"><title>dir_46fdb196cebdbffe77dac340cde62f29-&gt;dir_9e71e2da941d3cafc4d98a9f6ae3de4f</title><path fill="none" stroke="#000" d="M288.9454,-244.0995C353.6199,-265.0917 514.1387,-308.4105 641,-270 649.6035,-267.3951 658.0892,-262.9173 665.6948,-257.9871"/><polygon fill="#000" stroke="#000" points="667.971 -260.667 674.173 -252.077 663.968 -254.924 667.971 -260.667"/><g id="a_edge1-headlabel"><a target="_top" xlink:href="dir_000026_000025.xhtml" xlink:title="3"><text x="666.646" y="-262.551" fill="#000" font-family="Helvetica,sans-Serif" font-size="10" text-anchor="middle">3</text></a></g></g><g id="edge2" class="edge"><title>dir_46fdb196cebdbffe77dac340cde62f29-&gt;dir_214608ef36d61442cb2b0c1c4e9a7def</title><path fill="none" stroke="#000" d="M284.908,-215.8284C298.8887,-205.5022 316.5717,-192.2297 332,-180 351.5324,-164.5171 353.8018,-157.1099 375,-144 398.9583,-129.1832 427.6939,-116.3943 451.4676,-106.9867"/><polygon fill="#000" stroke="#000" points="452.929 -110.174 460.986 -103.294 450.397 -103.648 452.929 -110.174"/><g id="a_edge2-headlabel"><a target="_top" xlink:href="dir_000026_000000.xhtml" xlink:title="69"><text x="450.604" y="-111.621" fill="#000" font-family="Helvetica,sans-Serif" font-size="10" text-anchor="middle">69</text></a></g></g><g id="edge3" class="edge"><title>dir_46fdb196cebdbffe77dac340cde62f29-&gt;dir_5815af820a9cc9481f1d0990a0d60286</title><path fill="none" stroke="#000" d="M259.6608,-215.7231C259.4032,-197.5356 259.2125,-168.8313 260,-144 261.0639,-110.4533 263.7173,-71.9583 265.678,-46.4368"/><polygon fill="#000" stroke="#000" points="269.177 -46.589 266.469 -36.346 262.198 -46.041 269.177 -46.589"/><g id="a_edge3-headlabel"><a target="_top" xlink:href="dir_000026_000119.xhtml" xlink:title="2"><text x="271.726" y="-47.894" fill="#000" font-family="Helvetica,sans-Serif" font-size="10" text-anchor="middle">2</text></a></g></g><g id="node7" class="node"><title>dir_0c108762cda89b68d4571cbbabdf46df</title><g id="a_node7"><a target="_top" xlink:href="dir_0c108762cda89b68d4571cbbabdf46df.xhtml" xlink:title="UNIT"><polygon fill="#fff" stroke="#000" points="150 -324 96 -324 96 -288 150 -288 150 -324"/><text x="123" y="-303.5" fill="#000" font-family="Helvetica,sans-Serif" font-size="10" text-anchor="middle">UNIT</text></a></g></g><g id="edge16" class="edge"><title>dir_0c108762cda89b68d4571cbbabdf46df-&gt;dir_cbdb8362360e11eafe2fa3bc74cf0ffd</title><path fill="none" stroke="#000" d="M150.1327,-291.2839C153.0722,-290.0384 156.0631,-288.9097 159,-288 214.9279,-270.6776 376.1229,-290.7659 420,-252 437.2578,-236.7526 442.742,-210.619 444.2111,-190.4287"/><polygon fill="#000" stroke="#000" points="447.717 -190.36 444.659 -180.216 440.724 -190.053 447.717 -190.36"/><g id="a_edge16-headlabel"><a target="_top" xlink:href="dir_000059_000027.xhtml" xlink:title="3"><text x="450.396" y="-191.576" fill="#000" font-family="Helvetica,sans-Serif" font-size="10" text-anchor="middle">3</text></a></g></g><g id="edge17" class="edge"><title>dir_0c108762cda89b68d4571cbbabdf46df-&gt;dir_9e71e2da941d3cafc4d98a9f6ae3de4f</title><path fill="none" stroke="#000" d="M150.0805,-291.106C153.0301,-289.8951 156.0377,-288.8232 159,-288 355.729,-233.3324 415.19,-283.0417 617,-252 629.0051,-250.1534 641.9043,-247.4697 653.6879,-244.7357"/><polygon fill="#000" stroke="#000" points="654.794 -248.07 663.706 -242.34 653.166 -241.262 654.794 -248.07"/><g id="a_edge17-headlabel"><a target="_top" xlink:href="dir_000059_000025.xhtml" xlink:title="13"><text x="651.958" y="-249.167" fill="#000" font-family="Helvetica,sans-Serif" font-size="10" text-anchor="middle">13</text></a></g></g><g id="edge18" class="edge"><title>dir_0c108762cda89b68d4571cbbabdf46df-&gt;dir_214608ef36d61442cb2b0c1c4e9a7def</title><path fill="none" stroke="#000" d="M150.1214,-291.2468C153.063,-290.0084 156.0575,-288.8916 159,-288 282.0311,-250.7204 341.9123,-327.4465 446,-252 488.1968,-221.4142 497.4186,-156.2408 499.065,-118.5444"/><polygon fill="#000" stroke="#000" points="502.572 -118.339 499.356 -108.244 495.575 -118.141 502.572 -118.339"/><g id="a_edge18-headlabel"><a target="_top" xlink:href="dir_000059_000000.xhtml" xlink:title="4"><text x="505.309" y="-119.512" fill="#000" font-family="Helvetica,sans-Serif" font-size="10" text-anchor="middle">4</text></a></g></g><g id="edge19" class="edge"><title>dir_0c108762cda89b68d4571cbbabdf46df-&gt;dir_5815af820a9cc9481f1d0990a0d60286</title><path fill="none" stroke="#000" d="M125.5022,-287.7172C131.9165,-246.1131 152.0192,-142.5172 201,-72 209.3669,-59.9542 221.1697,-49.2059 232.5427,-40.5314"/><polygon fill="#000" stroke="#000" points="234.672 -43.31 240.693 -34.593 230.55 -37.653 234.672 -43.31"/><g id="a_edge19-headlabel"><a target="_top" xlink:href="dir_000059_000119.xhtml" xlink:title="1"><text x="233.439" y="-45.222" fill="#000" font-family="Helvetica,sans-Serif" font-size="10" text-anchor="middle">1</text></a></g></g><g id="edge8" class="edge"><title>dir_cbdb8362360e11eafe2fa3bc74cf0ffd-&gt;dir_214608ef36d61442cb2b0c1c4e9a7def</title><path fill="none" stroke="#000" d="M451.9264,-143.8314C457.5094,-135.454 465.0357,-125.3531 472.4838,-116.1749"/><polygon fill="#000" stroke="#000" points="475.24 -118.334 478.958 -108.413 469.865 -113.85 475.24 -118.334"/><g id="a_edge8-headlabel"><a target="_top" xlink:href="dir_000027_000000.xhtml" xlink:title="36"><text x="475.118" y="-120.413" fill="#000" font-family="Helvetica,sans-Serif" font-size="10" text-anchor="middle">36</text></a></g></g><g id="edge9" class="edge"><title>dir_cbdb8362360e11eafe2fa3bc74cf0ffd-&gt;dir_5815af820a9cc9481f1d0990a0d60286</title><path fill="none" stroke="#000" d="M421.7095,-143.7623C390.3677,-118.119 333.1899,-71.3372 298.0987,-42.6262"/><polygon fill="#000" stroke="#000" points="300.065 -39.713 290.11 -36.09 295.633 -45.131 300.065 -39.713"/><g id="a_edge9-headlabel"><a target="_top" xlink:href="dir_000027_000119.xhtml" xlink:title="3"><text x="304.646" y="-37.292" fill="#000" font-family="Helvetica,sans-Serif" font-size="10" text-anchor="middle">3</text></a></g></g><g id="edge10" class="edge"><title>dir_445738e6fed662d0b65e690e3f1e1de0-&gt;dir_214608ef36d61442cb2b0c1c4e9a7def</title><path fill="none" stroke="#000" d="M804.96,-215.7371C799.3925,-195.0361 787.291,-161.8565 764,-144 730.6643,-118.4425 614.4719,-102.2315 547.5309,-94.7869"/><polygon fill="#000" stroke="#000" points="547.55 -91.268 537.23 -93.667 546.794 -98.228 547.55 -91.268"/><g id="a_edge10-headlabel"><a target="_top" xlink:href="dir_000122_000000.xhtml" xlink:title="6"><text x="551.43" y="-86.334" fill="#000" font-family="Helvetica,sans-Serif" font-size="10" text-anchor="middle">6</text></a></g></g><g id="edge11" class="edge"><title>dir_445738e6fed662d0b65e690e3f1e1de0-&gt;dir_5815af820a9cc9481f1d0990a0d60286</title><path fill="none" stroke="#000" d="M810.1973,-215.9611C810.5289,-196.085 808.0103,-164.2562 791,-144 727.715,-68.6393 414.2259,-31.969 305.3389,-21.3568"/><polygon fill="#000" stroke="#000" points="305.447 -17.851 295.159 -20.383 304.78 -24.819 305.447 -17.851"/><g id="a_edge11-headlabel"><a target="_top" xlink:href="dir_000122_000119.xhtml" xlink:title="1"><text x="309.295" y="-12.867" fill="#000" font-family="Helvetica,sans-Serif" font-size="10" text-anchor="middle">1</text></a></g></g><g id="edge12" class="edge"><title>dir_9e71e2da941d3cafc4d98a9f6ae3de4f-&gt;dir_cbdb8362360e11eafe2fa3bc74cf0ffd</title><path fill="none" stroke="#000" d="M663.6642,-218.6744C649.6347,-212.2504 632.7378,-205.1045 617,-200 571.076,-185.1046 516.412,-174.1869 481.0014,-167.9704"/><polygon fill="#000" stroke="#000" points="481.553 -164.514 471.105 -166.268 480.366 -171.413 481.553 -164.514"/><g id="a_edge12-headlabel"><a target="_top" xlink:href="dir_000025_000027.xhtml" xlink:title="3"><text x="485.577" y="-159.825" fill="#000" font-family="Helvetica,sans-Serif" font-size="10" text-anchor="middle">3</text></a></g></g><g id="edge13" class="edge"><title>dir_9e71e2da941d3cafc4d98a9f6ae3de4f-&gt;dir_214608ef36d61442cb2b0c1c4e9a7def</title><path fill="none" stroke="#000" d="M690.3807,-215.9471C684.3291,-195.7558 671.8308,-163.3526 650,-144 621.2374,-118.5025 579.5815,-104.801 547.304,-97.5882"/><polygon fill="#000" stroke="#000" points="547.687 -94.093 537.182 -95.468 546.252 -100.944 547.687 -94.093"/><g id="a_edge13-headlabel"><a target="_top" xlink:href="dir_000025_000000.xhtml" xlink:title="14"><text x="551.788" y="-89.551" fill="#000" font-family="Helvetica,sans-Serif" font-size="10" text-anchor="middle">14</text></a></g></g><g id="edge14" class="edge"><title>dir_9e71e2da941d3cafc4d98a9f6ae3de4f-&gt;dir_5815af820a9cc9481f1d0990a0d60286</title><path fill="none" stroke="#000" d="M695.4338,-215.6439C694.9867,-196.0735 691.5675,-165.0609 676,-144 636.7408,-90.8871 608.0698,-94.5745 546,-72 463.0476,-41.8306 359.7192,-27.4185 305.391,-21.5004"/><polygon fill="#000" stroke="#000" points="305.511 -17.994 295.199 -20.428 304.778 -24.955 305.511 -17.994"/><g id="a_edge14-headlabel"><a target="_top" xlink:href="dir_000025_000119.xhtml" xlink:title="7"><text x="309.383" y="-13.046" fill="#000" font-family="Helvetica,sans-Serif" font-size="10" text-anchor="middle">7</text></a></g></g><g id="edge15" class="edge"><title>dir_7365e77196b52ca311bb83f181e59b8c-&gt;dir_214608ef36d61442cb2b0c1c4e9a7def</title><path fill="none" stroke="#000" d="M551.401,-215.7623C541.0769,-190.9846 522.5297,-146.4714 510.4975,-117.5939"/><polygon fill="#000" stroke="#000" points="513.614 -115.974 506.537 -108.09 507.153 -118.667 513.614 -115.974"/><g id="a_edge15-headlabel"><a target="_top" xlink:href="dir_000121_000000.xhtml" xlink:title="3"><text x="517.618" y="-115.7" fill="#000" font-family="Helvetica,sans-Serif" font-size="10" text-anchor="middle">3</text></a></g></g><g id="edge20" class="edge"><title>dir_214608ef36d61442cb2b0c1c4e9a7def-&gt;dir_cbdb8362360e11eafe2fa3bc74cf0ffd</title><path fill="none" stroke="#000" d="M490.9103,-108.4133C485.2898,-116.8239 477.7456,-126.9323 470.2991,-136.0923"/><polygon fill="#000" stroke="#000" points="467.558 -133.914 463.831 -143.831 472.93 -138.403 467.558 -133.914"/><g id="a_edge20-headlabel"><a target="_top" xlink:href="dir_000000_000027.xhtml" xlink:title="1"><text x="467.685" y="-126.835" fill="#000" font-family="Helvetica,sans-Serif" font-size="10" text-anchor="middle">1</text></a></g></g><g id="edge21" class="edge"><title>dir_214608ef36d61442cb2b0c1c4e9a7def-&gt;dir_5815af820a9cc9481f1d0990a0d60286</title><path fill="none" stroke="#000" d="M460.855,-78.1107C417.672,-64.651 347.7897,-42.8695 305.06,-29.5512"/><polygon fill="#000" stroke="#000" points="305.923 -26.154 295.334 -26.52 303.84 -32.837 305.923 -26.154"/><g id="a_edge21-headlabel"><a target="_top" xlink:href="dir_000000_000119.xhtml" xlink:title="20"><text x="310.2" y="-22.013" fill="#000" font-family="Helvetica,sans-Serif" font-size="10" text-anchor="middle">20</text></a></g></g><g id="edge33" class="edge"><title>dir_896191444cf08ec8ade6f88256cb2bdd-&gt;dir_214608ef36d61442cb2b0c1c4e9a7def</title><path fill="none" stroke="#000" d="M323.2017,-149.641C327.7785,-147.6818 332.5024,-145.7327 337,-144 374.8571,-129.4158 418.5313,-114.9936 450.9862,-104.7274"/><polygon fill="#000" stroke="#000" points="452.19 -108.018 460.679 -101.679 450.09 -101.34 452.19 -108.018"/><g id="a_edge33-headlabel"><a target="_top" xlink:href="dir_000120_000000.xhtml" xlink:title="5"><text x="449.613" y="-109.305" fill="#000" font-family="Helvetica,sans-Serif" font-size="10" text-anchor="middle">5</text></a></g></g><g id="edge34" class="edge"><title>dir_896191444cf08ec8ade6f88256cb2bdd-&gt;dir_5815af820a9cc9481f1d0990a0d60286</title><path fill="none" stroke="#000" d="M292.4538,-143.7623C287.6569,-119.0928 279.0561,-74.8598 273.4392,-45.9731"/><polygon fill="#000" stroke="#000" points="276.862 -45.238 271.517 -36.09 269.99 -46.574 276.862 -45.238"/><g id="a_edge34-headlabel"><a target="_top" xlink:href="dir_000120_000119.xhtml" xlink:title="1"><text x="280.335" y="-45.724" fill="#000" font-family="Helvetica,sans-Serif" font-size="10" text-anchor="middle">1</text></a></g></g></g></svg>