<svg xmlns="http://www.w3.org/2000/svg" xmlns:xlink="http://www.w3.org/1999/xlink" width="376" height="500" viewBox="0 0 281.51 375"><g id="graph0" class="graph" transform="scale(1 1) rotate(0) translate(4 371)"><title>tests/validation/NEON</title><polygon fill="#fff" stroke="transparent" points="-4 4 -4 -371 277.508 -371 277.508 4 -4 4"/><g id="clust1" class="cluster"><title>clusterdir_e7c7b16542faa38cb4655ff1750d3604</title><g id="a_clust1"><a target="_top" xlink:href="dir_e7c7b16542faa38cb4655ff1750d3604.xhtml" xlink:title="validation"><polygon fill="#dde" stroke="#000" points="91.5 -272 91.5 -359 249.5 -359 249.5 -272 91.5 -272"/><text x="170.5" y="-347" fill="#000" font-family="Helvetica,sans-Serif" font-size="10" text-anchor="middle">validation</text></a></g></g><g id="clust2" class="cluster"><title>clusterdir_0538a82dae0483a21d0f1e9d7e0a45c6</title><g id="a_clust2"><a target="_top" xlink:href="dir_0538a82dae0483a21d0f1e9d7e0a45c6.xhtml"><polygon fill="#eef" stroke="#000" points="99.5 -280 99.5 -332 241.5 -332 241.5 -280 99.5 -280"/></a></g></g><g id="node1" class="node"><title>dir_0538a82dae0483a21d0f1e9d7e0a45c6</title><text x="134.5" y="-303.5" fill="#000" font-family="Helvetica,sans-Serif" font-size="10" text-anchor="middle">NEON</text></g><g id="node3" class="node"><title>dir_46fdb196cebdbffe77dac340cde62f29</title><g id="a_node3"><a target="_top" xlink:href="dir_46fdb196cebdbffe77dac340cde62f29.xhtml" xlink:title="reference"><polygon fill="none" stroke="#000" points="57 -252 0 -252 0 -216 57 -216 57 -252"/><text x="28.5" y="-231.5" fill="#000" font-family="Helvetica,sans-Serif" font-size="10" text-anchor="middle">reference</text></a></g></g><g id="edge13" class="edge"><title>dir_0538a82dae0483a21d0f1e9d7e0a45c6-&gt;dir_46fdb196cebdbffe77dac340cde62f29</title><path fill="none" stroke="#000" d="M107.7517,-287.8314C94.4447,-278.7927 78.184,-267.7476 63.8625,-258.0198"/><polygon fill="#000" stroke="#000" points="65.478 -254.886 55.24 -252.163 61.545 -260.677 65.478 -254.886"/><g id="a_edge13-headlabel"><a target="_top" xlink:href="dir_000104_000026.xhtml" xlink:title="2"><text x="70.047" y="-252.058" fill="#000" font-family="Helvetica,sans-Serif" font-size="10" text-anchor="middle">2</text></a></g></g><g id="node4" class="node"><title>dir_445738e6fed662d0b65e690e3f1e1de0</title><g id="a_node4"><a target="_top" xlink:href="dir_445738e6fed662d0b65e690e3f1e1de0.xhtml" xlink:title="NEON"><polygon fill="none" stroke="#000" points="244.5 -252 190.5 -252 190.5 -216 244.5 -216 244.5 -252"/><text x="217.5" y="-231.5" fill="#000" font-family="Helvetica,sans-Serif" font-size="10" text-anchor="middle">NEON</text></a></g></g><g id="edge14" class="edge"><title>dir_0538a82dae0483a21d0f1e9d7e0a45c6-&gt;dir_445738e6fed662d0b65e690e3f1e1de0</title><path fill="none" stroke="#000" d="M153.3041,-287.7236C158.7705,-282.5527 164.8043,-276.9791 170.5,-272 175.477,-267.6491 180.8508,-263.1384 186.1247,-258.8099"/><polygon fill="#000" stroke="#000" points="188.7 -261.227 194.259 -252.207 184.289 -255.792 188.7 -261.227"/><g id="a_edge14-headlabel"><a target="_top" xlink:href="dir_000104_000122.xhtml" xlink:title="99"><text x="187.699" y="-263.197" fill="#000" font-family="Helvetica,sans-Serif" font-size="10" text-anchor="middle">99</text></a></g></g><g id="node5" class="node"><title>dir_9e71e2da941d3cafc4d98a9f6ae3de4f</title><g id="a_node5"><a target="_top" xlink:href="dir_9e71e2da941d3cafc4d98a9f6ae3de4f.xhtml" xlink:title="framework"><polygon fill="#fff" stroke="red" points="117.5 -180 55.5 -180 55.5 -144 117.5 -144 117.5 -180"/><text x="86.5" y="-159.5" fill="#000" font-family="Helvetica,sans-Serif" font-size="10" text-anchor="middle">framework</text></a></g></g><g id="edge15" class="edge"><title>dir_0538a82dae0483a21d0f1e9d7e0a45c6-&gt;dir_9e71e2da941d3cafc4d98a9f6ae3de4f</title><path fill="none" stroke="#000" d="M125.5482,-287.797C120.6849,-277.461 114.8037,-264.1892 110.5,-252 103.2991,-231.6052 97.0714,-207.9545 92.7656,-190.0171"/><polygon fill="#000" stroke="#000" points="96.15 -189.121 90.46 -180.184 89.335 -190.719 96.15 -189.121"/><g id="a_edge15-headlabel"><a target="_top" xlink:href="dir_000104_000025.xhtml" xlink:title="246"><text x="99.735" y="-189.472" fill="#000" font-family="Helvetica,sans-Serif" font-size="10" text-anchor="middle">246</text></a></g></g><g id="node6" class="node"><title>dir_214608ef36d61442cb2b0c1c4e9a7def</title><g id="a_node6"><a target="_top" xlink:href="dir_214608ef36d61442cb2b0c1c4e9a7def.xhtml" xlink:title="arm_compute"><polygon fill="#fff" stroke="red" points="190.5 -108 114.5 -108 114.5 -72 190.5 -72 190.5 -108"/><text x="152.5" y="-87.5" fill="#000" font-family="Helvetica,sans-Serif" font-size="10" text-anchor="middle">arm_compute</text></a></g></g><g id="edge16" class="edge"><title>dir_0538a82dae0483a21d0f1e9d7e0a45c6-&gt;dir_214608ef36d61442cb2b0c1c4e9a7def</title><path fill="none" stroke="#000" d="M136.0037,-287.9555C139.1405,-250.3144 146.4011,-163.1867 150.1563,-118.1246"/><polygon fill="#000" stroke="#000" points="153.645 -118.401 150.988 -108.145 146.669 -117.82 153.645 -118.401"/><g id="a_edge16-headlabel"><a target="_top" xlink:href="dir_000104_000000.xhtml" xlink:title="326"><text x="156.176" y="-119.719" fill="#000" font-family="Helvetica,sans-Serif" font-size="10" text-anchor="middle">326</text></a></g></g><g id="node2" class="node"><title>dir_6fc87decd8cffc07e5f49c197ca3de10</title><g id="a_node2"><a target="_top" xlink:href="dir_6fc87decd8cffc07e5f49c197ca3de10.xhtml" xlink:title="UNIT"><polygon fill="#fff" stroke="#000" points="233.5 -324 179.5 -324 179.5 -288 233.5 -288 233.5 -324"/><text x="206.5" y="-303.5" fill="#000" font-family="Helvetica,sans-Serif" font-size="10" text-anchor="middle">UNIT</text></a></g></g><g id="edge4" class="edge"><title>dir_6fc87decd8cffc07e5f49c197ca3de10-&gt;dir_445738e6fed662d0b65e690e3f1e1de0</title><path fill="none" stroke="#000" d="M209.2758,-287.8314C210.4522,-280.131 211.8511,-270.9743 213.1586,-262.4166"/><polygon fill="#000" stroke="#000" points="216.636 -262.827 214.687 -252.413 209.717 -261.77 216.636 -262.827"/><g id="a_edge4-headlabel"><a target="_top" xlink:href="dir_000118_000122.xhtml" xlink:title="1"><text x="218.9" y="-264.309" fill="#000" font-family="Helvetica,sans-Serif" font-size="10" text-anchor="middle">1</text></a></g></g><g id="edge5" class="edge"><title>dir_6fc87decd8cffc07e5f49c197ca3de10-&gt;dir_9e71e2da941d3cafc4d98a9f6ae3de4f</title><path fill="none" stroke="#000" d="M191.3019,-287.7623C170.2932,-262.5518 132.2586,-216.9103 108.246,-188.0952"/><polygon fill="#000" stroke="#000" points="110.665 -185.531 101.575 -180.09 105.288 -190.012 110.665 -185.531"/><g id="a_edge5-headlabel"><a target="_top" xlink:href="dir_000118_000025.xhtml" xlink:title="4"><text x="115.148" y="-183.975" fill="#000" font-family="Helvetica,sans-Serif" font-size="10" text-anchor="middle">4</text></a></g></g><g id="edge6" class="edge"><title>dir_6fc87decd8cffc07e5f49c197ca3de10-&gt;dir_214608ef36d61442cb2b0c1c4e9a7def</title><path fill="none" stroke="#000" d="M228.2672,-287.8165C237.9723,-278.2816 248.3597,-265.7355 253.5,-252 259.1079,-237.015 258.5596,-231.1789 253.5,-216 239.9804,-175.4411 206.7284,-138.4927 182.0502,-115.2455"/><polygon fill="#000" stroke="#000" points="184.106 -112.382 174.375 -108.192 179.37 -117.536 184.106 -112.382"/><g id="a_edge6-headlabel"><a target="_top" xlink:href="dir_000118_000000.xhtml" xlink:title="11"><text x="188.674" y="-110.223" fill="#000" font-family="Helvetica,sans-Serif" font-size="10" text-anchor="middle">11</text></a></g></g><g id="node7" class="node"><title>dir_5815af820a9cc9481f1d0990a0d60286</title><g id="a_node7"><a target="_top" xlink:href="dir_5815af820a9cc9481f1d0990a0d60286.xhtml" xlink:title="support"><polygon fill="none" stroke="#000" points="179.5 -36 125.5 -36 125.5 0 179.5 0 179.5 -36"/><text x="152.5" y="-15.5" fill="#000" font-family="Helvetica,sans-Serif" font-size="10" text-anchor="middle">support</text></a></g></g><g id="edge7" class="edge"><title>dir_6fc87decd8cffc07e5f49c197ca3de10-&gt;dir_5815af820a9cc9481f1d0990a0d60286</title><path fill="none" stroke="#000" d="M233.5226,-290.6789C247.0216,-281.4052 262.0359,-268.2286 269.5,-252 276.1857,-237.4638 272.1612,-231.7771 269.5,-216 258.2319,-149.1954 258.4945,-127.4009 219.5,-72 211.0583,-60.0065 199.238,-49.2704 187.872,-40.5911"/><polygon fill="#000" stroke="#000" points="189.871 -37.717 179.731 -34.646 185.743 -43.37 189.871 -37.717"/><g id="a_edge7-headlabel"><a target="_top" xlink:href="dir_000118_000119.xhtml" xlink:title="2"><text x="194.448" y="-35.044" fill="#000" font-family="Helvetica,sans-Serif" font-size="10" text-anchor="middle">2</text></a></g></g><g id="edge1" class="edge"><title>dir_46fdb196cebdbffe77dac340cde62f29-&gt;dir_9e71e2da941d3cafc4d98a9f6ae3de4f</title><path fill="none" stroke="#000" d="M43.1358,-215.8314C49.8161,-207.5386 57.8568,-197.557 65.1904,-188.4533"/><polygon fill="#000" stroke="#000" points="68.119 -190.397 71.667 -180.413 62.668 -186.005 68.119 -190.397"/><g id="a_edge1-headlabel"><a target="_top" xlink:href="dir_000026_000025.xhtml" xlink:title="3"><text x="68.076" y="-192.477" fill="#000" font-family="Helvetica,sans-Serif" font-size="10" text-anchor="middle">3</text></a></g></g><g id="edge2" class="edge"><title>dir_46fdb196cebdbffe77dac340cde62f29-&gt;dir_214608ef36d61442cb2b0c1c4e9a7def</title><path fill="none" stroke="#000" d="M27.6865,-215.9114C27.7325,-196.2849 30.6197,-164.9541 46.5,-144 60.9417,-124.9441 83.9994,-112.0799 104.9269,-103.7044"/><polygon fill="#000" stroke="#000" points="106.222 -106.957 114.354 -100.166 103.762 -100.403 106.222 -106.957"/><g id="a_edge2-headlabel"><a target="_top" xlink:href="dir_000026_000000.xhtml" xlink:title="69"><text x="103.854" y="-108.378" fill="#000" font-family="Helvetica,sans-Serif" font-size="10" text-anchor="middle">69</text></a></g></g><g id="edge3" class="edge"><title>dir_46fdb196cebdbffe77dac340cde62f29-&gt;dir_5815af820a9cc9481f1d0990a0d60286</title><path fill="none" stroke="#000" d="M24.9223,-215.7744C22.0726,-197.1265 19.84,-167.6187 28.5,-144 44.8212,-99.4869 86.5962,-62.8151 117.1632,-40.7296"/><polygon fill="#000" stroke="#000" points="119.293 -43.51 125.457 -34.893 115.265 -37.786 119.293 -43.51"/><g id="a_edge3-headlabel"><a target="_top" xlink:href="dir_000026_000119.xhtml" xlink:title="2"><text x="117.988" y="-45.401" fill="#000" font-family="Helvetica,sans-Serif" font-size="10" text-anchor="middle">2</text></a></g></g><g id="edge8" class="edge"><title>dir_445738e6fed662d0b65e690e3f1e1de0-&gt;dir_214608ef36d61442cb2b0c1c4e9a7def</title><path fill="none" stroke="#000" d="M209.2677,-215.7623C198.0345,-190.8764 177.8149,-146.0822 164.7852,-117.2165"/><polygon fill="#000" stroke="#000" points="167.97 -115.764 160.666 -108.09 161.59 -118.644 167.97 -115.764"/><g id="a_edge8-headlabel"><a target="_top" xlink:href="dir_000122_000000.xhtml" xlink:title="6"><text x="172.036" y="-115.372" fill="#000" font-family="Helvetica,sans-Serif" font-size="10" text-anchor="middle">6</text></a></g></g><g id="edge9" class="edge"><title>dir_445738e6fed662d0b65e690e3f1e1de0-&gt;dir_5815af820a9cc9481f1d0990a0d60286</title><path fill="none" stroke="#000" d="M218.9021,-215.8471C220.5636,-184.9061 220.8165,-120.5886 199.5,-72 195.0349,-61.8224 187.9546,-52.1663 180.6308,-43.9091"/><polygon fill="#000" stroke="#000" points="183.014 -41.334 173.612 -36.45 177.916 -46.131 183.014 -41.334"/><g id="a_edge9-headlabel"><a target="_top" xlink:href="dir_000122_000119.xhtml" xlink:title="1"><text x="187.545" y="-39.506" fill="#000" font-family="Helvetica,sans-Serif" font-size="10" text-anchor="middle">1</text></a></g></g><g id="edge10" class="edge"><title>dir_9e71e2da941d3cafc4d98a9f6ae3de4f-&gt;dir_214608ef36d61442cb2b0c1c4e9a7def</title><path fill="none" stroke="#000" d="M103.1546,-143.8314C110.9114,-135.3694 120.2802,-125.1489 128.761,-115.8971"/><polygon fill="#000" stroke="#000" points="131.444 -118.15 135.621 -108.413 126.284 -113.42 131.444 -118.15"/><g id="a_edge10-headlabel"><a target="_top" xlink:href="dir_000025_000000.xhtml" xlink:title="14"><text x="131.108" y="-120.218" fill="#000" font-family="Helvetica,sans-Serif" font-size="10" text-anchor="middle">14</text></a></g></g><g id="edge11" class="edge"><title>dir_9e71e2da941d3cafc4d98a9f6ae3de4f-&gt;dir_5815af820a9cc9481f1d0990a0d60286</title><path fill="none" stroke="#000" d="M87.6384,-143.8744C89.4208,-125.0464 93.9656,-95.1567 105.5,-72 110.5911,-61.7789 118.0816,-51.9391 125.5934,-43.5233"/><polygon fill="#000" stroke="#000" points="128.148 -45.916 132.43 -36.225 123.039 -41.13 128.148 -45.916"/><g id="a_edge11-headlabel"><a target="_top" xlink:href="dir_000025_000119.xhtml" xlink:title="7"><text x="127.763" y="-47.98" fill="#000" font-family="Helvetica,sans-Serif" font-size="10" text-anchor="middle">7</text></a></g></g><g id="edge12" class="edge"><title>dir_214608ef36d61442cb2b0c1c4e9a7def-&gt;dir_5815af820a9cc9481f1d0990a0d60286</title><path fill="none" stroke="#000" d="M152.5,-71.8314C152.5,-64.131 152.5,-54.9743 152.5,-46.4166"/><polygon fill="#000" stroke="#000" points="156 -46.413 152.5 -36.413 149 -46.413 156 -46.413"/><g id="a_edge12-headlabel"><a target="_top" xlink:href="dir_000000_000119.xhtml" xlink:title="20"><text x="158.839" y="-47.508" fill="#000" font-family="Helvetica,sans-Serif" font-size="10" text-anchor="middle">20</text></a></g></g></g></svg>