<svg xmlns="http://www.w3.org/2000/svg" xmlns:xlink="http://www.w3.org/1999/xlink" width="139pt" height="260pt" viewBox="0 0 139 260"><g id="graph0" class="graph" transform="scale(1 1) rotate(0) translate(4 256)"><title>examples</title><polygon fill="#fff" stroke="transparent" points="-4 4 -4 -256 135 -256 135 4 -4 4"/><g id="node1" class="node"><title>dir_d28a4824dc47e487b107a5db32ef43c4</title><g id="a_node1"><a target="_top" xlink:href="dir_d28a4824dc47e487b107a5db32ef43c4.xhtml" xlink:title="examples"><polygon fill="#eef" stroke="#000" points="116.5 -252 57.5 -252 57.5 -216 116.5 -216 116.5 -252"/><text x="87" y="-231.5" fill="#000" font-family="Helvetica,sans-Serif" font-size="10" text-anchor="middle">examples</text></a></g></g><g id="node2" class="node"><title>dir_cbdb8362360e11eafe2fa3bc74cf0ffd</title><g id="a_node2"><a target="_top" xlink:href="dir_cbdb8362360e11eafe2fa3bc74cf0ffd.xhtml" xlink:title="utils"><polygon fill="#fff" stroke="red" points="114 -180 60 -180 60 -144 114 -144 114 -180"/><text x="87" y="-159.5" fill="#000" font-family="Helvetica,sans-Serif" font-size="10" text-anchor="middle">utils</text></a></g></g><g id="edge1" class="edge"><title>dir_d28a4824dc47e487b107a5db32ef43c4-&gt;dir_cbdb8362360e11eafe2fa3bc74cf0ffd</title><path fill="none" stroke="#000" d="M87,-215.8314C87,-208.131 87,-198.9743 87,-190.4166"/><polygon fill="#000" stroke="#000" points="90.5 -190.413 87 -180.413 83.5 -190.413 90.5 -190.413"/><g id="a_edge1-headlabel"><a target="_top" xlink:href="dir_000053_000027.xhtml" xlink:title="70"><text x="93.339" y="-191.508" fill="#000" font-family="Helvetica,sans-Serif" font-size="10" text-anchor="middle">70</text></a></g></g><g id="node3" class="node"><title>dir_214608ef36d61442cb2b0c1c4e9a7def</title><g id="a_node3"><a target="_top" xlink:href="dir_214608ef36d61442cb2b0c1c4e9a7def.xhtml" xlink:title="arm_compute"><polygon fill="#fff" stroke="red" points="76 -108 0 -108 0 -72 76 -72 76 -108"/><text x="38" y="-87.5" fill="#000" font-family="Helvetica,sans-Serif" font-size="10" text-anchor="middle">arm_compute</text></a></g></g><g id="edge2" class="edge"><title>dir_d28a4824dc47e487b107a5db32ef43c4-&gt;dir_214608ef36d61442cb2b0c1c4e9a7def</title><path fill="none" stroke="#000" d="M71.7761,-215.6545C64.3225,-205.7028 55.916,-192.837 51,-180 43.4369,-160.2506 40.2293,-136.5268 38.8899,-118.3954"/><polygon fill="#000" stroke="#000" points="42.37 -117.953 38.287 -108.177 35.382 -118.366 42.37 -117.953"/><g id="a_edge2-headlabel"><a target="_top" xlink:href="dir_000053_000000.xhtml" xlink:title="53"><text x="45.416" y="-118.874" fill="#000" font-family="Helvetica,sans-Serif" font-size="10" text-anchor="middle">53</text></a></g></g><g id="node4" class="node"><title>dir_5815af820a9cc9481f1d0990a0d60286</title><g id="a_node4"><a target="_top" xlink:href="dir_5815af820a9cc9481f1d0990a0d60286.xhtml" xlink:title="support"><polygon fill="none" stroke="#000" points="131 -36 77 -36 77 0 131 0 131 -36"/><text x="104" y="-15.5" fill="#000" font-family="Helvetica,sans-Serif" font-size="10" text-anchor="middle">support</text></a></g></g><g id="edge3" class="edge"><title>dir_d28a4824dc47e487b107a5db32ef43c4-&gt;dir_5815af820a9cc9481f1d0990a0d60286</title><path fill="none" stroke="#000" d="M102.9905,-215.9169C110.6538,-206.0371 119.0166,-193.1563 123,-180 136.7727,-134.5119 124.3197,-79.0372 114.1089,-46.2224"/><polygon fill="#000" stroke="#000" points="117.336 -44.828 110.909 -36.406 110.68 -46.998 117.336 -44.828"/><g id="a_edge3-headlabel"><a target="_top" xlink:href="dir_000053_000119.xhtml" xlink:title="17"><text x="121.149" y="-44.866" fill="#000" font-family="Helvetica,sans-Serif" font-size="10" text-anchor="middle">17</text></a></g></g><g id="edge4" class="edge"><title>dir_cbdb8362360e11eafe2fa3bc74cf0ffd-&gt;dir_214608ef36d61442cb2b0c1c4e9a7def</title><path fill="none" stroke="#000" d="M68.6828,-143.8314C62.3627,-135.7079 55.5289,-125.9637 49.8236,-117.0118"/><polygon fill="#000" stroke="#000" points="52.764 -115.112 44.555 -108.413 46.795 -118.769 52.764 -115.112"/><g id="a_edge4-headlabel"><a target="_top" xlink:href="dir_000027_000000.xhtml" xlink:title="36"><text x="57.063" y="-114.193" fill="#000" font-family="Helvetica,sans-Serif" font-size="10" text-anchor="middle">36</text></a></g></g><g id="edge5" class="edge"><title>dir_cbdb8362360e11eafe2fa3bc74cf0ffd-&gt;dir_5815af820a9cc9481f1d0990a0d60286</title><path fill="none" stroke="#000" d="M89.1531,-143.7623C92.0527,-119.201 97.2416,-75.2474 100.6526,-46.3541"/><polygon fill="#000" stroke="#000" points="104.168 -46.431 101.864 -36.09 97.216 -45.61 104.168 -46.431"/><g id="a_edge5-headlabel"><a target="_top" xlink:href="dir_000027_000119.xhtml" xlink:title="3"><text x="106.566" y="-47.834" fill="#000" font-family="Helvetica,sans-Serif" font-size="10" text-anchor="middle">3</text></a></g></g><g id="edge6" class="edge"><title>dir_214608ef36d61442cb2b0c1c4e9a7def-&gt;dir_cbdb8362360e11eafe2fa3bc74cf0ffd</title><path fill="none" stroke="#000" d="M56.5073,-108.4133C62.8375,-116.569 69.665,-126.3212 75.3475,-135.257"/><polygon fill="#000" stroke="#000" points="72.386 -137.124 80.588 -143.831 78.359 -133.474 72.386 -137.124"/><g id="a_edge6-headlabel"><a target="_top" xlink:href="dir_000000_000027.xhtml" xlink:title="1"><text x="68.089" y="-133.037" fill="#000" font-family="Helvetica,sans-Serif" font-size="10" text-anchor="middle">1</text></a></g></g><g id="edge7" class="edge"><title>dir_214608ef36d61442cb2b0c1c4e9a7def-&gt;dir_5815af820a9cc9481f1d0990a0d60286</title><path fill="none" stroke="#000" d="M54.6546,-71.8314C62.4114,-63.3694 71.7802,-53.1489 80.261,-43.8971"/><polygon fill="#000" stroke="#000" points="82.944 -46.15 87.121 -36.413 77.784 -41.42 82.944 -46.15"/><g id="a_edge7-headlabel"><a target="_top" xlink:href="dir_000000_000119.xhtml" xlink:title="20"><text x="82.608" y="-48.218" fill="#000" font-family="Helvetica,sans-Serif" font-size="10" text-anchor="middle">20</text></a></g></g></g></svg>