<svg xmlns="http://www.w3.org/2000/svg" xmlns:xlink="http://www.w3.org/1999/xlink" width="324" height="295pt" viewBox="0 0 242.53 295"><g id="graph0" class="graph" transform="scale(1 1) rotate(0) translate(4 291)"><title>tests/validation/GLES_COMPUTE/UNIT</title><polygon fill="#fff" stroke="transparent" points="-4 4 -4 -291 238.534 -291 238.534 4 -4 4"/><g id="clust1" class="cluster"><title>clusterdir_fbdf7bf92663091dc4d5520df638c068</title><g id="a_clust1"><a target="_top" xlink:href="dir_fbdf7bf92663091dc4d5520df638c068.xhtml" xlink:title="GLES_COMPUTE"><polygon fill="#dde" stroke="#000" points="106 -208 106 -279 204 -279 204 -208 106 -208"/><text x="155" y="-267" fill="#000" font-family="Helvetica,sans-Serif" font-size="10" text-anchor="middle">GLES_COMPUTE</text></a></g></g><g id="node1" class="node"><title>dir_3cbe5b6455504b72bdad57647abe41ab</title><g id="a_node1"><a target="_top" xlink:href="dir_3cbe5b6455504b72bdad57647abe41ab.xhtml" xlink:title="UNIT"><polygon fill="#eef" stroke="#000" points="182 -252 128 -252 128 -216 182 -216 182 -252"/><text x="155" y="-231.5" fill="#000" font-family="Helvetica,sans-Serif" font-size="10" text-anchor="middle">UNIT</text></a></g></g><g id="node2" class="node"><title>dir_9e71e2da941d3cafc4d98a9f6ae3de4f</title><g id="a_node2"><a target="_top" xlink:href="dir_9e71e2da941d3cafc4d98a9f6ae3de4f.xhtml" xlink:title="framework"><polygon fill="#fff" stroke="red" points="216 -180 154 -180 154 -144 216 -144 216 -180"/><text x="185" y="-159.5" fill="#000" font-family="Helvetica,sans-Serif" font-size="10" text-anchor="middle">framework</text></a></g></g><g id="edge5" class="edge"><title>dir_3cbe5b6455504b72bdad57647abe41ab-&gt;dir_9e71e2da941d3cafc4d98a9f6ae3de4f</title><path fill="none" stroke="#000" d="M162.5703,-215.8314C165.8493,-207.9617 169.762,-198.5712 173.3945,-189.8533"/><polygon fill="#000" stroke="#000" points="176.712 -190.99 177.328 -180.413 170.251 -188.298 176.712 -190.99"/><g id="a_edge5-headlabel"><a target="_top" xlink:href="dir_000127_000025.xhtml" xlink:title="2"><text x="177.951" y="-192.9" fill="#000" font-family="Helvetica,sans-Serif" font-size="10" text-anchor="middle">2</text></a></g></g><g id="node3" class="node"><title>dir_7365e77196b52ca311bb83f181e59b8c</title><g id="a_node3"><a target="_top" xlink:href="dir_7365e77196b52ca311bb83f181e59b8c.xhtml" xlink:title="GLES_COMPUTE"><polygon fill="none" stroke="#000" points="98 -180 0 -180 0 -144 98 -144 98 -180"/><text x="49" y="-159.5" fill="#000" font-family="Helvetica,sans-Serif" font-size="10" text-anchor="middle">GLES_COMPUTE</text></a></g></g><g id="edge6" class="edge"><title>dir_3cbe5b6455504b72bdad57647abe41ab-&gt;dir_7365e77196b52ca311bb83f181e59b8c</title><path fill="none" stroke="#000" d="M128.2517,-215.8314C114.9447,-206.7927 98.684,-195.7476 84.3625,-186.0198"/><polygon fill="#000" stroke="#000" points="85.978 -182.886 75.74 -180.163 82.045 -188.677 85.978 -182.886"/><g id="a_edge6-headlabel"><a target="_top" xlink:href="dir_000127_000121.xhtml" xlink:title="1"><text x="90.547" y="-180.058" fill="#000" font-family="Helvetica,sans-Serif" font-size="10" text-anchor="middle">1</text></a></g></g><g id="node4" class="node"><title>dir_214608ef36d61442cb2b0c1c4e9a7def</title><g id="a_node4"><a target="_top" xlink:href="dir_214608ef36d61442cb2b0c1c4e9a7def.xhtml" xlink:title="arm_compute"><polygon fill="#fff" stroke="red" points="164 -108 88 -108 88 -72 164 -72 164 -108"/><text x="126" y="-87.5" fill="#000" font-family="Helvetica,sans-Serif" font-size="10" text-anchor="middle">arm_compute</text></a></g></g><g id="edge7" class="edge"><title>dir_3cbe5b6455504b72bdad57647abe41ab-&gt;dir_214608ef36d61442cb2b0c1c4e9a7def</title><path fill="none" stroke="#000" d="M151.3271,-215.7623C146.359,-191.0928 137.4509,-146.8598 131.6335,-117.9731"/><polygon fill="#000" stroke="#000" points="135.048 -117.202 129.643 -108.09 128.186 -118.584 135.048 -117.202"/><g id="a_edge7-headlabel"><a target="_top" xlink:href="dir_000127_000000.xhtml" xlink:title="5"><text x="138.542" y="-117.665" fill="#000" font-family="Helvetica,sans-Serif" font-size="10" text-anchor="middle">5</text></a></g></g><g id="node5" class="node"><title>dir_5815af820a9cc9481f1d0990a0d60286</title><g id="a_node5"><a target="_top" xlink:href="dir_5815af820a9cc9481f1d0990a0d60286.xhtml" xlink:title="support"><polygon fill="none" stroke="#000" points="219 -36 165 -36 165 0 219 0 219 -36"/><text x="192" y="-15.5" fill="#000" font-family="Helvetica,sans-Serif" font-size="10" text-anchor="middle">support</text></a></g></g><g id="edge8" class="edge"><title>dir_3cbe5b6455504b72bdad57647abe41ab-&gt;dir_5815af820a9cc9481f1d0990a0d60286</title><path fill="none" stroke="#000" d="M182.0692,-221.063C197.731,-211.9711 216.0626,-198.1823 225,-180 246.6077,-136.0413 224.7427,-78.7004 207.7623,-45.3533"/><polygon fill="#000" stroke="#000" points="210.696 -43.415 202.923 -36.215 204.51 -46.691 210.696 -43.415"/><g id="a_edge8-headlabel"><a target="_top" xlink:href="dir_000127_000119.xhtml" xlink:title="1"><text x="214.888" y="-42.763" fill="#000" font-family="Helvetica,sans-Serif" font-size="10" text-anchor="middle">1</text></a></g></g><g id="edge1" class="edge"><title>dir_9e71e2da941d3cafc4d98a9f6ae3de4f-&gt;dir_214608ef36d61442cb2b0c1c4e9a7def</title><path fill="none" stroke="#000" d="M170.1118,-143.8314C163.247,-135.454 154.9699,-125.3531 147.4489,-116.1749"/><polygon fill="#000" stroke="#000" points="150.134 -113.93 141.089 -108.413 144.72 -118.367 150.134 -113.93"/><g id="a_edge1-headlabel"><a target="_top" xlink:href="dir_000025_000000.xhtml" xlink:title="14"><text x="154.608" y="-112.41" fill="#000" font-family="Helvetica,sans-Serif" font-size="10" text-anchor="middle">14</text></a></g></g><g id="edge2" class="edge"><title>dir_9e71e2da941d3cafc4d98a9f6ae3de4f-&gt;dir_5815af820a9cc9481f1d0990a0d60286</title><path fill="none" stroke="#000" d="M185.8866,-143.7623C187.0805,-119.201 189.2171,-75.2474 190.6217,-46.3541"/><polygon fill="#000" stroke="#000" points="194.131 -46.248 191.121 -36.09 187.139 -45.908 194.131 -46.248"/><g id="a_edge2-headlabel"><a target="_top" xlink:href="dir_000025_000119.xhtml" xlink:title="7"><text x="196.792" y="-47.476" fill="#000" font-family="Helvetica,sans-Serif" font-size="10" text-anchor="middle">7</text></a></g></g><g id="edge3" class="edge"><title>dir_7365e77196b52ca311bb83f181e59b8c-&gt;dir_214608ef36d61442cb2b0c1c4e9a7def</title><path fill="none" stroke="#000" d="M68.4304,-143.8314C77.732,-135.1337 89.0204,-124.5783 99.1286,-115.1265"/><polygon fill="#000" stroke="#000" points="101.662 -117.549 106.576 -108.163 96.881 -112.436 101.662 -117.549"/><g id="a_edge3-headlabel"><a target="_top" xlink:href="dir_000121_000000.xhtml" xlink:title="3"><text x="100.976" y="-119.578" fill="#000" font-family="Helvetica,sans-Serif" font-size="10" text-anchor="middle">3</text></a></g></g><g id="edge4" class="edge"><title>dir_214608ef36d61442cb2b0c1c4e9a7def-&gt;dir_5815af820a9cc9481f1d0990a0d60286</title><path fill="none" stroke="#000" d="M142.6546,-71.8314C150.4114,-63.3694 159.7802,-53.1489 168.261,-43.8971"/><polygon fill="#000" stroke="#000" points="170.944 -46.15 175.121 -36.413 165.784 -41.42 170.944 -46.15"/><g id="a_edge4-headlabel"><a target="_top" xlink:href="dir_000000_000119.xhtml" xlink:title="20"><text x="170.608" y="-48.218" fill="#000" font-family="Helvetica,sans-Serif" font-size="10" text-anchor="middle">20</text></a></g></g></g></svg>