<svg xmlns="http://www.w3.org/2000/svg" xmlns:xlink="http://www.w3.org/1999/xlink" width="208pt" height="244" viewBox="0 0 208 183"><g id="graph0" class="graph" transform="scale(1 1) rotate(0) translate(4 179)"><title>arm_compute/core/GLES_COMPUTE</title><polygon fill="#fff" stroke="transparent" points="-4 4 -4 -179 204 -179 204 4 -4 4"/><g id="clust1" class="cluster"><title>clusterdir_1fb090f0c6070330bfaccc4236d3ca0d</title><g id="a_clust1"><a target="_top" xlink:href="dir_1fb090f0c6070330bfaccc4236d3ca0d.xhtml" xlink:title="core"><polygon fill="#dde" stroke="#000" points="8 -8 8 -167 138 -167 138 -8 8 -8"/><text x="73" y="-155" fill="#000" font-family="Helvetica,sans-Serif" font-size="10" text-anchor="middle">core</text></a></g></g><g id="clust2" class="cluster"><title>clusterdir_541ebbb21ca179b54b469d645ff46bd9</title><g id="a_clust2"><a target="_top" xlink:href="dir_541ebbb21ca179b54b469d645ff46bd9.xhtml"><polygon fill="#eef" stroke="#000" points="16 -16 16 -140 130 -140 130 -16 16 -16"/></a></g></g><g id="node1" class="node"><title>dir_541ebbb21ca179b54b469d645ff46bd9</title><text x="73" y="-111.5" fill="#000" font-family="Helvetica,sans-Serif" font-size="10" text-anchor="middle">GLES_COMPUTE</text></g><g id="node2" class="node"><title>dir_b19d819d13c0f52aff9af701145a9252</title><g id="a_node2"><a target="_top" xlink:href="dir_b19d819d13c0f52aff9af701145a9252.xhtml" xlink:title="kernels"><polygon fill="#fff" stroke="#000" points="100 -60 46 -60 46 -24 100 -24 100 -60"/><text x="73" y="-39.5" fill="#000" font-family="Helvetica,sans-Serif" font-size="10" text-anchor="middle">kernels</text></a></g></g><g id="edge1" class="edge"><title>dir_541ebbb21ca179b54b469d645ff46bd9-&gt;dir_b19d819d13c0f52aff9af701145a9252</title><path fill="none" stroke="#000" d="M73,-95.8314C73,-88.131 73,-78.9743 73,-70.4166"/><polygon fill="#000" stroke="#000" points="76.5 -70.413 73 -60.413 69.5 -70.413 76.5 -70.413"/><g id="a_edge1-headlabel"><a target="_top" xlink:href="dir_000006_000007.xhtml" xlink:title="25"><text x="79.339" y="-71.508" fill="#000" font-family="Helvetica,sans-Serif" font-size="10" text-anchor="middle">25</text></a></g></g><g id="node3" class="node"><title>dir_5815af820a9cc9481f1d0990a0d60286</title><g id="a_node3"><a target="_top" xlink:href="dir_5815af820a9cc9481f1d0990a0d60286.xhtml" xlink:title="support"><polygon fill="none" stroke="#000" points="200 -60 146 -60 146 -24 200 -24 200 -60"/><text x="173" y="-39.5" fill="#000" font-family="Helvetica,sans-Serif" font-size="10" text-anchor="middle">support</text></a></g></g><g id="edge2" class="edge"><title>dir_541ebbb21ca179b54b469d645ff46bd9-&gt;dir_5815af820a9cc9481f1d0990a0d60286</title><path fill="none" stroke="#000" d="M98.2342,-95.8314C110.788,-86.7927 126.1283,-75.7476 139.6391,-66.0198"/><polygon fill="#000" stroke="#000" points="141.704 -68.846 147.774 -60.163 137.613 -63.166 141.704 -68.846"/><g id="a_edge2-headlabel"><a target="_top" xlink:href="dir_000006_000119.xhtml" xlink:title="1"><text x="140.445" y="-70.751" fill="#000" font-family="Helvetica,sans-Serif" font-size="10" text-anchor="middle">1</text></a></g></g></g></svg>