<svg xmlns="http://www.w3.org/2000/svg" xmlns:xlink="http://www.w3.org/1999/xlink" width="94pt" height="151pt" viewBox="0 0 94 151"><g id="graph0" class="graph" transform="scale(1 1) rotate(0) translate(4 147)"><title>src/runtime/OMP</title><polygon fill="#fff" stroke="transparent" points="-4 4 -4 -147 90 -147 90 4 -4 4"/><g id="clust1" class="cluster"><title>clusterdir_bf9f26469d00835ba20ff8d80ee5a804</title><g id="a_clust1"><a target="_top" xlink:href="dir_bf9f26469d00835ba20ff8d80ee5a804.xhtml" xlink:title="runtime"><polygon fill="#dde" stroke="#000" points="8 -64 8 -135 78 -135 78 -64 8 -64"/><text x="43" y="-123" fill="#000" font-family="Helvetica,sans-Serif" font-size="10" text-anchor="middle">runtime</text></a></g></g><g id="node1" class="node"><title>dir_016fa5637888b23a90b93c4e98f1766c</title><g id="a_node1"><a target="_top" xlink:href="dir_016fa5637888b23a90b93c4e98f1766c.xhtml" xlink:title="OMP"><polygon fill="#eef" stroke="#000" points="70 -108 16 -108 16 -72 70 -72 70 -108"/><text x="43" y="-87.5" fill="#000" font-family="Helvetica,sans-Serif" font-size="10" text-anchor="middle">OMP</text></a></g></g><g id="node2" class="node"><title>dir_214608ef36d61442cb2b0c1c4e9a7def</title><g id="a_node2"><a target="_top" xlink:href="dir_214608ef36d61442cb2b0c1c4e9a7def.xhtml" xlink:title="arm_compute"><polygon fill="#fff" stroke="red" points="81 -36 5 -36 5 0 81 0 81 -36"/><text x="43" y="-15.5" fill="#000" font-family="Helvetica,sans-Serif" font-size="10" text-anchor="middle">arm_compute</text></a></g></g><g id="edge1" class="edge"><title>dir_016fa5637888b23a90b93c4e98f1766c-&gt;dir_214608ef36d61442cb2b0c1c4e9a7def</title><path fill="none" stroke="#000" d="M43,-71.8314C43,-64.131 43,-54.9743 43,-46.4166"/><polygon fill="#000" stroke="#000" points="46.5 -46.413 43 -36.413 39.5 -46.413 46.5 -46.413"/><g id="a_edge1-headlabel"><a target="_top" xlink:href="dir_000116_000000.xhtml" xlink:title="6"><text x="49.339" y="-47.508" fill="#000" font-family="Helvetica,sans-Serif" font-size="10" text-anchor="middle">6</text></a></g></g></g></svg>