<svg xmlns="http://www.w3.org/2000/svg" xmlns:xlink="http://www.w3.org/1999/xlink" width="641pt" height="322pt" viewBox="0 0 640.83 322.48"><g id="graph0" class="graph" transform="scale(1 1) rotate(0) translate(4 318.4769)"><title>arm_compute/graph</title><polygon fill="#fff" stroke="transparent" points="-4 4 -4 -318.477 636.826 -318.477 636.826 4 -4 4"/><g id="clust1" class="cluster"><title>clusterdir_214608ef36d61442cb2b0c1c4e9a7def</title><g id="a_clust1"><a target="_top" xlink:href="dir_214608ef36d61442cb2b0c1c4e9a7def.xhtml" xlink:title="arm_compute"><polygon fill="#dde" stroke="#000" points="90.826 -128 90.826 -287 624.826 -287 624.826 -128 90.826 -128"/><text x="357.825" y="-275" fill="#000" font-family="Helvetica,sans-Serif" font-size="10" text-anchor="middle">arm_compute</text></a></g></g><g id="clust2" class="cluster"><title>clusterdir_99ae3712d1eecd2a93fc4d38b59a99ba</title><g id="a_clust2"><a target="_top" xlink:href="dir_99ae3712d1eecd2a93fc4d38b59a99ba.xhtml"><polygon fill="#eef" stroke="#000" points="98.826 -136 98.826 -260 616.826 -260 616.826 -136 98.826 -136"/></a></g></g><g id="node1" class="node"><title>dir_99ae3712d1eecd2a93fc4d38b59a99ba</title><text x="279.825" y="-231.5" fill="#000" font-family="Helvetica,sans-Serif" font-size="10" text-anchor="middle">graph</text></g><g id="node9" class="node"><title>dir_cbdb8362360e11eafe2fa3bc74cf0ffd</title><g id="a_node9"><a target="_top" xlink:href="dir_cbdb8362360e11eafe2fa3bc74cf0ffd.xhtml" xlink:title="utils"><polygon fill="#fff" stroke="red" points="54.825 -252 .826 -252 .826 -216 54.825 -216 54.825 -252"/><text x="27.826" y="-231.5" fill="#000" font-family="Helvetica,sans-Serif" font-size="10" text-anchor="middle">utils</text></a></g></g><g id="edge1" class="edge"><title>dir_99ae3712d1eecd2a93fc4d38b59a99ba-&gt;dir_cbdb8362360e11eafe2fa3bc74cf0ffd</title><path fill="none" stroke="#000" d="M274.096,-252.0384C267.5913,-269.1355 255.156,-293.8155 234.8255,-305 209.3193,-319.0318 130.9061,-315.6815 103.8255,-305 81.0826,-296.0294 61.1373,-276.6867 47.3922,-260.4529"/><polygon fill="#000" stroke="#000" points="49.808 -257.876 40.788 -252.319 44.374 -262.288 49.808 -257.876"/><g id="a_edge1-headlabel"><a target="_top" xlink:href="dir_000021_000027.xhtml" xlink:title="1"><text x="54.278" y="-256.377" fill="#000" font-family="Helvetica,sans-Serif" font-size="10" text-anchor="middle">1</text></a></g></g><g id="node2" class="node"><title>dir_d03e69479d487ec17de4c74c8d185b2d</title><g id="a_node2"><a target="_top" xlink:href="dir_d03e69479d487ec17de4c74c8d185b2d.xhtml" xlink:title="algorithms"><polygon fill="#fff" stroke="#000" points="530.826 -252 468.825 -252 468.825 -216 530.826 -216 530.826 -252"/><text x="499.825" y="-231.5" fill="#000" font-family="Helvetica,sans-Serif" font-size="10" text-anchor="middle">algorithms</text></a></g></g><g id="node3" class="node"><title>dir_59b2231210c554f4cc243709030bf1f8</title><g id="a_node3"><a target="_top" xlink:href="dir_59b2231210c554f4cc243709030bf1f8.xhtml" xlink:title="backends"><polygon fill="#fff" stroke="red" points="608.326 -252 549.326 -252 549.326 -216 608.326 -216 608.326 -252"/><text x="578.826" y="-231.5" fill="#000" font-family="Helvetica,sans-Serif" font-size="10" text-anchor="middle">backends</text></a></g></g><g id="node7" class="node"><title>dir_b30607d43e07fadf88f4c95a88a6c88e</title><g id="a_node7"><a target="_top" xlink:href="dir_b30607d43e07fadf88f4c95a88a6c88e.xhtml" xlink:title="nodes"><polygon fill="#fff" stroke="#000" points="474.825 -180 420.825 -180 420.825 -144 474.825 -144 474.825 -180"/><text x="447.825" y="-159.5" fill="#000" font-family="Helvetica,sans-Serif" font-size="10" text-anchor="middle">nodes</text></a></g></g><g id="edge10" class="edge"><title>dir_59b2231210c554f4cc243709030bf1f8-&gt;dir_b30607d43e07fadf88f4c95a88a6c88e</title><path fill="none" stroke="#000" d="M549.0995,-217.6621C529.8533,-207.084 504.6628,-193.2388 484.2202,-182.0032"/><polygon fill="#000" stroke="#000" points="485.649 -178.795 475.2 -177.046 482.278 -184.929 485.649 -178.795"/><g id="a_edge10-headlabel"><a target="_top" xlink:href="dir_000024_000040.xhtml" xlink:title="2"><text x="490.167" y="-175.538" fill="#000" font-family="Helvetica,sans-Serif" font-size="10" text-anchor="middle">2</text></a></g></g><g id="node10" class="node"><title>dir_8bc26130589aa16388b5a02f17abf2c2</title><g id="a_node10"><a target="_top" xlink:href="dir_8bc26130589aa16388b5a02f17abf2c2.xhtml" xlink:title="runtime"><polygon fill="#fff" stroke="red" points="82.826 -180 28.826 -180 28.826 -144 82.826 -144 82.826 -180"/><text x="55.825" y="-159.5" fill="#000" font-family="Helvetica,sans-Serif" font-size="10" text-anchor="middle">runtime</text></a></g></g><g id="edge8" class="edge"><title>dir_59b2231210c554f4cc243709030bf1f8-&gt;dir_8bc26130589aa16388b5a02f17abf2c2</title><path fill="none" stroke="#000" d="M548.9812,-218.9607C545.9402,-217.8133 542.855,-216.7948 539.8255,-216 347.8965,-165.648 286.7544,-230.352 94.8255,-180 94.0952,-179.8084 93.3616,-179.6038 92.6262,-179.3875"/><polygon fill="#000" stroke="#000" points="93.671 -176.045 83.076 -176.026 91.347 -182.648 93.671 -176.045"/><g id="a_edge8-headlabel"><a target="_top" xlink:href="dir_000024_000023.xhtml" xlink:title="13"><text x="98.004" y="-172.06" fill="#000" font-family="Helvetica,sans-Serif" font-size="10" text-anchor="middle">13</text></a></g></g><g id="node11" class="node"><title>dir_1fb090f0c6070330bfaccc4236d3ca0d</title><g id="a_node11"><a target="_top" xlink:href="dir_1fb090f0c6070330bfaccc4236d3ca0d.xhtml" xlink:title="core"><polygon fill="#fff" stroke="red" points="220.826 -108 166.826 -108 166.826 -72 220.826 -72 220.826 -108"/><text x="193.826" y="-87.5" fill="#000" font-family="Helvetica,sans-Serif" font-size="10" text-anchor="middle">core</text></a></g></g><g id="edge9" class="edge"><title>dir_59b2231210c554f4cc243709030bf1f8-&gt;dir_1fb090f0c6070330bfaccc4236d3ca0d</title><path fill="none" stroke="#000" d="M568.3225,-215.7748C553.1199,-191.2626 522.5177,-148.3991 483.8255,-128 440.7627,-105.2967 299.5201,-95.285 231.3275,-91.6894"/><polygon fill="#000" stroke="#000" points="231.201 -88.178 221.036 -91.166 230.846 -95.169 231.201 -88.178"/><g id="a_edge9-headlabel"><a target="_top" xlink:href="dir_000024_000001.xhtml" xlink:title="10"><text x="234.935" y="-83.025" fill="#000" font-family="Helvetica,sans-Serif" font-size="10" text-anchor="middle">10</text></a></g></g><g id="node12" class="node"><title>dir_5815af820a9cc9481f1d0990a0d60286</title><g id="a_node12"><a target="_top" xlink:href="dir_5815af820a9cc9481f1d0990a0d60286.xhtml" xlink:title="support"><polygon fill="none" stroke="#000" points="114.826 -36 60.825 -36 60.825 0 114.826 0 114.826 -36"/><text x="87.826" y="-15.5" fill="#000" font-family="Helvetica,sans-Serif" font-size="10" text-anchor="middle">support</text></a></g></g><g id="edge11" class="edge"><title>dir_59b2231210c554f4cc243709030bf1f8-&gt;dir_5815af820a9cc9481f1d0990a0d60286</title><path fill="none" stroke="#000" d="M574.697,-215.6506C568.3581,-191.8007 553.8997,-150.5451 525.8255,-128 462.9994,-77.5472 218.6983,-37.1995 124.8396,-23.255"/><polygon fill="#000" stroke="#000" points="125.339 -19.791 114.936 -21.799 124.32 -26.716 125.339 -19.791"/><g id="a_edge11-headlabel"><a target="_top" xlink:href="dir_000024_000119.xhtml" xlink:title="1"><text x="129.308" y="-15.005" fill="#000" font-family="Helvetica,sans-Serif" font-size="10" text-anchor="middle">1</text></a></g></g><g id="node4" class="node"><title>dir_7d9e792b56b44fd84901d9e18064c5a8</title><g id="a_node4"><a target="_top" xlink:href="dir_7d9e792b56b44fd84901d9e18064c5a8.xhtml" xlink:title="detail"><polygon fill="#fff" stroke="#000" points="378.825 -252 324.825 -252 324.825 -216 378.825 -216 378.825 -252"/><text x="351.825" y="-231.5" fill="#000" font-family="Helvetica,sans-Serif" font-size="10" text-anchor="middle">detail</text></a></g></g><g id="node5" class="node"><title>dir_7526be4d1cfecb7bc660fdbdb8633223</title><g id="a_node5"><a target="_top" xlink:href="dir_7526be4d1cfecb7bc660fdbdb8633223.xhtml" xlink:title="frontend"><polygon fill="#fff" stroke="#000" points="450.825 -252 396.825 -252 396.825 -216 450.825 -216 450.825 -252"/><text x="423.825" y="-231.5" fill="#000" font-family="Helvetica,sans-Serif" font-size="10" text-anchor="middle">frontend</text></a></g></g><g id="edge13" class="edge"><title>dir_7526be4d1cfecb7bc660fdbdb8633223-&gt;dir_1fb090f0c6070330bfaccc4236d3ca0d</title><path fill="none" stroke="#000" d="M396.5383,-216.9158C354.9529,-190.8798 275.6928,-141.2561 229.5642,-112.3756"/><polygon fill="#000" stroke="#000" points="231.41 -109.402 221.077 -107.062 227.696 -115.335 231.41 -109.402"/><g id="a_edge13-headlabel"><a target="_top" xlink:href="dir_000022_000001.xhtml" xlink:title="1"><text x="235.964" y="-106.403" fill="#000" font-family="Helvetica,sans-Serif" font-size="10" text-anchor="middle">1</text></a></g></g><g id="node6" class="node"><title>dir_bd82036549cb2b9c5b3542d0a5df616a</title><g id="a_node6"><a target="_top" xlink:href="dir_bd82036549cb2b9c5b3542d0a5df616a.xhtml" xlink:title="mutators"><polygon fill="#fff" stroke="#000" points="234.326 -252 179.326 -252 179.326 -216 234.326 -216 234.326 -252"/><text x="206.826" y="-231.5" fill="#000" font-family="Helvetica,sans-Serif" font-size="10" text-anchor="middle">mutators</text></a></g></g><g id="edge14" class="edge"><title>dir_b30607d43e07fadf88f4c95a88a6c88e-&gt;dir_1fb090f0c6070330bfaccc4236d3ca0d</title><path fill="none" stroke="#000" d="M420.6228,-149.6598C404.3786,-142.6275 383.2005,-134.0414 363.8255,-128 318.9532,-114.0082 265.906,-102.9993 231.1495,-96.5086"/><polygon fill="#000" stroke="#000" points="231.447 -93.005 220.98 -94.641 230.183 -99.89 231.447 -93.005"/><g id="a_edge14-headlabel"><a target="_top" xlink:href="dir_000040_000001.xhtml" xlink:title="1"><text x="235.496" y="-88.361" fill="#000" font-family="Helvetica,sans-Serif" font-size="10" text-anchor="middle">1</text></a></g></g><g id="node8" class="node"><title>dir_6013eaf2dfd46ef85ec5f8d403ae0adb</title><g id="a_node8"><a target="_top" xlink:href="dir_6013eaf2dfd46ef85ec5f8d403ae0adb.xhtml" xlink:title="printers"><polygon fill="#fff" stroke="#000" points="160.826 -252 106.826 -252 106.826 -216 160.826 -216 160.826 -252"/><text x="133.826" y="-231.5" fill="#000" font-family="Helvetica,sans-Serif" font-size="10" text-anchor="middle">printers</text></a></g></g><g id="edge2" class="edge"><title>dir_cbdb8362360e11eafe2fa3bc74cf0ffd-&gt;dir_99ae3712d1eecd2a93fc4d38b59a99ba</title><path fill="none" stroke="#000" d="M40.7876,-252.3185C54.2689,-269.6283 77.1183,-294.4658 103.8255,-305 130.9061,-315.6815 209.3193,-319.0318 234.8255,-305 251.6617,-295.7378 263.0834,-277.2206 270.2065,-261.4191"/><polygon fill="#000" stroke="#000" points="273.499 -262.616 274.096 -252.038 267.033 -259.935 273.499 -262.616"/><g id="a_edge2-headlabel"><a target="_top" xlink:href="dir_000027_000021.xhtml" xlink:title="8"><text x="274.745" y="-264.524" fill="#000" font-family="Helvetica,sans-Serif" font-size="10" text-anchor="middle">8</text></a></g></g><g id="edge3" class="edge"><title>dir_cbdb8362360e11eafe2fa3bc74cf0ffd-&gt;dir_8bc26130589aa16388b5a02f17abf2c2</title><path fill="none" stroke="#000" d="M34.8911,-215.8314C37.9515,-207.9617 41.6034,-198.5712 44.9936,-189.8533"/><polygon fill="#000" stroke="#000" points="48.302 -191.002 48.665 -180.413 41.778 -188.465 48.302 -191.002"/><g id="a_edge3-headlabel"><a target="_top" xlink:href="dir_000027_000023.xhtml" xlink:title="3"><text x="49.646" y="-192.881" fill="#000" font-family="Helvetica,sans-Serif" font-size="10" text-anchor="middle">3</text></a></g></g><g id="edge4" class="edge"><title>dir_cbdb8362360e11eafe2fa3bc74cf0ffd-&gt;dir_1fb090f0c6070330bfaccc4236d3ca0d</title><path fill="none" stroke="#000" d="M19.5335,-215.64C10.4951,-192.5335 -.1978,-152.8681 19.8255,-128 36.6465,-107.109 110.5787,-97.0813 156.4907,-92.7874"/><polygon fill="#000" stroke="#000" points="157.017 -96.255 166.669 -91.886 156.399 -89.282 157.017 -96.255"/><g id="a_edge4-headlabel"><a target="_top" xlink:href="dir_000027_000001.xhtml" xlink:title="25"><text x="153.687" y="-96.9" fill="#000" font-family="Helvetica,sans-Serif" font-size="10" text-anchor="middle">25</text></a></g></g><g id="edge5" class="edge"><title>dir_cbdb8362360e11eafe2fa3bc74cf0ffd-&gt;dir_5815af820a9cc9481f1d0990a0d60286</title><path fill="none" stroke="#000" d="M17.8019,-215.6094C12.8274,-205.4366 7.3522,-192.3803 4.8255,-180 .2039,-157.3557 -2.5147,-149.9145 4.8255,-128 15.8077,-95.2122 40.8462,-64.3839 60.5683,-43.754"/><polygon fill="#000" stroke="#000" points="63.316 -45.951 67.826 -36.364 58.322 -41.046 63.316 -45.951"/><g id="a_edge5-headlabel"><a target="_top" xlink:href="dir_000027_000119.xhtml" xlink:title="3"><text x="62.823" y="-48.005" fill="#000" font-family="Helvetica,sans-Serif" font-size="10" text-anchor="middle">3</text></a></g></g><g id="edge6" class="edge"><title>dir_8bc26130589aa16388b5a02f17abf2c2-&gt;dir_1fb090f0c6070330bfaccc4236d3ca0d</title><path fill="none" stroke="#000" d="M73.8273,-143.9686C80.1055,-138.3394 87.437,-132.4465 94.8255,-128 114.1682,-116.3592 137.6955,-107.1515 156.9604,-100.7168"/><polygon fill="#000" stroke="#000" points="158.159 -104.008 166.601 -97.606 156.01 -97.346 158.159 -104.008"/><g id="a_edge6-headlabel"><a target="_top" xlink:href="dir_000023_000001.xhtml" xlink:title="517"><text x="155.61" y="-105.314" fill="#000" font-family="Helvetica,sans-Serif" font-size="10" text-anchor="middle">517</text></a></g></g><g id="edge7" class="edge"><title>dir_8bc26130589aa16388b5a02f17abf2c2-&gt;dir_5815af820a9cc9481f1d0990a0d60286</title><path fill="none" stroke="#000" d="M59.8783,-143.7623C65.3604,-119.0928 75.19,-74.8598 81.6092,-45.9731"/><polygon fill="#000" stroke="#000" points="85.053 -46.611 83.806 -36.09 78.219 -45.092 85.053 -46.611"/><g id="a_edge7-headlabel"><a target="_top" xlink:href="dir_000023_000119.xhtml" xlink:title="4"><text x="87.045" y="-48.236" fill="#000" font-family="Helvetica,sans-Serif" font-size="10" text-anchor="middle">4</text></a></g></g><g id="edge12" class="edge"><title>dir_1fb090f0c6070330bfaccc4236d3ca0d-&gt;dir_5815af820a9cc9481f1d0990a0d60286</title><path fill="none" stroke="#000" d="M167.0772,-71.8314C153.7702,-62.7927 137.5095,-51.7476 123.188,-42.0198"/><polygon fill="#000" stroke="#000" points="124.804 -38.886 114.565 -36.163 120.871 -44.677 124.804 -38.886"/><g id="a_edge12-headlabel"><a target="_top" xlink:href="dir_000001_000119.xhtml" xlink:title="13"><text x="129.373" y="-36.057" fill="#000" font-family="Helvetica,sans-Serif" font-size="10" text-anchor="middle">13</text></a></g></g></g></svg>