<svg xmlns="http://www.w3.org/2000/svg" xmlns:xlink="http://www.w3.org/1999/xlink" width="182pt" height="212" viewBox="0 0 182 159"><g id="graph0" class="graph" transform="scale(1 1) rotate(0) translate(4 155)"><title>src/core/CPP</title><polygon fill="#fff" stroke="transparent" points="-4 4 -4 -155 178 -155 178 4 -4 4"/><g id="clust1" class="cluster"><title>clusterdir_aebb8dcc11953d78e620bbef0b9e2183</title><g id="a_clust1"><a target="_top" xlink:href="dir_aebb8dcc11953d78e620bbef0b9e2183.xhtml" xlink:title="core"><polygon fill="#dde" stroke="#000" points="8 -56 8 -143 166 -143 166 -56 8 -56"/><text x="87" y="-131" fill="#000" font-family="Helvetica,sans-Serif" font-size="10" text-anchor="middle">core</text></a></g></g><g id="clust2" class="cluster"><title>clusterdir_1d7cadfed01c895b25460177608d44e9</title><g id="a_clust2"><a target="_top" xlink:href="dir_1d7cadfed01c895b25460177608d44e9.xhtml"><polygon fill="#eef" stroke="#000" points="16 -64 16 -116 158 -116 158 -64 16 -64"/></a></g></g><g id="node1" class="node"><title>dir_1d7cadfed01c895b25460177608d44e9</title><text x="123" y="-87.5" fill="#000" font-family="Helvetica,sans-Serif" font-size="10" text-anchor="middle">CPP</text></g><g id="node3" class="node"><title>dir_214608ef36d61442cb2b0c1c4e9a7def</title><g id="a_node3"><a target="_top" xlink:href="dir_214608ef36d61442cb2b0c1c4e9a7def.xhtml" xlink:title="arm_compute"><polygon fill="#fff" stroke="red" points="125 -36 49 -36 49 0 125 0 125 -36"/><text x="87" y="-15.5" fill="#000" font-family="Helvetica,sans-Serif" font-size="10" text-anchor="middle">arm_compute</text></a></g></g><g id="edge2" class="edge"><title>dir_1d7cadfed01c895b25460177608d44e9-&gt;dir_214608ef36d61442cb2b0c1c4e9a7def</title><path fill="none" stroke="#000" d="M113.9157,-71.8314C109.9385,-63.8771 105.1845,-54.369 100.7861,-45.5723"/><polygon fill="#000" stroke="#000" points="103.809 -43.792 96.207 -36.413 97.548 -46.923 103.809 -43.792"/><g id="a_edge2-headlabel"><a target="_top" xlink:href="dir_000055_000000.xhtml" xlink:title="55"><text x="107.956" y="-43.238" fill="#000" font-family="Helvetica,sans-Serif" font-size="10" text-anchor="middle">55</text></a></g></g><g id="node2" class="node"><title>dir_7c33ef795f818fa46460e86a2608dc00</title><g id="a_node2"><a target="_top" xlink:href="dir_7c33ef795f818fa46460e86a2608dc00.xhtml" xlink:title="kernels"><polygon fill="#fff" stroke="#000" points="78 -108 24 -108 24 -72 78 -72 78 -108"/><text x="51" y="-87.5" fill="#000" font-family="Helvetica,sans-Serif" font-size="10" text-anchor="middle">kernels</text></a></g></g><g id="edge1" class="edge"><title>dir_7c33ef795f818fa46460e86a2608dc00-&gt;dir_214608ef36d61442cb2b0c1c4e9a7def</title><path fill="none" stroke="#000" d="M60.0843,-71.8314C64.0615,-63.8771 68.8155,-54.369 73.2139,-45.5723"/><polygon fill="#000" stroke="#000" points="76.452 -46.923 77.793 -36.413 70.191 -43.792 76.452 -46.923"/><g id="a_edge1-headlabel"><a target="_top" xlink:href="dir_000056_000000.xhtml" xlink:title="49"><text x="77.384" y="-48.908" fill="#000" font-family="Helvetica,sans-Serif" font-size="10" text-anchor="middle">49</text></a></g></g></g></svg>