<svg xmlns="http://www.w3.org/2000/svg" xmlns:xlink="http://www.w3.org/1999/xlink" width="352" height="244" viewBox="0 0 264 183"><g id="graph0" class="graph" transform="scale(1 1) rotate(0) translate(4 179)"><title>src/core/NEON/kernels/arm_gemm</title><polygon fill="#fff" stroke="transparent" points="-4 4 -4 -179 260 -179 260 4 -4 4"/><g id="clust1" class="cluster"><title>clusterdir_1ce938f580a6f304b99685e2c1dd19db</title><g id="a_clust1"><a target="_top" xlink:href="dir_1ce938f580a6f304b99685e2c1dd19db.xhtml" xlink:title="kernels"><polygon fill="#dde" stroke="#000" points="8 -8 8 -167 248 -167 248 -8 8 -8"/><text x="128" y="-155" fill="#000" font-family="Helvetica,sans-Serif" font-size="10" text-anchor="middle">kernels</text></a></g></g><g id="clust2" class="cluster"><title>clusterdir_9847dd9cb7a28e46201717fa7336cf62</title><g id="a_clust2"><a target="_top" xlink:href="dir_9847dd9cb7a28e46201717fa7336cf62.xhtml"><polygon fill="#eef" stroke="#000" points="16 -16 16 -140 240 -140 240 -16 16 -16"/></a></g></g><g id="node1" class="node"><title>dir_9847dd9cb7a28e46201717fa7336cf62</title><text x="123" y="-111.5" fill="#000" font-family="Helvetica,sans-Serif" font-size="10" text-anchor="middle">arm_gemm</text></g><g id="node2" class="node"><title>dir_1bfffff844e6b15c54f06f69450095a2</title><g id="a_node2"><a target="_top" xlink:href="dir_1bfffff844e6b15c54f06f69450095a2.xhtml" xlink:title="kernels"><polygon fill="#fff" stroke="red" points="78 -60 24 -60 24 -24 78 -24 78 -60"/><text x="51" y="-39.5" fill="#000" font-family="Helvetica,sans-Serif" font-size="10" text-anchor="middle">kernels</text></a></g></g><g id="edge1" class="edge"><title>dir_9847dd9cb7a28e46201717fa7336cf62-&gt;dir_1bfffff844e6b15c54f06f69450095a2</title><path fill="none" stroke="#000" d="M104.8314,-95.8314C96.2848,-87.2848 85.9443,-76.9443 76.6198,-67.6198"/><polygon fill="#000" stroke="#000" points="78.959 -65.01 69.413 -60.413 74.01 -69.959 78.959 -65.01"/><g id="a_edge1-headlabel"><a target="_top" xlink:href="dir_000064_000065.xhtml" xlink:title="6"><text x="83.509" y="-63.044" fill="#000" font-family="Helvetica,sans-Serif" font-size="10" text-anchor="middle">6</text></a></g></g><g id="node3" class="node"><title>dir_736b7cb5ae91601e9fac1dc1b70c4612</title><g id="a_node3"><a target="_top" xlink:href="dir_736b7cb5ae91601e9fac1dc1b70c4612.xhtml" xlink:title="merges"><polygon fill="#fff" stroke="#000" points="150 -60 96 -60 96 -24 150 -24 150 -60"/><text x="123" y="-39.5" fill="#000" font-family="Helvetica,sans-Serif" font-size="10" text-anchor="middle">merges</text></a></g></g><g id="edge3" class="edge"><title>dir_9847dd9cb7a28e46201717fa7336cf62-&gt;dir_736b7cb5ae91601e9fac1dc1b70c4612</title><path fill="none" stroke="#000" d="M123,-95.8314C123,-88.131 123,-78.9743 123,-70.4166"/><polygon fill="#000" stroke="#000" points="126.5 -70.413 123 -60.413 119.5 -70.413 126.5 -70.413"/><g id="a_edge3-headlabel"><a target="_top" xlink:href="dir_000064_000082.xhtml" xlink:title="1"><text x="129.339" y="-71.508" fill="#000" font-family="Helvetica,sans-Serif" font-size="10" text-anchor="middle">1</text></a></g></g><g id="node4" class="node"><title>dir_f11c7bbf76b3b5417003d346f29c89d2</title><g id="a_node4"><a target="_top" xlink:href="dir_f11c7bbf76b3b5417003d346f29c89d2.xhtml" xlink:title="transforms"><polygon fill="#fff" stroke="#000" points="231.5 -60 168.5 -60 168.5 -24 231.5 -24 231.5 -60"/><text x="200" y="-39.5" fill="#000" font-family="Helvetica,sans-Serif" font-size="10" text-anchor="middle">transforms</text></a></g></g><g id="edge2" class="edge"><title>dir_9847dd9cb7a28e46201717fa7336cf62-&gt;dir_f11c7bbf76b3b5417003d346f29c89d2</title><path fill="none" stroke="#000" d="M142.4304,-95.8314C151.732,-87.1337 163.0204,-76.5783 173.1286,-67.1265"/><polygon fill="#000" stroke="#000" points="175.662 -69.549 180.576 -60.163 170.881 -64.436 175.662 -69.549"/><g id="a_edge2-headlabel"><a target="_top" xlink:href="dir_000064_000083.xhtml" xlink:title="1"><text x="174.976" y="-71.578" fill="#000" font-family="Helvetica,sans-Serif" font-size="10" text-anchor="middle">1</text></a></g></g></g></svg>