<svg xmlns="http://www.w3.org/2000/svg" xmlns:xlink="http://www.w3.org/1999/xlink" width="163pt" height="223pt" viewBox="0 0 163 223"><g id="graph0" class="graph" transform="scale(1 1) rotate(0) translate(4 219)"><title>tests/framework/command_line</title><polygon fill="#fff" stroke="transparent" points="-4 4 -4 -219 159 -219 159 4 -4 4"/><g id="clust1" class="cluster"><title>clusterdir_9e71e2da941d3cafc4d98a9f6ae3de4f</title><g id="a_clust1"><a target="_top" xlink:href="dir_9e71e2da941d3cafc4d98a9f6ae3de4f.xhtml" xlink:title="framework"><polygon fill="#dde" stroke="#000" points="51 -136 51 -207 147 -207 147 -136 51 -136"/><text x="99" y="-195" fill="#000" font-family="Helvetica,sans-Serif" font-size="10" text-anchor="middle">framework</text></a></g></g><g id="node1" class="node"><title>dir_d247c927d0dc22626cf668ab2bd7f080</title><g id="a_node1"><a target="_top" xlink:href="dir_d247c927d0dc22626cf668ab2bd7f080.xhtml" xlink:title="command_line"><polygon fill="#eef" stroke="#000" points="139 -180 59 -180 59 -144 139 -144 139 -180"/><text x="99" y="-159.5" fill="#000" font-family="Helvetica,sans-Serif" font-size="10" text-anchor="middle">command_line</text></a></g></g><g id="node2" class="node"><title>dir_68cb0bded1cc5601c88ddaacbb31e482</title><g id="a_node2"><a target="_top" xlink:href="dir_68cb0bded1cc5601c88ddaacbb31e482.xhtml" xlink:title="printers"><polygon fill="none" stroke="#000" points="54 -108 0 -108 0 -72 54 -72 54 -108"/><text x="27" y="-87.5" fill="#000" font-family="Helvetica,sans-Serif" font-size="10" text-anchor="middle">printers</text></a></g></g><g id="edge2" class="edge"><title>dir_d247c927d0dc22626cf668ab2bd7f080-&gt;dir_68cb0bded1cc5601c88ddaacbb31e482</title><path fill="none" stroke="#000" d="M80.8314,-143.8314C72.2848,-135.2848 61.9443,-124.9443 52.6198,-115.6198"/><polygon fill="#000" stroke="#000" points="54.959 -113.01 45.413 -108.413 50.01 -117.959 54.959 -113.01"/><g id="a_edge2-headlabel"><a target="_top" xlink:href="dir_000123_000031.xhtml" xlink:title="1"><text x="59.509" y="-111.044" fill="#000" font-family="Helvetica,sans-Serif" font-size="10" text-anchor="middle">1</text></a></g></g><g id="node3" class="node"><title>dir_cbdb8362360e11eafe2fa3bc74cf0ffd</title><g id="a_node3"><a target="_top" xlink:href="dir_cbdb8362360e11eafe2fa3bc74cf0ffd.xhtml" xlink:title="utils"><polygon fill="#fff" stroke="red" points="126 -108 72 -108 72 -72 126 -72 126 -108"/><text x="99" y="-87.5" fill="#000" font-family="Helvetica,sans-Serif" font-size="10" text-anchor="middle">utils</text></a></g></g><g id="edge3" class="edge"><title>dir_d247c927d0dc22626cf668ab2bd7f080-&gt;dir_cbdb8362360e11eafe2fa3bc74cf0ffd</title><path fill="none" stroke="#000" d="M99,-143.8314C99,-136.131 99,-126.9743 99,-118.4166"/><polygon fill="#000" stroke="#000" points="102.5 -118.413 99 -108.413 95.5 -118.413 102.5 -118.413"/><g id="a_edge3-headlabel"><a target="_top" xlink:href="dir_000123_000027.xhtml" xlink:title="2"><text x="105.339" y="-119.508" fill="#000" font-family="Helvetica,sans-Serif" font-size="10" text-anchor="middle">2</text></a></g></g><g id="node4" class="node"><title>dir_4efd0ee2ecda32567e74991b08d544ea</title><g id="a_node4"><a target="_top" xlink:href="dir_4efd0ee2ecda32567e74991b08d544ea.xhtml" xlink:title="instruments"><polygon fill="none" stroke="#000" points="124 -36 56 -36 56 0 124 0 124 -36"/><text x="90" y="-15.5" fill="#000" font-family="Helvetica,sans-Serif" font-size="10" text-anchor="middle">instruments</text></a></g></g><g id="edge4" class="edge"><title>dir_d247c927d0dc22626cf668ab2bd7f080-&gt;dir_4efd0ee2ecda32567e74991b08d544ea</title><path fill="none" stroke="#000" d="M114.9905,-143.9169C122.6538,-134.0371 131.0166,-121.1563 135,-108 139.6365,-92.6865 140.4468,-87.0443 135,-72 131.2851,-61.7392 124.6748,-52.0579 117.6452,-43.8033"/><polygon fill="#000" stroke="#000" points="120.18 -41.389 110.858 -36.354 115.006 -46.103 120.18 -41.389"/><g id="a_edge4-headlabel"><a target="_top" xlink:href="dir_000123_000125.xhtml" xlink:title="1"><text x="124.7" y="-39.633" fill="#000" font-family="Helvetica,sans-Serif" font-size="10" text-anchor="middle">1</text></a></g></g><g id="edge1" class="edge"><title>dir_68cb0bded1cc5601c88ddaacbb31e482-&gt;dir_4efd0ee2ecda32567e74991b08d544ea</title><path fill="none" stroke="#000" d="M42.8976,-71.8314C50.2278,-63.454 59.066,-53.3531 67.0969,-44.1749"/><polygon fill="#000" stroke="#000" points="69.937 -46.244 73.888 -36.413 64.669 -41.634 69.937 -46.244"/><g id="a_edge1-headlabel"><a target="_top" xlink:href="dir_000031_000125.xhtml" xlink:title="3"><text x="69.707" y="-48.319" fill="#000" font-family="Helvetica,sans-Serif" font-size="10" text-anchor="middle">3</text></a></g></g></g></svg>