<svg xmlns="http://www.w3.org/2000/svg" xmlns:xlink="http://www.w3.org/1999/xlink" width="128" height="151pt" viewBox="0 0 96 151"><g id="graph0" class="graph" transform="scale(1 1) rotate(0) translate(4 147)"><title>arm_compute/runtime/CPP/functions</title><polygon fill="#fff" stroke="transparent" points="-4 4 -4 -147 92 -147 92 4 -4 4"/><g id="clust1" class="cluster"><title>clusterdir_b496024afd63bafbf4e8da80d7d3a81a</title><g id="a_clust1"><a target="_top" xlink:href="dir_b496024afd63bafbf4e8da80d7d3a81a.xhtml" xlink:title="CPP"><polygon fill="#dde" stroke="#000" points="8 -64 8 -135 80 -135 80 -64 8 -64"/><text x="44" y="-123" fill="#000" font-family="Helvetica,sans-Serif" font-size="10" text-anchor="middle">CPP</text></a></g></g><g id="node1" class="node"><title>dir_0f1ff859406f1a8b0006aceabacdc4c4</title><g id="a_node1"><a target="_top" xlink:href="dir_0f1ff859406f1a8b0006aceabacdc4c4.xhtml" xlink:title="functions"><polygon fill="#eef" stroke="#000" points="72 -108 16 -108 16 -72 72 -72 72 -108"/><text x="44" y="-87.5" fill="#000" font-family="Helvetica,sans-Serif" font-size="10" text-anchor="middle">functions</text></a></g></g><g id="node2" class="node"><title>dir_1fb090f0c6070330bfaccc4236d3ca0d</title><g id="a_node2"><a target="_top" xlink:href="dir_1fb090f0c6070330bfaccc4236d3ca0d.xhtml" xlink:title="core"><polygon fill="#fff" stroke="red" points="71 -36 17 -36 17 0 71 0 71 -36"/><text x="44" y="-15.5" fill="#000" font-family="Helvetica,sans-Serif" font-size="10" text-anchor="middle">core</text></a></g></g><g id="edge1" class="edge"><title>dir_0f1ff859406f1a8b0006aceabacdc4c4-&gt;dir_1fb090f0c6070330bfaccc4236d3ca0d</title><path fill="none" stroke="#000" d="M44,-71.8314C44,-64.131 44,-54.9743 44,-46.4166"/><polygon fill="#000" stroke="#000" points="47.5 -46.413 44 -36.413 40.5 -46.413 47.5 -46.413"/><g id="a_edge1-headlabel"><a target="_top" xlink:href="dir_000046_000001.xhtml" xlink:title="3"><text x="50.339" y="-47.508" fill="#000" font-family="Helvetica,sans-Serif" font-size="10" text-anchor="middle">3</text></a></g></g></g></svg>