<svg xmlns="http://www.w3.org/2000/svg" xmlns:xlink="http://www.w3.org/1999/xlink" width="220pt" height="308" viewBox="0 0 220 231"><g id="graph0" class="graph" transform="scale(1 1) rotate(0) translate(4 227)"><title>arm_compute/runtime/NEON/functions</title><polygon fill="#fff" stroke="transparent" points="-4 4 -4 -227 216 -227 216 4 -4 4"/><g id="clust1" class="cluster"><title>clusterdir_65e289039e1347f87d412b0a1b1a312c</title><g id="a_clust1"><a target="_top" xlink:href="dir_65e289039e1347f87d412b0a1b1a312c.xhtml" xlink:title="NEON"><polygon fill="#dde" stroke="#000" points="8 -128 8 -215 174 -215 174 -128 8 -128"/><text x="91" y="-203" fill="#000" font-family="Helvetica,sans-Serif" font-size="10" text-anchor="middle">NEON</text></a></g></g><g id="clust2" class="cluster"><title>clusterdir_345bd7154d1542d1e03fd2836959a19d</title><g id="a_clust2"><a target="_top" xlink:href="dir_345bd7154d1542d1e03fd2836959a19d.xhtml"><polygon fill="#eef" stroke="#000" points="16 -136 16 -188 166 -188 166 -136 16 -136"/></a></g></g><g id="node1" class="node"><title>dir_345bd7154d1542d1e03fd2836959a19d</title><text x="130" y="-159.5" fill="#000" font-family="Helvetica,sans-Serif" font-size="10" text-anchor="middle">functions</text></g><g id="node3" class="node"><title>dir_b496024afd63bafbf4e8da80d7d3a81a</title><g id="a_node3"><a target="_top" xlink:href="dir_b496024afd63bafbf4e8da80d7d3a81a.xhtml" xlink:title="CPP"><polygon fill="#fff" stroke="red" points="102 -108 48 -108 48 -72 102 -72 102 -108"/><text x="75" y="-87.5" fill="#000" font-family="Helvetica,sans-Serif" font-size="10" text-anchor="middle">CPP</text></a></g></g><g id="edge1" class="edge"><title>dir_345bd7154d1542d1e03fd2836959a19d-&gt;dir_b496024afd63bafbf4e8da80d7d3a81a</title><path fill="none" stroke="#000" d="M116.1212,-143.8314C109.7864,-135.5386 102.1616,-125.557 95.2074,-116.4533"/><polygon fill="#000" stroke="#000" points="97.918 -114.235 89.066 -108.413 92.355 -118.485 97.918 -114.235"/><g id="a_edge1-headlabel"><a target="_top" xlink:href="dir_000050_000045.xhtml" xlink:title="2"><text x="102.356" y="-112.868" fill="#000" font-family="Helvetica,sans-Serif" font-size="10" text-anchor="middle">2</text></a></g></g><g id="node4" class="node"><title>dir_1fb090f0c6070330bfaccc4236d3ca0d</title><g id="a_node4"><a target="_top" xlink:href="dir_1fb090f0c6070330bfaccc4236d3ca0d.xhtml" xlink:title="core"><polygon fill="#fff" stroke="red" points="157 -36 103 -36 103 0 157 0 157 -36"/><text x="130" y="-15.5" fill="#000" font-family="Helvetica,sans-Serif" font-size="10" text-anchor="middle">core</text></a></g></g><g id="edge2" class="edge"><title>dir_345bd7154d1542d1e03fd2836959a19d-&gt;dir_1fb090f0c6070330bfaccc4236d3ca0d</title><path fill="none" stroke="#000" d="M130,-143.7623C130,-119.201 130,-75.2474 130,-46.3541"/><polygon fill="#000" stroke="#000" points="133.5 -46.09 130 -36.09 126.5 -46.09 133.5 -46.09"/><g id="a_edge2-headlabel"><a target="_top" xlink:href="dir_000050_000001.xhtml" xlink:title="179"><text x="136.339" y="-47.184" fill="#000" font-family="Helvetica,sans-Serif" font-size="10" text-anchor="middle">179</text></a></g></g><g id="node5" class="node"><title>dir_b9621ae687ab229876c54f8c2df20e15</title><g id="a_node5"><a target="_top" xlink:href="dir_b9621ae687ab229876c54f8c2df20e15.xhtml" xlink:title="common"><polygon fill="none" stroke="#000" points="212 -108 158 -108 158 -72 212 -72 212 -108"/><text x="185" y="-87.5" fill="#000" font-family="Helvetica,sans-Serif" font-size="10" text-anchor="middle">common</text></a></g></g><g id="edge3" class="edge"><title>dir_345bd7154d1542d1e03fd2836959a19d-&gt;dir_b9621ae687ab229876c54f8c2df20e15</title><path fill="none" stroke="#000" d="M143.8788,-143.8314C150.2136,-135.5386 157.8384,-125.557 164.7926,-116.4533"/><polygon fill="#000" stroke="#000" points="167.645 -118.485 170.934 -108.413 162.083 -114.235 167.645 -118.485"/><g id="a_edge3-headlabel"><a target="_top" xlink:href="dir_000050_000044.xhtml" xlink:title="1"><text x="167.72" y="-120.565" fill="#000" font-family="Helvetica,sans-Serif" font-size="10" text-anchor="middle">1</text></a></g></g><g id="node2" class="node"><title>dir_5cc15eabebeaf52b5630c3e40d7a7661</title><g id="a_node2"><a target="_top" xlink:href="dir_5cc15eabebeaf52b5630c3e40d7a7661.xhtml" xlink:title="assembly"><polygon fill="#fff" stroke="#000" points="83.5 -180 24.5 -180 24.5 -144 83.5 -144 83.5 -180"/><text x="54" y="-159.5" fill="#000" font-family="Helvetica,sans-Serif" font-size="10" text-anchor="middle">assembly</text></a></g></g><g id="edge4" class="edge"><title>dir_b496024afd63bafbf4e8da80d7d3a81a-&gt;dir_1fb090f0c6070330bfaccc4236d3ca0d</title><path fill="none" stroke="#000" d="M88.8788,-71.8314C95.2136,-63.5386 102.8384,-53.557 109.7926,-44.4533"/><polygon fill="#000" stroke="#000" points="112.645 -46.485 115.934 -36.413 107.082 -42.235 112.645 -46.485"/><g id="a_edge4-headlabel"><a target="_top" xlink:href="dir_000045_000001.xhtml" xlink:title="4"><text x="112.719" y="-48.565" fill="#000" font-family="Helvetica,sans-Serif" font-size="10" text-anchor="middle">4</text></a></g></g><g id="edge5" class="edge"><title>dir_b9621ae687ab229876c54f8c2df20e15-&gt;dir_1fb090f0c6070330bfaccc4236d3ca0d</title><path fill="none" stroke="#000" d="M171.1212,-71.8314C164.7864,-63.5386 157.1616,-53.557 150.2074,-44.4533"/><polygon fill="#000" stroke="#000" points="152.917 -42.235 144.066 -36.413 147.355 -46.485 152.917 -42.235"/><g id="a_edge5-headlabel"><a target="_top" xlink:href="dir_000044_000001.xhtml" xlink:title="3"><text x="157.356" y="-40.868" fill="#000" font-family="Helvetica,sans-Serif" font-size="10" text-anchor="middle">3</text></a></g></g></g></svg>