<svg xmlns="http://www.w3.org/2000/svg" xmlns:xlink="http://www.w3.org/1999/xlink" width="164pt" height="244" viewBox="0 0 164 183"><g id="graph0" class="graph" transform="scale(1 1) rotate(0) translate(4 179)"><title>arm_compute/core/CL</title><polygon fill="#fff" stroke="transparent" points="-4 4 -4 -179 160 -179 160 4 -4 4"/><g id="clust1" class="cluster"><title>clusterdir_1fb090f0c6070330bfaccc4236d3ca0d</title><g id="a_clust1"><a target="_top" xlink:href="dir_1fb090f0c6070330bfaccc4236d3ca0d.xhtml" xlink:title="core"><polygon fill="#dde" stroke="#000" points="8 -8 8 -167 94 -167 94 -8 8 -8"/><text x="51" y="-155" fill="#000" font-family="Helvetica,sans-Serif" font-size="10" text-anchor="middle">core</text></a></g></g><g id="clust2" class="cluster"><title>clusterdir_1633709b037eda5b8477677909f78129</title><g id="a_clust2"><a target="_top" xlink:href="dir_1633709b037eda5b8477677909f78129.xhtml"><polygon fill="#eef" stroke="#000" points="16 -16 16 -140 86 -140 86 -16 16 -16"/></a></g></g><g id="node1" class="node"><title>dir_1633709b037eda5b8477677909f78129</title><text x="51" y="-111.5" fill="#000" font-family="Helvetica,sans-Serif" font-size="10" text-anchor="middle">CL</text></g><g id="node2" class="node"><title>dir_f906bbebc596bc606d589ccb705e6595</title><g id="a_node2"><a target="_top" xlink:href="dir_f906bbebc596bc606d589ccb705e6595.xhtml" xlink:title="kernels"><polygon fill="#fff" stroke="#000" points="78 -60 24 -60 24 -24 78 -24 78 -60"/><text x="51" y="-39.5" fill="#000" font-family="Helvetica,sans-Serif" font-size="10" text-anchor="middle">kernels</text></a></g></g><g id="edge1" class="edge"><title>dir_1633709b037eda5b8477677909f78129-&gt;dir_f906bbebc596bc606d589ccb705e6595</title><path fill="none" stroke="#000" d="M51,-95.8314C51,-88.131 51,-78.9743 51,-70.4166"/><polygon fill="#000" stroke="#000" points="54.5 -70.413 51 -60.413 47.5 -70.413 54.5 -70.413"/><g id="a_edge1-headlabel"><a target="_top" xlink:href="dir_000002_000003.xhtml" xlink:title="112"><text x="57.339" y="-71.508" fill="#000" font-family="Helvetica,sans-Serif" font-size="10" text-anchor="middle">112</text></a></g></g><g id="node3" class="node"><title>dir_5815af820a9cc9481f1d0990a0d60286</title><g id="a_node3"><a target="_top" xlink:href="dir_5815af820a9cc9481f1d0990a0d60286.xhtml" xlink:title="support"><polygon fill="none" stroke="#000" points="156 -60 102 -60 102 -24 156 -24 156 -60"/><text x="129" y="-39.5" fill="#000" font-family="Helvetica,sans-Serif" font-size="10" text-anchor="middle">support</text></a></g></g><g id="edge2" class="edge"><title>dir_1633709b037eda5b8477677909f78129-&gt;dir_5815af820a9cc9481f1d0990a0d60286</title><path fill="none" stroke="#000" d="M70.6827,-95.8314C80.1051,-87.1337 91.5401,-76.5783 101.7796,-67.1265"/><polygon fill="#000" stroke="#000" points="104.35 -69.517 109.324 -60.163 99.602 -64.374 104.35 -69.517"/><g id="a_edge2-headlabel"><a target="_top" xlink:href="dir_000002_000119.xhtml" xlink:title="1"><text x="103.634" y="-71.542" fill="#000" font-family="Helvetica,sans-Serif" font-size="10" text-anchor="middle">1</text></a></g></g></g></svg>