<svg xmlns="http://www.w3.org/2000/svg" xmlns:xlink="http://www.w3.org/1999/xlink" width="192" height="295pt" viewBox="0 0 144.41 295"><g id="graph0" class="graph" transform="scale(1 1) rotate(0) translate(4 291)"><title>tests/validation/reference</title><polygon fill="#fff" stroke="transparent" points="-4 4 -4 -291 140.408 -291 140.408 4 -4 4"/><g id="clust1" class="cluster"><title>clusterdir_e7c7b16542faa38cb4655ff1750d3604</title><g id="a_clust1"><a target="_top" xlink:href="dir_e7c7b16542faa38cb4655ff1750d3604.xhtml" xlink:title="validation"><polygon fill="#dde" stroke="#000" points="53 -208 53 -279 127 -279 127 -208 53 -208"/><text x="90" y="-267" fill="#000" font-family="Helvetica,sans-Serif" font-size="10" text-anchor="middle">validation</text></a></g></g><g id="node1" class="node"><title>dir_46fdb196cebdbffe77dac340cde62f29</title><g id="a_node1"><a target="_top" xlink:href="dir_46fdb196cebdbffe77dac340cde62f29.xhtml" xlink:title="reference"><polygon fill="#eef" stroke="#000" points="118.5 -252 61.5 -252 61.5 -216 118.5 -216 118.5 -252"/><text x="90" y="-231.5" fill="#000" font-family="Helvetica,sans-Serif" font-size="10" text-anchor="middle">reference</text></a></g></g><g id="node2" class="node"><title>dir_9e71e2da941d3cafc4d98a9f6ae3de4f</title><g id="a_node2"><a target="_top" xlink:href="dir_9e71e2da941d3cafc4d98a9f6ae3de4f.xhtml" xlink:title="framework"><polygon fill="#fff" stroke="red" points="121 -180 59 -180 59 -144 121 -144 121 -180"/><text x="90" y="-159.5" fill="#000" font-family="Helvetica,sans-Serif" font-size="10" text-anchor="middle">framework</text></a></g></g><g id="edge1" class="edge"><title>dir_46fdb196cebdbffe77dac340cde62f29-&gt;dir_9e71e2da941d3cafc4d98a9f6ae3de4f</title><path fill="none" stroke="#000" d="M90,-215.8314C90,-208.131 90,-198.9743 90,-190.4166"/><polygon fill="#000" stroke="#000" points="93.5 -190.413 90 -180.413 86.5 -190.413 93.5 -190.413"/><g id="a_edge1-headlabel"><a target="_top" xlink:href="dir_000026_000025.xhtml" xlink:title="3"><text x="96.339" y="-191.508" fill="#000" font-family="Helvetica,sans-Serif" font-size="10" text-anchor="middle">3</text></a></g></g><g id="node3" class="node"><title>dir_214608ef36d61442cb2b0c1c4e9a7def</title><g id="a_node3"><a target="_top" xlink:href="dir_214608ef36d61442cb2b0c1c4e9a7def.xhtml" xlink:title="arm_compute"><polygon fill="#fff" stroke="red" points="76 -108 0 -108 0 -72 76 -72 76 -108"/><text x="38" y="-87.5" fill="#000" font-family="Helvetica,sans-Serif" font-size="10" text-anchor="middle">arm_compute</text></a></g></g><g id="edge2" class="edge"><title>dir_46fdb196cebdbffe77dac340cde62f29-&gt;dir_214608ef36d61442cb2b0c1c4e9a7def</title><path fill="none" stroke="#000" d="M72.9892,-215.9458C64.6813,-206.0738 55.3462,-193.1914 50,-180 42.0315,-160.3382 39.1248,-136.4749 38.1601,-118.2621"/><polygon fill="#000" stroke="#000" points="41.658 -118.131 37.793 -108.266 34.663 -118.388 41.658 -118.131"/><g id="a_edge2-headlabel"><a target="_top" xlink:href="dir_000026_000000.xhtml" xlink:title="69"><text x="44.627" y="-119.119" fill="#000" font-family="Helvetica,sans-Serif" font-size="10" text-anchor="middle">69</text></a></g></g><g id="node4" class="node"><title>dir_5815af820a9cc9481f1d0990a0d60286</title><g id="a_node4"><a target="_top" xlink:href="dir_5815af820a9cc9481f1d0990a0d60286.xhtml" xlink:title="support"><polygon fill="none" stroke="#000" points="131 -36 77 -36 77 0 131 0 131 -36"/><text x="104" y="-15.5" fill="#000" font-family="Helvetica,sans-Serif" font-size="10" text-anchor="middle">support</text></a></g></g><g id="edge3" class="edge"><title>dir_46fdb196cebdbffe77dac340cde62f29-&gt;dir_5815af820a9cc9481f1d0990a0d60286</title><path fill="none" stroke="#000" d="M108.1576,-215.7286C116.549,-205.9911 125.6123,-193.2949 130,-180 145.048,-134.4041 129.007,-78.6176 116.2938,-45.8287"/><polygon fill="#000" stroke="#000" points="119.486 -44.387 112.493 -36.428 112.997 -47.011 119.486 -44.387"/><g id="a_edge3-headlabel"><a target="_top" xlink:href="dir_000026_000119.xhtml" xlink:title="2"><text x="123.466" y="-44.156" fill="#000" font-family="Helvetica,sans-Serif" font-size="10" text-anchor="middle">2</text></a></g></g><g id="edge4" class="edge"><title>dir_9e71e2da941d3cafc4d98a9f6ae3de4f-&gt;dir_214608ef36d61442cb2b0c1c4e9a7def</title><path fill="none" stroke="#000" d="M76.8782,-143.8314C70.9501,-135.6232 63.8271,-125.7606 57.3067,-116.7323"/><polygon fill="#000" stroke="#000" points="59.991 -114.471 51.298 -108.413 54.316 -118.569 59.991 -114.471"/><g id="a_edge4-headlabel"><a target="_top" xlink:href="dir_000025_000000.xhtml" xlink:title="14"><text x="64.397" y="-113.223" fill="#000" font-family="Helvetica,sans-Serif" font-size="10" text-anchor="middle">14</text></a></g></g><g id="edge5" class="edge"><title>dir_9e71e2da941d3cafc4d98a9f6ae3de4f-&gt;dir_5815af820a9cc9481f1d0990a0d60286</title><path fill="none" stroke="#000" d="M91.7731,-143.7623C94.161,-119.201 98.4343,-75.2474 101.2434,-46.3541"/><polygon fill="#000" stroke="#000" points="104.757 -46.381 102.241 -36.09 97.79 -45.704 104.757 -46.381"/><g id="a_edge5-headlabel"><a target="_top" xlink:href="dir_000025_000119.xhtml" xlink:title="7"><text x="107.235" y="-47.734" fill="#000" font-family="Helvetica,sans-Serif" font-size="10" text-anchor="middle">7</text></a></g></g><g id="edge6" class="edge"><title>dir_214608ef36d61442cb2b0c1c4e9a7def-&gt;dir_5815af820a9cc9481f1d0990a0d60286</title><path fill="none" stroke="#000" d="M54.6546,-71.8314C62.4114,-63.3694 71.7802,-53.1489 80.261,-43.8971"/><polygon fill="#000" stroke="#000" points="82.944 -46.15 87.121 -36.413 77.784 -41.42 82.944 -46.15"/><g id="a_edge6-headlabel"><a target="_top" xlink:href="dir_000000_000119.xhtml" xlink:title="20"><text x="82.608" y="-48.218" fill="#000" font-family="Helvetica,sans-Serif" font-size="10" text-anchor="middle">20</text></a></g></g></g></svg>