<svg xmlns="http://www.w3.org/2000/svg" xmlns:xlink="http://www.w3.org/1999/xlink" width="256pt" height="308" viewBox="0 0 256 231"><g id="graph0" class="graph" transform="scale(1 1) rotate(0) translate(4 227)"><title>src/runtime/CL</title><polygon fill="#fff" stroke="transparent" points="-4 4 -4 -227 252 -227 252 4 -4 4"/><g id="clust1" class="cluster"><title>clusterdir_bf9f26469d00835ba20ff8d80ee5a804</title><g id="a_clust1"><a target="_top" xlink:href="dir_bf9f26469d00835ba20ff8d80ee5a804.xhtml" xlink:title="runtime"><polygon fill="#dde" stroke="#000" points="8 -128 8 -215 240 -215 240 -128 8 -128"/><text x="124" y="-203" fill="#000" font-family="Helvetica,sans-Serif" font-size="10" text-anchor="middle">runtime</text></a></g></g><g id="clust2" class="cluster"><title>clusterdir_43c3fdbf778d1fd99e2e38f09fddd920</title><g id="a_clust2"><a target="_top" xlink:href="dir_43c3fdbf778d1fd99e2e38f09fddd920.xhtml"><polygon fill="#eef" stroke="#000" points="16 -136 16 -188 232 -188 232 -136 16 -136"/></a></g></g><g id="node1" class="node"><title>dir_43c3fdbf778d1fd99e2e38f09fddd920</title><text x="51" y="-159.5" fill="#000" font-family="Helvetica,sans-Serif" font-size="10" text-anchor="middle">CL</text></g><g id="node4" class="node"><title>dir_214608ef36d61442cb2b0c1c4e9a7def</title><g id="a_node4"><a target="_top" xlink:href="dir_214608ef36d61442cb2b0c1c4e9a7def.xhtml" xlink:title="arm_compute"><polygon fill="#fff" stroke="red" points="161 -108 85 -108 85 -72 161 -72 161 -108"/><text x="123" y="-87.5" fill="#000" font-family="Helvetica,sans-Serif" font-size="10" text-anchor="middle">arm_compute</text></a></g></g><g id="edge5" class="edge"><title>dir_43c3fdbf778d1fd99e2e38f09fddd920-&gt;dir_214608ef36d61442cb2b0c1c4e9a7def</title><path fill="none" stroke="#000" d="M69.1686,-143.8314C77.7152,-135.2848 88.0557,-124.9443 97.3802,-115.6198"/><polygon fill="#000" stroke="#000" points="99.99 -117.959 104.587 -108.413 95.041 -113.01 99.99 -117.959"/><g id="a_edge5-headlabel"><a target="_top" xlink:href="dir_000106_000000.xhtml" xlink:title="589"><text x="99.456" y="-120.009" fill="#000" font-family="Helvetica,sans-Serif" font-size="10" text-anchor="middle">589</text></a></g></g><g id="node5" class="node"><title>dir_5815af820a9cc9481f1d0990a0d60286</title><g id="a_node5"><a target="_top" xlink:href="dir_5815af820a9cc9481f1d0990a0d60286.xhtml" xlink:title="support"><polygon fill="none" stroke="#000" points="150 -36 96 -36 96 0 150 0 150 -36"/><text x="123" y="-15.5" fill="#000" font-family="Helvetica,sans-Serif" font-size="10" text-anchor="middle">support</text></a></g></g><g id="edge6" class="edge"><title>dir_43c3fdbf778d1fd99e2e38f09fddd920-&gt;dir_5815af820a9cc9481f1d0990a0d60286</title><path fill="none" stroke="#000" d="M53.6023,-143.8658C56.8483,-125.0307 63.5535,-95.1354 76,-72 81.3548,-62.0467 88.8359,-52.3507 96.2571,-43.9852"/><polygon fill="#000" stroke="#000" points="99.05 -46.12 103.282 -36.407 93.917 -41.361 99.05 -46.12"/><g id="a_edge6-headlabel"><a target="_top" xlink:href="dir_000106_000119.xhtml" xlink:title="78"><text x="98.689" y="-48.187" fill="#000" font-family="Helvetica,sans-Serif" font-size="10" text-anchor="middle">78</text></a></g></g><g id="node2" class="node"><title>dir_0304d3529340c629ae0050036d07056a</title><g id="a_node2"><a target="_top" xlink:href="dir_0304d3529340c629ae0050036d07056a.xhtml" xlink:title="functions"><polygon fill="#fff" stroke="#000" points="224 -180 168 -180 168 -144 224 -144 224 -180"/><text x="196" y="-159.5" fill="#000" font-family="Helvetica,sans-Serif" font-size="10" text-anchor="middle">functions</text></a></g></g><g id="edge3" class="edge"><title>dir_0304d3529340c629ae0050036d07056a-&gt;dir_214608ef36d61442cb2b0c1c4e9a7def</title><path fill="none" stroke="#000" d="M177.579,-143.8314C168.8471,-135.219 158.2683,-124.7851 148.7577,-115.4048"/><polygon fill="#000" stroke="#000" points="150.993 -112.693 141.415 -108.163 146.077 -117.677 150.993 -112.693"/><g id="a_edge3-headlabel"><a target="_top" xlink:href="dir_000107_000000.xhtml" xlink:title="524"><text x="155.546" y="-110.696" fill="#000" font-family="Helvetica,sans-Serif" font-size="10" text-anchor="middle">524</text></a></g></g><g id="edge4" class="edge"><title>dir_0304d3529340c629ae0050036d07056a-&gt;dir_5815af820a9cc9481f1d0990a0d60286</title><path fill="none" stroke="#000" d="M193.1551,-143.867C189.6664,-125.0329 182.602,-95.1384 170,-72 164.5941,-62.0743 157.0982,-52.3864 149.6792,-44.0197"/><polygon fill="#000" stroke="#000" points="152.022 -41.399 142.66 -36.438 146.886 -46.154 152.022 -41.399"/><g id="a_edge4-headlabel"><a target="_top" xlink:href="dir_000107_000119.xhtml" xlink:title="75"><text x="156.548" y="-39.608" fill="#000" font-family="Helvetica,sans-Serif" font-size="10" text-anchor="middle">75</text></a></g></g><g id="node3" class="node"><title>dir_50c9c9ef2ed96b9f05a6a6f40f0f5c9e</title><g id="a_node3"><a target="_top" xlink:href="dir_50c9c9ef2ed96b9f05a6a6f40f0f5c9e.xhtml" xlink:title="tuners"><polygon fill="#fff" stroke="#000" points="150 -180 96 -180 96 -144 150 -144 150 -180"/><text x="123" y="-159.5" fill="#000" font-family="Helvetica,sans-Serif" font-size="10" text-anchor="middle">tuners</text></a></g></g><g id="edge1" class="edge"><title>dir_50c9c9ef2ed96b9f05a6a6f40f0f5c9e-&gt;dir_214608ef36d61442cb2b0c1c4e9a7def</title><path fill="none" stroke="#000" d="M123,-143.8314C123,-136.131 123,-126.9743 123,-118.4166"/><polygon fill="#000" stroke="#000" points="126.5 -118.413 123 -108.413 119.5 -118.413 126.5 -118.413"/><g id="a_edge1-headlabel"><a target="_top" xlink:href="dir_000108_000000.xhtml" xlink:title="8"><text x="129.339" y="-119.508" fill="#000" font-family="Helvetica,sans-Serif" font-size="10" text-anchor="middle">8</text></a></g></g><g id="edge2" class="edge"><title>dir_214608ef36d61442cb2b0c1c4e9a7def-&gt;dir_5815af820a9cc9481f1d0990a0d60286</title><path fill="none" stroke="#000" d="M123,-71.8314C123,-64.131 123,-54.9743 123,-46.4166"/><polygon fill="#000" stroke="#000" points="126.5 -46.413 123 -36.413 119.5 -46.413 126.5 -46.413"/><g id="a_edge2-headlabel"><a target="_top" xlink:href="dir_000000_000119.xhtml" xlink:title="20"><text x="129.339" y="-47.508" fill="#000" font-family="Helvetica,sans-Serif" font-size="10" text-anchor="middle">20</text></a></g></g></g></svg>