<svg xmlns="http://www.w3.org/2000/svg" xmlns:xlink="http://www.w3.org/1999/xlink" width="368pt" height="596" viewBox="0 0 367.5 447"><g id="graph0" class="graph" transform="scale(1 1) rotate(0) translate(4 443)"><title>tests/validation/CL</title><polygon fill="#fff" stroke="transparent" points="-4 4 -4 -443 363.5 -443 363.5 4 -4 4"/><g id="clust1" class="cluster"><title>clusterdir_e7c7b16542faa38cb4655ff1750d3604</title><g id="a_clust1"><a target="_top" xlink:href="dir_e7c7b16542faa38cb4655ff1750d3604.xhtml" xlink:title="validation"><polygon fill="#dde" stroke="#000" points="130.5 -344 130.5 -431 288.5 -431 288.5 -344 130.5 -344"/><text x="209.5" y="-419" fill="#000" font-family="Helvetica,sans-Serif" font-size="10" text-anchor="middle">validation</text></a></g></g><g id="clust2" class="cluster"><title>clusterdir_f7024513cd67abef53e86ee9382ac5ce</title><g id="a_clust2"><a target="_top" xlink:href="dir_f7024513cd67abef53e86ee9382ac5ce.xhtml"><polygon fill="#eef" stroke="#000" points="138.5 -352 138.5 -404 280.5 -404 280.5 -352 138.5 -352"/></a></g></g><g id="node1" class="node"><title>dir_f7024513cd67abef53e86ee9382ac5ce</title><text x="173.5" y="-375.5" fill="#000" font-family="Helvetica,sans-Serif" font-size="10" text-anchor="middle">CL</text></g><g id="node3" class="node"><title>dir_46fdb196cebdbffe77dac340cde62f29</title><g id="a_node3"><a target="_top" xlink:href="dir_46fdb196cebdbffe77dac340cde62f29.xhtml" xlink:title="reference"><polygon fill="none" stroke="#000" points="57 -324 0 -324 0 -288 57 -288 57 -324"/><text x="28.5" y="-303.5" fill="#000" font-family="Helvetica,sans-Serif" font-size="10" text-anchor="middle">reference</text></a></g></g><g id="edge15" class="edge"><title>dir_f7024513cd67abef53e86ee9382ac5ce-&gt;dir_46fdb196cebdbffe77dac340cde62f29</title><path fill="none" stroke="#000" d="M146.2266,-364.4574C123.676,-353.2598 91.4058,-337.236 66.3525,-324.7957"/><polygon fill="#000" stroke="#000" points="67.652 -321.534 57.139 -320.221 64.539 -327.803 67.652 -321.534"/><g id="a_edge15-headlabel"><a target="_top" xlink:href="dir_000102_000026.xhtml" xlink:title="2"><text x="72.135" y="-318.089" fill="#000" font-family="Helvetica,sans-Serif" font-size="10" text-anchor="middle">2</text></a></g></g><g id="node4" class="node"><title>dir_cbdb8362360e11eafe2fa3bc74cf0ffd</title><g id="a_node4"><a target="_top" xlink:href="dir_cbdb8362360e11eafe2fa3bc74cf0ffd.xhtml" xlink:title="utils"><polygon fill="#fff" stroke="red" points="217.5 -180 163.5 -180 163.5 -144 217.5 -144 217.5 -180"/><text x="190.5" y="-159.5" fill="#000" font-family="Helvetica,sans-Serif" font-size="10" text-anchor="middle">utils</text></a></g></g><g id="edge16" class="edge"><title>dir_f7024513cd67abef53e86ee9382ac5ce-&gt;dir_cbdb8362360e11eafe2fa3bc74cf0ffd</title><path fill="none" stroke="#000" d="M174.9202,-359.9555C177.8827,-322.3144 184.7399,-235.1867 188.2865,-190.1246"/><polygon fill="#000" stroke="#000" points="191.776 -190.389 189.072 -180.145 184.798 -189.84 191.776 -190.389"/><g id="a_edge16-headlabel"><a target="_top" xlink:href="dir_000102_000027.xhtml" xlink:title="4"><text x="194.325" y="-191.695" fill="#000" font-family="Helvetica,sans-Serif" font-size="10" text-anchor="middle">4</text></a></g></g><g id="node5" class="node"><title>dir_9e71e2da941d3cafc4d98a9f6ae3de4f</title><g id="a_node5"><a target="_top" xlink:href="dir_9e71e2da941d3cafc4d98a9f6ae3de4f.xhtml" xlink:title="framework"><polygon fill="#fff" stroke="red" points="107.5 -252 45.5 -252 45.5 -216 107.5 -216 107.5 -252"/><text x="76.5" y="-231.5" fill="#000" font-family="Helvetica,sans-Serif" font-size="10" text-anchor="middle">framework</text></a></g></g><g id="edge17" class="edge"><title>dir_f7024513cd67abef53e86ee9382ac5ce-&gt;dir_9e71e2da941d3cafc4d98a9f6ae3de4f</title><path fill="none" stroke="#000" d="M153.2043,-359.7623C142.9016,-349.8401 130.6623,-336.9682 121.5,-324 107.6577,-304.4078 95.7176,-279.9384 87.6219,-261.4615"/><polygon fill="#000" stroke="#000" points="90.788 -259.964 83.641 -252.143 84.351 -262.714 90.788 -259.964"/><g id="a_edge17-headlabel"><a target="_top" xlink:href="dir_000102_000025.xhtml" xlink:title="284"><text x="94.811" y="-259.654" fill="#000" font-family="Helvetica,sans-Serif" font-size="10" text-anchor="middle">284</text></a></g></g><g id="node6" class="node"><title>dir_214608ef36d61442cb2b0c1c4e9a7def</title><g id="a_node6"><a target="_top" xlink:href="dir_214608ef36d61442cb2b0c1c4e9a7def.xhtml" xlink:title="arm_compute"><polygon fill="#fff" stroke="red" points="200.5 -108 124.5 -108 124.5 -72 200.5 -72 200.5 -108"/><text x="162.5" y="-87.5" fill="#000" font-family="Helvetica,sans-Serif" font-size="10" text-anchor="middle">arm_compute</text></a></g></g><g id="edge18" class="edge"><title>dir_f7024513cd67abef53e86ee9382ac5ce-&gt;dir_214608ef36d61442cb2b0c1c4e9a7def</title><path fill="none" stroke="#000" d="M170.103,-359.8025C163.1791,-320.4495 148.5706,-224.4841 154.5,-144 155.1169,-135.6264 156.2649,-126.5812 157.5026,-118.3322"/><polygon fill="#000" stroke="#000" points="160.965 -118.846 159.085 -108.42 154.052 -117.743 160.965 -118.846"/><g id="a_edge18-headlabel"><a target="_top" xlink:href="dir_000102_000000.xhtml" xlink:title="384"><text x="163.202" y="-120.344" fill="#000" font-family="Helvetica,sans-Serif" font-size="10" text-anchor="middle">384</text></a></g></g><g id="node7" class="node"><title>dir_896191444cf08ec8ade6f88256cb2bdd</title><g id="a_node7"><a target="_top" xlink:href="dir_896191444cf08ec8ade6f88256cb2bdd.xhtml" xlink:title="CL"><polygon fill="none" stroke="#000" points="293.5 -324 239.5 -324 239.5 -288 293.5 -288 293.5 -324"/><text x="266.5" y="-303.5" fill="#000" font-family="Helvetica,sans-Serif" font-size="10" text-anchor="middle">CL</text></a></g></g><g id="edge19" class="edge"><title>dir_f7024513cd67abef53e86ee9382ac5ce-&gt;dir_896191444cf08ec8ade6f88256cb2bdd</title><path fill="none" stroke="#000" d="M191.6449,-359.7312C197.2007,-354.4523 203.4471,-348.8193 209.5,-344 216.2544,-338.6222 223.7615,-333.2387 231.0514,-328.2852"/><polygon fill="#000" stroke="#000" points="233.066 -331.149 239.451 -322.694 229.187 -325.322 233.066 -331.149"/><g id="a_edge19-headlabel"><a target="_top" xlink:href="dir_000102_000120.xhtml" xlink:title="120"><text x="231.647" y="-333.004" fill="#000" font-family="Helvetica,sans-Serif" font-size="10" text-anchor="middle">120</text></a></g></g><g id="node2" class="node"><title>dir_4fe3055359cf5438733b5e64b064b197</title><g id="a_node2"><a target="_top" xlink:href="dir_4fe3055359cf5438733b5e64b064b197.xhtml" xlink:title="UNIT"><polygon fill="#fff" stroke="#000" points="272.5 -396 218.5 -396 218.5 -360 272.5 -360 272.5 -396"/><text x="245.5" y="-375.5" fill="#000" font-family="Helvetica,sans-Serif" font-size="10" text-anchor="middle">UNIT</text></a></g></g><g id="edge6" class="edge"><title>dir_4fe3055359cf5438733b5e64b064b197-&gt;dir_9e71e2da941d3cafc4d98a9f6ae3de4f</title><path fill="none" stroke="#000" d="M226.66,-359.7644C221.193,-354.5941 215.1679,-349.0107 209.5,-344 175.3206,-313.7837 134.7539,-280.6013 107.4866,-258.6684"/><polygon fill="#000" stroke="#000" points="109.463 -255.767 99.473 -252.238 105.082 -261.227 109.463 -255.767"/><g id="a_edge6-headlabel"><a target="_top" xlink:href="dir_000117_000025.xhtml" xlink:title="8"><text x="114.044" y="-253.302" fill="#000" font-family="Helvetica,sans-Serif" font-size="10" text-anchor="middle">8</text></a></g></g><g id="edge7" class="edge"><title>dir_4fe3055359cf5438733b5e64b064b197-&gt;dir_214608ef36d61442cb2b0c1c4e9a7def</title><path fill="none" stroke="#000" d="M272.6897,-360.0065C284.1743,-350.7602 296.3058,-338.4006 302.5,-324 308.8221,-309.302 305.3067,-303.7519 302.5,-288 290.5367,-220.8603 292.593,-196.857 249.5,-144 238.8022,-130.8783 224.0237,-120.0462 209.6812,-111.6163"/><polygon fill="#000" stroke="#000" points="211.284 -108.503 200.848 -106.679 207.869 -114.613 211.284 -108.503"/><g id="a_edge7-headlabel"><a target="_top" xlink:href="dir_000117_000000.xhtml" xlink:title="12"><text x="215.807" y="-105.278" fill="#000" font-family="Helvetica,sans-Serif" font-size="10" text-anchor="middle">12</text></a></g></g><g id="edge8" class="edge"><title>dir_4fe3055359cf5438733b5e64b064b197-&gt;dir_896191444cf08ec8ade6f88256cb2bdd</title><path fill="none" stroke="#000" d="M250.7992,-359.8314C253.0698,-352.0463 255.7746,-342.7729 258.294,-334.1347"/><polygon fill="#000" stroke="#000" points="261.689 -334.993 261.13 -324.413 254.969 -333.033 261.689 -334.993"/><g id="a_edge8-headlabel"><a target="_top" xlink:href="dir_000117_000120.xhtml" xlink:title="2"><text x="263.409" y="-336.739" fill="#000" font-family="Helvetica,sans-Serif" font-size="10" text-anchor="middle">2</text></a></g></g><g id="node8" class="node"><title>dir_5815af820a9cc9481f1d0990a0d60286</title><g id="a_node8"><a target="_top" xlink:href="dir_5815af820a9cc9481f1d0990a0d60286.xhtml" xlink:title="support"><polygon fill="none" stroke="#000" points="222.5 -36 168.5 -36 168.5 0 222.5 0 222.5 -36"/><text x="195.5" y="-15.5" fill="#000" font-family="Helvetica,sans-Serif" font-size="10" text-anchor="middle">support</text></a></g></g><g id="edge9" class="edge"><title>dir_4fe3055359cf5438733b5e64b064b197-&gt;dir_5815af820a9cc9481f1d0990a0d60286</title><path fill="none" stroke="#000" d="M272.7435,-362.1914C287.4548,-352.6044 305.0906,-339.2842 317.5,-324 345.3229,-289.7315 359.5,-278.1412 359.5,-234 359.5,-234 359.5,-234 359.5,-162 359.5,-94.6487 280.4317,-51.4025 232.0975,-31.2583"/><polygon fill="#000" stroke="#000" points="233.165 -27.915 222.581 -27.424 230.548 -34.407 233.165 -27.915"/><g id="a_edge9-headlabel"><a target="_top" xlink:href="dir_000117_000119.xhtml" xlink:title="3"><text x="237.56" y="-24.125" fill="#000" font-family="Helvetica,sans-Serif" font-size="10" text-anchor="middle">3</text></a></g></g><g id="edge1" class="edge"><title>dir_46fdb196cebdbffe77dac340cde62f29-&gt;dir_9e71e2da941d3cafc4d98a9f6ae3de4f</title><path fill="none" stroke="#000" d="M40.6124,-287.8314C46.0281,-279.7079 52.5242,-269.9637 58.4921,-261.0118"/><polygon fill="#000" stroke="#000" points="61.59 -262.675 64.225 -252.413 55.765 -258.792 61.59 -262.675"/><g id="a_edge1-headlabel"><a target="_top" xlink:href="dir_000026_000025.xhtml" xlink:title="3"><text x="61.958" y="-264.741" fill="#000" font-family="Helvetica,sans-Serif" font-size="10" text-anchor="middle">3</text></a></g></g><g id="edge2" class="edge"><title>dir_46fdb196cebdbffe77dac340cde62f29-&gt;dir_214608ef36d61442cb2b0c1c4e9a7def</title><path fill="none" stroke="#000" d="M26.9056,-287.9603C25.9647,-269.2023 26.5164,-239.3691 36.5,-216 54.9967,-172.7037 96.0328,-136.3546 126.2718,-113.9947"/><polygon fill="#000" stroke="#000" points="128.427 -116.756 134.487 -108.065 124.33 -111.08 128.427 -116.756"/><g id="a_edge2-headlabel"><a target="_top" xlink:href="dir_000026_000000.xhtml" xlink:title="69"><text x="127.174" y="-118.662" fill="#000" font-family="Helvetica,sans-Serif" font-size="10" text-anchor="middle">69</text></a></g></g><g id="edge3" class="edge"><title>dir_46fdb196cebdbffe77dac340cde62f29-&gt;dir_5815af820a9cc9481f1d0990a0d60286</title><path fill="none" stroke="#000" d="M25.103,-287.8633C22.2734,-269.5383 19.4479,-240.5094 24.5,-216 38.8664,-146.3042 44.0449,-122.1815 94.5,-72 112.6341,-53.9642 138.0437,-40.4199 158.8394,-31.4068"/><polygon fill="#000" stroke="#000" points="160.434 -34.535 168.325 -27.466 157.748 -28.07 160.434 -34.535"/><g id="a_edge3-headlabel"><a target="_top" xlink:href="dir_000026_000119.xhtml" xlink:title="2"><text x="158.203" y="-36.036" fill="#000" font-family="Helvetica,sans-Serif" font-size="10" text-anchor="middle">2</text></a></g></g><g id="edge4" class="edge"><title>dir_cbdb8362360e11eafe2fa3bc74cf0ffd-&gt;dir_214608ef36d61442cb2b0c1c4e9a7def</title><path fill="none" stroke="#000" d="M177.482,-143.8314C173.6958,-136.0463 169.8721,-126.7729 166.8366,-118.1347"/><polygon fill="#000" stroke="#000" points="170.098 -116.846 163.685 -108.413 163.44 -119.005 170.098 -116.846"/><g id="a_edge4-headlabel"><a target="_top" xlink:href="dir_000027_000000.xhtml" xlink:title="36"><text x="173.908" y="-116.89" fill="#000" font-family="Helvetica,sans-Serif" font-size="10" text-anchor="middle">36</text></a></g></g><g id="edge5" class="edge"><title>dir_cbdb8362360e11eafe2fa3bc74cf0ffd-&gt;dir_5815af820a9cc9481f1d0990a0d60286</title><path fill="none" stroke="#000" d="M198.5917,-143.9165C202.7561,-133.6179 207.3918,-120.3436 209.5,-108 213.0384,-87.2824 209.1287,-63.817 204.5511,-46.0418"/><polygon fill="#000" stroke="#000" points="207.891 -44.987 201.83 -36.297 201.149 -46.87 207.891 -44.987"/><g id="a_edge5-headlabel"><a target="_top" xlink:href="dir_000027_000119.xhtml" xlink:title="3"><text x="211.592" y="-45.186" fill="#000" font-family="Helvetica,sans-Serif" font-size="10" text-anchor="middle">3</text></a></g></g><g id="edge10" class="edge"><title>dir_9e71e2da941d3cafc4d98a9f6ae3de4f-&gt;dir_cbdb8362360e11eafe2fa3bc74cf0ffd</title><path fill="none" stroke="#000" d="M105.267,-215.8314C120.2935,-206.3409 138.8223,-194.6386 154.7617,-184.5716"/><polygon fill="#000" stroke="#000" points="156.726 -187.471 163.312 -179.172 152.988 -181.552 156.726 -187.471"/><g id="a_edge10-headlabel"><a target="_top" xlink:href="dir_000025_000027.xhtml" xlink:title="3"><text x="155.203" y="-189.291" fill="#000" font-family="Helvetica,sans-Serif" font-size="10" text-anchor="middle">3</text></a></g></g><g id="edge11" class="edge"><title>dir_9e71e2da941d3cafc4d98a9f6ae3de4f-&gt;dir_214608ef36d61442cb2b0c1c4e9a7def</title><path fill="none" stroke="#000" d="M84.3537,-215.8829C92.6748,-197.3215 106.643,-167.8813 121.5,-144 127.2827,-134.7049 134.2748,-125.0367 140.8344,-116.4932"/><polygon fill="#000" stroke="#000" points="143.778 -118.411 147.189 -108.38 138.267 -114.094 143.778 -118.411"/><g id="a_edge11-headlabel"><a target="_top" xlink:href="dir_000025_000000.xhtml" xlink:title="14"><text x="143.797" y="-120.492" fill="#000" font-family="Helvetica,sans-Serif" font-size="10" text-anchor="middle">14</text></a></g></g><g id="edge12" class="edge"><title>dir_9e71e2da941d3cafc4d98a9f6ae3de4f-&gt;dir_5815af820a9cc9481f1d0990a0d60286</title><path fill="none" stroke="#000" d="M76.7105,-215.7493C77.9266,-183.8119 84.329,-116.919 115.5,-72 126.4408,-56.2337 143.603,-43.7669 159.2306,-34.8026"/><polygon fill="#000" stroke="#000" points="161.081 -37.781 168.196 -29.931 157.738 -31.63 161.081 -37.781"/><g id="a_edge12-headlabel"><a target="_top" xlink:href="dir_000025_000119.xhtml" xlink:title="7"><text x="159.278" y="-39.492" fill="#000" font-family="Helvetica,sans-Serif" font-size="10" text-anchor="middle">7</text></a></g></g><g id="edge13" class="edge"><title>dir_214608ef36d61442cb2b0c1c4e9a7def-&gt;dir_cbdb8362360e11eafe2fa3bc74cf0ffd</title><path fill="none" stroke="#000" d="M175.6367,-108.4133C179.4236,-116.2292 183.2394,-125.5113 186.2584,-134.136"/><polygon fill="#000" stroke="#000" points="182.985 -135.389 189.387 -143.831 189.647 -133.24 182.985 -135.389"/><g id="a_edge13-headlabel"><a target="_top" xlink:href="dir_000000_000027.xhtml" xlink:title="1"><text x="179.179" y="-130.34" fill="#000" font-family="Helvetica,sans-Serif" font-size="10" text-anchor="middle">1</text></a></g></g><g id="edge14" class="edge"><title>dir_214608ef36d61442cb2b0c1c4e9a7def-&gt;dir_5815af820a9cc9481f1d0990a0d60286</title><path fill="none" stroke="#000" d="M170.8273,-71.8314C174.473,-63.8771 178.8309,-54.369 182.8627,-45.5723"/><polygon fill="#000" stroke="#000" points="186.076 -46.962 187.061 -36.413 179.712 -44.046 186.076 -46.962"/><g id="a_edge14-headlabel"><a target="_top" xlink:href="dir_000000_000119.xhtml" xlink:title="20"><text x="187.159" y="-48.913" fill="#000" font-family="Helvetica,sans-Serif" font-size="10" text-anchor="middle">20</text></a></g></g><g id="edge20" class="edge"><title>dir_896191444cf08ec8ade6f88256cb2bdd-&gt;dir_214608ef36d61442cb2b0c1c4e9a7def</title><path fill="none" stroke="#000" d="M265.6171,-287.5734C263.3433,-255.9429 255.2455,-190.2592 226.5,-144 219.5373,-132.7952 209.4695,-122.749 199.3726,-114.4479"/><polygon fill="#000" stroke="#000" points="201.366 -111.564 191.328 -108.176 197.062 -117.085 201.366 -111.564"/><g id="a_edge20-headlabel"><a target="_top" xlink:href="dir_000120_000000.xhtml" xlink:title="5"><text x="205.947" y="-109.035" fill="#000" font-family="Helvetica,sans-Serif" font-size="10" text-anchor="middle">5</text></a></g></g><g id="edge21" class="edge"><title>dir_896191444cf08ec8ade6f88256cb2bdd-&gt;dir_5815af820a9cc9481f1d0990a0d60286</title><path fill="none" stroke="#000" d="M270.0261,-287.9677C273.0499,-269.7237 276.3582,-240.7567 272.5,-216 262.1119,-149.3427 251.6084,-133.7758 224.5,-72 220.5433,-62.9833 215.6582,-53.4299 211.0327,-44.9058"/><polygon fill="#000" stroke="#000" points="214.08 -43.184 206.172 -36.134 207.958 -46.578 214.08 -43.184"/><g id="a_edge21-headlabel"><a target="_top" xlink:href="dir_000120_000119.xhtml" xlink:title="1"><text x="218.306" y="-42.452" fill="#000" font-family="Helvetica,sans-Serif" font-size="10" text-anchor="middle">1</text></a></g></g></g></svg>