<svg xmlns="http://www.w3.org/2000/svg" xmlns:xlink="http://www.w3.org/1999/xlink" width="514pt" height="308" viewBox="0 0 514 231"><g id="graph0" class="graph" transform="scale(1 1) rotate(0) translate(4 227)"><title>src/core</title><polygon fill="#fff" stroke="transparent" points="-4 4 -4 -227 510 -227 510 4 -4 4"/><g id="clust1" class="cluster"><title>clusterdir_68267d1309a1af8e8297ef4c3efbcdba</title><g id="a_clust1"><a target="_top" xlink:href="dir_68267d1309a1af8e8297ef4c3efbcdba.xhtml" xlink:title="src"><polygon fill="#dde" stroke="#000" points="8 -128 8 -215 498 -215 498 -128 8 -128"/><text x="253" y="-203" fill="#000" font-family="Helvetica,sans-Serif" font-size="10" text-anchor="middle">src</text></a></g></g><g id="clust2" class="cluster"><title>clusterdir_aebb8dcc11953d78e620bbef0b9e2183</title><g id="a_clust2"><a target="_top" xlink:href="dir_aebb8dcc11953d78e620bbef0b9e2183.xhtml"><polygon fill="#eef" stroke="#000" points="16 -136 16 -188 490 -188 490 -136 16 -136"/></a></g></g><g id="node1" class="node"><title>dir_aebb8dcc11953d78e620bbef0b9e2183</title><text x="51" y="-159.5" fill="#000" font-family="Helvetica,sans-Serif" font-size="10" text-anchor="middle">core</text></g><g id="node8" class="node"><title>dir_5815af820a9cc9481f1d0990a0d60286</title><g id="a_node8"><a target="_top" xlink:href="dir_5815af820a9cc9481f1d0990a0d60286.xhtml" xlink:title="support"><polygon fill="none" stroke="#000" points="289 -36 235 -36 235 0 289 0 289 -36"/><text x="262" y="-15.5" fill="#000" font-family="Helvetica,sans-Serif" font-size="10" text-anchor="middle">support</text></a></g></g><g id="edge10" class="edge"><title>dir_aebb8dcc11953d78e620bbef0b9e2183-&gt;dir_5815af820a9cc9481f1d0990a0d60286</title><path fill="none" stroke="#000" d="M69.1449,-143.7312C74.7007,-138.4523 80.9471,-132.8193 87,-128 132.1616,-92.0424 189.6676,-57.8396 226.1709,-37.3849"/><polygon fill="#000" stroke="#000" points="227.939 -40.406 234.979 -32.488 224.538 -34.288 227.939 -40.406"/><g id="a_edge10-headlabel"><a target="_top" xlink:href="dir_000011_000119.xhtml" xlink:title="49"><text x="226.177" y="-42.135" fill="#000" font-family="Helvetica,sans-Serif" font-size="10" text-anchor="middle">49</text></a></g></g><g id="node2" class="node"><title>dir_8c278f79c760e5c5fbd911f9870614c1</title><g id="a_node2"><a target="_top" xlink:href="dir_8c278f79c760e5c5fbd911f9870614c1.xhtml" xlink:title="CL"><polygon fill="#fff" stroke="red" points="150 -180 96 -180 96 -144 150 -144 150 -180"/><text x="123" y="-159.5" fill="#000" font-family="Helvetica,sans-Serif" font-size="10" text-anchor="middle">CL</text></a></g></g><g id="node7" class="node"><title>dir_214608ef36d61442cb2b0c1c4e9a7def</title><g id="a_node7"><a target="_top" xlink:href="dir_214608ef36d61442cb2b0c1c4e9a7def.xhtml" xlink:title="arm_compute"><polygon fill="#fff" stroke="red" points="340 -108 264 -108 264 -72 340 -72 340 -108"/><text x="302" y="-87.5" fill="#000" font-family="Helvetica,sans-Serif" font-size="10" text-anchor="middle">arm_compute</text></a></g></g><g id="edge1" class="edge"><title>dir_8c278f79c760e5c5fbd911f9870614c1-&gt;dir_214608ef36d61442cb2b0c1c4e9a7def</title><path fill="none" stroke="#000" d="M138.8017,-143.8184C144.6396,-138.0437 151.6402,-132.1002 159,-128 188.4081,-111.6166 225.1809,-102.0488 254.072,-96.6121"/><polygon fill="#000" stroke="#000" points="254.705 -100.055 263.937 -94.857 253.479 -93.163 254.705 -100.055"/><g id="a_edge1-headlabel"><a target="_top" xlink:href="dir_000012_000000.xhtml" xlink:title="1155"><text x="251.663" y="-100.979" fill="#000" font-family="Helvetica,sans-Serif" font-size="10" text-anchor="middle">1155</text></a></g></g><g id="edge2" class="edge"><title>dir_8c278f79c760e5c5fbd911f9870614c1-&gt;dir_5815af820a9cc9481f1d0990a0d60286</title><path fill="none" stroke="#000" d="M140.6044,-143.7623C165.1484,-118.3354 209.7541,-72.1253 237.5236,-43.3569"/><polygon fill="#000" stroke="#000" points="240.112 -45.715 244.538 -36.09 235.075 -40.854 240.112 -45.715"/><g id="a_edge2-headlabel"><a target="_top" xlink:href="dir_000012_000119.xhtml" xlink:title="29"><text x="239.658" y="-47.773" fill="#000" font-family="Helvetica,sans-Serif" font-size="10" text-anchor="middle">29</text></a></g></g><g id="node3" class="node"><title>dir_1d7cadfed01c895b25460177608d44e9</title><g id="a_node3"><a target="_top" xlink:href="dir_1d7cadfed01c895b25460177608d44e9.xhtml" xlink:title="CPP"><polygon fill="#fff" stroke="red" points="338 -180 284 -180 284 -144 338 -144 338 -180"/><text x="311" y="-159.5" fill="#000" font-family="Helvetica,sans-Serif" font-size="10" text-anchor="middle">CPP</text></a></g></g><g id="edge11" class="edge"><title>dir_1d7cadfed01c895b25460177608d44e9-&gt;dir_214608ef36d61442cb2b0c1c4e9a7def</title><path fill="none" stroke="#000" d="M308.7289,-143.8314C307.7664,-136.131 306.6218,-126.9743 305.5521,-118.4166"/><polygon fill="#000" stroke="#000" points="309.015 -117.902 304.302 -108.413 302.069 -118.77 309.015 -117.902"/><g id="a_edge11-headlabel"><a target="_top" xlink:href="dir_000055_000000.xhtml" xlink:title="55"><text x="312.278" y="-118.617" fill="#000" font-family="Helvetica,sans-Serif" font-size="10" text-anchor="middle">55</text></a></g></g><g id="node4" class="node"><title>dir_88eff89ba7e837209a0b9693ad92651e</title><g id="a_node4"><a target="_top" xlink:href="dir_88eff89ba7e837209a0b9693ad92651e.xhtml" xlink:title="GLES_COMPUTE"><polygon fill="#fff" stroke="red" points="266 -180 168 -180 168 -144 266 -144 266 -180"/><text x="217" y="-159.5" fill="#000" font-family="Helvetica,sans-Serif" font-size="10" text-anchor="middle">GLES_COMPUTE</text></a></g></g><g id="edge3" class="edge"><title>dir_88eff89ba7e837209a0b9693ad92651e-&gt;dir_214608ef36d61442cb2b0c1c4e9a7def</title><path fill="none" stroke="#000" d="M238.4491,-143.8314C248.8178,-135.0485 261.4229,-124.3712 272.6646,-114.8489"/><polygon fill="#000" stroke="#000" points="275.19 -117.297 280.558 -108.163 270.665 -111.956 275.19 -117.297"/><g id="a_edge3-headlabel"><a target="_top" xlink:href="dir_000057_000000.xhtml" xlink:title="295"><text x="274.282" y="-119.287" fill="#000" font-family="Helvetica,sans-Serif" font-size="10" text-anchor="middle">295</text></a></g></g><g id="edge4" class="edge"><title>dir_88eff89ba7e837209a0b9693ad92651e-&gt;dir_5815af820a9cc9481f1d0990a0d60286</title><path fill="none" stroke="#000" d="M222.6993,-143.7623C230.4085,-119.0928 244.2313,-74.8598 253.2584,-45.9731"/><polygon fill="#000" stroke="#000" points="256.705 -46.678 256.347 -36.09 250.024 -44.59 256.705 -46.678"/><g id="a_edge4-headlabel"><a target="_top" xlink:href="dir_000057_000119.xhtml" xlink:title="9"><text x="258.343" y="-48.456" fill="#000" font-family="Helvetica,sans-Serif" font-size="10" text-anchor="middle">9</text></a></g></g><g id="node5" class="node"><title>dir_d91e1966cc57df4f49d1e07be7697713</title><g id="a_node5"><a target="_top" xlink:href="dir_d91e1966cc57df4f49d1e07be7697713.xhtml" xlink:title="NEON"><polygon fill="#fff" stroke="red" points="410 -180 356 -180 356 -144 410 -144 410 -180"/><text x="383" y="-159.5" fill="#000" font-family="Helvetica,sans-Serif" font-size="10" text-anchor="middle">NEON</text></a></g></g><g id="edge6" class="edge"><title>dir_d91e1966cc57df4f49d1e07be7697713-&gt;dir_214608ef36d61442cb2b0c1c4e9a7def</title><path fill="none" stroke="#000" d="M364.1268,-143.8018C358.6593,-138.6321 352.6422,-133.0396 347,-128 342.1955,-123.7086 337.0304,-119.228 331.9732,-114.9113"/><polygon fill="#000" stroke="#000" points="334.075 -112.105 324.182 -108.313 329.551 -117.447 334.075 -112.105"/><g id="a_edge6-headlabel"><a target="_top" xlink:href="dir_000062_000000.xhtml" xlink:title="816"><text x="338.653" y="-109.761" fill="#000" font-family="Helvetica,sans-Serif" font-size="10" text-anchor="middle">816</text></a></g></g><g id="edge7" class="edge"><title>dir_d91e1966cc57df4f49d1e07be7697713-&gt;dir_5815af820a9cc9481f1d0990a0d60286</title><path fill="none" stroke="#000" d="M379.7242,-143.6811C375.4595,-124.1425 366.3995,-93.1568 349,-72 335.5662,-55.6652 315.8293,-42.8505 298.5489,-33.812"/><polygon fill="#000" stroke="#000" points="299.768 -30.509 289.257 -29.181 296.646 -36.774 299.768 -30.509"/><g id="a_edge7-headlabel"><a target="_top" xlink:href="dir_000062_000119.xhtml" xlink:title="4"><text x="304.252" y="-27.071" fill="#000" font-family="Helvetica,sans-Serif" font-size="10" text-anchor="middle">4</text></a></g></g><g id="node6" class="node"><title>dir_a8053b3d69cfefb2b2e6ec7bf9dd5c1a</title><g id="a_node6"><a target="_top" xlink:href="dir_a8053b3d69cfefb2b2e6ec7bf9dd5c1a.xhtml" xlink:title="utils"><polygon fill="#fff" stroke="red" points="482 -180 428 -180 428 -144 482 -144 482 -180"/><text x="455" y="-159.5" fill="#000" font-family="Helvetica,sans-Serif" font-size="10" text-anchor="middle">utils</text></a></g></g><g id="edge8" class="edge"><title>dir_a8053b3d69cfefb2b2e6ec7bf9dd5c1a-&gt;dir_214608ef36d61442cb2b0c1c4e9a7def</title><path fill="none" stroke="#000" d="M438.7085,-143.6923C432.9349,-138.0447 426.0979,-132.2108 419,-128 397.8151,-115.4322 371.9707,-106.4756 349.9653,-100.4273"/><polygon fill="#000" stroke="#000" points="350.716 -97.006 340.155 -97.85 348.938 -103.776 350.716 -97.006"/><g id="a_edge8-headlabel"><a target="_top" xlink:href="dir_000060_000000.xhtml" xlink:title="10"><text x="354.914" y="-92.673" fill="#000" font-family="Helvetica,sans-Serif" font-size="10" text-anchor="middle">10</text></a></g></g><g id="edge9" class="edge"><title>dir_a8053b3d69cfefb2b2e6ec7bf9dd5c1a-&gt;dir_5815af820a9cc9481f1d0990a0d60286</title><path fill="none" stroke="#000" d="M441.6477,-143.9193C426.4625,-124.2997 400.1074,-92.975 372,-72 349.5731,-55.2641 321.1525,-41.4703 298.8182,-32.0135"/><polygon fill="#000" stroke="#000" points="299.921 -28.682 289.342 -28.105 297.252 -35.154 299.921 -28.682"/><g id="a_edge9-headlabel"><a target="_top" xlink:href="dir_000060_000119.xhtml" xlink:title="3"><text x="304.327" y="-24.928" fill="#000" font-family="Helvetica,sans-Serif" font-size="10" text-anchor="middle">3</text></a></g></g><g id="edge5" class="edge"><title>dir_214608ef36d61442cb2b0c1c4e9a7def-&gt;dir_5815af820a9cc9481f1d0990a0d60286</title><path fill="none" stroke="#000" d="M291.9063,-71.8314C287.4403,-63.7925 282.0925,-54.1666 277.1621,-45.2918"/><polygon fill="#000" stroke="#000" points="280.146 -43.455 272.23 -36.413 274.026 -46.855 280.146 -43.455"/><g id="a_edge5-headlabel"><a target="_top" xlink:href="dir_000000_000119.xhtml" xlink:title="20"><text x="284.373" y="-42.718" fill="#000" font-family="Helvetica,sans-Serif" font-size="10" text-anchor="middle">20</text></a></g></g></g></svg>