<svg xmlns="http://www.w3.org/2000/svg" xmlns:xlink="http://www.w3.org/1999/xlink" width="262pt" height="308" viewBox="0 0 262 231"><g id="graph0" class="graph" transform="scale(1 1) rotate(0) translate(4 227)"><title>src/core/CL</title><polygon fill="#fff" stroke="transparent" points="-4 4 -4 -227 258 -227 258 4 -4 4"/><g id="clust1" class="cluster"><title>clusterdir_aebb8dcc11953d78e620bbef0b9e2183</title><g id="a_clust1"><a target="_top" xlink:href="dir_aebb8dcc11953d78e620bbef0b9e2183.xhtml" xlink:title="core"><polygon fill="#dde" stroke="#000" points="8 -128 8 -215 246 -215 246 -128 8 -128"/><text x="127" y="-203" fill="#000" font-family="Helvetica,sans-Serif" font-size="10" text-anchor="middle">core</text></a></g></g><g id="clust2" class="cluster"><title>clusterdir_8c278f79c760e5c5fbd911f9870614c1</title><g id="a_clust2"><a target="_top" xlink:href="dir_8c278f79c760e5c5fbd911f9870614c1.xhtml"><polygon fill="#eef" stroke="#000" points="16 -136 16 -188 238 -188 238 -136 16 -136"/></a></g></g><g id="node1" class="node"><title>dir_8c278f79c760e5c5fbd911f9870614c1</title><text x="51" y="-159.5" fill="#000" font-family="Helvetica,sans-Serif" font-size="10" text-anchor="middle">CL</text></g><g id="node4" class="node"><title>dir_214608ef36d61442cb2b0c1c4e9a7def</title><g id="a_node4"><a target="_top" xlink:href="dir_214608ef36d61442cb2b0c1c4e9a7def.xhtml" xlink:title="arm_compute"><polygon fill="#fff" stroke="red" points="175 -108 99 -108 99 -72 175 -72 175 -108"/><text x="137" y="-87.5" fill="#000" font-family="Helvetica,sans-Serif" font-size="10" text-anchor="middle">arm_compute</text></a></g></g><g id="edge1" class="edge"><title>dir_8c278f79c760e5c5fbd911f9870614c1-&gt;dir_214608ef36d61442cb2b0c1c4e9a7def</title><path fill="none" stroke="#000" d="M70.3124,-143.691C75.9304,-138.5195 82.1352,-132.9539 88,-128 93.3045,-123.5194 99.0466,-118.8843 104.669,-114.4571"/><polygon fill="#000" stroke="#000" points="107.015 -117.066 112.756 -108.162 102.715 -111.543 107.015 -117.066"/><g id="a_edge1-headlabel"><a target="_top" xlink:href="dir_000012_000000.xhtml" xlink:title="1155"><text x="105.923" y="-119.015" fill="#000" font-family="Helvetica,sans-Serif" font-size="10" text-anchor="middle">1155</text></a></g></g><g id="node2" class="node"><title>dir_25885286e9dad4fa105b7b25a8031bbf</title><g id="a_node2"><a target="_top" xlink:href="dir_25885286e9dad4fa105b7b25a8031bbf.xhtml" xlink:title="cl_kernels"><polygon fill="#fff" stroke="#000" points="157.5 -180 96.5 -180 96.5 -144 157.5 -144 157.5 -180"/><text x="127" y="-159.5" fill="#000" font-family="Helvetica,sans-Serif" font-size="10" text-anchor="middle">cl_kernels</text></a></g></g><g id="node3" class="node"><title>dir_8a6a287e420ec4de95804825506d2fde</title><g id="a_node3"><a target="_top" xlink:href="dir_8a6a287e420ec4de95804825506d2fde.xhtml" xlink:title="kernels"><polygon fill="#fff" stroke="#000" points="230 -180 176 -180 176 -144 230 -144 230 -180"/><text x="203" y="-159.5" fill="#000" font-family="Helvetica,sans-Serif" font-size="10" text-anchor="middle">kernels</text></a></g></g><g id="edge2" class="edge"><title>dir_8a6a287e420ec4de95804825506d2fde-&gt;dir_214608ef36d61442cb2b0c1c4e9a7def</title><path fill="none" stroke="#000" d="M186.3454,-143.8314C178.5886,-135.3694 169.2198,-125.1489 160.739,-115.8971"/><polygon fill="#000" stroke="#000" points="163.216 -113.42 153.879 -108.413 158.056 -118.15 163.216 -113.42"/><g id="a_edge2-headlabel"><a target="_top" xlink:href="dir_000054_000000.xhtml" xlink:title="1111"><text x="167.738" y="-111.651" fill="#000" font-family="Helvetica,sans-Serif" font-size="10" text-anchor="middle">1111</text></a></g></g><g id="node5" class="node"><title>dir_5815af820a9cc9481f1d0990a0d60286</title><g id="a_node5"><a target="_top" xlink:href="dir_5815af820a9cc9481f1d0990a0d60286.xhtml" xlink:title="support"><polygon fill="none" stroke="#000" points="197 -36 143 -36 143 0 197 0 197 -36"/><text x="170" y="-15.5" fill="#000" font-family="Helvetica,sans-Serif" font-size="10" text-anchor="middle">support</text></a></g></g><g id="edge3" class="edge"><title>dir_8a6a287e420ec4de95804825506d2fde-&gt;dir_5815af820a9cc9481f1d0990a0d60286</title><path fill="none" stroke="#000" d="M199.3861,-143.6742C195.7323,-125.4495 189.81,-96.7177 184,-72 182.0367,-63.6474 179.7555,-54.6087 177.6117,-46.3591"/><polygon fill="#000" stroke="#000" points="180.932 -45.224 175.004 -36.443 174.162 -47.004 180.932 -45.224"/><g id="a_edge3-headlabel"><a target="_top" xlink:href="dir_000054_000119.xhtml" xlink:title="29"><text x="184.592" y="-45.478" fill="#000" font-family="Helvetica,sans-Serif" font-size="10" text-anchor="middle">29</text></a></g></g><g id="edge4" class="edge"><title>dir_214608ef36d61442cb2b0c1c4e9a7def-&gt;dir_5815af820a9cc9481f1d0990a0d60286</title><path fill="none" stroke="#000" d="M145.3273,-71.8314C148.973,-63.8771 153.3309,-54.369 157.3627,-45.5723"/><polygon fill="#000" stroke="#000" points="160.576 -46.962 161.561 -36.413 154.212 -44.046 160.576 -46.962"/><g id="a_edge4-headlabel"><a target="_top" xlink:href="dir_000000_000119.xhtml" xlink:title="20"><text x="161.659" y="-48.913" fill="#000" font-family="Helvetica,sans-Serif" font-size="10" text-anchor="middle">20</text></a></g></g></g></svg>