<svg xmlns="http://www.w3.org/2000/svg" xmlns:xlink="http://www.w3.org/1999/xlink" width="170pt" height="295pt" viewBox="0 0 169.91 295"><g id="graph0" class="graph" transform="scale(1 1) rotate(0) translate(4 291)"><title>tests/benchmark/NEON</title><polygon fill="#fff" stroke="transparent" points="-4 4 -4 -291 165.915 -291 165.915 4 -4 4"/><g id="clust1" class="cluster"><title>clusterdir_4f2df8950dc650bf7cf9176fae02facc</title><g id="a_clust1"><a target="_top" xlink:href="dir_4f2df8950dc650bf7cf9176fae02facc.xhtml" xlink:title="benchmark"><polygon fill="#dde" stroke="#000" points="48.267 -208 48.267 -279 118.267 -279 118.267 -208 48.267 -208"/><text x="83.267" y="-267" fill="#000" font-family="Helvetica,sans-Serif" font-size="10" text-anchor="middle">benchmark</text></a></g></g><g id="node1" class="node"><title>dir_ec05701f68bea22653d08da5856c9ffc</title><g id="a_node1"><a target="_top" xlink:href="dir_ec05701f68bea22653d08da5856c9ffc.xhtml" xlink:title="NEON"><polygon fill="#eef" stroke="#000" points="110.267 -252 56.267 -252 56.267 -216 110.267 -216 110.267 -252"/><text x="83.267" y="-231.5" fill="#000" font-family="Helvetica,sans-Serif" font-size="10" text-anchor="middle">NEON</text></a></g></g><g id="node2" class="node"><title>dir_cbdb8362360e11eafe2fa3bc74cf0ffd</title><g id="a_node2"><a target="_top" xlink:href="dir_cbdb8362360e11eafe2fa3bc74cf0ffd.xhtml" xlink:title="utils"><polygon fill="#fff" stroke="red" points="55.267 -108 1.267 -108 1.267 -72 55.267 -72 55.267 -108"/><text x="28.267" y="-87.5" fill="#000" font-family="Helvetica,sans-Serif" font-size="10" text-anchor="middle">utils</text></a></g></g><g id="edge5" class="edge"><title>dir_ec05701f68bea22653d08da5856c9ffc-&gt;dir_cbdb8362360e11eafe2fa3bc74cf0ffd</title><path fill="none" stroke="#000" d="M55.9397,-223.1792C37.9742,-214.456 15.8917,-200.2787 5.2667,-180 -5.0587,-160.2933 2.4232,-135.6904 11.5188,-117.191"/><polygon fill="#000" stroke="#000" points="14.731 -118.604 16.337 -108.132 8.551 -115.317 14.731 -118.604"/><g id="a_edge5-headlabel"><a target="_top" xlink:href="dir_000101_000027.xhtml" xlink:title="45"><text x="15.55" y="-120.611" fill="#000" font-family="Helvetica,sans-Serif" font-size="10" text-anchor="middle">45</text></a></g></g><g id="node3" class="node"><title>dir_445738e6fed662d0b65e690e3f1e1de0</title><g id="a_node3"><a target="_top" xlink:href="dir_445738e6fed662d0b65e690e3f1e1de0.xhtml" xlink:title="NEON"><polygon fill="none" stroke="#000" points="148.267 -180 94.267 -180 94.267 -144 148.267 -144 148.267 -180"/><text x="121.267" y="-159.5" fill="#000" font-family="Helvetica,sans-Serif" font-size="10" text-anchor="middle">NEON</text></a></g></g><g id="edge6" class="edge"><title>dir_ec05701f68bea22653d08da5856c9ffc-&gt;dir_445738e6fed662d0b65e690e3f1e1de0</title><path fill="none" stroke="#000" d="M92.8557,-215.8314C97.0984,-207.7925 102.1788,-198.1666 106.8627,-189.2918"/><polygon fill="#000" stroke="#000" points="109.976 -190.891 111.549 -180.413 103.786 -187.624 109.976 -190.891"/><g id="a_edge6-headlabel"><a target="_top" xlink:href="dir_000101_000122.xhtml" xlink:title="50"><text x="110.809" y="-192.895" fill="#000" font-family="Helvetica,sans-Serif" font-size="10" text-anchor="middle">50</text></a></g></g><g id="node4" class="node"><title>dir_9e71e2da941d3cafc4d98a9f6ae3de4f</title><g id="a_node4"><a target="_top" xlink:href="dir_9e71e2da941d3cafc4d98a9f6ae3de4f.xhtml" xlink:title="framework"><polygon fill="#fff" stroke="red" points="76.267 -180 14.267 -180 14.267 -144 76.267 -144 76.267 -180"/><text x="45.267" y="-159.5" fill="#000" font-family="Helvetica,sans-Serif" font-size="10" text-anchor="middle">framework</text></a></g></g><g id="edge7" class="edge"><title>dir_ec05701f68bea22653d08da5856c9ffc-&gt;dir_9e71e2da941d3cafc4d98a9f6ae3de4f</title><path fill="none" stroke="#000" d="M73.6777,-215.8314C69.4349,-207.7925 64.3546,-198.1666 59.6707,-189.2918"/><polygon fill="#000" stroke="#000" points="62.748 -187.624 54.985 -180.413 56.557 -190.891 62.748 -187.624"/><g id="a_edge7-headlabel"><a target="_top" xlink:href="dir_000101_000025.xhtml" xlink:title="89"><text x="66.937" y="-186.977" fill="#000" font-family="Helvetica,sans-Serif" font-size="10" text-anchor="middle">89</text></a></g></g><g id="node5" class="node"><title>dir_214608ef36d61442cb2b0c1c4e9a7def</title><g id="a_node5"><a target="_top" xlink:href="dir_214608ef36d61442cb2b0c1c4e9a7def.xhtml" xlink:title="arm_compute"><polygon fill="#fff" stroke="red" points="121.267 -36 45.267 -36 45.267 0 121.267 0 121.267 -36"/><text x="83.267" y="-15.5" fill="#000" font-family="Helvetica,sans-Serif" font-size="10" text-anchor="middle">arm_compute</text></a></g></g><g id="edge8" class="edge"><title>dir_ec05701f68bea22653d08da5856c9ffc-&gt;dir_214608ef36d61442cb2b0c1c4e9a7def</title><path fill="none" stroke="#000" d="M110.3428,-222.2385C127.1948,-213.3174 147.4671,-199.2824 157.2667,-180 164.5157,-165.7363 161.3618,-159.4671 157.2667,-144 147.2767,-106.2681 122.5649,-68.3776 104.4358,-44.1486"/><polygon fill="#000" stroke="#000" points="107.189 -41.987 98.333 -36.171 101.629 -46.24 107.189 -41.987"/><g id="a_edge8-headlabel"><a target="_top" xlink:href="dir_000101_000000.xhtml" xlink:title="191"><text x="111.628" y="-40.617" fill="#000" font-family="Helvetica,sans-Serif" font-size="10" text-anchor="middle">191</text></a></g></g><g id="edge1" class="edge"><title>dir_cbdb8362360e11eafe2fa3bc74cf0ffd-&gt;dir_214608ef36d61442cb2b0c1c4e9a7def</title><path fill="none" stroke="#000" d="M36.1931,-71.8314C41.7761,-63.454 49.3023,-53.3531 56.7505,-44.1749"/><polygon fill="#000" stroke="#000" points="59.507 -46.334 63.225 -36.413 54.132 -41.85 59.507 -46.334"/><g id="a_edge1-headlabel"><a target="_top" xlink:href="dir_000027_000000.xhtml" xlink:title="36"><text x="59.385" y="-48.413" fill="#000" font-family="Helvetica,sans-Serif" font-size="10" text-anchor="middle">36</text></a></g></g><g id="edge2" class="edge"><title>dir_445738e6fed662d0b65e690e3f1e1de0-&gt;dir_214608ef36d61442cb2b0c1c4e9a7def</title><path fill="none" stroke="#000" d="M116.4539,-143.7623C109.944,-119.0928 98.2713,-74.8598 90.6485,-45.9731"/><polygon fill="#000" stroke="#000" points="93.976 -44.866 88.04 -36.09 87.208 -46.652 93.976 -44.866"/><g id="a_edge2-headlabel"><a target="_top" xlink:href="dir_000122_000000.xhtml" xlink:title="6"><text x="97.638" y="-45.117" fill="#000" font-family="Helvetica,sans-Serif" font-size="10" text-anchor="middle">6</text></a></g></g><g id="edge3" class="edge"><title>dir_9e71e2da941d3cafc4d98a9f6ae3de4f-&gt;dir_cbdb8362360e11eafe2fa3bc74cf0ffd</title><path fill="none" stroke="#000" d="M40.9769,-143.8314C39.1587,-136.131 36.9967,-126.9743 34.9762,-118.4166"/><polygon fill="#000" stroke="#000" points="38.319 -117.341 32.614 -108.413 31.506 -118.95 38.319 -117.341"/><g id="a_edge3-headlabel"><a target="_top" xlink:href="dir_000025_000027.xhtml" xlink:title="3"><text x="41.908" y="-117.687" fill="#000" font-family="Helvetica,sans-Serif" font-size="10" text-anchor="middle">3</text></a></g></g><g id="edge4" class="edge"><title>dir_9e71e2da941d3cafc4d98a9f6ae3de4f-&gt;dir_214608ef36d61442cb2b0c1c4e9a7def</title><path fill="none" stroke="#000" d="M52.3756,-143.6955C56.2326,-133.3278 60.8881,-120.058 64.2667,-108 70.0025,-87.5291 74.9108,-64.0109 78.3012,-46.1505"/><polygon fill="#000" stroke="#000" points="81.784 -46.567 80.163 -36.097 74.901 -45.292 81.784 -46.567"/><g id="a_edge4-headlabel"><a target="_top" xlink:href="dir_000025_000000.xhtml" xlink:title="14"><text x="83.921" y="-48.119" fill="#000" font-family="Helvetica,sans-Serif" font-size="10" text-anchor="middle">14</text></a></g></g><g id="edge9" class="edge"><title>dir_214608ef36d61442cb2b0c1c4e9a7def-&gt;dir_cbdb8362360e11eafe2fa3bc74cf0ffd</title><path fill="none" stroke="#000" d="M75.177,-36.4133C69.5565,-44.8239 62.0123,-54.9323 54.5658,-64.0923"/><polygon fill="#000" stroke="#000" points="51.825 -61.914 48.098 -71.831 57.196 -66.403 51.825 -61.914"/><g id="a_edge9-headlabel"><a target="_top" xlink:href="dir_000000_000027.xhtml" xlink:title="1"><text x="51.952" y="-54.835" fill="#000" font-family="Helvetica,sans-Serif" font-size="10" text-anchor="middle">1</text></a></g></g></g></svg>