<svg xmlns="http://www.w3.org/2000/svg" xmlns:xlink="http://www.w3.org/1999/xlink" width="528" height="244" viewBox="0 0 396 183"><g id="graph0" class="graph" transform="scale(1 1) rotate(0) translate(4 179)"><title>arm_compute/core/utils</title><polygon fill="#fff" stroke="transparent" points="-4 4 -4 -179 392 -179 392 4 -4 4"/><g id="clust1" class="cluster"><title>clusterdir_1fb090f0c6070330bfaccc4236d3ca0d</title><g id="a_clust1"><a target="_top" xlink:href="dir_1fb090f0c6070330bfaccc4236d3ca0d.xhtml" xlink:title="core"><polygon fill="#dde" stroke="#000" points="8 -8 8 -167 326 -167 326 -8 8 -8"/><text x="167" y="-155" fill="#000" font-family="Helvetica,sans-Serif" font-size="10" text-anchor="middle">core</text></a></g></g><g id="clust2" class="cluster"><title>clusterdir_7b0825b7536eda12b63e5d87347b1c7d</title><g id="a_clust2"><a target="_top" xlink:href="dir_7b0825b7536eda12b63e5d87347b1c7d.xhtml"><polygon fill="#eef" stroke="#000" points="16 -16 16 -140 318 -140 318 -16 16 -16"/></a></g></g><g id="node1" class="node"><title>dir_7b0825b7536eda12b63e5d87347b1c7d</title><text x="283" y="-111.5" fill="#000" font-family="Helvetica,sans-Serif" font-size="10" text-anchor="middle">utils</text></g><g id="node2" class="node"><title>dir_109374e99be0205441d869eba1a88b2d</title><g id="a_node2"><a target="_top" xlink:href="dir_109374e99be0205441d869eba1a88b2d.xhtml" xlink:title="helpers"><polygon fill="#fff" stroke="#000" points="166 -60 112 -60 112 -24 166 -24 166 -60"/><text x="139" y="-39.5" fill="#000" font-family="Helvetica,sans-Serif" font-size="10" text-anchor="middle">helpers</text></a></g></g><g id="node3" class="node"><title>dir_4165fcd8206cc52fde421ae1f1275b40</title><g id="a_node3"><a target="_top" xlink:href="dir_4165fcd8206cc52fde421ae1f1275b40.xhtml" xlink:title="io"><polygon fill="#fff" stroke="#000" points="238 -60 184 -60 184 -24 238 -24 238 -60"/><text x="211" y="-39.5" fill="#000" font-family="Helvetica,sans-Serif" font-size="10" text-anchor="middle">io</text></a></g></g><g id="node4" class="node"><title>dir_e575b855d3e83e3374bc2a6f9bf89d98</title><g id="a_node4"><a target="_top" xlink:href="dir_e575b855d3e83e3374bc2a6f9bf89d98.xhtml" xlink:title="logging"><polygon fill="#fff" stroke="#000" points="238 -132 184 -132 184 -96 238 -96 238 -132"/><text x="211" y="-111.5" fill="#000" font-family="Helvetica,sans-Serif" font-size="10" text-anchor="middle">logging</text></a></g></g><g id="edge1" class="edge"><title>dir_e575b855d3e83e3374bc2a6f9bf89d98-&gt;dir_4165fcd8206cc52fde421ae1f1275b40</title><path fill="none" stroke="#000" d="M211,-95.8314C211,-88.131 211,-78.9743 211,-70.4166"/><polygon fill="#000" stroke="#000" points="214.5 -70.413 211 -60.413 207.5 -70.413 214.5 -70.413"/><g id="a_edge1-headlabel"><a target="_top" xlink:href="dir_000009_000029.xhtml" xlink:title="1"><text x="217.339" y="-71.508" fill="#000" font-family="Helvetica,sans-Serif" font-size="10" text-anchor="middle">1</text></a></g></g><g id="node7" class="node"><title>dir_5815af820a9cc9481f1d0990a0d60286</title><g id="a_node7"><a target="_top" xlink:href="dir_5815af820a9cc9481f1d0990a0d60286.xhtml" xlink:title="support"><polygon fill="none" stroke="#000" points="388 -60 334 -60 334 -24 388 -24 388 -60"/><text x="361" y="-39.5" fill="#000" font-family="Helvetica,sans-Serif" font-size="10" text-anchor="middle">support</text></a></g></g><g id="edge2" class="edge"><title>dir_e575b855d3e83e3374bc2a6f9bf89d98-&gt;dir_5815af820a9cc9481f1d0990a0d60286</title><path fill="none" stroke="#000" d="M238.0963,-100.3747C241.096,-98.8893 244.1099,-97.4068 247,-96 272.8442,-83.4197 302.1537,-69.5449 324.5818,-59.0097"/><polygon fill="#000" stroke="#000" points="326.175 -62.128 333.742 -54.713 323.202 -55.791 326.175 -62.128"/><g id="a_edge2-headlabel"><a target="_top" xlink:href="dir_000009_000119.xhtml" xlink:title="3"><text x="324.127" y="-63.725" fill="#000" font-family="Helvetica,sans-Serif" font-size="10" text-anchor="middle">3</text></a></g></g><g id="node5" class="node"><title>dir_cab437ca4f6ec1fbc573ae83f91b2654</title><g id="a_node5"><a target="_top" xlink:href="dir_cab437ca4f6ec1fbc573ae83f91b2654.xhtml" xlink:title="misc"><polygon fill="#fff" stroke="#000" points="166 -132 112 -132 112 -96 166 -96 166 -132"/><text x="139" y="-111.5" fill="#000" font-family="Helvetica,sans-Serif" font-size="10" text-anchor="middle">misc</text></a></g></g><g id="edge3" class="edge"><title>dir_cab437ca4f6ec1fbc573ae83f91b2654-&gt;dir_109374e99be0205441d869eba1a88b2d</title><path fill="none" stroke="#000" d="M139,-95.8314C139,-88.131 139,-78.9743 139,-70.4166"/><polygon fill="#000" stroke="#000" points="142.5 -70.413 139 -60.413 135.5 -70.413 142.5 -70.413"/><g id="a_edge3-headlabel"><a target="_top" xlink:href="dir_000032_000028.xhtml" xlink:title="1"><text x="145.339" y="-71.508" fill="#000" font-family="Helvetica,sans-Serif" font-size="10" text-anchor="middle">1</text></a></g></g><g id="node6" class="node"><title>dir_4dbf711d3d3ef9d1292a532e836709c1</title><g id="a_node6"><a target="_top" xlink:href="dir_4dbf711d3d3ef9d1292a532e836709c1.xhtml" xlink:title="quantization"><polygon fill="#fff" stroke="#000" points="93.5 -132 24.5 -132 24.5 -96 93.5 -96 93.5 -132"/><text x="59" y="-111.5" fill="#000" font-family="Helvetica,sans-Serif" font-size="10" text-anchor="middle">quantization</text></a></g></g></g></svg>