<svg xmlns="http://www.w3.org/2000/svg" xmlns:xlink="http://www.w3.org/1999/xlink" width="164pt" height="308" viewBox="0 0 164 231"><g id="graph0" class="graph" transform="scale(1 1) rotate(0) translate(4 227)"><title>arm_compute/core/CPP</title><polygon fill="#fff" stroke="transparent" points="-4 4 -4 -227 160 -227 160 4 -4 4"/><g id="clust1" class="cluster"><title>clusterdir_1fb090f0c6070330bfaccc4236d3ca0d</title><g id="a_clust1"><a target="_top" xlink:href="dir_1fb090f0c6070330bfaccc4236d3ca0d.xhtml" xlink:title="core"><polygon fill="#dde" stroke="#000" points="8 -56 8 -215 94 -215 94 -56 8 -56"/><text x="51" y="-203" fill="#000" font-family="Helvetica,sans-Serif" font-size="10" text-anchor="middle">core</text></a></g></g><g id="clust2" class="cluster"><title>clusterdir_7484b841a86f2d7fdd057c9b24fbf230</title><g id="a_clust2"><a target="_top" xlink:href="dir_7484b841a86f2d7fdd057c9b24fbf230.xhtml"><polygon fill="#eef" stroke="#000" points="16 -64 16 -188 86 -188 86 -64 16 -64"/></a></g></g><g id="node1" class="node"><title>dir_7484b841a86f2d7fdd057c9b24fbf230</title><text x="51" y="-159.5" fill="#000" font-family="Helvetica,sans-Serif" font-size="10" text-anchor="middle">CPP</text></g><g id="node2" class="node"><title>dir_9b109a3838d873f4037ee21889a49db8</title><g id="a_node2"><a target="_top" xlink:href="dir_9b109a3838d873f4037ee21889a49db8.xhtml" xlink:title="kernels"><polygon fill="#fff" stroke="#000" points="78 -108 24 -108 24 -72 78 -72 78 -108"/><text x="51" y="-87.5" fill="#000" font-family="Helvetica,sans-Serif" font-size="10" text-anchor="middle">kernels</text></a></g></g><g id="edge5" class="edge"><title>dir_7484b841a86f2d7fdd057c9b24fbf230-&gt;dir_9b109a3838d873f4037ee21889a49db8</title><path fill="none" stroke="#000" d="M51,-143.8314C51,-136.131 51,-126.9743 51,-118.4166"/><polygon fill="#000" stroke="#000" points="54.5 -118.413 51 -108.413 47.5 -118.413 54.5 -118.413"/><g id="a_edge5-headlabel"><a target="_top" xlink:href="dir_000004_000005.xhtml" xlink:title="7"><text x="57.339" y="-119.508" fill="#000" font-family="Helvetica,sans-Serif" font-size="10" text-anchor="middle">7</text></a></g></g><g id="node3" class="node"><title>dir_315f6cf1ec0b2df3ae747ff8286a19f5</title><g id="a_node3"><a target="_top" xlink:href="dir_315f6cf1ec0b2df3ae747ff8286a19f5.xhtml" xlink:title="NEON"><polygon fill="#fff" stroke="red" points="156 -108 102 -108 102 -72 156 -72 156 -108"/><text x="129" y="-87.5" fill="#000" font-family="Helvetica,sans-Serif" font-size="10" text-anchor="middle">NEON</text></a></g></g><g id="edge1" class="edge"><title>dir_9b109a3838d873f4037ee21889a49db8-&gt;dir_315f6cf1ec0b2df3ae747ff8286a19f5</title><path fill="none" stroke="#000" d="M78.1172,-90C82.7135,-90 87.3099,-90 91.9062,-90"/><polygon fill="#000" stroke="#000" points="91.969 -93.5 101.969 -90 91.969 -86.5 91.969 -93.5"/><g id="a_edge1-headlabel"><a target="_top" xlink:href="dir_000005_000016.xhtml" xlink:title="3"><text x="88.374" y="-93.839" fill="#000" font-family="Helvetica,sans-Serif" font-size="10" text-anchor="middle">3</text></a></g></g><g id="node4" class="node"><title>dir_5815af820a9cc9481f1d0990a0d60286</title><g id="a_node4"><a target="_top" xlink:href="dir_5815af820a9cc9481f1d0990a0d60286.xhtml" xlink:title="support"><polygon fill="none" stroke="#000" points="117 -36 63 -36 63 0 117 0 117 -36"/><text x="90" y="-15.5" fill="#000" font-family="Helvetica,sans-Serif" font-size="10" text-anchor="middle">support</text></a></g></g><g id="edge2" class="edge"><title>dir_9b109a3838d873f4037ee21889a49db8-&gt;dir_5815af820a9cc9481f1d0990a0d60286</title><path fill="none" stroke="#000" d="M60.8413,-71.8314C65.1957,-63.7925 70.4098,-54.1666 75.2169,-45.2918"/><polygon fill="#000" stroke="#000" points="78.341 -46.873 80.026 -36.413 72.186 -43.539 78.341 -46.873"/><g id="a_edge2-headlabel"><a target="_top" xlink:href="dir_000005_000119.xhtml" xlink:title="1"><text x="79.125" y="-48.886" fill="#000" font-family="Helvetica,sans-Serif" font-size="10" text-anchor="middle">1</text></a></g></g><g id="edge3" class="edge"><title>dir_315f6cf1ec0b2df3ae747ff8286a19f5-&gt;dir_9b109a3838d873f4037ee21889a49db8</title><path fill="none" stroke="#000" d="M101.9685,-90C97.3722,-90 92.7758,-90 88.1795,-90"/><polygon fill="#000" stroke="#000" points="88.117 -86.5 78.117 -90 88.117 -93.5 88.117 -86.5"/><g id="a_edge3-headlabel"><a target="_top" xlink:href="dir_000016_000005.xhtml" xlink:title="2"><text x="91.712" y="-81.161" fill="#000" font-family="Helvetica,sans-Serif" font-size="10" text-anchor="middle">2</text></a></g></g><g id="edge4" class="edge"><title>dir_315f6cf1ec0b2df3ae747ff8286a19f5-&gt;dir_5815af820a9cc9481f1d0990a0d60286</title><path fill="none" stroke="#000" d="M119.1587,-71.8314C114.8043,-63.7925 109.5902,-54.1666 104.7831,-45.2918"/><polygon fill="#000" stroke="#000" points="107.814 -43.539 99.974 -36.413 101.659 -46.873 107.814 -43.539"/><g id="a_edge4-headlabel"><a target="_top" xlink:href="dir_000016_000119.xhtml" xlink:title="5"><text x="112.023" y="-42.848" fill="#000" font-family="Helvetica,sans-Serif" font-size="10" text-anchor="middle">5</text></a></g></g></g></svg>