<svg xmlns="http://www.w3.org/2000/svg" xmlns:xlink="http://www.w3.org/1999/xlink" width="196pt" height="295pt" viewBox="0 0 196.21 295"><g id="graph0" class="graph" transform="scale(1 1) rotate(0) translate(4 291)"><title>tests/validation/CL/UNIT</title><polygon fill="#fff" stroke="transparent" points="-4 4 -4 -291 192.212 -291 192.212 4 -4 4"/><g id="clust1" class="cluster"><title>clusterdir_f7024513cd67abef53e86ee9382ac5ce</title><g id="a_clust1"><a target="_top" xlink:href="dir_f7024513cd67abef53e86ee9382ac5ce.xhtml" xlink:title="CL"><polygon fill="#dde" stroke="#000" points="82 -208 82 -279 152 -279 152 -208 82 -208"/><text x="117" y="-267" fill="#000" font-family="Helvetica,sans-Serif" font-size="10" text-anchor="middle">CL</text></a></g></g><g id="node1" class="node"><title>dir_4fe3055359cf5438733b5e64b064b197</title><g id="a_node1"><a target="_top" xlink:href="dir_4fe3055359cf5438733b5e64b064b197.xhtml" xlink:title="UNIT"><polygon fill="#eef" stroke="#000" points="144 -252 90 -252 90 -216 144 -216 144 -252"/><text x="117" y="-231.5" fill="#000" font-family="Helvetica,sans-Serif" font-size="10" text-anchor="middle">UNIT</text></a></g></g><g id="node2" class="node"><title>dir_9e71e2da941d3cafc4d98a9f6ae3de4f</title><g id="a_node2"><a target="_top" xlink:href="dir_9e71e2da941d3cafc4d98a9f6ae3de4f.xhtml" xlink:title="framework"><polygon fill="#fff" stroke="red" points="62 -180 0 -180 0 -144 62 -144 62 -180"/><text x="31" y="-159.5" fill="#000" font-family="Helvetica,sans-Serif" font-size="10" text-anchor="middle">framework</text></a></g></g><g id="edge1" class="edge"><title>dir_4fe3055359cf5438733b5e64b064b197-&gt;dir_9e71e2da941d3cafc4d98a9f6ae3de4f</title><path fill="none" stroke="#000" d="M95.2986,-215.8314C84.8079,-207.0485 72.0545,-196.3712 60.6806,-186.8489"/><polygon fill="#000" stroke="#000" points="62.609 -183.899 52.694 -180.163 58.115 -189.266 62.609 -183.899"/><g id="a_edge1-headlabel"><a target="_top" xlink:href="dir_000117_000025.xhtml" xlink:title="8"><text x="67.188" y="-181.529" fill="#000" font-family="Helvetica,sans-Serif" font-size="10" text-anchor="middle">8</text></a></g></g><g id="node3" class="node"><title>dir_214608ef36d61442cb2b0c1c4e9a7def</title><g id="a_node3"><a target="_top" xlink:href="dir_214608ef36d61442cb2b0c1c4e9a7def.xhtml" xlink:title="arm_compute"><polygon fill="#fff" stroke="red" points="131 -108 55 -108 55 -72 131 -72 131 -108"/><text x="93" y="-87.5" fill="#000" font-family="Helvetica,sans-Serif" font-size="10" text-anchor="middle">arm_compute</text></a></g></g><g id="edge2" class="edge"><title>dir_4fe3055359cf5438733b5e64b064b197-&gt;dir_214608ef36d61442cb2b0c1c4e9a7def</title><path fill="none" stroke="#000" d="M113.9604,-215.7623C109.8488,-191.0928 102.4766,-146.8598 97.6622,-117.9731"/><polygon fill="#000" stroke="#000" points="101.111 -117.378 96.015 -108.09 94.207 -118.529 101.111 -117.378"/><g id="a_edge2-headlabel"><a target="_top" xlink:href="dir_000117_000000.xhtml" xlink:title="12"><text x="104.503" y="-117.957" fill="#000" font-family="Helvetica,sans-Serif" font-size="10" text-anchor="middle">12</text></a></g></g><g id="node4" class="node"><title>dir_896191444cf08ec8ade6f88256cb2bdd</title><g id="a_node4"><a target="_top" xlink:href="dir_896191444cf08ec8ade6f88256cb2bdd.xhtml" xlink:title="CL"><polygon fill="none" stroke="#000" points="172 -180 118 -180 118 -144 172 -144 172 -180"/><text x="145" y="-159.5" fill="#000" font-family="Helvetica,sans-Serif" font-size="10" text-anchor="middle">CL</text></a></g></g><g id="edge3" class="edge"><title>dir_4fe3055359cf5438733b5e64b064b197-&gt;dir_896191444cf08ec8ade6f88256cb2bdd</title><path fill="none" stroke="#000" d="M124.0656,-215.8314C127.126,-207.9617 130.7779,-198.5712 134.1682,-189.8533"/><polygon fill="#000" stroke="#000" points="137.477 -191.002 137.839 -180.413 130.953 -188.465 137.477 -191.002"/><g id="a_edge3-headlabel"><a target="_top" xlink:href="dir_000117_000120.xhtml" xlink:title="2"><text x="138.82" y="-192.881" fill="#000" font-family="Helvetica,sans-Serif" font-size="10" text-anchor="middle">2</text></a></g></g><g id="node5" class="node"><title>dir_5815af820a9cc9481f1d0990a0d60286</title><g id="a_node5"><a target="_top" xlink:href="dir_5815af820a9cc9481f1d0990a0d60286.xhtml" xlink:title="support"><polygon fill="none" stroke="#000" points="153 -36 99 -36 99 0 153 0 153 -36"/><text x="126" y="-15.5" fill="#000" font-family="Helvetica,sans-Serif" font-size="10" text-anchor="middle">support</text></a></g></g><g id="edge4" class="edge"><title>dir_4fe3055359cf5438733b5e64b064b197-&gt;dir_5815af820a9cc9481f1d0990a0d60286</title><path fill="none" stroke="#000" d="M144.1093,-218.9972C157.9042,-209.7409 173.3425,-196.4801 181,-180 202.3698,-134.009 170.7678,-77.3027 147.3483,-44.6331"/><polygon fill="#000" stroke="#000" points="150.072 -42.43 141.31 -36.475 144.446 -46.595 150.072 -42.43"/><g id="a_edge4-headlabel"><a target="_top" xlink:href="dir_000117_000119.xhtml" xlink:title="3"><text x="154.493" y="-41.13" fill="#000" font-family="Helvetica,sans-Serif" font-size="10" text-anchor="middle">3</text></a></g></g><g id="edge5" class="edge"><title>dir_9e71e2da941d3cafc4d98a9f6ae3de4f-&gt;dir_214608ef36d61442cb2b0c1c4e9a7def</title><path fill="none" stroke="#000" d="M46.6452,-143.8314C53.8591,-135.454 62.557,-125.3531 70.4605,-116.1749"/><polygon fill="#000" stroke="#000" points="73.271 -118.275 77.144 -108.413 67.967 -113.707 73.271 -118.275"/><g id="a_edge5-headlabel"><a target="_top" xlink:href="dir_000025_000000.xhtml" xlink:title="14"><text x="73.077" y="-120.351" fill="#000" font-family="Helvetica,sans-Serif" font-size="10" text-anchor="middle">14</text></a></g></g><g id="edge6" class="edge"><title>dir_9e71e2da941d3cafc4d98a9f6ae3de4f-&gt;dir_5815af820a9cc9481f1d0990a0d60286</title><path fill="none" stroke="#000" d="M29.9785,-143.9519C29.7507,-124.645 31.9572,-93.8559 46,-72 56.4493,-55.737 73.726,-43.1657 89.5552,-34.2613"/><polygon fill="#000" stroke="#000" points="91.45 -37.218 98.645 -29.442 88.171 -31.034 91.45 -37.218"/><g id="a_edge6-headlabel"><a target="_top" xlink:href="dir_000025_000119.xhtml" xlink:title="7"><text x="89.604" y="-38.911" fill="#000" font-family="Helvetica,sans-Serif" font-size="10" text-anchor="middle">7</text></a></g></g><g id="edge7" class="edge"><title>dir_214608ef36d61442cb2b0c1c4e9a7def-&gt;dir_5815af820a9cc9481f1d0990a0d60286</title><path fill="none" stroke="#000" d="M101.3273,-71.8314C104.973,-63.8771 109.3309,-54.369 113.3627,-45.5723"/><polygon fill="#000" stroke="#000" points="116.576 -46.962 117.561 -36.413 110.212 -44.046 116.576 -46.962"/><g id="a_edge7-headlabel"><a target="_top" xlink:href="dir_000000_000119.xhtml" xlink:title="20"><text x="117.659" y="-48.913" fill="#000" font-family="Helvetica,sans-Serif" font-size="10" text-anchor="middle">20</text></a></g></g><g id="edge8" class="edge"><title>dir_896191444cf08ec8ade6f88256cb2bdd-&gt;dir_214608ef36d61442cb2b0c1c4e9a7def</title><path fill="none" stroke="#000" d="M131.8782,-143.8314C125.9501,-135.6232 118.8271,-125.7606 112.3067,-116.7323"/><polygon fill="#000" stroke="#000" points="114.991 -114.471 106.299 -108.413 109.316 -118.569 114.991 -114.471"/><g id="a_edge8-headlabel"><a target="_top" xlink:href="dir_000120_000000.xhtml" xlink:title="5"><text x="119.397" y="-113.223" fill="#000" font-family="Helvetica,sans-Serif" font-size="10" text-anchor="middle">5</text></a></g></g><g id="edge9" class="edge"><title>dir_896191444cf08ec8ade6f88256cb2bdd-&gt;dir_5815af820a9cc9481f1d0990a0d60286</title><path fill="none" stroke="#000" d="M145.0444,-143.9606C144.8445,-125.7112 143.8552,-96.74 140,-72 138.6789,-63.5221 136.5955,-54.4448 134.4356,-46.1983"/><polygon fill="#000" stroke="#000" points="137.74 -45.016 131.71 -36.305 130.992 -46.875 137.74 -45.016"/><g id="a_edge9-headlabel"><a target="_top" xlink:href="dir_000120_000119.xhtml" xlink:title="1"><text x="141.432" y="-45.228" fill="#000" font-family="Helvetica,sans-Serif" font-size="10" text-anchor="middle">1</text></a></g></g></g></svg>