<svg xmlns="http://www.w3.org/2000/svg" xmlns:xlink="http://www.w3.org/1999/xlink" width="535pt" height="404" viewBox="0 0 534.96 303"><g id="graph0" class="graph" transform="scale(1 1) rotate(0) translate(4 299)"><title>tests/benchmark</title><polygon fill="#fff" stroke="transparent" points="-4 4 -4 -299 530.965 -299 530.965 4 -4 4"/><g id="clust1" class="cluster"><title>clusterdir_59425e443f801f1f2fd8bbe4959a3ccf</title><g id="a_clust1"><a target="_top" xlink:href="dir_59425e443f801f1f2fd8bbe4959a3ccf.xhtml" xlink:title="tests"><polygon fill="#dde" stroke="#000" points="159 -200 159 -287 517 -287 517 -200 159 -200"/><text x="338" y="-275" fill="#000" font-family="Helvetica,sans-Serif" font-size="10" text-anchor="middle">tests</text></a></g></g><g id="clust2" class="cluster"><title>clusterdir_4f2df8950dc650bf7cf9176fae02facc</title><g id="a_clust2"><a target="_top" xlink:href="dir_4f2df8950dc650bf7cf9176fae02facc.xhtml"><polygon fill="#eef" stroke="#000" points="167 -208 167 -260 509 -260 509 -208 167 -208"/></a></g></g><g id="node1" class="node"><title>dir_4f2df8950dc650bf7cf9176fae02facc</title><text x="468" y="-231.5" fill="#000" font-family="Helvetica,sans-Serif" font-size="10" text-anchor="middle">benchmark</text></g><g id="node2" class="node"><title>dir_4da487531dc5bdc76b523c9e82b781b1</title><g id="a_node2"><a target="_top" xlink:href="dir_4da487531dc5bdc76b523c9e82b781b1.xhtml" xlink:title="CL"><polygon fill="#fff" stroke="#000" points="229 -252 175 -252 175 -216 229 -216 229 -252"/><text x="202" y="-231.5" fill="#000" font-family="Helvetica,sans-Serif" font-size="10" text-anchor="middle">CL</text></a></g></g><g id="node5" class="node"><title>dir_cbdb8362360e11eafe2fa3bc74cf0ffd</title><g id="a_node5"><a target="_top" xlink:href="dir_cbdb8362360e11eafe2fa3bc74cf0ffd.xhtml" xlink:title="utils"><polygon fill="#fff" stroke="red" points="377 -108 323 -108 323 -72 377 -72 377 -108"/><text x="350" y="-87.5" fill="#000" font-family="Helvetica,sans-Serif" font-size="10" text-anchor="middle">utils</text></a></g></g><g id="edge1" class="edge"><title>dir_4da487531dc5bdc76b523c9e82b781b1-&gt;dir_cbdb8362360e11eafe2fa3bc74cf0ffd</title><path fill="none" stroke="#000" d="M174.9774,-218.6789C161.4784,-209.4052 146.4641,-196.2286 139,-180 132.3143,-165.4638 129.1886,-156.6387 139,-144 160.1298,-116.7815 258.1177,-100.9488 312.8191,-94.0856"/><polygon fill="#000" stroke="#000" points="313.319 -97.551 322.824 -92.87 312.475 -90.602 313.319 -97.551"/><g id="a_edge1-headlabel"><a target="_top" xlink:href="dir_000099_000027.xhtml" xlink:title="47"><text x="310.093" y="-98.303" fill="#000" font-family="Helvetica,sans-Serif" font-size="10" text-anchor="middle">47</text></a></g></g><g id="node7" class="node"><title>dir_9e71e2da941d3cafc4d98a9f6ae3de4f</title><g id="a_node7"><a target="_top" xlink:href="dir_9e71e2da941d3cafc4d98a9f6ae3de4f.xhtml" xlink:title="framework"><polygon fill="#fff" stroke="red" points="326 -180 264 -180 264 -144 326 -144 326 -180"/><text x="295" y="-159.5" fill="#000" font-family="Helvetica,sans-Serif" font-size="10" text-anchor="middle">framework</text></a></g></g><g id="edge2" class="edge"><title>dir_4da487531dc5bdc76b523c9e82b781b1-&gt;dir_9e71e2da941d3cafc4d98a9f6ae3de4f</title><path fill="none" stroke="#000" d="M220.1449,-215.7312C225.7007,-210.4523 231.9471,-204.8193 238,-200 244.1496,-195.1037 250.9232,-190.2027 257.5887,-185.6258"/><polygon fill="#000" stroke="#000" points="259.572 -188.51 265.919 -180.026 255.667 -182.7 259.572 -188.51"/><g id="a_edge2-headlabel"><a target="_top" xlink:href="dir_000099_000025.xhtml" xlink:title="93"><text x="258.173" y="-190.372" fill="#000" font-family="Helvetica,sans-Serif" font-size="10" text-anchor="middle">93</text></a></g></g><g id="node9" class="node"><title>dir_214608ef36d61442cb2b0c1c4e9a7def</title><g id="a_node9"><a target="_top" xlink:href="dir_214608ef36d61442cb2b0c1c4e9a7def.xhtml" xlink:title="arm_compute"><polygon fill="#fff" stroke="red" points="388 -36 312 -36 312 0 388 0 388 -36"/><text x="350" y="-15.5" fill="#000" font-family="Helvetica,sans-Serif" font-size="10" text-anchor="middle">arm_compute</text></a></g></g><g id="edge3" class="edge"><title>dir_4da487531dc5bdc76b523c9e82b781b1-&gt;dir_214608ef36d61442cb2b0c1c4e9a7def</title><path fill="none" stroke="#000" d="M174.912,-221.9489C158.3571,-212.9811 138.5803,-199.0034 129,-180 121.7973,-165.7129 121.0415,-157.8803 129,-144 165.7359,-79.9291 248.7771,-45.7995 301.9543,-29.8333"/><polygon fill="#000" stroke="#000" points="303.212 -33.113 311.843 -26.97 301.264 -26.389 303.212 -33.113"/><g id="a_edge3-headlabel"><a target="_top" xlink:href="dir_000099_000000.xhtml" xlink:title="203"><text x="300.549" y="-34.34" fill="#000" font-family="Helvetica,sans-Serif" font-size="10" text-anchor="middle">203</text></a></g></g><g id="node10" class="node"><title>dir_896191444cf08ec8ade6f88256cb2bdd</title><g id="a_node10"><a target="_top" xlink:href="dir_896191444cf08ec8ade6f88256cb2bdd.xhtml" xlink:title="CL"><polygon fill="none" stroke="#000" points="54 -180 0 -180 0 -144 54 -144 54 -180"/><text x="27" y="-159.5" fill="#000" font-family="Helvetica,sans-Serif" font-size="10" text-anchor="middle">CL</text></a></g></g><g id="edge4" class="edge"><title>dir_4da487531dc5bdc76b523c9e82b781b1-&gt;dir_896191444cf08ec8ade6f88256cb2bdd</title><path fill="none" stroke="#000" d="M174.9513,-223.3812C147.8157,-212.6622 104.8727,-195.5193 68,-180 66.6118,-179.4157 65.1988,-178.8168 63.7729,-178.2087"/><polygon fill="#000" stroke="#000" points="64.865 -174.868 54.297 -174.123 62.094 -181.296 64.865 -174.868"/><g id="a_edge4-headlabel"><a target="_top" xlink:href="dir_000099_000120.xhtml" xlink:title="52"><text x="69.29" y="-171.184" fill="#000" font-family="Helvetica,sans-Serif" font-size="10" text-anchor="middle">52</text></a></g></g><g id="node3" class="node"><title>dir_184f72a532a521c8d66e76d860c2010a</title><g id="a_node3"><a target="_top" xlink:href="dir_184f72a532a521c8d66e76d860c2010a.xhtml" xlink:title="GLES_COMPUTE"><polygon fill="#fff" stroke="#000" points="345 -252 247 -252 247 -216 345 -216 345 -252"/><text x="296" y="-231.5" fill="#000" font-family="Helvetica,sans-Serif" font-size="10" text-anchor="middle">GLES_COMPUTE</text></a></g></g><g id="edge15" class="edge"><title>dir_184f72a532a521c8d66e76d860c2010a-&gt;dir_cbdb8362360e11eafe2fa3bc74cf0ffd</title><path fill="none" stroke="#000" d="M312.4042,-215.8052C320.4548,-205.8948 329.5668,-193.0204 335,-180 343.21,-160.3251 346.9334,-136.4625 348.6185,-118.2533"/><polygon fill="#000" stroke="#000" points="352.11 -118.5 349.394 -108.26 345.131 -117.959 352.11 -118.5"/><g id="a_edge15-headlabel"><a target="_top" xlink:href="dir_000100_000027.xhtml" xlink:title="12"><text x="354.663" y="-119.804" fill="#000" font-family="Helvetica,sans-Serif" font-size="10" text-anchor="middle">12</text></a></g></g><g id="edge16" class="edge"><title>dir_184f72a532a521c8d66e76d860c2010a-&gt;dir_9e71e2da941d3cafc4d98a9f6ae3de4f</title><path fill="none" stroke="#000" d="M295.7477,-215.8314C295.6407,-208.131 295.5135,-198.9743 295.3947,-190.4166"/><polygon fill="#000" stroke="#000" points="298.894 -190.364 295.256 -180.413 291.895 -190.461 298.894 -190.364"/><g id="a_edge16-headlabel"><a target="_top" xlink:href="dir_000100_000025.xhtml" xlink:title="24"><text x="301.783" y="-191.418" fill="#000" font-family="Helvetica,sans-Serif" font-size="10" text-anchor="middle">24</text></a></g></g><g id="node8" class="node"><title>dir_7365e77196b52ca311bb83f181e59b8c</title><g id="a_node8"><a target="_top" xlink:href="dir_7365e77196b52ca311bb83f181e59b8c.xhtml" xlink:title="GLES_COMPUTE"><polygon fill="none" stroke="#000" points="246 -180 148 -180 148 -144 246 -144 246 -180"/><text x="197" y="-159.5" fill="#000" font-family="Helvetica,sans-Serif" font-size="10" text-anchor="middle">GLES_COMPUTE</text></a></g></g><g id="edge17" class="edge"><title>dir_184f72a532a521c8d66e76d860c2010a-&gt;dir_7365e77196b52ca311bb83f181e59b8c</title><path fill="none" stroke="#000" d="M271.0181,-215.8314C258.7072,-206.8779 243.6893,-195.9558 230.4063,-186.2955"/><polygon fill="#000" stroke="#000" points="232.12 -183.214 221.974 -180.163 228.003 -188.875 232.12 -183.214"/><g id="a_edge17-headlabel"><a target="_top" xlink:href="dir_000100_000121.xhtml" xlink:title="12"><text x="236.697" y="-180.532" fill="#000" font-family="Helvetica,sans-Serif" font-size="10" text-anchor="middle">12</text></a></g></g><g id="edge18" class="edge"><title>dir_184f72a532a521c8d66e76d860c2010a-&gt;dir_214608ef36d61442cb2b0c1c4e9a7def</title><path fill="none" stroke="#000" d="M320.0867,-215.9699C331.7769,-206.2939 345.3442,-193.5799 355,-180 375.1891,-151.6059 378.9663,-142.1226 386,-108 389.2302,-92.3295 390.6365,-87.3135 386,-72 383.0436,-62.2355 377.6748,-52.6229 371.97,-44.2762"/><polygon fill="#000" stroke="#000" points="374.713 -42.097 365.99 -36.083 369.059 -46.224 374.713 -42.097"/><g id="a_edge18-headlabel"><a target="_top" xlink:href="dir_000100_000000.xhtml" xlink:title="58"><text x="379.125" y="-40.827" fill="#000" font-family="Helvetica,sans-Serif" font-size="10" text-anchor="middle">58</text></a></g></g><g id="node4" class="node"><title>dir_ec05701f68bea22653d08da5856c9ffc</title><g id="a_node4"><a target="_top" xlink:href="dir_ec05701f68bea22653d08da5856c9ffc.xhtml" xlink:title="NEON"><polygon fill="#fff" stroke="#000" points="417 -252 363 -252 363 -216 417 -216 417 -252"/><text x="390" y="-231.5" fill="#000" font-family="Helvetica,sans-Serif" font-size="10" text-anchor="middle">NEON</text></a></g></g><g id="edge9" class="edge"><title>dir_ec05701f68bea22653d08da5856c9ffc-&gt;dir_cbdb8362360e11eafe2fa3bc74cf0ffd</title><path fill="none" stroke="#000" d="M386.0474,-215.9558C381.9418,-197.7026 375.1308,-168.7285 368,-144 365.5473,-135.4944 362.6071,-126.3294 359.821,-118.0081"/><polygon fill="#000" stroke="#000" points="363.078 -116.716 356.542 -108.377 356.452 -118.972 363.078 -116.716"/><g id="a_edge9-headlabel"><a target="_top" xlink:href="dir_000101_000027.xhtml" xlink:title="45"><text x="366.925" y="-116.703" fill="#000" font-family="Helvetica,sans-Serif" font-size="10" text-anchor="middle">45</text></a></g></g><g id="node6" class="node"><title>dir_445738e6fed662d0b65e690e3f1e1de0</title><g id="a_node6"><a target="_top" xlink:href="dir_445738e6fed662d0b65e690e3f1e1de0.xhtml" xlink:title="NEON"><polygon fill="none" stroke="#000" points="512 -180 458 -180 458 -144 512 -144 512 -180"/><text x="485" y="-159.5" fill="#000" font-family="Helvetica,sans-Serif" font-size="10" text-anchor="middle">NEON</text></a></g></g><g id="edge10" class="edge"><title>dir_ec05701f68bea22653d08da5856c9ffc-&gt;dir_445738e6fed662d0b65e690e3f1e1de0</title><path fill="none" stroke="#000" d="M408.6819,-215.7368C414.3929,-210.458 420.805,-204.8237 427,-200 433.9635,-194.5779 441.6953,-189.1449 449.1842,-184.1519"/><polygon fill="#000" stroke="#000" points="451.347 -186.92 457.803 -178.52 447.518 -181.06 451.347 -186.92"/><g id="a_edge10-headlabel"><a target="_top" xlink:href="dir_000101_000122.xhtml" xlink:title="50"><text x="449.891" y="-188.763" fill="#000" font-family="Helvetica,sans-Serif" font-size="10" text-anchor="middle">50</text></a></g></g><g id="edge11" class="edge"><title>dir_ec05701f68bea22653d08da5856c9ffc-&gt;dir_9e71e2da941d3cafc4d98a9f6ae3de4f</title><path fill="none" stroke="#000" d="M371.9029,-215.6707C366.3485,-210.3901 360.0908,-204.7713 354,-200 347.7282,-195.0869 340.811,-190.2044 333.9872,-185.6575"/><polygon fill="#000" stroke="#000" points="335.74 -182.622 325.449 -180.1 331.921 -188.489 335.74 -182.622"/><g id="a_edge11-headlabel"><a target="_top" xlink:href="dir_000101_000025.xhtml" xlink:title="89"><text x="340.301" y="-179.703" fill="#000" font-family="Helvetica,sans-Serif" font-size="10" text-anchor="middle">89</text></a></g></g><g id="edge12" class="edge"><title>dir_ec05701f68bea22653d08da5856c9ffc-&gt;dir_214608ef36d61442cb2b0c1c4e9a7def</title><path fill="none" stroke="#000" d="M405.8372,-215.9676C411.906,-210.0638 419.2476,-204.0006 427,-200 464.9568,-180.4124 494.1232,-213.1969 521,-180 531.0679,-167.5647 525.9917,-159.2014 521,-144 508.6035,-106.2483 498.8289,-97.0687 468,-72 447.2756,-55.1478 420.4373,-42.3227 397.5935,-33.4091"/><polygon fill="#000" stroke="#000" points="398.669 -30.074 388.077 -29.828 396.204 -36.626 398.669 -30.074"/><g id="a_edge12-headlabel"><a target="_top" xlink:href="dir_000101_000000.xhtml" xlink:title="191"><text x="403.034" y="-26.183" fill="#000" font-family="Helvetica,sans-Serif" font-size="10" text-anchor="middle">191</text></a></g></g><g id="edge5" class="edge"><title>dir_cbdb8362360e11eafe2fa3bc74cf0ffd-&gt;dir_214608ef36d61442cb2b0c1c4e9a7def</title><path fill="none" stroke="#000" d="M344.0476,-71.8314C343.2972,-64.131 343.0763,-54.9743 343.3849,-46.4166"/><polygon fill="#000" stroke="#000" points="346.879 -46.616 344.024 -36.413 339.894 -46.17 346.879 -46.616"/><g id="a_edge5-headlabel"><a target="_top" xlink:href="dir_000027_000000.xhtml" xlink:title="36"><text x="349.484" y="-47.884" fill="#000" font-family="Helvetica,sans-Serif" font-size="10" text-anchor="middle">36</text></a></g></g><g id="edge6" class="edge"><title>dir_445738e6fed662d0b65e690e3f1e1de0-&gt;dir_214608ef36d61442cb2b0c1c4e9a7def</title><path fill="none" stroke="#000" d="M480.3699,-143.9104C474.5896,-124.283 463.0696,-92.9514 444,-72 431.0663,-57.79 413.4985,-46.3257 397.0497,-37.677"/><polygon fill="#000" stroke="#000" points="398.57 -34.524 388.063 -33.162 395.428 -40.779 398.57 -34.524"/><g id="a_edge6-headlabel"><a target="_top" xlink:href="dir_000122_000000.xhtml" xlink:title="6"><text x="403.057" y="-31.101" fill="#000" font-family="Helvetica,sans-Serif" font-size="10" text-anchor="middle">6</text></a></g></g><g id="edge7" class="edge"><title>dir_9e71e2da941d3cafc4d98a9f6ae3de4f-&gt;dir_cbdb8362360e11eafe2fa3bc74cf0ffd</title><path fill="none" stroke="#000" d="M308.8788,-143.8314C315.2136,-135.5386 322.8384,-125.557 329.7926,-116.4533"/><polygon fill="#000" stroke="#000" points="332.645 -118.485 335.934 -108.413 327.082 -114.235 332.645 -118.485"/><g id="a_edge7-headlabel"><a target="_top" xlink:href="dir_000025_000027.xhtml" xlink:title="3"><text x="332.719" y="-120.565" fill="#000" font-family="Helvetica,sans-Serif" font-size="10" text-anchor="middle">3</text></a></g></g><g id="edge8" class="edge"><title>dir_9e71e2da941d3cafc4d98a9f6ae3de4f-&gt;dir_214608ef36d61442cb2b0c1c4e9a7def</title><path fill="none" stroke="#000" d="M296.7905,-143.8083C299.0888,-125.1875 304.0345,-95.7008 314,-72 317.9544,-62.5953 323.6152,-53.0879 329.2805,-44.727"/><polygon fill="#000" stroke="#000" points="332.196 -46.666 335.115 -36.481 326.482 -42.623 332.196 -46.666"/><g id="a_edge8-headlabel"><a target="_top" xlink:href="dir_000025_000000.xhtml" xlink:title="14"><text x="332.437" y="-48.741" fill="#000" font-family="Helvetica,sans-Serif" font-size="10" text-anchor="middle">14</text></a></g></g><g id="edge13" class="edge"><title>dir_7365e77196b52ca311bb83f181e59b8c-&gt;dir_214608ef36d61442cb2b0c1c4e9a7def</title><path fill="none" stroke="#000" d="M216.3776,-143.7623C243.5085,-118.2272 292.9102,-71.7316 323.4475,-42.9906"/><polygon fill="#000" stroke="#000" points="325.897 -45.492 330.78 -36.09 321.099 -40.395 325.897 -45.492"/><g id="a_edge13-headlabel"><a target="_top" xlink:href="dir_000121_000000.xhtml" xlink:title="3"><text x="325.225" y="-47.523" fill="#000" font-family="Helvetica,sans-Serif" font-size="10" text-anchor="middle">3</text></a></g></g><g id="edge14" class="edge"><title>dir_214608ef36d61442cb2b0c1c4e9a7def-&gt;dir_cbdb8362360e11eafe2fa3bc74cf0ffd</title><path fill="none" stroke="#000" d="M355.976,-36.4133C356.7071,-44.0593 356.9203,-53.1084 356.6155,-61.5726"/><polygon fill="#000" stroke="#000" points="353.105 -61.626 355.952 -71.831 360.09 -62.078 353.105 -61.626"/><g id="a_edge14-headlabel"><a target="_top" xlink:href="dir_000000_000027.xhtml" xlink:title="1"><text x="350.503" y="-55.356" fill="#000" font-family="Helvetica,sans-Serif" font-size="10" text-anchor="middle">1</text></a></g></g><g id="edge19" class="edge"><title>dir_896191444cf08ec8ade6f88256cb2bdd-&gt;dir_214608ef36d61442cb2b0c1c4e9a7def</title><path fill="none" stroke="#000" d="M30.1648,-143.727C34.7527,-123.0166 45.3235,-89.8281 68,-72 103.6695,-43.9569 231.2137,-28.4904 301.9267,-21.8948"/><polygon fill="#000" stroke="#000" points="302.288 -25.377 311.93 -20.986 301.654 -18.405 302.288 -25.377"/><g id="a_edge19-headlabel"><a target="_top" xlink:href="dir_000120_000000.xhtml" xlink:title="5"><text x="298.965" y="-26.029" fill="#000" font-family="Helvetica,sans-Serif" font-size="10" text-anchor="middle">5</text></a></g></g></g></svg>