<svg xmlns="http://www.w3.org/2000/svg" xmlns:xlink="http://www.w3.org/1999/xlink" width="194pt" height="308" viewBox="0 0 194 231"><g id="graph0" class="graph" transform="scale(1 1) rotate(0) translate(4 227)"><title>src/core/NEON/kernels</title><polygon fill="#fff" stroke="transparent" points="-4 4 -4 -227 190 -227 190 4 -4 4"/><g id="clust1" class="cluster"><title>clusterdir_d91e1966cc57df4f49d1e07be7697713</title><g id="a_clust1"><a target="_top" xlink:href="dir_d91e1966cc57df4f49d1e07be7697713.xhtml" xlink:title="NEON"><polygon fill="#dde" stroke="#000" points="8 -128 8 -215 178 -215 178 -128 8 -128"/><text x="93" y="-203" fill="#000" font-family="Helvetica,sans-Serif" font-size="10" text-anchor="middle">NEON</text></a></g></g><g id="clust2" class="cluster"><title>clusterdir_1ce938f580a6f304b99685e2c1dd19db</title><g id="a_clust2"><a target="_top" xlink:href="dir_1ce938f580a6f304b99685e2c1dd19db.xhtml"><polygon fill="#eef" stroke="#000" points="16 -136 16 -188 170 -188 170 -136 16 -136"/></a></g></g><g id="node1" class="node"><title>dir_1ce938f580a6f304b99685e2c1dd19db</title><text x="135" y="-159.5" fill="#000" font-family="Helvetica,sans-Serif" font-size="10" text-anchor="middle">kernels</text></g><g id="node3" class="node"><title>dir_214608ef36d61442cb2b0c1c4e9a7def</title><g id="a_node3"><a target="_top" xlink:href="dir_214608ef36d61442cb2b0c1c4e9a7def.xhtml" xlink:title="arm_compute"><polygon fill="#fff" stroke="red" points="140 -108 64 -108 64 -72 140 -72 140 -108"/><text x="102" y="-87.5" fill="#000" font-family="Helvetica,sans-Serif" font-size="10" text-anchor="middle">arm_compute</text></a></g></g><g id="edge2" class="edge"><title>dir_1ce938f580a6f304b99685e2c1dd19db-&gt;dir_214608ef36d61442cb2b0c1c4e9a7def</title><path fill="none" stroke="#000" d="M126.6727,-143.8314C123.027,-135.8771 118.6691,-126.369 114.6373,-117.5723"/><polygon fill="#000" stroke="#000" points="117.788 -116.046 110.439 -108.413 111.424 -118.962 117.788 -116.046"/><g id="a_edge2-headlabel"><a target="_top" xlink:href="dir_000063_000000.xhtml" xlink:title="816"><text x="121.867" y="-115.63" fill="#000" font-family="Helvetica,sans-Serif" font-size="10" text-anchor="middle">816</text></a></g></g><g id="node4" class="node"><title>dir_5815af820a9cc9481f1d0990a0d60286</title><g id="a_node4"><a target="_top" xlink:href="dir_5815af820a9cc9481f1d0990a0d60286.xhtml" xlink:title="support"><polygon fill="none" stroke="#000" points="162 -36 108 -36 108 0 162 0 162 -36"/><text x="135" y="-15.5" fill="#000" font-family="Helvetica,sans-Serif" font-size="10" text-anchor="middle">support</text></a></g></g><g id="edge3" class="edge"><title>dir_1ce938f580a6f304b99685e2c1dd19db-&gt;dir_5815af820a9cc9481f1d0990a0d60286</title><path fill="none" stroke="#000" d="M140.9698,-143.7319C144.0408,-133.3756 147.4563,-120.105 149,-108 151.024,-92.1285 151.024,-87.8715 149,-72 147.9146,-63.4887 145.9038,-54.4011 143.738,-46.1555"/><polygon fill="#000" stroke="#000" points="147.036 -44.954 140.97 -36.268 140.296 -46.841 147.036 -44.954"/><g id="a_edge3-headlabel"><a target="_top" xlink:href="dir_000063_000119.xhtml" xlink:title="4"><text x="150.739" y="-45.15" fill="#000" font-family="Helvetica,sans-Serif" font-size="10" text-anchor="middle">4</text></a></g></g><g id="node2" class="node"><title>dir_9847dd9cb7a28e46201717fa7336cf62</title><g id="a_node2"><a target="_top" xlink:href="dir_9847dd9cb7a28e46201717fa7336cf62.xhtml" xlink:title="arm_gemm"><polygon fill="#fff" stroke="red" points="89.5 -180 24.5 -180 24.5 -144 89.5 -144 89.5 -180"/><text x="57" y="-159.5" fill="#000" font-family="Helvetica,sans-Serif" font-size="10" text-anchor="middle">arm_gemm</text></a></g></g><g id="edge1" class="edge"><title>dir_214608ef36d61442cb2b0c1c4e9a7def-&gt;dir_5815af820a9cc9481f1d0990a0d60286</title><path fill="none" stroke="#000" d="M110.3273,-71.8314C113.973,-63.8771 118.3309,-54.369 122.3627,-45.5723"/><polygon fill="#000" stroke="#000" points="125.576 -46.962 126.561 -36.413 119.212 -44.046 125.576 -46.962"/><g id="a_edge1-headlabel"><a target="_top" xlink:href="dir_000000_000119.xhtml" xlink:title="20"><text x="126.659" y="-48.913" fill="#000" font-family="Helvetica,sans-Serif" font-size="10" text-anchor="middle">20</text></a></g></g></g></svg>