<svg xmlns="http://www.w3.org/2000/svg" xmlns:xlink="http://www.w3.org/1999/xlink" width="197pt" height="295pt" viewBox="0 0 196.53 295"><g id="graph0" class="graph" transform="scale(1 1) rotate(0) translate(4 291)"><title>tests/validation/NEON/UNIT</title><polygon fill="#fff" stroke="transparent" points="-4 4 -4 -291 192.53 -291 192.53 4 -4 4"/><g id="clust1" class="cluster"><title>clusterdir_0538a82dae0483a21d0f1e9d7e0a45c6</title><g id="a_clust1"><a target="_top" xlink:href="dir_0538a82dae0483a21d0f1e9d7e0a45c6.xhtml" xlink:title="NEON"><polygon fill="#dde" stroke="#000" points="76 -208 76 -279 146 -279 146 -208 76 -208"/><text x="111" y="-267" fill="#000" font-family="Helvetica,sans-Serif" font-size="10" text-anchor="middle">NEON</text></a></g></g><g id="node1" class="node"><title>dir_6fc87decd8cffc07e5f49c197ca3de10</title><g id="a_node1"><a target="_top" xlink:href="dir_6fc87decd8cffc07e5f49c197ca3de10.xhtml" xlink:title="UNIT"><polygon fill="#eef" stroke="#000" points="138 -252 84 -252 84 -216 138 -216 138 -252"/><text x="111" y="-231.5" fill="#000" font-family="Helvetica,sans-Serif" font-size="10" text-anchor="middle">UNIT</text></a></g></g><g id="node2" class="node"><title>dir_445738e6fed662d0b65e690e3f1e1de0</title><g id="a_node2"><a target="_top" xlink:href="dir_445738e6fed662d0b65e690e3f1e1de0.xhtml" xlink:title="NEON"><polygon fill="none" stroke="#000" points="54 -180 0 -180 0 -144 54 -144 54 -180"/><text x="27" y="-159.5" fill="#000" font-family="Helvetica,sans-Serif" font-size="10" text-anchor="middle">NEON</text></a></g></g><g id="edge1" class="edge"><title>dir_6fc87decd8cffc07e5f49c197ca3de10-&gt;dir_445738e6fed662d0b65e690e3f1e1de0</title><path fill="none" stroke="#000" d="M89.8033,-215.8314C79.5566,-207.0485 67.0997,-196.3712 55.9903,-186.8489"/><polygon fill="#000" stroke="#000" points="58.06 -184.013 48.19 -180.163 53.505 -189.328 58.06 -184.013"/><g id="a_edge1-headlabel"><a target="_top" xlink:href="dir_000118_000122.xhtml" xlink:title="1"><text x="62.637" y="-181.697" fill="#000" font-family="Helvetica,sans-Serif" font-size="10" text-anchor="middle">1</text></a></g></g><g id="node3" class="node"><title>dir_9e71e2da941d3cafc4d98a9f6ae3de4f</title><g id="a_node3"><a target="_top" xlink:href="dir_9e71e2da941d3cafc4d98a9f6ae3de4f.xhtml" xlink:title="framework"><polygon fill="#fff" stroke="red" points="172 -180 110 -180 110 -144 172 -144 172 -180"/><text x="141" y="-159.5" fill="#000" font-family="Helvetica,sans-Serif" font-size="10" text-anchor="middle">framework</text></a></g></g><g id="edge2" class="edge"><title>dir_6fc87decd8cffc07e5f49c197ca3de10-&gt;dir_9e71e2da941d3cafc4d98a9f6ae3de4f</title><path fill="none" stroke="#000" d="M118.5703,-215.8314C121.8493,-207.9617 125.762,-198.5712 129.3945,-189.8533"/><polygon fill="#000" stroke="#000" points="132.712 -190.99 133.328 -180.413 126.251 -188.298 132.712 -190.99"/><g id="a_edge2-headlabel"><a target="_top" xlink:href="dir_000118_000025.xhtml" xlink:title="4"><text x="133.951" y="-192.9" fill="#000" font-family="Helvetica,sans-Serif" font-size="10" text-anchor="middle">4</text></a></g></g><g id="node4" class="node"><title>dir_214608ef36d61442cb2b0c1c4e9a7def</title><g id="a_node4"><a target="_top" xlink:href="dir_214608ef36d61442cb2b0c1c4e9a7def.xhtml" xlink:title="arm_compute"><polygon fill="#fff" stroke="red" points="126 -108 50 -108 50 -72 126 -72 126 -108"/><text x="88" y="-87.5" fill="#000" font-family="Helvetica,sans-Serif" font-size="10" text-anchor="middle">arm_compute</text></a></g></g><g id="edge3" class="edge"><title>dir_6fc87decd8cffc07e5f49c197ca3de10-&gt;dir_214608ef36d61442cb2b0c1c4e9a7def</title><path fill="none" stroke="#000" d="M107.3936,-215.5374C105.4059,-205.1202 102.9529,-191.8536 101,-180 97.6209,-159.4892 94.2787,-136.2682 91.8294,-118.551"/><polygon fill="#000" stroke="#000" points="95.251 -117.737 90.427 -108.304 88.315 -118.686 95.251 -117.737"/><g id="a_edge3-headlabel"><a target="_top" xlink:href="dir_000118_000000.xhtml" xlink:title="11"><text x="98.551" y="-118.414" fill="#000" font-family="Helvetica,sans-Serif" font-size="10" text-anchor="middle">11</text></a></g></g><g id="node5" class="node"><title>dir_5815af820a9cc9481f1d0990a0d60286</title><g id="a_node5"><a target="_top" xlink:href="dir_5815af820a9cc9481f1d0990a0d60286.xhtml" xlink:title="support"><polygon fill="none" stroke="#000" points="148 -36 94 -36 94 0 148 0 148 -36"/><text x="121" y="-15.5" fill="#000" font-family="Helvetica,sans-Serif" font-size="10" text-anchor="middle">support</text></a></g></g><g id="edge4" class="edge"><title>dir_6fc87decd8cffc07e5f49c197ca3de10-&gt;dir_5815af820a9cc9481f1d0990a0d60286</title><path fill="none" stroke="#000" d="M138.0692,-221.063C153.731,-211.9711 172.0626,-198.1823 181,-180 203.59,-134.0428 169.3564,-77.3253 144.0486,-44.6443"/><polygon fill="#000" stroke="#000" points="146.503 -42.109 137.525 -36.484 141.035 -46.48 146.503 -42.109"/><g id="a_edge4-headlabel"><a target="_top" xlink:href="dir_000118_000119.xhtml" xlink:title="2"><text x="150.965" y="-40.644" fill="#000" font-family="Helvetica,sans-Serif" font-size="10" text-anchor="middle">2</text></a></g></g><g id="edge5" class="edge"><title>dir_445738e6fed662d0b65e690e3f1e1de0-&gt;dir_214608ef36d61442cb2b0c1c4e9a7def</title><path fill="none" stroke="#000" d="M42.3929,-143.8314C49.4904,-135.454 58.048,-125.3531 65.824,-116.1749"/><polygon fill="#000" stroke="#000" points="68.606 -118.306 72.4 -108.413 63.265 -113.781 68.606 -118.306"/><g id="a_edge5-headlabel"><a target="_top" xlink:href="dir_000122_000000.xhtml" xlink:title="6"><text x="68.449" y="-120.384" fill="#000" font-family="Helvetica,sans-Serif" font-size="10" text-anchor="middle">6</text></a></g></g><g id="edge6" class="edge"><title>dir_445738e6fed662d0b65e690e3f1e1de0-&gt;dir_5815af820a9cc9481f1d0990a0d60286</title><path fill="none" stroke="#000" d="M25.7392,-143.9664C25.2638,-124.6719 27.1,-93.8934 41,-72 51.4361,-55.5624 68.8797,-42.9217 84.8196,-34.0175"/><polygon fill="#000" stroke="#000" points="86.746 -36.959 93.967 -29.206 83.487 -30.764 86.746 -36.959"/><g id="a_edge6-headlabel"><a target="_top" xlink:href="dir_000122_000119.xhtml" xlink:title="1"><text x="84.886" y="-38.645" fill="#000" font-family="Helvetica,sans-Serif" font-size="10" text-anchor="middle">1</text></a></g></g><g id="edge7" class="edge"><title>dir_9e71e2da941d3cafc4d98a9f6ae3de4f-&gt;dir_214608ef36d61442cb2b0c1c4e9a7def</title><path fill="none" stroke="#000" d="M127.6259,-143.8314C121.5838,-135.6232 114.3237,-125.7606 107.6779,-116.7323"/><polygon fill="#000" stroke="#000" points="110.301 -114.392 101.554 -108.413 104.664 -118.541 110.301 -114.392"/><g id="a_edge7-headlabel"><a target="_top" xlink:href="dir_000025_000000.xhtml" xlink:title="14"><text x="114.719" y="-113.103" fill="#000" font-family="Helvetica,sans-Serif" font-size="10" text-anchor="middle">14</text></a></g></g><g id="edge8" class="edge"><title>dir_9e71e2da941d3cafc4d98a9f6ae3de4f-&gt;dir_5815af820a9cc9481f1d0990a0d60286</title><path fill="none" stroke="#000" d="M140.7869,-143.9585C140.3398,-125.7075 138.9948,-96.735 135,-72 133.632,-63.5295 131.5341,-54.4545 129.3754,-46.2079"/><polygon fill="#000" stroke="#000" points="132.681 -45.03 126.659 -36.313 125.931 -46.883 132.681 -45.03"/><g id="a_edge8-headlabel"><a target="_top" xlink:href="dir_000025_000119.xhtml" xlink:title="7"><text x="136.371" y="-45.244" fill="#000" font-family="Helvetica,sans-Serif" font-size="10" text-anchor="middle">7</text></a></g></g><g id="edge9" class="edge"><title>dir_214608ef36d61442cb2b0c1c4e9a7def-&gt;dir_5815af820a9cc9481f1d0990a0d60286</title><path fill="none" stroke="#000" d="M96.3273,-71.8314C99.973,-63.8771 104.3309,-54.369 108.3627,-45.5723"/><polygon fill="#000" stroke="#000" points="111.576 -46.962 112.561 -36.413 105.212 -44.046 111.576 -46.962"/><g id="a_edge9-headlabel"><a target="_top" xlink:href="dir_000000_000119.xhtml" xlink:title="20"><text x="112.659" y="-48.913" fill="#000" font-family="Helvetica,sans-Serif" font-size="10" text-anchor="middle">20</text></a></g></g></g></svg>