<svg xmlns="http://www.w3.org/2000/svg" xmlns:xlink="http://www.w3.org/1999/xlink" width="134pt" height="151pt" viewBox="0 0 134 151"><g id="graph0" class="graph" transform="scale(1 1) rotate(0) translate(4 147)"><title>arm_compute/core/utils/logging</title><polygon fill="#fff" stroke="transparent" points="-4 4 -4 -147 130 -147 130 4 -4 4"/><g id="clust1" class="cluster"><title>clusterdir_7b0825b7536eda12b63e5d87347b1c7d</title><g id="a_clust1"><a target="_top" xlink:href="dir_7b0825b7536eda12b63e5d87347b1c7d.xhtml" xlink:title="utils"><polygon fill="#dde" stroke="#000" points="28 -64 28 -135 98 -135 98 -64 28 -64"/><text x="63" y="-123" fill="#000" font-family="Helvetica,sans-Serif" font-size="10" text-anchor="middle">utils</text></a></g></g><g id="node1" class="node"><title>dir_e575b855d3e83e3374bc2a6f9bf89d98</title><g id="a_node1"><a target="_top" xlink:href="dir_e575b855d3e83e3374bc2a6f9bf89d98.xhtml" xlink:title="logging"><polygon fill="#eef" stroke="#000" points="90 -108 36 -108 36 -72 90 -72 90 -108"/><text x="63" y="-87.5" fill="#000" font-family="Helvetica,sans-Serif" font-size="10" text-anchor="middle">logging</text></a></g></g><g id="node2" class="node"><title>dir_4165fcd8206cc52fde421ae1f1275b40</title><g id="a_node2"><a target="_top" xlink:href="dir_4165fcd8206cc52fde421ae1f1275b40.xhtml" xlink:title="io"><polygon fill="none" stroke="#000" points="54 -36 0 -36 0 0 54 0 54 -36"/><text x="27" y="-15.5" fill="#000" font-family="Helvetica,sans-Serif" font-size="10" text-anchor="middle">io</text></a></g></g><g id="edge1" class="edge"><title>dir_e575b855d3e83e3374bc2a6f9bf89d98-&gt;dir_4165fcd8206cc52fde421ae1f1275b40</title><path fill="none" stroke="#000" d="M53.9157,-71.8314C49.9385,-63.8771 45.1845,-54.369 40.7861,-45.5723"/><polygon fill="#000" stroke="#000" points="43.809 -43.792 36.207 -36.413 37.548 -46.923 43.809 -43.792"/><g id="a_edge1-headlabel"><a target="_top" xlink:href="dir_000009_000029.xhtml" xlink:title="1"><text x="47.956" y="-43.238" fill="#000" font-family="Helvetica,sans-Serif" font-size="10" text-anchor="middle">1</text></a></g></g><g id="node3" class="node"><title>dir_5815af820a9cc9481f1d0990a0d60286</title><g id="a_node3"><a target="_top" xlink:href="dir_5815af820a9cc9481f1d0990a0d60286.xhtml" xlink:title="support"><polygon fill="none" stroke="#000" points="126 -36 72 -36 72 0 126 0 126 -36"/><text x="99" y="-15.5" fill="#000" font-family="Helvetica,sans-Serif" font-size="10" text-anchor="middle">support</text></a></g></g><g id="edge2" class="edge"><title>dir_e575b855d3e83e3374bc2a6f9bf89d98-&gt;dir_5815af820a9cc9481f1d0990a0d60286</title><path fill="none" stroke="#000" d="M72.0843,-71.8314C76.0615,-63.8771 80.8155,-54.369 85.2139,-45.5723"/><polygon fill="#000" stroke="#000" points="88.452 -46.923 89.793 -36.413 82.191 -43.792 88.452 -46.923"/><g id="a_edge2-headlabel"><a target="_top" xlink:href="dir_000009_000119.xhtml" xlink:title="3"><text x="89.384" y="-48.908" fill="#000" font-family="Helvetica,sans-Serif" font-size="10" text-anchor="middle">3</text></a></g></g></g></svg>