<svg xmlns="http://www.w3.org/2000/svg" xmlns:xlink="http://www.w3.org/1999/xlink" width="94pt" height="151pt" viewBox="0 0 94 151"><g id="graph0" class="graph" transform="scale(1 1) rotate(0) translate(4 147)"><title>arm_compute/core/utils/misc</title><polygon fill="#fff" stroke="transparent" points="-4 4 -4 -147 90 -147 90 4 -4 4"/><g id="clust1" class="cluster"><title>clusterdir_7b0825b7536eda12b63e5d87347b1c7d</title><g id="a_clust1"><a target="_top" xlink:href="dir_7b0825b7536eda12b63e5d87347b1c7d.xhtml" xlink:title="utils"><polygon fill="#dde" stroke="#000" points="8 -64 8 -135 78 -135 78 -64 8 -64"/><text x="43" y="-123" fill="#000" font-family="Helvetica,sans-Serif" font-size="10" text-anchor="middle">utils</text></a></g></g><g id="node1" class="node"><title>dir_cab437ca4f6ec1fbc573ae83f91b2654</title><g id="a_node1"><a target="_top" xlink:href="dir_cab437ca4f6ec1fbc573ae83f91b2654.xhtml" xlink:title="misc"><polygon fill="#eef" stroke="#000" points="70 -108 16 -108 16 -72 70 -72 70 -108"/><text x="43" y="-87.5" fill="#000" font-family="Helvetica,sans-Serif" font-size="10" text-anchor="middle">misc</text></a></g></g><g id="node2" class="node"><title>dir_109374e99be0205441d869eba1a88b2d</title><g id="a_node2"><a target="_top" xlink:href="dir_109374e99be0205441d869eba1a88b2d.xhtml" xlink:title="helpers"><polygon fill="none" stroke="#000" points="70 -36 16 -36 16 0 70 0 70 -36"/><text x="43" y="-15.5" fill="#000" font-family="Helvetica,sans-Serif" font-size="10" text-anchor="middle">helpers</text></a></g></g><g id="edge1" class="edge"><title>dir_cab437ca4f6ec1fbc573ae83f91b2654-&gt;dir_109374e99be0205441d869eba1a88b2d</title><path fill="none" stroke="#000" d="M43,-71.8314C43,-64.131 43,-54.9743 43,-46.4166"/><polygon fill="#000" stroke="#000" points="46.5 -46.413 43 -36.413 39.5 -46.413 46.5 -46.413"/><g id="a_edge1-headlabel"><a target="_top" xlink:href="dir_000032_000028.xhtml" xlink:title="1"><text x="49.339" y="-47.508" fill="#000" font-family="Helvetica,sans-Serif" font-size="10" text-anchor="middle">1</text></a></g></g></g></svg>