<svg xmlns="http://www.w3.org/2000/svg" xmlns:xlink="http://www.w3.org/1999/xlink" width="452" height="404" viewBox="0 0 338.68 303"><g id="graph0" class="graph" transform="scale(1 1) rotate(0) translate(4 299)"><title>arm_compute/graph/backends</title><polygon fill="#fff" stroke="transparent" points="-4 4 -4 -299 334.681 -299 334.681 4 -4 4"/><g id="clust1" class="cluster"><title>clusterdir_99ae3712d1eecd2a93fc4d38b59a99ba</title><g id="a_clust1"><a target="_top" xlink:href="dir_99ae3712d1eecd2a93fc4d38b59a99ba.xhtml" xlink:title="graph"><polygon fill="#dde" stroke="#000" points="14.681 -200 14.681 -287 322.681 -287 322.681 -200 14.681 -200"/><text x="168.681" y="-275" fill="#000" font-family="Helvetica,sans-Serif" font-size="10" text-anchor="middle">graph</text></a></g></g><g id="clust2" class="cluster"><title>clusterdir_59b2231210c554f4cc243709030bf1f8</title><g id="a_clust2"><a target="_top" xlink:href="dir_59b2231210c554f4cc243709030bf1f8.xhtml"><polygon fill="#eef" stroke="#000" points="22.681 -208 22.681 -260 314.681 -260 314.681 -208 22.681 -208"/></a></g></g><g id="node1" class="node"><title>dir_59b2231210c554f4cc243709030bf1f8</title><text x="60.681" y="-231.5" fill="#000" font-family="Helvetica,sans-Serif" font-size="10" text-anchor="middle">backends</text></g><g id="node5" class="node"><title>dir_8bc26130589aa16388b5a02f17abf2c2</title><g id="a_node5"><a target="_top" xlink:href="dir_8bc26130589aa16388b5a02f17abf2c2.xhtml" xlink:title="runtime"><polygon fill="#fff" stroke="red" points="215.681 -180 161.681 -180 161.681 -144 215.681 -144 215.681 -180"/><text x="188.681" y="-159.5" fill="#000" font-family="Helvetica,sans-Serif" font-size="10" text-anchor="middle">runtime</text></a></g></g><g id="edge7" class="edge"><title>dir_59b2231210c554f4cc243709030bf1f8-&gt;dir_8bc26130589aa16388b5a02f17abf2c2</title><path fill="none" stroke="#000" d="M79.1749,-215.7765C85.3701,-210.2631 92.5283,-204.4871 99.681,-200 115.9801,-189.775 135.5076,-181.0936 152.1131,-174.621"/><polygon fill="#000" stroke="#000" points="153.39 -177.88 161.506 -171.07 150.914 -171.333 153.39 -177.88"/><g id="a_edge7-headlabel"><a target="_top" xlink:href="dir_000024_000023.xhtml" xlink:title="13"><text x="151.031" y="-179.307" fill="#000" font-family="Helvetica,sans-Serif" font-size="10" text-anchor="middle">13</text></a></g></g><g id="node6" class="node"><title>dir_1fb090f0c6070330bfaccc4236d3ca0d</title><g id="a_node6"><a target="_top" xlink:href="dir_1fb090f0c6070330bfaccc4236d3ca0d.xhtml" xlink:title="core"><polygon fill="#fff" stroke="red" points="160.681 -108 106.681 -108 106.681 -72 160.681 -72 160.681 -108"/><text x="133.681" y="-87.5" fill="#000" font-family="Helvetica,sans-Serif" font-size="10" text-anchor="middle">core</text></a></g></g><g id="edge8" class="edge"><title>dir_59b2231210c554f4cc243709030bf1f8-&gt;dir_1fb090f0c6070330bfaccc4236d3ca0d</title><path fill="none" stroke="#000" d="M69.9265,-215.7623C82.5422,-190.8764 105.2504,-146.0822 119.8837,-117.2165"/><polygon fill="#000" stroke="#000" points="123.111 -118.592 124.51 -108.09 116.867 -115.426 123.111 -118.592"/><g id="a_edge8-headlabel"><a target="_top" xlink:href="dir_000024_000001.xhtml" xlink:title="10"><text x="124.018" y="-120.582" fill="#000" font-family="Helvetica,sans-Serif" font-size="10" text-anchor="middle">10</text></a></g></g><g id="node7" class="node"><title>dir_b30607d43e07fadf88f4c95a88a6c88e</title><g id="a_node7"><a target="_top" xlink:href="dir_b30607d43e07fadf88f4c95a88a6c88e.xhtml" xlink:title="nodes"><polygon fill="none" stroke="#000" points="67.681 -180 13.681 -180 13.681 -144 67.681 -144 67.681 -180"/><text x="40.681" y="-159.5" fill="#000" font-family="Helvetica,sans-Serif" font-size="10" text-anchor="middle">nodes</text></a></g></g><g id="edge9" class="edge"><title>dir_59b2231210c554f4cc243709030bf1f8-&gt;dir_b30607d43e07fadf88f4c95a88a6c88e</title><path fill="none" stroke="#000" d="M55.6341,-215.8314C53.4716,-208.0463 50.8957,-198.7729 48.4962,-190.1347"/><polygon fill="#000" stroke="#000" points="51.845 -189.112 45.796 -180.413 45.1 -190.985 51.845 -189.112"/><g id="a_edge9-headlabel"><a target="_top" xlink:href="dir_000024_000040.xhtml" xlink:title="2"><text x="55.542" y="-189.315" fill="#000" font-family="Helvetica,sans-Serif" font-size="10" text-anchor="middle">2</text></a></g></g><g id="node8" class="node"><title>dir_5815af820a9cc9481f1d0990a0d60286</title><g id="a_node8"><a target="_top" xlink:href="dir_5815af820a9cc9481f1d0990a0d60286.xhtml" xlink:title="support"><polygon fill="none" stroke="#000" points="160.681 -36 106.681 -36 106.681 0 160.681 0 160.681 -36"/><text x="133.681" y="-15.5" fill="#000" font-family="Helvetica,sans-Serif" font-size="10" text-anchor="middle">support</text></a></g></g><g id="edge10" class="edge"><title>dir_59b2231210c554f4cc243709030bf1f8-&gt;dir_5815af820a9cc9481f1d0990a0d60286</title><path fill="none" stroke="#000" d="M33.9578,-215.9104C22.6725,-206.6439 10.755,-194.295 4.681,-180 -1.5761,-165.2742 -1.5288,-158.7458 4.681,-144 23.5059,-99.298 66.7947,-62.5531 98.0407,-40.5072"/><polygon fill="#000" stroke="#000" points="100.249 -43.236 106.504 -34.684 96.282 -37.469 100.249 -43.236"/><g id="a_edge10-headlabel"><a target="_top" xlink:href="dir_000024_000119.xhtml" xlink:title="1"><text x="98.897" y="-45.113" fill="#000" font-family="Helvetica,sans-Serif" font-size="10" text-anchor="middle">1</text></a></g></g><g id="node2" class="node"><title>dir_550bba389faad7f08ae5a13c29129f99</title><g id="a_node2"><a target="_top" xlink:href="dir_550bba389faad7f08ae5a13c29129f99.xhtml" xlink:title="CL"><polygon fill="#fff" stroke="#000" points="162.681 -252 108.681 -252 108.681 -216 162.681 -216 162.681 -252"/><text x="135.681" y="-231.5" fill="#000" font-family="Helvetica,sans-Serif" font-size="10" text-anchor="middle">CL</text></a></g></g><g id="edge3" class="edge"><title>dir_550bba389faad7f08ae5a13c29129f99-&gt;dir_8bc26130589aa16388b5a02f17abf2c2</title><path fill="none" stroke="#000" d="M149.0551,-215.8314C155.0972,-207.6232 162.3572,-197.7606 169.003,-188.7323"/><polygon fill="#000" stroke="#000" points="172.017 -190.542 175.127 -180.413 166.38 -186.392 172.017 -190.542"/><g id="a_edge3-headlabel"><a target="_top" xlink:href="dir_000035_000023.xhtml" xlink:title="5"><text x="172.173" y="-192.619" fill="#000" font-family="Helvetica,sans-Serif" font-size="10" text-anchor="middle">5</text></a></g></g><g id="edge4" class="edge"><title>dir_550bba389faad7f08ae5a13c29129f99-&gt;dir_1fb090f0c6070330bfaccc4236d3ca0d</title><path fill="none" stroke="#000" d="M135.4277,-215.7623C135.0865,-191.201 134.4761,-147.2474 134.0748,-118.3541"/><polygon fill="#000" stroke="#000" points="137.571 -118.04 133.932 -108.09 130.571 -118.137 137.571 -118.04"/><g id="a_edge4-headlabel"><a target="_top" xlink:href="dir_000035_000001.xhtml" xlink:title="1"><text x="140.46" y="-119.095" fill="#000" font-family="Helvetica,sans-Serif" font-size="10" text-anchor="middle">1</text></a></g></g><g id="node3" class="node"><title>dir_154b7715c8b805d6c07751152e8bda26</title><g id="a_node3"><a target="_top" xlink:href="dir_154b7715c8b805d6c07751152e8bda26.xhtml" xlink:title="GLES"><polygon fill="#fff" stroke="#000" points="234.681 -252 180.681 -252 180.681 -216 234.681 -216 234.681 -252"/><text x="207.681" y="-231.5" fill="#000" font-family="Helvetica,sans-Serif" font-size="10" text-anchor="middle">GLES</text></a></g></g><g id="edge12" class="edge"><title>dir_154b7715c8b805d6c07751152e8bda26-&gt;dir_8bc26130589aa16388b5a02f17abf2c2</title><path fill="none" stroke="#000" d="M202.8865,-215.8314C200.8321,-208.0463 198.3849,-198.7729 196.1054,-190.1347"/><polygon fill="#000" stroke="#000" points="199.476 -189.189 193.54 -180.413 192.708 -190.975 199.476 -189.189"/><g id="a_edge12-headlabel"><a target="_top" xlink:href="dir_000036_000023.xhtml" xlink:title="3"><text x="203.138" y="-189.44" fill="#000" font-family="Helvetica,sans-Serif" font-size="10" text-anchor="middle">3</text></a></g></g><g id="edge13" class="edge"><title>dir_154b7715c8b805d6c07751152e8bda26-&gt;dir_1fb090f0c6070330bfaccc4236d3ca0d</title><path fill="none" stroke="#000" d="M217.8592,-215.9146C227.1072,-196.8518 237.5061,-166.5237 224.681,-144 213.0414,-123.5583 190.279,-110.0559 170.4327,-101.6651"/><polygon fill="#000" stroke="#000" points="171.573 -98.353 160.986 -97.949 169.01 -104.867 171.573 -98.353"/><g id="a_edge13-headlabel"><a target="_top" xlink:href="dir_000036_000001.xhtml" xlink:title="1"><text x="175.957" y="-94.526" fill="#000" font-family="Helvetica,sans-Serif" font-size="10" text-anchor="middle">1</text></a></g></g><g id="node4" class="node"><title>dir_2af5ba73c22f603fb662b4c21cfc8574</title><g id="a_node4"><a target="_top" xlink:href="dir_2af5ba73c22f603fb662b4c21cfc8574.xhtml" xlink:title="NEON"><polygon fill="#fff" stroke="#000" points="306.681 -252 252.681 -252 252.681 -216 306.681 -216 306.681 -252"/><text x="279.681" y="-231.5" fill="#000" font-family="Helvetica,sans-Serif" font-size="10" text-anchor="middle">NEON</text></a></g></g><g id="edge1" class="edge"><title>dir_2af5ba73c22f603fb662b4c21cfc8574-&gt;dir_8bc26130589aa16388b5a02f17abf2c2</title><path fill="none" stroke="#000" d="M261.4853,-215.7944C255.9281,-210.5172 249.6937,-204.8694 243.681,-200 237.5295,-195.0183 230.752,-189.9938 224.1185,-185.303"/><polygon fill="#000" stroke="#000" points="226.063 -182.392 215.851 -179.568 222.073 -188.144 226.063 -182.392"/><g id="a_edge1-headlabel"><a target="_top" xlink:href="dir_000037_000023.xhtml" xlink:title="4"><text x="230.635" y="-179.608" fill="#000" font-family="Helvetica,sans-Serif" font-size="10" text-anchor="middle">4</text></a></g></g><g id="edge2" class="edge"><title>dir_2af5ba73c22f603fb662b4c21cfc8574-&gt;dir_1fb090f0c6070330bfaccc4236d3ca0d</title><path fill="none" stroke="#000" d="M275.7087,-215.7167C270.5884,-195.9197 259.9598,-164.4404 240.681,-144 221.6528,-123.8254 193.4361,-110.0211 170.7556,-101.4222"/><polygon fill="#000" stroke="#000" points="171.692 -98.04 161.098 -97.943 169.32 -104.625 171.692 -98.04"/><g id="a_edge2-headlabel"><a target="_top" xlink:href="dir_000037_000001.xhtml" xlink:title="1"><text x="176.037" y="-94.087" fill="#000" font-family="Helvetica,sans-Serif" font-size="10" text-anchor="middle">1</text></a></g></g><g id="edge5" class="edge"><title>dir_8bc26130589aa16388b5a02f17abf2c2-&gt;dir_1fb090f0c6070330bfaccc4236d3ca0d</title><path fill="none" stroke="#000" d="M174.8021,-143.8314C168.4674,-135.5386 160.8426,-125.557 153.8884,-116.4533"/><polygon fill="#000" stroke="#000" points="156.599 -114.235 147.747 -108.413 151.036 -118.485 156.599 -114.235"/><g id="a_edge5-headlabel"><a target="_top" xlink:href="dir_000023_000001.xhtml" xlink:title="517"><text x="161.037" y="-112.868" fill="#000" font-family="Helvetica,sans-Serif" font-size="10" text-anchor="middle">517</text></a></g></g><g id="edge6" class="edge"><title>dir_8bc26130589aa16388b5a02f17abf2c2-&gt;dir_5815af820a9cc9481f1d0990a0d60286</title><path fill="none" stroke="#000" d="M186.8905,-143.8083C184.5922,-125.1875 179.6465,-95.7008 169.681,-72 165.7266,-62.5953 160.0658,-53.0879 154.4004,-44.727"/><polygon fill="#000" stroke="#000" points="157.199 -42.623 148.566 -36.481 151.485 -46.666 157.199 -42.623"/><g id="a_edge6-headlabel"><a target="_top" xlink:href="dir_000023_000119.xhtml" xlink:title="4"><text x="161.593" y="-41.417" fill="#000" font-family="Helvetica,sans-Serif" font-size="10" text-anchor="middle">4</text></a></g></g><g id="edge11" class="edge"><title>dir_1fb090f0c6070330bfaccc4236d3ca0d-&gt;dir_5815af820a9cc9481f1d0990a0d60286</title><path fill="none" stroke="#000" d="M133.681,-71.8314C133.681,-64.131 133.681,-54.9743 133.681,-46.4166"/><polygon fill="#000" stroke="#000" points="137.181 -46.413 133.681 -36.413 130.181 -46.413 137.181 -46.413"/><g id="a_edge11-headlabel"><a target="_top" xlink:href="dir_000001_000119.xhtml" xlink:title="13"><text x="140.02" y="-47.508" fill="#000" font-family="Helvetica,sans-Serif" font-size="10" text-anchor="middle">13</text></a></g></g><g id="edge14" class="edge"><title>dir_b30607d43e07fadf88f4c95a88a6c88e-&gt;dir_1fb090f0c6070330bfaccc4236d3ca0d</title><path fill="none" stroke="#000" d="M64.1488,-143.8314C75.7136,-134.8779 89.8214,-123.9558 102.2993,-114.2955"/><polygon fill="#000" stroke="#000" points="104.456 -117.052 110.221 -108.163 100.171 -111.517 104.456 -117.052"/><g id="a_edge14-headlabel"><a target="_top" xlink:href="dir_000040_000001.xhtml" xlink:title="1"><text x="103.352" y="-118.998" fill="#000" font-family="Helvetica,sans-Serif" font-size="10" text-anchor="middle">1</text></a></g></g></g></svg>