<svg xmlns="http://www.w3.org/2000/svg" xmlns:xlink="http://www.w3.org/1999/xlink" width="122pt" height="151pt" viewBox="0 0 122 151"><g id="graph0" class="graph" transform="scale(1 1) rotate(0) translate(4 147)"><title>arm_compute/runtime/GLES_COMPUTE/functions</title><polygon fill="#fff" stroke="transparent" points="-4 4 -4 -147 118 -147 118 4 -4 4"/><g id="clust1" class="cluster"><title>clusterdir_e83fa7cb9796f3ad7be03e3d9fcd3249</title><g id="a_clust1"><a target="_top" xlink:href="dir_e83fa7cb9796f3ad7be03e3d9fcd3249.xhtml" xlink:title="GLES_COMPUTE"><polygon fill="#dde" stroke="#000" points="8 -64 8 -135 106 -135 106 -64 8 -64"/><text x="57" y="-123" fill="#000" font-family="Helvetica,sans-Serif" font-size="10" text-anchor="middle">GLES_COMPUTE</text></a></g></g><g id="node1" class="node"><title>dir_b2d75812ef27339cb07aa08923a4a042</title><g id="a_node1"><a target="_top" xlink:href="dir_b2d75812ef27339cb07aa08923a4a042.xhtml" xlink:title="functions"><polygon fill="#eef" stroke="#000" points="85 -108 29 -108 29 -72 85 -72 85 -108"/><text x="57" y="-87.5" fill="#000" font-family="Helvetica,sans-Serif" font-size="10" text-anchor="middle">functions</text></a></g></g><g id="node2" class="node"><title>dir_1fb090f0c6070330bfaccc4236d3ca0d</title><g id="a_node2"><a target="_top" xlink:href="dir_1fb090f0c6070330bfaccc4236d3ca0d.xhtml" xlink:title="core"><polygon fill="#fff" stroke="red" points="84 -36 30 -36 30 0 84 0 84 -36"/><text x="57" y="-15.5" fill="#000" font-family="Helvetica,sans-Serif" font-size="10" text-anchor="middle">core</text></a></g></g><g id="edge1" class="edge"><title>dir_b2d75812ef27339cb07aa08923a4a042-&gt;dir_1fb090f0c6070330bfaccc4236d3ca0d</title><path fill="none" stroke="#000" d="M57,-71.8314C57,-64.131 57,-54.9743 57,-46.4166"/><polygon fill="#000" stroke="#000" points="60.5 -46.413 57 -36.413 53.5 -46.413 60.5 -46.413"/><g id="a_edge1-headlabel"><a target="_top" xlink:href="dir_000048_000001.xhtml" xlink:title="50"><text x="63.339" y="-47.508" fill="#000" font-family="Helvetica,sans-Serif" font-size="10" text-anchor="middle">50</text></a></g></g></g></svg>