<svg xmlns="http://www.w3.org/2000/svg" xmlns:xlink="http://www.w3.org/1999/xlink" width="280" height="295pt" viewBox="0 0 210 295"><g id="graph0" class="graph" transform="scale(1 1) rotate(0) translate(4 291)"><title>tests/benchmark/CL</title><polygon fill="#fff" stroke="transparent" points="-4 4 -4 -291 206 -291 206 4 -4 4"/><g id="clust1" class="cluster"><title>clusterdir_4f2df8950dc650bf7cf9176fae02facc</title><g id="a_clust1"><a target="_top" xlink:href="dir_4f2df8950dc650bf7cf9176fae02facc.xhtml" xlink:title="benchmark"><polygon fill="#dde" stroke="#000" points="55 -208 55 -279 125 -279 125 -208 55 -208"/><text x="90" y="-267" fill="#000" font-family="Helvetica,sans-Serif" font-size="10" text-anchor="middle">benchmark</text></a></g></g><g id="node1" class="node"><title>dir_4da487531dc5bdc76b523c9e82b781b1</title><g id="a_node1"><a target="_top" xlink:href="dir_4da487531dc5bdc76b523c9e82b781b1.xhtml" xlink:title="CL"><polygon fill="#eef" stroke="#000" points="117 -252 63 -252 63 -216 117 -216 117 -252"/><text x="90" y="-231.5" fill="#000" font-family="Helvetica,sans-Serif" font-size="10" text-anchor="middle">CL</text></a></g></g><g id="node2" class="node"><title>dir_cbdb8362360e11eafe2fa3bc74cf0ffd</title><g id="a_node2"><a target="_top" xlink:href="dir_cbdb8362360e11eafe2fa3bc74cf0ffd.xhtml" xlink:title="utils"><polygon fill="#fff" stroke="red" points="54 -108 0 -108 0 -72 54 -72 54 -108"/><text x="27" y="-87.5" fill="#000" font-family="Helvetica,sans-Serif" font-size="10" text-anchor="middle">utils</text></a></g></g><g id="edge1" class="edge"><title>dir_4da487531dc5bdc76b523c9e82b781b1-&gt;dir_cbdb8362360e11eafe2fa3bc74cf0ffd</title><path fill="none" stroke="#000" d="M62.9555,-220.7621C47.5916,-211.6343 29.7281,-197.914 21,-180 11.668,-160.8467 13.95,-136.6311 18.137,-118.1441"/><polygon fill="#000" stroke="#000" points="21.576 -118.824 20.673 -108.267 14.796 -117.083 21.576 -118.824"/><g id="a_edge1-headlabel"><a target="_top" xlink:href="dir_000099_000027.xhtml" xlink:title="47"><text x="23.432" y="-120.511" fill="#000" font-family="Helvetica,sans-Serif" font-size="10" text-anchor="middle">47</text></a></g></g><g id="node3" class="node"><title>dir_9e71e2da941d3cafc4d98a9f6ae3de4f</title><g id="a_node3"><a target="_top" xlink:href="dir_9e71e2da941d3cafc4d98a9f6ae3de4f.xhtml" xlink:title="framework"><polygon fill="#fff" stroke="red" points="92 -180 30 -180 30 -144 92 -144 92 -180"/><text x="61" y="-159.5" fill="#000" font-family="Helvetica,sans-Serif" font-size="10" text-anchor="middle">framework</text></a></g></g><g id="edge2" class="edge"><title>dir_4da487531dc5bdc76b523c9e82b781b1-&gt;dir_9e71e2da941d3cafc4d98a9f6ae3de4f</title><path fill="none" stroke="#000" d="M82.6821,-215.8314C79.5124,-207.9617 75.73,-198.5712 72.2187,-189.8533"/><polygon fill="#000" stroke="#000" points="75.399 -188.381 68.416 -180.413 68.906 -190.997 75.399 -188.381"/><g id="a_edge2-headlabel"><a target="_top" xlink:href="dir_000099_000025.xhtml" xlink:title="93"><text x="79.376" y="-188.155" fill="#000" font-family="Helvetica,sans-Serif" font-size="10" text-anchor="middle">93</text></a></g></g><g id="node4" class="node"><title>dir_214608ef36d61442cb2b0c1c4e9a7def</title><g id="a_node4"><a target="_top" xlink:href="dir_214608ef36d61442cb2b0c1c4e9a7def.xhtml" xlink:title="arm_compute"><polygon fill="#fff" stroke="red" points="120 -36 44 -36 44 0 120 0 120 -36"/><text x="82" y="-15.5" fill="#000" font-family="Helvetica,sans-Serif" font-size="10" text-anchor="middle">arm_compute</text></a></g></g><g id="edge3" class="edge"><title>dir_4da487531dc5bdc76b523c9e82b781b1-&gt;dir_214608ef36d61442cb2b0c1c4e9a7def</title><path fill="none" stroke="#000" d="M94.6934,-215.6463C97.1071,-205.2631 99.7908,-191.9943 101,-180 105.7212,-133.1701 96.3026,-78.8604 89.1148,-46.5242"/><polygon fill="#000" stroke="#000" points="92.447 -45.399 86.786 -36.443 85.627 -46.974 92.447 -45.399"/><g id="a_edge3-headlabel"><a target="_top" xlink:href="dir_000099_000000.xhtml" xlink:title="203"><text x="96.022" y="-45.762" fill="#000" font-family="Helvetica,sans-Serif" font-size="10" text-anchor="middle">203</text></a></g></g><g id="node5" class="node"><title>dir_896191444cf08ec8ade6f88256cb2bdd</title><g id="a_node5"><a target="_top" xlink:href="dir_896191444cf08ec8ade6f88256cb2bdd.xhtml" xlink:title="CL"><polygon fill="none" stroke="#000" points="202 -180 148 -180 148 -144 202 -144 202 -180"/><text x="175" y="-159.5" fill="#000" font-family="Helvetica,sans-Serif" font-size="10" text-anchor="middle">CL</text></a></g></g><g id="edge4" class="edge"><title>dir_4da487531dc5bdc76b523c9e82b781b1-&gt;dir_896191444cf08ec8ade6f88256cb2bdd</title><path fill="none" stroke="#000" d="M111.4491,-215.8314C121.8178,-207.0485 134.4229,-196.3712 145.6646,-186.8489"/><polygon fill="#000" stroke="#000" points="148.19 -189.297 153.558 -180.163 143.665 -183.956 148.19 -189.297"/><g id="a_edge4-headlabel"><a target="_top" xlink:href="dir_000099_000120.xhtml" xlink:title="52"><text x="147.282" y="-191.287" fill="#000" font-family="Helvetica,sans-Serif" font-size="10" text-anchor="middle">52</text></a></g></g><g id="edge5" class="edge"><title>dir_cbdb8362360e11eafe2fa3bc74cf0ffd-&gt;dir_214608ef36d61442cb2b0c1c4e9a7def</title><path fill="none" stroke="#000" d="M34.9264,-71.8314C40.5094,-63.454 48.0357,-53.3531 55.4838,-44.1749"/><polygon fill="#000" stroke="#000" points="58.24 -46.334 61.958 -36.413 52.865 -41.85 58.24 -46.334"/><g id="a_edge5-headlabel"><a target="_top" xlink:href="dir_000027_000000.xhtml" xlink:title="36"><text x="58.118" y="-48.413" fill="#000" font-family="Helvetica,sans-Serif" font-size="10" text-anchor="middle">36</text></a></g></g><g id="edge6" class="edge"><title>dir_9e71e2da941d3cafc4d98a9f6ae3de4f-&gt;dir_cbdb8362360e11eafe2fa3bc74cf0ffd</title><path fill="none" stroke="#000" d="M52.4204,-143.8314C48.6642,-135.8771 44.1743,-126.369 40.0202,-117.5723"/><polygon fill="#000" stroke="#000" points="43.13 -115.961 35.695 -108.413 36.8 -118.95 43.13 -115.961"/><g id="a_edge6-headlabel"><a target="_top" xlink:href="dir_000025_000027.xhtml" xlink:title="3"><text x="47.232" y="-115.499" fill="#000" font-family="Helvetica,sans-Serif" font-size="10" text-anchor="middle">3</text></a></g></g><g id="edge7" class="edge"><title>dir_9e71e2da941d3cafc4d98a9f6ae3de4f-&gt;dir_214608ef36d61442cb2b0c1c4e9a7def</title><path fill="none" stroke="#000" d="M63.6597,-143.7623C67.2415,-119.201 73.6514,-75.2474 77.865,-46.3541"/><polygon fill="#000" stroke="#000" points="81.382 -46.49 79.362 -36.09 74.455 -45.48 81.382 -46.49"/><g id="a_edge7-headlabel"><a target="_top" xlink:href="dir_000025_000000.xhtml" xlink:title="14"><text x="83.673" y="-47.957" fill="#000" font-family="Helvetica,sans-Serif" font-size="10" text-anchor="middle">14</text></a></g></g><g id="edge8" class="edge"><title>dir_214608ef36d61442cb2b0c1c4e9a7def-&gt;dir_cbdb8362360e11eafe2fa3bc74cf0ffd</title><path fill="none" stroke="#000" d="M73.9103,-36.4133C68.2898,-44.8239 60.7456,-54.9323 53.2991,-64.0923"/><polygon fill="#000" stroke="#000" points="50.558 -61.914 46.831 -71.831 55.93 -66.403 50.558 -61.914"/><g id="a_edge8-headlabel"><a target="_top" xlink:href="dir_000000_000027.xhtml" xlink:title="1"><text x="50.685" y="-54.835" fill="#000" font-family="Helvetica,sans-Serif" font-size="10" text-anchor="middle">1</text></a></g></g><g id="edge9" class="edge"><title>dir_896191444cf08ec8ade6f88256cb2bdd-&gt;dir_214608ef36d61442cb2b0c1c4e9a7def</title><path fill="none" stroke="#000" d="M168.8006,-143.8127C161.9017,-124.9342 149.6367,-95.004 134,-72 127.0961,-61.8434 118.217,-51.8376 109.7566,-43.2514"/><polygon fill="#000" stroke="#000" points="112.073 -40.621 102.49 -36.103 107.164 -45.611 112.073 -40.621"/><g id="a_edge9-headlabel"><a target="_top" xlink:href="dir_000120_000000.xhtml" xlink:title="5"><text x="116.627" y="-38.617" fill="#000" font-family="Helvetica,sans-Serif" font-size="10" text-anchor="middle">5</text></a></g></g></g></svg>