<svg xmlns="http://www.w3.org/2000/svg" xmlns:xlink="http://www.w3.org/1999/xlink" width="370pt" height="308" viewBox="0 0 370 231"><g id="graph0" class="graph" transform="scale(1 1) rotate(0) translate(4 227)"><title>arm_compute/core</title><polygon fill="#fff" stroke="transparent" points="-4 4 -4 -227 366 -227 366 4 -4 4"/><g id="clust1" class="cluster"><title>clusterdir_214608ef36d61442cb2b0c1c4e9a7def</title><g id="a_clust1"><a target="_top" xlink:href="dir_214608ef36d61442cb2b0c1c4e9a7def.xhtml" xlink:title="arm_compute"><polygon fill="#dde" stroke="#000" points="8 -56 8 -215 354 -215 354 -56 8 -56"/><text x="181" y="-203" fill="#000" font-family="Helvetica,sans-Serif" font-size="10" text-anchor="middle">arm_compute</text></a></g></g><g id="clust2" class="cluster"><title>clusterdir_1fb090f0c6070330bfaccc4236d3ca0d</title><g id="a_clust2"><a target="_top" xlink:href="dir_1fb090f0c6070330bfaccc4236d3ca0d.xhtml"><polygon fill="#eef" stroke="#000" points="16 -64 16 -188 346 -188 346 -64 16 -64"/></a></g></g><g id="node1" class="node"><title>dir_1fb090f0c6070330bfaccc4236d3ca0d</title><text x="51" y="-159.5" fill="#000" font-family="Helvetica,sans-Serif" font-size="10" text-anchor="middle">core</text></g><g id="node6" class="node"><title>dir_7b0825b7536eda12b63e5d87347b1c7d</title><g id="a_node6"><a target="_top" xlink:href="dir_7b0825b7536eda12b63e5d87347b1c7d.xhtml" xlink:title="utils"><polygon fill="#fff" stroke="red" points="78 -108 24 -108 24 -72 78 -72 78 -108"/><text x="51" y="-87.5" fill="#000" font-family="Helvetica,sans-Serif" font-size="10" text-anchor="middle">utils</text></a></g></g><g id="edge1" class="edge"><title>dir_1fb090f0c6070330bfaccc4236d3ca0d-&gt;dir_7b0825b7536eda12b63e5d87347b1c7d</title><path fill="none" stroke="#000" d="M51,-143.8314C51,-136.131 51,-126.9743 51,-118.4166"/><polygon fill="#000" stroke="#000" points="54.5 -118.413 51 -108.413 47.5 -118.413 54.5 -118.413"/><g id="a_edge1-headlabel"><a target="_top" xlink:href="dir_000001_000008.xhtml" xlink:title="6"><text x="57.339" y="-119.508" fill="#000" font-family="Helvetica,sans-Serif" font-size="10" text-anchor="middle">6</text></a></g></g><g id="node2" class="node"><title>dir_1633709b037eda5b8477677909f78129</title><g id="a_node2"><a target="_top" xlink:href="dir_1633709b037eda5b8477677909f78129.xhtml" xlink:title="CL"><polygon fill="#fff" stroke="red" points="338 -180 284 -180 284 -144 338 -144 338 -180"/><text x="311" y="-159.5" fill="#000" font-family="Helvetica,sans-Serif" font-size="10" text-anchor="middle">CL</text></a></g></g><g id="node7" class="node"><title>dir_5815af820a9cc9481f1d0990a0d60286</title><g id="a_node7"><a target="_top" xlink:href="dir_5815af820a9cc9481f1d0990a0d60286.xhtml" xlink:title="support"><polygon fill="none" stroke="#000" points="205 -36 151 -36 151 0 205 0 205 -36"/><text x="178" y="-15.5" fill="#000" font-family="Helvetica,sans-Serif" font-size="10" text-anchor="middle">support</text></a></g></g><g id="edge4" class="edge"><title>dir_1633709b037eda5b8477677909f78129-&gt;dir_5815af820a9cc9481f1d0990a0d60286</title><path fill="none" stroke="#000" d="M294.1555,-143.7623C270.7709,-118.4436 228.3536,-72.5182 201.76,-43.7251"/><polygon fill="#000" stroke="#000" points="204.064 -41.061 194.708 -36.09 198.922 -45.81 204.064 -41.061"/><g id="a_edge4-headlabel"><a target="_top" xlink:href="dir_000002_000119.xhtml" xlink:title="1"><text x="208.589" y="-39.275" fill="#000" font-family="Helvetica,sans-Serif" font-size="10" text-anchor="middle">1</text></a></g></g><g id="node3" class="node"><title>dir_7484b841a86f2d7fdd057c9b24fbf230</title><g id="a_node3"><a target="_top" xlink:href="dir_7484b841a86f2d7fdd057c9b24fbf230.xhtml" xlink:title="CPP"><polygon fill="#fff" stroke="red" points="150 -180 96 -180 96 -144 150 -144 150 -180"/><text x="123" y="-159.5" fill="#000" font-family="Helvetica,sans-Serif" font-size="10" text-anchor="middle">CPP</text></a></g></g><g id="node5" class="node"><title>dir_315f6cf1ec0b2df3ae747ff8286a19f5</title><g id="a_node5"><a target="_top" xlink:href="dir_315f6cf1ec0b2df3ae747ff8286a19f5.xhtml" xlink:title="NEON"><polygon fill="#fff" stroke="red" points="150 -108 96 -108 96 -72 150 -72 150 -108"/><text x="123" y="-87.5" fill="#000" font-family="Helvetica,sans-Serif" font-size="10" text-anchor="middle">NEON</text></a></g></g><g id="edge7" class="edge"><title>dir_7484b841a86f2d7fdd057c9b24fbf230-&gt;dir_315f6cf1ec0b2df3ae747ff8286a19f5</title><path fill="none" stroke="#000" d="M117.0476,-143.8314C116.2972,-136.131 116.0763,-126.9743 116.3849,-118.4166"/><polygon fill="#000" stroke="#000" points="119.879 -118.616 117.024 -108.413 112.894 -118.17 119.879 -118.616"/><g id="a_edge7-headlabel"><a target="_top" xlink:href="dir_000004_000016.xhtml" xlink:title="3"><text x="122.484" y="-119.884" fill="#000" font-family="Helvetica,sans-Serif" font-size="10" text-anchor="middle">3</text></a></g></g><g id="edge8" class="edge"><title>dir_7484b841a86f2d7fdd057c9b24fbf230-&gt;dir_5815af820a9cc9481f1d0990a0d60286</title><path fill="none" stroke="#000" d="M137.8853,-143.5185C145.2462,-133.5296 153.672,-120.6716 159,-108 167.3306,-88.1876 172.1533,-64.3321 174.8541,-46.1605"/><polygon fill="#000" stroke="#000" points="178.33 -46.572 176.209 -36.192 171.394 -45.629 178.33 -46.572"/><g id="a_edge8-headlabel"><a target="_top" xlink:href="dir_000004_000119.xhtml" xlink:title="1"><text x="180.659" y="-48.016" fill="#000" font-family="Helvetica,sans-Serif" font-size="10" text-anchor="middle">1</text></a></g></g><g id="node4" class="node"><title>dir_541ebbb21ca179b54b469d645ff46bd9</title><g id="a_node4"><a target="_top" xlink:href="dir_541ebbb21ca179b54b469d645ff46bd9.xhtml" xlink:title="GLES_COMPUTE"><polygon fill="#fff" stroke="red" points="266 -180 168 -180 168 -144 266 -144 266 -180"/><text x="217" y="-159.5" fill="#000" font-family="Helvetica,sans-Serif" font-size="10" text-anchor="middle">GLES_COMPUTE</text></a></g></g><g id="edge2" class="edge"><title>dir_541ebbb21ca179b54b469d645ff46bd9-&gt;dir_5815af820a9cc9481f1d0990a0d60286</title><path fill="none" stroke="#000" d="M213.4134,-143.8178C209.0595,-122.5624 201.1533,-86.4175 192,-56 190.9763,-52.598 189.8112,-49.0585 188.6005,-45.5682"/><polygon fill="#000" stroke="#000" points="191.839 -44.231 185.147 -36.018 185.256 -46.612 191.839 -44.231"/><g id="a_edge2-headlabel"><a target="_top" xlink:href="dir_000006_000119.xhtml" xlink:title="1"><text x="195.731" y="-44.146" fill="#000" font-family="Helvetica,sans-Serif" font-size="10" text-anchor="middle">1</text></a></g></g><g id="edge6" class="edge"><title>dir_315f6cf1ec0b2df3ae747ff8286a19f5-&gt;dir_7484b841a86f2d7fdd057c9b24fbf230</title><path fill="none" stroke="#000" d="M128.976,-108.4133C129.7071,-116.0593 129.9203,-125.1084 129.6155,-133.5726"/><polygon fill="#000" stroke="#000" points="126.105 -133.626 128.952 -143.831 133.09 -134.078 126.105 -133.626"/><g id="a_edge6-headlabel"><a target="_top" xlink:href="dir_000016_000004.xhtml" xlink:title="4"><text x="123.503" y="-127.356" fill="#000" font-family="Helvetica,sans-Serif" font-size="10" text-anchor="middle">4</text></a></g></g><g id="edge5" class="edge"><title>dir_315f6cf1ec0b2df3ae747ff8286a19f5-&gt;dir_5815af820a9cc9481f1d0990a0d60286</title><path fill="none" stroke="#000" d="M136.8788,-71.8314C143.2136,-63.5386 150.8384,-53.557 157.7926,-44.4533"/><polygon fill="#000" stroke="#000" points="160.645 -46.485 163.934 -36.413 155.083 -42.235 160.645 -46.485"/><g id="a_edge5-headlabel"><a target="_top" xlink:href="dir_000016_000119.xhtml" xlink:title="5"><text x="160.72" y="-48.565" fill="#000" font-family="Helvetica,sans-Serif" font-size="10" text-anchor="middle">5</text></a></g></g><g id="edge3" class="edge"><title>dir_7b0825b7536eda12b63e5d87347b1c7d-&gt;dir_5815af820a9cc9481f1d0990a0d60286</title><path fill="none" stroke="#000" d="M67.8625,-71.6753C73.5701,-66.1565 80.2238,-60.4029 87,-56 103.6814,-45.1612 123.9672,-36.333 141.1487,-29.9233"/><polygon fill="#000" stroke="#000" points="142.63 -33.11 150.856 -26.432 140.261 -26.523 142.63 -33.11"/><g id="a_edge3-headlabel"><a target="_top" xlink:href="dir_000008_000119.xhtml" xlink:title="3"><text x="140.209" y="-34.498" fill="#000" font-family="Helvetica,sans-Serif" font-size="10" text-anchor="middle">3</text></a></g></g></g></svg>