<svg xmlns="http://www.w3.org/2000/svg" xmlns:xlink="http://www.w3.org/1999/xlink" width="128" height="151pt" viewBox="0 0 96 151"><g id="graph0" class="graph" transform="scale(1 1) rotate(0) translate(4 147)"><title>src/graph/mutators</title><polygon fill="#fff" stroke="transparent" points="-4 4 -4 -147 92 -147 92 4 -4 4"/><g id="clust1" class="cluster"><title>clusterdir_d182250f0c231765fc862e69db210731</title><g id="a_clust1"><a target="_top" xlink:href="dir_d182250f0c231765fc862e69db210731.xhtml" xlink:title="graph"><polygon fill="#dde" stroke="#000" points="8 -64 8 -135 80 -135 80 -64 8 -64"/><text x="44" y="-123" fill="#000" font-family="Helvetica,sans-Serif" font-size="10" text-anchor="middle">graph</text></a></g></g><g id="node1" class="node"><title>dir_1b9e532a4c8623825d945e964c6e4c7f</title><g id="a_node1"><a target="_top" xlink:href="dir_1b9e532a4c8623825d945e964c6e4c7f.xhtml" xlink:title="mutators"><polygon fill="#eef" stroke="#000" points="71.5 -108 16.5 -108 16.5 -72 71.5 -72 71.5 -108"/><text x="44" y="-87.5" fill="#000" font-family="Helvetica,sans-Serif" font-size="10" text-anchor="middle">mutators</text></a></g></g><g id="node2" class="node"><title>dir_214608ef36d61442cb2b0c1c4e9a7def</title><g id="a_node2"><a target="_top" xlink:href="dir_214608ef36d61442cb2b0c1c4e9a7def.xhtml" xlink:title="arm_compute"><polygon fill="#fff" stroke="red" points="82 -36 6 -36 6 0 82 0 82 -36"/><text x="44" y="-15.5" fill="#000" font-family="Helvetica,sans-Serif" font-size="10" text-anchor="middle">arm_compute</text></a></g></g><g id="edge1" class="edge"><title>dir_1b9e532a4c8623825d945e964c6e4c7f-&gt;dir_214608ef36d61442cb2b0c1c4e9a7def</title><path fill="none" stroke="#000" d="M44,-71.8314C44,-64.131 44,-54.9743 44,-46.4166"/><polygon fill="#000" stroke="#000" points="47.5 -46.413 44 -36.413 40.5 -46.413 47.5 -46.413"/><g id="a_edge1-headlabel"><a target="_top" xlink:href="dir_000096_000000.xhtml" xlink:title="42"><text x="50.339" y="-47.508" fill="#000" font-family="Helvetica,sans-Serif" font-size="10" text-anchor="middle">42</text></a></g></g></g></svg>