<svg xmlns="http://www.w3.org/2000/svg" xmlns:xlink="http://www.w3.org/1999/xlink" width="384" height="596" viewBox="0 0 288 447"><g id="graph0" class="graph" transform="scale(1 1) rotate(0) translate(4 443)"><title>tests/framework</title><polygon fill="#fff" stroke="transparent" points="-4 4 -4 -443 284 -443 284 4 -4 4"/><g id="clust1" class="cluster"><title>clusterdir_59425e443f801f1f2fd8bbe4959a3ccf</title><g id="a_clust1"><a target="_top" xlink:href="dir_59425e443f801f1f2fd8bbe4959a3ccf.xhtml" xlink:title="tests"><polygon fill="#dde" stroke="#000" points="8 -200 8 -431 272 -431 272 -200 8 -200"/><text x="140" y="-419" fill="#000" font-family="Helvetica,sans-Serif" font-size="10" text-anchor="middle">tests</text></a></g></g><g id="clust2" class="cluster"><title>clusterdir_9e71e2da941d3cafc4d98a9f6ae3de4f</title><g id="a_clust2"><a target="_top" xlink:href="dir_9e71e2da941d3cafc4d98a9f6ae3de4f.xhtml"><polygon fill="#eef" stroke="#000" points="16 -208 16 -404 264 -404 264 -208 16 -208"/></a></g></g><g id="node1" class="node"><title>dir_9e71e2da941d3cafc4d98a9f6ae3de4f</title><text x="153" y="-375.5" fill="#000" font-family="Helvetica,sans-Serif" font-size="10" text-anchor="middle">framework</text></g><g id="node7" class="node"><title>dir_214608ef36d61442cb2b0c1c4e9a7def</title><g id="a_node7"><a target="_top" xlink:href="dir_214608ef36d61442cb2b0c1c4e9a7def.xhtml" xlink:title="arm_compute"><polygon fill="#fff" stroke="red" points="98 -180 22 -180 22 -144 98 -144 98 -180"/><text x="60" y="-159.5" fill="#000" font-family="Helvetica,sans-Serif" font-size="10" text-anchor="middle">arm_compute</text></a></g></g><g id="edge7" class="edge"><title>dir_9e71e2da941d3cafc4d98a9f6ae3de4f-&gt;dir_214608ef36d61442cb2b0c1c4e9a7def</title><path fill="none" stroke="#000" d="M151.33,-359.9753C147.505,-326.2258 135.7601,-252.2015 103,-200 100.0873,-195.3588 96.4414,-190.9579 92.5118,-186.9082"/><polygon fill="#000" stroke="#000" points="94.9 -184.349 85.229 -180.022 90.091 -189.436 94.9 -184.349"/><g id="a_edge7-headlabel"><a target="_top" xlink:href="dir_000025_000000.xhtml" xlink:title="14"><text x="99.463" y="-182.256" fill="#000" font-family="Helvetica,sans-Serif" font-size="10" text-anchor="middle">14</text></a></g></g><g id="node2" class="node"><title>dir_d247c927d0dc22626cf668ab2bd7f080</title><g id="a_node2"><a target="_top" xlink:href="dir_d247c927d0dc22626cf668ab2bd7f080.xhtml" xlink:title="command_line"><polygon fill="#fff" stroke="#000" points="104 -396 24 -396 24 -360 104 -360 104 -396"/><text x="64" y="-375.5" fill="#000" font-family="Helvetica,sans-Serif" font-size="10" text-anchor="middle">command_line</text></a></g></g><g id="node4" class="node"><title>dir_4efd0ee2ecda32567e74991b08d544ea</title><g id="a_node4"><a target="_top" xlink:href="dir_4efd0ee2ecda32567e74991b08d544ea.xhtml" xlink:title="instruments"><polygon fill="#fff" stroke="#000" points="94 -252 26 -252 26 -216 94 -216 94 -252"/><text x="60" y="-231.5" fill="#000" font-family="Helvetica,sans-Serif" font-size="10" text-anchor="middle">instruments</text></a></g></g><g id="edge4" class="edge"><title>dir_d247c927d0dc22626cf668ab2bd7f080-&gt;dir_4efd0ee2ecda32567e74991b08d544ea</title><path fill="none" stroke="#000" d="M51.3878,-359.9415C45.1233,-349.866 38.2188,-336.7967 35,-324 31.0971,-308.4833 31.5585,-303.6255 35,-288 36.9805,-279.0081 40.6121,-269.7321 44.5051,-261.4596"/><polygon fill="#000" stroke="#000" points="47.752 -262.794 49.112 -252.287 41.496 -259.652 47.752 -262.794"/><g id="a_edge4-headlabel"><a target="_top" xlink:href="dir_000123_000125.xhtml" xlink:title="1"><text x="48.676" y="-264.78" fill="#000" font-family="Helvetica,sans-Serif" font-size="10" text-anchor="middle">1</text></a></g></g><g id="node5" class="node"><title>dir_68cb0bded1cc5601c88ddaacbb31e482</title><g id="a_node5"><a target="_top" xlink:href="dir_68cb0bded1cc5601c88ddaacbb31e482.xhtml" xlink:title="printers"><polygon fill="#fff" stroke="#000" points="98 -324 44 -324 44 -288 98 -288 98 -324"/><text x="71" y="-303.5" fill="#000" font-family="Helvetica,sans-Serif" font-size="10" text-anchor="middle">printers</text></a></g></g><g id="edge2" class="edge"><title>dir_d247c927d0dc22626cf668ab2bd7f080-&gt;dir_68cb0bded1cc5601c88ddaacbb31e482</title><path fill="none" stroke="#000" d="M65.7664,-359.8314C66.515,-352.131 67.4053,-342.9743 68.2373,-334.4166"/><polygon fill="#000" stroke="#000" points="71.726 -334.705 69.21 -324.413 64.758 -334.028 71.726 -334.705"/><g id="a_edge2-headlabel"><a target="_top" xlink:href="dir_000123_000031.xhtml" xlink:title="1"><text x="74.204" y="-336.058" fill="#000" font-family="Helvetica,sans-Serif" font-size="10" text-anchor="middle">1</text></a></g></g><g id="node6" class="node"><title>dir_cbdb8362360e11eafe2fa3bc74cf0ffd</title><g id="a_node6"><a target="_top" xlink:href="dir_cbdb8362360e11eafe2fa3bc74cf0ffd.xhtml" xlink:title="utils"><polygon fill="#fff" stroke="red" points="148 -108 94 -108 94 -72 148 -72 148 -108"/><text x="121" y="-87.5" fill="#000" font-family="Helvetica,sans-Serif" font-size="10" text-anchor="middle">utils</text></a></g></g><g id="edge3" class="edge"><title>dir_d247c927d0dc22626cf668ab2bd7f080-&gt;dir_cbdb8362360e11eafe2fa3bc74cf0ffd</title><path fill="none" stroke="#000" d="M83.154,-359.8412C92.0817,-350.1324 101.8517,-337.4279 107,-324 133.8521,-253.9639 129.2969,-163.4867 124.6393,-118.3013"/><polygon fill="#000" stroke="#000" points="128.087 -117.637 123.503 -108.085 121.13 -118.411 128.087 -117.637"/><g id="a_edge3-headlabel"><a target="_top" xlink:href="dir_000123_000027.xhtml" xlink:title="2"><text x="131.306" y="-118.395" fill="#000" font-family="Helvetica,sans-Serif" font-size="10" text-anchor="middle">2</text></a></g></g><g id="node3" class="node"><title>dir_0dd7887818bb8d90732685575a13f58a</title><g id="a_node3"><a target="_top" xlink:href="dir_0dd7887818bb8d90732685575a13f58a.xhtml" xlink:title="datasets"><polygon fill="#fff" stroke="#000" points="256 -396 202 -396 202 -360 256 -360 256 -396"/><text x="229" y="-375.5" fill="#000" font-family="Helvetica,sans-Serif" font-size="10" text-anchor="middle">datasets</text></a></g></g><g id="edge11" class="edge"><title>dir_0dd7887818bb8d90732685575a13f58a-&gt;dir_cbdb8362360e11eafe2fa3bc74cf0ffd</title><path fill="none" stroke="#000" d="M222.3239,-359.7606C207.8669,-320.3261 172.506,-224.212 142,-144 138.7617,-135.4853 135.1865,-126.2371 131.918,-117.8399"/><polygon fill="#000" stroke="#000" points="135.157 -116.511 128.261 -108.468 128.636 -119.056 135.157 -116.511"/><g id="a_edge11-headlabel"><a target="_top" xlink:href="dir_000124_000027.xhtml" xlink:title="1"><text x="139.108" y="-116.328" fill="#000" font-family="Helvetica,sans-Serif" font-size="10" text-anchor="middle">1</text></a></g></g><g id="node8" class="node"><title>dir_5815af820a9cc9481f1d0990a0d60286</title><g id="a_node8"><a target="_top" xlink:href="dir_5815af820a9cc9481f1d0990a0d60286.xhtml" xlink:title="support"><polygon fill="none" stroke="#000" points="148 -36 94 -36 94 0 148 0 148 -36"/><text x="121" y="-15.5" fill="#000" font-family="Helvetica,sans-Serif" font-size="10" text-anchor="middle">support</text></a></g></g><g id="edge12" class="edge"><title>dir_0dd7887818bb8d90732685575a13f58a-&gt;dir_5815af820a9cc9481f1d0990a0d60286</title><path fill="none" stroke="#000" d="M231.2792,-359.8486C234.5012,-332.5755 240,-279.3818 240,-234 240,-234 240,-234 240,-162 240,-109.0804 191.6543,-65.1193 156.5931,-40.1961"/><polygon fill="#000" stroke="#000" points="158.223 -37.069 148.003 -34.276 154.251 -42.833 158.223 -37.069"/><g id="a_edge12-headlabel"><a target="_top" xlink:href="dir_000124_000119.xhtml" xlink:title="3"><text x="162.794" y="-34.271" fill="#000" font-family="Helvetica,sans-Serif" font-size="10" text-anchor="middle">3</text></a></g></g><g id="edge10" class="edge"><title>dir_4efd0ee2ecda32567e74991b08d544ea-&gt;dir_214608ef36d61442cb2b0c1c4e9a7def</title><path fill="none" stroke="#000" d="M60,-215.8314C60,-208.131 60,-198.9743 60,-190.4166"/><polygon fill="#000" stroke="#000" points="63.5 -190.413 60 -180.413 56.5 -190.413 63.5 -190.413"/><g id="a_edge10-headlabel"><a target="_top" xlink:href="dir_000125_000000.xhtml" xlink:title="13"><text x="66.339" y="-191.508" fill="#000" font-family="Helvetica,sans-Serif" font-size="10" text-anchor="middle">13</text></a></g></g><g id="edge1" class="edge"><title>dir_68cb0bded1cc5601c88ddaacbb31e482-&gt;dir_4efd0ee2ecda32567e74991b08d544ea</title><path fill="none" stroke="#000" d="M68.2242,-287.8314C67.0478,-280.131 65.6489,-270.9743 64.3414,-262.4166"/><polygon fill="#000" stroke="#000" points="67.783 -261.77 62.813 -252.413 60.864 -262.827 67.783 -261.77"/><g id="a_edge1-headlabel"><a target="_top" xlink:href="dir_000031_000125.xhtml" xlink:title="3"><text x="71.133" y="-262.395" fill="#000" font-family="Helvetica,sans-Serif" font-size="10" text-anchor="middle">3</text></a></g></g><g id="edge5" class="edge"><title>dir_cbdb8362360e11eafe2fa3bc74cf0ffd-&gt;dir_214608ef36d61442cb2b0c1c4e9a7def</title><path fill="none" stroke="#000" d="M111.3759,-108.4133C104.9906,-116.9088 96.4983,-127.1366 88.2094,-136.3696"/><polygon fill="#000" stroke="#000" points="85.54 -134.102 81.345 -143.831 90.691 -138.841 85.54 -134.102"/><g id="a_edge5-headlabel"><a target="_top" xlink:href="dir_000027_000000.xhtml" xlink:title="36"><text x="85.883" y="-127.034" fill="#000" font-family="Helvetica,sans-Serif" font-size="10" text-anchor="middle">36</text></a></g></g><g id="edge6" class="edge"><title>dir_cbdb8362360e11eafe2fa3bc74cf0ffd-&gt;dir_5815af820a9cc9481f1d0990a0d60286</title><path fill="none" stroke="#000" d="M121,-71.8314C121,-64.131 121,-54.9743 121,-46.4166"/><polygon fill="#000" stroke="#000" points="124.5 -46.413 121 -36.413 117.5 -46.413 124.5 -46.413"/><g id="a_edge6-headlabel"><a target="_top" xlink:href="dir_000027_000119.xhtml" xlink:title="3"><text x="127.339" y="-47.508" fill="#000" font-family="Helvetica,sans-Serif" font-size="10" text-anchor="middle">3</text></a></g></g><g id="edge8" class="edge"><title>dir_214608ef36d61442cb2b0c1c4e9a7def-&gt;dir_cbdb8362360e11eafe2fa3bc74cf0ffd</title><path fill="none" stroke="#000" d="M69.4405,-143.8314C75.785,-135.3694 84.2588,-125.1489 92.5514,-115.8971"/><polygon fill="#000" stroke="#000" points="95.238 -118.146 99.424 -108.413 90.082 -113.412 95.238 -118.146"/><g id="a_edge8-headlabel"><a target="_top" xlink:href="dir_000000_000027.xhtml" xlink:title="1"><text x="94.898" y="-120.214" fill="#000" font-family="Helvetica,sans-Serif" font-size="10" text-anchor="middle">1</text></a></g></g><g id="edge9" class="edge"><title>dir_214608ef36d61442cb2b0c1c4e9a7def-&gt;dir_5815af820a9cc9481f1d0990a0d60286</title><path fill="none" stroke="#000" d="M63.2818,-143.8236C67.0432,-125.2149 74.1285,-95.7377 85,-72 89.3178,-62.5722 95.1837,-52.9441 100.9266,-44.4781"/><polygon fill="#000" stroke="#000" points="103.906 -46.326 106.797 -36.133 98.18 -42.299 103.906 -46.326"/><g id="a_edge9-headlabel"><a target="_top" xlink:href="dir_000000_000119.xhtml" xlink:title="20"><text x="104.16" y="-48.4" fill="#000" font-family="Helvetica,sans-Serif" font-size="10" text-anchor="middle">20</text></a></g></g></g></svg>