<svg xmlns="http://www.w3.org/2000/svg" xmlns:xlink="http://www.w3.org/1999/xlink" width="320" height="404" viewBox="0 0 239.65 303"><g id="graph0" class="graph" transform="scale(1 1) rotate(0) translate(4 299)"><title>tests/validation/GLES_COMPUTE</title><polygon fill="#fff" stroke="transparent" points="-4 4 -4 -299 235.647 -299 235.647 4 -4 4"/><g id="clust1" class="cluster"><title>clusterdir_e7c7b16542faa38cb4655ff1750d3604</title><g id="a_clust1"><a target="_top" xlink:href="dir_e7c7b16542faa38cb4655ff1750d3604.xhtml" xlink:title="validation"><polygon fill="#dde" stroke="#000" points="8 -200 8 -287 210 -287 210 -200 8 -200"/><text x="109" y="-275" fill="#000" font-family="Helvetica,sans-Serif" font-size="10" text-anchor="middle">validation</text></a></g></g><g id="clust2" class="cluster"><title>clusterdir_fbdf7bf92663091dc4d5520df638c068</title><g id="a_clust2"><a target="_top" xlink:href="dir_fbdf7bf92663091dc4d5520df638c068.xhtml"><polygon fill="#eef" stroke="#000" points="16 -208 16 -260 202 -260 202 -208 16 -208"/></a></g></g><g id="node1" class="node"><title>dir_fbdf7bf92663091dc4d5520df638c068</title><text x="73" y="-231.5" fill="#000" font-family="Helvetica,sans-Serif" font-size="10" text-anchor="middle">GLES_COMPUTE</text></g><g id="node3" class="node"><title>dir_9e71e2da941d3cafc4d98a9f6ae3de4f</title><g id="a_node3"><a target="_top" xlink:href="dir_9e71e2da941d3cafc4d98a9f6ae3de4f.xhtml" xlink:title="framework"><polygon fill="#fff" stroke="red" points="198 -180 136 -180 136 -144 198 -144 198 -180"/><text x="167" y="-159.5" fill="#000" font-family="Helvetica,sans-Serif" font-size="10" text-anchor="middle">framework</text></a></g></g><g id="edge1" class="edge"><title>dir_fbdf7bf92663091dc4d5520df638c068-&gt;dir_9e71e2da941d3cafc4d98a9f6ae3de4f</title><path fill="none" stroke="#000" d="M96.7202,-215.8314C108.4094,-206.8779 122.6688,-195.9558 135.2809,-186.2955"/><polygon fill="#000" stroke="#000" points="137.477 -189.022 143.287 -180.163 133.22 -183.465 137.477 -189.022"/><g id="a_edge1-headlabel"><a target="_top" xlink:href="dir_000103_000025.xhtml" xlink:title="56"><text x="136.35" y="-190.962" fill="#000" font-family="Helvetica,sans-Serif" font-size="10" text-anchor="middle">56</text></a></g></g><g id="node4" class="node"><title>dir_7365e77196b52ca311bb83f181e59b8c</title><g id="a_node4"><a target="_top" xlink:href="dir_7365e77196b52ca311bb83f181e59b8c.xhtml" xlink:title="GLES_COMPUTE"><polygon fill="none" stroke="#000" points="118 -180 20 -180 20 -144 118 -144 118 -180"/><text x="69" y="-159.5" fill="#000" font-family="Helvetica,sans-Serif" font-size="10" text-anchor="middle">GLES_COMPUTE</text></a></g></g><g id="edge2" class="edge"><title>dir_fbdf7bf92663091dc4d5520df638c068-&gt;dir_7365e77196b52ca311bb83f181e59b8c</title><path fill="none" stroke="#000" d="M71.9906,-215.8314C71.5628,-208.131 71.0541,-198.9743 70.5787,-190.4166"/><polygon fill="#000" stroke="#000" points="74.072 -190.204 70.023 -180.413 67.083 -190.592 74.072 -190.204"/><g id="a_edge2-headlabel"><a target="_top" xlink:href="dir_000103_000121.xhtml" xlink:title="21"><text x="77.107" y="-191.135" fill="#000" font-family="Helvetica,sans-Serif" font-size="10" text-anchor="middle">21</text></a></g></g><g id="node5" class="node"><title>dir_214608ef36d61442cb2b0c1c4e9a7def</title><g id="a_node5"><a target="_top" xlink:href="dir_214608ef36d61442cb2b0c1c4e9a7def.xhtml" xlink:title="arm_compute"><polygon fill="#fff" stroke="red" points="168 -108 92 -108 92 -72 168 -72 168 -108"/><text x="130" y="-87.5" fill="#000" font-family="Helvetica,sans-Serif" font-size="10" text-anchor="middle">arm_compute</text></a></g></g><g id="edge3" class="edge"><title>dir_fbdf7bf92663091dc4d5520df638c068-&gt;dir_214608ef36d61442cb2b0c1c4e9a7def</title><path fill="none" stroke="#000" d="M42.5042,-215.7757C30.3178,-206.7056 17.6228,-194.5508 11,-180 4.3719,-165.4374 2.3336,-157.4496 11,-144 26.6219,-119.756 56.0734,-106.2742 81.7671,-98.8444"/><polygon fill="#000" stroke="#000" points="82.991 -102.141 91.759 -96.195 81.196 -95.375 82.991 -102.141"/><g id="a_edge3-headlabel"><a target="_top" xlink:href="dir_000103_000000.xhtml" xlink:title="79"><text x="80.244" y="-103.307" fill="#000" font-family="Helvetica,sans-Serif" font-size="10" text-anchor="middle">79</text></a></g></g><g id="node2" class="node"><title>dir_3cbe5b6455504b72bdad57647abe41ab</title><g id="a_node2"><a target="_top" xlink:href="dir_3cbe5b6455504b72bdad57647abe41ab.xhtml" xlink:title="UNIT"><polygon fill="#fff" stroke="#000" points="194 -252 140 -252 140 -216 194 -216 194 -252"/><text x="167" y="-231.5" fill="#000" font-family="Helvetica,sans-Serif" font-size="10" text-anchor="middle">UNIT</text></a></g></g><g id="edge8" class="edge"><title>dir_3cbe5b6455504b72bdad57647abe41ab-&gt;dir_9e71e2da941d3cafc4d98a9f6ae3de4f</title><path fill="none" stroke="#000" d="M167,-215.8314C167,-208.131 167,-198.9743 167,-190.4166"/><polygon fill="#000" stroke="#000" points="170.5 -190.413 167 -180.413 163.5 -190.413 170.5 -190.413"/><g id="a_edge8-headlabel"><a target="_top" xlink:href="dir_000127_000025.xhtml" xlink:title="2"><text x="173.339" y="-191.508" fill="#000" font-family="Helvetica,sans-Serif" font-size="10" text-anchor="middle">2</text></a></g></g><g id="edge9" class="edge"><title>dir_3cbe5b6455504b72bdad57647abe41ab-&gt;dir_7365e77196b52ca311bb83f181e59b8c</title><path fill="none" stroke="#000" d="M149.3387,-215.9362C143.696,-210.5507 137.2802,-204.8075 131,-200 124.5152,-195.0359 117.349,-190.1543 110.2597,-185.6303"/><polygon fill="#000" stroke="#000" points="111.719 -182.417 101.378 -180.112 108.025 -188.363 111.719 -182.417"/><g id="a_edge9-headlabel"><a target="_top" xlink:href="dir_000127_000121.xhtml" xlink:title="1"><text x="116.271" y="-179.402" fill="#000" font-family="Helvetica,sans-Serif" font-size="10" text-anchor="middle">1</text></a></g></g><g id="edge10" class="edge"><title>dir_3cbe5b6455504b72bdad57647abe41ab-&gt;dir_214608ef36d61442cb2b0c1c4e9a7def</title><path fill="none" stroke="#000" d="M184.9818,-215.7629C200.8427,-197.3598 219.6236,-168.2714 207,-144 200.2706,-131.0614 188.8634,-120.5777 176.8618,-112.4111"/><polygon fill="#000" stroke="#000" points="178.402 -109.245 168.076 -106.872 174.669 -115.166 178.402 -109.245"/><g id="a_edge10-headlabel"><a target="_top" xlink:href="dir_000127_000000.xhtml" xlink:title="5"><text x="182.957" y="-106.26" fill="#000" font-family="Helvetica,sans-Serif" font-size="10" text-anchor="middle">5</text></a></g></g><g id="node6" class="node"><title>dir_5815af820a9cc9481f1d0990a0d60286</title><g id="a_node6"><a target="_top" xlink:href="dir_5815af820a9cc9481f1d0990a0d60286.xhtml" xlink:title="support"><polygon fill="none" stroke="#000" points="223 -36 169 -36 169 0 223 0 223 -36"/><text x="196" y="-15.5" fill="#000" font-family="Helvetica,sans-Serif" font-size="10" text-anchor="middle">support</text></a></g></g><g id="edge11" class="edge"><title>dir_3cbe5b6455504b72bdad57647abe41ab-&gt;dir_5815af820a9cc9481f1d0990a0d60286</title><path fill="none" stroke="#000" d="M193.7231,-215.9104C205.0085,-206.6439 216.926,-194.295 223,-180 241.8965,-135.5276 223.9424,-78.9427 209.646,-45.771"/><polygon fill="#000" stroke="#000" points="212.665 -43.952 205.371 -36.267 206.281 -46.823 212.665 -43.952"/><g id="a_edge11-headlabel"><a target="_top" xlink:href="dir_000127_000119.xhtml" xlink:title="1"><text x="216.729" y="-43.565" fill="#000" font-family="Helvetica,sans-Serif" font-size="10" text-anchor="middle">1</text></a></g></g><g id="edge4" class="edge"><title>dir_9e71e2da941d3cafc4d98a9f6ae3de4f-&gt;dir_214608ef36d61442cb2b0c1c4e9a7def</title><path fill="none" stroke="#000" d="M157.6633,-143.8314C153.5757,-135.8771 148.6896,-126.369 144.1691,-117.5723"/><polygon fill="#000" stroke="#000" points="147.146 -115.708 139.462 -108.413 140.92 -118.907 147.146 -115.708"/><g id="a_edge4-headlabel"><a target="_top" xlink:href="dir_000025_000000.xhtml" xlink:title="14"><text x="151.314" y="-115.107" fill="#000" font-family="Helvetica,sans-Serif" font-size="10" text-anchor="middle">14</text></a></g></g><g id="edge5" class="edge"><title>dir_9e71e2da941d3cafc4d98a9f6ae3de4f-&gt;dir_5815af820a9cc9481f1d0990a0d60286</title><path fill="none" stroke="#000" d="M170.6729,-143.7623C175.641,-119.0928 184.5491,-74.8598 190.3665,-45.9731"/><polygon fill="#000" stroke="#000" points="193.814 -46.584 192.357 -36.09 186.952 -45.202 193.814 -46.584"/><g id="a_edge5-headlabel"><a target="_top" xlink:href="dir_000025_000119.xhtml" xlink:title="7"><text x="195.887" y="-48.168" fill="#000" font-family="Helvetica,sans-Serif" font-size="10" text-anchor="middle">7</text></a></g></g><g id="edge6" class="edge"><title>dir_7365e77196b52ca311bb83f181e59b8c-&gt;dir_214608ef36d61442cb2b0c1c4e9a7def</title><path fill="none" stroke="#000" d="M84.3929,-143.8314C91.4904,-135.454 100.048,-125.3531 107.824,-116.1749"/><polygon fill="#000" stroke="#000" points="110.606 -118.306 114.4 -108.413 105.265 -113.781 110.606 -118.306"/><g id="a_edge6-headlabel"><a target="_top" xlink:href="dir_000121_000000.xhtml" xlink:title="3"><text x="110.449" y="-120.384" fill="#000" font-family="Helvetica,sans-Serif" font-size="10" text-anchor="middle">3</text></a></g></g><g id="edge7" class="edge"><title>dir_214608ef36d61442cb2b0c1c4e9a7def-&gt;dir_5815af820a9cc9481f1d0990a0d60286</title><path fill="none" stroke="#000" d="M146.6546,-71.8314C154.4114,-63.3694 163.7802,-53.1489 172.261,-43.8971"/><polygon fill="#000" stroke="#000" points="174.944 -46.15 179.121 -36.413 169.784 -41.42 174.944 -46.15"/><g id="a_edge7-headlabel"><a target="_top" xlink:href="dir_000000_000119.xhtml" xlink:title="20"><text x="174.608" y="-48.218" fill="#000" font-family="Helvetica,sans-Serif" font-size="10" text-anchor="middle">20</text></a></g></g></g></svg>