<svg xmlns="http://www.w3.org/2000/svg" xmlns:xlink="http://www.w3.org/1999/xlink" width="106pt" height="223pt" viewBox="0 0 106 223"><g id="graph0" class="graph" transform="scale(1 1) rotate(0) translate(4 219)"><title>arm_compute/graph/backends/NEON</title><polygon fill="#fff" stroke="transparent" points="-4 4 -4 -219 102 -219 102 4 -4 4"/><g id="clust1" class="cluster"><title>clusterdir_59b2231210c554f4cc243709030bf1f8</title><g id="a_clust1"><a target="_top" xlink:href="dir_59b2231210c554f4cc243709030bf1f8.xhtml" xlink:title="backends"><polygon fill="#dde" stroke="#000" points="20 -136 20 -207 90 -207 90 -136 20 -136"/><text x="55" y="-195" fill="#000" font-family="Helvetica,sans-Serif" font-size="10" text-anchor="middle">backends</text></a></g></g><g id="node1" class="node"><title>dir_2af5ba73c22f603fb662b4c21cfc8574</title><g id="a_node1"><a target="_top" xlink:href="dir_2af5ba73c22f603fb662b4c21cfc8574.xhtml" xlink:title="NEON"><polygon fill="#eef" stroke="#000" points="82 -180 28 -180 28 -144 82 -144 82 -180"/><text x="55" y="-159.5" fill="#000" font-family="Helvetica,sans-Serif" font-size="10" text-anchor="middle">NEON</text></a></g></g><g id="node2" class="node"><title>dir_8bc26130589aa16388b5a02f17abf2c2</title><g id="a_node2"><a target="_top" xlink:href="dir_8bc26130589aa16388b5a02f17abf2c2.xhtml" xlink:title="runtime"><polygon fill="#fff" stroke="red" points="54 -108 0 -108 0 -72 54 -72 54 -108"/><text x="27" y="-87.5" fill="#000" font-family="Helvetica,sans-Serif" font-size="10" text-anchor="middle">runtime</text></a></g></g><g id="edge1" class="edge"><title>dir_2af5ba73c22f603fb662b4c21cfc8574-&gt;dir_8bc26130589aa16388b5a02f17abf2c2</title><path fill="none" stroke="#000" d="M47.9344,-143.8314C44.874,-135.9617 41.2221,-126.5712 37.8318,-117.8533"/><polygon fill="#000" stroke="#000" points="41.047 -116.465 34.161 -108.413 34.523 -119.002 41.047 -116.465"/><g id="a_edge1-headlabel"><a target="_top" xlink:href="dir_000037_000023.xhtml" xlink:title="4"><text x="44.996" y="-116.286" fill="#000" font-family="Helvetica,sans-Serif" font-size="10" text-anchor="middle">4</text></a></g></g><g id="node3" class="node"><title>dir_1fb090f0c6070330bfaccc4236d3ca0d</title><g id="a_node3"><a target="_top" xlink:href="dir_1fb090f0c6070330bfaccc4236d3ca0d.xhtml" xlink:title="core"><polygon fill="#fff" stroke="red" points="81 -36 27 -36 27 0 81 0 81 -36"/><text x="54" y="-15.5" fill="#000" font-family="Helvetica,sans-Serif" font-size="10" text-anchor="middle">core</text></a></g></g><g id="edge2" class="edge"><title>dir_2af5ba73c22f603fb662b4c21cfc8574-&gt;dir_1fb090f0c6070330bfaccc4236d3ca0d</title><path fill="none" stroke="#000" d="M58.415,-143.5804C60.1709,-133.1767 62.1226,-119.9092 63,-108 64.1756,-92.0432 64.3197,-87.9455 63,-72 62.3055,-63.6085 61.0138,-54.5578 59.6214,-46.3092"/><polygon fill="#000" stroke="#000" points="63.054 -45.623 57.841 -36.4 56.165 -46.861 63.054 -45.623"/><g id="a_edge2-headlabel"><a target="_top" xlink:href="dir_000037_000001.xhtml" xlink:title="1"><text x="66.484" y="-46.16" fill="#000" font-family="Helvetica,sans-Serif" font-size="10" text-anchor="middle">1</text></a></g></g><g id="edge3" class="edge"><title>dir_8bc26130589aa16388b5a02f17abf2c2-&gt;dir_1fb090f0c6070330bfaccc4236d3ca0d</title><path fill="none" stroke="#000" d="M33.8132,-71.8314C36.7644,-63.9617 40.2858,-54.5712 43.555,-45.8533"/><polygon fill="#000" stroke="#000" points="46.861 -47.005 47.095 -36.413 40.307 -44.548 46.861 -47.005"/><g id="a_edge3-headlabel"><a target="_top" xlink:href="dir_000023_000001.xhtml" xlink:title="517"><text x="48.257" y="-48.868" fill="#000" font-family="Helvetica,sans-Serif" font-size="10" text-anchor="middle">517</text></a></g></g></g></svg>