<svg xmlns="http://www.w3.org/2000/svg" xmlns:xlink="http://www.w3.org/1999/xlink" width="164" height="223pt" viewBox="0 0 123 223"><g id="graph0" class="graph" transform="scale(1 1) rotate(0) translate(4 219)"><title>src/runtime/CPP/functions</title><polygon fill="#fff" stroke="transparent" points="-4 4 -4 -219 119 -219 119 4 -4 4"/><g id="clust1" class="cluster"><title>clusterdir_9240672d44dfdb0f539b385a1f058d2d</title><g id="a_clust1"><a target="_top" xlink:href="dir_9240672d44dfdb0f539b385a1f058d2d.xhtml" xlink:title="CPP"><polygon fill="#dde" stroke="#000" points="35 -136 35 -207 107 -207 107 -136 35 -136"/><text x="71" y="-195" fill="#000" font-family="Helvetica,sans-Serif" font-size="10" text-anchor="middle">CPP</text></a></g></g><g id="node1" class="node"><title>dir_8f7fe1d9d655d949f37b90c9cd0a7992</title><g id="a_node1"><a target="_top" xlink:href="dir_8f7fe1d9d655d949f37b90c9cd0a7992.xhtml" xlink:title="functions"><polygon fill="#eef" stroke="#000" points="99 -180 43 -180 43 -144 99 -144 99 -180"/><text x="71" y="-159.5" fill="#000" font-family="Helvetica,sans-Serif" font-size="10" text-anchor="middle">functions</text></a></g></g><g id="node2" class="node"><title>dir_214608ef36d61442cb2b0c1c4e9a7def</title><g id="a_node2"><a target="_top" xlink:href="dir_214608ef36d61442cb2b0c1c4e9a7def.xhtml" xlink:title="arm_compute"><polygon fill="#fff" stroke="red" points="76 -108 0 -108 0 -72 76 -72 76 -108"/><text x="38" y="-87.5" fill="#000" font-family="Helvetica,sans-Serif" font-size="10" text-anchor="middle">arm_compute</text></a></g></g><g id="edge1" class="edge"><title>dir_8f7fe1d9d655d949f37b90c9cd0a7992-&gt;dir_214608ef36d61442cb2b0c1c4e9a7def</title><path fill="none" stroke="#000" d="M62.6727,-143.8314C59.027,-135.8771 54.6691,-126.369 50.6373,-117.5723"/><polygon fill="#000" stroke="#000" points="53.788 -116.046 46.439 -108.413 47.424 -118.962 53.788 -116.046"/><g id="a_edge1-headlabel"><a target="_top" xlink:href="dir_000110_000000.xhtml" xlink:title="6"><text x="57.867" y="-115.63" fill="#000" font-family="Helvetica,sans-Serif" font-size="10" text-anchor="middle">6</text></a></g></g><g id="node3" class="node"><title>dir_5815af820a9cc9481f1d0990a0d60286</title><g id="a_node3"><a target="_top" xlink:href="dir_5815af820a9cc9481f1d0990a0d60286.xhtml" xlink:title="support"><polygon fill="none" stroke="#000" points="98 -36 44 -36 44 0 98 0 98 -36"/><text x="71" y="-15.5" fill="#000" font-family="Helvetica,sans-Serif" font-size="10" text-anchor="middle">support</text></a></g></g><g id="edge2" class="edge"><title>dir_8f7fe1d9d655d949f37b90c9cd0a7992-&gt;dir_5815af820a9cc9481f1d0990a0d60286</title><path fill="none" stroke="#000" d="M76.9698,-143.7319C80.0408,-133.3756 83.4563,-120.105 85,-108 87.024,-92.1285 87.024,-87.8715 85,-72 83.9146,-63.4887 81.9038,-54.4011 79.738,-46.1555"/><polygon fill="#000" stroke="#000" points="83.036 -44.954 76.97 -36.268 76.296 -46.841 83.036 -44.954"/><g id="a_edge2-headlabel"><a target="_top" xlink:href="dir_000110_000119.xhtml" xlink:title="3"><text x="86.74" y="-45.15" fill="#000" font-family="Helvetica,sans-Serif" font-size="10" text-anchor="middle">3</text></a></g></g><g id="edge3" class="edge"><title>dir_214608ef36d61442cb2b0c1c4e9a7def-&gt;dir_5815af820a9cc9481f1d0990a0d60286</title><path fill="none" stroke="#000" d="M46.3273,-71.8314C49.973,-63.8771 54.3309,-54.369 58.3627,-45.5723"/><polygon fill="#000" stroke="#000" points="61.576 -46.962 62.561 -36.413 55.212 -44.046 61.576 -46.962"/><g id="a_edge3-headlabel"><a target="_top" xlink:href="dir_000000_000119.xhtml" xlink:title="20"><text x="62.659" y="-48.913" fill="#000" font-family="Helvetica,sans-Serif" font-size="10" text-anchor="middle">20</text></a></g></g></g></svg>