<svg xmlns="http://www.w3.org/2000/svg" xmlns:xlink="http://www.w3.org/1999/xlink" width="217pt" height="295pt" viewBox="0 0 217.48 295"><g id="graph0" class="graph" transform="scale(1 1) rotate(0) translate(4 291)"><title>tests/benchmark/GLES_COMPUTE</title><polygon fill="#fff" stroke="transparent" points="-4 4 -4 -291 213.481 -291 213.481 4 -4 4"/><g id="clust1" class="cluster"><title>clusterdir_4f2df8950dc650bf7cf9176fae02facc</title><g id="a_clust1"><a target="_top" xlink:href="dir_4f2df8950dc650bf7cf9176fae02facc.xhtml" xlink:title="benchmark"><polygon fill="#dde" stroke="#000" points="36.733 -208 36.733 -279 150.733 -279 150.733 -208 36.733 -208"/><text x="93.733" y="-267" fill="#000" font-family="Helvetica,sans-Serif" font-size="10" text-anchor="middle">benchmark</text></a></g></g><g id="node1" class="node"><title>dir_184f72a532a521c8d66e76d860c2010a</title><g id="a_node1"><a target="_top" xlink:href="dir_184f72a532a521c8d66e76d860c2010a.xhtml" xlink:title="GLES_COMPUTE"><polygon fill="#eef" stroke="#000" points="142.733 -252 44.733 -252 44.733 -216 142.733 -216 142.733 -252"/><text x="93.733" y="-231.5" fill="#000" font-family="Helvetica,sans-Serif" font-size="10" text-anchor="middle">GLES_COMPUTE</text></a></g></g><g id="node2" class="node"><title>dir_cbdb8362360e11eafe2fa3bc74cf0ffd</title><g id="a_node2"><a target="_top" xlink:href="dir_cbdb8362360e11eafe2fa3bc74cf0ffd.xhtml" xlink:title="utils"><polygon fill="#fff" stroke="red" points="71.733 -108 17.733 -108 17.733 -72 71.733 -72 71.733 -108"/><text x="44.733" y="-87.5" fill="#000" font-family="Helvetica,sans-Serif" font-size="10" text-anchor="middle">utils</text></a></g></g><g id="edge6" class="edge"><title>dir_184f72a532a521c8d66e76d860c2010a-&gt;dir_cbdb8362360e11eafe2fa3bc74cf0ffd</title><path fill="none" stroke="#000" d="M44.7409,-215.8267C29.1185,-207.434 13.5988,-195.7491 4.7331,-180 -6.9776,-159.1969 5.9828,-134.3155 20.1873,-115.9919"/><polygon fill="#000" stroke="#000" points="23.056 -118.015 26.717 -108.073 17.655 -113.561 23.056 -118.015"/><g id="a_edge6-headlabel"><a target="_top" xlink:href="dir_000100_000027.xhtml" xlink:title="12"><text x="22.96" y="-120.094" fill="#000" font-family="Helvetica,sans-Serif" font-size="10" text-anchor="middle">12</text></a></g></g><g id="node3" class="node"><title>dir_9e71e2da941d3cafc4d98a9f6ae3de4f</title><g id="a_node3"><a target="_top" xlink:href="dir_9e71e2da941d3cafc4d98a9f6ae3de4f.xhtml" xlink:title="framework"><polygon fill="#fff" stroke="red" points="75.733 -180 13.733 -180 13.733 -144 75.733 -144 75.733 -180"/><text x="44.733" y="-159.5" fill="#000" font-family="Helvetica,sans-Serif" font-size="10" text-anchor="middle">framework</text></a></g></g><g id="edge7" class="edge"><title>dir_184f72a532a521c8d66e76d860c2010a-&gt;dir_9e71e2da941d3cafc4d98a9f6ae3de4f</title><path fill="none" stroke="#000" d="M81.3683,-215.8314C75.7822,-207.6232 69.0701,-197.7606 62.9259,-188.7323"/><polygon fill="#000" stroke="#000" points="65.784 -186.711 57.264 -180.413 59.997 -190.65 65.784 -186.711"/><g id="a_edge7-headlabel"><a target="_top" xlink:href="dir_000100_000025.xhtml" xlink:title="24"><text x="70.154" y="-185.585" fill="#000" font-family="Helvetica,sans-Serif" font-size="10" text-anchor="middle">24</text></a></g></g><g id="node4" class="node"><title>dir_7365e77196b52ca311bb83f181e59b8c</title><g id="a_node4"><a target="_top" xlink:href="dir_7365e77196b52ca311bb83f181e59b8c.xhtml" xlink:title="GLES_COMPUTE"><polygon fill="none" stroke="#000" points="191.733 -180 93.733 -180 93.733 -144 191.733 -144 191.733 -180"/><text x="142.733" y="-159.5" fill="#000" font-family="Helvetica,sans-Serif" font-size="10" text-anchor="middle">GLES_COMPUTE</text></a></g></g><g id="edge8" class="edge"><title>dir_184f72a532a521c8d66e76d860c2010a-&gt;dir_7365e77196b52ca311bb83f181e59b8c</title><path fill="none" stroke="#000" d="M106.0978,-215.8314C111.6839,-207.6232 118.396,-197.7606 124.5403,-188.7323"/><polygon fill="#000" stroke="#000" points="127.469 -190.65 130.202 -180.413 121.682 -186.711 127.469 -190.65"/><g id="a_edge8-headlabel"><a target="_top" xlink:href="dir_000100_000121.xhtml" xlink:title="12"><text x="127.794" y="-192.719" fill="#000" font-family="Helvetica,sans-Serif" font-size="10" text-anchor="middle">12</text></a></g></g><g id="node5" class="node"><title>dir_214608ef36d61442cb2b0c1c4e9a7def</title><g id="a_node5"><a target="_top" xlink:href="dir_214608ef36d61442cb2b0c1c4e9a7def.xhtml" xlink:title="arm_compute"><polygon fill="#fff" stroke="red" points="137.733 -36 61.733 -36 61.733 0 137.733 0 137.733 -36"/><text x="99.733" y="-15.5" fill="#000" font-family="Helvetica,sans-Serif" font-size="10" text-anchor="middle">arm_compute</text></a></g></g><g id="edge9" class="edge"><title>dir_184f72a532a521c8d66e76d860c2010a-&gt;dir_214608ef36d61442cb2b0c1c4e9a7def</title><path fill="none" stroke="#000" d="M142.8267,-221.8655C164.5261,-213.7944 187.9726,-200.7332 200.7331,-180 230.8809,-131.0157 173.7387,-73.9967 133.8007,-42.3477"/><polygon fill="#000" stroke="#000" points="135.877 -39.529 125.826 -36.179 131.594 -45.066 135.877 -39.529"/><g id="a_edge9-headlabel"><a target="_top" xlink:href="dir_000100_000000.xhtml" xlink:title="58"><text x="140.457" y="-36.982" fill="#000" font-family="Helvetica,sans-Serif" font-size="10" text-anchor="middle">58</text></a></g></g><g id="edge1" class="edge"><title>dir_cbdb8362360e11eafe2fa3bc74cf0ffd-&gt;dir_214608ef36d61442cb2b0c1c4e9a7def</title><path fill="none" stroke="#000" d="M52.6595,-71.8314C58.2425,-63.454 65.7687,-53.3531 73.2169,-44.1749"/><polygon fill="#000" stroke="#000" points="75.973 -46.334 79.691 -36.413 70.598 -41.85 75.973 -46.334"/><g id="a_edge1-headlabel"><a target="_top" xlink:href="dir_000027_000000.xhtml" xlink:title="36"><text x="75.851" y="-48.413" fill="#000" font-family="Helvetica,sans-Serif" font-size="10" text-anchor="middle">36</text></a></g></g><g id="edge2" class="edge"><title>dir_9e71e2da941d3cafc4d98a9f6ae3de4f-&gt;dir_cbdb8362360e11eafe2fa3bc74cf0ffd</title><path fill="none" stroke="#000" d="M44.7331,-143.8314C44.7331,-136.131 44.7331,-126.9743 44.7331,-118.4166"/><polygon fill="#000" stroke="#000" points="48.233 -118.413 44.733 -108.413 41.233 -118.413 48.233 -118.413"/><g id="a_edge2-headlabel"><a target="_top" xlink:href="dir_000025_000027.xhtml" xlink:title="3"><text x="51.072" y="-119.508" fill="#000" font-family="Helvetica,sans-Serif" font-size="10" text-anchor="middle">3</text></a></g></g><g id="edge3" class="edge"><title>dir_9e71e2da941d3cafc4d98a9f6ae3de4f-&gt;dir_214608ef36d61442cb2b0c1c4e9a7def</title><path fill="none" stroke="#000" d="M59.6183,-143.5185C66.9792,-133.5296 75.405,-120.6716 80.7331,-108 89.0636,-88.1876 93.8864,-64.3321 96.5871,-46.1605"/><polygon fill="#000" stroke="#000" points="100.063 -46.572 97.943 -36.192 93.127 -45.629 100.063 -46.572"/><g id="a_edge3-headlabel"><a target="_top" xlink:href="dir_000025_000000.xhtml" xlink:title="14"><text x="102.392" y="-48.016" fill="#000" font-family="Helvetica,sans-Serif" font-size="10" text-anchor="middle">14</text></a></g></g><g id="edge4" class="edge"><title>dir_7365e77196b52ca311bb83f181e59b8c-&gt;dir_214608ef36d61442cb2b0c1c4e9a7def</title><path fill="none" stroke="#000" d="M137.2871,-143.7623C129.9205,-119.0928 116.712,-74.8598 108.0861,-45.9731"/><polygon fill="#000" stroke="#000" points="111.35 -44.67 105.135 -36.09 104.642 -46.673 111.35 -44.67"/><g id="a_edge4-headlabel"><a target="_top" xlink:href="dir_000121_000000.xhtml" xlink:title="3"><text x="115.099" y="-44.802" fill="#000" font-family="Helvetica,sans-Serif" font-size="10" text-anchor="middle">3</text></a></g></g><g id="edge5" class="edge"><title>dir_214608ef36d61442cb2b0c1c4e9a7def-&gt;dir_cbdb8362360e11eafe2fa3bc74cf0ffd</title><path fill="none" stroke="#000" d="M91.6434,-36.4133C86.0228,-44.8239 78.4787,-54.9323 71.0322,-64.0923"/><polygon fill="#000" stroke="#000" points="68.291 -61.914 64.564 -71.831 73.663 -66.403 68.291 -61.914"/><g id="a_edge5-headlabel"><a target="_top" xlink:href="dir_000000_000027.xhtml" xlink:title="1"><text x="68.418" y="-54.835" fill="#000" font-family="Helvetica,sans-Serif" font-size="10" text-anchor="middle">1</text></a></g></g></g></svg>