<svg xmlns="http://www.w3.org/2000/svg" xmlns:xlink="http://www.w3.org/1999/xlink" width="268" height="367pt" viewBox="0 0 201.28 367"><g id="graph0" class="graph" transform="scale(1 1) rotate(0) translate(4 363)"><title>tests/validation/UNIT</title><polygon fill="#fff" stroke="transparent" points="-4 4 -4 -363 197.284 -363 197.284 4 -4 4"/><g id="clust1" class="cluster"><title>clusterdir_e7c7b16542faa38cb4655ff1750d3604</title><g id="a_clust1"><a target="_top" xlink:href="dir_e7c7b16542faa38cb4655ff1750d3604.xhtml" xlink:title="validation"><polygon fill="#dde" stroke="#000" points="46.284 -280 46.284 -351 116.284 -351 116.284 -280 46.284 -280"/><text x="81.284" y="-339" fill="#000" font-family="Helvetica,sans-Serif" font-size="10" text-anchor="middle">validation</text></a></g></g><g id="node1" class="node"><title>dir_0c108762cda89b68d4571cbbabdf46df</title><g id="a_node1"><a target="_top" xlink:href="dir_0c108762cda89b68d4571cbbabdf46df.xhtml" xlink:title="UNIT"><polygon fill="#eef" stroke="#000" points="108.284 -324 54.284 -324 54.284 -288 108.284 -288 108.284 -324"/><text x="81.284" y="-303.5" fill="#000" font-family="Helvetica,sans-Serif" font-size="10" text-anchor="middle">UNIT</text></a></g></g><g id="node2" class="node"><title>dir_cbdb8362360e11eafe2fa3bc74cf0ffd</title><g id="a_node2"><a target="_top" xlink:href="dir_cbdb8362360e11eafe2fa3bc74cf0ffd.xhtml" xlink:title="utils"><polygon fill="#fff" stroke="red" points="193.284 -180 139.284 -180 139.284 -144 193.284 -144 193.284 -180"/><text x="166.284" y="-159.5" fill="#000" font-family="Helvetica,sans-Serif" font-size="10" text-anchor="middle">utils</text></a></g></g><g id="edge6" class="edge"><title>dir_0c108762cda89b68d4571cbbabdf46df-&gt;dir_cbdb8362360e11eafe2fa3bc74cf0ffd</title><path fill="none" stroke="#000" d="M98.006,-287.8963C106.8039,-277.8076 117.3744,-264.74 125.2836,-252 137.5858,-232.1839 148.3766,-208.0561 155.7961,-189.7724"/><polygon fill="#000" stroke="#000" points="159.127 -190.867 159.559 -180.28 152.62 -188.287 159.127 -190.867"/><g id="a_edge6-headlabel"><a target="_top" xlink:href="dir_000059_000027.xhtml" xlink:title="3"><text x="160.442" y="-192.755" fill="#000" font-family="Helvetica,sans-Serif" font-size="10" text-anchor="middle">3</text></a></g></g><g id="node3" class="node"><title>dir_9e71e2da941d3cafc4d98a9f6ae3de4f</title><g id="a_node3"><a target="_top" xlink:href="dir_9e71e2da941d3cafc4d98a9f6ae3de4f.xhtml" xlink:title="framework"><polygon fill="#fff" stroke="red" points="83.284 -252 21.284 -252 21.284 -216 83.284 -216 83.284 -252"/><text x="52.284" y="-231.5" fill="#000" font-family="Helvetica,sans-Serif" font-size="10" text-anchor="middle">framework</text></a></g></g><g id="edge7" class="edge"><title>dir_0c108762cda89b68d4571cbbabdf46df-&gt;dir_9e71e2da941d3cafc4d98a9f6ae3de4f</title><path fill="none" stroke="#000" d="M73.9657,-287.8314C70.7959,-279.9617 67.0136,-270.5712 63.5023,-261.8533"/><polygon fill="#000" stroke="#000" points="66.683 -260.382 59.7 -252.413 60.19 -262.997 66.683 -260.382"/><g id="a_edge7-headlabel"><a target="_top" xlink:href="dir_000059_000025.xhtml" xlink:title="13"><text x="70.659" y="-260.155" fill="#000" font-family="Helvetica,sans-Serif" font-size="10" text-anchor="middle">13</text></a></g></g><g id="node4" class="node"><title>dir_214608ef36d61442cb2b0c1c4e9a7def</title><g id="a_node4"><a target="_top" xlink:href="dir_214608ef36d61442cb2b0c1c4e9a7def.xhtml" xlink:title="arm_compute"><polygon fill="#fff" stroke="red" points="139.284 -108 63.284 -108 63.284 -72 139.284 -72 139.284 -108"/><text x="101.284" y="-87.5" fill="#000" font-family="Helvetica,sans-Serif" font-size="10" text-anchor="middle">arm_compute</text></a></g></g><g id="edge8" class="edge"><title>dir_0c108762cda89b68d4571cbbabdf46df-&gt;dir_214608ef36d61442cb2b0c1c4e9a7def</title><path fill="none" stroke="#000" d="M85.7199,-287.6167C88.0532,-277.2244 90.742,-263.9561 92.2836,-252 98.3029,-205.3145 100.2988,-150.549 100.959,-118.1455"/><polygon fill="#000" stroke="#000" points="104.46 -118.118 101.136 -108.058 97.461 -117.995 104.46 -118.118"/><g id="a_edge8-headlabel"><a target="_top" xlink:href="dir_000059_000000.xhtml" xlink:title="4"><text x="107.236" y="-119.261" fill="#000" font-family="Helvetica,sans-Serif" font-size="10" text-anchor="middle">4</text></a></g></g><g id="node5" class="node"><title>dir_5815af820a9cc9481f1d0990a0d60286</title><g id="a_node5"><a target="_top" xlink:href="dir_5815af820a9cc9481f1d0990a0d60286.xhtml" xlink:title="support"><polygon fill="none" stroke="#000" points="95.284 -36 41.284 -36 41.284 0 95.284 0 95.284 -36"/><text x="68.284" y="-15.5" fill="#000" font-family="Helvetica,sans-Serif" font-size="10" text-anchor="middle">support</text></a></g></g><g id="edge9" class="edge"><title>dir_0c108762cda89b68d4571cbbabdf46df-&gt;dir_5815af820a9cc9481f1d0990a0d60286</title><path fill="none" stroke="#000" d="M54.2391,-292.7621C38.8752,-283.6343 21.0117,-269.914 12.2836,-252 -21.8649,-181.9122 23.5461,-89.6414 50.6593,-44.788"/><polygon fill="#000" stroke="#000" points="53.679 -46.56 55.971 -36.216 47.728 -42.873 53.679 -46.56"/><g id="a_edge9-headlabel"><a target="_top" xlink:href="dir_000059_000119.xhtml" xlink:title="1"><text x="54.199" y="-48.611" fill="#000" font-family="Helvetica,sans-Serif" font-size="10" text-anchor="middle">1</text></a></g></g><g id="edge1" class="edge"><title>dir_cbdb8362360e11eafe2fa3bc74cf0ffd-&gt;dir_214608ef36d61442cb2b0c1c4e9a7def</title><path fill="none" stroke="#000" d="M143.9289,-143.8314C135.5496,-135.454 126.2411,-125.3531 118.3923,-116.1749"/><polygon fill="#000" stroke="#000" points="121.019 -113.859 111.931 -108.413 115.639 -118.338 121.019 -113.859"/><g id="a_edge1-headlabel"><a target="_top" xlink:href="dir_000027_000000.xhtml" xlink:title="36"><text x="125.501" y="-112.305" fill="#000" font-family="Helvetica,sans-Serif" font-size="10" text-anchor="middle">36</text></a></g></g><g id="edge2" class="edge"><title>dir_cbdb8362360e11eafe2fa3bc74cf0ffd-&gt;dir_5815af820a9cc9481f1d0990a0d60286</title><path fill="none" stroke="#000" d="M166.5901,-143.9128C166.0774,-124.5723 162.7623,-93.7549 148.2836,-72 137.5735,-55.9076 120.2709,-43.3531 104.4922,-34.4158"/><polygon fill="#000" stroke="#000" points="105.908 -31.204 95.439 -29.572 102.606 -37.376 105.908 -31.204"/><g id="a_edge2-headlabel"><a target="_top" xlink:href="dir_000027_000119.xhtml" xlink:title="3"><text x="110.417" y="-27.896" fill="#000" font-family="Helvetica,sans-Serif" font-size="10" text-anchor="middle">3</text></a></g></g><g id="edge3" class="edge"><title>dir_9e71e2da941d3cafc4d98a9f6ae3de4f-&gt;dir_cbdb8362360e11eafe2fa3bc74cf0ffd</title><path fill="none" stroke="#000" d="M81.0506,-215.8314C96.0771,-206.3409 114.6058,-194.6386 130.5453,-184.5716"/><polygon fill="#000" stroke="#000" points="132.51 -187.471 139.095 -179.172 128.772 -181.552 132.51 -187.471"/><g id="a_edge3-headlabel"><a target="_top" xlink:href="dir_000025_000027.xhtml" xlink:title="3"><text x="130.987" y="-189.291" fill="#000" font-family="Helvetica,sans-Serif" font-size="10" text-anchor="middle">3</text></a></g></g><g id="edge4" class="edge"><title>dir_9e71e2da941d3cafc4d98a9f6ae3de4f-&gt;dir_214608ef36d61442cb2b0c1c4e9a7def</title><path fill="none" stroke="#000" d="M58.4895,-215.7623C66.9208,-190.9846 82.0676,-146.4714 91.894,-117.5939"/><polygon fill="#000" stroke="#000" points="95.22 -118.684 95.128 -108.09 88.593 -116.429 95.22 -118.684"/><g id="a_edge4-headlabel"><a target="_top" xlink:href="dir_000025_000000.xhtml" xlink:title="14"><text x="96.75" y="-120.502" fill="#000" font-family="Helvetica,sans-Serif" font-size="10" text-anchor="middle">14</text></a></g></g><g id="edge5" class="edge"><title>dir_9e71e2da941d3cafc4d98a9f6ae3de4f-&gt;dir_5815af820a9cc9481f1d0990a0d60286</title><path fill="none" stroke="#000" d="M51.0942,-215.9179C49.4335,-185.8765 47.3455,-123.8544 54.2836,-72 55.4215,-63.4955 57.4485,-54.4101 59.6129,-46.1643"/><polygon fill="#000" stroke="#000" points="63.056 -46.848 62.371 -36.276 56.313 -44.967 63.056 -46.848"/><g id="a_edge5-headlabel"><a target="_top" xlink:href="dir_000025_000119.xhtml" xlink:title="7"><text x="64.825" y="-48.574" fill="#000" font-family="Helvetica,sans-Serif" font-size="10" text-anchor="middle">7</text></a></g></g><g id="edge10" class="edge"><title>dir_214608ef36d61442cb2b0c1c4e9a7def-&gt;dir_cbdb8362360e11eafe2fa3bc74cf0ffd</title><path fill="none" stroke="#000" d="M123.8827,-108.4133C132.2798,-116.8239 141.5829,-126.9323 149.4032,-136.0923"/><polygon fill="#000" stroke="#000" points="146.751 -138.377 155.834 -143.831 152.135 -133.903 146.751 -138.377"/><g id="a_edge10-headlabel"><a target="_top" xlink:href="dir_000000_000027.xhtml" xlink:title="1"><text x="142.27" y="-134.927" fill="#000" font-family="Helvetica,sans-Serif" font-size="10" text-anchor="middle">1</text></a></g></g><g id="edge11" class="edge"><title>dir_214608ef36d61442cb2b0c1c4e9a7def-&gt;dir_5815af820a9cc9481f1d0990a0d60286</title><path fill="none" stroke="#000" d="M92.9563,-71.8314C89.3106,-63.8771 84.9527,-54.369 80.9209,-45.5723"/><polygon fill="#000" stroke="#000" points="84.071 -44.046 76.723 -36.413 77.708 -46.962 84.071 -44.046"/><g id="a_edge11-headlabel"><a target="_top" xlink:href="dir_000000_000119.xhtml" xlink:title="20"><text x="88.15" y="-43.63" fill="#000" font-family="Helvetica,sans-Serif" font-size="10" text-anchor="middle">20</text></a></g></g></g></svg>