<svg xmlns="http://www.w3.org/2000/svg" xmlns:xlink="http://www.w3.org/1999/xlink" width="310pt" height="272" viewBox="0 0 310 204"><g id="graph0" class="graph" transform="scale(1 1) rotate(0) translate(4 200)"><title>src</title><polygon fill="#fff" stroke="transparent" points="-4 4 -4 -200 306 -200 306 4 -4 4"/><g id="clust1" class="cluster"><title>clusterdir_68267d1309a1af8e8297ef4c3efbcdba</title><g id="a_clust1"><a target="_top" xlink:href="dir_68267d1309a1af8e8297ef4c3efbcdba.xhtml"><polygon fill="#eef" stroke="#000" points="8 -136 8 -188 294 -188 294 -136 8 -136"/></a></g></g><g id="node1" class="node"><title>dir_68267d1309a1af8e8297ef4c3efbcdba</title><text x="259" y="-159.5" fill="#000" font-family="Helvetica,sans-Serif" font-size="10" text-anchor="middle">src</text></g><g id="node2" class="node"><title>dir_aebb8dcc11953d78e620bbef0b9e2183</title><g id="a_node2"><a target="_top" xlink:href="dir_aebb8dcc11953d78e620bbef0b9e2183.xhtml" xlink:title="core"><polygon fill="#fff" stroke="red" points="70 -180 16 -180 16 -144 70 -144 70 -180"/><text x="43" y="-159.5" fill="#000" font-family="Helvetica,sans-Serif" font-size="10" text-anchor="middle">core</text></a></g></g><g id="node5" class="node"><title>dir_214608ef36d61442cb2b0c1c4e9a7def</title><g id="a_node5"><a target="_top" xlink:href="dir_214608ef36d61442cb2b0c1c4e9a7def.xhtml" xlink:title="arm_compute"><polygon fill="#fff" stroke="red" points="134 -108 58 -108 58 -72 134 -72 134 -108"/><text x="96" y="-87.5" fill="#000" font-family="Helvetica,sans-Serif" font-size="10" text-anchor="middle">arm_compute</text></a></g></g><g id="edge4" class="edge"><title>dir_aebb8dcc11953d78e620bbef0b9e2183-&gt;dir_214608ef36d61442cb2b0c1c4e9a7def</title><path fill="none" stroke="#000" d="M56.3741,-143.8314C62.4162,-135.6232 69.6763,-125.7606 76.3221,-116.7323"/><polygon fill="#000" stroke="#000" points="79.336 -118.541 82.446 -108.413 73.699 -114.392 79.336 -118.541"/><g id="a_edge4-headlabel"><a target="_top" xlink:href="dir_000011_000000.xhtml" xlink:title="2379"><text x="79.492" y="-120.62" fill="#000" font-family="Helvetica,sans-Serif" font-size="10" text-anchor="middle">2379</text></a></g></g><g id="node6" class="node"><title>dir_5815af820a9cc9481f1d0990a0d60286</title><g id="a_node6"><a target="_top" xlink:href="dir_5815af820a9cc9481f1d0990a0d60286.xhtml" xlink:title="support"><polygon fill="none" stroke="#000" points="156 -36 102 -36 102 0 156 0 156 -36"/><text x="129" y="-15.5" fill="#000" font-family="Helvetica,sans-Serif" font-size="10" text-anchor="middle">support</text></a></g></g><g id="edge5" class="edge"><title>dir_aebb8dcc11953d78e620bbef0b9e2183-&gt;dir_5815af820a9cc9481f1d0990a0d60286</title><path fill="none" stroke="#000" d="M39.7629,-143.7581C37.3235,-124.5646 36.277,-94.1284 49,-72 58.7749,-54.9991 76.3317,-42.2568 92.5125,-33.4324"/><polygon fill="#000" stroke="#000" points="94.495 -36.35 101.811 -28.687 91.313 -30.115 94.495 -36.35"/><g id="a_edge5-headlabel"><a target="_top" xlink:href="dir_000011_000119.xhtml" xlink:title="49"><text x="92.584" y="-38.013" fill="#000" font-family="Helvetica,sans-Serif" font-size="10" text-anchor="middle">49</text></a></g></g><g id="node3" class="node"><title>dir_d182250f0c231765fc862e69db210731</title><g id="a_node3"><a target="_top" xlink:href="dir_d182250f0c231765fc862e69db210731.xhtml" xlink:title="graph"><polygon fill="#fff" stroke="red" points="142 -180 88 -180 88 -144 142 -144 142 -180"/><text x="115" y="-159.5" fill="#000" font-family="Helvetica,sans-Serif" font-size="10" text-anchor="middle">graph</text></a></g></g><g id="edge1" class="edge"><title>dir_d182250f0c231765fc862e69db210731-&gt;dir_214608ef36d61442cb2b0c1c4e9a7def</title><path fill="none" stroke="#000" d="M110.2055,-143.8314C108.1511,-136.0463 105.704,-126.7729 103.4244,-118.1347"/><polygon fill="#000" stroke="#000" points="106.795 -117.189 100.859 -108.413 100.026 -118.975 106.795 -117.189"/><g id="a_edge1-headlabel"><a target="_top" xlink:href="dir_000084_000000.xhtml" xlink:title="339"><text x="110.457" y="-117.44" fill="#000" font-family="Helvetica,sans-Serif" font-size="10" text-anchor="middle">339</text></a></g></g><g id="edge2" class="edge"><title>dir_d182250f0c231765fc862e69db210731-&gt;dir_5815af820a9cc9481f1d0990a0d60286</title><path fill="none" stroke="#000" d="M127.1817,-143.882C133.2315,-133.7891 139.8978,-120.7221 143,-108 148.0104,-87.4523 143.9638,-63.8084 138.9564,-45.9125"/><polygon fill="#000" stroke="#000" points="142.229 -44.646 135.958 -36.107 135.535 -46.693 142.229 -44.646"/><g id="a_edge2-headlabel"><a target="_top" xlink:href="dir_000084_000119.xhtml" xlink:title="5"><text x="145.995" y="-44.754" fill="#000" font-family="Helvetica,sans-Serif" font-size="10" text-anchor="middle">5</text></a></g></g><g id="node4" class="node"><title>dir_bf9f26469d00835ba20ff8d80ee5a804</title><g id="a_node4"><a target="_top" xlink:href="dir_bf9f26469d00835ba20ff8d80ee5a804.xhtml" xlink:title="runtime"><polygon fill="#fff" stroke="red" points="214 -180 160 -180 160 -144 214 -144 214 -180"/><text x="187" y="-159.5" fill="#000" font-family="Helvetica,sans-Serif" font-size="10" text-anchor="middle">runtime</text></a></g></g><g id="edge6" class="edge"><title>dir_bf9f26469d00835ba20ff8d80ee5a804-&gt;dir_214608ef36d61442cb2b0c1c4e9a7def</title><path fill="none" stroke="#000" d="M164.0369,-143.8314C152.8285,-134.9632 139.1791,-124.1637 127.0561,-114.5718"/><polygon fill="#000" stroke="#000" points="128.97 -111.623 118.956 -108.163 124.626 -117.112 128.97 -111.623"/><g id="a_edge6-headlabel"><a target="_top" xlink:href="dir_000085_000000.xhtml" xlink:title="1299"><text x="133.55" y="-109.127" fill="#000" font-family="Helvetica,sans-Serif" font-size="10" text-anchor="middle">1299</text></a></g></g><g id="edge7" class="edge"><title>dir_bf9f26469d00835ba20ff8d80ee5a804-&gt;dir_5815af820a9cc9481f1d0990a0d60286</title><path fill="none" stroke="#000" d="M182.1625,-143.7198C177.0407,-125.283 168.2834,-96.169 158,-72 154.1449,-62.9394 149.2879,-53.3739 144.657,-44.8521"/><polygon fill="#000" stroke="#000" points="147.701 -43.123 139.779 -36.088 141.584 -46.528 147.701 -43.123"/><g id="a_edge7-headlabel"><a target="_top" xlink:href="dir_000085_000119.xhtml" xlink:title="181"><text x="151.929" y="-42.383" fill="#000" font-family="Helvetica,sans-Serif" font-size="10" text-anchor="middle">181</text></a></g></g><g id="edge3" class="edge"><title>dir_214608ef36d61442cb2b0c1c4e9a7def-&gt;dir_5815af820a9cc9481f1d0990a0d60286</title><path fill="none" stroke="#000" d="M104.3273,-71.8314C107.973,-63.8771 112.3309,-54.369 116.3627,-45.5723"/><polygon fill="#000" stroke="#000" points="119.576 -46.962 120.561 -36.413 113.212 -44.046 119.576 -46.962"/><g id="a_edge3-headlabel"><a target="_top" xlink:href="dir_000000_000119.xhtml" xlink:title="20"><text x="120.659" y="-48.913" fill="#000" font-family="Helvetica,sans-Serif" font-size="10" text-anchor="middle">20</text></a></g></g></g></svg>