<svg xmlns="http://www.w3.org/2000/svg" xmlns:xlink="http://www.w3.org/1999/xlink" width="496pt" height="368" viewBox="0 0 496.2 276"><g id="graph0" class="graph" transform="scale(1 1) rotate(0) translate(4 272)"><title>tests</title><polygon fill="#fff" stroke="transparent" points="-4 4 -4 -272 492.196 -272 492.196 4 -4 4"/><g id="clust1" class="cluster"><title>clusterdir_59425e443f801f1f2fd8bbe4959a3ccf</title><g id="a_clust1"><a target="_top" xlink:href="dir_59425e443f801f1f2fd8bbe4959a3ccf.xhtml"><polygon fill="#eef" stroke="#000" points="8 -136 8 -260 346 -260 346 -136 8 -136"/></a></g></g><g id="node1" class="node"><title>dir_59425e443f801f1f2fd8bbe4959a3ccf</title><text x="311" y="-231.5" fill="#000" font-family="Helvetica,sans-Serif" font-size="10" text-anchor="middle">tests</text></g><g id="node2" class="node"><title>dir_4f2df8950dc650bf7cf9176fae02facc</title><g id="a_node2"><a target="_top" xlink:href="dir_4f2df8950dc650bf7cf9176fae02facc.xhtml" xlink:title="benchmark"><polygon fill="#fff" stroke="red" points="189.5 -252 124.5 -252 124.5 -216 189.5 -216 189.5 -252"/><text x="157" y="-231.5" fill="#000" font-family="Helvetica,sans-Serif" font-size="10" text-anchor="middle">benchmark</text></a></g></g><g id="node3" class="node"><title>dir_896191444cf08ec8ade6f88256cb2bdd</title><g id="a_node3"><a target="_top" xlink:href="dir_896191444cf08ec8ade6f88256cb2bdd.xhtml" xlink:title="CL"><polygon fill="#fff" stroke="#000" points="70 -180 16 -180 16 -144 70 -144 70 -180"/><text x="43" y="-159.5" fill="#000" font-family="Helvetica,sans-Serif" font-size="10" text-anchor="middle">CL</text></a></g></g><g id="edge23" class="edge"><title>dir_4f2df8950dc650bf7cf9176fae02facc-&gt;dir_896191444cf08ec8ade6f88256cb2bdd</title><path fill="none" stroke="#000" d="M128.233,-215.8314C113.2065,-206.3409 94.6777,-194.6386 78.7383,-184.5716"/><polygon fill="#000" stroke="#000" points="80.512 -181.552 70.188 -179.172 76.774 -187.471 80.512 -181.552"/><g id="a_edge23-headlabel"><a target="_top" xlink:href="dir_000098_000120.xhtml" xlink:title="52"><text x="85.067" y="-178.571" fill="#000" font-family="Helvetica,sans-Serif" font-size="10" text-anchor="middle">52</text></a></g></g><g id="node4" class="node"><title>dir_9e71e2da941d3cafc4d98a9f6ae3de4f</title><g id="a_node4"><a target="_top" xlink:href="dir_9e71e2da941d3cafc4d98a9f6ae3de4f.xhtml" xlink:title="framework"><polygon fill="#fff" stroke="red" points="150 -180 88 -180 88 -144 150 -144 150 -180"/><text x="119" y="-159.5" fill="#000" font-family="Helvetica,sans-Serif" font-size="10" text-anchor="middle">framework</text></a></g></g><g id="edge20" class="edge"><title>dir_4f2df8950dc650bf7cf9176fae02facc-&gt;dir_9e71e2da941d3cafc4d98a9f6ae3de4f</title><path fill="none" stroke="#000" d="M147.411,-215.8314C143.1683,-207.7925 138.0879,-198.1666 133.404,-189.2918"/><polygon fill="#000" stroke="#000" points="136.481 -187.624 128.718 -180.413 130.29 -190.891 136.481 -187.624"/><g id="a_edge20-headlabel"><a target="_top" xlink:href="dir_000098_000025.xhtml" xlink:title="206"><text x="140.67" y="-186.977" fill="#000" font-family="Helvetica,sans-Serif" font-size="10" text-anchor="middle">206</text></a></g></g><g id="node5" class="node"><title>dir_7365e77196b52ca311bb83f181e59b8c</title><g id="a_node5"><a target="_top" xlink:href="dir_7365e77196b52ca311bb83f181e59b8c.xhtml" xlink:title="GLES_COMPUTE"><polygon fill="#fff" stroke="#000" points="338 -180 240 -180 240 -144 338 -144 338 -180"/><text x="289" y="-159.5" fill="#000" font-family="Helvetica,sans-Serif" font-size="10" text-anchor="middle">GLES_COMPUTE</text></a></g></g><g id="edge21" class="edge"><title>dir_4f2df8950dc650bf7cf9176fae02facc-&gt;dir_7365e77196b52ca311bb83f181e59b8c</title><path fill="none" stroke="#000" d="M189.6292,-216.2022C206.9501,-206.7545 228.4323,-195.0369 246.9869,-184.9162"/><polygon fill="#000" stroke="#000" points="248.726 -187.954 255.829 -180.093 245.374 -181.809 248.726 -187.954"/><g id="a_edge21-headlabel"><a target="_top" xlink:href="dir_000098_000121.xhtml" xlink:title="12"><text x="246.93" y="-189.668" fill="#000" font-family="Helvetica,sans-Serif" font-size="10" text-anchor="middle">12</text></a></g></g><g id="node6" class="node"><title>dir_445738e6fed662d0b65e690e3f1e1de0</title><g id="a_node6"><a target="_top" xlink:href="dir_445738e6fed662d0b65e690e3f1e1de0.xhtml" xlink:title="NEON"><polygon fill="#fff" stroke="#000" points="222 -180 168 -180 168 -144 222 -144 222 -180"/><text x="195" y="-159.5" fill="#000" font-family="Helvetica,sans-Serif" font-size="10" text-anchor="middle">NEON</text></a></g></g><g id="edge19" class="edge"><title>dir_4f2df8950dc650bf7cf9176fae02facc-&gt;dir_445738e6fed662d0b65e690e3f1e1de0</title><path fill="none" stroke="#000" d="M166.589,-215.8314C170.8317,-207.7925 175.9121,-198.1666 180.596,-189.2918"/><polygon fill="#000" stroke="#000" points="183.71 -190.891 185.282 -180.413 177.519 -187.624 183.71 -190.891"/><g id="a_edge19-headlabel"><a target="_top" xlink:href="dir_000098_000122.xhtml" xlink:title="50"><text x="184.543" y="-192.895" fill="#000" font-family="Helvetica,sans-Serif" font-size="10" text-anchor="middle">50</text></a></g></g><g id="node8" class="node"><title>dir_cbdb8362360e11eafe2fa3bc74cf0ffd</title><g id="a_node8"><a target="_top" xlink:href="dir_cbdb8362360e11eafe2fa3bc74cf0ffd.xhtml" xlink:title="utils"><polygon fill="#fff" stroke="red" points="448 -180 394 -180 394 -144 448 -144 448 -180"/><text x="421" y="-159.5" fill="#000" font-family="Helvetica,sans-Serif" font-size="10" text-anchor="middle">utils</text></a></g></g><g id="edge18" class="edge"><title>dir_4f2df8950dc650bf7cf9176fae02facc-&gt;dir_cbdb8362360e11eafe2fa3bc74cf0ffd</title><path fill="none" stroke="#000" d="M189.771,-219.1878C192.8599,-218.025 195.9691,-216.9396 199,-216 277.342,-191.7134 301.7656,-204.631 380,-180 381.4367,-179.5477 382.8907,-179.0607 384.3513,-178.547"/><polygon fill="#000" stroke="#000" points="385.891 -181.705 393.97 -174.85 383.38 -175.171 385.891 -181.705"/><g id="a_edge18-headlabel"><a target="_top" xlink:href="dir_000098_000027.xhtml" xlink:title="104"><text x="383.554" y="-183.144" fill="#000" font-family="Helvetica,sans-Serif" font-size="10" text-anchor="middle">104</text></a></g></g><g id="node9" class="node"><title>dir_214608ef36d61442cb2b0c1c4e9a7def</title><g id="a_node9"><a target="_top" xlink:href="dir_214608ef36d61442cb2b0c1c4e9a7def.xhtml" xlink:title="arm_compute"><polygon fill="#fff" stroke="red" points="327 -108 251 -108 251 -72 327 -72 327 -108"/><text x="289" y="-87.5" fill="#000" font-family="Helvetica,sans-Serif" font-size="10" text-anchor="middle">arm_compute</text></a></g></g><g id="edge22" class="edge"><title>dir_4f2df8950dc650bf7cf9176fae02facc-&gt;dir_214608ef36d61442cb2b0c1c4e9a7def</title><path fill="none" stroke="#000" d="M189.8148,-219.3242C192.8946,-218.1328 195.9896,-217.0035 199,-216 263.2218,-194.5927 305.1695,-233.2252 347,-180 359.0838,-164.6246 355.5084,-153.6076 347,-136 343.1015,-127.9324 337.0247,-120.8472 330.2451,-114.8078"/><polygon fill="#000" stroke="#000" points="332.034 -111.754 322.052 -108.202 327.64 -117.204 332.034 -111.754"/><g id="a_edge22-headlabel"><a target="_top" xlink:href="dir_000098_000000.xhtml" xlink:title="452"><text x="336.614" y="-109.3" fill="#000" font-family="Helvetica,sans-Serif" font-size="10" text-anchor="middle">452</text></a></g></g><g id="edge24" class="edge"><title>dir_896191444cf08ec8ade6f88256cb2bdd-&gt;dir_214608ef36d61442cb2b0c1c4e9a7def</title><path fill="none" stroke="#000" d="M64.9864,-143.9918C69.431,-140.9782 74.2143,-138.1404 79,-136 131.517,-112.5118 196.926,-100.6318 240.6621,-94.8966"/><polygon fill="#000" stroke="#000" points="241.258 -98.349 250.745 -93.633 240.387 -91.404 241.258 -98.349"/><g id="a_edge24-headlabel"><a target="_top" xlink:href="dir_000120_000000.xhtml" xlink:title="5"><text x="238.044" y="-99.114" fill="#000" font-family="Helvetica,sans-Serif" font-size="10" text-anchor="middle">5</text></a></g></g><g id="node10" class="node"><title>dir_5815af820a9cc9481f1d0990a0d60286</title><g id="a_node10"><a target="_top" xlink:href="dir_5815af820a9cc9481f1d0990a0d60286.xhtml" xlink:title="support"><polygon fill="none" stroke="#000" points="283 -36 229 -36 229 0 283 0 283 -36"/><text x="256" y="-15.5" fill="#000" font-family="Helvetica,sans-Serif" font-size="10" text-anchor="middle">support</text></a></g></g><g id="edge25" class="edge"><title>dir_896191444cf08ec8ade6f88256cb2bdd-&gt;dir_5815af820a9cc9481f1d0990a0d60286</title><path fill="none" stroke="#000" d="M68.1723,-143.81C71.8045,-141.1882 75.4974,-138.5242 79,-136 118.5263,-107.5149 127.4322,-98.9811 168,-72 184.8749,-60.7767 204.009,-48.934 220.1153,-39.2082"/><polygon fill="#000" stroke="#000" points="221.948 -42.19 228.718 -34.04 218.344 -36.19 221.948 -42.19"/><g id="a_edge25-headlabel"><a target="_top" xlink:href="dir_000120_000119.xhtml" xlink:title="1"><text x="220.329" y="-43.975" fill="#000" font-family="Helvetica,sans-Serif" font-size="10" text-anchor="middle">1</text></a></g></g><g id="edge12" class="edge"><title>dir_9e71e2da941d3cafc4d98a9f6ae3de4f-&gt;dir_cbdb8362360e11eafe2fa3bc74cf0ffd</title><path fill="none" stroke="#000" d="M137.8675,-180.242C146.3677,-187.227 156.9662,-194.3825 168,-198 210.866,-212.0541 328.0669,-211.8479 371,-198 378.8736,-195.4604 386.5536,-191.1693 393.4382,-186.4169"/><polygon fill="#000" stroke="#000" points="395.776 -189.039 401.688 -180.248 391.584 -183.433 395.776 -189.039"/><g id="a_edge12-headlabel"><a target="_top" xlink:href="dir_000025_000027.xhtml" xlink:title="3"><text x="394.597" y="-190.966" fill="#000" font-family="Helvetica,sans-Serif" font-size="10" text-anchor="middle">3</text></a></g></g><g id="edge13" class="edge"><title>dir_9e71e2da941d3cafc4d98a9f6ae3de4f-&gt;dir_214608ef36d61442cb2b0c1c4e9a7def</title><path fill="none" stroke="#000" d="M145.1635,-143.75C149.6737,-140.968 154.3946,-138.2716 159,-136 185.2523,-123.0509 216.0827,-111.9779 241.1296,-103.9427"/><polygon fill="#000" stroke="#000" points="242.287 -107.248 250.774 -100.906 240.184 -100.571 242.287 -107.248"/><g id="a_edge13-headlabel"><a target="_top" xlink:href="dir_000025_000000.xhtml" xlink:title="14"><text x="239.711" y="-108.535" fill="#000" font-family="Helvetica,sans-Serif" font-size="10" text-anchor="middle">14</text></a></g></g><g id="edge14" class="edge"><title>dir_9e71e2da941d3cafc4d98a9f6ae3de4f-&gt;dir_5815af820a9cc9481f1d0990a0d60286</title><path fill="none" stroke="#000" d="M136.3511,-143.7623C160.542,-118.3354 204.5058,-72.1253 231.8758,-43.3569"/><polygon fill="#000" stroke="#000" points="234.433 -45.747 238.79 -36.09 229.361 -40.922 234.433 -45.747"/><g id="a_edge14-headlabel"><a target="_top" xlink:href="dir_000025_000119.xhtml" xlink:title="7"><text x="234.012" y="-47.808" fill="#000" font-family="Helvetica,sans-Serif" font-size="10" text-anchor="middle">7</text></a></g></g><g id="edge15" class="edge"><title>dir_7365e77196b52ca311bb83f181e59b8c-&gt;dir_214608ef36d61442cb2b0c1c4e9a7def</title><path fill="none" stroke="#000" d="M289,-143.8314C289,-136.131 289,-126.9743 289,-118.4166"/><polygon fill="#000" stroke="#000" points="292.5 -118.413 289 -108.413 285.5 -118.413 292.5 -118.413"/><g id="a_edge15-headlabel"><a target="_top" xlink:href="dir_000121_000000.xhtml" xlink:title="3"><text x="295.339" y="-119.508" fill="#000" font-family="Helvetica,sans-Serif" font-size="10" text-anchor="middle">3</text></a></g></g><g id="edge10" class="edge"><title>dir_445738e6fed662d0b65e690e3f1e1de0-&gt;dir_214608ef36d61442cb2b0c1c4e9a7def</title><path fill="none" stroke="#000" d="M218.7202,-143.8314C230.4094,-134.8779 244.6688,-123.9558 257.2809,-114.2955"/><polygon fill="#000" stroke="#000" points="259.477 -117.022 265.287 -108.163 255.22 -111.465 259.477 -117.022"/><g id="a_edge10-headlabel"><a target="_top" xlink:href="dir_000122_000000.xhtml" xlink:title="6"><text x="258.35" y="-118.962" fill="#000" font-family="Helvetica,sans-Serif" font-size="10" text-anchor="middle">6</text></a></g></g><g id="edge11" class="edge"><title>dir_445738e6fed662d0b65e690e3f1e1de0-&gt;dir_5815af820a9cc9481f1d0990a0d60286</title><path fill="none" stroke="#000" d="M202.7257,-143.7623C213.2218,-118.9846 232.0781,-74.4714 244.3109,-45.5939"/><polygon fill="#000" stroke="#000" points="247.659 -46.663 248.337 -36.09 241.214 -43.932 247.659 -46.663"/><g id="a_edge11-headlabel"><a target="_top" xlink:href="dir_000122_000119.xhtml" xlink:title="1"><text x="248.871" y="-48.58" fill="#000" font-family="Helvetica,sans-Serif" font-size="10" text-anchor="middle">1</text></a></g></g><g id="node7" class="node"><title>dir_e7c7b16542faa38cb4655ff1750d3604</title><g id="a_node7"><a target="_top" xlink:href="dir_e7c7b16542faa38cb4655ff1750d3604.xhtml" xlink:title="validation"><polygon fill="#fff" stroke="red" points="266 -252 208 -252 208 -216 266 -216 266 -252"/><text x="237" y="-231.5" fill="#000" font-family="Helvetica,sans-Serif" font-size="10" text-anchor="middle">validation</text></a></g></g><g id="edge6" class="edge"><title>dir_e7c7b16542faa38cb4655ff1750d3604-&gt;dir_896191444cf08ec8ade6f88256cb2bdd</title><path fill="none" stroke="#000" d="M207.7325,-219.6003C204.8076,-218.3234 201.8619,-217.0999 199,-216 149.867,-197.1173 132.6457,-200.1076 79.8316,-179.9882"/><polygon fill="#000" stroke="#000" points="80.883 -176.641 70.295 -176.256 78.332 -183.16 80.883 -176.641"/><g id="a_edge6-headlabel"><a target="_top" xlink:href="dir_000015_000120.xhtml" xlink:title="120"><text x="85.265" y="-172.807" fill="#000" font-family="Helvetica,sans-Serif" font-size="10" text-anchor="middle">120</text></a></g></g><g id="edge3" class="edge"><title>dir_e7c7b16542faa38cb4655ff1750d3604-&gt;dir_9e71e2da941d3cafc4d98a9f6ae3de4f</title><path fill="none" stroke="#000" d="M207.8315,-216.2022C192.6291,-206.9262 173.8409,-195.4623 157.4645,-185.4698"/><polygon fill="#000" stroke="#000" points="159.012 -182.314 148.653 -180.093 155.366 -188.29 159.012 -182.314"/><g id="a_edge3-headlabel"><a target="_top" xlink:href="dir_000015_000025.xhtml" xlink:title="607"><text x="163.559" y="-179.263" fill="#000" font-family="Helvetica,sans-Serif" font-size="10" text-anchor="middle">607</text></a></g></g><g id="edge4" class="edge"><title>dir_e7c7b16542faa38cb4655ff1750d3604-&gt;dir_7365e77196b52ca311bb83f181e59b8c</title><path fill="none" stroke="#000" d="M250.1218,-215.8314C256.0499,-207.6232 263.1729,-197.7606 269.6933,-188.7323"/><polygon fill="#000" stroke="#000" points="272.684 -190.569 275.702 -180.413 267.009 -186.471 272.684 -190.569"/><g id="a_edge4-headlabel"><a target="_top" xlink:href="dir_000015_000121.xhtml" xlink:title="21"><text x="272.881" y="-192.646" fill="#000" font-family="Helvetica,sans-Serif" font-size="10" text-anchor="middle">21</text></a></g></g><g id="edge2" class="edge"><title>dir_e7c7b16542faa38cb4655ff1750d3604-&gt;dir_445738e6fed662d0b65e690e3f1e1de0</title><path fill="none" stroke="#000" d="M226.4016,-215.8314C221.7123,-207.7925 216.0972,-198.1666 210.9202,-189.2918"/><polygon fill="#000" stroke="#000" points="213.803 -187.287 205.741 -180.413 207.757 -190.815 213.803 -187.287"/><g id="a_edge2-headlabel"><a target="_top" xlink:href="dir_000015_000122.xhtml" xlink:title="100"><text x="218.067" y="-186.462" fill="#000" font-family="Helvetica,sans-Serif" font-size="10" text-anchor="middle">100</text></a></g></g><g id="edge1" class="edge"><title>dir_e7c7b16542faa38cb4655ff1750d3604-&gt;dir_cbdb8362360e11eafe2fa3bc74cf0ffd</title><path fill="none" stroke="#000" d="M266.3134,-219.7163C269.2291,-218.4159 272.16,-217.1552 275,-216 320.6973,-197.4114 334.0408,-197.9313 380,-180 381.4032,-179.4525 382.8288,-178.8849 384.2654,-178.3031"/><polygon fill="#000" stroke="#000" points="385.908 -181.41 393.785 -174.326 383.209 -174.951 385.908 -181.41"/><g id="a_edge1-headlabel"><a target="_top" xlink:href="dir_000015_000027.xhtml" xlink:title="8"><text x="383.685" y="-182.916" fill="#000" font-family="Helvetica,sans-Serif" font-size="10" text-anchor="middle">8</text></a></g></g><g id="edge5" class="edge"><title>dir_e7c7b16542faa38cb4655ff1750d3604-&gt;dir_214608ef36d61442cb2b0c1c4e9a7def</title><path fill="none" stroke="#000" d="M266.1636,-219.3092C269.1096,-218.0912 272.0885,-216.961 275,-216 353.3006,-190.1538 404.6564,-243.7115 457,-180 469.414,-164.89 468.8623,-151.5469 457,-136 442.4497,-116.9301 381.4167,-103.8302 337.0992,-96.6244"/><polygon fill="#000" stroke="#000" points="337.5 -93.144 327.077 -95.048 336.412 -100.059 337.5 -93.144"/><g id="a_edge5-headlabel"><a target="_top" xlink:href="dir_000015_000000.xhtml" xlink:title="875"><text x="341.492" y="-88.398" fill="#000" font-family="Helvetica,sans-Serif" font-size="10" text-anchor="middle">875</text></a></g></g><g id="edge7" class="edge"><title>dir_e7c7b16542faa38cb4655ff1750d3604-&gt;dir_5815af820a9cc9481f1d0990a0d60286</title><path fill="none" stroke="#000" d="M266.1465,-219.2567C269.096,-218.0493 272.0804,-216.936 275,-216 361.0059,-188.4278 417.0683,-249.2904 475,-180 535.3123,-107.8622 369.8424,-50.0597 292.9195,-27.8382"/><polygon fill="#000" stroke="#000" points="293.698 -24.421 283.122 -25.062 291.789 -31.156 293.698 -24.421"/><g id="a_edge7-headlabel"><a target="_top" xlink:href="dir_000015_000119.xhtml" xlink:title="11"><text x="297.93" y="-20.169" fill="#000" font-family="Helvetica,sans-Serif" font-size="10" text-anchor="middle">11</text></a></g></g><g id="edge8" class="edge"><title>dir_cbdb8362360e11eafe2fa3bc74cf0ffd-&gt;dir_214608ef36d61442cb2b0c1c4e9a7def</title><path fill="none" stroke="#000" d="M393.5815,-149.4401C386.188,-145.041 378.3288,-140.1631 371,-136 357.118,-128.1144 341.723,-120.0758 327.9974,-112.9707"/><polygon fill="#000" stroke="#000" points="329.291 -109.699 318.801 -108.214 326.075 -115.917 329.291 -109.699"/><g id="a_edge8-headlabel"><a target="_top" xlink:href="dir_000027_000000.xhtml" xlink:title="36"><text x="333.788" y="-106.329" fill="#000" font-family="Helvetica,sans-Serif" font-size="10" text-anchor="middle">36</text></a></g></g><g id="edge9" class="edge"><title>dir_cbdb8362360e11eafe2fa3bc74cf0ffd-&gt;dir_5815af820a9cc9481f1d0990a0d60286</title><path fill="none" stroke="#000" d="M406.0709,-143.9731C389.864,-124.9592 362.7068,-94.6714 336,-72 322.3531,-60.4151 306.1649,-49.0955 291.9327,-39.8372"/><polygon fill="#000" stroke="#000" points="293.674 -36.796 283.364 -34.355 289.901 -42.693 293.674 -36.796"/><g id="a_edge9-headlabel"><a target="_top" xlink:href="dir_000027_000119.xhtml" xlink:title="3"><text x="298.232" y="-33.842" fill="#000" font-family="Helvetica,sans-Serif" font-size="10" text-anchor="middle">3</text></a></g></g><g id="edge16" class="edge"><title>dir_214608ef36d61442cb2b0c1c4e9a7def-&gt;dir_cbdb8362360e11eafe2fa3bc74cf0ffd</title><path fill="none" stroke="#000" d="M327.1549,-104.4028C346.1921,-113.1286 369.1439,-124.7208 389,-136 390.3283,-136.7546 391.6741,-137.5326 393.025,-138.327"/><polygon fill="#000" stroke="#000" points="391.524 -141.511 401.884 -143.732 395.17 -135.536 391.524 -141.511"/><g id="a_edge16-headlabel"><a target="_top" xlink:href="dir_000000_000027.xhtml" xlink:title="1"><text x="386.977" y="-139.563" fill="#000" font-family="Helvetica,sans-Serif" font-size="10" text-anchor="middle">1</text></a></g></g><g id="edge17" class="edge"><title>dir_214608ef36d61442cb2b0c1c4e9a7def-&gt;dir_5815af820a9cc9481f1d0990a0d60286</title><path fill="none" stroke="#000" d="M280.6727,-71.8314C277.027,-63.8771 272.6691,-54.369 268.6373,-45.5723"/><polygon fill="#000" stroke="#000" points="271.788 -44.046 264.439 -36.413 265.424 -46.962 271.788 -44.046"/><g id="a_edge17-headlabel"><a target="_top" xlink:href="dir_000000_000119.xhtml" xlink:title="20"><text x="275.866" y="-43.63" fill="#000" font-family="Helvetica,sans-Serif" font-size="10" text-anchor="middle">20</text></a></g></g></g></svg>