<svg xmlns="http://www.w3.org/2000/svg" xmlns:xlink="http://www.w3.org/1999/xlink" width="154pt" height="308" viewBox="0 0 154 231"><g id="graph0" class="graph" transform="scale(1 1) rotate(0) translate(4 227)"><title>arm_compute/runtime/GLES_COMPUTE</title><polygon fill="#fff" stroke="transparent" points="-4 4 -4 -227 150 -227 150 4 -4 4"/><g id="clust1" class="cluster"><title>clusterdir_8bc26130589aa16388b5a02f17abf2c2</title><g id="a_clust1"><a target="_top" xlink:href="dir_8bc26130589aa16388b5a02f17abf2c2.xhtml" xlink:title="runtime"><polygon fill="#dde" stroke="#000" points="8 -56 8 -215 138 -215 138 -56 8 -56"/><text x="73" y="-203" fill="#000" font-family="Helvetica,sans-Serif" font-size="10" text-anchor="middle">runtime</text></a></g></g><g id="clust2" class="cluster"><title>clusterdir_e83fa7cb9796f3ad7be03e3d9fcd3249</title><g id="a_clust2"><a target="_top" xlink:href="dir_e83fa7cb9796f3ad7be03e3d9fcd3249.xhtml"><polygon fill="#eef" stroke="#000" points="16 -64 16 -188 130 -188 130 -64 16 -64"/></a></g></g><g id="node1" class="node"><title>dir_e83fa7cb9796f3ad7be03e3d9fcd3249</title><text x="73" y="-159.5" fill="#000" font-family="Helvetica,sans-Serif" font-size="10" text-anchor="middle">GLES_COMPUTE</text></g><g id="node2" class="node"><title>dir_b2d75812ef27339cb07aa08923a4a042</title><g id="a_node2"><a target="_top" xlink:href="dir_b2d75812ef27339cb07aa08923a4a042.xhtml" xlink:title="functions"><polygon fill="#fff" stroke="#000" points="101 -108 45 -108 45 -72 101 -72 101 -108"/><text x="73" y="-87.5" fill="#000" font-family="Helvetica,sans-Serif" font-size="10" text-anchor="middle">functions</text></a></g></g><g id="edge1" class="edge"><title>dir_e83fa7cb9796f3ad7be03e3d9fcd3249-&gt;dir_b2d75812ef27339cb07aa08923a4a042</title><path fill="none" stroke="#000" d="M73,-143.8314C73,-136.131 73,-126.9743 73,-118.4166"/><polygon fill="#000" stroke="#000" points="76.5 -118.413 73 -108.413 69.5 -118.413 76.5 -118.413"/><g id="a_edge1-headlabel"><a target="_top" xlink:href="dir_000047_000048.xhtml" xlink:title="22"><text x="79.339" y="-119.508" fill="#000" font-family="Helvetica,sans-Serif" font-size="10" text-anchor="middle">22</text></a></g></g><g id="node3" class="node"><title>dir_1fb090f0c6070330bfaccc4236d3ca0d</title><g id="a_node3"><a target="_top" xlink:href="dir_1fb090f0c6070330bfaccc4236d3ca0d.xhtml" xlink:title="core"><polygon fill="#fff" stroke="red" points="100 -36 46 -36 46 0 100 0 100 -36"/><text x="73" y="-15.5" fill="#000" font-family="Helvetica,sans-Serif" font-size="10" text-anchor="middle">core</text></a></g></g><g id="edge2" class="edge"><title>dir_b2d75812ef27339cb07aa08923a4a042-&gt;dir_1fb090f0c6070330bfaccc4236d3ca0d</title><path fill="none" stroke="#000" d="M73,-71.8314C73,-64.131 73,-54.9743 73,-46.4166"/><polygon fill="#000" stroke="#000" points="76.5 -46.413 73 -36.413 69.5 -46.413 76.5 -46.413"/><g id="a_edge2-headlabel"><a target="_top" xlink:href="dir_000048_000001.xhtml" xlink:title="50"><text x="79.339" y="-47.508" fill="#000" font-family="Helvetica,sans-Serif" font-size="10" text-anchor="middle">50</text></a></g></g></g></svg>