<svg xmlns="http://www.w3.org/2000/svg" xmlns:xlink="http://www.w3.org/1999/xlink" width="184pt" height="308" viewBox="0 0 184 231"><g id="graph0" class="graph" transform="scale(1 1) rotate(0) translate(4 227)"><title>src/runtime/CPP</title><polygon fill="#fff" stroke="transparent" points="-4 4 -4 -227 180 -227 180 4 -4 4"/><g id="clust1" class="cluster"><title>clusterdir_bf9f26469d00835ba20ff8d80ee5a804</title><g id="a_clust1"><a target="_top" xlink:href="dir_bf9f26469d00835ba20ff8d80ee5a804.xhtml" xlink:title="runtime"><polygon fill="#dde" stroke="#000" points="8 -128 8 -215 168 -215 168 -128 8 -128"/><text x="88" y="-203" fill="#000" font-family="Helvetica,sans-Serif" font-size="10" text-anchor="middle">runtime</text></a></g></g><g id="clust2" class="cluster"><title>clusterdir_9240672d44dfdb0f539b385a1f058d2d</title><g id="a_clust2"><a target="_top" xlink:href="dir_9240672d44dfdb0f539b385a1f058d2d.xhtml"><polygon fill="#eef" stroke="#000" points="16 -136 16 -188 160 -188 160 -136 16 -136"/></a></g></g><g id="node1" class="node"><title>dir_9240672d44dfdb0f539b385a1f058d2d</title><text x="51" y="-159.5" fill="#000" font-family="Helvetica,sans-Serif" font-size="10" text-anchor="middle">CPP</text></g><g id="node3" class="node"><title>dir_214608ef36d61442cb2b0c1c4e9a7def</title><g id="a_node3"><a target="_top" xlink:href="dir_214608ef36d61442cb2b0c1c4e9a7def.xhtml" xlink:title="arm_compute"><polygon fill="#fff" stroke="red" points="96 -108 20 -108 20 -72 96 -72 96 -108"/><text x="58" y="-87.5" fill="#000" font-family="Helvetica,sans-Serif" font-size="10" text-anchor="middle">arm_compute</text></a></g></g><g id="edge4" class="edge"><title>dir_9240672d44dfdb0f539b385a1f058d2d-&gt;dir_214608ef36d61442cb2b0c1c4e9a7def</title><path fill="none" stroke="#000" d="M52.7664,-143.8314C53.515,-136.131 54.4053,-126.9743 55.2373,-118.4166"/><polygon fill="#000" stroke="#000" points="58.726 -118.705 56.21 -108.413 51.758 -118.028 58.726 -118.705"/><g id="a_edge4-headlabel"><a target="_top" xlink:href="dir_000109_000000.xhtml" xlink:title="18"><text x="61.204" y="-120.058" fill="#000" font-family="Helvetica,sans-Serif" font-size="10" text-anchor="middle">18</text></a></g></g><g id="node2" class="node"><title>dir_8f7fe1d9d655d949f37b90c9cd0a7992</title><g id="a_node2"><a target="_top" xlink:href="dir_8f7fe1d9d655d949f37b90c9cd0a7992.xhtml" xlink:title="functions"><polygon fill="#fff" stroke="#000" points="152 -180 96 -180 96 -144 152 -144 152 -180"/><text x="124" y="-159.5" fill="#000" font-family="Helvetica,sans-Serif" font-size="10" text-anchor="middle">functions</text></a></g></g><g id="edge1" class="edge"><title>dir_8f7fe1d9d655d949f37b90c9cd0a7992-&gt;dir_214608ef36d61442cb2b0c1c4e9a7def</title><path fill="none" stroke="#000" d="M107.3454,-143.8314C99.5886,-135.3694 90.2198,-125.1489 81.739,-115.8971"/><polygon fill="#000" stroke="#000" points="84.216 -113.42 74.879 -108.413 79.056 -118.15 84.216 -113.42"/><g id="a_edge1-headlabel"><a target="_top" xlink:href="dir_000110_000000.xhtml" xlink:title="6"><text x="88.738" y="-111.651" fill="#000" font-family="Helvetica,sans-Serif" font-size="10" text-anchor="middle">6</text></a></g></g><g id="node4" class="node"><title>dir_5815af820a9cc9481f1d0990a0d60286</title><g id="a_node4"><a target="_top" xlink:href="dir_5815af820a9cc9481f1d0990a0d60286.xhtml" xlink:title="support"><polygon fill="none" stroke="#000" points="118 -36 64 -36 64 0 118 0 118 -36"/><text x="91" y="-15.5" fill="#000" font-family="Helvetica,sans-Serif" font-size="10" text-anchor="middle">support</text></a></g></g><g id="edge2" class="edge"><title>dir_8f7fe1d9d655d949f37b90c9cd0a7992-&gt;dir_5815af820a9cc9481f1d0990a0d60286</title><path fill="none" stroke="#000" d="M120.3861,-143.6742C116.7323,-125.4495 110.81,-96.7177 105,-72 103.0367,-63.6474 100.7555,-54.6087 98.6117,-46.3591"/><polygon fill="#000" stroke="#000" points="101.932 -45.224 96.004 -36.443 95.162 -47.004 101.932 -45.224"/><g id="a_edge2-headlabel"><a target="_top" xlink:href="dir_000110_000119.xhtml" xlink:title="3"><text x="105.592" y="-45.478" fill="#000" font-family="Helvetica,sans-Serif" font-size="10" text-anchor="middle">3</text></a></g></g><g id="edge3" class="edge"><title>dir_214608ef36d61442cb2b0c1c4e9a7def-&gt;dir_5815af820a9cc9481f1d0990a0d60286</title><path fill="none" stroke="#000" d="M66.3273,-71.8314C69.973,-63.8771 74.3309,-54.369 78.3627,-45.5723"/><polygon fill="#000" stroke="#000" points="81.576 -46.962 82.561 -36.413 75.212 -44.046 81.576 -46.962"/><g id="a_edge3-headlabel"><a target="_top" xlink:href="dir_000000_000119.xhtml" xlink:title="20"><text x="82.659" y="-48.913" fill="#000" font-family="Helvetica,sans-Serif" font-size="10" text-anchor="middle">20</text></a></g></g></g></svg>