<svg xmlns="http://www.w3.org/2000/svg" xmlns:xlink="http://www.w3.org/1999/xlink" width="304" height="404" viewBox="0 0 228 303"><g id="graph0" class="graph" transform="scale(1 1) rotate(0) translate(4 299)"><title>arm_compute/runtime/CL</title><polygon fill="#fff" stroke="transparent" points="-4 4 -4 -299 224 -299 224 4 -4 4"/><g id="clust1" class="cluster"><title>clusterdir_8bc26130589aa16388b5a02f17abf2c2</title><g id="a_clust1"><a target="_top" xlink:href="dir_8bc26130589aa16388b5a02f17abf2c2.xhtml" xlink:title="runtime"><polygon fill="#dde" stroke="#000" points="54 -128 54 -287 212 -287 212 -128 54 -128"/><text x="133" y="-275" fill="#000" font-family="Helvetica,sans-Serif" font-size="10" text-anchor="middle">runtime</text></a></g></g><g id="clust2" class="cluster"><title>clusterdir_b986aa98f9b6490bb4fc7918500346fb</title><g id="a_clust2"><a target="_top" xlink:href="dir_b986aa98f9b6490bb4fc7918500346fb.xhtml"><polygon fill="#eef" stroke="#000" points="62 -136 62 -260 204 -260 204 -136 62 -136"/></a></g></g><g id="node1" class="node"><title>dir_b986aa98f9b6490bb4fc7918500346fb</title><text x="169" y="-231.5" fill="#000" font-family="Helvetica,sans-Serif" font-size="10" text-anchor="middle">CL</text></g><g id="node2" class="node"><title>dir_251c63bc3f70b60acf43edd6d870a3ef</title><g id="a_node2"><a target="_top" xlink:href="dir_251c63bc3f70b60acf43edd6d870a3ef.xhtml" xlink:title="functions"><polygon fill="#fff" stroke="#000" points="133 -180 77 -180 77 -144 133 -144 133 -180"/><text x="105" y="-159.5" fill="#000" font-family="Helvetica,sans-Serif" font-size="10" text-anchor="middle">functions</text></a></g></g><g id="edge6" class="edge"><title>dir_b986aa98f9b6490bb4fc7918500346fb-&gt;dir_251c63bc3f70b60acf43edd6d870a3ef</title><path fill="none" stroke="#000" d="M152.8501,-215.8314C145.3283,-207.3694 136.2435,-197.1489 128.0196,-187.8971"/><polygon fill="#000" stroke="#000" points="130.627 -185.562 121.367 -180.413 125.395 -190.213 130.627 -185.562"/><g id="a_edge6-headlabel"><a target="_top" xlink:href="dir_000041_000042.xhtml" xlink:title="109"><text x="135.137" y="-183.862" fill="#000" font-family="Helvetica,sans-Serif" font-size="10" text-anchor="middle">109</text></a></g></g><g id="node5" class="node"><title>dir_1fb090f0c6070330bfaccc4236d3ca0d</title><g id="a_node5"><a target="_top" xlink:href="dir_1fb090f0c6070330bfaccc4236d3ca0d.xhtml" xlink:title="core"><polygon fill="#fff" stroke="red" points="136 -36 82 -36 82 0 136 0 136 -36"/><text x="109" y="-15.5" fill="#000" font-family="Helvetica,sans-Serif" font-size="10" text-anchor="middle">core</text></a></g></g><g id="edge7" class="edge"><title>dir_b986aa98f9b6490bb4fc7918500346fb-&gt;dir_1fb090f0c6070330bfaccc4236d3ca0d</title><path fill="none" stroke="#000" d="M174.4143,-215.9347C182.683,-184.8496 195.2875,-119.966 173,-72 166.8381,-58.7387 155.638,-47.5619 144.3101,-38.8788"/><polygon fill="#000" stroke="#000" points="146.277 -35.982 136.109 -33.003 142.2 -41.672 146.277 -35.982"/><g id="a_edge7-headlabel"><a target="_top" xlink:href="dir_000041_000001.xhtml" xlink:title="243"><text x="150.852" y="-33.268" fill="#000" font-family="Helvetica,sans-Serif" font-size="10" text-anchor="middle">243</text></a></g></g><g id="node4" class="node"><title>dir_b496024afd63bafbf4e8da80d7d3a81a</title><g id="a_node4"><a target="_top" xlink:href="dir_b496024afd63bafbf4e8da80d7d3a81a.xhtml" xlink:title="CPP"><polygon fill="#fff" stroke="red" points="54 -108 0 -108 0 -72 54 -72 54 -108"/><text x="27" y="-87.5" fill="#000" font-family="Helvetica,sans-Serif" font-size="10" text-anchor="middle">CPP</text></a></g></g><g id="edge1" class="edge"><title>dir_251c63bc3f70b60acf43edd6d870a3ef-&gt;dir_b496024afd63bafbf4e8da80d7d3a81a</title><path fill="none" stroke="#000" d="M85.3173,-143.8314C75.8949,-135.1337 64.4599,-124.5783 54.2204,-115.1265"/><polygon fill="#000" stroke="#000" points="56.398 -112.374 46.676 -108.163 51.651 -117.517 56.398 -112.374"/><g id="a_edge1-headlabel"><a target="_top" xlink:href="dir_000042_000045.xhtml" xlink:title="1"><text x="60.966" y="-110.226" fill="#000" font-family="Helvetica,sans-Serif" font-size="10" text-anchor="middle">1</text></a></g></g><g id="edge2" class="edge"><title>dir_251c63bc3f70b60acf43edd6d870a3ef-&gt;dir_1fb090f0c6070330bfaccc4236d3ca0d</title><path fill="none" stroke="#000" d="M102.9254,-143.7101C101.1584,-125.5127 99.1729,-96.8011 101,-72 101.6169,-63.6264 102.7649,-54.5812 104.0026,-46.3322"/><polygon fill="#000" stroke="#000" points="107.465 -46.846 105.585 -36.42 100.552 -45.743 107.465 -46.846"/><g id="a_edge2-headlabel"><a target="_top" xlink:href="dir_000042_000001.xhtml" xlink:title="204"><text x="109.702" y="-48.344" fill="#000" font-family="Helvetica,sans-Serif" font-size="10" text-anchor="middle">204</text></a></g></g><g id="node6" class="node"><title>dir_b9621ae687ab229876c54f8c2df20e15</title><g id="a_node6"><a target="_top" xlink:href="dir_b9621ae687ab229876c54f8c2df20e15.xhtml" xlink:title="common"><polygon fill="none" stroke="#000" points="164 -108 110 -108 110 -72 164 -72 164 -108"/><text x="137" y="-87.5" fill="#000" font-family="Helvetica,sans-Serif" font-size="10" text-anchor="middle">common</text></a></g></g><g id="edge3" class="edge"><title>dir_251c63bc3f70b60acf43edd6d870a3ef-&gt;dir_b9621ae687ab229876c54f8c2df20e15</title><path fill="none" stroke="#000" d="M113.075,-143.8314C116.6102,-135.8771 120.836,-126.369 124.7456,-117.5723"/><polygon fill="#000" stroke="#000" points="127.953 -118.973 128.816 -108.413 121.556 -116.13 127.953 -118.973"/><g id="a_edge3-headlabel"><a target="_top" xlink:href="dir_000042_000044.xhtml" xlink:title="1"><text x="129.088" y="-120.911" fill="#000" font-family="Helvetica,sans-Serif" font-size="10" text-anchor="middle">1</text></a></g></g><g id="node3" class="node"><title>dir_50b23570393db6a4ca8647d7d5ff6dbe</title><g id="a_node3"><a target="_top" xlink:href="dir_50b23570393db6a4ca8647d7d5ff6dbe.xhtml" xlink:title="tuners"><polygon fill="#fff" stroke="#000" points="124 -252 70 -252 70 -216 124 -216 124 -252"/><text x="97" y="-231.5" fill="#000" font-family="Helvetica,sans-Serif" font-size="10" text-anchor="middle">tuners</text></a></g></g><g id="edge4" class="edge"><title>dir_b496024afd63bafbf4e8da80d7d3a81a-&gt;dir_1fb090f0c6070330bfaccc4236d3ca0d</title><path fill="none" stroke="#000" d="M47.6921,-71.8314C57.6948,-63.0485 69.855,-52.3712 80.6999,-42.8489"/><polygon fill="#000" stroke="#000" points="83.109 -45.391 88.315 -36.163 78.491 -40.131 83.109 -45.391"/><g id="a_edge4-headlabel"><a target="_top" xlink:href="dir_000045_000001.xhtml" xlink:title="4"><text x="82.282" y="-47.396" fill="#000" font-family="Helvetica,sans-Serif" font-size="10" text-anchor="middle">4</text></a></g></g><g id="edge5" class="edge"><title>dir_b9621ae687ab229876c54f8c2df20e15-&gt;dir_1fb090f0c6070330bfaccc4236d3ca0d</title><path fill="none" stroke="#000" d="M129.9344,-71.8314C126.874,-63.9617 123.2221,-54.5712 119.8318,-45.8533"/><polygon fill="#000" stroke="#000" points="123.047 -44.465 116.161 -36.413 116.523 -47.002 123.047 -44.465"/><g id="a_edge5-headlabel"><a target="_top" xlink:href="dir_000044_000001.xhtml" xlink:title="3"><text x="126.996" y="-44.286" fill="#000" font-family="Helvetica,sans-Serif" font-size="10" text-anchor="middle">3</text></a></g></g></g></svg>