<svg xmlns="http://www.w3.org/2000/svg" xmlns:xlink="http://www.w3.org/1999/xlink" width="202pt" height="308" viewBox="0 0 202 231"><g id="graph0" class="graph" transform="scale(1 1) rotate(0) translate(4 227)"><title>src/core/NEON</title><polygon fill="#fff" stroke="transparent" points="-4 4 -4 -227 198 -227 198 4 -4 4"/><g id="clust1" class="cluster"><title>clusterdir_aebb8dcc11953d78e620bbef0b9e2183</title><g id="a_clust1"><a target="_top" xlink:href="dir_aebb8dcc11953d78e620bbef0b9e2183.xhtml" xlink:title="core"><polygon fill="#dde" stroke="#000" points="28 -128 28 -215 186 -215 186 -128 28 -128"/><text x="107" y="-203" fill="#000" font-family="Helvetica,sans-Serif" font-size="10" text-anchor="middle">core</text></a></g></g><g id="clust2" class="cluster"><title>clusterdir_d91e1966cc57df4f49d1e07be7697713</title><g id="a_clust2"><a target="_top" xlink:href="dir_d91e1966cc57df4f49d1e07be7697713.xhtml"><polygon fill="#eef" stroke="#000" points="36 -136 36 -188 178 -188 178 -136 36 -136"/></a></g></g><g id="node1" class="node"><title>dir_d91e1966cc57df4f49d1e07be7697713</title><text x="143" y="-159.5" fill="#000" font-family="Helvetica,sans-Serif" font-size="10" text-anchor="middle">NEON</text></g><g id="node2" class="node"><title>dir_1ce938f580a6f304b99685e2c1dd19db</title><g id="a_node2"><a target="_top" xlink:href="dir_1ce938f580a6f304b99685e2c1dd19db.xhtml" xlink:title="kernels"><polygon fill="#fff" stroke="red" points="98 -180 44 -180 44 -144 98 -144 98 -180"/><text x="71" y="-159.5" fill="#000" font-family="Helvetica,sans-Serif" font-size="10" text-anchor="middle">kernels</text></a></g></g><g id="node3" class="node"><title>dir_214608ef36d61442cb2b0c1c4e9a7def</title><g id="a_node3"><a target="_top" xlink:href="dir_214608ef36d61442cb2b0c1c4e9a7def.xhtml" xlink:title="arm_compute"><polygon fill="#fff" stroke="red" points="76 -108 0 -108 0 -72 76 -72 76 -108"/><text x="38" y="-87.5" fill="#000" font-family="Helvetica,sans-Serif" font-size="10" text-anchor="middle">arm_compute</text></a></g></g><g id="edge2" class="edge"><title>dir_1ce938f580a6f304b99685e2c1dd19db-&gt;dir_214608ef36d61442cb2b0c1c4e9a7def</title><path fill="none" stroke="#000" d="M62.6727,-143.8314C59.027,-135.8771 54.6691,-126.369 50.6373,-117.5723"/><polygon fill="#000" stroke="#000" points="53.788 -116.046 46.439 -108.413 47.424 -118.962 53.788 -116.046"/><g id="a_edge2-headlabel"><a target="_top" xlink:href="dir_000063_000000.xhtml" xlink:title="816"><text x="57.867" y="-115.63" fill="#000" font-family="Helvetica,sans-Serif" font-size="10" text-anchor="middle">816</text></a></g></g><g id="node4" class="node"><title>dir_5815af820a9cc9481f1d0990a0d60286</title><g id="a_node4"><a target="_top" xlink:href="dir_5815af820a9cc9481f1d0990a0d60286.xhtml" xlink:title="support"><polygon fill="none" stroke="#000" points="98 -36 44 -36 44 0 98 0 98 -36"/><text x="71" y="-15.5" fill="#000" font-family="Helvetica,sans-Serif" font-size="10" text-anchor="middle">support</text></a></g></g><g id="edge3" class="edge"><title>dir_1ce938f580a6f304b99685e2c1dd19db-&gt;dir_5815af820a9cc9481f1d0990a0d60286</title><path fill="none" stroke="#000" d="M76.9698,-143.7319C80.0408,-133.3756 83.4563,-120.105 85,-108 87.024,-92.1285 87.024,-87.8715 85,-72 83.9146,-63.4887 81.9038,-54.4011 79.738,-46.1555"/><polygon fill="#000" stroke="#000" points="83.036 -44.954 76.97 -36.268 76.296 -46.841 83.036 -44.954"/><g id="a_edge3-headlabel"><a target="_top" xlink:href="dir_000063_000119.xhtml" xlink:title="4"><text x="86.74" y="-45.15" fill="#000" font-family="Helvetica,sans-Serif" font-size="10" text-anchor="middle">4</text></a></g></g><g id="edge1" class="edge"><title>dir_214608ef36d61442cb2b0c1c4e9a7def-&gt;dir_5815af820a9cc9481f1d0990a0d60286</title><path fill="none" stroke="#000" d="M46.3273,-71.8314C49.973,-63.8771 54.3309,-54.369 58.3627,-45.5723"/><polygon fill="#000" stroke="#000" points="61.576 -46.962 62.561 -36.413 55.212 -44.046 61.576 -46.962"/><g id="a_edge1-headlabel"><a target="_top" xlink:href="dir_000000_000119.xhtml" xlink:title="20"><text x="62.659" y="-48.913" fill="#000" font-family="Helvetica,sans-Serif" font-size="10" text-anchor="middle">20</text></a></g></g></g></svg>