<svg xmlns="http://www.w3.org/2000/svg" xmlns:xlink="http://www.w3.org/1999/xlink" width="170pt" height="464" viewBox="0 0 170 348"><g id="graph0" class="graph" transform="scale(1 1) rotate(0) translate(4 344)"><title>arm_compute</title><polygon fill="#fff" stroke="transparent" points="-4 4 -4 -344 166 -344 166 4 -4 4"/><g id="clust1" class="cluster"><title>clusterdir_214608ef36d61442cb2b0c1c4e9a7def</title><g id="a_clust1"><a target="_top" xlink:href="dir_214608ef36d61442cb2b0c1c4e9a7def.xhtml"><polygon fill="#eef" stroke="#000" points="8 -64 8 -332 100 -332 100 -64 8 -64"/></a></g></g><g id="node1" class="node"><title>dir_214608ef36d61442cb2b0c1c4e9a7def</title><text x="54" y="-303.5" fill="#000" font-family="Helvetica,sans-Serif" font-size="10" text-anchor="middle">arm_compute</text></g><g id="node3" class="node"><title>dir_99ae3712d1eecd2a93fc4d38b59a99ba</title><g id="a_node3"><a target="_top" xlink:href="dir_99ae3712d1eecd2a93fc4d38b59a99ba.xhtml" xlink:title="graph"><polygon fill="#fff" stroke="red" points="81 -252 27 -252 27 -216 81 -216 81 -252"/><text x="54" y="-231.5" fill="#000" font-family="Helvetica,sans-Serif" font-size="10" text-anchor="middle">graph</text></a></g></g><g id="edge12" class="edge"><title>dir_214608ef36d61442cb2b0c1c4e9a7def-&gt;dir_99ae3712d1eecd2a93fc4d38b59a99ba</title><path fill="none" stroke="#000" d="M54,-287.8314C54,-280.131 54,-270.9743 54,-262.4166"/><polygon fill="#000" stroke="#000" points="57.5 -262.413 54 -252.413 50.5 -262.413 57.5 -262.413"/><g id="a_edge12-headlabel"><a target="_top" xlink:href="dir_000000_000021.xhtml" xlink:title="25"><text x="60.339" y="-263.508" fill="#000" font-family="Helvetica,sans-Serif" font-size="10" text-anchor="middle">25</text></a></g></g><g id="node2" class="node"><title>dir_1fb090f0c6070330bfaccc4236d3ca0d</title><g id="a_node2"><a target="_top" xlink:href="dir_1fb090f0c6070330bfaccc4236d3ca0d.xhtml" xlink:title="core"><polygon fill="#fff" stroke="red" points="92 -108 38 -108 38 -72 92 -72 92 -108"/><text x="65" y="-87.5" fill="#000" font-family="Helvetica,sans-Serif" font-size="10" text-anchor="middle">core</text></a></g></g><g id="node6" class="node"><title>dir_5815af820a9cc9481f1d0990a0d60286</title><g id="a_node6"><a target="_top" xlink:href="dir_5815af820a9cc9481f1d0990a0d60286.xhtml" xlink:title="support"><polygon fill="none" stroke="#000" points="64 -36 10 -36 10 0 64 0 64 -36"/><text x="37" y="-15.5" fill="#000" font-family="Helvetica,sans-Serif" font-size="10" text-anchor="middle">support</text></a></g></g><g id="edge11" class="edge"><title>dir_1fb090f0c6070330bfaccc4236d3ca0d-&gt;dir_5815af820a9cc9481f1d0990a0d60286</title><path fill="none" stroke="#000" d="M57.9344,-71.8314C54.874,-63.9617 51.2221,-54.5712 47.8318,-45.8533"/><polygon fill="#000" stroke="#000" points="51.047 -44.465 44.161 -36.413 44.523 -47.002 51.047 -44.465"/><g id="a_edge11-headlabel"><a target="_top" xlink:href="dir_000001_000119.xhtml" xlink:title="13"><text x="54.996" y="-44.286" fill="#000" font-family="Helvetica,sans-Serif" font-size="10" text-anchor="middle">13</text></a></g></g><g id="edge3" class="edge"><title>dir_99ae3712d1eecd2a93fc4d38b59a99ba-&gt;dir_1fb090f0c6070330bfaccc4236d3ca0d</title><path fill="none" stroke="#000" d="M42.335,-215.6674C32.2318,-197.4376 20.3491,-168.702 28,-144 31.0445,-134.1704 36.5641,-124.5387 42.4271,-116.1946"/><polygon fill="#000" stroke="#000" points="45.366 -118.109 48.572 -108.011 39.769 -113.906 45.366 -118.109"/><g id="a_edge3-headlabel"><a target="_top" xlink:href="dir_000021_000001.xhtml" xlink:title="21"><text x="45.478" y="-120.189" fill="#000" font-family="Helvetica,sans-Serif" font-size="10" text-anchor="middle">21</text></a></g></g><g id="node4" class="node"><title>dir_8bc26130589aa16388b5a02f17abf2c2</title><g id="a_node4"><a target="_top" xlink:href="dir_8bc26130589aa16388b5a02f17abf2c2.xhtml" xlink:title="runtime"><polygon fill="#fff" stroke="red" points="91 -180 37 -180 37 -144 91 -144 91 -180"/><text x="64" y="-159.5" fill="#000" font-family="Helvetica,sans-Serif" font-size="10" text-anchor="middle">runtime</text></a></g></g><g id="edge2" class="edge"><title>dir_99ae3712d1eecd2a93fc4d38b59a99ba-&gt;dir_8bc26130589aa16388b5a02f17abf2c2</title><path fill="none" stroke="#000" d="M56.5234,-215.8314C57.5929,-208.131 58.8647,-198.9743 60.0532,-190.4166"/><polygon fill="#000" stroke="#000" points="63.534 -190.8 61.443 -180.413 56.6 -189.837 63.534 -190.8"/><g id="a_edge2-headlabel"><a target="_top" xlink:href="dir_000021_000023.xhtml" xlink:title="18"><text x="65.851" y="-192.251" fill="#000" font-family="Helvetica,sans-Serif" font-size="10" text-anchor="middle">18</text></a></g></g><g id="node5" class="node"><title>dir_cbdb8362360e11eafe2fa3bc74cf0ffd</title><g id="a_node5"><a target="_top" xlink:href="dir_cbdb8362360e11eafe2fa3bc74cf0ffd.xhtml" xlink:title="utils"><polygon fill="#fff" stroke="red" points="162 -252 108 -252 108 -216 162 -216 162 -252"/><text x="135" y="-231.5" fill="#000" font-family="Helvetica,sans-Serif" font-size="10" text-anchor="middle">utils</text></a></g></g><g id="edge1" class="edge"><title>dir_99ae3712d1eecd2a93fc4d38b59a99ba-&gt;dir_cbdb8362360e11eafe2fa3bc74cf0ffd</title><path fill="none" stroke="#000" d="M81.2109,-234C86.5885,-234 91.9661,-234 97.3437,-234"/><polygon fill="#000" stroke="#000" points="97.685 -237.5 107.685 -234 97.685 -230.5 97.685 -237.5"/><g id="a_edge1-headlabel"><a target="_top" xlink:href="dir_000021_000027.xhtml" xlink:title="1"><text x="94.091" y="-237.839" fill="#000" font-family="Helvetica,sans-Serif" font-size="10" text-anchor="middle">1</text></a></g></g><g id="edge4" class="edge"><title>dir_99ae3712d1eecd2a93fc4d38b59a99ba-&gt;dir_5815af820a9cc9481f1d0990a0d60286</title><path fill="none" stroke="#000" d="M39.3248,-215.7088C32.2954,-205.772 24.6305,-192.9031 21,-180 7.0362,-130.3715 12.4115,-114.8351 21,-64 22.0107,-58.018 23.7116,-51.7758 25.6366,-45.889"/><polygon fill="#000" stroke="#000" points="28.949 -47.021 29.005 -36.426 22.354 -44.673 28.949 -47.021"/><g id="a_edge4-headlabel"><a target="_top" xlink:href="dir_000021_000119.xhtml" xlink:title="3"><text x="30.418" y="-48.86" fill="#000" font-family="Helvetica,sans-Serif" font-size="10" text-anchor="middle">3</text></a></g></g><g id="edge9" class="edge"><title>dir_8bc26130589aa16388b5a02f17abf2c2-&gt;dir_1fb090f0c6070330bfaccc4236d3ca0d</title><path fill="none" stroke="#000" d="M64.2523,-143.8314C64.3593,-136.131 64.4865,-126.9743 64.6053,-118.4166"/><polygon fill="#000" stroke="#000" points="68.105 -118.461 64.744 -108.413 61.106 -118.364 68.105 -118.461"/><g id="a_edge9-headlabel"><a target="_top" xlink:href="dir_000023_000001.xhtml" xlink:title="517"><text x="70.894" y="-119.595" fill="#000" font-family="Helvetica,sans-Serif" font-size="10" text-anchor="middle">517</text></a></g></g><g id="edge10" class="edge"><title>dir_8bc26130589aa16388b5a02f17abf2c2-&gt;dir_5815af820a9cc9481f1d0990a0d60286</title><path fill="none" stroke="#000" d="M48.4475,-143.8462C40.9954,-133.947 32.8653,-121.0702 29,-108 23.05,-87.8805 25.501,-64.2174 29.1988,-46.2055"/><polygon fill="#000" stroke="#000" points="32.641 -46.852 31.466 -36.323 25.819 -45.287 32.641 -46.852"/><g id="a_edge10-headlabel"><a target="_top" xlink:href="dir_000023_000119.xhtml" xlink:title="4"><text x="34.605" y="-48.491" fill="#000" font-family="Helvetica,sans-Serif" font-size="10" text-anchor="middle">4</text></a></g></g><g id="edge7" class="edge"><title>dir_cbdb8362360e11eafe2fa3bc74cf0ffd-&gt;dir_1fb090f0c6070330bfaccc4236d3ca0d</title><path fill="none" stroke="#000" d="M129.1974,-215.9436C122.9691,-197.4305 112.2958,-168.0283 100,-144 95.3162,-134.8471 89.4767,-125.2962 83.9178,-116.8164"/><polygon fill="#000" stroke="#000" points="86.766 -114.78 78.287 -108.429 80.955 -118.682 86.766 -114.78"/><g id="a_edge7-headlabel"><a target="_top" xlink:href="dir_000027_000001.xhtml" xlink:title="25"><text x="91.127" y="-113.682" fill="#000" font-family="Helvetica,sans-Serif" font-size="10" text-anchor="middle">25</text></a></g></g><g id="edge5" class="edge"><title>dir_cbdb8362360e11eafe2fa3bc74cf0ffd-&gt;dir_99ae3712d1eecd2a93fc4d38b59a99ba</title><path fill="none" stroke="#000" d="M107.6852,-234C102.3076,-234 96.9301,-234 91.5525,-234"/><polygon fill="#000" stroke="#000" points="91.211 -230.5 81.211 -234 91.211 -237.5 91.211 -230.5"/><g id="a_edge5-headlabel"><a target="_top" xlink:href="dir_000027_000021.xhtml" xlink:title="8"><text x="94.806" y="-225.161" fill="#000" font-family="Helvetica,sans-Serif" font-size="10" text-anchor="middle">8</text></a></g></g><g id="edge6" class="edge"><title>dir_cbdb8362360e11eafe2fa3bc74cf0ffd-&gt;dir_8bc26130589aa16388b5a02f17abf2c2</title><path fill="none" stroke="#000" d="M117.0837,-215.8314C108.6558,-207.2848 98.459,-196.9443 89.264,-187.6198"/><polygon fill="#000" stroke="#000" points="91.671 -185.076 82.157 -180.413 86.687 -189.991 91.671 -185.076"/><g id="a_edge6-headlabel"><a target="_top" xlink:href="dir_000027_000023.xhtml" xlink:title="3"><text x="96.217" y="-183.142" fill="#000" font-family="Helvetica,sans-Serif" font-size="10" text-anchor="middle">3</text></a></g></g><g id="edge8" class="edge"><title>dir_cbdb8362360e11eafe2fa3bc74cf0ffd-&gt;dir_5815af820a9cc9481f1d0990a0d60286</title><path fill="none" stroke="#000" d="M136.1783,-215.8999C137.4276,-182.8223 135.8451,-111.6373 104,-64 96.2517,-52.4093 84.5029,-42.913 72.9962,-35.6211"/><polygon fill="#000" stroke="#000" points="74.702 -32.563 64.314 -30.476 71.133 -38.586 74.702 -32.563"/><g id="a_edge8-headlabel"><a target="_top" xlink:href="dir_000027_000119.xhtml" xlink:title="3"><text x="79.242" y="-29.453" fill="#000" font-family="Helvetica,sans-Serif" font-size="10" text-anchor="middle">3</text></a></g></g></g></svg>