<svg xmlns="http://www.w3.org/2000/svg" xmlns:xlink="http://www.w3.org/1999/xlink" width="332pt" height="308" viewBox="0 0 332 231"><g id="graph0" class="graph" transform="scale(1 1) rotate(0) translate(4 227)"><title>src/graph/backends</title><polygon fill="#fff" stroke="transparent" points="-4 4 -4 -227 328 -227 328 4 -4 4"/><g id="clust1" class="cluster"><title>clusterdir_d182250f0c231765fc862e69db210731</title><g id="a_clust1"><a target="_top" xlink:href="dir_d182250f0c231765fc862e69db210731.xhtml" xlink:title="graph"><polygon fill="#dde" stroke="#000" points="8 -128 8 -215 316 -215 316 -128 8 -128"/><text x="162" y="-203" fill="#000" font-family="Helvetica,sans-Serif" font-size="10" text-anchor="middle">graph</text></a></g></g><g id="clust2" class="cluster"><title>clusterdir_39e772dac1f6529f21fb52deefa146ea</title><g id="a_clust2"><a target="_top" xlink:href="dir_39e772dac1f6529f21fb52deefa146ea.xhtml"><polygon fill="#eef" stroke="#000" points="16 -136 16 -188 308 -188 308 -136 16 -136"/></a></g></g><g id="node1" class="node"><title>dir_39e772dac1f6529f21fb52deefa146ea</title><text x="126" y="-159.5" fill="#000" font-family="Helvetica,sans-Serif" font-size="10" text-anchor="middle">backends</text></g><g id="node5" class="node"><title>dir_214608ef36d61442cb2b0c1c4e9a7def</title><g id="a_node5"><a target="_top" xlink:href="dir_214608ef36d61442cb2b0c1c4e9a7def.xhtml" xlink:title="arm_compute"><polygon fill="#fff" stroke="red" points="173 -108 97 -108 97 -72 173 -72 173 -108"/><text x="135" y="-87.5" fill="#000" font-family="Helvetica,sans-Serif" font-size="10" text-anchor="middle">arm_compute</text></a></g></g><g id="edge6" class="edge"><title>dir_39e772dac1f6529f21fb52deefa146ea-&gt;dir_214608ef36d61442cb2b0c1c4e9a7def</title><path fill="none" stroke="#000" d="M128.2711,-143.8314C129.2336,-136.131 130.3782,-126.9743 131.4479,-118.4166"/><polygon fill="#000" stroke="#000" points="134.931 -118.77 132.698 -108.413 127.985 -117.902 134.931 -118.77"/><g id="a_edge6-headlabel"><a target="_top" xlink:href="dir_000090_000000.xhtml" xlink:title="102"><text x="137.303" y="-120.189" fill="#000" font-family="Helvetica,sans-Serif" font-size="10" text-anchor="middle">102</text></a></g></g><g id="node2" class="node"><title>dir_10a8ee34f3d0df8ebfa752c7937ca169</title><g id="a_node2"><a target="_top" xlink:href="dir_10a8ee34f3d0df8ebfa752c7937ca169.xhtml" xlink:title="CL"><polygon fill="#fff" stroke="#000" points="78 -180 24 -180 24 -144 78 -144 78 -180"/><text x="51" y="-159.5" fill="#000" font-family="Helvetica,sans-Serif" font-size="10" text-anchor="middle">CL</text></a></g></g><g id="edge3" class="edge"><title>dir_10a8ee34f3d0df8ebfa752c7937ca169-&gt;dir_214608ef36d61442cb2b0c1c4e9a7def</title><path fill="none" stroke="#000" d="M70.3777,-143.7675C75.9968,-138.5972 82.1858,-133.0131 88,-128 93.0066,-123.6833 98.3955,-119.1898 103.6752,-114.868"/><polygon fill="#000" stroke="#000" points="106.25 -117.286 111.811 -108.268 101.84 -111.85 106.25 -117.286"/><g id="a_edge3-headlabel"><a target="_top" xlink:href="dir_000091_000000.xhtml" xlink:title="33"><text x="105.247" y="-119.255" fill="#000" font-family="Helvetica,sans-Serif" font-size="10" text-anchor="middle">33</text></a></g></g><g id="node6" class="node"><title>dir_5815af820a9cc9481f1d0990a0d60286</title><g id="a_node6"><a target="_top" xlink:href="dir_5815af820a9cc9481f1d0990a0d60286.xhtml" xlink:title="support"><polygon fill="none" stroke="#000" points="195 -36 141 -36 141 0 195 0 195 -36"/><text x="168" y="-15.5" fill="#000" font-family="Helvetica,sans-Serif" font-size="10" text-anchor="middle">support</text></a></g></g><g id="edge4" class="edge"><title>dir_10a8ee34f3d0df8ebfa752c7937ca169-&gt;dir_5815af820a9cc9481f1d0990a0d60286</title><path fill="none" stroke="#000" d="M55.1216,-143.8068C60.2388,-124.3758 70.5024,-93.4815 88,-72 99.9428,-57.3381 116.9024,-45.1092 132.135,-36.0174"/><polygon fill="#000" stroke="#000" points="133.91 -39.035 140.853 -31.032 130.435 -32.958 133.91 -39.035"/><g id="a_edge4-headlabel"><a target="_top" xlink:href="dir_000091_000119.xhtml" xlink:title="1"><text x="132.198" y="-40.784" fill="#000" font-family="Helvetica,sans-Serif" font-size="10" text-anchor="middle">1</text></a></g></g><g id="node3" class="node"><title>dir_63622b7b1e2297c4b4fb2c5afb0cb755</title><g id="a_node3"><a target="_top" xlink:href="dir_63622b7b1e2297c4b4fb2c5afb0cb755.xhtml" xlink:title="GLES"><polygon fill="#fff" stroke="#000" points="228 -180 174 -180 174 -144 228 -144 228 -180"/><text x="201" y="-159.5" fill="#000" font-family="Helvetica,sans-Serif" font-size="10" text-anchor="middle">GLES</text></a></g></g><g id="edge7" class="edge"><title>dir_63622b7b1e2297c4b4fb2c5afb0cb755-&gt;dir_214608ef36d61442cb2b0c1c4e9a7def</title><path fill="none" stroke="#000" d="M184.3454,-143.8314C176.5886,-135.3694 167.2198,-125.1489 158.739,-115.8971"/><polygon fill="#000" stroke="#000" points="161.216 -113.42 151.879 -108.413 156.056 -118.15 161.216 -113.42"/><g id="a_edge7-headlabel"><a target="_top" xlink:href="dir_000092_000000.xhtml" xlink:title="30"><text x="165.738" y="-111.651" fill="#000" font-family="Helvetica,sans-Serif" font-size="10" text-anchor="middle">30</text></a></g></g><g id="edge8" class="edge"><title>dir_63622b7b1e2297c4b4fb2c5afb0cb755-&gt;dir_5815af820a9cc9481f1d0990a0d60286</title><path fill="none" stroke="#000" d="M197.3861,-143.6742C193.7323,-125.4495 187.81,-96.7177 182,-72 180.0367,-63.6474 177.7555,-54.6087 175.6117,-46.3591"/><polygon fill="#000" stroke="#000" points="178.932 -45.224 173.004 -36.443 172.162 -47.004 178.932 -45.224"/><g id="a_edge8-headlabel"><a target="_top" xlink:href="dir_000092_000119.xhtml" xlink:title="1"><text x="182.592" y="-45.478" fill="#000" font-family="Helvetica,sans-Serif" font-size="10" text-anchor="middle">1</text></a></g></g><g id="node4" class="node"><title>dir_a0f71818ea2c5c08950cb56389fab822</title><g id="a_node4"><a target="_top" xlink:href="dir_a0f71818ea2c5c08950cb56389fab822.xhtml" xlink:title="NEON"><polygon fill="#fff" stroke="#000" points="300 -180 246 -180 246 -144 300 -144 300 -180"/><text x="273" y="-159.5" fill="#000" font-family="Helvetica,sans-Serif" font-size="10" text-anchor="middle">NEON</text></a></g></g><g id="edge1" class="edge"><title>dir_a0f71818ea2c5c08950cb56389fab822-&gt;dir_214608ef36d61442cb2b0c1c4e9a7def</title><path fill="none" stroke="#000" d="M256.6016,-143.8683C250.8208,-138.2324 244.0067,-132.3609 237,-128 220.3497,-117.6369 200.4361,-109.431 182.6414,-103.3363"/><polygon fill="#000" stroke="#000" points="183.601 -99.967 173.008 -100.167 181.413 -106.617 183.601 -99.967"/><g id="a_edge1-headlabel"><a target="_top" xlink:href="dir_000093_000000.xhtml" xlink:title="38"><text x="187.902" y="-95.894" fill="#000" font-family="Helvetica,sans-Serif" font-size="10" text-anchor="middle">38</text></a></g></g><g id="edge2" class="edge"><title>dir_a0f71818ea2c5c08950cb56389fab822-&gt;dir_5815af820a9cc9481f1d0990a0d60286</title><path fill="none" stroke="#000" d="M259.7017,-143.7623C241.3979,-118.66 208.3242,-73.3017 187.2989,-44.4671"/><polygon fill="#000" stroke="#000" points="189.91 -42.108 181.19 -36.09 184.254 -46.232 189.91 -42.108"/><g id="a_edge2-headlabel"><a target="_top" xlink:href="dir_000093_000119.xhtml" xlink:title="2"><text x="194.322" y="-40.839" fill="#000" font-family="Helvetica,sans-Serif" font-size="10" text-anchor="middle">2</text></a></g></g><g id="edge5" class="edge"><title>dir_214608ef36d61442cb2b0c1c4e9a7def-&gt;dir_5815af820a9cc9481f1d0990a0d60286</title><path fill="none" stroke="#000" d="M143.3273,-71.8314C146.973,-63.8771 151.3309,-54.369 155.3627,-45.5723"/><polygon fill="#000" stroke="#000" points="158.576 -46.962 159.561 -36.413 152.212 -44.046 158.576 -46.962"/><g id="a_edge5-headlabel"><a target="_top" xlink:href="dir_000000_000119.xhtml" xlink:title="20"><text x="159.659" y="-48.913" fill="#000" font-family="Helvetica,sans-Serif" font-size="10" text-anchor="middle">20</text></a></g></g></g></svg>