<svg xmlns="http://www.w3.org/2000/svg" xmlns:xlink="http://www.w3.org/1999/xlink" width="196pt" height="404" viewBox="0 0 196 303"><g id="graph0" class="graph" transform="scale(1 1) rotate(0) translate(4 299)"><title>arm_compute/core/NEON</title><polygon fill="#fff" stroke="transparent" points="-4 4 -4 -299 192 -299 192 4 -4 4"/><g id="clust1" class="cluster"><title>clusterdir_1fb090f0c6070330bfaccc4236d3ca0d</title><g id="a_clust1"><a target="_top" xlink:href="dir_1fb090f0c6070330bfaccc4236d3ca0d.xhtml" xlink:title="core"><polygon fill="#dde" stroke="#000" points="8 -56 8 -287 94 -287 94 -56 8 -56"/><text x="51" y="-275" fill="#000" font-family="Helvetica,sans-Serif" font-size="10" text-anchor="middle">core</text></a></g></g><g id="clust2" class="cluster"><title>clusterdir_315f6cf1ec0b2df3ae747ff8286a19f5</title><g id="a_clust2"><a target="_top" xlink:href="dir_315f6cf1ec0b2df3ae747ff8286a19f5.xhtml"><polygon fill="#eef" stroke="#000" points="16 -64 16 -260 86 -260 86 -64 16 -64"/></a></g></g><g id="node1" class="node"><title>dir_315f6cf1ec0b2df3ae747ff8286a19f5</title><text x="51" y="-231.5" fill="#000" font-family="Helvetica,sans-Serif" font-size="10" text-anchor="middle">NEON</text></g><g id="node2" class="node"><title>dir_2c3c4cb85e732569e2614ad40a451d53</title><g id="a_node2"><a target="_top" xlink:href="dir_2c3c4cb85e732569e2614ad40a451d53.xhtml" xlink:title="kernels"><polygon fill="#fff" stroke="red" points="78 -180 24 -180 24 -144 78 -144 78 -180"/><text x="51" y="-159.5" fill="#000" font-family="Helvetica,sans-Serif" font-size="10" text-anchor="middle">kernels</text></a></g></g><g id="edge4" class="edge"><title>dir_315f6cf1ec0b2df3ae747ff8286a19f5-&gt;dir_2c3c4cb85e732569e2614ad40a451d53</title><path fill="none" stroke="#000" d="M51,-215.8314C51,-208.131 51,-198.9743 51,-190.4166"/><polygon fill="#000" stroke="#000" points="54.5 -190.413 51 -180.413 47.5 -190.413 54.5 -190.413"/><g id="a_edge4-headlabel"><a target="_top" xlink:href="dir_000016_000017.xhtml" xlink:title="96"><text x="57.339" y="-191.508" fill="#000" font-family="Helvetica,sans-Serif" font-size="10" text-anchor="middle">96</text></a></g></g><g id="node3" class="node"><title>dir_9eca3c725728e372597fcd0d17c1ea0f</title><g id="a_node3"><a target="_top" xlink:href="dir_9eca3c725728e372597fcd0d17c1ea0f.xhtml" xlink:title="wrapper"><polygon fill="#fff" stroke="red" points="78 -108 24 -108 24 -72 78 -72 78 -108"/><text x="51" y="-87.5" fill="#000" font-family="Helvetica,sans-Serif" font-size="10" text-anchor="middle">wrapper</text></a></g></g><g id="edge3" class="edge"><title>dir_2c3c4cb85e732569e2614ad40a451d53-&gt;dir_9eca3c725728e372597fcd0d17c1ea0f</title><path fill="none" stroke="#000" d="M51,-143.8314C51,-136.131 51,-126.9743 51,-118.4166"/><polygon fill="#000" stroke="#000" points="54.5 -118.413 51 -108.413 47.5 -118.413 54.5 -118.413"/><g id="a_edge3-headlabel"><a target="_top" xlink:href="dir_000017_000019.xhtml" xlink:title="1"><text x="57.339" y="-119.508" fill="#000" font-family="Helvetica,sans-Serif" font-size="10" text-anchor="middle">1</text></a></g></g><g id="node4" class="node"><title>dir_5815af820a9cc9481f1d0990a0d60286</title><g id="a_node4"><a target="_top" xlink:href="dir_5815af820a9cc9481f1d0990a0d60286.xhtml" xlink:title="support"><polygon fill="none" stroke="#000" points="160 -36 106 -36 106 0 160 0 160 -36"/><text x="133" y="-15.5" fill="#000" font-family="Helvetica,sans-Serif" font-size="10" text-anchor="middle">support</text></a></g></g><g id="edge1" class="edge"><title>dir_2c3c4cb85e732569e2614ad40a451d53-&gt;dir_5815af820a9cc9481f1d0990a0d60286</title><path fill="none" stroke="#000" d="M63.8672,-143.842C70.9868,-133.5201 79.82,-120.2474 87,-108 98.9808,-87.5637 111.1178,-63.6531 119.9145,-45.6156"/><polygon fill="#000" stroke="#000" points="123.237 -46.785 124.436 -36.258 116.934 -43.74 123.237 -46.785"/><g id="a_edge1-headlabel"><a target="_top" xlink:href="dir_000017_000119.xhtml" xlink:title="5"><text x="124.229" y="-48.757" fill="#000" font-family="Helvetica,sans-Serif" font-size="10" text-anchor="middle">5</text></a></g></g><g id="node5" class="node"><title>dir_7484b841a86f2d7fdd057c9b24fbf230</title><g id="a_node5"><a target="_top" xlink:href="dir_7484b841a86f2d7fdd057c9b24fbf230.xhtml" xlink:title="CPP"><polygon fill="#fff" stroke="red" points="188 -108 134 -108 134 -72 188 -72 188 -108"/><text x="161" y="-87.5" fill="#000" font-family="Helvetica,sans-Serif" font-size="10" text-anchor="middle">CPP</text></a></g></g><g id="edge2" class="edge"><title>dir_2c3c4cb85e732569e2614ad40a451d53-&gt;dir_7484b841a86f2d7fdd057c9b24fbf230</title><path fill="none" stroke="#000" d="M78.191,-144.2022C92.3378,-134.9425 109.8157,-123.5025 125.063,-113.5224"/><polygon fill="#000" stroke="#000" points="127.29 -116.248 133.741 -107.843 123.457 -110.391 127.29 -116.248"/><g id="a_edge2-headlabel"><a target="_top" xlink:href="dir_000017_000004.xhtml" xlink:title="2"><text x="125.838" y="-118.092" fill="#000" font-family="Helvetica,sans-Serif" font-size="10" text-anchor="middle">2</text></a></g></g><g id="edge5" class="edge"><title>dir_7484b841a86f2d7fdd057c9b24fbf230-&gt;dir_5815af820a9cc9481f1d0990a0d60286</title><path fill="none" stroke="#000" d="M153.9344,-71.8314C150.874,-63.9617 147.2221,-54.5712 143.8318,-45.8533"/><polygon fill="#000" stroke="#000" points="147.047 -44.465 140.161 -36.413 140.523 -47.002 147.047 -44.465"/><g id="a_edge5-headlabel"><a target="_top" xlink:href="dir_000004_000119.xhtml" xlink:title="1"><text x="150.996" y="-44.286" fill="#000" font-family="Helvetica,sans-Serif" font-size="10" text-anchor="middle">1</text></a></g></g></g></svg>