<svg xmlns="http://www.w3.org/2000/svg" xmlns:xlink="http://www.w3.org/1999/xlink" width="94pt" height="151pt" viewBox="0 0 94 151"><g id="graph0" class="graph" transform="scale(1 1) rotate(0) translate(4 147)"><title>arm_compute/core/NEON/kernels/detail</title><polygon fill="#fff" stroke="transparent" points="-4 4 -4 -147 90 -147 90 4 -4 4"/><g id="clust1" class="cluster"><title>clusterdir_2c3c4cb85e732569e2614ad40a451d53</title><g id="a_clust1"><a target="_top" xlink:href="dir_2c3c4cb85e732569e2614ad40a451d53.xhtml" xlink:title="kernels"><polygon fill="#dde" stroke="#000" points="8 -64 8 -135 78 -135 78 -64 8 -64"/><text x="43" y="-123" fill="#000" font-family="Helvetica,sans-Serif" font-size="10" text-anchor="middle">kernels</text></a></g></g><g id="node1" class="node"><title>dir_6b58bd0be07bddcf3022ab9b026cbf38</title><g id="a_node1"><a target="_top" xlink:href="dir_6b58bd0be07bddcf3022ab9b026cbf38.xhtml" xlink:title="detail"><polygon fill="#eef" stroke="#000" points="70 -108 16 -108 16 -72 70 -72 70 -108"/><text x="43" y="-87.5" fill="#000" font-family="Helvetica,sans-Serif" font-size="10" text-anchor="middle">detail</text></a></g></g><g id="node2" class="node"><title>dir_9eca3c725728e372597fcd0d17c1ea0f</title><g id="a_node2"><a target="_top" xlink:href="dir_9eca3c725728e372597fcd0d17c1ea0f.xhtml" xlink:title="wrapper"><polygon fill="#fff" stroke="red" points="70 -36 16 -36 16 0 70 0 70 -36"/><text x="43" y="-15.5" fill="#000" font-family="Helvetica,sans-Serif" font-size="10" text-anchor="middle">wrapper</text></a></g></g><g id="edge1" class="edge"><title>dir_6b58bd0be07bddcf3022ab9b026cbf38-&gt;dir_9eca3c725728e372597fcd0d17c1ea0f</title><path fill="none" stroke="#000" d="M43,-71.8314C43,-64.131 43,-54.9743 43,-46.4166"/><polygon fill="#000" stroke="#000" points="46.5 -46.413 43 -36.413 39.5 -46.413 46.5 -46.413"/><g id="a_edge1-headlabel"><a target="_top" xlink:href="dir_000018_000019.xhtml" xlink:title="1"><text x="49.339" y="-47.508" fill="#000" font-family="Helvetica,sans-Serif" font-size="10" text-anchor="middle">1</text></a></g></g></g></svg>