<svg xmlns="http://www.w3.org/2000/svg" xmlns:xlink="http://www.w3.org/1999/xlink" width="112pt" height="244" viewBox="0 0 112 183"><g id="graph0" class="graph" transform="scale(1 1) rotate(0) translate(4 179)"><title>arm_compute/core/NEON/wrapper</title><polygon fill="#fff" stroke="transparent" points="-4 4 -4 -179 108 -179 108 4 -4 4"/><g id="clust1" class="cluster"><title>clusterdir_315f6cf1ec0b2df3ae747ff8286a19f5</title><g id="a_clust1"><a target="_top" xlink:href="dir_315f6cf1ec0b2df3ae747ff8286a19f5.xhtml" xlink:title="NEON"><polygon fill="#dde" stroke="#000" points="8 -8 8 -167 96 -167 96 -8 8 -8"/><text x="52" y="-155" fill="#000" font-family="Helvetica,sans-Serif" font-size="10" text-anchor="middle">NEON</text></a></g></g><g id="clust2" class="cluster"><title>clusterdir_9eca3c725728e372597fcd0d17c1ea0f</title><g id="a_clust2"><a target="_top" xlink:href="dir_9eca3c725728e372597fcd0d17c1ea0f.xhtml"><polygon fill="#eef" stroke="#000" points="16 -16 16 -140 88 -140 88 -16 16 -16"/></a></g></g><g id="node1" class="node"><title>dir_9eca3c725728e372597fcd0d17c1ea0f</title><text x="52" y="-111.5" fill="#000" font-family="Helvetica,sans-Serif" font-size="10" text-anchor="middle">wrapper</text></g><g id="node2" class="node"><title>dir_36bd1941057d7130e210a25993eacc69</title><g id="a_node2"><a target="_top" xlink:href="dir_36bd1941057d7130e210a25993eacc69.xhtml" xlink:title="intrinsics"><polygon fill="#fff" stroke="#000" points="80 -60 24 -60 24 -24 80 -24 80 -60"/><text x="52" y="-39.5" fill="#000" font-family="Helvetica,sans-Serif" font-size="10" text-anchor="middle">intrinsics</text></a></g></g><g id="edge1" class="edge"><title>dir_9eca3c725728e372597fcd0d17c1ea0f-&gt;dir_36bd1941057d7130e210a25993eacc69</title><path fill="none" stroke="#000" d="M52,-95.8314C52,-88.131 52,-78.9743 52,-70.4166"/><polygon fill="#000" stroke="#000" points="55.5 -70.413 52 -60.413 48.5 -70.413 55.5 -70.413"/><g id="a_edge1-headlabel"><a target="_top" xlink:href="dir_000019_000020.xhtml" xlink:title="1"><text x="58.339" y="-71.508" fill="#000" font-family="Helvetica,sans-Serif" font-size="10" text-anchor="middle">1</text></a></g></g></g></svg>