<svg xmlns="http://www.w3.org/2000/svg" xmlns:xlink="http://www.w3.org/1999/xlink" width="155pt" height="223pt" viewBox="0 0 154.76 223"><g id="graph0" class="graph" transform="scale(1 1) rotate(0) translate(4 219)"><title>tests/validation/CPP</title><polygon fill="#fff" stroke="transparent" points="-4 4 -4 -219 150.761 -219 150.761 4 -4 4"/><g id="clust1" class="cluster"><title>clusterdir_e7c7b16542faa38cb4655ff1750d3604</title><g id="a_clust1"><a target="_top" xlink:href="dir_e7c7b16542faa38cb4655ff1750d3604.xhtml" xlink:title="validation"><polygon fill="#dde" stroke="#000" points="68 -136 68 -207 138 -207 138 -136 68 -136"/><text x="103" y="-195" fill="#000" font-family="Helvetica,sans-Serif" font-size="10" text-anchor="middle">validation</text></a></g></g><g id="node1" class="node"><title>dir_420d2db1b9c99f59825a3985434c3703</title><g id="a_node1"><a target="_top" xlink:href="dir_420d2db1b9c99f59825a3985434c3703.xhtml" xlink:title="CPP"><polygon fill="#eef" stroke="#000" points="130 -180 76 -180 76 -144 130 -144 130 -180"/><text x="103" y="-159.5" fill="#000" font-family="Helvetica,sans-Serif" font-size="10" text-anchor="middle">CPP</text></a></g></g><g id="node2" class="node"><title>dir_445738e6fed662d0b65e690e3f1e1de0</title><g id="a_node2"><a target="_top" xlink:href="dir_445738e6fed662d0b65e690e3f1e1de0.xhtml" xlink:title="NEON"><polygon fill="none" stroke="#000" points="54 -108 0 -108 0 -72 54 -72 54 -108"/><text x="27" y="-87.5" fill="#000" font-family="Helvetica,sans-Serif" font-size="10" text-anchor="middle">NEON</text></a></g></g><g id="edge3" class="edge"><title>dir_420d2db1b9c99f59825a3985434c3703-&gt;dir_445738e6fed662d0b65e690e3f1e1de0</title><path fill="none" stroke="#000" d="M83.822,-143.8314C74.6412,-135.1337 63.4994,-124.5783 53.5224,-115.1265"/><polygon fill="#000" stroke="#000" points="55.839 -112.499 46.172 -108.163 51.024 -117.581 55.839 -112.499"/><g id="a_edge3-headlabel"><a target="_top" xlink:href="dir_000126_000122.xhtml" xlink:title="1"><text x="60.401" y="-110.41" fill="#000" font-family="Helvetica,sans-Serif" font-size="10" text-anchor="middle">1</text></a></g></g><g id="node3" class="node"><title>dir_9e71e2da941d3cafc4d98a9f6ae3de4f</title><g id="a_node3"><a target="_top" xlink:href="dir_9e71e2da941d3cafc4d98a9f6ae3de4f.xhtml" xlink:title="framework"><polygon fill="#fff" stroke="red" points="134 -108 72 -108 72 -72 134 -72 134 -108"/><text x="103" y="-87.5" fill="#000" font-family="Helvetica,sans-Serif" font-size="10" text-anchor="middle">framework</text></a></g></g><g id="edge4" class="edge"><title>dir_420d2db1b9c99f59825a3985434c3703-&gt;dir_9e71e2da941d3cafc4d98a9f6ae3de4f</title><path fill="none" stroke="#000" d="M103,-143.8314C103,-136.131 103,-126.9743 103,-118.4166"/><polygon fill="#000" stroke="#000" points="106.5 -118.413 103 -108.413 99.5 -118.413 106.5 -118.413"/><g id="a_edge4-headlabel"><a target="_top" xlink:href="dir_000126_000025.xhtml" xlink:title="3"><text x="109.339" y="-119.508" fill="#000" font-family="Helvetica,sans-Serif" font-size="10" text-anchor="middle">3</text></a></g></g><g id="node4" class="node"><title>dir_214608ef36d61442cb2b0c1c4e9a7def</title><g id="a_node4"><a target="_top" xlink:href="dir_214608ef36d61442cb2b0c1c4e9a7def.xhtml" xlink:title="arm_compute"><polygon fill="#fff" stroke="red" points="141 -36 65 -36 65 0 141 0 141 -36"/><text x="103" y="-15.5" fill="#000" font-family="Helvetica,sans-Serif" font-size="10" text-anchor="middle">arm_compute</text></a></g></g><g id="edge5" class="edge"><title>dir_420d2db1b9c99f59825a3985434c3703-&gt;dir_214608ef36d61442cb2b0c1c4e9a7def</title><path fill="none" stroke="#000" d="M121.1576,-143.7286C129.549,-133.9911 138.6123,-121.2949 143,-108 148.0144,-92.8061 148.0144,-87.1939 143,-72 139.7092,-62.0288 133.7884,-52.3944 127.4936,-44.0924"/><polygon fill="#000" stroke="#000" points="130.172 -41.838 121.158 -36.271 124.733 -46.245 130.172 -41.838"/><g id="a_edge5-headlabel"><a target="_top" xlink:href="dir_000126_000000.xhtml" xlink:title="4"><text x="134.641" y="-40.344" fill="#000" font-family="Helvetica,sans-Serif" font-size="10" text-anchor="middle">4</text></a></g></g><g id="edge1" class="edge"><title>dir_445738e6fed662d0b65e690e3f1e1de0-&gt;dir_214608ef36d61442cb2b0c1c4e9a7def</title><path fill="none" stroke="#000" d="M46.178,-71.8314C55.3588,-63.1337 66.5006,-52.5783 76.4776,-43.1265"/><polygon fill="#000" stroke="#000" points="78.976 -45.581 83.828 -36.163 74.162 -40.499 78.976 -45.581"/><g id="a_edge1-headlabel"><a target="_top" xlink:href="dir_000122_000000.xhtml" xlink:title="6"><text x="78.319" y="-47.614" fill="#000" font-family="Helvetica,sans-Serif" font-size="10" text-anchor="middle">6</text></a></g></g><g id="edge2" class="edge"><title>dir_9e71e2da941d3cafc4d98a9f6ae3de4f-&gt;dir_214608ef36d61442cb2b0c1c4e9a7def</title><path fill="none" stroke="#000" d="M103,-71.8314C103,-64.131 103,-54.9743 103,-46.4166"/><polygon fill="#000" stroke="#000" points="106.5 -46.413 103 -36.413 99.5 -46.413 106.5 -46.413"/><g id="a_edge2-headlabel"><a target="_top" xlink:href="dir_000025_000000.xhtml" xlink:title="14"><text x="109.339" y="-47.508" fill="#000" font-family="Helvetica,sans-Serif" font-size="10" text-anchor="middle">14</text></a></g></g></g></svg>