<svg xmlns="http://www.w3.org/2000/svg" xmlns:xlink="http://www.w3.org/1999/xlink" width="442pt" height="404" viewBox="0 0 442 303"><g id="graph0" class="graph" transform="scale(1 1) rotate(0) translate(4 299)"><title>arm_compute/runtime</title><polygon fill="#fff" stroke="transparent" points="-4 4 -4 -299 438 -299 438 4 -4 4"/><g id="clust1" class="cluster"><title>clusterdir_214608ef36d61442cb2b0c1c4e9a7def</title><g id="a_clust1"><a target="_top" xlink:href="dir_214608ef36d61442cb2b0c1c4e9a7def.xhtml" xlink:title="arm_compute"><polygon fill="#dde" stroke="#000" points="8 -128 8 -287 426 -287 426 -128 8 -128"/><text x="217" y="-275" fill="#000" font-family="Helvetica,sans-Serif" font-size="10" text-anchor="middle">arm_compute</text></a></g></g><g id="clust2" class="cluster"><title>clusterdir_8bc26130589aa16388b5a02f17abf2c2</title><g id="a_clust2"><a target="_top" xlink:href="dir_8bc26130589aa16388b5a02f17abf2c2.xhtml"><polygon fill="#eef" stroke="#000" points="16 -136 16 -260 418 -260 418 -136 16 -136"/></a></g></g><g id="node1" class="node"><title>dir_8bc26130589aa16388b5a02f17abf2c2</title><text x="383" y="-231.5" fill="#000" font-family="Helvetica,sans-Serif" font-size="10" text-anchor="middle">runtime</text></g><g id="node9" class="node"><title>dir_5815af820a9cc9481f1d0990a0d60286</title><g id="a_node9"><a target="_top" xlink:href="dir_5815af820a9cc9481f1d0990a0d60286.xhtml" xlink:title="support"><polygon fill="none" stroke="#000" points="325 -36 271 -36 271 0 325 0 325 -36"/><text x="298" y="-15.5" fill="#000" font-family="Helvetica,sans-Serif" font-size="10" text-anchor="middle">support</text></a></g></g><g id="edge4" class="edge"><title>dir_8bc26130589aa16388b5a02f17abf2c2-&gt;dir_5815af820a9cc9481f1d0990a0d60286</title><path fill="none" stroke="#000" d="M375.8991,-215.9555C361.0242,-178.1556 326.5106,-90.4506 308.844,-45.5564"/><polygon fill="#000" stroke="#000" points="312.059 -44.169 305.14 -36.145 305.545 -46.732 312.059 -44.169"/><g id="a_edge4-headlabel"><a target="_top" xlink:href="dir_000023_000119.xhtml" xlink:title="4"><text x="316.017" y="-43.974" fill="#000" font-family="Helvetica,sans-Serif" font-size="10" text-anchor="middle">4</text></a></g></g><g id="node2" class="node"><title>dir_b986aa98f9b6490bb4fc7918500346fb</title><g id="a_node2"><a target="_top" xlink:href="dir_b986aa98f9b6490bb4fc7918500346fb.xhtml" xlink:title="CL"><polygon fill="#fff" stroke="red" points="150 -252 96 -252 96 -216 150 -216 150 -252"/><text x="123" y="-231.5" fill="#000" font-family="Helvetica,sans-Serif" font-size="10" text-anchor="middle">CL</text></a></g></g><g id="node3" class="node"><title>dir_b9621ae687ab229876c54f8c2df20e15</title><g id="a_node3"><a target="_top" xlink:href="dir_b9621ae687ab229876c54f8c2df20e15.xhtml" xlink:title="common"><polygon fill="#fff" stroke="#000" points="127 -180 73 -180 73 -144 127 -144 127 -180"/><text x="100" y="-159.5" fill="#000" font-family="Helvetica,sans-Serif" font-size="10" text-anchor="middle">common</text></a></g></g><g id="edge11" class="edge"><title>dir_b986aa98f9b6490bb4fc7918500346fb-&gt;dir_b9621ae687ab229876c54f8c2df20e15</title><path fill="none" stroke="#000" d="M117.1961,-215.8314C114.7092,-208.0463 111.7469,-198.7729 108.9875,-190.1347"/><polygon fill="#000" stroke="#000" points="112.259 -188.874 105.882 -180.413 105.591 -191.004 112.259 -188.874"/><g id="a_edge11-headlabel"><a target="_top" xlink:href="dir_000041_000044.xhtml" xlink:title="1"><text x="116.057" y="-188.934" fill="#000" font-family="Helvetica,sans-Serif" font-size="10" text-anchor="middle">1</text></a></g></g><g id="node4" class="node"><title>dir_b496024afd63bafbf4e8da80d7d3a81a</title><g id="a_node4"><a target="_top" xlink:href="dir_b496024afd63bafbf4e8da80d7d3a81a.xhtml" xlink:title="CPP"><polygon fill="#fff" stroke="red" points="199 -180 145 -180 145 -144 199 -144 199 -180"/><text x="172" y="-159.5" fill="#000" font-family="Helvetica,sans-Serif" font-size="10" text-anchor="middle">CPP</text></a></g></g><g id="edge9" class="edge"><title>dir_b986aa98f9b6490bb4fc7918500346fb-&gt;dir_b496024afd63bafbf4e8da80d7d3a81a</title><path fill="none" stroke="#000" d="M135.3648,-215.8314C140.9509,-207.6232 147.663,-197.7606 153.8072,-188.7323"/><polygon fill="#000" stroke="#000" points="156.736 -190.65 159.469 -180.413 150.949 -186.711 156.736 -190.65"/><g id="a_edge9-headlabel"><a target="_top" xlink:href="dir_000041_000045.xhtml" xlink:title="1"><text x="157.061" y="-192.719" fill="#000" font-family="Helvetica,sans-Serif" font-size="10" text-anchor="middle">1</text></a></g></g><g id="node8" class="node"><title>dir_1fb090f0c6070330bfaccc4236d3ca0d</title><g id="a_node8"><a target="_top" xlink:href="dir_1fb090f0c6070330bfaccc4236d3ca0d.xhtml" xlink:title="core"><polygon fill="#fff" stroke="red" points="273 -108 219 -108 219 -72 273 -72 273 -108"/><text x="246" y="-87.5" fill="#000" font-family="Helvetica,sans-Serif" font-size="10" text-anchor="middle">core</text></a></g></g><g id="edge10" class="edge"><title>dir_b986aa98f9b6490bb4fc7918500346fb-&gt;dir_1fb090f0c6070330bfaccc4236d3ca0d</title><path fill="none" stroke="#000" d="M150.2949,-219.0412C171.8042,-206.8294 199.5311,-190.0105 208,-180 223.2285,-161.9996 233.1234,-137.0094 238.9868,-117.9287"/><polygon fill="#000" stroke="#000" points="242.359 -118.867 241.765 -108.288 235.633 -116.928 242.359 -118.867"/><g id="a_edge10-headlabel"><a target="_top" xlink:href="dir_000041_000001.xhtml" xlink:title="243"><text x="244.092" y="-120.607" fill="#000" font-family="Helvetica,sans-Serif" font-size="10" text-anchor="middle">243</text></a></g></g><g id="edge8" class="edge"><title>dir_b9621ae687ab229876c54f8c2df20e15-&gt;dir_1fb090f0c6070330bfaccc4236d3ca0d</title><path fill="none" stroke="#000" d="M116.3377,-143.7694C122.1144,-138.1269 128.9415,-132.2766 136,-128 158.6279,-114.2904 186.8873,-104.6636 209.0969,-98.5299"/><polygon fill="#000" stroke="#000" points="210.061 -101.895 218.834 -95.955 208.271 -95.128 210.061 -101.895"/><g id="a_edge8-headlabel"><a target="_top" xlink:href="dir_000044_000001.xhtml" xlink:title="3"><text x="207.311" y="-103.059" fill="#000" font-family="Helvetica,sans-Serif" font-size="10" text-anchor="middle">3</text></a></g></g><g id="edge5" class="edge"><title>dir_b496024afd63bafbf4e8da80d7d3a81a-&gt;dir_1fb090f0c6070330bfaccc4236d3ca0d</title><path fill="none" stroke="#000" d="M190.6733,-143.8314C199.5249,-135.219 210.2486,-124.7851 219.8895,-115.4048"/><polygon fill="#000" stroke="#000" points="222.606 -117.645 227.333 -108.163 217.725 -112.628 222.606 -117.645"/><g id="a_edge5-headlabel"><a target="_top" xlink:href="dir_000045_000001.xhtml" xlink:title="4"><text x="222.01" y="-119.687" fill="#000" font-family="Helvetica,sans-Serif" font-size="10" text-anchor="middle">4</text></a></g></g><g id="node5" class="node"><title>dir_e83fa7cb9796f3ad7be03e3d9fcd3249</title><g id="a_node5"><a target="_top" xlink:href="dir_e83fa7cb9796f3ad7be03e3d9fcd3249.xhtml" xlink:title="GLES_COMPUTE"><polygon fill="#fff" stroke="red" points="338 -252 240 -252 240 -216 338 -216 338 -252"/><text x="289" y="-231.5" fill="#000" font-family="Helvetica,sans-Serif" font-size="10" text-anchor="middle">GLES_COMPUTE</text></a></g></g><g id="edge7" class="edge"><title>dir_e83fa7cb9796f3ad7be03e3d9fcd3249-&gt;dir_1fb090f0c6070330bfaccc4236d3ca0d</title><path fill="none" stroke="#000" d="M290.5604,-215.9297C291.7204,-194.1521 291.3693,-156.8868 279,-128 277.2104,-123.8207 274.7851,-119.7705 272.0564,-115.9696"/><polygon fill="#000" stroke="#000" points="274.719 -113.696 265.727 -108.094 269.263 -118.081 274.719 -113.696"/><g id="a_edge7-headlabel"><a target="_top" xlink:href="dir_000047_000001.xhtml" xlink:title="60"><text x="279.184" y="-112.219" fill="#000" font-family="Helvetica,sans-Serif" font-size="10" text-anchor="middle">60</text></a></g></g><g id="node6" class="node"><title>dir_65e289039e1347f87d412b0a1b1a312c</title><g id="a_node6"><a target="_top" xlink:href="dir_65e289039e1347f87d412b0a1b1a312c.xhtml" xlink:title="NEON"><polygon fill="#fff" stroke="red" points="222 -252 168 -252 168 -216 222 -216 222 -252"/><text x="195" y="-231.5" fill="#000" font-family="Helvetica,sans-Serif" font-size="10" text-anchor="middle">NEON</text></a></g></g><g id="edge3" class="edge"><title>dir_65e289039e1347f87d412b0a1b1a312c-&gt;dir_b9621ae687ab229876c54f8c2df20e15</title><path fill="none" stroke="#000" d="M171.0275,-215.8314C159.2139,-206.8779 144.8028,-195.9558 132.0565,-186.2955"/><polygon fill="#000" stroke="#000" points="134.049 -183.414 123.965 -180.163 129.821 -188.993 134.049 -183.414"/><g id="a_edge3-headlabel"><a target="_top" xlink:href="dir_000049_000044.xhtml" xlink:title="1"><text x="138.628" y="-180.822" fill="#000" font-family="Helvetica,sans-Serif" font-size="10" text-anchor="middle">1</text></a></g></g><g id="edge1" class="edge"><title>dir_65e289039e1347f87d412b0a1b1a312c-&gt;dir_b496024afd63bafbf4e8da80d7d3a81a</title><path fill="none" stroke="#000" d="M189.1961,-215.8314C186.7092,-208.0463 183.7469,-198.7729 180.9875,-190.1347"/><polygon fill="#000" stroke="#000" points="184.259 -188.874 177.882 -180.413 177.591 -191.004 184.259 -188.874"/><g id="a_edge1-headlabel"><a target="_top" xlink:href="dir_000049_000045.xhtml" xlink:title="2"><text x="188.057" y="-188.934" fill="#000" font-family="Helvetica,sans-Serif" font-size="10" text-anchor="middle">2</text></a></g></g><g id="edge2" class="edge"><title>dir_65e289039e1347f87d412b0a1b1a312c-&gt;dir_1fb090f0c6070330bfaccc4236d3ca0d</title><path fill="none" stroke="#000" d="M215.9845,-215.6048C225.4075,-206.0197 235.6025,-193.4926 241,-180 248.8226,-160.4451 249.802,-136.5763 248.9715,-118.3342"/><polygon fill="#000" stroke="#000" points="252.462 -118.067 248.311 -108.319 245.477 -118.528 252.462 -118.067"/><g id="a_edge2-headlabel"><a target="_top" xlink:href="dir_000049_000001.xhtml" xlink:title="181"><text x="255.531" y="-118.967" fill="#000" font-family="Helvetica,sans-Serif" font-size="10" text-anchor="middle">181</text></a></g></g><g id="node7" class="node"><title>dir_b88a6d23833cc7e200916be8af5e3057</title><g id="a_node7"><a target="_top" xlink:href="dir_b88a6d23833cc7e200916be8af5e3057.xhtml" xlink:title="OMP"><polygon fill="#fff" stroke="#000" points="78 -252 24 -252 24 -216 78 -216 78 -252"/><text x="51" y="-231.5" fill="#000" font-family="Helvetica,sans-Serif" font-size="10" text-anchor="middle">OMP</text></a></g></g><g id="edge6" class="edge"><title>dir_1fb090f0c6070330bfaccc4236d3ca0d-&gt;dir_5815af820a9cc9481f1d0990a0d60286</title><path fill="none" stroke="#000" d="M259.1218,-71.8314C265.0499,-63.6232 272.1729,-53.7606 278.6933,-44.7323"/><polygon fill="#000" stroke="#000" points="281.684 -46.569 284.702 -36.413 276.009 -42.471 281.684 -46.569"/><g id="a_edge6-headlabel"><a target="_top" xlink:href="dir_000001_000119.xhtml" xlink:title="13"><text x="281.881" y="-48.646" fill="#000" font-family="Helvetica,sans-Serif" font-size="10" text-anchor="middle">13</text></a></g></g></g></svg>