<svg xmlns="http://www.w3.org/2000/svg" xmlns:xlink="http://www.w3.org/1999/xlink" width="100pt" height="151pt" viewBox="0 0 100 151"><g id="graph0" class="graph" transform="scale(1 1) rotate(0) translate(4 147)"><title>src/runtime/NEON/functions/assembly</title><polygon fill="#fff" stroke="transparent" points="-4 4 -4 -147 96 -147 96 4 -4 4"/><g id="clust1" class="cluster"><title>clusterdir_4d03f28cfd35f8f734a3b0a2f1168d27</title><g id="a_clust1"><a target="_top" xlink:href="dir_4d03f28cfd35f8f734a3b0a2f1168d27.xhtml" xlink:title="functions"><polygon fill="#dde" stroke="#000" points="8 -64 8 -135 84 -135 84 -64 8 -64"/><text x="46" y="-123" fill="#000" font-family="Helvetica,sans-Serif" font-size="10" text-anchor="middle">functions</text></a></g></g><g id="node1" class="node"><title>dir_0a6500f7272333a2de6dc109dffb6341</title><g id="a_node1"><a target="_top" xlink:href="dir_0a6500f7272333a2de6dc109dffb6341.xhtml" xlink:title="assembly"><polygon fill="#eef" stroke="#000" points="75.5 -108 16.5 -108 16.5 -72 75.5 -72 75.5 -108"/><text x="46" y="-87.5" fill="#000" font-family="Helvetica,sans-Serif" font-size="10" text-anchor="middle">assembly</text></a></g></g><g id="node2" class="node"><title>dir_214608ef36d61442cb2b0c1c4e9a7def</title><g id="a_node2"><a target="_top" xlink:href="dir_214608ef36d61442cb2b0c1c4e9a7def.xhtml" xlink:title="arm_compute"><polygon fill="#fff" stroke="red" points="84 -36 8 -36 8 0 84 0 84 -36"/><text x="46" y="-15.5" fill="#000" font-family="Helvetica,sans-Serif" font-size="10" text-anchor="middle">arm_compute</text></a></g></g><g id="edge1" class="edge"><title>dir_0a6500f7272333a2de6dc109dffb6341-&gt;dir_214608ef36d61442cb2b0c1c4e9a7def</title><path fill="none" stroke="#000" d="M46,-71.8314C46,-64.131 46,-54.9743 46,-46.4166"/><polygon fill="#000" stroke="#000" points="49.5 -46.413 46 -36.413 42.5 -46.413 49.5 -46.413"/><g id="a_edge1-headlabel"><a target="_top" xlink:href="dir_000115_000000.xhtml" xlink:title="4"><text x="52.339" y="-47.508" fill="#000" font-family="Helvetica,sans-Serif" font-size="10" text-anchor="middle">4</text></a></g></g></g></svg>