<svg xmlns="http://www.w3.org/2000/svg" xmlns:xlink="http://www.w3.org/1999/xlink" width="840" height="308" viewBox="0 0 630 231"><g id="graph0" class="graph" transform="scale(1 1) rotate(0) translate(4 227)"><title>src/graph</title><polygon fill="#fff" stroke="transparent" points="-4 4 -4 -227 626 -227 626 4 -4 4"/><g id="clust1" class="cluster"><title>clusterdir_68267d1309a1af8e8297ef4c3efbcdba</title><g id="a_clust1"><a target="_top" xlink:href="dir_68267d1309a1af8e8297ef4c3efbcdba.xhtml" xlink:title="src"><polygon fill="#dde" stroke="#000" points="8 -128 8 -215 614 -215 614 -128 8 -128"/><text x="311" y="-203" fill="#000" font-family="Helvetica,sans-Serif" font-size="10" text-anchor="middle">src</text></a></g></g><g id="clust2" class="cluster"><title>clusterdir_d182250f0c231765fc862e69db210731</title><g id="a_clust2"><a target="_top" xlink:href="dir_d182250f0c231765fc862e69db210731.xhtml"><polygon fill="#eef" stroke="#000" points="16 -136 16 -188 606 -188 606 -136 16 -136"/></a></g></g><g id="node1" class="node"><title>dir_d182250f0c231765fc862e69db210731</title><text x="571" y="-159.5" fill="#000" font-family="Helvetica,sans-Serif" font-size="10" text-anchor="middle">graph</text></g><g id="node2" class="node"><title>dir_5cd7c6994c9c36b087490b290382772a</title><g id="a_node2"><a target="_top" xlink:href="dir_5cd7c6994c9c36b087490b290382772a.xhtml" xlink:title="algorithms"><polygon fill="#fff" stroke="#000" points="376 -180 314 -180 314 -144 376 -144 376 -180"/><text x="345" y="-159.5" fill="#000" font-family="Helvetica,sans-Serif" font-size="10" text-anchor="middle">algorithms</text></a></g></g><g id="node9" class="node"><title>dir_214608ef36d61442cb2b0c1c4e9a7def</title><g id="a_node9"><a target="_top" xlink:href="dir_214608ef36d61442cb2b0c1c4e9a7def.xhtml" xlink:title="arm_compute"><polygon fill="#fff" stroke="red" points="345 -108 269 -108 269 -72 345 -72 345 -108"/><text x="307" y="-87.5" fill="#000" font-family="Helvetica,sans-Serif" font-size="10" text-anchor="middle">arm_compute</text></a></g></g><g id="edge2" class="edge"><title>dir_5cd7c6994c9c36b087490b290382772a-&gt;dir_214608ef36d61442cb2b0c1c4e9a7def</title><path fill="none" stroke="#000" d="M335.411,-143.8314C331.1683,-135.7925 326.0879,-126.1666 321.404,-117.2918"/><polygon fill="#000" stroke="#000" points="324.481 -115.624 316.718 -108.413 318.29 -118.891 324.481 -115.624"/><g id="a_edge2-headlabel"><a target="_top" xlink:href="dir_000089_000000.xhtml" xlink:title="3"><text x="328.67" y="-114.977" fill="#000" font-family="Helvetica,sans-Serif" font-size="10" text-anchor="middle">3</text></a></g></g><g id="node3" class="node"><title>dir_39e772dac1f6529f21fb52deefa146ea</title><g id="a_node3"><a target="_top" xlink:href="dir_39e772dac1f6529f21fb52deefa146ea.xhtml" xlink:title="backends"><polygon fill="#fff" stroke="red" points="525.5 -180 466.5 -180 466.5 -144 525.5 -144 525.5 -180"/><text x="496" y="-159.5" fill="#000" font-family="Helvetica,sans-Serif" font-size="10" text-anchor="middle">backends</text></a></g></g><g id="edge4" class="edge"><title>dir_39e772dac1f6529f21fb52deefa146ea-&gt;dir_214608ef36d61442cb2b0c1c4e9a7def</title><path fill="none" stroke="#000" d="M478.681,-143.8011C472.3406,-138.025 464.7977,-132.085 457,-128 425.1441,-111.3116 385.5877,-101.6857 355.0951,-96.2994"/><polygon fill="#000" stroke="#000" points="355.566 -92.83 345.126 -94.631 354.411 -99.734 355.566 -92.83"/><g id="a_edge4-headlabel"><a target="_top" xlink:href="dir_000090_000000.xhtml" xlink:title="102"><text x="359.58" y="-88.123" fill="#000" font-family="Helvetica,sans-Serif" font-size="10" text-anchor="middle">102</text></a></g></g><g id="node10" class="node"><title>dir_5815af820a9cc9481f1d0990a0d60286</title><g id="a_node10"><a target="_top" xlink:href="dir_5815af820a9cc9481f1d0990a0d60286.xhtml" xlink:title="support"><polygon fill="none" stroke="#000" points="367 -36 313 -36 313 0 367 0 367 -36"/><text x="340" y="-15.5" fill="#000" font-family="Helvetica,sans-Serif" font-size="10" text-anchor="middle">support</text></a></g></g><g id="edge5" class="edge"><title>dir_39e772dac1f6529f21fb52deefa146ea-&gt;dir_5815af820a9cc9481f1d0990a0d60286</title><path fill="none" stroke="#000" d="M476.2425,-143.7623C448.5795,-118.2272 398.2092,-71.7316 367.0731,-42.9906"/><polygon fill="#000" stroke="#000" points="369.319 -40.301 359.597 -36.09 364.571 -45.444 369.319 -40.301"/><g id="a_edge5-headlabel"><a target="_top" xlink:href="dir_000090_000119.xhtml" xlink:title="4"><text x="373.886" y="-38.153" fill="#000" font-family="Helvetica,sans-Serif" font-size="10" text-anchor="middle">4</text></a></g></g><g id="node4" class="node"><title>dir_860cb336d74994b1303832ed3557228e</title><g id="a_node4"><a target="_top" xlink:href="dir_860cb336d74994b1303832ed3557228e.xhtml" xlink:title="detail"><polygon fill="#fff" stroke="#000" points="224 -180 170 -180 170 -144 224 -144 224 -180"/><text x="197" y="-159.5" fill="#000" font-family="Helvetica,sans-Serif" font-size="10" text-anchor="middle">detail</text></a></g></g><g id="edge8" class="edge"><title>dir_860cb336d74994b1303832ed3557228e-&gt;dir_214608ef36d61442cb2b0c1c4e9a7def</title><path fill="none" stroke="#000" d="M214.0773,-143.992C219.7963,-138.4901 226.4025,-132.6665 233,-128 241.3125,-122.1205 250.6588,-116.5973 259.8391,-111.6802"/><polygon fill="#000" stroke="#000" points="261.651 -114.683 268.92 -106.974 258.43 -108.468 261.651 -114.683"/><g id="a_edge8-headlabel"><a target="_top" xlink:href="dir_000094_000000.xhtml" xlink:title="16"><text x="259.766" y="-116.358" fill="#000" font-family="Helvetica,sans-Serif" font-size="10" text-anchor="middle">16</text></a></g></g><g id="node5" class="node"><title>dir_330aa6f4e434724354905027707c791c</title><g id="a_node5"><a target="_top" xlink:href="dir_330aa6f4e434724354905027707c791c.xhtml" xlink:title="frontend"><polygon fill="#fff" stroke="#000" points="152 -180 98 -180 98 -144 152 -144 152 -180"/><text x="125" y="-159.5" fill="#000" font-family="Helvetica,sans-Serif" font-size="10" text-anchor="middle">frontend</text></a></g></g><g id="edge7" class="edge"><title>dir_330aa6f4e434724354905027707c791c-&gt;dir_214608ef36d61442cb2b0c1c4e9a7def</title><path fill="none" stroke="#000" d="M140.7898,-143.7969C146.6267,-138.0205 153.6297,-132.0814 161,-128 191.2323,-111.2584 229.0845,-101.6798 258.671,-96.3278"/><polygon fill="#000" stroke="#000" points="259.496 -99.738 268.765 -94.606 258.319 -92.837 259.496 -99.738"/><g id="a_edge7-headlabel"><a target="_top" xlink:href="dir_000095_000000.xhtml" xlink:title="6"><text x="256.43" y="-100.641" fill="#000" font-family="Helvetica,sans-Serif" font-size="10" text-anchor="middle">6</text></a></g></g><g id="node6" class="node"><title>dir_1b9e532a4c8623825d945e964c6e4c7f</title><g id="a_node6"><a target="_top" xlink:href="dir_1b9e532a4c8623825d945e964c6e4c7f.xhtml" xlink:title="mutators"><polygon fill="#fff" stroke="#000" points="79.5 -180 24.5 -180 24.5 -144 79.5 -144 79.5 -180"/><text x="52" y="-159.5" fill="#000" font-family="Helvetica,sans-Serif" font-size="10" text-anchor="middle">mutators</text></a></g></g><g id="edge9" class="edge"><title>dir_1b9e532a4c8623825d945e964c6e4c7f-&gt;dir_214608ef36d61442cb2b0c1c4e9a7def</title><path fill="none" stroke="#000" d="M67.7561,-143.8068C73.8172,-137.8879 81.1748,-131.8563 89,-128 118.1367,-113.6413 203.9008,-101.6714 258.7682,-95.1996"/><polygon fill="#000" stroke="#000" points="259.438 -98.645 268.968 -94.018 258.632 -91.692 259.438 -98.645"/><g id="a_edge9-headlabel"><a target="_top" xlink:href="dir_000096_000000.xhtml" xlink:title="42"><text x="256.194" y="-99.38" fill="#000" font-family="Helvetica,sans-Serif" font-size="10" text-anchor="middle">42</text></a></g></g><g id="node7" class="node"><title>dir_b522e8895b1a2b097ec0514a9a6c1549</title><g id="a_node7"><a target="_top" xlink:href="dir_b522e8895b1a2b097ec0514a9a6c1549.xhtml" xlink:title="nodes"><polygon fill="#fff" stroke="#000" points="448 -180 394 -180 394 -144 448 -144 448 -180"/><text x="421" y="-159.5" fill="#000" font-family="Helvetica,sans-Serif" font-size="10" text-anchor="middle">nodes</text></a></g></g><g id="edge1" class="edge"><title>dir_b522e8895b1a2b097ec0514a9a6c1549-&gt;dir_214608ef36d61442cb2b0c1c4e9a7def</title><path fill="none" stroke="#000" d="M403.9813,-143.9082C398.2654,-138.4019 391.6462,-132.5967 385,-128 375.5139,-121.4391 364.7243,-115.4034 354.2597,-110.1657"/><polygon fill="#000" stroke="#000" points="355.714 -106.981 345.188 -105.775 352.664 -113.282 355.714 -106.981"/><g id="a_edge1-headlabel"><a target="_top" xlink:href="dir_000097_000000.xhtml" xlink:title="127"><text x="360.187" y="-103.492" fill="#000" font-family="Helvetica,sans-Serif" font-size="10" text-anchor="middle">127</text></a></g></g><g id="node8" class="node"><title>dir_a3a3362c7065796fe64974622266bfb7</title><g id="a_node8"><a target="_top" xlink:href="dir_a3a3362c7065796fe64974622266bfb7.xhtml" xlink:title="printers"><polygon fill="#fff" stroke="#000" points="296 -180 242 -180 242 -144 296 -144 296 -180"/><text x="269" y="-159.5" fill="#000" font-family="Helvetica,sans-Serif" font-size="10" text-anchor="middle">printers</text></a></g></g><g id="edge6" class="edge"><title>dir_a3a3362c7065796fe64974622266bfb7-&gt;dir_214608ef36d61442cb2b0c1c4e9a7def</title><path fill="none" stroke="#000" d="M278.589,-143.8314C282.8317,-135.7925 287.9121,-126.1666 292.596,-117.2918"/><polygon fill="#000" stroke="#000" points="295.71 -118.891 297.282 -108.413 289.519 -115.624 295.71 -118.891"/><g id="a_edge6-headlabel"><a target="_top" xlink:href="dir_000105_000000.xhtml" xlink:title="6"><text x="296.543" y="-120.895" fill="#000" font-family="Helvetica,sans-Serif" font-size="10" text-anchor="middle">6</text></a></g></g><g id="edge3" class="edge"><title>dir_214608ef36d61442cb2b0c1c4e9a7def-&gt;dir_5815af820a9cc9481f1d0990a0d60286</title><path fill="none" stroke="#000" d="M315.3273,-71.8314C318.973,-63.8771 323.3309,-54.369 327.3627,-45.5723"/><polygon fill="#000" stroke="#000" points="330.576 -46.962 331.561 -36.413 324.212 -44.046 330.576 -46.962"/><g id="a_edge3-headlabel"><a target="_top" xlink:href="dir_000000_000119.xhtml" xlink:title="20"><text x="331.659" y="-48.913" fill="#000" font-family="Helvetica,sans-Serif" font-size="10" text-anchor="middle">20</text></a></g></g></g></svg>