<svg xmlns="http://www.w3.org/2000/svg" xmlns:xlink="http://www.w3.org/1999/xlink" width="552" height="308" viewBox="0 0 414 231"><g id="graph0" class="graph" transform="scale(1 1) rotate(0) translate(4 227)"><title>src/core/utils</title><polygon fill="#fff" stroke="transparent" points="-4 4 -4 -227 410 -227 410 4 -4 4"/><g id="clust1" class="cluster"><title>clusterdir_aebb8dcc11953d78e620bbef0b9e2183</title><g id="a_clust1"><a target="_top" xlink:href="dir_aebb8dcc11953d78e620bbef0b9e2183.xhtml" xlink:title="core"><polygon fill="#dde" stroke="#000" points="8 -128 8 -215 398 -215 398 -128 8 -128"/><text x="203" y="-203" fill="#000" font-family="Helvetica,sans-Serif" font-size="10" text-anchor="middle">core</text></a></g></g><g id="clust2" class="cluster"><title>clusterdir_a8053b3d69cfefb2b2e6ec7bf9dd5c1a</title><g id="a_clust2"><a target="_top" xlink:href="dir_a8053b3d69cfefb2b2e6ec7bf9dd5c1a.xhtml"><polygon fill="#eef" stroke="#000" points="16 -136 16 -188 390 -188 390 -136 16 -136"/></a></g></g><g id="node1" class="node"><title>dir_a8053b3d69cfefb2b2e6ec7bf9dd5c1a</title><text x="355" y="-159.5" fill="#000" font-family="Helvetica,sans-Serif" font-size="10" text-anchor="middle">utils</text></g><g id="node2" class="node"><title>dir_3ce11c95fd532b87aa3e6777b412b94b</title><g id="a_node2"><a target="_top" xlink:href="dir_3ce11c95fd532b87aa3e6777b412b94b.xhtml" xlink:title="helpers"><polygon fill="#fff" stroke="#000" points="78 -180 24 -180 24 -144 78 -144 78 -180"/><text x="51" y="-159.5" fill="#000" font-family="Helvetica,sans-Serif" font-size="10" text-anchor="middle">helpers</text></a></g></g><g id="node6" class="node"><title>dir_214608ef36d61442cb2b0c1c4e9a7def</title><g id="a_node6"><a target="_top" xlink:href="dir_214608ef36d61442cb2b0c1c4e9a7def.xhtml" xlink:title="arm_compute"><polygon fill="#fff" stroke="red" points="191 -108 115 -108 115 -72 191 -72 191 -108"/><text x="153" y="-87.5" fill="#000" font-family="Helvetica,sans-Serif" font-size="10" text-anchor="middle">arm_compute</text></a></g></g><g id="edge1" class="edge"><title>dir_3ce11c95fd532b87aa3e6777b412b94b-&gt;dir_214608ef36d61442cb2b0c1c4e9a7def</title><path fill="none" stroke="#000" d="M69.15,-143.8875C74.9494,-138.5 81.5438,-132.7679 88,-128 94.9531,-122.8651 102.651,-117.8476 110.245,-113.2294"/><polygon fill="#000" stroke="#000" points="112.24 -116.116 119.061 -108.008 108.673 -110.093 112.24 -116.116"/><g id="a_edge1-headlabel"><a target="_top" xlink:href="dir_000086_000000.xhtml" xlink:title="1"><text x="110.594" y="-117.89" fill="#000" font-family="Helvetica,sans-Serif" font-size="10" text-anchor="middle">1</text></a></g></g><g id="node3" class="node"><title>dir_6915c5d185ea48a4b1716c1cd2b4d90a</title><g id="a_node3"><a target="_top" xlink:href="dir_6915c5d185ea48a4b1716c1cd2b4d90a.xhtml" xlink:title="io"><polygon fill="#fff" stroke="#000" points="238 -180 184 -180 184 -144 238 -144 238 -180"/><text x="211" y="-159.5" fill="#000" font-family="Helvetica,sans-Serif" font-size="10" text-anchor="middle">io</text></a></g></g><g id="edge5" class="edge"><title>dir_6915c5d185ea48a4b1716c1cd2b4d90a-&gt;dir_214608ef36d61442cb2b0c1c4e9a7def</title><path fill="none" stroke="#000" d="M196.3642,-143.8314C189.6839,-135.5386 181.6432,-125.557 174.3096,-116.4533"/><polygon fill="#000" stroke="#000" points="176.832 -114.005 167.833 -108.413 171.381 -118.397 176.832 -114.005"/><g id="a_edge5-headlabel"><a target="_top" xlink:href="dir_000087_000000.xhtml" xlink:title="2"><text x="181.298" y="-112.523" fill="#000" font-family="Helvetica,sans-Serif" font-size="10" text-anchor="middle">2</text></a></g></g><g id="node7" class="node"><title>dir_5815af820a9cc9481f1d0990a0d60286</title><g id="a_node7"><a target="_top" xlink:href="dir_5815af820a9cc9481f1d0990a0d60286.xhtml" xlink:title="support"><polygon fill="none" stroke="#000" points="246 -36 192 -36 192 0 246 0 246 -36"/><text x="219" y="-15.5" fill="#000" font-family="Helvetica,sans-Serif" font-size="10" text-anchor="middle">support</text></a></g></g><g id="edge6" class="edge"><title>dir_6915c5d185ea48a4b1716c1cd2b4d90a-&gt;dir_5815af820a9cc9481f1d0990a0d60286</title><path fill="none" stroke="#000" d="M212.0132,-143.7623C213.3777,-119.201 215.8196,-75.2474 217.4248,-46.3541"/><polygon fill="#000" stroke="#000" points="220.935 -46.268 217.995 -36.09 213.946 -45.88 220.935 -46.268"/><g id="a_edge6-headlabel"><a target="_top" xlink:href="dir_000087_000119.xhtml" xlink:title="1"><text x="223.57" y="-47.515" fill="#000" font-family="Helvetica,sans-Serif" font-size="10" text-anchor="middle">1</text></a></g></g><g id="node4" class="node"><title>dir_dbfe0e4196f53fa51766229f36f19f00</title><g id="a_node4"><a target="_top" xlink:href="dir_dbfe0e4196f53fa51766229f36f19f00.xhtml" xlink:title="logging"><polygon fill="#fff" stroke="#000" points="310 -180 256 -180 256 -144 310 -144 310 -180"/><text x="283" y="-159.5" fill="#000" font-family="Helvetica,sans-Serif" font-size="10" text-anchor="middle">logging</text></a></g></g><g id="edge2" class="edge"><title>dir_dbfe0e4196f53fa51766229f36f19f00-&gt;dir_214608ef36d61442cb2b0c1c4e9a7def</title><path fill="none" stroke="#000" d="M266.5304,-143.9809C260.7449,-138.3526 253.9459,-132.457 247,-128 232.7685,-118.868 215.9817,-111.2388 200.5611,-105.2703"/><polygon fill="#000" stroke="#000" points="201.764 -101.984 191.171 -101.77 199.319 -108.543 201.764 -101.984"/><g id="a_edge2-headlabel"><a target="_top" xlink:href="dir_000061_000000.xhtml" xlink:title="6"><text x="206.124" y="-98.079" fill="#000" font-family="Helvetica,sans-Serif" font-size="10" text-anchor="middle">6</text></a></g></g><g id="edge3" class="edge"><title>dir_dbfe0e4196f53fa51766229f36f19f00-&gt;dir_5815af820a9cc9481f1d0990a0d60286</title><path fill="none" stroke="#000" d="M274.8944,-143.7623C263.8821,-118.9846 244.0984,-74.4714 231.2639,-45.5939"/><polygon fill="#000" stroke="#000" points="234.3 -43.806 227.04 -36.09 227.903 -46.649 234.3 -43.806"/><g id="a_edge3-headlabel"><a target="_top" xlink:href="dir_000061_000119.xhtml" xlink:title="2"><text x="238.354" y="-43.438" fill="#000" font-family="Helvetica,sans-Serif" font-size="10" text-anchor="middle">2</text></a></g></g><g id="node5" class="node"><title>dir_dfd177d17fe198b2123c626051c4d924</title><g id="a_node5"><a target="_top" xlink:href="dir_dfd177d17fe198b2123c626051c4d924.xhtml" xlink:title="quantization"><polygon fill="#fff" stroke="#000" points="165.5 -180 96.5 -180 96.5 -144 165.5 -144 165.5 -180"/><text x="131" y="-159.5" fill="#000" font-family="Helvetica,sans-Serif" font-size="10" text-anchor="middle">quantization</text></a></g></g><g id="edge7" class="edge"><title>dir_dfd177d17fe198b2123c626051c4d924-&gt;dir_214608ef36d61442cb2b0c1c4e9a7def</title><path fill="none" stroke="#000" d="M136.5515,-143.8314C138.9303,-136.0463 141.7638,-126.7729 144.4033,-118.1347"/><polygon fill="#000" stroke="#000" points="147.799 -119 147.374 -108.413 141.104 -116.954 147.799 -119"/><g id="a_edge7-headlabel"><a target="_top" xlink:href="dir_000088_000000.xhtml" xlink:title="1"><text x="149.464" y="-120.767" fill="#000" font-family="Helvetica,sans-Serif" font-size="10" text-anchor="middle">1</text></a></g></g><g id="edge4" class="edge"><title>dir_214608ef36d61442cb2b0c1c4e9a7def-&gt;dir_5815af820a9cc9481f1d0990a0d60286</title><path fill="none" stroke="#000" d="M169.6546,-71.8314C177.4114,-63.3694 186.7802,-53.1489 195.261,-43.8971"/><polygon fill="#000" stroke="#000" points="197.944 -46.15 202.121 -36.413 192.784 -41.42 197.944 -46.15"/><g id="a_edge4-headlabel"><a target="_top" xlink:href="dir_000000_000119.xhtml" xlink:title="20"><text x="197.608" y="-48.218" fill="#000" font-family="Helvetica,sans-Serif" font-size="10" text-anchor="middle">20</text></a></g></g></g></svg>