<svg xmlns="http://www.w3.org/2000/svg" xmlns:xlink="http://www.w3.org/1999/xlink" width="172pt" height="223pt" viewBox="0 0 172 223"><g id="graph0" class="graph" transform="scale(1 1) rotate(0) translate(4 219)"><title>arm_compute/runtime/CL/functions</title><polygon fill="#fff" stroke="transparent" points="-4 4 -4 -219 168 -219 168 4 -4 4"/><g id="clust1" class="cluster"><title>clusterdir_b986aa98f9b6490bb4fc7918500346fb</title><g id="a_clust1"><a target="_top" xlink:href="dir_b986aa98f9b6490bb4fc7918500346fb.xhtml" xlink:title="CL"><polygon fill="#dde" stroke="#000" points="46 -136 46 -207 118 -207 118 -136 46 -136"/><text x="82" y="-195" fill="#000" font-family="Helvetica,sans-Serif" font-size="10" text-anchor="middle">CL</text></a></g></g><g id="node1" class="node"><title>dir_251c63bc3f70b60acf43edd6d870a3ef</title><g id="a_node1"><a target="_top" xlink:href="dir_251c63bc3f70b60acf43edd6d870a3ef.xhtml" xlink:title="functions"><polygon fill="#eef" stroke="#000" points="110 -180 54 -180 54 -144 110 -144 110 -180"/><text x="82" y="-159.5" fill="#000" font-family="Helvetica,sans-Serif" font-size="10" text-anchor="middle">functions</text></a></g></g><g id="node2" class="node"><title>dir_b496024afd63bafbf4e8da80d7d3a81a</title><g id="a_node2"><a target="_top" xlink:href="dir_b496024afd63bafbf4e8da80d7d3a81a.xhtml" xlink:title="CPP"><polygon fill="#fff" stroke="red" points="54 -108 0 -108 0 -72 54 -72 54 -108"/><text x="27" y="-87.5" fill="#000" font-family="Helvetica,sans-Serif" font-size="10" text-anchor="middle">CPP</text></a></g></g><g id="edge1" class="edge"><title>dir_251c63bc3f70b60acf43edd6d870a3ef-&gt;dir_b496024afd63bafbf4e8da80d7d3a81a</title><path fill="none" stroke="#000" d="M68.1212,-143.8314C61.7864,-135.5386 54.1616,-125.557 47.2074,-116.4533"/><polygon fill="#000" stroke="#000" points="49.917 -114.235 41.066 -108.413 44.355 -118.485 49.917 -114.235"/><g id="a_edge1-headlabel"><a target="_top" xlink:href="dir_000042_000045.xhtml" xlink:title="1"><text x="54.356" y="-112.868" fill="#000" font-family="Helvetica,sans-Serif" font-size="10" text-anchor="middle">1</text></a></g></g><g id="node3" class="node"><title>dir_1fb090f0c6070330bfaccc4236d3ca0d</title><g id="a_node3"><a target="_top" xlink:href="dir_1fb090f0c6070330bfaccc4236d3ca0d.xhtml" xlink:title="core"><polygon fill="#fff" stroke="red" points="109 -36 55 -36 55 0 109 0 109 -36"/><text x="82" y="-15.5" fill="#000" font-family="Helvetica,sans-Serif" font-size="10" text-anchor="middle">core</text></a></g></g><g id="edge2" class="edge"><title>dir_251c63bc3f70b60acf43edd6d870a3ef-&gt;dir_1fb090f0c6070330bfaccc4236d3ca0d</title><path fill="none" stroke="#000" d="M82,-143.7623C82,-119.201 82,-75.2474 82,-46.3541"/><polygon fill="#000" stroke="#000" points="85.5 -46.09 82 -36.09 78.5 -46.09 85.5 -46.09"/><g id="a_edge2-headlabel"><a target="_top" xlink:href="dir_000042_000001.xhtml" xlink:title="204"><text x="88.339" y="-47.184" fill="#000" font-family="Helvetica,sans-Serif" font-size="10" text-anchor="middle">204</text></a></g></g><g id="node4" class="node"><title>dir_b9621ae687ab229876c54f8c2df20e15</title><g id="a_node4"><a target="_top" xlink:href="dir_b9621ae687ab229876c54f8c2df20e15.xhtml" xlink:title="common"><polygon fill="none" stroke="#000" points="164 -108 110 -108 110 -72 164 -72 164 -108"/><text x="137" y="-87.5" fill="#000" font-family="Helvetica,sans-Serif" font-size="10" text-anchor="middle">common</text></a></g></g><g id="edge3" class="edge"><title>dir_251c63bc3f70b60acf43edd6d870a3ef-&gt;dir_b9621ae687ab229876c54f8c2df20e15</title><path fill="none" stroke="#000" d="M95.8788,-143.8314C102.2136,-135.5386 109.8384,-125.557 116.7926,-116.4533"/><polygon fill="#000" stroke="#000" points="119.645 -118.485 122.934 -108.413 114.082 -114.235 119.645 -118.485"/><g id="a_edge3-headlabel"><a target="_top" xlink:href="dir_000042_000044.xhtml" xlink:title="1"><text x="119.719" y="-120.565" fill="#000" font-family="Helvetica,sans-Serif" font-size="10" text-anchor="middle">1</text></a></g></g><g id="edge4" class="edge"><title>dir_b496024afd63bafbf4e8da80d7d3a81a-&gt;dir_1fb090f0c6070330bfaccc4236d3ca0d</title><path fill="none" stroke="#000" d="M40.8788,-71.8314C47.2136,-63.5386 54.8384,-53.557 61.7926,-44.4533"/><polygon fill="#000" stroke="#000" points="64.645 -46.485 67.934 -36.413 59.083 -42.235 64.645 -46.485"/><g id="a_edge4-headlabel"><a target="_top" xlink:href="dir_000045_000001.xhtml" xlink:title="4"><text x="64.719" y="-48.565" fill="#000" font-family="Helvetica,sans-Serif" font-size="10" text-anchor="middle">4</text></a></g></g><g id="edge5" class="edge"><title>dir_b9621ae687ab229876c54f8c2df20e15-&gt;dir_1fb090f0c6070330bfaccc4236d3ca0d</title><path fill="none" stroke="#000" d="M123.1212,-71.8314C116.7864,-63.5386 109.1616,-53.557 102.2074,-44.4533"/><polygon fill="#000" stroke="#000" points="104.918 -42.235 96.066 -36.413 99.355 -46.485 104.918 -42.235"/><g id="a_edge5-headlabel"><a target="_top" xlink:href="dir_000044_000001.xhtml" xlink:title="3"><text x="109.356" y="-40.868" fill="#000" font-family="Helvetica,sans-Serif" font-size="10" text-anchor="middle">3</text></a></g></g></g></svg>