<svg xmlns="http://www.w3.org/2000/svg" xmlns:xlink="http://www.w3.org/1999/xlink" width="190pt" height="308" viewBox="0 0 190 231"><g id="graph0" class="graph" transform="scale(1 1) rotate(0) translate(4 227)"><title>src/runtime/NEON/functions</title><polygon fill="#fff" stroke="transparent" points="-4 4 -4 -227 186 -227 186 4 -4 4"/><g id="clust1" class="cluster"><title>clusterdir_a36523fc4c32a6b0076906589b6fc202</title><g id="a_clust1"><a target="_top" xlink:href="dir_a36523fc4c32a6b0076906589b6fc202.xhtml" xlink:title="NEON"><polygon fill="#dde" stroke="#000" points="8 -128 8 -215 174 -215 174 -128 8 -128"/><text x="91" y="-203" fill="#000" font-family="Helvetica,sans-Serif" font-size="10" text-anchor="middle">NEON</text></a></g></g><g id="clust2" class="cluster"><title>clusterdir_4d03f28cfd35f8f734a3b0a2f1168d27</title><g id="a_clust2"><a target="_top" xlink:href="dir_4d03f28cfd35f8f734a3b0a2f1168d27.xhtml"><polygon fill="#eef" stroke="#000" points="16 -136 16 -188 166 -188 166 -136 16 -136"/></a></g></g><g id="node1" class="node"><title>dir_4d03f28cfd35f8f734a3b0a2f1168d27</title><text x="52" y="-159.5" fill="#000" font-family="Helvetica,sans-Serif" font-size="10" text-anchor="middle">functions</text></g><g id="node4" class="node"><title>dir_5815af820a9cc9481f1d0990a0d60286</title><g id="a_node4"><a target="_top" xlink:href="dir_5815af820a9cc9481f1d0990a0d60286.xhtml" xlink:title="support"><polygon fill="none" stroke="#000" points="117 -36 63 -36 63 0 117 0 117 -36"/><text x="90" y="-15.5" fill="#000" font-family="Helvetica,sans-Serif" font-size="10" text-anchor="middle">support</text></a></g></g><g id="edge2" class="edge"><title>dir_4d03f28cfd35f8f734a3b0a2f1168d27-&gt;dir_5815af820a9cc9481f1d0990a0d60286</title><path fill="none" stroke="#000" d="M56.8127,-143.7623C63.3227,-119.0928 74.9953,-74.8598 82.6182,-45.9731"/><polygon fill="#000" stroke="#000" points="86.059 -46.652 85.226 -36.09 79.291 -44.866 86.059 -46.652"/><g id="a_edge2-headlabel"><a target="_top" xlink:href="dir_000114_000119.xhtml" xlink:title="69"><text x="87.887" y="-48.352" fill="#000" font-family="Helvetica,sans-Serif" font-size="10" text-anchor="middle">69</text></a></g></g><g id="node2" class="node"><title>dir_0a6500f7272333a2de6dc109dffb6341</title><g id="a_node2"><a target="_top" xlink:href="dir_0a6500f7272333a2de6dc109dffb6341.xhtml" xlink:title="assembly"><polygon fill="#fff" stroke="#000" points="157.5 -180 98.5 -180 98.5 -144 157.5 -144 157.5 -180"/><text x="128" y="-159.5" fill="#000" font-family="Helvetica,sans-Serif" font-size="10" text-anchor="middle">assembly</text></a></g></g><g id="node3" class="node"><title>dir_214608ef36d61442cb2b0c1c4e9a7def</title><g id="a_node3"><a target="_top" xlink:href="dir_214608ef36d61442cb2b0c1c4e9a7def.xhtml" xlink:title="arm_compute"><polygon fill="#fff" stroke="red" points="163 -108 87 -108 87 -72 163 -72 163 -108"/><text x="125" y="-87.5" fill="#000" font-family="Helvetica,sans-Serif" font-size="10" text-anchor="middle">arm_compute</text></a></g></g><g id="edge1" class="edge"><title>dir_0a6500f7272333a2de6dc109dffb6341-&gt;dir_214608ef36d61442cb2b0c1c4e9a7def</title><path fill="none" stroke="#000" d="M127.243,-143.8314C126.9221,-136.131 126.5406,-126.9743 126.184,-118.4166"/><polygon fill="#000" stroke="#000" points="129.681 -118.259 125.767 -108.413 122.687 -118.55 129.681 -118.259"/><g id="a_edge1-headlabel"><a target="_top" xlink:href="dir_000115_000000.xhtml" xlink:title="4"><text x="132.667" y="-119.232" fill="#000" font-family="Helvetica,sans-Serif" font-size="10" text-anchor="middle">4</text></a></g></g><g id="edge3" class="edge"><title>dir_214608ef36d61442cb2b0c1c4e9a7def-&gt;dir_5815af820a9cc9481f1d0990a0d60286</title><path fill="none" stroke="#000" d="M116.168,-71.8314C112.3014,-63.8771 107.6794,-54.369 103.4032,-45.5723"/><polygon fill="#000" stroke="#000" points="106.471 -43.877 98.951 -36.413 100.175 -46.937 106.471 -43.877"/><g id="a_edge3-headlabel"><a target="_top" xlink:href="dir_000000_000119.xhtml" xlink:title="20"><text x="110.596" y="-43.368" fill="#000" font-family="Helvetica,sans-Serif" font-size="10" text-anchor="middle">20</text></a></g></g></g></svg>