<svg xmlns="http://www.w3.org/2000/svg" xmlns:xlink="http://www.w3.org/1999/xlink" width="248" height="308" viewBox="0 0 186 231"><g id="graph0" class="graph" transform="scale(1 1) rotate(0) translate(4 227)"><title>arm_compute/core/NEON/kernels</title><polygon fill="#fff" stroke="transparent" points="-4 4 -4 -227 182 -227 182 4 -4 4"/><g id="clust1" class="cluster"><title>clusterdir_315f6cf1ec0b2df3ae747ff8286a19f5</title><g id="a_clust1"><a target="_top" xlink:href="dir_315f6cf1ec0b2df3ae747ff8286a19f5.xhtml" xlink:title="NEON"><polygon fill="#dde" stroke="#000" points="12 -128 12 -215 170 -215 170 -128 12 -128"/><text x="91" y="-203" fill="#000" font-family="Helvetica,sans-Serif" font-size="10" text-anchor="middle">NEON</text></a></g></g><g id="clust2" class="cluster"><title>clusterdir_2c3c4cb85e732569e2614ad40a451d53</title><g id="a_clust2"><a target="_top" xlink:href="dir_2c3c4cb85e732569e2614ad40a451d53.xhtml"><polygon fill="#eef" stroke="#000" points="20 -136 20 -188 162 -188 162 -136 20 -136"/></a></g></g><g id="node1" class="node"><title>dir_2c3c4cb85e732569e2614ad40a451d53</title><text x="55" y="-159.5" fill="#000" font-family="Helvetica,sans-Serif" font-size="10" text-anchor="middle">kernels</text></g><g id="node3" class="node"><title>dir_5815af820a9cc9481f1d0990a0d60286</title><g id="a_node3"><a target="_top" xlink:href="dir_5815af820a9cc9481f1d0990a0d60286.xhtml" xlink:title="support"><polygon fill="none" stroke="#000" points="54 -36 0 -36 0 0 54 0 54 -36"/><text x="27" y="-15.5" fill="#000" font-family="Helvetica,sans-Serif" font-size="10" text-anchor="middle">support</text></a></g></g><g id="edge1" class="edge"><title>dir_2c3c4cb85e732569e2614ad40a451d53-&gt;dir_5815af820a9cc9481f1d0990a0d60286</title><path fill="none" stroke="#000" d="M39.0095,-143.9169C31.3462,-134.0371 22.9834,-121.1563 19,-108 12.9201,-87.9194 15.3769,-64.2546 19.1099,-46.2321"/><polygon fill="#000" stroke="#000" points="22.554 -46.874 21.4 -36.342 15.734 -45.295 22.554 -46.874"/><g id="a_edge1-headlabel"><a target="_top" xlink:href="dir_000017_000119.xhtml" xlink:title="5"><text x="24.509" y="-48.517" fill="#000" font-family="Helvetica,sans-Serif" font-size="10" text-anchor="middle">5</text></a></g></g><g id="node4" class="node"><title>dir_7484b841a86f2d7fdd057c9b24fbf230</title><g id="a_node4"><a target="_top" xlink:href="dir_7484b841a86f2d7fdd057c9b24fbf230.xhtml" xlink:title="CPP"><polygon fill="#fff" stroke="red" points="82 -108 28 -108 28 -72 82 -72 82 -108"/><text x="55" y="-87.5" fill="#000" font-family="Helvetica,sans-Serif" font-size="10" text-anchor="middle">CPP</text></a></g></g><g id="edge2" class="edge"><title>dir_2c3c4cb85e732569e2614ad40a451d53-&gt;dir_7484b841a86f2d7fdd057c9b24fbf230</title><path fill="none" stroke="#000" d="M55,-143.8314C55,-136.131 55,-126.9743 55,-118.4166"/><polygon fill="#000" stroke="#000" points="58.5 -118.413 55 -108.413 51.5 -118.413 58.5 -118.413"/><g id="a_edge2-headlabel"><a target="_top" xlink:href="dir_000017_000004.xhtml" xlink:title="2"><text x="61.339" y="-119.508" fill="#000" font-family="Helvetica,sans-Serif" font-size="10" text-anchor="middle">2</text></a></g></g><g id="node2" class="node"><title>dir_6b58bd0be07bddcf3022ab9b026cbf38</title><g id="a_node2"><a target="_top" xlink:href="dir_6b58bd0be07bddcf3022ab9b026cbf38.xhtml" xlink:title="detail"><polygon fill="#fff" stroke="#000" points="154 -180 100 -180 100 -144 154 -144 154 -180"/><text x="127" y="-159.5" fill="#000" font-family="Helvetica,sans-Serif" font-size="10" text-anchor="middle">detail</text></a></g></g><g id="node5" class="node"><title>dir_9eca3c725728e372597fcd0d17c1ea0f</title><g id="a_node5"><a target="_top" xlink:href="dir_9eca3c725728e372597fcd0d17c1ea0f.xhtml" xlink:title="wrapper"><polygon fill="#fff" stroke="red" points="154 -108 100 -108 100 -72 154 -72 154 -108"/><text x="127" y="-87.5" fill="#000" font-family="Helvetica,sans-Serif" font-size="10" text-anchor="middle">wrapper</text></a></g></g><g id="edge3" class="edge"><title>dir_6b58bd0be07bddcf3022ab9b026cbf38-&gt;dir_9eca3c725728e372597fcd0d17c1ea0f</title><path fill="none" stroke="#000" d="M127,-143.8314C127,-136.131 127,-126.9743 127,-118.4166"/><polygon fill="#000" stroke="#000" points="130.5 -118.413 127 -108.413 123.5 -118.413 130.5 -118.413"/><g id="a_edge3-headlabel"><a target="_top" xlink:href="dir_000018_000019.xhtml" xlink:title="1"><text x="133.339" y="-119.508" fill="#000" font-family="Helvetica,sans-Serif" font-size="10" text-anchor="middle">1</text></a></g></g><g id="edge4" class="edge"><title>dir_7484b841a86f2d7fdd057c9b24fbf230-&gt;dir_5815af820a9cc9481f1d0990a0d60286</title><path fill="none" stroke="#000" d="M47.9344,-71.8314C44.874,-63.9617 41.2221,-54.5712 37.8318,-45.8533"/><polygon fill="#000" stroke="#000" points="41.047 -44.465 34.161 -36.413 34.523 -47.002 41.047 -44.465"/><g id="a_edge4-headlabel"><a target="_top" xlink:href="dir_000004_000119.xhtml" xlink:title="1"><text x="44.996" y="-44.286" fill="#000" font-family="Helvetica,sans-Serif" font-size="10" text-anchor="middle">1</text></a></g></g></g></svg>