<svg xmlns="http://www.w3.org/2000/svg" xmlns:xlink="http://www.w3.org/1999/xlink" width="514pt" height="308" viewBox="0 0 514 231"><g id="graph0" class="graph" transform="scale(1 1) rotate(0) translate(4 227)"><title>src/runtime</title><polygon fill="#fff" stroke="transparent" points="-4 4 -4 -227 510 -227 510 4 -4 4"/><g id="clust1" class="cluster"><title>clusterdir_68267d1309a1af8e8297ef4c3efbcdba</title><g id="a_clust1"><a target="_top" xlink:href="dir_68267d1309a1af8e8297ef4c3efbcdba.xhtml" xlink:title="src"><polygon fill="#dde" stroke="#000" points="8 -128 8 -215 498 -215 498 -128 8 -128"/><text x="253" y="-203" fill="#000" font-family="Helvetica,sans-Serif" font-size="10" text-anchor="middle">src</text></a></g></g><g id="clust2" class="cluster"><title>clusterdir_bf9f26469d00835ba20ff8d80ee5a804</title><g id="a_clust2"><a target="_top" xlink:href="dir_bf9f26469d00835ba20ff8d80ee5a804.xhtml"><polygon fill="#eef" stroke="#000" points="16 -136 16 -188 490 -188 490 -136 16 -136"/></a></g></g><g id="node1" class="node"><title>dir_bf9f26469d00835ba20ff8d80ee5a804</title><text x="455" y="-159.5" fill="#000" font-family="Helvetica,sans-Serif" font-size="10" text-anchor="middle">runtime</text></g><g id="node2" class="node"><title>dir_43c3fdbf778d1fd99e2e38f09fddd920</title><g id="a_node2"><a target="_top" xlink:href="dir_43c3fdbf778d1fd99e2e38f09fddd920.xhtml" xlink:title="CL"><polygon fill="#fff" stroke="red" points="78 -180 24 -180 24 -144 78 -144 78 -180"/><text x="51" y="-159.5" fill="#000" font-family="Helvetica,sans-Serif" font-size="10" text-anchor="middle">CL</text></a></g></g><g id="node7" class="node"><title>dir_214608ef36d61442cb2b0c1c4e9a7def</title><g id="a_node7"><a target="_top" xlink:href="dir_214608ef36d61442cb2b0c1c4e9a7def.xhtml" xlink:title="arm_compute"><polygon fill="#fff" stroke="red" points="233 -108 157 -108 157 -72 233 -72 233 -108"/><text x="195" y="-87.5" fill="#000" font-family="Helvetica,sans-Serif" font-size="10" text-anchor="middle">arm_compute</text></a></g></g><g id="edge5" class="edge"><title>dir_43c3fdbf778d1fd99e2e38f09fddd920-&gt;dir_214608ef36d61442cb2b0c1c4e9a7def</title><path fill="none" stroke="#000" d="M67.352,-143.793C73.1297,-138.1521 79.9537,-132.2967 87,-128 105.4376,-116.7572 127.6774,-108.2129 147.1714,-102.1017"/><polygon fill="#000" stroke="#000" points="148.216 -105.442 156.785 -99.211 146.201 -98.739 148.216 -105.442"/><g id="a_edge5-headlabel"><a target="_top" xlink:href="dir_000106_000000.xhtml" xlink:title="589"><text x="145.591" y="-106.696" fill="#000" font-family="Helvetica,sans-Serif" font-size="10" text-anchor="middle">589</text></a></g></g><g id="node8" class="node"><title>dir_5815af820a9cc9481f1d0990a0d60286</title><g id="a_node8"><a target="_top" xlink:href="dir_5815af820a9cc9481f1d0990a0d60286.xhtml" xlink:title="support"><polygon fill="none" stroke="#000" points="222 -36 168 -36 168 0 222 0 222 -36"/><text x="195" y="-15.5" fill="#000" font-family="Helvetica,sans-Serif" font-size="10" text-anchor="middle">support</text></a></g></g><g id="edge6" class="edge"><title>dir_43c3fdbf778d1fd99e2e38f09fddd920-&gt;dir_5815af820a9cc9481f1d0990a0d60286</title><path fill="none" stroke="#000" d="M65.1113,-143.9514C80.1261,-125.1861 104.9813,-95.347 129,-72 139.5928,-61.7035 151.9549,-51.2297 163.0977,-42.2813"/><polygon fill="#000" stroke="#000" points="165.287 -45.012 170.953 -36.059 160.941 -39.525 165.287 -45.012"/><g id="a_edge6-headlabel"><a target="_top" xlink:href="dir_000106_000119.xhtml" xlink:title="78"><text x="164.232" y="-46.969" fill="#000" font-family="Helvetica,sans-Serif" font-size="10" text-anchor="middle">78</text></a></g></g><g id="node3" class="node"><title>dir_9240672d44dfdb0f539b385a1f058d2d</title><g id="a_node3"><a target="_top" xlink:href="dir_9240672d44dfdb0f539b385a1f058d2d.xhtml" xlink:title="CPP"><polygon fill="#fff" stroke="red" points="150 -180 96 -180 96 -144 150 -144 150 -180"/><text x="123" y="-159.5" fill="#000" font-family="Helvetica,sans-Serif" font-size="10" text-anchor="middle">CPP</text></a></g></g><g id="edge9" class="edge"><title>dir_9240672d44dfdb0f539b385a1f058d2d-&gt;dir_214608ef36d61442cb2b0c1c4e9a7def</title><path fill="none" stroke="#000" d="M141.1686,-143.8314C149.7152,-135.2848 160.0557,-124.9443 169.3802,-115.6198"/><polygon fill="#000" stroke="#000" points="171.99 -117.959 176.587 -108.413 167.041 -113.01 171.99 -117.959"/><g id="a_edge9-headlabel"><a target="_top" xlink:href="dir_000109_000000.xhtml" xlink:title="18"><text x="171.456" y="-120.009" fill="#000" font-family="Helvetica,sans-Serif" font-size="10" text-anchor="middle">18</text></a></g></g><g id="edge10" class="edge"><title>dir_9240672d44dfdb0f539b385a1f058d2d-&gt;dir_5815af820a9cc9481f1d0990a0d60286</title><path fill="none" stroke="#000" d="M125.6023,-143.8658C128.8483,-125.0307 135.5535,-95.1354 148,-72 153.3548,-62.0467 160.8359,-52.3507 168.2571,-43.9852"/><polygon fill="#000" stroke="#000" points="171.05 -46.12 175.282 -36.407 165.917 -41.361 171.05 -46.12"/><g id="a_edge10-headlabel"><a target="_top" xlink:href="dir_000109_000119.xhtml" xlink:title="3"><text x="170.689" y="-48.187" fill="#000" font-family="Helvetica,sans-Serif" font-size="10" text-anchor="middle">3</text></a></g></g><g id="node4" class="node"><title>dir_cf4458890b03c2fecc4456bb26b0662d</title><g id="a_node4"><a target="_top" xlink:href="dir_cf4458890b03c2fecc4456bb26b0662d.xhtml" xlink:title="GLES_COMPUTE"><polygon fill="#fff" stroke="red" points="338 -180 240 -180 240 -144 338 -144 338 -180"/><text x="289" y="-159.5" fill="#000" font-family="Helvetica,sans-Serif" font-size="10" text-anchor="middle">GLES_COMPUTE</text></a></g></g><g id="edge7" class="edge"><title>dir_cf4458890b03c2fecc4456bb26b0662d-&gt;dir_214608ef36d61442cb2b0c1c4e9a7def</title><path fill="none" stroke="#000" d="M265.2798,-143.8314C253.5906,-134.8779 239.3312,-123.9558 226.7191,-114.2955"/><polygon fill="#000" stroke="#000" points="228.78 -111.465 218.713 -108.163 224.523 -117.022 228.78 -111.465"/><g id="a_edge7-headlabel"><a target="_top" xlink:href="dir_000111_000000.xhtml" xlink:title="125"><text x="233.36" y="-108.897" fill="#000" font-family="Helvetica,sans-Serif" font-size="10" text-anchor="middle">125</text></a></g></g><g id="edge8" class="edge"><title>dir_cf4458890b03c2fecc4456bb26b0662d-&gt;dir_5815af820a9cc9481f1d0990a0d60286</title><path fill="none" stroke="#000" d="M280.9945,-143.7019C272.4608,-124.9964 257.9949,-95.4432 242,-72 235.3499,-62.2531 227.1682,-52.3088 219.5056,-43.6541"/><polygon fill="#000" stroke="#000" points="221.981 -41.173 212.673 -36.111 216.792 -45.872 221.981 -41.173"/><g id="a_edge8-headlabel"><a target="_top" xlink:href="dir_000111_000119.xhtml" xlink:title="16"><text x="226.498" y="-39.431" fill="#000" font-family="Helvetica,sans-Serif" font-size="10" text-anchor="middle">16</text></a></g></g><g id="node5" class="node"><title>dir_a36523fc4c32a6b0076906589b6fc202</title><g id="a_node5"><a target="_top" xlink:href="dir_a36523fc4c32a6b0076906589b6fc202.xhtml" xlink:title="NEON"><polygon fill="#fff" stroke="red" points="410 -180 356 -180 356 -144 410 -144 410 -180"/><text x="383" y="-159.5" fill="#000" font-family="Helvetica,sans-Serif" font-size="10" text-anchor="middle">NEON</text></a></g></g><g id="edge2" class="edge"><title>dir_a36523fc4c32a6b0076906589b6fc202-&gt;dir_214608ef36d61442cb2b0c1c4e9a7def</title><path fill="none" stroke="#000" d="M367.2326,-143.7563C361.3975,-137.9766 354.3899,-132.0458 347,-128 314.8458,-110.3962 274.4221,-100.7959 243.3463,-95.651"/><polygon fill="#000" stroke="#000" points="243.61 -92.15 233.191 -94.072 242.535 -99.067 243.61 -92.15"/><g id="a_edge2-headlabel"><a target="_top" xlink:href="dir_000113_000000.xhtml" xlink:title="475"><text x="247.599" y="-87.397" fill="#000" font-family="Helvetica,sans-Serif" font-size="10" text-anchor="middle">475</text></a></g></g><g id="edge3" class="edge"><title>dir_a36523fc4c32a6b0076906589b6fc202-&gt;dir_5815af820a9cc9481f1d0990a0d60286</title><path fill="none" stroke="#000" d="M364.7368,-143.8769C359.1777,-138.602 352.9592,-132.9348 347,-128 308.7025,-96.286 262.0332,-63.2822 230.5928,-41.8027"/><polygon fill="#000" stroke="#000" points="232.386 -38.789 222.149 -36.061 228.45 -44.578 232.386 -38.789"/><g id="a_edge3-headlabel"><a target="_top" xlink:href="dir_000113_000119.xhtml" xlink:title="69"><text x="236.955" y="-35.963" fill="#000" font-family="Helvetica,sans-Serif" font-size="10" text-anchor="middle">69</text></a></g></g><g id="node6" class="node"><title>dir_016fa5637888b23a90b93c4e98f1766c</title><g id="a_node6"><a target="_top" xlink:href="dir_016fa5637888b23a90b93c4e98f1766c.xhtml" xlink:title="OMP"><polygon fill="#fff" stroke="#000" points="222 -180 168 -180 168 -144 222 -144 222 -180"/><text x="195" y="-159.5" fill="#000" font-family="Helvetica,sans-Serif" font-size="10" text-anchor="middle">OMP</text></a></g></g><g id="edge1" class="edge"><title>dir_016fa5637888b23a90b93c4e98f1766c-&gt;dir_214608ef36d61442cb2b0c1c4e9a7def</title><path fill="none" stroke="#000" d="M195,-143.8314C195,-136.131 195,-126.9743 195,-118.4166"/><polygon fill="#000" stroke="#000" points="198.5 -118.413 195 -108.413 191.5 -118.413 198.5 -118.413"/><g id="a_edge1-headlabel"><a target="_top" xlink:href="dir_000116_000000.xhtml" xlink:title="6"><text x="201.339" y="-119.508" fill="#000" font-family="Helvetica,sans-Serif" font-size="10" text-anchor="middle">6</text></a></g></g><g id="edge4" class="edge"><title>dir_214608ef36d61442cb2b0c1c4e9a7def-&gt;dir_5815af820a9cc9481f1d0990a0d60286</title><path fill="none" stroke="#000" d="M195,-71.8314C195,-64.131 195,-54.9743 195,-46.4166"/><polygon fill="#000" stroke="#000" points="198.5 -46.413 195 -36.413 191.5 -46.413 198.5 -46.413"/><g id="a_edge4-headlabel"><a target="_top" xlink:href="dir_000000_000119.xhtml" xlink:title="20"><text x="201.339" y="-47.508" fill="#000" font-family="Helvetica,sans-Serif" font-size="10" text-anchor="middle">20</text></a></g></g></g></svg>