<svg xmlns="http://www.w3.org/2000/svg" xmlns:xlink="http://www.w3.org/1999/xlink" width="512pt" height="212" viewBox="0 0 512 159"><g id="graph0" class="graph" transform="scale(1 1) rotate(0) translate(4 155)"><title>Graph Legend</title><polygon fill="#fff" stroke="transparent" points="-4 4 -4 -155 508 -155 508 4 -4 4"/><g id="node1" class="node"><title>Node9</title><polygon fill="#bfbfbf" stroke="#000" points="293 -19 239 -19 239 0 293 0 293 -19"/><text x="266" y="-7" fill="#000" font-family="Helvetica,sans-Serif" font-size="10" text-anchor="middle">Inherited</text></g><g id="node2" class="node"><title>Node10</title><g id="a_node2"><a xlink:href="$classPublicBase.xhtml" xlink:title="PublicBase"><polygon fill="none" stroke="#000" points="66 -85 0 -85 0 -66 66 -66 66 -85"/><text x="33" y="-73" fill="#000" font-family="Helvetica,sans-Serif" font-size="10" text-anchor="middle">PublicBase</text></a></g></g><g id="edge1" class="edge"><title>Node10-&gt;Node9</title><path fill="none" stroke="#191970" d="M76.0971,-63.2922C123.6862,-49.8121 198.8489,-28.5213 238.8499,-17.1906"/><polygon fill="#191970" stroke="#191970" points="75.051 -59.951 66.383 -66.044 76.959 -66.686 75.051 -59.951"/></g><g id="node3" class="node"><title>Node11</title><g id="a_node3"><a xlink:href="$classTruncated.xhtml" xlink:title="Truncated"><polygon fill="none" stroke="red" points="63 -151 3 -151 3 -132 63 -132 63 -151"/><text x="33" y="-139" fill="#000" font-family="Helvetica,sans-Serif" font-size="10" text-anchor="middle">Truncated</text></a></g></g><g id="edge2" class="edge"><title>Node11-&gt;Node10</title><path fill="none" stroke="#191970" d="M33,-121.732C33,-109.6966 33,-94.847 33,-85.2785"/><polygon fill="#191970" stroke="#191970" points="29.5 -121.761 33 -131.762 36.5 -121.761 29.5 -121.761"/></g><g id="node4" class="node"><title>Node13</title><g id="a_node4"><a xlink:href="$classProtectedBase.xhtml" xlink:title="ProtectedBase"><polygon fill="none" stroke="#000" points="165.5 -85 84.5 -85 84.5 -66 165.5 -66 165.5 -85"/><text x="125" y="-73" fill="#000" font-family="Helvetica,sans-Serif" font-size="10" text-anchor="middle">ProtectedBase</text></a></g></g><g id="edge3" class="edge"><title>Node13-&gt;Node9</title><path fill="none" stroke="#006400" d="M154.574,-61.6568C181.8226,-48.9022 221.5486,-30.3071 245.4726,-19.1085"/><polygon fill="#006400" stroke="#006400" points="153.076 -58.494 145.503 -65.903 156.043 -64.834 153.076 -58.494"/></g><g id="node5" class="node"><title>Node14</title><g id="a_node5"><a xlink:href="$classPrivateBase.xhtml" xlink:title="PrivateBase"><polygon fill="none" stroke="#000" points="254 -85 184 -85 184 -66 254 -66 254 -85"/><text x="219" y="-73" fill="#000" font-family="Helvetica,sans-Serif" font-size="10" text-anchor="middle">PrivateBase</text></a></g></g><g id="edge4" class="edge"><title>Node14-&gt;Node9</title><path fill="none" stroke="#8b1a1a" d="M231.7818,-57.5511C240.559,-45.2256 251.875,-29.3352 259.0365,-19.2785"/><polygon fill="#8b1a1a" stroke="#8b1a1a" points="228.885 -55.586 225.935 -65.761 234.587 -59.646 228.885 -55.586"/></g><g id="node6" class="node"><title>Node15</title><polygon fill="none" stroke="#bfbfbf" points="355.5 -85 272.5 -85 272.5 -66 355.5 -66 355.5 -85"/><text x="314" y="-73" fill="#000" font-family="Helvetica,sans-Serif" font-size="10" text-anchor="middle">Undocumented</text></g><g id="edge5" class="edge"><title>Node15-&gt;Node9</title><path fill="none" stroke="#191970" d="M300.9462,-57.5511C291.9823,-45.2256 280.4256,-29.3352 273.1116,-19.2785"/><polygon fill="#191970" stroke="#191970" points="298.205 -59.733 306.917 -65.761 303.866 -55.615 298.205 -59.733"/></g><g id="node7" class="node"><title>Node16</title><g id="a_node7"><a xlink:href="$classTempl.xhtml" xlink:title="Templ&lt; int &gt;"><polygon fill="none" stroke="#000" points="446 -85 374 -85 374 -66 446 -66 446 -85"/><text x="410" y="-73" fill="#000" font-family="Helvetica,sans-Serif" font-size="10" text-anchor="middle">Templ&lt; int &gt;</text></a></g></g><g id="edge6" class="edge"><title>Node16-&gt;Node9</title><path fill="none" stroke="#191970" d="M379.7967,-61.6568C351.9684,-48.9022 311.3972,-30.3071 286.9641,-19.1085"/><polygon fill="#191970" stroke="#191970" points="378.512 -64.918 389.061 -65.903 381.429 -58.555 378.512 -64.918"/></g><g id="node8" class="node"><title>Node17</title><g id="a_node8"><a xlink:href="$classTempl.xhtml" xlink:title="Templ&lt; T &gt;"><polygon fill="none" stroke="#000" points="444 -151 376 -151 376 -132 444 -132 444 -151"/><text x="410" y="-139" fill="#000" font-family="Helvetica,sans-Serif" font-size="10" text-anchor="middle">Templ&lt; T &gt;</text></a></g></g><g id="edge7" class="edge"><title>Node17-&gt;Node16</title><path fill="none" stroke="orange" stroke-dasharray="5 2" d="M410,-121.732C410,-109.6966 410,-94.847 410,-85.2785"/><polygon fill="orange" stroke="orange" points="406.5 -121.761 410 -131.762 413.5 -121.761 406.5 -121.761"/><text x="424.5" y="-106" fill="#000" font-family="Helvetica,sans-Serif" font-size="10" text-anchor="middle">&lt; int &gt;</text></g><g id="node9" class="node"><title>Node18</title><g id="a_node9"><a xlink:href="$classUsed.xhtml" xlink:title="Used"><polygon fill="none" stroke="#000" points="504 -85 464 -85 464 -66 504 -66 504 -85"/><text x="484" y="-73" fill="#000" font-family="Helvetica,sans-Serif" font-size="10" text-anchor="middle">Used</text></a></g></g><g id="edge8" class="edge"><title>Node18-&gt;Node9</title><path fill="none" stroke="#9a32cd" stroke-dasharray="5 2" d="M454.0514,-65.7558C391.121,-46.1153 328.3058,-27.6246 293.2977,-17.4177"/><polygon fill="#9a32cd" stroke="#9a32cd" points="453.151 -69.141 463.74 -68.789 455.242 -62.461 453.151 -69.141"/><text x="422.5" y="-40" fill="#000" font-family="Helvetica,sans-Serif" font-size="10" text-anchor="middle">m_usedClass</text></g></g></svg>