<svg xmlns="http://www.w3.org/2000/svg" xmlns:xlink="http://www.w3.org/1999/xlink" width="272pt" height="240" viewBox="0 0 272 180"><g id="graph0" class="graph" transform="scale(1 1) rotate(0) translate(4 176)"><title>Graphical Class Hierarchy</title><polygon fill="#fff" stroke="transparent" points="-4 4 -4 -176 268 -176 268 4 -4 4"/><g id="node1" class="node"><title>Node0</title><g id="a_node1"><a target="_top" xlink:href="classarm__compute_1_1_i_tensor.xhtml" xlink:title="Interface for NEON tensor."><polygon fill="#fff" stroke="#000" points="0 -57.5 0 -76.5 50 -76.5 50 -57.5 0 -57.5"/><text x="25" y="-64.5" fill="#000" font-family="Helvetica,sans-Serif" font-size="10" text-anchor="middle">ITensor</text></a></g></g><g id="node2" class="node"><title>Node1</title><g id="a_node2"><a target="_top" xlink:href="classarm__compute_1_1_i_c_l_tensor.xhtml" xlink:title="Interface for OpenCL tensor."><polygon fill="#fff" stroke="#000" points="87.5 -114.5 87.5 -133.5 149.5 -133.5 149.5 -114.5 87.5 -114.5"/><text x="118.5" y="-121.5" fill="#000" font-family="Helvetica,sans-Serif" font-size="10" text-anchor="middle">ICLTensor</text></a></g></g><g id="edge1" class="edge"><title>Node0-&gt;Node1</title><path fill="none" stroke="#191970" d="M48.9966,-82.165C60.1954,-89.1865 73.7325,-97.5951 86,-105 91.1478,-108.1073 96.793,-111.4351 101.9133,-114.4236"/><polygon fill="#191970" stroke="#191970" points="50.547 -79.006 40.219 -76.646 46.821 -84.932 50.547 -79.006"/></g><g id="node5" class="node"><title>Node4</title><g id="a_node5"><a target="_top" xlink:href="classarm__compute_1_1_i_g_c_tensor.xhtml" xlink:title="Interface for GLES Compute tensor."><polygon fill="#fff" stroke="#000" points="86 -76.5 86 -95.5 151 -95.5 151 -76.5 86 -76.5"/><text x="118.5" y="-83.5" fill="#000" font-family="Helvetica,sans-Serif" font-size="10" text-anchor="middle">IGCTensor</text></a></g></g><g id="edge4" class="edge"><title>Node0-&gt;Node4</title><path fill="none" stroke="#191970" d="M60.063,-74.1251C68.5577,-75.8513 77.6025,-77.6893 85.9746,-79.3906"/><polygon fill="#191970" stroke="#191970" points="60.553 -70.653 50.056 -72.092 59.159 -77.513 60.553 -70.653"/></g><g id="node7" class="node"><title>Node6</title><g id="a_node7"><a target="_top" xlink:href="classarm__compute_1_1_sub_tensor.xhtml" xlink:title="Basic implementation of the sub-tensor interface."><polygon fill="#fff" stroke="#000" points="86.5 -38.5 86.5 -57.5 150.5 -57.5 150.5 -38.5 86.5 -38.5"/><text x="118.5" y="-45.5" fill="#000" font-family="Helvetica,sans-Serif" font-size="10" text-anchor="middle">SubTensor</text></a></g></g><g id="edge6" class="edge"><title>Node0-&gt;Node6</title><path fill="none" stroke="#191970" d="M59.8818,-59.9117C68.546,-58.1511 77.7927,-56.2721 86.3206,-54.5391"/><polygon fill="#191970" stroke="#191970" points="59.159 -56.487 50.056 -61.908 60.553 -63.347 59.159 -56.487"/></g><g id="node8" class="node"><title>Node7</title><g id="a_node8"><a target="_top" xlink:href="classarm__compute_1_1_tensor.xhtml" xlink:title="Basic implementation of the tensor interface."><polygon fill="#fff" stroke="#000" points="95 -.5 95 -19.5 142 -19.5 142 -.5 95 -.5"/><text x="118.5" y="-7.5" fill="#000" font-family="Helvetica,sans-Serif" font-size="10" text-anchor="middle">Tensor</text></a></g></g><g id="edge7" class="edge"><title>Node0-&gt;Node7</title><path fill="none" stroke="#191970" d="M48.9966,-51.835C60.1954,-44.8135 73.7325,-36.4049 86,-29 91.1478,-25.8927 96.793,-22.5649 101.9133,-19.5764"/><polygon fill="#191970" stroke="#191970" points="46.821 -49.068 40.219 -57.354 50.547 -54.994 46.821 -49.068"/></g><g id="node3" class="node"><title>Node2</title><g id="a_node3"><a target="_top" xlink:href="classarm__compute_1_1_c_l_sub_tensor.xhtml" xlink:title="Basic implementation of the OpenCL sub-tensor interface."><polygon fill="#fff" stroke="#000" points="187 -152.5 187 -171.5 264 -171.5 264 -152.5 187 -152.5"/><text x="225.5" y="-159.5" fill="#000" font-family="Helvetica,sans-Serif" font-size="10" text-anchor="middle">CLSubTensor</text></a></g></g><g id="edge2" class="edge"><title>Node1-&gt;Node2</title><path fill="none" stroke="#191970" d="M155.0258,-136.9718C169.2812,-142.0344 185.3302,-147.7341 198.508,-152.4141"/><polygon fill="#191970" stroke="#191970" points="156.095 -133.637 145.501 -133.589 153.753 -140.234 156.095 -133.637"/></g><g id="node4" class="node"><title>Node3</title><g id="a_node4"><a target="_top" xlink:href="classarm__compute_1_1_c_l_tensor.xhtml" xlink:title="Basic implementation of the OpenCL tensor interface."><polygon fill="#fff" stroke="#000" points="196 -114.5 196 -133.5 255 -133.5 255 -114.5 196 -114.5"/><text x="225.5" y="-121.5" fill="#000" font-family="Helvetica,sans-Serif" font-size="10" text-anchor="middle">CLTensor</text></a></g></g><g id="edge3" class="edge"><title>Node1-&gt;Node3</title><path fill="none" stroke="#191970" d="M159.9786,-124C171.9553,-124 184.7796,-124 195.8788,-124"/><polygon fill="#191970" stroke="#191970" points="159.737 -120.5 149.737 -124 159.736 -127.5 159.737 -120.5"/></g><g id="node6" class="node"><title>Node5</title><g id="a_node6"><a target="_top" xlink:href="classarm__compute_1_1_g_c_tensor.xhtml" xlink:title="Interface for OpenGL ES tensor."><polygon fill="#fff" stroke="#000" points="194.5 -76.5 194.5 -95.5 256.5 -95.5 256.5 -76.5 194.5 -76.5"/><text x="225.5" y="-83.5" fill="#000" font-family="Helvetica,sans-Serif" font-size="10" text-anchor="middle">GCTensor</text></a></g></g><g id="edge5" class="edge"><title>Node4-&gt;Node5</title><path fill="none" stroke="#191970" d="M161.5061,-86C172.5365,-86 184.1863,-86 194.4793,-86"/><polygon fill="#191970" stroke="#191970" points="161.185 -82.5 151.185 -86 161.185 -89.5 161.185 -82.5"/></g></g></svg>