<svg xmlns="http://www.w3.org/2000/svg" xmlns:xlink="http://www.w3.org/1999/xlink" width="278pt" height="218pt" viewBox="0 0 278 218"><g id="graph0" class="graph" transform="scale(1 1) rotate(0) translate(4 214)"><title>Graphical Class Hierarchy</title><polygon fill="#fff" stroke="transparent" points="-4 4 -4 -214 274 -214 274 4 -4 4"/><g id="node1" class="node"><title>Node0</title><g id="a_node1"><a target="_top" xlink:href="classarm__compute_1_1graph_1_1_i_graph_mutator.xhtml" xlink:title="Graph mutator interface."><polygon fill="#fff" stroke="#000" points="0 -95.5 0 -114.5 79 -114.5 79 -95.5 0 -95.5"/><text x="39.5" y="-102.5" fill="#000" font-family="Helvetica,sans-Serif" font-size="10" text-anchor="middle">IGraphMutator</text></a></g></g><g id="node2" class="node"><title>Node1</title><g id="a_node2"><a target="_top" xlink:href="classarm__compute_1_1graph_1_1_depth_concat_sub_tensor_mutator.xhtml" xlink:title="Mutation pass to optimize depth concatenation operations by using sub-tensors."><polygon fill="#fff" stroke="#000" points="115 -190.5 115 -209.5 270 -209.5 270 -190.5 115 -190.5"/><text x="192.5" y="-197.5" fill="#000" font-family="Helvetica,sans-Serif" font-size="10" text-anchor="middle">DepthConcatSubTensorMutator</text></a></g></g><g id="edge1" class="edge"><title>Node0-&gt;Node1</title><path fill="none" stroke="#191970" d="M52.4364,-122.8377C66.0526,-140.2981 89.0806,-166.3462 115,-181 121.8739,-184.8862 129.5289,-187.9838 137.2763,-190.4513"/><polygon fill="#191970" stroke="#191970" points="55.03 -120.464 46.208 -114.596 49.445 -124.684 55.03 -120.464"/></g><g id="node3" class="node"><title>Node2</title><g id="a_node3"><a target="_top" xlink:href="classarm__compute_1_1graph_1_1_grouped_convolution_mutator.xhtml" xlink:title="Mutation pass to implement/optimize grouped convolutions."><polygon fill="#fff" stroke="#000" points="123.5 -152.5 123.5 -171.5 261.5 -171.5 261.5 -152.5 123.5 -152.5"/><text x="192.5" y="-159.5" fill="#000" font-family="Helvetica,sans-Serif" font-size="10" text-anchor="middle">GroupedConvolutionMutator</text></a></g></g><g id="edge2" class="edge"><title>Node0-&gt;Node2</title><path fill="none" stroke="#191970" d="M64.6023,-119.4345C78.9953,-127.2478 97.6076,-136.5851 115,-143 124.878,-146.6434 135.7214,-149.7981 146.0864,-152.4331"/><polygon fill="#191970" stroke="#191970" points="66.253 -116.348 55.809 -114.566 62.862 -122.472 66.253 -116.348"/></g><g id="node4" class="node"><title>Node3</title><g id="a_node4"><a target="_top" xlink:href="classarm__compute_1_1graph_1_1_in_place_operation_mutator.xhtml" xlink:title="Mutation pass to optimize operations that can be performed in-place."><polygon fill="#fff" stroke="#000" points="130 -114.5 130 -133.5 255 -133.5 255 -114.5 130 -114.5"/><text x="192.5" y="-121.5" fill="#000" font-family="Helvetica,sans-Serif" font-size="10" text-anchor="middle">InPlaceOperationMutator</text></a></g></g><g id="edge3" class="edge"><title>Node0-&gt;Node3</title><path fill="none" stroke="#191970" d="M89.3629,-111.1921C102.2611,-112.7939 116.3137,-114.539 129.7776,-116.2109"/><polygon fill="#191970" stroke="#191970" points="89.655 -107.702 79.299 -109.942 88.792 -114.648 89.655 -107.702"/></g><g id="node5" class="node"><title>Node4</title><g id="a_node5"><a target="_top" xlink:href="classarm__compute_1_1graph_1_1_node_execution_method_mutator.xhtml" xlink:title="Mutation pass to fall-back to default execution method."><polygon fill="#fff" stroke="#000" points="118 -76.5 118 -95.5 267 -95.5 267 -76.5 118 -76.5"/><text x="192.5" y="-83.5" fill="#000" font-family="Helvetica,sans-Serif" font-size="10" text-anchor="middle">NodeExecutionMethodMutator</text></a></g></g><g id="edge4" class="edge"><title>Node0-&gt;Node4</title><path fill="none" stroke="#191970" d="M89.3453,-98.8101C98.4909,-97.6743 108.2173,-96.4665 117.9031,-95.2637"/><polygon fill="#191970" stroke="#191970" points="88.792 -95.352 79.299 -100.058 89.655 -102.298 88.792 -95.352"/></g><g id="node6" class="node"><title>Node5</title><g id="a_node6"><a target="_top" xlink:href="classarm__compute_1_1graph_1_1_node_fusion_mutator.xhtml" xlink:title="Mutation pass to fuss nodes."><polygon fill="#fff" stroke="#000" points="141.5 -38.5 141.5 -57.5 243.5 -57.5 243.5 -38.5 141.5 -38.5"/><text x="192.5" y="-45.5" fill="#000" font-family="Helvetica,sans-Serif" font-size="10" text-anchor="middle">NodeFusionMutator</text></a></g></g><g id="edge5" class="edge"><title>Node0-&gt;Node5</title><path fill="none" stroke="#191970" d="M64.6023,-90.5655C78.9953,-82.7522 97.6076,-73.4149 115,-67 124.878,-63.3566 135.7214,-60.2019 146.0864,-57.5669"/><polygon fill="#191970" stroke="#191970" points="62.862 -87.528 55.809 -95.434 66.253 -93.652 62.862 -87.528"/></g><g id="node7" class="node"><title>Node6</title><g id="a_node7"><a target="_top" xlink:href="classarm__compute_1_1graph_1_1_split_layer_sub_tensor_mutator.xhtml" xlink:title="Mutation pass to optimize split operations by using sub-tensors."><polygon fill="#fff" stroke="#000" points="122.5 -.5 122.5 -19.5 262.5 -19.5 262.5 -.5 122.5 -.5"/><text x="192.5" y="-7.5" fill="#000" font-family="Helvetica,sans-Serif" font-size="10" text-anchor="middle">SplitLayerSubTensorMutator</text></a></g></g><g id="edge6" class="edge"><title>Node0-&gt;Node6</title><path fill="none" stroke="#191970" d="M52.4364,-87.1623C66.0526,-69.7019 89.0806,-43.6538 115,-29 121.8739,-25.1138 129.5289,-22.0162 137.2763,-19.5487"/><polygon fill="#191970" stroke="#191970" points="49.445 -85.316 46.208 -95.404 55.03 -89.536 49.445 -85.316"/></g></g></svg>