<svg xmlns="http://www.w3.org/2000/svg" xmlns:xlink="http://www.w3.org/1999/xlink" width="251pt" height="88" viewBox="0 0 251 66"><g id="graph0" class="graph" transform="scale(1 1) rotate(0) translate(4 62)"><title>Graphical Class Hierarchy</title><polygon fill="#fff" stroke="transparent" points="-4 4 -4 -62 247 -62 247 4 -4 4"/><g id="node1" class="node"><title>Node0</title><g id="a_node1"><a target="_top" xlink:href="classarm__compute_1_1utils_1_1_i_image_data_feeder.xhtml" xlink:title="Image feeder interface."><polygon fill="#fff" stroke="#000" points="0 -19.5 0 -38.5 98 -38.5 98 -19.5 0 -19.5"/><text x="49" y="-26.5" fill="#000" font-family="Helvetica,sans-Serif" font-size="10" text-anchor="middle">IImageDataFeeder</text></a></g></g><g id="node2" class="node"><title>Node1</title><g id="a_node2"><a target="_top" xlink:href="classarm__compute_1_1utils_1_1_file_image_feeder.xhtml" xlink:title="File Image feeder concrete implementation."><polygon fill="#fff" stroke="#000" points="144 -38.5 144 -57.5 233 -57.5 233 -38.5 144 -38.5"/><text x="188.5" y="-45.5" fill="#000" font-family="Helvetica,sans-Serif" font-size="10" text-anchor="middle">FileImageFeeder</text></a></g></g><g id="edge1" class="edge"><title>Node0-&gt;Node1</title><path fill="none" stroke="#191970" d="M108.1287,-37.0534C120.128,-38.6877 132.5568,-40.3805 143.9493,-41.9322"/><polygon fill="#191970" stroke="#191970" points="108.563 -33.58 98.183 -35.699 107.619 -40.516 108.563 -33.58"/></g><g id="node3" class="node"><title>Node2</title><g id="a_node3"><a target="_top" xlink:href="classarm__compute_1_1utils_1_1_memory_image_feeder.xhtml" xlink:title="Memory Image feeder concrete implementation."><polygon fill="#fff" stroke="#000" points="134 -.5 134 -19.5 243 -19.5 243 -.5 134 -.5"/><text x="188.5" y="-7.5" fill="#000" font-family="Helvetica,sans-Serif" font-size="10" text-anchor="middle">MemoryImageFeeder</text></a></g></g><g id="edge2" class="edge"><title>Node0-&gt;Node2</title><path fill="none" stroke="#191970" d="M108.2841,-20.9255C116.6773,-19.7823 125.2775,-18.611 133.5834,-17.4797"/><polygon fill="#191970" stroke="#191970" points="107.619 -17.484 98.183 -22.301 108.563 -24.42 107.619 -17.484"/></g></g></svg>