<svg xmlns="http://www.w3.org/2000/svg" xmlns:xlink="http://www.w3.org/1999/xlink" width="253pt" height="1168pt" viewBox="0 0 253 1168"><g id="graph0" class="graph" transform="scale(1 1) rotate(0) translate(4 1164)"><title>Graphical Class Hierarchy</title><polygon fill="#fff" stroke="transparent" points="-4 4 -4 -1164 249 -1164 249 4 -4 4"/><g id="node1" class="node"><title>Node0</title><g id="a_node1"><a target="_top" xlink:href="classarm__compute_1_1graph_1_1_i_node.xhtml" xlink:title="Node interface."><polygon fill="#fff" stroke="#000" points="0 -570.5 0 -589.5 43 -589.5 43 -570.5 0 -570.5"/><text x="21.5" y="-577.5" fill="#000" font-family="Helvetica,sans-Serif" font-size="10" text-anchor="middle">INode</text></a></g></g><g id="node2" class="node"><title>Node1</title><g id="a_node2"><a target="_top" xlink:href="classarm__compute_1_1graph_1_1_activation_layer_node.xhtml" xlink:title="Activation Layer node."><polygon fill="#fff" stroke="#000" points="108.5 -1140.5 108.5 -1159.5 215.5 -1159.5 215.5 -1140.5 108.5 -1140.5"/><text x="162" y="-1147.5" fill="#000" font-family="Helvetica,sans-Serif" font-size="10" text-anchor="middle">ActivationLayerNode</text></a></g></g><g id="edge1" class="edge"><title>Node0-&gt;Node1</title><path fill="none" stroke="#191970" d="M22.2188,-599.7581C25.8048,-693.4807 43.035,-1090.3945 79,-1131 86.547,-1139.5208 97.063,-1144.6347 108.0791,-1147.6203"/><polygon fill="#191970" stroke="#191970" points="25.713 -599.523 21.841 -589.661 18.718 -599.785 25.713 -599.523"/></g><g id="node3" class="node"><title>Node2</title><g id="a_node3"><a target="_top" xlink:href="classarm__compute_1_1graph_1_1_batch_normalization_layer_node.xhtml" xlink:title="Batch Normalization Layer node."><polygon fill="#fff" stroke="#000" points="87.5 -1102.5 87.5 -1121.5 236.5 -1121.5 236.5 -1102.5 87.5 -1102.5"/><text x="162" y="-1109.5" fill="#000" font-family="Helvetica,sans-Serif" font-size="10" text-anchor="middle">BatchNormalizationLayerNode</text></a></g></g><g id="edge2" class="edge"><title>Node0-&gt;Node2</title><path fill="none" stroke="#191970" d="M22.3944,-600.0775C26.5923,-690.3076 45.5547,-1055.5288 79,-1093 82.3468,-1096.7497 86.2687,-1099.8385 90.5538,-1102.3758"/><polygon fill="#191970" stroke="#191970" points="25.88 -599.678 21.927 -589.848 18.887 -599.997 25.88 -599.678"/></g><g id="node4" class="node"><title>Node3</title><g id="a_node4"><a target="_top" xlink:href="classarm__compute_1_1graph_1_1_bounding_box_transform_layer_node.xhtml" xlink:title="Bounding Box Transform Layer node."><polygon fill="#fff" stroke="#000" points="79 -1064.5 79 -1083.5 245 -1083.5 245 -1064.5 79 -1064.5"/><text x="162" y="-1071.5" fill="#000" font-family="Helvetica,sans-Serif" font-size="10" text-anchor="middle">BoundingBoxTransformLayerNode</text></a></g></g><g id="edge3" class="edge"><title>Node0-&gt;Node3</title><path fill="none" stroke="#191970" d="M22.5598,-599.6539C27.335,-684.9784 47.9768,-1020.5504 79,-1055 82.3633,-1058.7348 86.2974,-1061.8127 90.5911,-1064.3423"/><polygon fill="#191970" stroke="#191970" points="26.047 -599.32 22.003 -589.528 19.057 -599.705 26.047 -599.32"/></g><g id="node5" class="node"><title>Node4</title><g id="a_node5"><a target="_top" xlink:href="classarm__compute_1_1graph_1_1_channel_shuffle_layer_node.xhtml" xlink:title="Channel Shuffle Layer node."><polygon fill="#fff" stroke="#000" points="96.5 -1026.5 96.5 -1045.5 227.5 -1045.5 227.5 -1026.5 96.5 -1026.5"/><text x="162" y="-1033.5" fill="#000" font-family="Helvetica,sans-Serif" font-size="10" text-anchor="middle">ChannelShuffleLayerNode</text></a></g></g><g id="edge4" class="edge"><title>Node0-&gt;Node4</title><path fill="none" stroke="#191970" d="M22.7901,-599.8514C28.2467,-681.1221 50.4681,-985.645 79,-1017 83.7755,-1022.248 89.6782,-1026.196 96.1174,-1029.147"/><polygon fill="#191970" stroke="#191970" points="26.261 -599.287 22.108 -589.54 19.276 -599.749 26.261 -599.287"/></g><g id="node6" class="node"><title>Node5</title><g id="a_node6"><a target="_top" xlink:href="classarm__compute_1_1graph_1_1_concatenate_layer_node.xhtml" xlink:title="Concatenation Layer node."><polygon fill="#fff" stroke="#000" points="102.5 -988.5 102.5 -1007.5 221.5 -1007.5 221.5 -988.5 102.5 -988.5"/><text x="162" y="-995.5" fill="#000" font-family="Helvetica,sans-Serif" font-size="10" text-anchor="middle">ConcatenateLayerNode</text></a></g></g><g id="edge5" class="edge"><title>Node0-&gt;Node5</title><path fill="none" stroke="#191970" d="M23.0677,-600.0651C29.2597,-677.0623 52.9521,-950.726 79,-979 85.3101,-985.8494 93.5411,-990.4782 102.3654,-993.5647"/><polygon fill="#191970" stroke="#191970" points="26.535 -599.514 22.255 -589.822 19.557 -600.067 26.535 -599.514"/></g><g id="node7" class="node"><title>Node6</title><g id="a_node7"><a target="_top" xlink:href="classarm__compute_1_1graph_1_1_const_node.xhtml" xlink:title="Const node."><polygon fill="#fff" stroke="#000" points="129 -950.5 129 -969.5 195 -969.5 195 -950.5 129 -950.5"/><text x="162" y="-957.5" fill="#000" font-family="Helvetica,sans-Serif" font-size="10" text-anchor="middle">ConstNode</text></a></g></g><g id="edge6" class="edge"><title>Node0-&gt;Node6</title><path fill="none" stroke="#191970" d="M21.844,-600.0157C23.4356,-668.3461 32.1862,-890.9354 79,-941 91.6204,-954.4968 111.705,-959.3431 128.9555,-960.7687"/><polygon fill="#191970" stroke="#191970" points="25.338 -599.695 21.634 -589.769 18.34 -599.839 25.338 -599.695"/></g><g id="node8" class="node"><title>Node7</title><g id="a_node8"><a target="_top" xlink:href="classarm__compute_1_1graph_1_1_convolution_layer_node.xhtml" xlink:title="Convolution Layer node."><polygon fill="#fff" stroke="#000" points="104 -912.5 104 -931.5 220 -931.5 220 -912.5 104 -912.5"/><text x="162" y="-919.5" fill="#000" font-family="Helvetica,sans-Serif" font-size="10" text-anchor="middle">ConvolutionLayerNode</text></a></g></g><g id="edge7" class="edge"><title>Node0-&gt;Node7</title><path fill="none" stroke="#191970" d="M22.2532,-599.9325C25.0624,-663.3595 37.0301,-858.9274 79,-903 85.7282,-910.0653 94.504,-914.7504 103.8243,-917.8131"/><polygon fill="#191970" stroke="#191970" points="25.74 -599.54 21.83 -589.693 18.746 -599.829 25.74 -599.54"/></g><g id="node9" class="node"><title>Node8</title><g id="a_node9"><a target="_top" xlink:href="classarm__compute_1_1graph_1_1_deconvolution_layer_node.xhtml" xlink:title="Deconvolution Layer node."><polygon fill="#fff" stroke="#000" points="99 -874.5 99 -893.5 225 -893.5 225 -874.5 99 -874.5"/><text x="162" y="-881.5" fill="#000" font-family="Helvetica,sans-Serif" font-size="10" text-anchor="middle">DeconvolutionLayerNode</text></a></g></g><g id="edge8" class="edge"><title>Node0-&gt;Node8</title><path fill="none" stroke="#191970" d="M22.7642,-599.839C26.8818,-658.0803 41.8478,-826.8707 79,-865 84.5708,-870.7173 91.4844,-874.868 98.9266,-877.8586"/><polygon fill="#191970" stroke="#191970" points="26.248 -599.478 22.082 -589.736 19.264 -599.949 26.248 -599.478"/></g><g id="node10" class="node"><title>Node9</title><g id="a_node10"><a target="_top" xlink:href="classarm__compute_1_1graph_1_1_depthwise_convolution_layer_node.xhtml" xlink:title="Depthwise Convolution Layer node."><polygon fill="#fff" stroke="#000" points="81 -836.5 81 -855.5 243 -855.5 243 -836.5 81 -836.5"/><text x="162" y="-843.5" fill="#000" font-family="Helvetica,sans-Serif" font-size="10" text-anchor="middle">DepthwiseConvolutionLayerNode</text></a></g></g><g id="edge9" class="edge"><title>Node0-&gt;Node9</title><path fill="none" stroke="#191970" d="M23.4046,-599.5709C28.9184,-652.1572 46.6003,-794.7194 79,-827 82.7699,-830.7561 87.1209,-833.8315 91.815,-836.3434"/><polygon fill="#191970" stroke="#191970" points="26.877 -599.124 22.386 -589.528 19.913 -599.83 26.877 -599.124"/></g><g id="node11" class="node"><title>Node10</title><g id="a_node11"><a target="_top" xlink:href="classarm__compute_1_1graph_1_1_dummy_node.xhtml" xlink:title="Dummy Layer node."><polygon fill="#fff" stroke="#000" points="125 -798.5 125 -817.5 199 -817.5 199 -798.5 125 -798.5"/><text x="162" y="-805.5" fill="#000" font-family="Helvetica,sans-Serif" font-size="10" text-anchor="middle">DummyNode</text></a></g></g><g id="edge10" class="edge"><title>Node0-&gt;Node10</title><path fill="none" stroke="#191970" d="M24.3002,-599.6009C31.3724,-646.366 51.3772,-762.5518 79,-789 91.1721,-800.6546 108.9626,-805.697 124.9539,-807.7052"/><polygon fill="#191970" stroke="#191970" points="27.738 -598.921 22.818 -589.538 20.813 -599.942 27.738 -598.921"/></g><g id="node12" class="node"><title>Node11</title><g id="a_node12"><a target="_top" xlink:href="classarm__compute_1_1graph_1_1_eltwise_layer_node.xhtml" xlink:title="Eltwise Layer node."><polygon fill="#fff" stroke="#000" points="114 -760.5 114 -779.5 210 -779.5 210 -760.5 114 -760.5"/><text x="162" y="-767.5" fill="#000" font-family="Helvetica,sans-Serif" font-size="10" text-anchor="middle">EltwiseLayerNode</text></a></g></g><g id="edge11" class="edge"><title>Node0-&gt;Node11</title><path fill="none" stroke="#191970" d="M25.5518,-599.4939C34.3111,-639.7933 56.078,-730.249 79,-751 88.5342,-759.6312 101.1741,-764.5902 113.7077,-767.3762"/><polygon fill="#191970" stroke="#191970" points="28.942 -598.609 23.436 -589.557 22.095 -600.067 28.942 -598.609"/></g><g id="node13" class="node"><title>Node12</title><g id="a_node13"><a target="_top" xlink:href="classarm__compute_1_1graph_1_1_flatten_layer_node.xhtml" xlink:title="Flatten Layer node."><polygon fill="#fff" stroke="#000" points="115 -722.5 115 -741.5 209 -741.5 209 -722.5 115 -722.5"/><text x="162" y="-729.5" fill="#000" font-family="Helvetica,sans-Serif" font-size="10" text-anchor="middle">FlattenLayerNode</text></a></g></g><g id="edge12" class="edge"><title>Node0-&gt;Node12</title><path fill="none" stroke="#191970" d="M24.3325,-599.6825C29.6243,-628.9843 43.8462,-683.7559 79,-713 89.0005,-721.3194 101.9333,-726.1643 114.6007,-728.9404"/><polygon fill="#191970" stroke="#191970" points="27.785 -599.109 22.717 -589.806 20.877 -600.24 27.785 -599.109"/></g><g id="node14" class="node"><title>Node13</title><g id="a_node14"><a target="_top" xlink:href="classarm__compute_1_1graph_1_1_fully_connected_layer_node.xhtml" xlink:title="Fully Connected Layer node."><polygon fill="#fff" stroke="#000" points="96 -684.5 96 -703.5 228 -703.5 228 -684.5 96 -684.5"/><text x="162" y="-691.5" fill="#000" font-family="Helvetica,sans-Serif" font-size="10" text-anchor="middle">FullyConnectedLayerNode</text></a></g></g><g id="edge13" class="edge"><title>Node0-&gt;Node13</title><path fill="none" stroke="#191970" d="M27.8418,-599.064C36.103,-620.8622 52.6805,-655.9798 79,-675 84.3916,-678.8963 90.4523,-682.0099 96.7803,-684.4956"/><polygon fill="#191970" stroke="#191970" points="31.108 -597.802 24.448 -589.562 24.515 -600.157 31.108 -597.802"/></g><g id="node15" class="node"><title>Node14</title><g id="a_node15"><a target="_top" xlink:href="classarm__compute_1_1graph_1_1_generate_proposals_layer_node.xhtml" xlink:title="Generate Proposals Layer node."><polygon fill="#fff" stroke="#000" points="88.5 -646.5 88.5 -665.5 235.5 -665.5 235.5 -646.5 88.5 -646.5"/><text x="162" y="-653.5" fill="#000" font-family="Helvetica,sans-Serif" font-size="10" text-anchor="middle">GenerateProposalsLayerNode</text></a></g></g><g id="edge14" class="edge"><title>Node0-&gt;Node14</title><path fill="none" stroke="#191970" d="M34.9257,-597.8491C45.5116,-610.6598 61.3894,-627.3098 79,-637 85.9937,-640.8483 93.73,-643.9184 101.5844,-646.3676"/><polygon fill="#191970" stroke="#191970" points="37.441 -595.388 28.486 -589.726 31.956 -599.737 37.441 -595.388"/></g><g id="node16" class="node"><title>Node15</title><g id="a_node16"><a target="_top" xlink:href="classarm__compute_1_1graph_1_1_input_node.xhtml" xlink:title="Input Layer node."><polygon fill="#fff" stroke="#000" points="131 -608.5 131 -627.5 193 -627.5 193 -608.5 131 -608.5"/><text x="162" y="-615.5" fill="#000" font-family="Helvetica,sans-Serif" font-size="10" text-anchor="middle">InputNode</text></a></g></g><g id="edge15" class="edge"><title>Node0-&gt;Node15</title><path fill="none" stroke="#191970" d="M52.7267,-590.9109C61.2023,-593.7097 70.4113,-596.6037 79,-599 95.944,-603.7275 115.07,-608.1654 130.6881,-611.5615"/><polygon fill="#191970" stroke="#191970" points="53.789 -587.576 43.195 -587.705 51.557 -594.21 53.789 -587.576"/></g><g id="node17" class="node"><title>Node16</title><g id="a_node17"><a target="_top" xlink:href="classarm__compute_1_1graph_1_1_normalization_layer_node.xhtml" xlink:title="Normalization Layer node."><polygon fill="#fff" stroke="#000" points="100 -570.5 100 -589.5 224 -589.5 224 -570.5 100 -570.5"/><text x="162" y="-577.5" fill="#000" font-family="Helvetica,sans-Serif" font-size="10" text-anchor="middle">NormalizationLayerNode</text></a></g></g><g id="edge16" class="edge"><title>Node0-&gt;Node16</title><path fill="none" stroke="#191970" d="M53.5243,-580C67.3008,-580 83.8974,-580 99.9193,-580"/><polygon fill="#191970" stroke="#191970" points="53.145 -576.5 43.145 -580 53.145 -583.5 53.145 -576.5"/></g><g id="node18" class="node"><title>Node17</title><g id="a_node18"><a target="_top" xlink:href="classarm__compute_1_1graph_1_1_normalize_planar_y_u_v_layer_node.xhtml" xlink:title="Batch Normalization Layer node."><polygon fill="#fff" stroke="#000" points="83.5 -532.5 83.5 -551.5 240.5 -551.5 240.5 -532.5 83.5 -532.5"/><text x="162" y="-539.5" fill="#000" font-family="Helvetica,sans-Serif" font-size="10" text-anchor="middle">NormalizePlanarYUVLayerNode</text></a></g></g><g id="edge17" class="edge"><title>Node0-&gt;Node17</title><path fill="none" stroke="#191970" d="M52.7267,-569.0891C61.2023,-566.2903 70.4113,-563.3963 79,-561 91.1028,-557.6232 104.3189,-554.3942 116.5748,-551.587"/><polygon fill="#191970" stroke="#191970" points="51.557 -565.79 43.195 -572.295 53.789 -572.424 51.557 -565.79"/></g><g id="node19" class="node"><title>Node18</title><g id="a_node19"><a target="_top" xlink:href="classarm__compute_1_1graph_1_1_output_node.xhtml" xlink:title="Output Layer node."><polygon fill="#fff" stroke="#000" points="127.5 -494.5 127.5 -513.5 196.5 -513.5 196.5 -494.5 127.5 -494.5"/><text x="162" y="-501.5" fill="#000" font-family="Helvetica,sans-Serif" font-size="10" text-anchor="middle">OutputNode</text></a></g></g><g id="edge18" class="edge"><title>Node0-&gt;Node18</title><path fill="none" stroke="#191970" d="M34.9257,-562.1509C45.5116,-549.3402 61.3894,-532.6902 79,-523 93.7644,-514.8759 111.8385,-510.2195 127.3466,-507.5535"/><polygon fill="#191970" stroke="#191970" points="31.956 -560.263 28.486 -570.274 37.441 -564.612 31.956 -560.263"/></g><g id="node20" class="node"><title>Node19</title><g id="a_node20"><a target="_top" xlink:href="classarm__compute_1_1graph_1_1_pad_layer_node.xhtml" xlink:title="Pad Layer node."><polygon fill="#fff" stroke="#000" points="121.5 -456.5 121.5 -475.5 202.5 -475.5 202.5 -456.5 121.5 -456.5"/><text x="162" y="-463.5" fill="#000" font-family="Helvetica,sans-Serif" font-size="10" text-anchor="middle">PadLayerNode</text></a></g></g><g id="edge19" class="edge"><title>Node0-&gt;Node19</title><path fill="none" stroke="#191970" d="M27.8418,-560.936C36.103,-539.1378 52.6805,-504.0202 79,-485 91.2209,-476.1683 106.8798,-471.3581 121.2968,-468.7668"/><polygon fill="#191970" stroke="#191970" points="24.515 -559.843 24.448 -570.438 31.108 -562.198 24.515 -559.843"/></g><g id="node21" class="node"><title>Node20</title><g id="a_node21"><a target="_top" xlink:href="classarm__compute_1_1graph_1_1_permute_layer_node.xhtml" xlink:title="Permute Layer node."><polygon fill="#fff" stroke="#000" points="111.5 -418.5 111.5 -437.5 212.5 -437.5 212.5 -418.5 111.5 -418.5"/><text x="162" y="-425.5" fill="#000" font-family="Helvetica,sans-Serif" font-size="10" text-anchor="middle">PermuteLayerNode</text></a></g></g><g id="edge20" class="edge"><title>Node0-&gt;Node20</title><path fill="none" stroke="#191970" d="M24.3325,-560.3175C29.6243,-531.0157 43.8462,-476.2441 79,-447 88.0914,-439.437 99.6062,-434.7453 111.1418,-431.8691"/><polygon fill="#191970" stroke="#191970" points="20.877 -559.76 22.717 -570.194 27.785 -560.891 20.877 -559.76"/></g><g id="node22" class="node"><title>Node21</title><g id="a_node22"><a target="_top" xlink:href="classarm__compute_1_1graph_1_1_pooling_layer_node.xhtml" xlink:title="Pooling Layer node."><polygon fill="#fff" stroke="#000" points="114 -380.5 114 -399.5 210 -399.5 210 -380.5 114 -380.5"/><text x="162" y="-387.5" fill="#000" font-family="Helvetica,sans-Serif" font-size="10" text-anchor="middle">PoolingLayerNode</text></a></g></g><g id="edge21" class="edge"><title>Node0-&gt;Node21</title><path fill="none" stroke="#191970" d="M25.5518,-560.5061C34.3111,-520.2067 56.078,-429.751 79,-409 88.5342,-400.3688 101.1741,-395.4098 113.7077,-392.6238"/><polygon fill="#191970" stroke="#191970" points="22.095 -559.933 23.436 -570.443 28.942 -561.391 22.095 -559.933"/></g><g id="node23" class="node"><title>Node22</title><g id="a_node23"><a target="_top" xlink:href="classarm__compute_1_1graph_1_1_prior_box_layer_node.xhtml" xlink:title="PriorBox Layer node."><polygon fill="#fff" stroke="#000" points="111.5 -342.5 111.5 -361.5 212.5 -361.5 212.5 -342.5 111.5 -342.5"/><text x="162" y="-349.5" fill="#000" font-family="Helvetica,sans-Serif" font-size="10" text-anchor="middle">PriorBoxLayerNode</text></a></g></g><g id="edge22" class="edge"><title>Node0-&gt;Node22</title><path fill="none" stroke="#191970" d="M24.3002,-560.3991C31.3724,-513.634 51.3772,-397.4482 79,-371 87.7554,-362.6169 99.4177,-357.6548 111.2263,-354.7823"/><polygon fill="#191970" stroke="#191970" points="20.813 -560.058 22.818 -570.462 27.738 -561.079 20.813 -560.058"/></g><g id="node24" class="node"><title>Node23</title><g id="a_node24"><a target="_top" xlink:href="classarm__compute_1_1graph_1_1_reorg_layer_node.xhtml" xlink:title="Reorg Layer node."><polygon fill="#fff" stroke="#000" points="117 -304.5 117 -323.5 207 -323.5 207 -304.5 117 -304.5"/><text x="162" y="-311.5" fill="#000" font-family="Helvetica,sans-Serif" font-size="10" text-anchor="middle">ReorgLayerNode</text></a></g></g><g id="edge23" class="edge"><title>Node0-&gt;Node23</title><path fill="none" stroke="#191970" d="M23.4046,-560.4291C28.9184,-507.8428 46.6003,-365.2806 79,-333 88.9484,-323.0882 102.9432,-317.9163 116.6112,-315.3313"/><polygon fill="#191970" stroke="#191970" points="19.913 -560.17 22.386 -570.472 26.877 -560.876 19.913 -560.17"/></g><g id="node25" class="node"><title>Node24</title><g id="a_node25"><a target="_top" xlink:href="classarm__compute_1_1graph_1_1_reshape_layer_node.xhtml" xlink:title="Reshape Layer node."><polygon fill="#fff" stroke="#000" points="110.5 -266.5 110.5 -285.5 213.5 -285.5 213.5 -266.5 110.5 -266.5"/><text x="162" y="-273.5" fill="#000" font-family="Helvetica,sans-Serif" font-size="10" text-anchor="middle">ReshapeLayerNode</text></a></g></g><g id="edge24" class="edge"><title>Node0-&gt;Node24</title><path fill="none" stroke="#191970" d="M22.7642,-560.161C26.8818,-501.9197 41.8478,-333.1293 79,-295 87.3562,-286.4241 98.7338,-281.373 110.3843,-278.4747"/><polygon fill="#191970" stroke="#191970" points="19.264 -560.051 22.082 -570.264 26.248 -560.522 19.264 -560.051"/></g><g id="node26" class="node"><title>Node25</title><g id="a_node26"><a target="_top" xlink:href="classarm__compute_1_1graph_1_1_resize_layer_node.xhtml" xlink:title="Resize Layer node."><polygon fill="#fff" stroke="#000" points="114.5 -228.5 114.5 -247.5 209.5 -247.5 209.5 -228.5 114.5 -228.5"/><text x="162" y="-235.5" fill="#000" font-family="Helvetica,sans-Serif" font-size="10" text-anchor="middle">ResizeLayerNode</text></a></g></g><g id="edge25" class="edge"><title>Node0-&gt;Node25</title><path fill="none" stroke="#191970" d="M22.2532,-560.0675C25.0624,-496.6405 37.0301,-301.0726 79,-257 88.1749,-247.3655 101.1571,-242.1569 114.1357,-239.4531"/><polygon fill="#191970" stroke="#191970" points="18.746 -560.171 21.83 -570.307 25.74 -560.46 18.746 -560.171"/></g><g id="node27" class="node"><title>Node26</title><g id="a_node27"><a target="_top" xlink:href="classarm__compute_1_1graph_1_1_r_o_i_align_layer_node.xhtml" xlink:title="ROI Align node."><polygon fill="#fff" stroke="#000" points="110 -190.5 110 -209.5 214 -209.5 214 -190.5 110 -190.5"/><text x="162" y="-197.5" fill="#000" font-family="Helvetica,sans-Serif" font-size="10" text-anchor="middle">ROIAlignLayerNode</text></a></g></g><g id="edge26" class="edge"><title>Node0-&gt;Node26</title><path fill="none" stroke="#191970" d="M21.844,-559.9843C23.4356,-491.6539 32.1862,-269.0646 79,-219 87.0771,-210.362 98.2114,-205.2673 109.7035,-202.3449"/><polygon fill="#191970" stroke="#191970" points="18.34 -560.161 21.634 -570.231 25.338 -560.305 18.34 -560.161"/></g><g id="node28" class="node"><title>Node27</title><g id="a_node28"><a target="_top" xlink:href="classarm__compute_1_1graph_1_1_slice_layer_node.xhtml" xlink:title="Slice Layer node."><polygon fill="#fff" stroke="#000" points="119 -152.5 119 -171.5 205 -171.5 205 -152.5 119 -152.5"/><text x="162" y="-159.5" fill="#000" font-family="Helvetica,sans-Serif" font-size="10" text-anchor="middle">SliceLayerNode</text></a></g></g><g id="edge27" class="edge"><title>Node0-&gt;Node27</title><path fill="none" stroke="#191970" d="M23.0677,-559.9349C29.2597,-482.9377 52.9521,-209.274 79,-181 89.1162,-170.0193 104.1694,-164.7456 118.6894,-162.3849"/><polygon fill="#191970" stroke="#191970" points="19.557 -559.933 22.255 -570.178 26.535 -560.486 19.557 -559.933"/></g><g id="node29" class="node"><title>Node28</title><g id="a_node29"><a target="_top" xlink:href="classarm__compute_1_1graph_1_1_softmax_layer_node.xhtml" xlink:title="Softmax Layer node."><polygon fill="#fff" stroke="#000" points="111.5 -114.5 111.5 -133.5 212.5 -133.5 212.5 -114.5 111.5 -114.5"/><text x="162" y="-121.5" fill="#000" font-family="Helvetica,sans-Serif" font-size="10" text-anchor="middle">SoftmaxLayerNode</text></a></g></g><g id="edge28" class="edge"><title>Node0-&gt;Node28</title><path fill="none" stroke="#191970" d="M22.7901,-560.1486C28.2467,-478.8779 50.4681,-174.355 79,-143 87.3571,-133.816 99.1662,-128.6133 111.262,-125.768"/><polygon fill="#191970" stroke="#191970" points="19.276 -560.251 22.108 -570.46 26.261 -560.713 19.276 -560.251"/></g><g id="node30" class="node"><title>Node29</title><g id="a_node30"><a target="_top" xlink:href="classarm__compute_1_1graph_1_1_split_layer_node.xhtml" xlink:title="Split Layer node."><polygon fill="#fff" stroke="#000" points="120.5 -76.5 120.5 -95.5 203.5 -95.5 203.5 -76.5 120.5 -76.5"/><text x="162" y="-83.5" fill="#000" font-family="Helvetica,sans-Serif" font-size="10" text-anchor="middle">SplitLayerNode</text></a></g></g><g id="edge29" class="edge"><title>Node0-&gt;Node29</title><path fill="none" stroke="#191970" d="M22.5598,-560.3461C27.335,-475.0216 47.9768,-139.4496 79,-105 89.3868,-93.466 105.2161,-88.1971 120.276,-85.9944"/><polygon fill="#191970" stroke="#191970" points="19.057 -560.295 22.003 -570.472 26.047 -560.68 19.057 -560.295"/></g><g id="node31" class="node"><title>Node30</title><g id="a_node31"><a target="_top" xlink:href="classarm__compute_1_1graph_1_1_upsample_layer_node.xhtml" xlink:title="Upsample Layer node."><polygon fill="#fff" stroke="#000" points="108 -38.5 108 -57.5 216 -57.5 216 -38.5 108 -38.5"/><text x="162" y="-45.5" fill="#000" font-family="Helvetica,sans-Serif" font-size="10" text-anchor="middle">UpsampleLayerNode</text></a></g></g><g id="edge30" class="edge"><title>Node0-&gt;Node30</title><path fill="none" stroke="#191970" d="M22.3944,-559.9225C26.5923,-469.6924 45.5547,-104.4712 79,-67 86.4811,-58.6184 96.8354,-53.5388 107.6978,-50.5394"/><polygon fill="#191970" stroke="#191970" points="18.887 -560.003 21.927 -570.152 25.88 -560.322 18.887 -560.003"/></g><g id="node32" class="node"><title>Node31</title><g id="a_node32"><a target="_top" xlink:href="classarm__compute_1_1graph_1_1_y_o_l_o_layer_node.xhtml" xlink:title="YOLO Layer node."><polygon fill="#fff" stroke="#000" points="116.5 -.5 116.5 -19.5 207.5 -19.5 207.5 -.5 116.5 -.5"/><text x="162" y="-7.5" fill="#000" font-family="Helvetica,sans-Serif" font-size="10" text-anchor="middle">YOLOLayerNode</text></a></g></g><g id="edge31" class="edge"><title>Node0-&gt;Node31</title><path fill="none" stroke="#191970" d="M22.2188,-560.2419C25.8048,-466.5193 43.035,-69.6055 79,-29 88.4093,-18.3767 102.4335,-13.049 116.2882,-10.5391"/><polygon fill="#191970" stroke="#191970" points="18.718 -560.215 21.841 -570.339 25.713 -560.477 18.718 -560.215"/></g></g></svg>