<svg xmlns="http://www.w3.org/2000/svg" xmlns:xlink="http://www.w3.org/1999/xlink" width="224pt" height="104pt" viewBox="0 0 224 104"><g id="graph0" class="graph" transform="scale(1 1) rotate(0) translate(4 100)"><title>Graphical Class Hierarchy</title><polygon fill="#fff" stroke="transparent" points="-4 4 -4 -100 220 -100 220 4 -4 4"/><g id="node1" class="node"><title>Node0</title><g id="a_node1"><a target="_top" xlink:href="classarm__compute_1_1_i_scheduler.xhtml" xlink:title="Scheduler interface to run kernels."><polygon fill="#fff" stroke="#000" points="0 -38.5 0 -57.5 63 -57.5 63 -38.5 0 -38.5"/><text x="31.5" y="-45.5" fill="#000" font-family="Helvetica,sans-Serif" font-size="10" text-anchor="middle">IScheduler</text></a></g></g><g id="node2" class="node"><title>Node1</title><g id="a_node2"><a target="_top" xlink:href="classarm__compute_1_1_c_p_p_scheduler.xhtml" xlink:title="C++11 implementation of a pool of threads to automatically split a kernel's execution among several t..."><polygon fill="#fff" stroke="#000" points="117 -76.5 117 -95.5 198 -95.5 198 -76.5 117 -76.5"/><text x="157.5" y="-83.5" fill="#000" font-family="Helvetica,sans-Serif" font-size="10" text-anchor="middle">CPPScheduler</text></a></g></g><g id="edge1" class="edge"><title>Node0-&gt;Node1</title><path fill="none" stroke="#191970" d="M73.0644,-60.5353C90.2052,-65.7048 109.7496,-71.5991 125.7151,-76.4141"/><polygon fill="#191970" stroke="#191970" points="73.88 -57.126 63.295 -57.589 71.859 -63.827 73.88 -57.126"/></g><g id="node3" class="node"><title>Node2</title><g id="a_node3"><a target="_top" xlink:href="classarm__compute_1_1_o_m_p_scheduler.xhtml" xlink:title="Pool of threads to automatically split a kernel's execution among several threads."><polygon fill="#fff" stroke="#000" points="116 -38.5 116 -57.5 199 -57.5 199 -38.5 116 -38.5"/><text x="157.5" y="-45.5" fill="#000" font-family="Helvetica,sans-Serif" font-size="10" text-anchor="middle">OMPScheduler</text></a></g></g><g id="edge2" class="edge"><title>Node0-&gt;Node2</title><path fill="none" stroke="#191970" d="M73.3692,-48C86.9873,-48 102.0954,-48 115.7079,-48"/><polygon fill="#191970" stroke="#191970" points="73.295 -44.5 63.295 -48 73.295 -51.5 73.295 -44.5"/></g><g id="node4" class="node"><title>Node3</title><g id="a_node4"><a target="_top" xlink:href="classarm__compute_1_1_single_thread_scheduler.xhtml" xlink:title="Pool of threads to automatically split a kernel's execution among several threads."><polygon fill="#fff" stroke="#000" points="99 -.5 99 -19.5 216 -19.5 216 -.5 99 -.5"/><text x="157.5" y="-7.5" fill="#000" font-family="Helvetica,sans-Serif" font-size="10" text-anchor="middle">SingleThreadScheduler</text></a></g></g><g id="edge3" class="edge"><title>Node0-&gt;Node3</title><path fill="none" stroke="#191970" d="M73.0644,-35.4647C90.2052,-30.2952 109.7496,-24.4009 125.7151,-19.5859"/><polygon fill="#191970" stroke="#191970" points="71.859 -32.173 63.295 -38.411 73.88 -38.874 71.859 -32.173"/></g></g></svg>