<svg xmlns="http://www.w3.org/2000/svg" xmlns:xlink="http://www.w3.org/1999/xlink" width="308" height="88" viewBox="0 0 231 66"><g id="graph0" class="graph" transform="scale(1 1) rotate(0) translate(4 62)"><title>Graphical Class Hierarchy</title><polygon fill="#fff" stroke="transparent" points="-4 4 -4 -62 227 -62 227 4 -4 4"/><g id="node1" class="node"><title>Node0</title><g id="a_node1"><a target="_top" xlink:href="classarm__compute_1_1_dimensions.xhtml" xlink:title="Dimensions\&lt; size_t \&gt;"><polygon fill="#fff" stroke="#000" points="0 -19.5 0 -38.5 113 -38.5 113 -19.5 0 -19.5"/><text x="56.5" y="-26.5" fill="#000" font-family="Helvetica,sans-Serif" font-size="10" text-anchor="middle">Dimensions&lt; size_t &gt;</text></a></g></g><g id="node2" class="node"><title>Node1</title><g id="a_node2"><a target="_top" xlink:href="classarm__compute_1_1_strides.xhtml" xlink:title="Strides of an item in bytes."><polygon fill="#fff" stroke="#000" points="162.5 -38.5 162.5 -57.5 209.5 -57.5 209.5 -38.5 162.5 -38.5"/><text x="186" y="-45.5" fill="#000" font-family="Helvetica,sans-Serif" font-size="10" text-anchor="middle">Strides</text></a></g></g><g id="edge1" class="edge"><title>Node0-&gt;Node1</title><path fill="none" stroke="#191970" d="M123.4651,-38.825C137.4421,-40.8757 151.2813,-42.9061 162.3736,-44.5336"/><polygon fill="#191970" stroke="#191970" points="123.703 -35.322 113.301 -37.334 122.687 -42.248 123.703 -35.322"/></g><g id="node3" class="node"><title>Node2</title><g id="a_node3"><a target="_top" xlink:href="classarm__compute_1_1_tensor_shape.xhtml" xlink:title="Shape of a tensor."><polygon fill="#fff" stroke="#000" points="149 -.5 149 -19.5 223 -19.5 223 -.5 149 -.5"/><text x="186" y="-7.5" fill="#000" font-family="Helvetica,sans-Serif" font-size="10" text-anchor="middle">TensorShape</text></a></g></g><g id="edge2" class="edge"><title>Node0-&gt;Node2</title><path fill="none" stroke="#191970" d="M123.2727,-19.2032C132.1175,-17.9055 140.9118,-16.6153 148.9948,-15.4293"/><polygon fill="#191970" stroke="#191970" points="122.687 -15.752 113.301 -20.666 123.703 -22.677 122.687 -15.752"/></g></g></svg>