<svg xmlns="http://www.w3.org/2000/svg" xmlns:xlink="http://www.w3.org/1999/xlink" width="410pt" height="88" viewBox="0 0 410 66"><g id="graph0" class="graph" transform="scale(1 1) rotate(0) translate(4 62)"><title>Graphical Class Hierarchy</title><polygon fill="#fff" stroke="transparent" points="-4 4 -4 -62 406 -62 406 4 -4 4"/><g id="node1" class="node"><title>Node0</title><g id="a_node1"><a target="_top" xlink:href="classarm__compute_1_1_i_lifetime_manager.xhtml" xlink:title="Interface for managing the lifetime of objects."><polygon fill="#fff" stroke="#000" points="0 -19.5 0 -38.5 92 -38.5 92 -19.5 0 -19.5"/><text x="46" y="-26.5" fill="#000" font-family="Helvetica,sans-Serif" font-size="10" text-anchor="middle">ILifetimeManager</text></a></g></g><g id="node2" class="node"><title>Node1</title><g id="a_node2"><a target="_top" xlink:href="classarm__compute_1_1_i_simple_lifetime_manager.xhtml" xlink:title="Abstract class of the simple lifetime manager interface."><polygon fill="#fff" stroke="#000" points="128 -19.5 128 -38.5 250 -38.5 250 -19.5 128 -19.5"/><text x="189" y="-26.5" fill="#000" font-family="Helvetica,sans-Serif" font-size="10" text-anchor="middle">ISimpleLifetimeManager</text></a></g></g><g id="edge1" class="edge"><title>Node0-&gt;Node1</title><path fill="none" stroke="#191970" d="M102.1623,-29C110.6161,-29 119.3701,-29 127.9209,-29"/><polygon fill="#191970" stroke="#191970" points="102.033 -25.5 92.033 -29 102.033 -32.5 102.033 -25.5"/></g><g id="node3" class="node"><title>Node2</title><g id="a_node3"><a target="_top" xlink:href="classarm__compute_1_1_blob_lifetime_manager.xhtml" xlink:title="Concrete class that tracks the lifetime of registered tensors and calculates the systems memory requi..."><polygon fill="#fff" stroke="#000" points="290 -38.5 290 -57.5 398 -57.5 398 -38.5 290 -38.5"/><text x="344" y="-45.5" fill="#000" font-family="Helvetica,sans-Serif" font-size="10" text-anchor="middle">BlobLifetimeManager</text></a></g></g><g id="edge2" class="edge"><title>Node1-&gt;Node2</title><path fill="none" stroke="#191970" d="M260.4402,-37.7572C270.2802,-38.9634 280.2512,-40.1856 289.7137,-41.3455"/><polygon fill="#191970" stroke="#191970" points="260.612 -34.252 250.26 -36.509 259.76 -41.2 260.612 -34.252"/></g><g id="node4" class="node"><title>Node3</title><g id="a_node4"><a target="_top" xlink:href="classarm__compute_1_1_offset_lifetime_manager.xhtml" xlink:title="Concrete class that tracks the lifetime of registered tensors and calculates the systems memory requi..."><polygon fill="#fff" stroke="#000" points="286 -.5 286 -19.5 402 -19.5 402 -.5 286 -.5"/><text x="344" y="-7.5" fill="#000" font-family="Helvetica,sans-Serif" font-size="10" text-anchor="middle">OffsetLifetimeManager</text></a></g></g><g id="edge3" class="edge"><title>Node1-&gt;Node3</title><path fill="none" stroke="#191970" d="M260.2828,-20.2621C268.8826,-19.2079 277.5852,-18.1412 285.9634,-17.1142"/><polygon fill="#191970" stroke="#191970" points="259.76 -16.8 250.26 -21.491 260.612 -23.748 259.76 -16.8"/></g></g></svg>