<svg xmlns="http://www.w3.org/2000/svg" xmlns:xlink="http://www.w3.org/1999/xlink" width="476" height="88" viewBox="0 0 357 66"><g id="graph0" class="graph" transform="scale(1 1) rotate(0) translate(4 62)"><title>Graphical Class Hierarchy</title><polygon fill="#fff" stroke="transparent" points="-4 4 -4 -62 353 -62 353 4 -4 4"/><g id="node1" class="node"><title>Node0</title><g id="a_node1"><a target="_top" xlink:href="classarm__compute_1_1misc_1_1_i_cloneable.xhtml" xlink:title="ICloneable\&lt; ITensorInfo \&gt;"><polygon fill="#fff" stroke="#000" points="0 -19.5 0 -38.5 131 -38.5 131 -19.5 0 -19.5"/><text x="65.5" y="-26.5" fill="#000" font-family="Helvetica,sans-Serif" font-size="10" text-anchor="middle">ICloneable&lt; ITensorInfo &gt;</text></a></g></g><g id="node2" class="node"><title>Node1</title><g id="a_node2"><a target="_top" xlink:href="classarm__compute_1_1_i_tensor_info.xhtml" xlink:title="Store the tensor's metadata."><polygon fill="#fff" stroke="#000" points="167 -19.5 167 -38.5 233 -38.5 233 -19.5 167 -19.5"/><text x="200" y="-26.5" fill="#000" font-family="Helvetica,sans-Serif" font-size="10" text-anchor="middle">ITensorInfo</text></a></g></g><g id="edge1" class="edge"><title>Node0-&gt;Node1</title><path fill="none" stroke="#191970" d="M141.3299,-29C150.2783,-29 159.0206,-29 166.9092,-29"/><polygon fill="#191970" stroke="#191970" points="141.174 -25.5 131.174 -29 141.174 -32.5 141.174 -25.5"/></g><g id="node3" class="node"><title>Node2</title><g id="a_node3"><a target="_top" xlink:href="classarm__compute_1_1_sub_tensor_info.xhtml" xlink:title="Store the sub tensor's metadata."><polygon fill="#fff" stroke="#000" points="269 -38.5 269 -57.5 349 -57.5 349 -38.5 269 -38.5"/><text x="309" y="-45.5" fill="#000" font-family="Helvetica,sans-Serif" font-size="10" text-anchor="middle">SubTensorInfo</text></a></g></g><g id="edge2" class="edge"><title>Node1-&gt;Node2</title><path fill="none" stroke="#191970" d="M243.2551,-36.5399C251.6159,-37.9973 260.3459,-39.519 268.6109,-40.9597"/><polygon fill="#191970" stroke="#191970" points="243.748 -33.073 233.296 -34.804 242.546 -39.969 243.748 -33.073"/></g><g id="node4" class="node"><title>Node3</title><g id="a_node4"><a target="_top" xlink:href="classarm__compute_1_1_tensor_info.xhtml" xlink:title="Store the tensor's metadata."><polygon fill="#fff" stroke="#000" points="277.5 -.5 277.5 -19.5 340.5 -19.5 340.5 -.5 277.5 -.5"/><text x="309" y="-7.5" fill="#000" font-family="Helvetica,sans-Serif" font-size="10" text-anchor="middle">TensorInfo</text></a></g></g><g id="edge3" class="edge"><title>Node1-&gt;Node3</title><path fill="none" stroke="#191970" d="M243.4627,-21.4239C254.8017,-19.4474 266.806,-17.3549 277.3995,-15.5083"/><polygon fill="#191970" stroke="#191970" points="242.546 -18.031 233.296 -23.196 243.748 -24.927 242.546 -18.031"/></g></g></svg>