<svg xmlns="http://www.w3.org/2000/svg" xmlns:xlink="http://www.w3.org/1999/xlink" width="304pt" height="88" viewBox="0 0 304 66"><g id="graph0" class="graph" transform="scale(1 1) rotate(0) translate(4 62)"><title>Graphical Class Hierarchy</title><polygon fill="#fff" stroke="transparent" points="-4 4 -4 -62 300 -62 300 4 -4 4"/><g id="node1" class="node"><title>Node0</title><g id="a_node1"><a target="_top" xlink:href="classarm__compute_1_1_i_array.xhtml" xlink:title="Array of type T."><polygon fill="#fff" stroke="#000" points="0 -19.5 0 -38.5 67 -38.5 67 -19.5 0 -19.5"/><text x="33.5" y="-26.5" fill="#000" font-family="Helvetica,sans-Serif" font-size="10" text-anchor="middle">IArray&lt; T &gt;</text></a></g></g><g id="node2" class="node"><title>Node1</title><g id="a_node2"><a target="_top" xlink:href="classarm__compute_1_1_array.xhtml" xlink:title="Basic implementation of the IArray interface which allocates a static number of T values..."><polygon fill="#fff" stroke="#000" points="111 -38.5 111 -57.5 175 -57.5 175 -38.5 111 -38.5"/><text x="143" y="-45.5" fill="#000" font-family="Helvetica,sans-Serif" font-size="10" text-anchor="middle">Array&lt; T &gt;</text></a></g></g><g id="edge1" class="edge"><title>Node0-&gt;Node1</title><path fill="none" stroke="#191970" d="M77.2584,-36.5928C88.4152,-38.5287 100.2071,-40.5747 110.6763,-42.3913"/><polygon fill="#191970" stroke="#191970" points="77.698 -33.117 67.247 -34.856 76.501 -40.014 77.698 -33.117"/></g><g id="node3" class="node"><title>Node2</title><g id="a_node3"><a target="_top" xlink:href="classarm__compute_1_1_i_c_l_array.xhtml" xlink:title="Interface for OpenCL Array."><polygon fill="#fff" stroke="#000" points="103 -.5 103 -19.5 183 -19.5 183 -.5 103 -.5"/><text x="143" y="-7.5" fill="#000" font-family="Helvetica,sans-Serif" font-size="10" text-anchor="middle">ICLArray&lt; T &gt;</text></a></g></g><g id="edge2" class="edge"><title>Node0-&gt;Node2</title><path fill="none" stroke="#191970" d="M77.2367,-21.411C85.6181,-19.9567 94.3588,-18.44 102.6284,-17.0051"/><polygon fill="#191970" stroke="#191970" points="76.501 -17.986 67.247 -23.144 77.698 -24.883 76.501 -17.986"/></g><g id="node4" class="node"><title>Node3</title><g id="a_node4"><a target="_top" xlink:href="classarm__compute_1_1_c_l_array.xhtml" xlink:title="CLArray implementation."><polygon fill="#fff" stroke="#000" points="219 -.5 219 -19.5 296 -19.5 296 -.5 219 -.5"/><text x="257.5" y="-7.5" fill="#000" font-family="Helvetica,sans-Serif" font-size="10" text-anchor="middle">CLArray&lt; T &gt;</text></a></g></g><g id="edge3" class="edge"><title>Node2-&gt;Node3</title><path fill="none" stroke="#191970" d="M193.3214,-10C201.8728,-10 210.6336,-10 218.8253,-10"/><polygon fill="#191970" stroke="#191970" points="193.047 -6.5 183.047 -10 193.047 -13.5 193.047 -6.5"/></g></g></svg>