<svg xmlns="http://www.w3.org/2000/svg" xmlns:xlink="http://www.w3.org/1999/xlink" width="220pt" height="88" viewBox="0 0 220 66"><g id="graph0" class="graph" transform="scale(1 1) rotate(0) translate(4 62)"><title>Graphical Class Hierarchy</title><polygon fill="#fff" stroke="transparent" points="-4 4 -4 -62 216 -62 216 4 -4 4"/><g id="node1" class="node"><title>Node0</title><g id="a_node1"><a target="_top" xlink:href="classarm__compute_1_1test_1_1_i_h_o_g_accessor.xhtml" xlink:title="Common interface to access HOG structure."><polygon fill="#fff" stroke="#000" points="0 -19.5 0 -38.5 83 -38.5 83 -19.5 0 -19.5"/><text x="41.5" y="-26.5" fill="#000" font-family="Helvetica,sans-Serif" font-size="10" text-anchor="middle">IHOGAccessor</text></a></g></g><g id="node2" class="node"><title>Node1</title><g id="a_node2"><a target="_top" xlink:href="classarm__compute_1_1test_1_1_c_l_h_o_g_accessor.xhtml" xlink:title="Accessor implementation for CLHOG objects."><polygon fill="#fff" stroke="#000" points="119 -38.5 119 -57.5 212 -57.5 212 -38.5 119 -38.5"/><text x="165.5" y="-45.5" fill="#000" font-family="Helvetica,sans-Serif" font-size="10" text-anchor="middle">CLHOGAccessor</text></a></g></g><g id="edge1" class="edge"><title>Node0-&gt;Node1</title><path fill="none" stroke="#191970" d="M93.235,-36.9271C101.6562,-38.2175 110.3373,-39.5476 118.6333,-40.8188"/><polygon fill="#191970" stroke="#191970" points="93.55 -33.435 83.135 -35.38 92.49 -40.354 93.55 -33.435"/></g><g id="node3" class="node"><title>Node2</title><g id="a_node3"><a target="_top" xlink:href="classarm__compute_1_1test_1_1_h_o_g_accessor.xhtml" xlink:title="Accessor implementation for HOG objects."><polygon fill="#fff" stroke="#000" points="125.5 -.5 125.5 -19.5 205.5 -19.5 205.5 -.5 125.5 -.5"/><text x="165.5" y="-7.5" fill="#000" font-family="Helvetica,sans-Serif" font-size="10" text-anchor="middle">HOGAccessor</text></a></g></g><g id="edge2" class="edge"><title>Node0-&gt;Node2</title><path fill="none" stroke="#191970" d="M93.2692,-21.0676C104.0197,-19.4204 115.1922,-17.7084 125.4454,-16.1374"/><polygon fill="#191970" stroke="#191970" points="92.49 -17.646 83.135 -22.62 93.55 -24.565 92.49 -17.646"/></g></g></svg>