<svg xmlns="http://www.w3.org/2000/svg" xmlns:xlink="http://www.w3.org/1999/xlink" width="276" height="137pt" viewBox="0 0 207 137"><g id="graph0" class="graph" transform="scale(1 1) rotate(0) translate(4 133)"><title>Graphical Class Hierarchy</title><polygon fill="#fff" stroke="transparent" points="-4 4 -4 -133 203 -133 203 4 -4 4"/><g id="node1" class="node"><title>Node11</title><polygon fill="#fff" stroke="#bfbfbf" points="0 -55 0 -74 57 -74 57 -55 0 -55"/><text x="28.5" y="-62" fill="#000" font-family="Helvetica,sans-Serif" font-size="10" text-anchor="middle">true_type</text></g><g id="node2" class="node"><title>Node0</title><g id="a_node2"><a target="_top" xlink:href="structarm__compute_1_1test_1_1framework_1_1dataset_1_1is__container_3_01std_1_1vector_3_01_v_00_01_a_01_4_01_4.xhtml" xlink:title="Vector is considered a container."><polygon fill="#fff" stroke="#000" points="97 -98.5 97 -128.5 195 -128.5 195 -98.5 97 -98.5"/><text x="105" y="-116.5" fill="#000" font-family="Helvetica,sans-Serif" font-size="10" text-anchor="start">is_container&lt; std::</text><text x="146" y="-105.5" fill="#000" font-family="Helvetica,sans-Serif" font-size="10" text-anchor="middle">vector&lt; V, A &gt; &gt;</text></a></g></g><g id="edge1" class="edge"><title>Node11-&gt;Node0</title><path fill="none" stroke="#191970" d="M60.9004,-78.0117C76.0373,-84.3241 94.1177,-91.864 109.7122,-98.3672"/><polygon fill="#191970" stroke="#191970" points="62.011 -74.683 51.434 -74.064 59.317 -81.143 62.011 -74.683"/></g><g id="node3" class="node"><title>Node13</title><g id="a_node3"><a target="_top" xlink:href="structarm__compute_1_1test_1_1validation_1_1is__floating__point_3_01half_01_4.xhtml" xlink:title="is_floating_point\&lt;\l half \&gt;"><polygon fill="#fff" stroke="#000" points="99.5 -49.5 99.5 -79.5 192.5 -79.5 192.5 -49.5 99.5 -49.5"/><text x="107.5" y="-67.5" fill="#000" font-family="Helvetica,sans-Serif" font-size="10" text-anchor="start">is_floating_point&lt;</text><text x="146" y="-56.5" fill="#000" font-family="Helvetica,sans-Serif" font-size="10" text-anchor="middle">half &gt;</text></a></g></g><g id="edge2" class="edge"><title>Node11-&gt;Node13</title><path fill="none" stroke="#191970" d="M67.4624,-64.5C77.6374,-64.5 88.7089,-64.5 99.2431,-64.5"/><polygon fill="#191970" stroke="#191970" points="67.244 -61 57.244 -64.5 67.244 -68 67.244 -61"/></g><g id="node4" class="node"><title>Node14</title><g id="a_node4"><a target="_top" xlink:href="structarm__compute_1_1traits_1_1is__contained_3_01_t_00_01std_1_1tuple_3_01_t_00_01_ts_8_8_8_01_4_01_4.xhtml" xlink:title="is_contained\&lt; T, std\l::tuple\&lt; T, Ts... \&gt; \&gt;"><polygon fill="#fff" stroke="#000" points="93 -.5 93 -30.5 199 -30.5 199 -.5 93 -.5"/><text x="101" y="-18.5" fill="#000" font-family="Helvetica,sans-Serif" font-size="10" text-anchor="start">is_contained&lt; T, std</text><text x="146" y="-7.5" fill="#000" font-family="Helvetica,sans-Serif" font-size="10" text-anchor="middle">::tuple&lt; T, Ts... &gt; &gt;</text></a></g></g><g id="edge3" class="edge"><title>Node11-&gt;Node14</title><path fill="none" stroke="#191970" d="M60.9004,-50.9883C76.0373,-44.6759 94.1177,-37.136 109.7122,-30.6328"/><polygon fill="#191970" stroke="#191970" points="59.317 -47.857 51.434 -54.936 62.011 -54.317 59.317 -47.857"/></g></g></svg>