<svg xmlns="http://www.w3.org/2000/svg" xmlns:xlink="http://www.w3.org/1999/xlink" width="312" height="104pt" viewBox="0 0 234 104"><g id="graph0" class="graph" transform="scale(1 1) rotate(0) translate(4 100)"><title>Graphical Class Hierarchy</title><polygon fill="#fff" stroke="transparent" points="-4 4 -4 -100 230 -100 230 4 -4 4"/><g id="node1" class="node"><title>Node0</title><g id="a_node1"><a target="_top" xlink:href="classarm__compute_1_1graph_1_1backends_1_1_i_device_backend.xhtml" xlink:title="Device backend interface."><polygon fill="#fff" stroke="#000" points="0 -38.5 0 -57.5 89 -57.5 89 -38.5 0 -38.5"/><text x="44.5" y="-45.5" fill="#000" font-family="Helvetica,sans-Serif" font-size="10" text-anchor="middle">IDeviceBackend</text></a></g></g><g id="node2" class="node"><title>Node1</title><g id="a_node2"><a target="_top" xlink:href="classarm__compute_1_1graph_1_1backends_1_1_c_l_device_backend.xhtml" xlink:title="OpenCL device backend."><polygon fill="#fff" stroke="#000" points="126.5 -76.5 126.5 -95.5 224.5 -95.5 224.5 -76.5 126.5 -76.5"/><text x="175.5" y="-83.5" fill="#000" font-family="Helvetica,sans-Serif" font-size="10" text-anchor="middle">CLDeviceBackend</text></a></g></g><g id="edge1" class="edge"><title>Node0-&gt;Node1</title><path fill="none" stroke="#191970" d="M87.2148,-60.3906C105.1547,-65.5945 125.6996,-71.5541 142.4537,-76.4141"/><polygon fill="#191970" stroke="#191970" points="88.136 -57.014 77.557 -57.589 86.186 -63.736 88.136 -57.014"/></g><g id="node3" class="node"><title>Node2</title><g id="a_node3"><a target="_top" xlink:href="classarm__compute_1_1graph_1_1backends_1_1_g_c_device_backend.xhtml" xlink:title="GLES Compute device backend."><polygon fill="#fff" stroke="#000" points="125 -38.5 125 -57.5 226 -57.5 226 -38.5 125 -38.5"/><text x="175.5" y="-45.5" fill="#000" font-family="Helvetica,sans-Serif" font-size="10" text-anchor="middle">GCDeviceBackend</text></a></g></g><g id="edge2" class="edge"><title>Node0-&gt;Node2</title><path fill="none" stroke="#191970" d="M99.3118,-48C107.7181,-48 116.3657,-48 124.6806,-48"/><polygon fill="#191970" stroke="#191970" points="99.216 -44.5 89.216 -48 99.216 -51.5 99.216 -44.5"/></g><g id="node4" class="node"><title>Node3</title><g id="a_node4"><a target="_top" xlink:href="classarm__compute_1_1graph_1_1backends_1_1_n_e_device_backend.xhtml" xlink:title="NEON device backend."><polygon fill="#fff" stroke="#000" points="125.5 -.5 125.5 -19.5 225.5 -19.5 225.5 -.5 125.5 -.5"/><text x="175.5" y="-7.5" fill="#000" font-family="Helvetica,sans-Serif" font-size="10" text-anchor="middle">NEDeviceBackend</text></a></g></g><g id="edge3" class="edge"><title>Node0-&gt;Node3</title><path fill="none" stroke="#191970" d="M87.2148,-35.6094C105.1547,-30.4055 125.6996,-24.4459 142.4537,-19.5859"/><polygon fill="#191970" stroke="#191970" points="86.186 -32.264 77.557 -38.411 88.136 -38.986 86.186 -32.264"/></g></g></svg>