<svg xmlns="http://www.w3.org/2000/svg" xmlns:xlink="http://www.w3.org/1999/xlink" width="233pt" height="240" viewBox="0 0 233 180"><g id="graph0" class="graph" transform="scale(1 1) rotate(0) translate(4 176)"><title>Graphical Class Hierarchy</title><polygon fill="#fff" stroke="transparent" points="-4 4 -4 -176 229 -176 229 4 -4 4"/><g id="node1" class="node"><title>Node0</title><g id="a_node1"><a target="_top" xlink:href="classarm__compute_1_1graph_1_1_i_tensor_handle.xhtml" xlink:title="Tensor handle interface object."><polygon fill="#fff" stroke="#000" points="0 -76.5 0 -95.5 80 -95.5 80 -76.5 0 -76.5"/><text x="40" y="-83.5" fill="#000" font-family="Helvetica,sans-Serif" font-size="10" text-anchor="middle">ITensorHandle</text></a></g></g><g id="node2" class="node"><title>Node1</title><g id="a_node2"><a target="_top" xlink:href="classarm__compute_1_1graph_1_1backends_1_1_c_l_sub_tensor_handle.xhtml" xlink:title="OpenCL Sub-Tensor handle interface object."><polygon fill="#fff" stroke="#000" points="117 -152.5 117 -171.5 224 -171.5 224 -152.5 117 -152.5"/><text x="170.5" y="-159.5" fill="#000" font-family="Helvetica,sans-Serif" font-size="10" text-anchor="middle">CLSubTensorHandle</text></a></g></g><g id="edge1" class="edge"><title>Node0-&gt;Node1</title><path fill="none" stroke="#191970" d="M58.4317,-102.3974C73.1795,-114.8579 94.8272,-131.721 116,-143 122.8097,-146.6276 130.4535,-149.7919 137.8136,-152.4434"/><polygon fill="#191970" stroke="#191970" points="60.46 -99.525 50.602 -95.645 55.889 -104.826 60.46 -99.525"/></g><g id="node3" class="node"><title>Node2</title><g id="a_node3"><a target="_top" xlink:href="classarm__compute_1_1graph_1_1backends_1_1_c_l_tensor_handle.xhtml" xlink:title="OpenCL Tensor handle interface object."><polygon fill="#fff" stroke="#000" points="125.5 -114.5 125.5 -133.5 215.5 -133.5 215.5 -114.5 125.5 -114.5"/><text x="170.5" y="-121.5" fill="#000" font-family="Helvetica,sans-Serif" font-size="10" text-anchor="middle">CLTensorHandle</text></a></g></g><g id="edge2" class="edge"><title>Node0-&gt;Node2</title><path fill="none" stroke="#191970" d="M82.5518,-98.3906C100.4232,-103.5945 120.8897,-109.5541 137.5799,-114.4141"/><polygon fill="#191970" stroke="#191970" points="83.51 -95.024 72.931 -95.589 81.553 -101.745 83.51 -95.024"/></g><g id="node4" class="node"><title>Node3</title><g id="a_node4"><a target="_top" xlink:href="classarm__compute_1_1graph_1_1backends_1_1_g_c_tensor_handle.xhtml" xlink:title="GLES compute tensor handle interface object."><polygon fill="#fff" stroke="#000" points="124.5 -76.5 124.5 -95.5 216.5 -95.5 216.5 -76.5 124.5 -76.5"/><text x="170.5" y="-83.5" fill="#000" font-family="Helvetica,sans-Serif" font-size="10" text-anchor="middle">GCTensorHandle</text></a></g></g><g id="edge3" class="edge"><title>Node0-&gt;Node3</title><path fill="none" stroke="#191970" d="M90.2686,-86C101.4452,-86 113.2417,-86 124.2481,-86"/><polygon fill="#191970" stroke="#191970" points="90.219 -82.5 80.219 -86 90.219 -89.5 90.219 -82.5"/></g><g id="node5" class="node"><title>Node4</title><g id="a_node5"><a target="_top" xlink:href="classarm__compute_1_1graph_1_1backends_1_1_n_e_sub_tensor_handle.xhtml" xlink:title="NEON Sub-Tensor handle interface object."><polygon fill="#fff" stroke="#000" points="116 -38.5 116 -57.5 225 -57.5 225 -38.5 116 -38.5"/><text x="170.5" y="-45.5" fill="#000" font-family="Helvetica,sans-Serif" font-size="10" text-anchor="middle">NESubTensorHandle</text></a></g></g><g id="edge4" class="edge"><title>Node0-&gt;Node4</title><path fill="none" stroke="#191970" d="M82.5518,-73.6094C100.4232,-68.4055 120.8897,-62.4459 137.5799,-57.5859"/><polygon fill="#191970" stroke="#191970" points="81.553 -70.255 72.931 -76.411 83.51 -76.976 81.553 -70.255"/></g><g id="node6" class="node"><title>Node5</title><g id="a_node6"><a target="_top" xlink:href="classarm__compute_1_1graph_1_1backends_1_1_n_e_tensor_handle.xhtml" xlink:title="NEON Tensor handle interface object."><polygon fill="#fff" stroke="#000" points="124.5 -.5 124.5 -19.5 216.5 -19.5 216.5 -.5 124.5 -.5"/><text x="170.5" y="-7.5" fill="#000" font-family="Helvetica,sans-Serif" font-size="10" text-anchor="middle">NETensorHandle</text></a></g></g><g id="edge5" class="edge"><title>Node0-&gt;Node5</title><path fill="none" stroke="#191970" d="M58.4317,-69.6026C73.1795,-57.1421 94.8272,-40.279 116,-29 122.8097,-25.3724 130.4535,-22.2081 137.8136,-19.5566"/><polygon fill="#191970" stroke="#191970" points="55.889 -67.174 50.602 -76.355 60.46 -72.475 55.889 -67.174"/></g></g></svg>