<svg xmlns="http://www.w3.org/2000/svg" xmlns:xlink="http://www.w3.org/1999/xlink" width="439pt" height="104pt" viewBox="0 0 439 104"><g id="graph0" class="graph" transform="scale(1 1) rotate(0) translate(4 100)"><title>Graphical Class Hierarchy</title><polygon fill="#fff" stroke="transparent" points="-4 4 -4 -100 435 -100 435 4 -4 4"/><g id="node1" class="node"><title>Node0</title><g id="a_node1"><a target="_top" xlink:href="classarm__compute_1_1_i_access_window.xhtml" xlink:title="Interface describing methods to update access window and padding based on kernel parameters."><polygon fill="#fff" stroke="#000" points="0 -38.5 0 -57.5 88 -57.5 88 -38.5 0 -38.5"/><text x="44" y="-45.5" fill="#000" font-family="Helvetica,sans-Serif" font-size="10" text-anchor="middle">IAccessWindow</text></a></g></g><g id="node2" class="node"><title>Node1</title><g id="a_node2"><a target="_top" xlink:href="classarm__compute_1_1_access_window_auto_padding.xhtml" xlink:title="Dummy access window."><polygon fill="#fff" stroke="#000" points="124 -76.5 124 -95.5 264 -95.5 264 -76.5 124 -76.5"/><text x="194" y="-83.5" fill="#000" font-family="Helvetica,sans-Serif" font-size="10" text-anchor="middle">AccessWindowAutoPadding</text></a></g></g><g id="edge1" class="edge"><title>Node0-&gt;Node1</title><path fill="none" stroke="#191970" d="M91.811,-60.1121C112.7016,-65.4044 136.8472,-71.5213 156.4209,-76.4799"/><polygon fill="#191970" stroke="#191970" points="92.405 -56.652 81.851 -57.589 90.686 -63.438 92.405 -56.652"/></g><g id="node3" class="node"><title>Node2</title><g id="a_node3"><a target="_top" xlink:href="classarm__compute_1_1_access_window_rectangle.xhtml" xlink:title="Implementation of a rectangular access pattern."><polygon fill="#fff" stroke="#000" points="129.5 -38.5 129.5 -57.5 258.5 -57.5 258.5 -38.5 129.5 -38.5"/><text x="194" y="-45.5" fill="#000" font-family="Helvetica,sans-Serif" font-size="10" text-anchor="middle">AccessWindowRectangle</text></a></g></g><g id="edge2" class="edge"><title>Node0-&gt;Node2</title><path fill="none" stroke="#191970" d="M98.4118,-48C108.4337,-48 118.9873,-48 129.2777,-48"/><polygon fill="#191970" stroke="#191970" points="98.194 -44.5 88.194 -48 98.194 -51.5 98.194 -44.5"/></g><g id="node7" class="node"><title>Node6</title><g id="a_node7"><a target="_top" xlink:href="classarm__compute_1_1_access_window_static.xhtml" xlink:title="Implementation of a static rectangular access pattern."><polygon fill="#fff" stroke="#000" points="139 -.5 139 -19.5 249 -19.5 249 -.5 139 -.5"/><text x="194" y="-7.5" fill="#000" font-family="Helvetica,sans-Serif" font-size="10" text-anchor="middle">AccessWindowStatic</text></a></g></g><g id="edge6" class="edge"><title>Node0-&gt;Node6</title><path fill="none" stroke="#191970" d="M91.811,-35.8879C112.7016,-30.5956 136.8472,-24.4787 156.4209,-19.5201"/><polygon fill="#191970" stroke="#191970" points="90.686 -32.562 81.851 -38.411 92.405 -39.348 90.686 -32.562"/></g><g id="node4" class="node"><title>Node3</title><g id="a_node4"><a target="_top" xlink:href="classarm__compute_1_1_access_window_horizontal.xhtml" xlink:title="Implementation of a row access pattern."><polygon fill="#fff" stroke="#000" points="301 -76.5 301 -95.5 430 -95.5 430 -76.5 301 -76.5"/><text x="365.5" y="-83.5" fill="#000" font-family="Helvetica,sans-Serif" font-size="10" text-anchor="middle">AccessWindowHorizontal</text></a></g></g><g id="edge3" class="edge"><title>Node2-&gt;Node3</title><path fill="none" stroke="#191970" d="M247.0412,-59.7526C271.2913,-65.1258 299.6467,-71.4086 322.5345,-76.4799"/><polygon fill="#191970" stroke="#191970" points="247.797 -56.335 237.277 -57.589 246.283 -63.169 247.797 -56.335"/></g><g id="node5" class="node"><title>Node4</title><g id="a_node5"><a target="_top" xlink:href="classarm__compute_1_1_access_window_transpose.xhtml" xlink:title="Implementation of a XY-transpose access pattern."><polygon fill="#fff" stroke="#000" points="300 -38.5 300 -57.5 431 -57.5 431 -38.5 300 -38.5"/><text x="365.5" y="-45.5" fill="#000" font-family="Helvetica,sans-Serif" font-size="10" text-anchor="middle">AccessWindowTranspose</text></a></g></g><g id="edge4" class="edge"><title>Node2-&gt;Node4</title><path fill="none" stroke="#191970" d="M268.9812,-48C279.217,-48 289.6608,-48 299.7167,-48"/><polygon fill="#191970" stroke="#191970" points="268.837 -44.5 258.837 -48 268.837 -51.5 268.837 -44.5"/></g><g id="node6" class="node"><title>Node5</title><g id="a_node6"><a target="_top" xlink:href="classarm__compute_1_1_access_window_vertical.xhtml" xlink:title="Implementation of a column access pattern."><polygon fill="#fff" stroke="#000" points="306.5 -.5 306.5 -19.5 424.5 -19.5 424.5 -.5 306.5 -.5"/><text x="365.5" y="-7.5" fill="#000" font-family="Helvetica,sans-Serif" font-size="10" text-anchor="middle">AccessWindowVertical</text></a></g></g><g id="edge5" class="edge"><title>Node2-&gt;Node5</title><path fill="none" stroke="#191970" d="M247.0412,-36.2474C271.2913,-30.8742 299.6467,-24.5914 322.5345,-19.5201"/><polygon fill="#191970" stroke="#191970" points="246.283 -32.831 237.277 -38.411 247.797 -39.665 246.283 -32.831"/></g></g></svg>