<svg xmlns="http://www.w3.org/2000/svg" xmlns:xlink="http://www.w3.org/1999/xlink" width="308" height="1130pt" viewBox="0 0 231 1130"><g id="graph0" class="graph" transform="scale(1 1) rotate(0) translate(4 1126)"><title>Graphical Class Hierarchy</title><polygon fill="#fff" stroke="transparent" points="-4 4 -4 -1126 227 -1126 227 4 -4 4"/><g id="node1" class="node"><title>Node0</title><g id="a_node1"><a target="_top" xlink:href="classarm__compute_1_1graph_1_1frontend_1_1_i_layer.xhtml" xlink:title="ILayer interface."><polygon fill="#fff" stroke="#000" points="0 -551.5 0 -570.5 44 -570.5 44 -551.5 0 -551.5"/><text x="22" y="-558.5" fill="#000" font-family="Helvetica,sans-Serif" font-size="10" text-anchor="middle">ILayer</text></a></g></g><g id="node2" class="node"><title>Node1</title><g id="a_node2"><a target="_top" xlink:href="classarm__compute_1_1graph_1_1frontend_1_1_activation_layer.xhtml" xlink:title="Activation Layer."><polygon fill="#fff" stroke="#000" points="109.5 -1102.5 109.5 -1121.5 193.5 -1121.5 193.5 -1102.5 109.5 -1102.5"/><text x="151.5" y="-1109.5" fill="#000" font-family="Helvetica,sans-Serif" font-size="10" text-anchor="middle">ActivationLayer</text></a></g></g><g id="edge1" class="edge"><title>Node0-&gt;Node1</title><path fill="none" stroke="#191970" d="M22.8537,-580.9149C26.9677,-672.8427 45.9592,-1053.3823 80,-1093 87.4497,-1101.6702 98.3614,-1106.6084 109.4275,-1109.3615"/><polygon fill="#191970" stroke="#191970" points="26.343 -580.59 22.407 -570.753 19.35 -580.897 26.343 -580.59"/></g><g id="node3" class="node"><title>Node2</title><g id="a_node3"><a target="_top" xlink:href="classarm__compute_1_1graph_1_1frontend_1_1_batch_normalization_layer.xhtml" xlink:title="Batchnormalization Layer."><polygon fill="#fff" stroke="#000" points="88.5 -1064.5 88.5 -1083.5 214.5 -1083.5 214.5 -1064.5 88.5 -1064.5"/><text x="151.5" y="-1071.5" fill="#000" font-family="Helvetica,sans-Serif" font-size="10" text-anchor="middle">BatchNormalizationLayer</text></a></g></g><g id="edge2" class="edge"><title>Node0-&gt;Node2</title><path fill="none" stroke="#191970" d="M23.0414,-581.1401C27.7755,-669.3128 48.4089,-1018.5398 80,-1055 83.2802,-1058.7858 87.2204,-1061.859 91.5433,-1064.349"/><polygon fill="#191970" stroke="#191970" points="26.523 -580.696 22.5 -570.894 19.533 -581.065 26.523 -580.696"/></g><g id="node4" class="node"><title>Node3</title><g id="a_node4"><a target="_top" xlink:href="classarm__compute_1_1graph_1_1frontend_1_1_bounding_box_transform_layer.xhtml" xlink:title="Bounding Box Transform Layer."><polygon fill="#fff" stroke="#000" points="80 -1026.5 80 -1045.5 223 -1045.5 223 -1026.5 80 -1026.5"/><text x="151.5" y="-1033.5" fill="#000" font-family="Helvetica,sans-Serif" font-size="10" text-anchor="middle">BoundingBoxTransformLayer</text></a></g></g><g id="edge3" class="edge"><title>Node0-&gt;Node3</title><path fill="none" stroke="#191970" d="M23.2156,-580.6287C28.5297,-663.6959 50.7652,-983.586 80,-1017 83.2984,-1020.7699 87.2512,-1023.8321 91.5826,-1026.3148"/><polygon fill="#191970" stroke="#191970" points="26.702 -580.294 22.579 -570.534 19.715 -580.734 26.702 -580.294"/></g><g id="node5" class="node"><title>Node4</title><g id="a_node5"><a target="_top" xlink:href="classarm__compute_1_1graph_1_1frontend_1_1_channel_shuffle_layer.xhtml" xlink:title="Channel Shuffle Layer."><polygon fill="#fff" stroke="#000" points="98 -988.5 98 -1007.5 205 -1007.5 205 -988.5 98 -988.5"/><text x="151.5" y="-995.5" fill="#000" font-family="Helvetica,sans-Serif" font-size="10" text-anchor="middle">ChannelShuffleLayer</text></a></g></g><g id="edge4" class="edge"><title>Node0-&gt;Node4</title><path fill="none" stroke="#191970" d="M23.4803,-580.9802C29.5153,-660.1154 53.2158,-948.7357 80,-979 84.852,-984.4824 91.088,-988.4653 97.8511,-991.3448"/><polygon fill="#191970" stroke="#191970" points="26.961 -580.589 22.72 -570.88 19.981 -581.115 26.961 -580.589"/></g><g id="node6" class="node"><title>Node5</title><g id="a_node6"><a target="_top" xlink:href="classarm__compute_1_1graph_1_1frontend_1_1_concat_layer.xhtml" xlink:title="Concat Layer."><polygon fill="#fff" stroke="#000" points="115.5 -950.5 115.5 -969.5 187.5 -969.5 187.5 -950.5 115.5 -950.5"/><text x="151.5" y="-957.5" fill="#000" font-family="Helvetica,sans-Serif" font-size="10" text-anchor="middle">ConcatLayer</text></a></g></g><g id="edge5" class="edge"><title>Node0-&gt;Node5</title><path fill="none" stroke="#191970" d="M22.2541,-580.6323C23.5631,-650.677 31.556,-887.0051 80,-941 88.9205,-950.9426 102.3933,-955.9426 115.2476,-958.3749"/><polygon fill="#191970" stroke="#191970" points="25.752 -580.483 22.092 -570.54 18.753 -580.595 25.752 -580.483"/></g><g id="node7" class="node"><title>Node6</title><g id="a_node7"><a target="_top" xlink:href="classarm__compute_1_1graph_1_1frontend_1_1_convolution_layer.xhtml" xlink:title="Convolution Layer."><polygon fill="#fff" stroke="#000" points="105.5 -912.5 105.5 -931.5 197.5 -931.5 197.5 -912.5 105.5 -912.5"/><text x="151.5" y="-919.5" fill="#000" font-family="Helvetica,sans-Serif" font-size="10" text-anchor="middle">ConvolutionLayer</text></a></g></g><g id="edge6" class="edge"><title>Node0-&gt;Node6</title><path fill="none" stroke="#191970" d="M22.6262,-580.748C25.106,-646.2876 36.352,-855.1522 80,-903 86.6652,-910.3065 95.7894,-914.9366 105.2904,-917.8393"/><polygon fill="#191970" stroke="#191970" points="26.117 -580.43 22.269 -570.559 19.122 -580.675 26.117 -580.43"/></g><g id="node8" class="node"><title>Node7</title><g id="a_node8"><a target="_top" xlink:href="classarm__compute_1_1graph_1_1frontend_1_1_deconvolution_layer.xhtml" xlink:title="Deconvolution Layer."><polygon fill="#fff" stroke="#000" points="100 -874.5 100 -893.5 203 -893.5 203 -874.5 100 -874.5"/><text x="151.5" y="-881.5" fill="#000" font-family="Helvetica,sans-Serif" font-size="10" text-anchor="middle">DeconvolutionLayer</text></a></g></g><g id="edge7" class="edge"><title>Node0-&gt;Node7</title><path fill="none" stroke="#191970" d="M23.0946,-580.8881C26.8394,-641.651 41.1289,-823.2575 80,-865 85.4269,-870.8278 92.4189,-874.9471 99.8997,-877.8438"/><polygon fill="#191970" stroke="#191970" points="26.578 -580.493 22.498 -570.715 19.59 -580.903 26.578 -580.493"/></g><g id="node9" class="node"><title>Node8</title><g id="a_node9"><a target="_top" xlink:href="classarm__compute_1_1graph_1_1frontend_1_1_depthwise_convolution_layer.xhtml" xlink:title="Depthwise Convolution Layer."><polygon fill="#fff" stroke="#000" points="82 -836.5 82 -855.5 221 -855.5 221 -836.5 82 -836.5"/><text x="151.5" y="-843.5" fill="#000" font-family="Helvetica,sans-Serif" font-size="10" text-anchor="middle">DepthwiseConvolutionLayer</text></a></g></g><g id="edge8" class="edge"><title>Node0-&gt;Node8</title><path fill="none" stroke="#191970" d="M23.6867,-580.8957C28.7892,-636.4109 45.8492,-791.2751 80,-827 83.6388,-830.8066 87.9461,-833.8812 92.6143,-836.3607"/><polygon fill="#191970" stroke="#191970" points="27.147 -580.288 22.777 -570.636 20.174 -580.906 27.147 -580.288"/></g><g id="node10" class="node"><title>Node9</title><g id="a_node10"><a target="_top" xlink:href="classarm__compute_1_1graph_1_1frontend_1_1_dummy_layer.xhtml" xlink:title="Dummy Layer."><polygon fill="#fff" stroke="#000" points="114 -798.5 114 -817.5 189 -817.5 189 -798.5 114 -798.5"/><text x="151.5" y="-805.5" fill="#000" font-family="Helvetica,sans-Serif" font-size="10" text-anchor="middle">DummyLayer</text></a></g></g><g id="edge9" class="edge"><title>Node0-&gt;Node9</title><path fill="none" stroke="#191970" d="M24.4353,-580.6388C30.9817,-630.3195 50.4838,-759.1684 80,-789 88.9433,-798.0389 101.6625,-802.9283 113.8996,-805.5257"/><polygon fill="#191970" stroke="#191970" points="27.886 -580.028 23.143 -570.555 20.943 -580.918 27.886 -580.028"/></g><g id="node11" class="node"><title>Node10</title><g id="a_node11"><a target="_top" xlink:href="classarm__compute_1_1graph_1_1frontend_1_1_eltwise_layer.xhtml" xlink:title="EltwiseLayer"><polygon fill="#fff" stroke="#000" points="115 -760.5 115 -779.5 188 -779.5 188 -760.5 115 -760.5"/><text x="151.5" y="-767.5" fill="#000" font-family="Helvetica,sans-Serif" font-size="10" text-anchor="middle">EltwiseLayer</text></a></g></g><g id="edge10" class="edge"><title>Node0-&gt;Node10</title><path fill="none" stroke="#191970" d="M25.4812,-580.5068C33.6207,-624.0034 55.1038,-726.9974 80,-751 89.339,-760.0038 102.4382,-764.8604 114.877,-767.4408"/><polygon fill="#191970" stroke="#191970" points="28.91 -579.798 23.666 -570.592 22.024 -581.059 28.91 -579.798"/></g><g id="node12" class="node"><title>Node11</title><g id="a_node12"><a target="_top" xlink:href="classarm__compute_1_1graph_1_1frontend_1_1_flatten_layer.xhtml" xlink:title="Flatten Layer."><polygon fill="#fff" stroke="#000" points="116 -722.5 116 -741.5 187 -741.5 187 -722.5 116 -722.5"/><text x="151.5" y="-729.5" fill="#000" font-family="Helvetica,sans-Serif" font-size="10" text-anchor="middle">FlattenLayer</text></a></g></g><g id="edge11" class="edge"><title>Node0-&gt;Node11</title><path fill="none" stroke="#191970" d="M23.8765,-580.9617C28.0221,-613.4936 40.9443,-677.8367 80,-713 89.8316,-721.8518 103.3263,-726.6564 115.9449,-729.2376"/><polygon fill="#191970" stroke="#191970" points="27.339 -580.43 22.748 -570.881 20.382 -581.209 27.339 -580.43"/></g><g id="node13" class="node"><title>Node12</title><g id="a_node13"><a target="_top" xlink:href="classarm__compute_1_1graph_1_1frontend_1_1_fully_connected_layer.xhtml" xlink:title="Fully Connected Layer."><polygon fill="#fff" stroke="#000" points="97 -684.5 97 -703.5 206 -703.5 206 -684.5 97 -684.5"/><text x="151.5" y="-691.5" fill="#000" font-family="Helvetica,sans-Serif" font-size="10" text-anchor="middle">FullyConnectedLayer</text></a></g></g><g id="edge12" class="edge"><title>Node0-&gt;Node12</title><path fill="none" stroke="#191970" d="M26.6586,-580.6387C33.7577,-606.2205 49.7663,-650.554 80,-675 84.9938,-679.0378 90.7644,-682.2232 96.8179,-684.735"/><polygon fill="#191970" stroke="#191970" points="29.965 -579.446 24.075 -570.639 23.188 -581.197 29.965 -579.446"/></g><g id="node14" class="node"><title>Node13</title><g id="a_node14"><a target="_top" xlink:href="classarm__compute_1_1graph_1_1frontend_1_1_generate_proposals_layer.xhtml" xlink:title="Generate Proposals Layer."><polygon fill="#fff" stroke="#000" points="89.5 -646.5 89.5 -665.5 213.5 -665.5 213.5 -646.5 89.5 -646.5"/><text x="151.5" y="-653.5" fill="#000" font-family="Helvetica,sans-Serif" font-size="10" text-anchor="middle">GenerateProposalsLayer</text></a></g></g><g id="edge13" class="edge"><title>Node0-&gt;Node13</title><path fill="none" stroke="#191970" d="M31.5647,-579.7569C41.3969,-597.1629 58.3156,-622.5021 80,-637 85.7658,-640.8549 92.2805,-643.9289 98.9716,-646.38"/><polygon fill="#191970" stroke="#191970" points="34.437 -577.71 26.612 -570.567 28.275 -581.031 34.437 -577.71"/></g><g id="node15" class="node"><title>Node14</title><g id="a_node15"><a target="_top" xlink:href="classarm__compute_1_1graph_1_1frontend_1_1_input_layer.xhtml" xlink:title="Input Layer."><polygon fill="#fff" stroke="#000" points="120.5 -608.5 120.5 -627.5 182.5 -627.5 182.5 -608.5 120.5 -608.5"/><text x="151.5" y="-615.5" fill="#000" font-family="Helvetica,sans-Serif" font-size="10" text-anchor="middle">InputLayer</text></a></g></g><g id="edge14" class="edge"><title>Node0-&gt;Node14</title><path fill="none" stroke="#191970" d="M42.4631,-576.7338C53.1697,-584.3483 66.7746,-593.096 80,-599 92.784,-604.7069 107.6438,-608.9986 120.4942,-612.0455"/><polygon fill="#191970" stroke="#191970" points="44.357 -573.783 34.223 -570.691 40.218 -579.427 44.357 -573.783"/></g><g id="node16" class="node"><title>Node15</title><g id="a_node16"><a target="_top" xlink:href="classarm__compute_1_1graph_1_1frontend_1_1_normalization_layer.xhtml" xlink:title="Normalization Layer."><polygon fill="#fff" stroke="#000" points="101 -570.5 101 -589.5 202 -589.5 202 -570.5 101 -570.5"/><text x="151.5" y="-577.5" fill="#000" font-family="Helvetica,sans-Serif" font-size="10" text-anchor="middle">NormalizationLayer</text></a></g></g><g id="edge15" class="edge"><title>Node0-&gt;Node15</title><path fill="none" stroke="#191970" d="M54.3966,-565.7532C68.4291,-567.812 85.1901,-570.2711 100.8052,-572.5622"/><polygon fill="#191970" stroke="#191970" points="54.664 -562.255 44.262 -564.266 53.648 -569.181 54.664 -562.255"/></g><g id="node17" class="node"><title>Node16</title><g id="a_node17"><a target="_top" xlink:href="classarm__compute_1_1graph_1_1frontend_1_1_normalize_planar_y_u_v_layer.xhtml" xlink:title="Normalize planar YUV Layer."><polygon fill="#fff" stroke="#000" points="84.5 -532.5 84.5 -551.5 218.5 -551.5 218.5 -532.5 84.5 -532.5"/><text x="151.5" y="-539.5" fill="#000" font-family="Helvetica,sans-Serif" font-size="10" text-anchor="middle">NormalizePlanarYUVLayer</text></a></g></g><g id="edge16" class="edge"><title>Node0-&gt;Node16</title><path fill="none" stroke="#191970" d="M54.3697,-556.2508C64.2316,-554.8039 75.443,-553.1589 86.6581,-551.5135"/><polygon fill="#191970" stroke="#191970" points="53.648 -552.819 44.262 -557.734 54.664 -559.745 53.648 -552.819"/></g><g id="node18" class="node"><title>Node17</title><g id="a_node18"><a target="_top" xlink:href="classarm__compute_1_1graph_1_1frontend_1_1_output_layer.xhtml" xlink:title="Output Layer."><polygon fill="#fff" stroke="#000" points="116.5 -494.5 116.5 -513.5 186.5 -513.5 186.5 -494.5 116.5 -494.5"/><text x="151.5" y="-501.5" fill="#000" font-family="Helvetica,sans-Serif" font-size="10" text-anchor="middle">OutputLayer</text></a></g></g><g id="edge17" class="edge"><title>Node0-&gt;Node17</title><path fill="none" stroke="#191970" d="M42.4631,-545.2662C53.1697,-537.6517 66.7746,-528.904 80,-523 91.3766,-517.9214 104.3971,-513.9635 116.1824,-511.0063"/><polygon fill="#191970" stroke="#191970" points="40.218 -542.573 34.223 -551.309 44.357 -548.217 40.218 -542.573"/></g><g id="node19" class="node"><title>Node18</title><g id="a_node19"><a target="_top" xlink:href="classarm__compute_1_1graph_1_1frontend_1_1_pad_layer.xhtml" xlink:title="Pad Layer."><polygon fill="#fff" stroke="#000" points="122.5 -456.5 122.5 -475.5 180.5 -475.5 180.5 -456.5 122.5 -456.5"/><text x="151.5" y="-463.5" fill="#000" font-family="Helvetica,sans-Serif" font-size="10" text-anchor="middle">PadLayer</text></a></g></g><g id="edge18" class="edge"><title>Node0-&gt;Node18</title><path fill="none" stroke="#191970" d="M31.5647,-542.2431C41.3969,-524.8371 58.3156,-499.4979 80,-485 92.4925,-476.6477 108.5009,-471.9612 122.2019,-469.3344"/><polygon fill="#191970" stroke="#191970" points="28.275 -540.969 26.612 -551.433 34.437 -544.29 28.275 -540.969"/></g><g id="node20" class="node"><title>Node19</title><g id="a_node20"><a target="_top" xlink:href="classarm__compute_1_1graph_1_1frontend_1_1_permute_layer.xhtml" xlink:title="Permute Layer."><polygon fill="#fff" stroke="#000" points="113 -418.5 113 -437.5 190 -437.5 190 -418.5 113 -418.5"/><text x="151.5" y="-425.5" fill="#000" font-family="Helvetica,sans-Serif" font-size="10" text-anchor="middle">PermuteLayer</text></a></g></g><g id="edge19" class="edge"><title>Node0-&gt;Node19</title><path fill="none" stroke="#191970" d="M26.6586,-541.3613C33.7577,-515.7795 49.7663,-471.446 80,-447 89.2885,-439.4896 101.2644,-434.9285 112.7493,-432.165"/><polygon fill="#191970" stroke="#191970" points="23.188 -540.803 24.075 -551.361 29.965 -542.554 23.188 -540.803"/></g><g id="node21" class="node"><title>Node20</title><g id="a_node21"><a target="_top" xlink:href="classarm__compute_1_1graph_1_1frontend_1_1_pooling_layer.xhtml" xlink:title="Pooling Layer."><polygon fill="#fff" stroke="#000" points="115 -380.5 115 -399.5 188 -399.5 188 -380.5 115 -380.5"/><text x="151.5" y="-387.5" fill="#000" font-family="Helvetica,sans-Serif" font-size="10" text-anchor="middle">PoolingLayer</text></a></g></g><g id="edge20" class="edge"><title>Node0-&gt;Node20</title><path fill="none" stroke="#191970" d="M23.8765,-541.0383C28.0221,-508.5064 40.9443,-444.1633 80,-409 89.5453,-400.406 102.5433,-395.6269 114.8402,-392.9937"/><polygon fill="#191970" stroke="#191970" points="20.382 -540.791 22.748 -551.119 27.339 -541.57 20.382 -540.791"/></g><g id="node22" class="node"><title>Node21</title><g id="a_node22"><a target="_top" xlink:href="classarm__compute_1_1graph_1_1frontend_1_1_prior_box_layer.xhtml" xlink:title="PriorBox Layer."><polygon fill="#fff" stroke="#000" points="112.5 -342.5 112.5 -361.5 190.5 -361.5 190.5 -342.5 112.5 -342.5"/><text x="151.5" y="-349.5" fill="#000" font-family="Helvetica,sans-Serif" font-size="10" text-anchor="middle">PriorBoxLayer</text></a></g></g><g id="edge21" class="edge"><title>Node0-&gt;Node21</title><path fill="none" stroke="#191970" d="M25.4812,-541.4932C33.6207,-497.9966 55.1038,-395.0026 80,-371 88.6917,-362.6203 100.6406,-357.8327 112.2827,-355.1291"/><polygon fill="#191970" stroke="#191970" points="22.024 -540.941 23.666 -551.408 28.91 -542.202 22.024 -540.941"/></g><g id="node23" class="node"><title>Node22</title><g id="a_node23"><a target="_top" xlink:href="classarm__compute_1_1graph_1_1frontend_1_1_reorg_layer.xhtml" xlink:title="Reorg Layer."><polygon fill="#fff" stroke="#000" points="118 -304.5 118 -323.5 185 -323.5 185 -304.5 118 -304.5"/><text x="151.5" y="-311.5" fill="#000" font-family="Helvetica,sans-Serif" font-size="10" text-anchor="middle">ReorgLayer</text></a></g></g><g id="edge22" class="edge"><title>Node0-&gt;Node22</title><path fill="none" stroke="#191970" d="M24.4353,-541.3612C30.9817,-491.6805 50.4838,-362.8316 80,-333 89.937,-322.9568 104.5356,-318.0364 117.955,-315.6908"/><polygon fill="#191970" stroke="#191970" points="20.943 -541.082 23.143 -551.445 27.886 -541.972 20.943 -541.082"/></g><g id="node24" class="node"><title>Node23</title><g id="a_node24"><a target="_top" xlink:href="classarm__compute_1_1graph_1_1frontend_1_1_reshape_layer.xhtml" xlink:title="Reshape Layer."><polygon fill="#fff" stroke="#000" points="111.5 -266.5 111.5 -285.5 191.5 -285.5 191.5 -266.5 111.5 -266.5"/><text x="151.5" y="-273.5" fill="#000" font-family="Helvetica,sans-Serif" font-size="10" text-anchor="middle">ReshapeLayer</text></a></g></g><g id="edge23" class="edge"><title>Node0-&gt;Node23</title><path fill="none" stroke="#191970" d="M23.6867,-541.1043C28.7892,-485.5891 45.8492,-330.7249 80,-295 88.254,-286.3656 99.947,-281.4971 111.4911,-278.7979"/><polygon fill="#191970" stroke="#191970" points="20.174 -541.094 22.777 -551.364 27.147 -541.712 20.174 -541.094"/></g><g id="node25" class="node"><title>Node24</title><g id="a_node25"><a target="_top" xlink:href="classarm__compute_1_1graph_1_1frontend_1_1_resize_layer.xhtml" xlink:title="Resize Layer."><polygon fill="#fff" stroke="#000" points="116 -228.5 116 -247.5 187 -247.5 187 -228.5 116 -228.5"/><text x="151.5" y="-235.5" fill="#000" font-family="Helvetica,sans-Serif" font-size="10" text-anchor="middle">ResizeLayer</text></a></g></g><g id="edge24" class="edge"><title>Node0-&gt;Node24</title><path fill="none" stroke="#191970" d="M23.0946,-541.1119C26.8394,-480.349 41.1289,-298.7425 80,-257 89.1907,-247.1304 102.8704,-242.1606 115.8107,-239.7316"/><polygon fill="#191970" stroke="#191970" points="19.59 -541.097 22.498 -551.285 26.578 -541.507 19.59 -541.097"/></g><g id="node26" class="node"><title>Node25</title><g id="a_node26"><a target="_top" xlink:href="classarm__compute_1_1graph_1_1frontend_1_1_r_o_i_align_layer.xhtml" xlink:title="ROIAlign Layer."><polygon fill="#fff" stroke="#000" points="111.5 -190.5 111.5 -209.5 191.5 -209.5 191.5 -190.5 111.5 -190.5"/><text x="151.5" y="-197.5" fill="#000" font-family="Helvetica,sans-Serif" font-size="10" text-anchor="middle">ROIAlignLayer</text></a></g></g><g id="edge25" class="edge"><title>Node0-&gt;Node25</title><path fill="none" stroke="#191970" d="M22.6262,-541.252C25.106,-475.7124 36.352,-266.8478 80,-219 88.0502,-210.1753 99.6875,-205.2548 111.2432,-202.5664"/><polygon fill="#191970" stroke="#191970" points="19.122 -541.325 22.269 -551.441 26.117 -541.57 19.122 -541.325"/></g><g id="node27" class="node"><title>Node26</title><g id="a_node27"><a target="_top" xlink:href="classarm__compute_1_1graph_1_1frontend_1_1_scale_layer.xhtml" xlink:title="Scale Layer."><polygon fill="#fff" stroke="#000" points="119 -152.5 119 -171.5 184 -171.5 184 -152.5 119 -152.5"/><text x="151.5" y="-159.5" fill="#000" font-family="Helvetica,sans-Serif" font-size="10" text-anchor="middle">ScaleLayer</text></a></g></g><g id="edge26" class="edge"><title>Node0-&gt;Node26</title><path fill="none" stroke="#191970" d="M22.2541,-541.3677C23.5631,-471.323 31.556,-234.9949 80,-181 89.7782,-170.1014 105.0264,-165.1416 118.9338,-162.9926"/><polygon fill="#191970" stroke="#191970" points="18.753 -541.405 22.092 -551.46 25.752 -541.517 18.753 -541.405"/></g><g id="node28" class="node"><title>Node27</title><g id="a_node28"><a target="_top" xlink:href="classarm__compute_1_1graph_1_1frontend_1_1_slice_layer.xhtml" xlink:title="Slice Layer."><polygon fill="#fff" stroke="#000" points="120.5 -114.5 120.5 -133.5 182.5 -133.5 182.5 -114.5 120.5 -114.5"/><text x="151.5" y="-121.5" fill="#000" font-family="Helvetica,sans-Serif" font-size="10" text-anchor="middle">SliceLayer</text></a></g></g><g id="edge27" class="edge"><title>Node0-&gt;Node27</title><path fill="none" stroke="#191970" d="M23.4803,-541.0198C29.5153,-461.8846 53.2158,-173.2643 80,-143 90.0444,-131.6505 106.0203,-126.727 120.3254,-124.7169"/><polygon fill="#191970" stroke="#191970" points="19.981 -540.885 22.72 -551.12 26.961 -541.411 19.981 -540.885"/></g><g id="node29" class="node"><title>Node28</title><g id="a_node29"><a target="_top" xlink:href="classarm__compute_1_1graph_1_1frontend_1_1_softmax_layer.xhtml" xlink:title="Softmax Layer."><polygon fill="#fff" stroke="#000" points="113 -76.5 113 -95.5 190 -95.5 190 -76.5 113 -76.5"/><text x="151.5" y="-83.5" fill="#000" font-family="Helvetica,sans-Serif" font-size="10" text-anchor="middle">SoftmaxLayer</text></a></g></g><g id="edge28" class="edge"><title>Node0-&gt;Node28</title><path fill="none" stroke="#191970" d="M23.2156,-541.3713C28.5297,-458.3041 50.7652,-138.414 80,-105 88.2883,-95.5269 100.7089,-90.5223 112.8833,-87.9532"/><polygon fill="#191970" stroke="#191970" points="19.715 -541.266 22.579 -551.466 26.702 -541.706 19.715 -541.266"/></g><g id="node30" class="node"><title>Node29</title><g id="a_node30"><a target="_top" xlink:href="classarm__compute_1_1graph_1_1frontend_1_1_upsample_layer.xhtml" xlink:title="Upsample Layer."><polygon fill="#fff" stroke="#000" points="109 -38.5 109 -57.5 194 -57.5 194 -38.5 109 -38.5"/><text x="151.5" y="-45.5" fill="#000" font-family="Helvetica,sans-Serif" font-size="10" text-anchor="middle">UpsampleLayer</text></a></g></g><g id="edge29" class="edge"><title>Node0-&gt;Node29</title><path fill="none" stroke="#191970" d="M23.0414,-540.8599C27.7755,-452.6872 48.4089,-103.4602 80,-67 87.3173,-58.5548 97.919,-53.6554 108.7275,-50.867"/><polygon fill="#191970" stroke="#191970" points="19.533 -540.935 22.5 -551.106 26.523 -541.304 19.533 -540.935"/></g><g id="node31" class="node"><title>Node30</title><g id="a_node31"><a target="_top" xlink:href="classarm__compute_1_1graph_1_1frontend_1_1_y_o_l_o_layer.xhtml" xlink:title="YOLO Layer."><polygon fill="#fff" stroke="#000" points="117.5 -.5 117.5 -19.5 185.5 -19.5 185.5 -.5 117.5 -.5"/><text x="151.5" y="-7.5" fill="#000" font-family="Helvetica,sans-Serif" font-size="10" text-anchor="middle">YOLOLayer</text></a></g></g><g id="edge30" class="edge"><title>Node0-&gt;Node30</title><path fill="none" stroke="#191970" d="M22.8537,-541.0851C26.9677,-449.1573 45.9592,-68.6177 80,-29 89.2075,-18.284 103.7035,-13.2691 117.2431,-11.0343"/><polygon fill="#191970" stroke="#191970" points="19.35 -541.103 22.407 -551.247 26.343 -541.41 19.35 -541.103"/></g></g></svg>