<svg xmlns="http://www.w3.org/2000/svg" xmlns:xlink="http://www.w3.org/1999/xlink" width="200" height="88" viewBox="0 0 150 66"><g id="graph0" class="graph" transform="scale(1 1) rotate(0) translate(4 62)"><title>Graphical Class Hierarchy</title><polygon fill="#fff" stroke="transparent" points="-4 4 -4 -62 146 -62 146 4 -4 4"/><g id="node1" class="node"><title>Node0</title><g id="a_node1"><a target="_top" xlink:href="classarm__compute_1_1logging_1_1_printer.xhtml" xlink:title="Base printer class to be inherited by other printer classes."><polygon fill="#fff" stroke="#000" points="0 -19.5 0 -38.5 45 -38.5 45 -19.5 0 -19.5"/><text x="22.5" y="-26.5" fill="#000" font-family="Helvetica,sans-Serif" font-size="10" text-anchor="middle">Printer</text></a></g></g><g id="node2" class="node"><title>Node1</title><g id="a_node2"><a target="_top" xlink:href="classarm__compute_1_1logging_1_1_file_printer.xhtml" xlink:title="File Printer."><polygon fill="#fff" stroke="#000" points="81 -38.5 81 -57.5 142 -57.5 142 -38.5 81 -38.5"/><text x="111.5" y="-45.5" fill="#000" font-family="Helvetica,sans-Serif" font-size="10" text-anchor="middle">FilePrinter</text></a></g></g><g id="edge1" class="edge"><title>Node0-&gt;Node1</title><path fill="none" stroke="#191970" d="M55.2732,-35.9965C63.6676,-37.7886 72.6614,-39.7086 80.9394,-41.4758"/><polygon fill="#191970" stroke="#191970" points="55.93 -32.558 45.42 -33.893 54.469 -39.404 55.93 -32.558"/></g><g id="node3" class="node"><title>Node2</title><g id="a_node3"><a target="_top" xlink:href="classarm__compute_1_1logging_1_1_std_printer.xhtml" xlink:title="Std Printer."><polygon fill="#fff" stroke="#000" points="81.5 -.5 81.5 -19.5 141.5 -19.5 141.5 -.5 81.5 -.5"/><text x="111.5" y="-7.5" fill="#000" font-family="Helvetica,sans-Serif" font-size="10" text-anchor="middle">StdPrinter</text></a></g></g><g id="edge2" class="edge"><title>Node0-&gt;Node2</title><path fill="none" stroke="#191970" d="M55.3708,-21.9826C63.8497,-20.1725 72.9344,-18.2331 81.2716,-16.4532"/><polygon fill="#191970" stroke="#191970" points="54.469 -18.596 45.42 -24.107 55.93 -25.442 54.469 -18.596"/></g></g></svg>