<svg xmlns="http://www.w3.org/2000/svg" xmlns:xlink="http://www.w3.org/1999/xlink" width="388pt" height="173pt" viewBox="0 0 388 172.5"><g id="graph0" class="graph" transform="scale(1 1) rotate(0) translate(4 168.5)"><title>Graphical Class Hierarchy</title><polygon fill="#fff" stroke="transparent" points="-4 4 -4 -168.5 384 -168.5 384 4 -4 4"/><g id="node1" class="node"><title>Node0</title><g id="a_node1"><a target="_top" xlink:href="classarm__compute_1_1test_1_1framework_1_1dataset_1_1_dataset.xhtml" xlink:title="Abstract dataset base class."><polygon fill="#fff" stroke="#000" points="0 -76.5 0 -95.5 51 -95.5 51 -76.5 0 -76.5"/><text x="25.5" y="-83.5" fill="#000" font-family="Helvetica,sans-Serif" font-size="10" text-anchor="middle">Dataset</text></a></g></g><g id="node2" class="node"><title>Node1</title><g id="a_node2"><a target="_top" xlink:href="classarm__compute_1_1test_1_1framework_1_1dataset_1_1_cartesian_product_dataset.xhtml" xlink:title="Implementation of a dataset representing all combinations of values of the input datasets."><polygon fill="#fff" stroke="#000" points="87 -134 87 -164 214 -164 214 -134 87 -134"/><text x="95" y="-152" fill="#000" font-family="Helvetica,sans-Serif" font-size="10" text-anchor="start">CartesianProductDataset</text><text x="150.5" y="-141" fill="#000" font-family="Helvetica,sans-Serif" font-size="10" text-anchor="middle">&lt; T, U &gt;</text></a></g></g><g id="edge1" class="edge"><title>Node0-&gt;Node1</title><path fill="none" stroke="#191970" d="M48.1983,-101.374C59.5707,-108.7245 73.7173,-117.3484 87,-124 93.9919,-127.5014 101.5993,-130.859 109.0401,-133.9143"/><polygon fill="#191970" stroke="#191970" points="50.021 -98.383 39.742 -95.814 46.175 -104.232 50.021 -98.383"/></g><g id="node3" class="node"><title>Node2</title><g id="a_node3"><a target="_top" xlink:href="classarm__compute_1_1test_1_1framework_1_1dataset_1_1_join_dataset.xhtml" xlink:title="Implementation of a dataset representing the concatenation of the input datasets. ..."><polygon fill="#fff" stroke="#000" points="97 -95.5 97 -114.5 204 -114.5 204 -95.5 97 -95.5"/><text x="150.5" y="-102.5" fill="#000" font-family="Helvetica,sans-Serif" font-size="10" text-anchor="middle">JoinDataset&lt; T, U &gt;</text></a></g></g><g id="edge2" class="edge"><title>Node0-&gt;Node2</title><path fill="none" stroke="#191970" d="M61.2416,-91.4327C72.327,-93.1177 84.7969,-95.0131 96.8222,-96.841"/><polygon fill="#191970" stroke="#191970" points="61.51 -87.933 51.097 -89.891 60.458 -94.854 61.51 -87.933"/></g><g id="node4" class="node"><title>Node3</title><g id="a_node4"><a target="_top" xlink:href="classarm__compute_1_1test_1_1framework_1_1dataset_1_1_named_dataset.xhtml" xlink:title="Abstract implementation of a named dataset."><polygon fill="#fff" stroke="#000" points="109 -57.5 109 -76.5 192 -76.5 192 -57.5 109 -57.5"/><text x="150.5" y="-64.5" fill="#000" font-family="Helvetica,sans-Serif" font-size="10" text-anchor="middle">NamedDataset</text></a></g></g><g id="edge3" class="edge"><title>Node0-&gt;Node3</title><path fill="none" stroke="#191970" d="M61.3621,-80.549C76.137,-78.3032 93.3552,-75.686 108.6976,-73.354"/><polygon fill="#191970" stroke="#191970" points="60.458 -77.146 51.097 -82.109 61.51 -84.067 60.458 -77.146"/></g><g id="node9" class="node"><title>Node8</title><g id="a_node9"><a target="_top" xlink:href="classarm__compute_1_1test_1_1framework_1_1dataset_1_1_zip_dataset.xhtml" xlink:title="Implementation of a dataset representing pairs of values of the input datasets."><polygon fill="#fff" stroke="#000" points="99.5 -19.5 99.5 -38.5 201.5 -38.5 201.5 -19.5 99.5 -19.5"/><text x="150.5" y="-26.5" fill="#000" font-family="Helvetica,sans-Serif" font-size="10" text-anchor="middle">ZipDataset&lt; T, U &gt;</text></a></g></g><g id="edge8" class="edge"><title>Node0-&gt;Node8</title><path fill="none" stroke="#191970" d="M47.0662,-70.7303C58.5259,-63.1265 73.0874,-54.2481 87,-48 95.0829,-44.37 104.0482,-41.2048 112.6339,-38.5531"/><polygon fill="#191970" stroke="#191970" points="44.912 -67.962 38.612 -76.481 48.849 -73.75 44.912 -67.962"/></g><g id="node5" class="node"><title>Node4</title><g id="a_node5"><a target="_top" xlink:href="classarm__compute_1_1test_1_1framework_1_1dataset_1_1_container_dataset.xhtml" xlink:title="Implementation of a dataset created from a container."><polygon fill="#fff" stroke="#000" points="256.5 -114.5 256.5 -133.5 373.5 -133.5 373.5 -114.5 256.5 -114.5"/><text x="315" y="-121.5" fill="#000" font-family="Helvetica,sans-Serif" font-size="10" text-anchor="middle">ContainerDataset&lt; T &gt;</text></a></g></g><g id="edge4" class="edge"><title>Node3-&gt;Node4</title><path fill="none" stroke="#191970" d="M196.6905,-79.6644C202.5778,-81.6154 208.4731,-83.7399 214,-86 230.7457,-92.8477 233.2327,-98.2054 250,-105 258.717,-108.5324 268.3336,-111.7125 277.4362,-114.4155"/><polygon fill="#191970" stroke="#191970" points="197.447 -76.233 186.857 -76.551 195.334 -82.906 197.447 -76.233"/></g><g id="node6" class="node"><title>Node5</title><g id="a_node6"><a target="_top" xlink:href="classarm__compute_1_1test_1_1framework_1_1dataset_1_1_initializer_list_dataset.xhtml" xlink:title="Implementation of a dataset created from an initializer list."><polygon fill="#fff" stroke="#000" points="250 -76.5 250 -95.5 380 -95.5 380 -76.5 250 -76.5"/><text x="315" y="-83.5" fill="#000" font-family="Helvetica,sans-Serif" font-size="10" text-anchor="middle">InitializerListDataset&lt; T &gt;</text></a></g></g><g id="edge5" class="edge"><title>Node3-&gt;Node5</title><path fill="none" stroke="#191970" d="M202.1785,-72.9689C217.28,-74.7132 233.9845,-76.6426 249.8081,-78.4702"/><polygon fill="#191970" stroke="#191970" points="202.346 -69.465 192.01 -71.794 201.543 -76.419 202.346 -69.465"/></g><g id="node7" class="node"><title>Node6</title><g id="a_node7"><a target="_top" xlink:href="classarm__compute_1_1test_1_1framework_1_1dataset_1_1_range_dataset.xhtml" xlink:title="Implementation of a dataset created from a range of values."><polygon fill="#fff" stroke="#000" points="263 -38.5 263 -57.5 367 -57.5 367 -38.5 263 -38.5"/><text x="315" y="-45.5" fill="#000" font-family="Helvetica,sans-Serif" font-size="10" text-anchor="middle">RangeDataset&lt; T &gt;</text></a></g></g><g id="edge6" class="edge"><title>Node3-&gt;Node6</title><path fill="none" stroke="#191970" d="M202.1572,-61.0335C221.5064,-58.7987 243.4898,-56.2595 262.8806,-54.0199"/><polygon fill="#191970" stroke="#191970" points="201.543 -57.581 192.01 -62.206 202.346 -64.535 201.543 -57.581"/></g><g id="node8" class="node"><title>Node7</title><g id="a_node8"><a target="_top" xlink:href="classarm__compute_1_1test_1_1framework_1_1dataset_1_1_singleton_dataset.xhtml" xlink:title="Implementation of a dataset holding a single value."><polygon fill="#fff" stroke="#000" points="257 -.5 257 -19.5 373 -19.5 373 -.5 257 -.5"/><text x="315" y="-7.5" fill="#000" font-family="Helvetica,sans-Serif" font-size="10" text-anchor="middle">SingletonDataset&lt; T &gt;</text></a></g></g><g id="edge7" class="edge"><title>Node3-&gt;Node7</title><path fill="none" stroke="#191970" d="M196.6905,-54.3356C202.5778,-52.3846 208.4731,-50.2601 214,-48 230.7457,-41.1523 233.2327,-35.7946 250,-29 258.717,-25.4676 268.3336,-22.2875 277.4362,-19.5845"/><polygon fill="#191970" stroke="#191970" points="195.334 -51.094 186.857 -57.449 197.447 -57.767 195.334 -51.094"/></g></g></svg>