<svg xmlns="http://www.w3.org/2000/svg" xmlns:xlink="http://www.w3.org/1999/xlink" width="256pt" height="52" viewBox="0 0 256 39"><g id="graph0" class="graph" transform="scale(1 1) rotate(0) translate(4 35)"><title>Graphical Class Hierarchy</title><polygon fill="#fff" stroke="transparent" points="-4 4 -4 -35 252 -35 252 4 -4 4"/><g id="node1" class="node"><title>Node0</title><g id="a_node1"><a target="_top" xlink:href="structarm__compute_1_1traits_1_1is__contained.xhtml" xlink:title="is_contained\&lt; T, std\l::tuple\&lt; Ts... \&gt; \&gt;"><polygon fill="#fff" stroke="#000" points="0 -.5 0 -30.5 106 -30.5 106 -.5 0 -.5"/><text x="8" y="-18.5" fill="#000" font-family="Helvetica,sans-Serif" font-size="10" text-anchor="start">is_contained&lt; T, std</text><text x="53" y="-7.5" fill="#000" font-family="Helvetica,sans-Serif" font-size="10" text-anchor="middle">::tuple&lt; Ts... &gt; &gt;</text></a></g></g><g id="node2" class="node"><title>Node1</title><g id="a_node2"><a target="_top" xlink:href="structarm__compute_1_1traits_1_1is__contained_3_01_t_00_01std_1_1tuple_3_01_u_00_01_ts_8_8_8_01_4_01_4.xhtml" xlink:title="is_contained\&lt; T, std\l::tuple\&lt; U, Ts... \&gt; \&gt;"><polygon fill="#fff" stroke="#000" points="142 -.5 142 -30.5 248 -30.5 248 -.5 142 -.5"/><text x="150" y="-18.5" fill="#000" font-family="Helvetica,sans-Serif" font-size="10" text-anchor="start">is_contained&lt; T, std</text><text x="195" y="-7.5" fill="#000" font-family="Helvetica,sans-Serif" font-size="10" text-anchor="middle">::tuple&lt; U, Ts... &gt; &gt;</text></a></g></g><g id="edge1" class="edge"><title>Node0-&gt;Node1</title><path fill="none" stroke="#191970" d="M116.5173,-15.5C124.9959,-15.5 133.6185,-15.5 141.8941,-15.5"/><polygon fill="#191970" stroke="#191970" points="116.28 -12 106.28 -15.5 116.279 -19 116.28 -12"/></g></g></svg>