<svg xmlns="http://www.w3.org/2000/svg" xmlns:xlink="http://www.w3.org/1999/xlink" width="360" height="242pt" viewBox="0 0 270 242"><g id="graph0" class="graph" transform="scale(1 1) rotate(0) translate(4 238)"><title>Graphical Class Hierarchy</title><polygon fill="#fff" stroke="transparent" points="-4 4 -4 -238 266 -238 266 4 -4 4"/><g id="node1" class="node"><title>Node0</title><g id="a_node1"><a target="_top" xlink:href="classarm__compute_1_1test_1_1framework_1_1_instrument.xhtml" xlink:title="Interface for classes that can be used to measure performance."><polygon fill="#fff" stroke="#000" points="0 -107.5 0 -126.5 63 -126.5 63 -107.5 0 -107.5"/><text x="31.5" y="-114.5" fill="#000" font-family="Helvetica,sans-Serif" font-size="10" text-anchor="middle">Instrument</text></a></g></g><g id="node2" class="node"><title>Node1</title><g id="a_node2"><a target="_top" xlink:href="classarm__compute_1_1test_1_1framework_1_1_mali_counter.xhtml" xlink:title="Instrument implementation for mali hw counters."><polygon fill="#fff" stroke="#000" points="146 -214.5 146 -233.5 215 -233.5 215 -214.5 146 -214.5"/><text x="180.5" y="-221.5" fill="#000" font-family="Helvetica,sans-Serif" font-size="10" text-anchor="middle">MaliCounter</text></a></g></g><g id="edge1" class="edge"><title>Node0-&gt;Node1</title><path fill="none" stroke="#191970" d="M40.7303,-135.6105C51.7656,-155.8728 72.161,-187.6925 99,-205 112.9195,-213.9762 130.6037,-218.7257 145.9393,-221.233"/><polygon fill="#191970" stroke="#191970" points="43.811 -133.948 36.078 -126.706 37.607 -137.19 43.811 -133.948"/></g><g id="node3" class="node"><title>Node2</title><g id="a_node3"><a target="_top" xlink:href="classarm__compute_1_1test_1_1framework_1_1_open_c_l_clock.xhtml" xlink:title="Instrument creating measurements based on the information returned by clGetEventProfilingInfo for eac..."><polygon fill="#fff" stroke="#000" points="123.5 -165 123.5 -195 237.5 -195 237.5 -165 123.5 -165"/><text x="131.5" y="-183" fill="#000" font-family="Helvetica,sans-Serif" font-size="10" text-anchor="start">OpenCLClock&lt; output</text><text x="180.5" y="-172" fill="#000" font-family="Helvetica,sans-Serif" font-size="10" text-anchor="middle">_timestamps &gt;</text></a></g></g><g id="edge2" class="edge"><title>Node0-&gt;Node2</title><path fill="none" stroke="#191970" d="M54.8807,-131.8111C67.5911,-139.4354 83.7837,-148.4734 99,-155 107.433,-158.6171 116.5617,-161.9486 125.5543,-164.9205"/><polygon fill="#191970" stroke="#191970" points="56.662 -128.798 46.305 -126.566 53.009 -134.769 56.662 -128.798"/></g><g id="node4" class="node"><title>Node3</title><g id="a_node4"><a target="_top" xlink:href="classarm__compute_1_1test_1_1framework_1_1_open_c_l_memory_usage.xhtml" xlink:title="Instrument collecting memory usage information for OpenCL."><polygon fill="#fff" stroke="#000" points="122.5 -126.5 122.5 -145.5 238.5 -145.5 238.5 -126.5 122.5 -126.5"/><text x="180.5" y="-133.5" fill="#000" font-family="Helvetica,sans-Serif" font-size="10" text-anchor="middle">OpenCLMemoryUsage</text></a></g></g><g id="edge3" class="edge"><title>Node0-&gt;Node3</title><path fill="none" stroke="#191970" d="M73.2548,-122.3244C88.5128,-124.2701 106.0583,-126.5074 122.4794,-128.6014"/><polygon fill="#191970" stroke="#191970" points="73.462 -118.823 63.099 -121.029 72.576 -125.766 73.462 -118.823"/></g><g id="node5" class="node"><title>Node4</title><g id="a_node5"><a target="_top" xlink:href="classarm__compute_1_1test_1_1framework_1_1_p_m_u_counter.xhtml" xlink:title="Implementation of an instrument to count CPU cycles."><polygon fill="#fff" stroke="#000" points="143.5 -88.5 143.5 -107.5 217.5 -107.5 217.5 -88.5 143.5 -88.5"/><text x="180.5" y="-95.5" fill="#000" font-family="Helvetica,sans-Serif" font-size="10" text-anchor="middle">PMUCounter</text></a></g></g><g id="edge4" class="edge"><title>Node0-&gt;Node4</title><path fill="none" stroke="#191970" d="M73.1775,-111.6854C95.2365,-108.8725 122.0939,-105.4478 143.4232,-102.7279"/><polygon fill="#191970" stroke="#191970" points="72.576 -108.234 63.099 -112.971 73.462 -115.177 72.576 -108.234"/></g><g id="node6" class="node"><title>Node5</title><g id="a_node6"><a target="_top" xlink:href="classarm__compute_1_1test_1_1framework_1_1_scheduler_clock.xhtml" xlink:title="Instrument creating measurements based on the information returned by clGetEventProfilingInfo for eac..."><polygon fill="#fff" stroke="#000" points="119.5 -39 119.5 -69 241.5 -69 241.5 -39 119.5 -39"/><text x="127.5" y="-57" fill="#000" font-family="Helvetica,sans-Serif" font-size="10" text-anchor="start">SchedulerClock&lt; output</text><text x="180.5" y="-46" fill="#000" font-family="Helvetica,sans-Serif" font-size="10" text-anchor="middle">_timestamps &gt;</text></a></g></g><g id="edge5" class="edge"><title>Node0-&gt;Node5</title><path fill="none" stroke="#191970" d="M54.8807,-102.1889C67.5911,-94.5646 83.7837,-85.5266 99,-79 107.433,-75.3829 116.5617,-72.0514 125.5543,-69.0795"/><polygon fill="#191970" stroke="#191970" points="53.009 -99.231 46.305 -107.434 56.662 -105.202 53.009 -99.231"/></g><g id="node7" class="node"><title>Node6</title><g id="a_node7"><a target="_top" xlink:href="classarm__compute_1_1test_1_1framework_1_1_wall_clock.xhtml" xlink:title="Implementation of an instrument to measure elapsed wall-clock time in milliseconds."><polygon fill="#fff" stroke="#000" points="99 -.5 99 -19.5 262 -19.5 262 -.5 99 -.5"/><text x="180.5" y="-7.5" fill="#000" font-family="Helvetica,sans-Serif" font-size="10" text-anchor="middle">WallClock&lt; output_timestamps &gt;</text></a></g></g><g id="edge6" class="edge"><title>Node0-&gt;Node6</title><path fill="none" stroke="#191970" d="M40.9732,-98.3851C52.1236,-78.3921 72.5259,-47.1864 99,-30 105.721,-25.6369 113.3159,-22.2254 121.099,-19.558"/><polygon fill="#191970" stroke="#191970" points="37.762 -96.968 36.129 -107.437 43.934 -100.271 37.762 -96.968"/></g></g></svg>