<svg xmlns="http://www.w3.org/2000/svg" xmlns:xlink="http://www.w3.org/1999/xlink" width="160pt" height="88" viewBox="0 0 160 66"><g id="graph0" class="graph" transform="scale(1 1) rotate(0) translate(4 62)"><title>Graphical Class Hierarchy</title><polygon fill="#fff" stroke="transparent" points="-4 4 -4 -62 156 -62 156 4 -4 4"/><g id="node1" class="node"><title>Node0</title><g id="a_node1"><a target="_top" xlink:href="classarm__compute_1_1graph_1_1frontend_1_1_i_stream.xhtml" xlink:title="Stream interface."><polygon fill="#fff" stroke="#000" points="0 -19.5 0 -38.5 51 -38.5 51 -19.5 0 -19.5"/><text x="25.5" y="-26.5" fill="#000" font-family="Helvetica,sans-Serif" font-size="10" text-anchor="middle">IStream</text></a></g></g><g id="node2" class="node"><title>Node1</title><g id="a_node2"><a target="_top" xlink:href="classarm__compute_1_1graph_1_1frontend_1_1_stream.xhtml" xlink:title="Stream frontend class to construct simple graphs in a stream fashion."><polygon fill="#fff" stroke="#000" points="95.5 -38.5 95.5 -57.5 143.5 -57.5 143.5 -38.5 95.5 -38.5"/><text x="119.5" y="-45.5" fill="#000" font-family="Helvetica,sans-Serif" font-size="10" text-anchor="middle">Stream</text></a></g></g><g id="edge1" class="edge"><title>Node0-&gt;Node1</title><path fill="none" stroke="#191970" d="M61.3236,-36.2409C72.7392,-38.5484 85.0887,-41.0445 95.4605,-43.1409"/><polygon fill="#191970" stroke="#191970" points="61.681 -32.742 51.186 -34.192 60.294 -39.604 61.681 -32.742"/></g><g id="node3" class="node"><title>Node2</title><g id="a_node3"><a target="_top" xlink:href="classarm__compute_1_1graph_1_1frontend_1_1_sub_stream.xhtml" xlink:title="Sub stream class."><polygon fill="#fff" stroke="#000" points="87 -.5 87 -19.5 152 -19.5 152 -.5 87 -.5"/><text x="119.5" y="-7.5" fill="#000" font-family="Helvetica,sans-Serif" font-size="10" text-anchor="middle">SubStream</text></a></g></g><g id="edge2" class="edge"><title>Node0-&gt;Node2</title><path fill="none" stroke="#191970" d="M61.1228,-21.7996C69.5448,-20.0973 78.4852,-18.2902 86.7718,-16.6153"/><polygon fill="#191970" stroke="#191970" points="60.294 -18.396 51.186 -23.808 61.681 -25.258 60.294 -18.396"/></g></g></svg>