<svg xmlns="http://www.w3.org/2000/svg" xmlns:xlink="http://www.w3.org/1999/xlink" width="256" height="88" viewBox="0 0 192 66"><g id="graph0" class="graph" transform="scale(1 1) rotate(0) translate(4 62)"><title>Graphical Class Hierarchy</title><polygon fill="#fff" stroke="transparent" points="-4 4 -4 -62 188 -62 188 4 -4 4"/><g id="node1" class="node"><title>Node0</title><g id="a_node1"><a target="_top" xlink:href="classarm__compute_1_1utils_1_1_i_image_loader.xhtml" xlink:title="Image loader interface."><polygon fill="#fff" stroke="#000" points="0 -19.5 0 -38.5 76 -38.5 76 -19.5 0 -19.5"/><text x="38" y="-26.5" fill="#000" font-family="Helvetica,sans-Serif" font-size="10" text-anchor="middle">IImageLoader</text></a></g></g><g id="node2" class="node"><title>Node1</title><g id="a_node2"><a target="_top" xlink:href="classarm__compute_1_1utils_1_1_j_p_e_g_loader.xhtml" xlink:title="Class to load the content of a JPEG file into an Image."><polygon fill="#fff" stroke="#000" points="112 -38.5 112 -57.5 184 -57.5 184 -38.5 112 -38.5"/><text x="148" y="-45.5" fill="#000" font-family="Helvetica,sans-Serif" font-size="10" text-anchor="middle">JPEGLoader</text></a></g></g><g id="edge1" class="edge"><title>Node0-&gt;Node1</title><path fill="none" stroke="#191970" d="M86.1104,-37.31C94.7168,-38.7965 103.5518,-40.3226 111.7545,-41.7394"/><polygon fill="#191970" stroke="#191970" points="86.614 -33.845 76.164 -35.592 85.422 -40.743 86.614 -33.845"/></g><g id="node3" class="node"><title>Node2</title><g id="a_node3"><a target="_top" xlink:href="classarm__compute_1_1utils_1_1_p_p_m_loader.xhtml" xlink:title="PPM Image loader concrete implementation."><polygon fill="#fff" stroke="#000" points="114 -.5 114 -19.5 182 -19.5 182 -.5 114 -.5"/><text x="148" y="-7.5" fill="#000" font-family="Helvetica,sans-Serif" font-size="10" text-anchor="middle">PPMLoader</text></a></g></g><g id="edge2" class="edge"><title>Node0-&gt;Node2</title><path fill="none" stroke="#191970" d="M86.1648,-20.6806C95.5265,-19.0636 105.1567,-17.4002 113.9475,-15.8818"/><polygon fill="#191970" stroke="#191970" points="85.422 -17.257 76.164 -22.408 86.614 -24.155 85.422 -17.257"/></g></g></svg>