<svg xmlns="http://www.w3.org/2000/svg" xmlns:xlink="http://www.w3.org/1999/xlink" width="472" height="52" viewBox="0 0 354 39"><g id="graph0" class="graph" transform="scale(1 1) rotate(0) translate(4 35)"><title>Graphical Class Hierarchy</title><polygon fill="#fff" stroke="transparent" points="-4 4 -4 -35 350 -35 350 4 -4 4"/><g id="node1" class="node"><title>Node0</title><g id="a_node1"><a target="_top" xlink:href="structarm__compute_1_1test_1_1validation_1_1compare__base.xhtml" xlink:title="compare_base\&lt; RelativeTolerance\l\&lt; U \&gt; \&gt;"><polygon fill="#fff" stroke="#000" points="0 -.5 0 -30.5 168 -30.5 168 -.5 0 -.5"/><text x="8" y="-18.5" fill="#000" font-family="Helvetica,sans-Serif" font-size="10" text-anchor="start">compare_base&lt; RelativeTolerance</text><text x="84" y="-7.5" fill="#000" font-family="Helvetica,sans-Serif" font-size="10" text-anchor="middle">&lt; U &gt; &gt;</text></a></g></g><g id="node2" class="node"><title>Node1</title><g id="a_node2"><a target="_top" xlink:href="structarm__compute_1_1test_1_1validation_1_1compare_3_01_relative_tolerance_3_01_u_01_4_01_4.xhtml" xlink:title="Compare values with a relative tolerance."><polygon fill="#fff" stroke="#000" points="204 -.5 204 -30.5 346 -30.5 346 -.5 204 -.5"/><text x="212" y="-18.5" fill="#000" font-family="Helvetica,sans-Serif" font-size="10" text-anchor="start">compare&lt; RelativeTolerance</text><text x="275" y="-7.5" fill="#000" font-family="Helvetica,sans-Serif" font-size="10" text-anchor="middle">&lt; U &gt; &gt;</text></a></g></g><g id="edge1" class="edge"><title>Node0-&gt;Node1</title><path fill="none" stroke="#191970" d="M178.1428,-15.5C186.7575,-15.5 195.3871,-15.5 203.7508,-15.5"/><polygon fill="#191970" stroke="#191970" points="178.053 -12 168.053 -15.5 178.053 -19 178.053 -12"/></g></g></svg>