<svg xmlns="http://www.w3.org/2000/svg" xmlns:xlink="http://www.w3.org/1999/xlink" width="448" height="28pt" viewBox="0 0 336 28"><g id="graph0" class="graph" transform="scale(1 1) rotate(0) translate(4 24)"><title>Graphical Class Hierarchy</title><polygon fill="#fff" stroke="transparent" points="-4 4 -4 -24 332 -24 332 4 -4 4"/><g id="node1" class="node"><title>Node0</title><g id="a_node1"><a target="_top" xlink:href="classarm__compute_1_1graph_1_1_i_node_visitor.xhtml" xlink:title="Node visitor interface."><polygon fill="#fff" stroke="#000" points="0 -.5 0 -19.5 71 -19.5 71 -.5 0 -.5"/><text x="35.5" y="-7.5" fill="#000" font-family="Helvetica,sans-Serif" font-size="10" text-anchor="middle">INodeVisitor</text></a></g></g><g id="node2" class="node"><title>Node1</title><g id="a_node2"><a target="_top" xlink:href="classarm__compute_1_1graph_1_1_default_node_visitor.xhtml" xlink:title="Default visitor implementation."><polygon fill="#fff" stroke="#000" points="107 -.5 107 -19.5 206 -19.5 206 -.5 107 -.5"/><text x="156.5" y="-7.5" fill="#000" font-family="Helvetica,sans-Serif" font-size="10" text-anchor="middle">DefaultNodeVisitor</text></a></g></g><g id="edge1" class="edge"><title>Node0-&gt;Node1</title><path fill="none" stroke="#191970" d="M81.3932,-10C89.6847,-10 98.3656,-10 106.7609,-10"/><polygon fill="#191970" stroke="#191970" points="81.15 -6.5 71.15 -10 81.15 -13.5 81.15 -6.5"/></g><g id="node3" class="node"><title>Node2</title><g id="a_node3"><a target="_top" xlink:href="classarm__compute_1_1graph_1_1_dot_graph_visitor.xhtml" xlink:title="Graph printer visitor."><polygon fill="#fff" stroke="#000" points="242 -.5 242 -19.5 328 -19.5 328 -.5 242 -.5"/><text x="285" y="-7.5" fill="#000" font-family="Helvetica,sans-Serif" font-size="10" text-anchor="middle">DotGraphVisitor</text></a></g></g><g id="edge2" class="edge"><title>Node1-&gt;Node2</title><path fill="none" stroke="#191970" d="M216.1982,-10C224.8055,-10 233.5224,-10 241.7267,-10"/><polygon fill="#191970" stroke="#191970" points="216.181 -6.5 206.181 -10 216.181 -13.5 216.181 -6.5"/></g></g></svg>