<svg xmlns="http://www.w3.org/2000/svg" xmlns:xlink="http://www.w3.org/1999/xlink" width="232pt" height="104pt" viewBox="0 0 232 104"><g id="graph0" class="graph" transform="scale(1 1) rotate(0) translate(4 100)"><title>Graphical Class Hierarchy</title><polygon fill="#fff" stroke="transparent" points="-4 4 -4 -100 228 -100 228 4 -4 4"/><g id="node1" class="node"><title>Node0</title><g id="a_node1"><a target="_top" xlink:href="classarm__compute_1_1_i_tensor_allocator.xhtml" xlink:title="Interface to allocate tensors."><polygon fill="#fff" stroke="#000" points="0 -38.5 0 -57.5 88 -57.5 88 -38.5 0 -38.5"/><text x="44" y="-45.5" fill="#000" font-family="Helvetica,sans-Serif" font-size="10" text-anchor="middle">ITensorAllocator</text></a></g></g><g id="node2" class="node"><title>Node1</title><g id="a_node2"><a target="_top" xlink:href="classarm__compute_1_1_c_l_tensor_allocator.xhtml" xlink:title="Basic implementation of a CL memory tensor allocator."><polygon fill="#fff" stroke="#000" points="125 -76.5 125 -95.5 223 -95.5 223 -76.5 125 -76.5"/><text x="174" y="-83.5" fill="#000" font-family="Helvetica,sans-Serif" font-size="10" text-anchor="middle">CLTensorAllocator</text></a></g></g><g id="edge1" class="edge"><title>Node0-&gt;Node1</title><path fill="none" stroke="#191970" d="M86.8839,-60.5353C104.5689,-65.7048 124.7337,-71.5991 141.206,-76.4141"/><polygon fill="#191970" stroke="#191970" points="87.385 -57.035 76.805 -57.589 85.421 -63.754 87.385 -57.035"/></g><g id="node3" class="node"><title>Node2</title><g id="a_node3"><a target="_top" xlink:href="classarm__compute_1_1_g_c_tensor_allocator.xhtml" xlink:title="Basic implementation of a GLES memory tensor allocator."><polygon fill="#fff" stroke="#000" points="124 -38.5 124 -57.5 224 -57.5 224 -38.5 124 -38.5"/><text x="174" y="-45.5" fill="#000" font-family="Helvetica,sans-Serif" font-size="10" text-anchor="middle">GCTensorAllocator</text></a></g></g><g id="edge2" class="edge"><title>Node0-&gt;Node2</title><path fill="none" stroke="#191970" d="M98.1825,-48C106.6559,-48 115.3817,-48 123.7619,-48"/><polygon fill="#191970" stroke="#191970" points="98.012 -44.5 88.012 -48 98.012 -51.5 98.012 -44.5"/></g><g id="node4" class="node"><title>Node3</title><g id="a_node4"><a target="_top" xlink:href="classarm__compute_1_1_tensor_allocator.xhtml" xlink:title="Basic implementation of a CPU memory tensor allocator."><polygon fill="#fff" stroke="#000" points="131.5 -.5 131.5 -19.5 216.5 -19.5 216.5 -.5 131.5 -.5"/><text x="174" y="-7.5" fill="#000" font-family="Helvetica,sans-Serif" font-size="10" text-anchor="middle">TensorAllocator</text></a></g></g><g id="edge3" class="edge"><title>Node0-&gt;Node3</title><path fill="none" stroke="#191970" d="M86.8839,-35.4647C104.5689,-30.2952 124.7337,-24.4009 141.206,-19.5859"/><polygon fill="#191970" stroke="#191970" points="85.421 -32.246 76.805 -38.411 87.385 -38.965 85.421 -32.246"/></g></g></svg>