<svg xmlns="http://www.w3.org/2000/svg" xmlns:xlink="http://www.w3.org/1999/xlink" width="288" height="88" viewBox="0 0 216 66"><g id="graph0" class="graph" transform="scale(1 1) rotate(0) translate(4 62)"><title>Graphical Class Hierarchy</title><polygon fill="#fff" stroke="transparent" points="-4 4 -4 -62 212 -62 212 4 -4 4"/><g id="node1" class="node"><title>Node0</title><g id="a_node1"><a target="_top" xlink:href="classarm__compute_1_1_i_memory_pool.xhtml" xlink:title="Memory Pool Inteface."><polygon fill="#fff" stroke="#000" points="0 -19.5 0 -38.5 74 -38.5 74 -19.5 0 -19.5"/><text x="37" y="-26.5" fill="#000" font-family="Helvetica,sans-Serif" font-size="10" text-anchor="middle">IMemoryPool</text></a></g></g><g id="node2" class="node"><title>Node1</title><g id="a_node2"><a target="_top" xlink:href="classarm__compute_1_1_blob_memory_pool.xhtml" xlink:title="Blob memory pool."><polygon fill="#fff" stroke="#000" points="113.5 -38.5 113.5 -57.5 204.5 -57.5 204.5 -38.5 113.5 -38.5"/><text x="159" y="-45.5" fill="#000" font-family="Helvetica,sans-Serif" font-size="10" text-anchor="middle">BlobMemoryPool</text></a></g></g><g id="edge1" class="edge"><title>Node0-&gt;Node1</title><path fill="none" stroke="#191970" d="M84.3723,-36.3777C93.8975,-37.8611 103.8899,-39.4173 113.3548,-40.8913"/><polygon fill="#191970" stroke="#191970" points="84.686 -32.885 74.267 -34.804 83.609 -39.801 84.686 -32.885"/></g><g id="node3" class="node"><title>Node2</title><g id="a_node3"><a target="_top" xlink:href="classarm__compute_1_1_offset_memory_pool.xhtml" xlink:title="Offset based memory pool."><polygon fill="#fff" stroke="#000" points="110 -.5 110 -19.5 208 -19.5 208 -.5 110 -.5"/><text x="159" y="-7.5" fill="#000" font-family="Helvetica,sans-Serif" font-size="10" text-anchor="middle">OffsetMemoryPool</text></a></g></g><g id="edge2" class="edge"><title>Node0-&gt;Node2</title><path fill="none" stroke="#191970" d="M84.2618,-21.6396C92.6415,-20.3345 101.3861,-18.9727 109.8174,-17.6596"/><polygon fill="#191970" stroke="#191970" points="83.609 -18.199 74.267 -23.196 84.686 -25.116 83.609 -18.199"/></g></g></svg>