<svg xmlns="http://www.w3.org/2000/svg" xmlns:xlink="http://www.w3.org/1999/xlink" width="295pt" height="142pt" viewBox="0 0 295 142"><g id="graph0" class="graph" transform="scale(1 1) rotate(0) translate(4 138)"><title>Graphical Class Hierarchy</title><polygon fill="#fff" stroke="transparent" points="-4 4 -4 -138 291 -138 291 4 -4 4"/><g id="node1" class="node"><title>Node0</title><g id="a_node1"><a target="_top" xlink:href="classarm__compute_1_1_i_memory_group.xhtml" xlink:title="Memory group interface."><polygon fill="#fff" stroke="#000" points="0 -57.5 0 -76.5 81 -76.5 81 -57.5 0 -57.5"/><text x="40.5" y="-64.5" fill="#000" font-family="Helvetica,sans-Serif" font-size="10" text-anchor="middle">IMemoryGroup</text></a></g></g><g id="node2" class="node"><title>Node1</title><g id="a_node2"><a target="_top" xlink:href="classarm__compute_1_1_memory_group_base.xhtml" xlink:title="Memory group."><polygon fill="#fff" stroke="#000" points="117 -114.5 117 -133.5 287 -133.5 287 -114.5 117 -114.5"/><text x="202" y="-121.5" fill="#000" font-family="Helvetica,sans-Serif" font-size="10" text-anchor="middle">MemoryGroupBase&lt; TensorType &gt;</text></a></g></g><g id="edge1" class="edge"><title>Node0-&gt;Node1</title><path fill="none" stroke="#191970" d="M65.9073,-81.557C80.4822,-89.409 99.3415,-98.7442 117,-105 127.4048,-108.6861 138.7873,-111.8149 149.7438,-114.4046"/><polygon fill="#191970" stroke="#191970" points="67.453 -78.412 57.004 -76.659 64.078 -84.546 67.453 -78.412"/></g><g id="node3" class="node"><title>Node2</title><g id="a_node3"><a target="_top" xlink:href="classarm__compute_1_1_memory_group_base.xhtml" xlink:title="MemoryGroupBase\&lt; CLTensor \&gt;"><polygon fill="#fff" stroke="#000" points="121.5 -76.5 121.5 -95.5 282.5 -95.5 282.5 -76.5 121.5 -76.5"/><text x="202" y="-83.5" fill="#000" font-family="Helvetica,sans-Serif" font-size="10" text-anchor="middle">MemoryGroupBase&lt; CLTensor &gt;</text></a></g></g><g id="edge2" class="edge"><title>Node0-&gt;Node2</title><path fill="none" stroke="#191970" d="M91.3244,-72.9793C100.869,-74.1022 111.0633,-75.3016 121.2574,-76.5009"/><polygon fill="#191970" stroke="#191970" points="91.594 -69.487 81.253 -71.794 90.776 -76.439 91.594 -69.487"/></g><g id="node4" class="node"><title>Node3</title><g id="a_node4"><a target="_top" xlink:href="classarm__compute_1_1_memory_group_base.xhtml" xlink:title="MemoryGroupBase\&lt; GCTensor \&gt;"><polygon fill="#fff" stroke="#000" points="120 -38.5 120 -57.5 284 -57.5 284 -38.5 120 -38.5"/><text x="202" y="-45.5" fill="#000" font-family="Helvetica,sans-Serif" font-size="10" text-anchor="middle">MemoryGroupBase&lt; GCTensor &gt;</text></a></g></g><g id="edge3" class="edge"><title>Node0-&gt;Node3</title><path fill="none" stroke="#191970" d="M91.2454,-61.03C100.7135,-59.9161 110.8233,-58.7267 120.9395,-57.5365"/><polygon fill="#191970" stroke="#191970" points="90.776 -57.561 81.253 -62.206 91.594 -64.513 90.776 -57.561"/></g><g id="node5" class="node"><title>Node4</title><g id="a_node5"><a target="_top" xlink:href="classarm__compute_1_1_memory_group_base.xhtml" xlink:title="MemoryGroupBase\&lt; Tensor \&gt;"><polygon fill="#fff" stroke="#000" points="127.5 -.5 127.5 -19.5 276.5 -19.5 276.5 -.5 127.5 -.5"/><text x="202" y="-7.5" fill="#000" font-family="Helvetica,sans-Serif" font-size="10" text-anchor="middle">MemoryGroupBase&lt; Tensor &gt;</text></a></g></g><g id="edge4" class="edge"><title>Node0-&gt;Node4</title><path fill="none" stroke="#191970" d="M65.9073,-52.443C80.4822,-44.591 99.3415,-35.2558 117,-29 127.4048,-25.3139 138.7873,-22.1851 149.7438,-19.5954"/><polygon fill="#191970" stroke="#191970" points="64.078 -49.455 57.004 -57.342 67.453 -55.588 64.078 -49.455"/></g></g></svg>