<svg xmlns="http://www.w3.org/2000/svg" xmlns:xlink="http://www.w3.org/1999/xlink" width="212pt" height="104" viewBox="0 0 212 77.5"><g id="graph0" class="graph" transform="scale(1 1) rotate(0) translate(4 73.5)"><title>Graphical Class Hierarchy</title><polygon fill="#fff" stroke="transparent" points="-4 4 -4 -73.5 208 -73.5 208 4 -4 4"/><g id="node1" class="node"><title>Node997</title><polygon fill="#fff" stroke="#bfbfbf" points="0 -28 0 -47 62 -47 62 -28 0 -28"/><text x="31" y="-35" fill="#000" font-family="Helvetica,sans-Serif" font-size="10" text-anchor="middle">false_type</text></g><g id="node2" class="node"><title>Node0</title><g id="a_node2"><a target="_top" xlink:href="structarm__compute_1_1test_1_1framework_1_1dataset_1_1is__container.xhtml" xlink:title="Base case."><polygon fill="#fff" stroke="#000" points="104.5 -50 104.5 -69 197.5 -69 197.5 -50 104.5 -50"/><text x="151" y="-57" fill="#000" font-family="Helvetica,sans-Serif" font-size="10" text-anchor="middle">is_container&lt; T &gt;</text></a></g></g><g id="edge1" class="edge"><title>Node997-&gt;Node0</title><path fill="none" stroke="#191970" d="M72.1752,-45.0488C82.4602,-46.9344 93.5664,-48.9705 104.1054,-50.9027"/><polygon fill="#191970" stroke="#191970" points="72.683 -41.584 62.215 -43.223 71.42 -48.469 72.683 -41.584"/></g><g id="node3" class="node"><title>Node999</title><g id="a_node3"><a target="_top" xlink:href="structarm__compute_1_1traits_1_1is__contained_3_01_t_00_01std_1_1tuple_3_4_01_4.xhtml" xlink:title="is_contained\&lt; T, std\l::tuple\&lt;\&gt; \&gt;"><polygon fill="#fff" stroke="#000" points="98 -.5 98 -30.5 204 -30.5 204 -.5 98 -.5"/><text x="106" y="-18.5" fill="#000" font-family="Helvetica,sans-Serif" font-size="10" text-anchor="start">is_contained&lt; T, std</text><text x="151" y="-7.5" fill="#000" font-family="Helvetica,sans-Serif" font-size="10" text-anchor="middle">::tuple&lt;&gt; &gt;</text></a></g></g><g id="edge2" class="edge"><title>Node997-&gt;Node999</title><path fill="none" stroke="#191970" d="M72.2451,-29.9384C80.4229,-28.4391 89.1176,-26.8451 97.6319,-25.2841"/><polygon fill="#191970" stroke="#191970" points="71.42 -26.531 62.215 -31.777 72.683 -33.416 71.42 -26.531"/></g></g></svg>