<svg xmlns="http://www.w3.org/2000/svg" xmlns:xlink="http://www.w3.org/1999/xlink" width="196pt" height="88" viewBox="0 0 196 66"><g id="graph0" class="graph" transform="scale(1 1) rotate(0) translate(4 62)"><title>Graphical Class Hierarchy</title><polygon fill="#fff" stroke="transparent" points="-4 4 -4 -62 192 -62 192 4 -4 4"/><g id="node1" class="node"><title>Node0</title><g id="a_node1"><a target="_top" xlink:href="classarm__compute_1_1_i_lut_allocator.xhtml" xlink:title="Basic interface to allocate LUTs'."><polygon fill="#fff" stroke="#000" points="0 -19.5 0 -38.5 71 -38.5 71 -19.5 0 -19.5"/><text x="35.5" y="-26.5" fill="#000" font-family="Helvetica,sans-Serif" font-size="10" text-anchor="middle">ILutAllocator</text></a></g></g><g id="node2" class="node"><title>Node1</title><g id="a_node2"><a target="_top" xlink:href="classarm__compute_1_1_c_l_lut_allocator.xhtml" xlink:title="Basic implementation of a CL memory LUT allocator."><polygon fill="#fff" stroke="#000" points="107 -38.5 107 -57.5 188 -57.5 188 -38.5 107 -38.5"/><text x="147.5" y="-45.5" fill="#000" font-family="Helvetica,sans-Serif" font-size="10" text-anchor="middle">CLLutAllocator</text></a></g></g><g id="edge1" class="edge"><title>Node0-&gt;Node1</title><path fill="none" stroke="#191970" d="M81.2801,-36.7663C89.6793,-38.1911 98.3961,-39.6699 106.6396,-41.0683"/><polygon fill="#191970" stroke="#191970" points="81.69 -33.286 71.245 -35.064 80.519 -40.187 81.69 -33.286"/></g><g id="node3" class="node"><title>Node2</title><g id="a_node3"><a target="_top" xlink:href="classarm__compute_1_1_lut_allocator.xhtml" xlink:title="Basic implementation of a CPU memory LUT allocator."><polygon fill="#fff" stroke="#000" points="113.5 -.5 113.5 -19.5 181.5 -19.5 181.5 -.5 113.5 -.5"/><text x="147.5" y="-7.5" fill="#000" font-family="Helvetica,sans-Serif" font-size="10" text-anchor="middle">LutAllocator</text></a></g></g><g id="edge2" class="edge"><title>Node0-&gt;Node2</title><path fill="none" stroke="#191970" d="M81.2769,-21.2343C91.9594,-19.4221 103.1557,-17.5227 113.2389,-15.8122"/><polygon fill="#191970" stroke="#191970" points="80.519 -17.813 71.245 -22.936 81.69 -24.714 80.519 -17.813"/></g></g></svg>