<svg xmlns="http://www.w3.org/2000/svg" xmlns:xlink="http://www.w3.org/1999/xlink" width="300" height="88" viewBox="0 0 225 66"><g id="graph0" class="graph" transform="scale(1 1) rotate(0) translate(4 62)"><title>Graphical Class Hierarchy</title><polygon fill="#fff" stroke="transparent" points="-4 4 -4 -62 221 -62 221 4 -4 4"/><g id="node1" class="node"><title>Node0</title><g id="a_node1"><a target="_top" xlink:href="classarm__compute_1_1graph__utils_1_1_i_preprocessor.xhtml" xlink:title="Preprocessor interface."><polygon fill="#fff" stroke="#000" points="0 -19.5 0 -38.5 77 -38.5 77 -19.5 0 -19.5"/><text x="38.5" y="-26.5" fill="#000" font-family="Helvetica,sans-Serif" font-size="10" text-anchor="middle">IPreprocessor</text></a></g></g><g id="node2" class="node"><title>Node1</title><g id="a_node2"><a target="_top" xlink:href="classarm__compute_1_1graph__utils_1_1_caffe_preproccessor.xhtml" xlink:title="Caffe preproccessor."><polygon fill="#fff" stroke="#000" points="113 -38.5 113 -57.5 217 -57.5 217 -38.5 113 -38.5"/><text x="165" y="-45.5" fill="#000" font-family="Helvetica,sans-Serif" font-size="10" text-anchor="middle">CaffePreproccessor</text></a></g></g><g id="edge1" class="edge"><title>Node0-&gt;Node1</title><path fill="none" stroke="#191970" d="M87.1079,-36.3008C95.4596,-37.5552 104.1717,-38.8637 112.6173,-40.1322"/><polygon fill="#191970" stroke="#191970" points="87.55 -32.828 77.141 -34.804 86.511 -39.75 87.55 -32.828"/></g><g id="node3" class="node"><title>Node2</title><g id="a_node3"><a target="_top" xlink:href="classarm__compute_1_1graph__utils_1_1_t_f_preproccessor.xhtml" xlink:title="TF preproccessor."><polygon fill="#fff" stroke="#000" points="119 -.5 119 -19.5 211 -19.5 211 -.5 119 -.5"/><text x="165" y="-7.5" fill="#000" font-family="Helvetica,sans-Serif" font-size="10" text-anchor="middle">TFPreproccessor</text></a></g></g><g id="edge2" class="edge"><title>Node0-&gt;Node2</title><path fill="none" stroke="#191970" d="M87.2188,-21.6826C97.5208,-20.1352 108.3665,-18.5062 118.5807,-16.9721"/><polygon fill="#191970" stroke="#191970" points="86.511 -18.25 77.141 -23.196 87.55 -25.172 86.511 -18.25"/></g></g></svg>