<svg xmlns="http://www.w3.org/2000/svg" xmlns:xlink="http://www.w3.org/1999/xlink" width="376" height="104" viewBox="0 0 282 77.5"><g id="graph0" class="graph" transform="scale(1 1) rotate(0) translate(4 73.5)"><title>Graphical Class Hierarchy</title><polygon fill="#fff" stroke="transparent" points="-4 4 -4 -73.5 278 -73.5 278 4 -4 4"/><g id="node1" class="node"><title>Node0</title><g id="a_node1"><a target="_top" xlink:href="classarm__compute_1_1test_1_1framework_1_1_test_case_factory.xhtml" xlink:title="Abstract factory class to create test cases."><polygon fill="#fff" stroke="#000" points="0 -22.5 0 -41.5 92 -41.5 92 -22.5 0 -22.5"/><text x="46" y="-29.5" fill="#000" font-family="Helvetica,sans-Serif" font-size="10" text-anchor="middle">TestCaseFactory</text></a></g></g><g id="node2" class="node"><title>Node1</title><g id="a_node2"><a target="_top" xlink:href="classarm__compute_1_1test_1_1framework_1_1_data_test_case_factory.xhtml" xlink:title="Implementation of a test case factory to create data test cases."><polygon fill="#fff" stroke="#000" points="144.5 -39 144.5 -69 257.5 -69 257.5 -39 144.5 -39"/><text x="152.5" y="-57" fill="#000" font-family="Helvetica,sans-Serif" font-size="10" text-anchor="start">DataTestCaseFactory</text><text x="201" y="-46" fill="#000" font-family="Helvetica,sans-Serif" font-size="10" text-anchor="middle">&lt; T, D &gt;</text></a></g></g><g id="edge1" class="edge"><title>Node0-&gt;Node1</title><path fill="none" stroke="#191970" d="M102.3401,-39.9967C116.0345,-41.9404 130.6835,-44.0196 144.3904,-45.9651"/><polygon fill="#191970" stroke="#191970" points="102.478 -36.481 92.085 -38.541 101.494 -43.412 102.478 -36.481"/></g><g id="node3" class="node"><title>Node2</title><g id="a_node3"><a target="_top" xlink:href="classarm__compute_1_1test_1_1framework_1_1_simple_test_case_factory.xhtml" xlink:title="Implementation of a test case factory to create non-data test cases."><polygon fill="#fff" stroke="#000" points="128 -.5 128 -19.5 274 -19.5 274 -.5 128 -.5"/><text x="201" y="-7.5" fill="#000" font-family="Helvetica,sans-Serif" font-size="10" text-anchor="middle">SimpleTestCaseFactory&lt; T &gt;</text></a></g></g><g id="edge2" class="edge"><title>Node0-&gt;Node2</title><path fill="none" stroke="#191970" d="M102.1651,-24.0282C112.456,-22.5675 123.2912,-21.0296 133.8643,-19.5289"/><polygon fill="#191970" stroke="#191970" points="101.494 -20.588 92.085 -25.459 102.478 -27.519 101.494 -20.588"/></g></g></svg>