<svg xmlns="http://www.w3.org/2000/svg" xmlns:xlink="http://www.w3.org/1999/xlink" width="416" height="1529pt" viewBox="0 0 312 1528.5"><g id="graph0" class="graph" transform="scale(1 1) rotate(0) translate(4 1524.5)"><title>Graphical Class Hierarchy</title><polygon fill="#fff" stroke="transparent" points="-4 4 -4 -1524.5 308 -1524.5 308 4 -4 4"/><g id="node1" class="node"><title>Node0</title><g id="a_node1"><a target="_top" xlink:href="classarm__compute_1_1test_1_1framework_1_1_test_case.xhtml" xlink:title="Abstract test case class."><polygon fill="#fff" stroke="#000" points="0 -784 0 -803 59 -803 59 -784 0 -784"/><text x="29.5" y="-791" fill="#000" font-family="Helvetica,sans-Serif" font-size="10" text-anchor="middle">TestCase</text></a></g></g><g id="node2" class="node"><title>Node1</title><g id="a_node2"><a target="_top" xlink:href="classarm__compute_1_1test_1_1framework_1_1_data_test_case.xhtml" xlink:title="Data test case class."><polygon fill="#fff" stroke="#000" points="147.5 -1501 147.5 -1520 251.5 -1520 251.5 -1501 147.5 -1501"/><text x="199.5" y="-1508" fill="#000" font-family="Helvetica,sans-Serif" font-size="10" text-anchor="middle">DataTestCase&lt; T &gt;</text></a></g></g><g id="edge1" class="edge"><title>Node0-&gt;Node1</title><path fill="none" stroke="#191970" d="M29.955,-813.2279C32.6325,-921.4576 47.8684,-1440.1153 95,-1491.5 108.1499,-1505.8366 128.2091,-1511.5835 147.2495,-1513.3857"/><polygon fill="#191970" stroke="#191970" points="33.45 -812.987 29.711 -803.074 26.452 -813.155 33.45 -812.987"/></g><g id="node3" class="node"><title>Node2</title><g id="a_node3"><a target="_top" xlink:href="classarm__compute_1_1test_1_1framework_1_1_data_test_case.xhtml" xlink:title="DataTestCase\&lt; decltype\l(framework::dataset::combine\l(framework::dataset::combine\l(datasets::AlexNetActivationLayerDataset\l(), data_types), framework::dataset\l::make(&quot;Batches&quot;, 1)))::type \&gt;"><polygon fill="#fff" stroke="#000" points="99.5 -1407.5 99.5 -1481.5 299.5 -1481.5 299.5 -1407.5 99.5 -1407.5"/><text x="107.5" y="-1469.5" fill="#000" font-family="Helvetica,sans-Serif" font-size="10" text-anchor="start">DataTestCase&lt; decltype</text><text x="107.5" y="-1458.5" fill="#000" font-family="Helvetica,sans-Serif" font-size="10" text-anchor="start">(framework::dataset::combine</text><text x="107.5" y="-1447.5" fill="#000" font-family="Helvetica,sans-Serif" font-size="10" text-anchor="start">(framework::dataset::combine</text><text x="107.5" y="-1436.5" fill="#000" font-family="Helvetica,sans-Serif" font-size="10" text-anchor="start">(datasets::AlexNetActivationLayerDataset</text><text x="107.5" y="-1425.5" fill="#000" font-family="Helvetica,sans-Serif" font-size="10" text-anchor="start">(), data_types), framework::dataset</text><text x="199.5" y="-1414.5" fill="#000" font-family="Helvetica,sans-Serif" font-size="10" text-anchor="middle">::make(&quot;Batches&quot;, 1)))::type &gt;</text></a></g></g><g id="edge2" class="edge"><title>Node0-&gt;Node2</title><path fill="none" stroke="#191970" d="M30.4669,-813.1546C35.4723,-911.8013 59.5795,-1350.1221 95,-1398.5 97.342,-1401.6987 99.9559,-1404.6784 102.7849,-1407.4538"/><polygon fill="#191970" stroke="#191970" points="33.958 -812.893 29.963 -803.08 26.967 -813.242 33.958 -812.893"/></g><g id="node4" class="node"><title>Node3</title><g id="a_node4"><a target="_top" xlink:href="classarm__compute_1_1test_1_1framework_1_1_data_test_case.xhtml" xlink:title="DataTestCase\&lt; decltype\l(framework::dataset::combine\l(framework::dataset::combine\l(datasets::AlexNetActivationLayerDataset\l(), data_types), framework::dataset\l::make(&quot;Batches&quot;, \{ 4, 8 \})))::type \&gt;"><polygon fill="#fff" stroke="#000" points="99.5 -1314.5 99.5 -1388.5 299.5 -1388.5 299.5 -1314.5 99.5 -1314.5"/><text x="107.5" y="-1376.5" fill="#000" font-family="Helvetica,sans-Serif" font-size="10" text-anchor="start">DataTestCase&lt; decltype</text><text x="107.5" y="-1365.5" fill="#000" font-family="Helvetica,sans-Serif" font-size="10" text-anchor="start">(framework::dataset::combine</text><text x="107.5" y="-1354.5" fill="#000" font-family="Helvetica,sans-Serif" font-size="10" text-anchor="start">(framework::dataset::combine</text><text x="107.5" y="-1343.5" fill="#000" font-family="Helvetica,sans-Serif" font-size="10" text-anchor="start">(datasets::AlexNetActivationLayerDataset</text><text x="107.5" y="-1332.5" fill="#000" font-family="Helvetica,sans-Serif" font-size="10" text-anchor="start">(), data_types), framework::dataset</text><text x="199.5" y="-1321.5" fill="#000" font-family="Helvetica,sans-Serif" font-size="10" text-anchor="middle">::make(&quot;Batches&quot;, { 4, 8 })))::type &gt;</text></a></g></g><g id="edge3" class="edge"><title>Node0-&gt;Node3</title><path fill="none" stroke="#191970" d="M30.8915,-813.4069C37.2994,-902.8878 64.9396,-1265.2674 95,-1305.5 97.3729,-1308.6759 100.0129,-1311.6363 102.8637,-1314.3955"/><polygon fill="#191970" stroke="#191970" points="34.371 -812.991 30.173 -803.263 27.388 -813.486 34.371 -812.991"/></g><g id="node5" class="node"><title>Node4</title><g id="a_node5"><a target="_top" xlink:href="classarm__compute_1_1test_1_1framework_1_1_data_test_case.xhtml" xlink:title="DataTestCase\&lt; decltype\l(framework::dataset::combine\l(framework::dataset::combine\l(datasets::GoogLeNetInceptionV1Activation\lLayerDataset(), data_types), framework\l::dataset::make(&quot;Batches&quot;, 1)))::type \&gt;"><polygon fill="#fff" stroke="#000" points="95.5 -1221.5 95.5 -1295.5 303.5 -1295.5 303.5 -1221.5 95.5 -1221.5"/><text x="103.5" y="-1283.5" fill="#000" font-family="Helvetica,sans-Serif" font-size="10" text-anchor="start">DataTestCase&lt; decltype</text><text x="103.5" y="-1272.5" fill="#000" font-family="Helvetica,sans-Serif" font-size="10" text-anchor="start">(framework::dataset::combine</text><text x="103.5" y="-1261.5" fill="#000" font-family="Helvetica,sans-Serif" font-size="10" text-anchor="start">(framework::dataset::combine</text><text x="103.5" y="-1250.5" fill="#000" font-family="Helvetica,sans-Serif" font-size="10" text-anchor="start">(datasets::GoogLeNetInceptionV1Activation</text><text x="103.5" y="-1239.5" fill="#000" font-family="Helvetica,sans-Serif" font-size="10" text-anchor="start">LayerDataset(), data_types), framework</text><text x="199.5" y="-1228.5" fill="#000" font-family="Helvetica,sans-Serif" font-size="10" text-anchor="middle">::dataset::make(&quot;Batches&quot;, 1)))::type &gt;</text></a></g></g><g id="edge4" class="edge"><title>Node0-&gt;Node4</title><path fill="none" stroke="#191970" d="M30.1368,-813.4317C32.8825,-887.8805 45.8967,-1148.6529 95,-1212.5 97.4169,-1215.6426 100.0939,-1218.5749 102.9758,-1221.3106"/><polygon fill="#191970" stroke="#191970" points="33.625 -813.014 29.78 -803.142 26.629 -813.257 33.625 -813.014"/></g><g id="node6" class="node"><title>Node5</title><g id="a_node6"><a target="_top" xlink:href="classarm__compute_1_1test_1_1framework_1_1_data_test_case.xhtml" xlink:title="DataTestCase\&lt; decltype\l(framework::dataset::combine\l(framework::dataset::combine\l(datasets::GoogLeNetInceptionV1Activation\lLayerDataset(), data_types), framework\l::dataset::make(&quot;Batches&quot;, \{ 4, 8 \})))::type \&gt;"><polygon fill="#fff" stroke="#000" points="95 -1128.5 95 -1202.5 304 -1202.5 304 -1128.5 95 -1128.5"/><text x="103" y="-1190.5" fill="#000" font-family="Helvetica,sans-Serif" font-size="10" text-anchor="start">DataTestCase&lt; decltype</text><text x="103" y="-1179.5" fill="#000" font-family="Helvetica,sans-Serif" font-size="10" text-anchor="start">(framework::dataset::combine</text><text x="103" y="-1168.5" fill="#000" font-family="Helvetica,sans-Serif" font-size="10" text-anchor="start">(framework::dataset::combine</text><text x="103" y="-1157.5" fill="#000" font-family="Helvetica,sans-Serif" font-size="10" text-anchor="start">(datasets::GoogLeNetInceptionV1Activation</text><text x="103" y="-1146.5" fill="#000" font-family="Helvetica,sans-Serif" font-size="10" text-anchor="start">LayerDataset(), data_types), framework</text><text x="199.5" y="-1135.5" fill="#000" font-family="Helvetica,sans-Serif" font-size="10" text-anchor="middle">::dataset::make(&quot;Batches&quot;, { 4, 8 })))::type &gt;</text></a></g></g><g id="edge5" class="edge"><title>Node0-&gt;Node5</title><path fill="none" stroke="#191970" d="M31.1082,-813.3237C36.5845,-876.4477 56.3487,-1071.4292 95,-1119.5 97.4842,-1122.5896 100.2181,-1125.4772 103.1474,-1128.1756"/><polygon fill="#191970" stroke="#191970" points="34.577 -812.808 30.251 -803.137 27.602 -813.395 34.577 -812.808"/></g><g id="node7" class="node"><title>Node6</title><g id="a_node7"><a target="_top" xlink:href="classarm__compute_1_1test_1_1framework_1_1_data_test_case.xhtml" xlink:title="DataTestCase\&lt; decltype\l(framework::dataset::combine\l(framework::dataset::combine\l(datasets::GoogLeNetInceptionV4Activation\lLayerDataset(), data_types), framework\l::dataset::make(&quot;Batches&quot;, 1)))::type \&gt;"><polygon fill="#fff" stroke="#000" points="95.5 -1035.5 95.5 -1109.5 303.5 -1109.5 303.5 -1035.5 95.5 -1035.5"/><text x="103.5" y="-1097.5" fill="#000" font-family="Helvetica,sans-Serif" font-size="10" text-anchor="start">DataTestCase&lt; decltype</text><text x="103.5" y="-1086.5" fill="#000" font-family="Helvetica,sans-Serif" font-size="10" text-anchor="start">(framework::dataset::combine</text><text x="103.5" y="-1075.5" fill="#000" font-family="Helvetica,sans-Serif" font-size="10" text-anchor="start">(framework::dataset::combine</text><text x="103.5" y="-1064.5" fill="#000" font-family="Helvetica,sans-Serif" font-size="10" text-anchor="start">(datasets::GoogLeNetInceptionV4Activation</text><text x="103.5" y="-1053.5" fill="#000" font-family="Helvetica,sans-Serif" font-size="10" text-anchor="start">LayerDataset(), data_types), framework</text><text x="199.5" y="-1042.5" fill="#000" font-family="Helvetica,sans-Serif" font-size="10" text-anchor="middle">::dataset::make(&quot;Batches&quot;, 1)))::type &gt;</text></a></g></g><g id="edge6" class="edge"><title>Node0-&gt;Node6</title><path fill="none" stroke="#191970" d="M32.7817,-813.007C41.5203,-862.9569 66.6323,-993.8338 95,-1026.5 97.7294,-1029.643 100.7142,-1032.5798 103.8941,-1035.3233"/><polygon fill="#191970" stroke="#191970" points="36.229 -812.403 31.086 -803.14 29.33 -813.588 36.229 -812.403"/></g><g id="node8" class="node"><title>Node7</title><g id="a_node8"><a target="_top" xlink:href="classarm__compute_1_1test_1_1framework_1_1_data_test_case.xhtml" xlink:title="DataTestCase\&lt; decltype\l(framework::dataset::combine\l(framework::dataset::combine\l(datasets::GoogLeNetInceptionV4Activation\lLayerDataset(), data_types), framework\l::dataset::make(&quot;Batches&quot;, \{ 4, 8 \})))::type \&gt;"><polygon fill="#fff" stroke="#000" points="95 -942.5 95 -1016.5 304 -1016.5 304 -942.5 95 -942.5"/><text x="103" y="-1004.5" fill="#000" font-family="Helvetica,sans-Serif" font-size="10" text-anchor="start">DataTestCase&lt; decltype</text><text x="103" y="-993.5" fill="#000" font-family="Helvetica,sans-Serif" font-size="10" text-anchor="start">(framework::dataset::combine</text><text x="103" y="-982.5" fill="#000" font-family="Helvetica,sans-Serif" font-size="10" text-anchor="start">(framework::dataset::combine</text><text x="103" y="-971.5" fill="#000" font-family="Helvetica,sans-Serif" font-size="10" text-anchor="start">(datasets::GoogLeNetInceptionV4Activation</text><text x="103" y="-960.5" fill="#000" font-family="Helvetica,sans-Serif" font-size="10" text-anchor="start">LayerDataset(), data_types), framework</text><text x="199.5" y="-949.5" fill="#000" font-family="Helvetica,sans-Serif" font-size="10" text-anchor="middle">::dataset::make(&quot;Batches&quot;, { 4, 8 })))::type &gt;</text></a></g></g><g id="edge7" class="edge"><title>Node0-&gt;Node7</title><path fill="none" stroke="#191970" d="M33.9157,-812.9499C41.5679,-842.5934 59.945,-899.24 95,-933.5 98.2605,-936.6866 101.7787,-939.6719 105.4819,-942.4664"/><polygon fill="#191970" stroke="#191970" points="37.263 -811.902 31.496 -803.014 30.462 -813.558 37.263 -811.902"/></g><g id="node9" class="node"><title>Node8</title><g id="a_node9"><a target="_top" xlink:href="classarm__compute_1_1test_1_1framework_1_1_data_test_case.xhtml" xlink:title="DataTestCase\&lt; decltype\l(framework::dataset::combine\l(framework::dataset::combine\l(datasets::LeNet5ActivationLayerDataset\l(), data_types), framework::dataset\l::make(&quot;Batches&quot;, 1)))::type \&gt;"><polygon fill="#fff" stroke="#000" points="101 -849.5 101 -923.5 298 -923.5 298 -849.5 101 -849.5"/><text x="109" y="-911.5" fill="#000" font-family="Helvetica,sans-Serif" font-size="10" text-anchor="start">DataTestCase&lt; decltype</text><text x="109" y="-900.5" fill="#000" font-family="Helvetica,sans-Serif" font-size="10" text-anchor="start">(framework::dataset::combine</text><text x="109" y="-889.5" fill="#000" font-family="Helvetica,sans-Serif" font-size="10" text-anchor="start">(framework::dataset::combine</text><text x="109" y="-878.5" fill="#000" font-family="Helvetica,sans-Serif" font-size="10" text-anchor="start">(datasets::LeNet5ActivationLayerDataset</text><text x="109" y="-867.5" fill="#000" font-family="Helvetica,sans-Serif" font-size="10" text-anchor="start">(), data_types), framework::dataset</text><text x="199.5" y="-856.5" fill="#000" font-family="Helvetica,sans-Serif" font-size="10" text-anchor="middle">::make(&quot;Batches&quot;, 1)))::type &gt;</text></a></g></g><g id="edge8" class="edge"><title>Node0-&gt;Node8</title><path fill="none" stroke="#191970" d="M49.5287,-809.5365C62.1368,-819.2032 78.9993,-831.3696 95,-840.5 100.3371,-843.5455 105.914,-846.5279 111.5944,-849.4179"/><polygon fill="#191970" stroke="#191970" points="51.581 -806.699 41.543 -803.312 47.278 -812.22 51.581 -806.699"/></g><g id="node10" class="node"><title>Node9</title><g id="a_node10"><a target="_top" xlink:href="classarm__compute_1_1test_1_1framework_1_1_data_test_case.xhtml" xlink:title="DataTestCase\&lt; decltype\l(framework::dataset::combine\l(framework::dataset::combine\l(datasets::LeNet5ActivationLayerDataset\l(), data_types), framework::dataset\l::make(&quot;Batches&quot;, \{ 4, 8 \})))::type \&gt;"><polygon fill="#fff" stroke="#000" points="101 -756.5 101 -830.5 298 -830.5 298 -756.5 101 -756.5"/><text x="109" y="-818.5" fill="#000" font-family="Helvetica,sans-Serif" font-size="10" text-anchor="start">DataTestCase&lt; decltype</text><text x="109" y="-807.5" fill="#000" font-family="Helvetica,sans-Serif" font-size="10" text-anchor="start">(framework::dataset::combine</text><text x="109" y="-796.5" fill="#000" font-family="Helvetica,sans-Serif" font-size="10" text-anchor="start">(framework::dataset::combine</text><text x="109" y="-785.5" fill="#000" font-family="Helvetica,sans-Serif" font-size="10" text-anchor="start">(datasets::LeNet5ActivationLayerDataset</text><text x="109" y="-774.5" fill="#000" font-family="Helvetica,sans-Serif" font-size="10" text-anchor="start">(), data_types), framework::dataset</text><text x="199.5" y="-763.5" fill="#000" font-family="Helvetica,sans-Serif" font-size="10" text-anchor="middle">::make(&quot;Batches&quot;, { 4, 8 })))::type &gt;</text></a></g></g><g id="edge9" class="edge"><title>Node0-&gt;Node9</title><path fill="none" stroke="#191970" d="M69.1766,-793.5C78.8905,-793.5 89.7205,-793.5 100.8718,-793.5"/><polygon fill="#191970" stroke="#191970" points="69.112 -790 59.112 -793.5 69.112 -797 69.112 -790"/></g><g id="node11" class="node"><title>Node10</title><g id="a_node11"><a target="_top" xlink:href="classarm__compute_1_1test_1_1framework_1_1_data_test_case.xhtml" xlink:title="DataTestCase\&lt; decltype\l(framework::dataset::combine\l(framework::dataset::combine\l(datasets::MobileNetActivationLayerDataset\l(), data_types_mobilenet), framework\l::dataset::make(&quot;Batches&quot;, 1)))::type \&gt;"><polygon fill="#fff" stroke="#000" points="95 -663.5 95 -737.5 304 -737.5 304 -663.5 95 -663.5"/><text x="103" y="-725.5" fill="#000" font-family="Helvetica,sans-Serif" font-size="10" text-anchor="start">DataTestCase&lt; decltype</text><text x="103" y="-714.5" fill="#000" font-family="Helvetica,sans-Serif" font-size="10" text-anchor="start">(framework::dataset::combine</text><text x="103" y="-703.5" fill="#000" font-family="Helvetica,sans-Serif" font-size="10" text-anchor="start">(framework::dataset::combine</text><text x="103" y="-692.5" fill="#000" font-family="Helvetica,sans-Serif" font-size="10" text-anchor="start">(datasets::MobileNetActivationLayerDataset</text><text x="103" y="-681.5" fill="#000" font-family="Helvetica,sans-Serif" font-size="10" text-anchor="start">(), data_types_mobilenet), framework</text><text x="199.5" y="-670.5" fill="#000" font-family="Helvetica,sans-Serif" font-size="10" text-anchor="middle">::dataset::make(&quot;Batches&quot;, 1)))::type &gt;</text></a></g></g><g id="edge10" class="edge"><title>Node0-&gt;Node10</title><path fill="none" stroke="#191970" d="M49.6031,-777.8836C62.2389,-768.452 79.1044,-756.5476 95,-747.5 100.9645,-744.105 107.2193,-740.7715 113.5779,-737.5446"/><polygon fill="#191970" stroke="#191970" points="47.451 -775.123 41.595 -783.953 51.679 -780.702 47.451 -775.123"/></g><g id="node12" class="node"><title>Node11</title><g id="a_node12"><a target="_top" xlink:href="classarm__compute_1_1test_1_1framework_1_1_data_test_case.xhtml" xlink:title="DataTestCase\&lt; decltype\l(framework::dataset::combine\l(framework::dataset::combine\l(datasets::MobileNetActivationLayerDataset\l(), data_types_mobilenet), framework\l::dataset::make(&quot;Batches&quot;, \{ 4, 8 \})))::type \&gt;"><polygon fill="#fff" stroke="#000" points="95 -570.5 95 -644.5 304 -644.5 304 -570.5 95 -570.5"/><text x="103" y="-632.5" fill="#000" font-family="Helvetica,sans-Serif" font-size="10" text-anchor="start">DataTestCase&lt; decltype</text><text x="103" y="-621.5" fill="#000" font-family="Helvetica,sans-Serif" font-size="10" text-anchor="start">(framework::dataset::combine</text><text x="103" y="-610.5" fill="#000" font-family="Helvetica,sans-Serif" font-size="10" text-anchor="start">(framework::dataset::combine</text><text x="103" y="-599.5" fill="#000" font-family="Helvetica,sans-Serif" font-size="10" text-anchor="start">(datasets::MobileNetActivationLayerDataset</text><text x="103" y="-588.5" fill="#000" font-family="Helvetica,sans-Serif" font-size="10" text-anchor="start">(), data_types_mobilenet), framework</text><text x="199.5" y="-577.5" fill="#000" font-family="Helvetica,sans-Serif" font-size="10" text-anchor="middle">::dataset::make(&quot;Batches&quot;, { 4, 8 })))::type &gt;</text></a></g></g><g id="edge11" class="edge"><title>Node0-&gt;Node11</title><path fill="none" stroke="#191970" d="M34.1018,-773.7924C41.9166,-744.2897 60.4082,-688.4846 95,-654.5 98.5476,-651.0147 102.3989,-647.7619 106.4607,-644.7294"/><polygon fill="#191970" stroke="#191970" points="30.652 -773.161 31.618 -783.711 37.442 -774.861 30.652 -773.161"/></g><g id="node13" class="node"><title>Node12</title><g id="a_node13"><a target="_top" xlink:href="classarm__compute_1_1test_1_1framework_1_1_data_test_case.xhtml" xlink:title="DataTestCase\&lt; decltype\l(framework::dataset::combine\l(framework::dataset::combine\l(datasets::SqueezeNetActivationLayer\lDataset(), data_types), framework\l::dataset::make(&quot;Batches&quot;, 1)))::type \&gt;"><polygon fill="#fff" stroke="#000" points="107 -477.5 107 -551.5 292 -551.5 292 -477.5 107 -477.5"/><text x="115" y="-539.5" fill="#000" font-family="Helvetica,sans-Serif" font-size="10" text-anchor="start">DataTestCase&lt; decltype</text><text x="115" y="-528.5" fill="#000" font-family="Helvetica,sans-Serif" font-size="10" text-anchor="start">(framework::dataset::combine</text><text x="115" y="-517.5" fill="#000" font-family="Helvetica,sans-Serif" font-size="10" text-anchor="start">(framework::dataset::combine</text><text x="115" y="-506.5" fill="#000" font-family="Helvetica,sans-Serif" font-size="10" text-anchor="start">(datasets::SqueezeNetActivationLayer</text><text x="115" y="-495.5" fill="#000" font-family="Helvetica,sans-Serif" font-size="10" text-anchor="start">Dataset(), data_types), framework</text><text x="199.5" y="-484.5" fill="#000" font-family="Helvetica,sans-Serif" font-size="10" text-anchor="middle">::dataset::make(&quot;Batches&quot;, 1)))::type &gt;</text></a></g></g><g id="edge12" class="edge"><title>Node0-&gt;Node12</title><path fill="none" stroke="#191970" d="M32.8632,-773.7746C41.7143,-723.8362 66.9161,-594.0645 95,-561.5 98.5078,-557.4326 102.4381,-553.7003 106.6627,-550.2778"/><polygon fill="#191970" stroke="#191970" points="29.366 -773.455 31.099 -783.908 36.262 -774.656 29.366 -773.455"/></g><g id="node14" class="node"><title>Node13</title><g id="a_node14"><a target="_top" xlink:href="classarm__compute_1_1test_1_1framework_1_1_data_test_case.xhtml" xlink:title="DataTestCase\&lt; decltype\l(framework::dataset::combine\l(framework::dataset::combine\l(datasets::SqueezeNetActivationLayer\lDataset(), data_types), framework\l::dataset::make(&quot;Batches&quot;, \{ 4, 8\l \})))::type \&gt;"><polygon fill="#fff" stroke="#000" points="107 -373 107 -458 292 -458 292 -373 107 -373"/><text x="115" y="-446" fill="#000" font-family="Helvetica,sans-Serif" font-size="10" text-anchor="start">DataTestCase&lt; decltype</text><text x="115" y="-435" fill="#000" font-family="Helvetica,sans-Serif" font-size="10" text-anchor="start">(framework::dataset::combine</text><text x="115" y="-424" fill="#000" font-family="Helvetica,sans-Serif" font-size="10" text-anchor="start">(framework::dataset::combine</text><text x="115" y="-413" fill="#000" font-family="Helvetica,sans-Serif" font-size="10" text-anchor="start">(datasets::SqueezeNetActivationLayer</text><text x="115" y="-402" fill="#000" font-family="Helvetica,sans-Serif" font-size="10" text-anchor="start">Dataset(), data_types), framework</text><text x="115" y="-391" fill="#000" font-family="Helvetica,sans-Serif" font-size="10" text-anchor="start">::dataset::make(&quot;Batches&quot;, { 4, 8</text><text x="199.5" y="-380" fill="#000" font-family="Helvetica,sans-Serif" font-size="10" text-anchor="middle">})))::type &gt;</text></a></g></g><g id="edge13" class="edge"><title>Node0-&gt;Node13</title><path fill="none" stroke="#191970" d="M31.2249,-773.8215C37.0553,-711.1474 57.7734,-517.4541 95,-468.5 98.4477,-463.9661 102.3914,-459.79 106.6813,-455.9476"/><polygon fill="#191970" stroke="#191970" points="27.725 -773.66 30.309 -783.935 34.697 -774.292 27.725 -773.66"/></g><g id="node15" class="node"><title>Node14</title><g id="a_node15"><a target="_top" xlink:href="classarm__compute_1_1test_1_1framework_1_1_data_test_case.xhtml" xlink:title="DataTestCase\&lt; decltype\l(framework::dataset::combine\l(framework::dataset::combine\l(datasets::VGG16ActivationLayerDataset\l(), data_types), framework::dataset\l::make(&quot;Batches&quot;, 1)))::type \&gt;"><polygon fill="#fff" stroke="#000" points="101 -279.5 101 -353.5 298 -353.5 298 -279.5 101 -279.5"/><text x="109" y="-341.5" fill="#000" font-family="Helvetica,sans-Serif" font-size="10" text-anchor="start">DataTestCase&lt; decltype</text><text x="109" y="-330.5" fill="#000" font-family="Helvetica,sans-Serif" font-size="10" text-anchor="start">(framework::dataset::combine</text><text x="109" y="-319.5" fill="#000" font-family="Helvetica,sans-Serif" font-size="10" text-anchor="start">(framework::dataset::combine</text><text x="109" y="-308.5" fill="#000" font-family="Helvetica,sans-Serif" font-size="10" text-anchor="start">(datasets::VGG16ActivationLayerDataset</text><text x="109" y="-297.5" fill="#000" font-family="Helvetica,sans-Serif" font-size="10" text-anchor="start">(), data_types), framework::dataset</text><text x="199.5" y="-286.5" fill="#000" font-family="Helvetica,sans-Serif" font-size="10" text-anchor="middle">::make(&quot;Batches&quot;, 1)))::type &gt;</text></a></g></g><g id="edge14" class="edge"><title>Node0-&gt;Node14</title><path fill="none" stroke="#191970" d="M30.0654,-773.5555C32.5764,-697.8781 44.9198,-429.4248 95,-363.5 97.6473,-360.0151 100.6114,-356.782 103.8183,-353.7833"/><polygon fill="#191970" stroke="#191970" points="26.554 -773.882 29.742 -783.986 33.55 -774.099 26.554 -773.882"/></g><g id="node16" class="node"><title>Node15</title><g id="a_node16"><a target="_top" xlink:href="classarm__compute_1_1test_1_1framework_1_1_data_test_case.xhtml" xlink:title="DataTestCase\&lt; decltype\l(framework::dataset::combine\l(framework::dataset::combine\l(datasets::VGG16ActivationLayerDataset\l(), data_types), framework::dataset\l::make(&quot;Batches&quot;, \{ 4, 8 \})))::type \&gt;"><polygon fill="#fff" stroke="#000" points="101 -186.5 101 -260.5 298 -260.5 298 -186.5 101 -186.5"/><text x="109" y="-248.5" fill="#000" font-family="Helvetica,sans-Serif" font-size="10" text-anchor="start">DataTestCase&lt; decltype</text><text x="109" y="-237.5" fill="#000" font-family="Helvetica,sans-Serif" font-size="10" text-anchor="start">(framework::dataset::combine</text><text x="109" y="-226.5" fill="#000" font-family="Helvetica,sans-Serif" font-size="10" text-anchor="start">(framework::dataset::combine</text><text x="109" y="-215.5" fill="#000" font-family="Helvetica,sans-Serif" font-size="10" text-anchor="start">(datasets::VGG16ActivationLayerDataset</text><text x="109" y="-204.5" fill="#000" font-family="Helvetica,sans-Serif" font-size="10" text-anchor="start">(), data_types), framework::dataset</text><text x="199.5" y="-193.5" fill="#000" font-family="Helvetica,sans-Serif" font-size="10" text-anchor="middle">::make(&quot;Batches&quot;, { 4, 8 })))::type &gt;</text></a></g></g><g id="edge15" class="edge"><title>Node0-&gt;Node15</title><path fill="none" stroke="#191970" d="M30.832,-773.7542C37.0791,-683.382 64.4579,-311.834 95,-270.5 97.6008,-266.9802 100.5264,-263.7183 103.7016,-260.6959"/><polygon fill="#191970" stroke="#191970" points="27.324 -773.75 30.134 -783.966 34.308 -774.228 27.324 -773.75"/></g><g id="node17" class="node"><title>Node16</title><g id="a_node17"><a target="_top" xlink:href="classarm__compute_1_1test_1_1framework_1_1_data_test_case.xhtml" xlink:title="DataTestCase\&lt; decltype\l(framework::dataset::combine\l(framework::dataset::combine\l(datasets::YOLOV2ActivationLayerDataset\l(), data_types), framework::dataset\l::make(&quot;Batches&quot;, 1)))::type \&gt;"><polygon fill="#fff" stroke="#000" points="97.5 -93.5 97.5 -167.5 301.5 -167.5 301.5 -93.5 97.5 -93.5"/><text x="105.5" y="-155.5" fill="#000" font-family="Helvetica,sans-Serif" font-size="10" text-anchor="start">DataTestCase&lt; decltype</text><text x="105.5" y="-144.5" fill="#000" font-family="Helvetica,sans-Serif" font-size="10" text-anchor="start">(framework::dataset::combine</text><text x="105.5" y="-133.5" fill="#000" font-family="Helvetica,sans-Serif" font-size="10" text-anchor="start">(framework::dataset::combine</text><text x="105.5" y="-122.5" fill="#000" font-family="Helvetica,sans-Serif" font-size="10" text-anchor="start">(datasets::YOLOV2ActivationLayerDataset</text><text x="105.5" y="-111.5" fill="#000" font-family="Helvetica,sans-Serif" font-size="10" text-anchor="start">(), data_types), framework::dataset</text><text x="199.5" y="-100.5" fill="#000" font-family="Helvetica,sans-Serif" font-size="10" text-anchor="middle">::make(&quot;Batches&quot;, 1)))::type &gt;</text></a></g></g><g id="edge16" class="edge"><title>Node0-&gt;Node16</title><path fill="none" stroke="#191970" d="M30.4518,-773.4945C35.3834,-673.0858 59.1871,-226.9253 95,-177.5 97.5679,-173.9561 100.4661,-170.6742 103.6191,-167.6354"/><polygon fill="#191970" stroke="#191970" points="26.943 -773.591 29.955 -783.749 33.935 -773.93 26.943 -773.591"/></g><g id="node18" class="node"><title>Node17</title><g id="a_node18"><a target="_top" xlink:href="classarm__compute_1_1test_1_1framework_1_1_data_test_case.xhtml" xlink:title="DataTestCase\&lt; decltype\l(framework::dataset::combine\l(framework::dataset::combine\l(datasets::YOLOV2ActivationLayerDataset\l(), data_types), framework::dataset\l::make(&quot;Batches&quot;, \{ 4, 8 \})))::type \&gt;"><polygon fill="#fff" stroke="#000" points="97.5 -.5 97.5 -74.5 301.5 -74.5 301.5 -.5 97.5 -.5"/><text x="105.5" y="-62.5" fill="#000" font-family="Helvetica,sans-Serif" font-size="10" text-anchor="start">DataTestCase&lt; decltype</text><text x="105.5" y="-51.5" fill="#000" font-family="Helvetica,sans-Serif" font-size="10" text-anchor="start">(framework::dataset::combine</text><text x="105.5" y="-40.5" fill="#000" font-family="Helvetica,sans-Serif" font-size="10" text-anchor="start">(framework::dataset::combine</text><text x="105.5" y="-29.5" fill="#000" font-family="Helvetica,sans-Serif" font-size="10" text-anchor="start">(datasets::YOLOV2ActivationLayerDataset</text><text x="105.5" y="-18.5" fill="#000" font-family="Helvetica,sans-Serif" font-size="10" text-anchor="start">(), data_types), framework::dataset</text><text x="199.5" y="-7.5" fill="#000" font-family="Helvetica,sans-Serif" font-size="10" text-anchor="middle">::make(&quot;Batches&quot;, { 4, 8 })))::type &gt;</text></a></g></g><g id="edge17" class="edge"><title>Node0-&gt;Node17</title><path fill="none" stroke="#191970" d="M30.1523,-773.6406C33.8864,-664.666 53.846,-142.13 95,-84.5 97.5433,-80.9385 100.4213,-77.6419 103.5576,-74.5912"/><polygon fill="#191970" stroke="#191970" points="26.647 -773.751 29.808 -783.863 33.643 -773.986 26.647 -773.751"/></g></g></svg>