<svg xmlns="http://www.w3.org/2000/svg" xmlns:xlink="http://www.w3.org/1999/xlink" width="220" height="88" viewBox="0 0 165 66"><g id="graph0" class="graph" transform="scale(1 1) rotate(0) translate(4 62)"><title>Graphical Class Hierarchy</title><polygon fill="#fff" stroke="transparent" points="-4 4 -4 -62 161 -62 161 4 -4 4"/><g id="node1" class="node"><title>Node0</title><g id="a_node1"><a target="_top" xlink:href="classarm__compute_1_1_i_pyramid.xhtml" xlink:title="Interface for pyramid data-object."><polygon fill="#fff" stroke="#000" points="0 -19.5 0 -38.5 56 -38.5 56 -19.5 0 -19.5"/><text x="28" y="-26.5" fill="#000" font-family="Helvetica,sans-Serif" font-size="10" text-anchor="middle">IPyramid</text></a></g></g><g id="node2" class="node"><title>Node1</title><g id="a_node2"><a target="_top" xlink:href="classarm__compute_1_1_c_l_pyramid.xhtml" xlink:title="Basic implementation of the OpenCL pyramid interface."><polygon fill="#fff" stroke="#000" points="92 -38.5 92 -57.5 157 -57.5 157 -38.5 92 -38.5"/><text x="124.5" y="-45.5" fill="#000" font-family="Helvetica,sans-Serif" font-size="10" text-anchor="middle">CLPyramid</text></a></g></g><g id="edge1" class="edge"><title>Node0-&gt;Node1</title><path fill="none" stroke="#191970" d="M66.1807,-36.5174C74.622,-38.1795 83.4937,-39.9262 91.6991,-41.5418"/><polygon fill="#191970" stroke="#191970" points="66.659 -33.044 56.171 -34.547 65.307 -39.913 66.659 -33.044"/></g><g id="node3" class="node"><title>Node2</title><g id="a_node3"><a target="_top" xlink:href="classarm__compute_1_1_pyramid.xhtml" xlink:title="Basic implementation of the pyramid interface."><polygon fill="#fff" stroke="#000" points="98 -.5 98 -19.5 151 -19.5 151 -.5 98 -.5"/><text x="124.5" y="-7.5" fill="#000" font-family="Helvetica,sans-Serif" font-size="10" text-anchor="middle">Pyramid</text></a></g></g><g id="edge2" class="edge"><title>Node0-&gt;Node2</title><path fill="none" stroke="#191970" d="M66.0638,-21.5056C76.6764,-19.4161 87.9777,-17.1909 97.7855,-15.2598"/><polygon fill="#191970" stroke="#191970" points="65.307 -18.087 56.171 -23.453 66.659 -24.956 65.307 -18.087"/></g></g></svg>