<svg xmlns="http://www.w3.org/2000/svg" xmlns:xlink="http://www.w3.org/1999/xlink" width="548" height="503pt" viewBox="0 0 411 502.5"><g id="graph0" class="graph" transform="scale(1 1) rotate(0) translate(4 498.5)"><title>Graphical Class Hierarchy</title><polygon fill="#fff" stroke="transparent" points="-4 4 -4 -498.5 407 -498.5 407 4 -4 4"/><g id="node1" class="node"><title>Node0</title><g id="a_node1"><a target="_top" xlink:href="classarm__compute_1_1utils_1_1_option.xhtml" xlink:title="Abstract base class for a command line option."><polygon fill="#fff" stroke="#000" points="0 -232 0 -251 45 -251 45 -232 0 -232"/><text x="22.5" y="-239" fill="#000" font-family="Helvetica,sans-Serif" font-size="10" text-anchor="middle">Option</text></a></g></g><g id="node2" class="node"><title>Node1</title><g id="a_node2"><a target="_top" xlink:href="classarm__compute_1_1utils_1_1_enum_list_option.xhtml" xlink:title="Implementation of an option that accepts any number of values from a fixed set."><polygon fill="#fff" stroke="#000" points="99.5 -475 99.5 -494 209.5 -494 209.5 -475 99.5 -475"/><text x="154.5" y="-482" fill="#000" font-family="Helvetica,sans-Serif" font-size="10" text-anchor="middle">EnumListOption&lt; T &gt;</text></a></g></g><g id="edge1" class="edge"><title>Node0-&gt;Node1</title><path fill="none" stroke="#191970" d="M25.0644,-261.143C31.8596,-310.2312 51.8282,-436.4007 81,-465.5 86.1321,-470.6194 92.4517,-474.416 99.2115,-477.222"/><polygon fill="#191970" stroke="#191970" points="28.523 -260.6 23.718 -251.157 21.586 -261.535 28.523 -260.6"/></g><g id="node3" class="node"><title>Node2</title><g id="a_node3"><a target="_top" xlink:href="classarm__compute_1_1utils_1_1_list_option.xhtml" xlink:title="Implementation of an option that accepts any number of values."><polygon fill="#fff" stroke="#000" points="112 -437 112 -456 197 -456 197 -437 112 -437"/><text x="154.5" y="-444" fill="#000" font-family="Helvetica,sans-Serif" font-size="10" text-anchor="middle">ListOption&lt; T &gt;</text></a></g></g><g id="edge2" class="edge"><title>Node0-&gt;Node2</title><path fill="none" stroke="#191970" d="M26.197,-261.2038C34.6374,-304.1551 56.4986,-404.2349 81,-427.5 89.4107,-435.4863 100.7241,-440.2271 111.9507,-443.01"/><polygon fill="#191970" stroke="#191970" points="29.632 -260.533 24.305 -251.374 22.758 -261.856 29.632 -260.533"/></g><g id="node4" class="node"><title>Node3</title><g id="a_node4"><a target="_top" xlink:href="classarm__compute_1_1utils_1_1_simple_option.xhtml" xlink:title="Implementation of an option that accepts a single value."><polygon fill="#fff" stroke="#000" points="105 -399 105 -418 204 -418 204 -399 105 -399"/><text x="154.5" y="-406" fill="#000" font-family="Helvetica,sans-Serif" font-size="10" text-anchor="middle">SimpleOption&lt; T &gt;</text></a></g></g><g id="edge3" class="edge"><title>Node0-&gt;Node3</title><path fill="none" stroke="#191970" d="M24.6462,-261.3986C29.1666,-293.2685 42.6448,-355.6101 81,-389.5 87.7162,-395.4343 96.0503,-399.5566 104.669,-402.4108"/><polygon fill="#191970" stroke="#191970" points="28.077 -260.63 23.357 -251.145 21.132 -261.503 28.077 -260.63"/></g><g id="node6" class="node"><title>Node5</title><g id="a_node6"><a target="_top" xlink:href="classarm__compute_1_1utils_1_1_enum_list_option.xhtml" xlink:title="EnumListOption\&lt; Instruments\lDescription \&gt;"><polygon fill="#fff" stroke="#000" points="81 -349.5 81 -379.5 228 -379.5 228 -349.5 81 -349.5"/><text x="89" y="-367.5" fill="#000" font-family="Helvetica,sans-Serif" font-size="10" text-anchor="start">EnumListOption&lt; Instruments</text><text x="154.5" y="-356.5" fill="#000" font-family="Helvetica,sans-Serif" font-size="10" text-anchor="middle">Description &gt;</text></a></g></g><g id="edge5" class="edge"><title>Node0-&gt;Node5</title><path fill="none" stroke="#191970" d="M29.0295,-260.6325C37.5805,-282.9133 54.6566,-319.3556 81,-340.5 85.2921,-343.945 90.0946,-346.9021 95.134,-349.4393"/><polygon fill="#191970" stroke="#191970" points="32.316 -259.428 25.605 -251.229 25.738 -261.823 32.316 -259.428"/></g><g id="node7" class="node"><title>Node6</title><g id="a_node7"><a target="_top" xlink:href="classarm__compute_1_1utils_1_1_simple_option.xhtml" xlink:title="SimpleOption\&lt; arm_compute\l::DataLayout \&gt;"><polygon fill="#fff" stroke="#000" points="83 -300.5 83 -330.5 226 -330.5 226 -300.5 83 -300.5"/><text x="91" y="-318.5" fill="#000" font-family="Helvetica,sans-Serif" font-size="10" text-anchor="start">SimpleOption&lt; arm_compute</text><text x="154.5" y="-307.5" fill="#000" font-family="Helvetica,sans-Serif" font-size="10" text-anchor="middle">::DataLayout &gt;</text></a></g></g><g id="edge6" class="edge"><title>Node0-&gt;Node6</title><path fill="none" stroke="#191970" d="M38.7653,-258.4904C49.8202,-269.2135 65.2493,-282.6604 81,-291.5 86.97,-294.8505 93.4785,-297.8186 100.0738,-300.4236"/><polygon fill="#191970" stroke="#191970" points="41.092 -255.867 31.547 -251.269 36.141 -260.816 41.092 -255.867"/></g><g id="node9" class="node"><title>Node8</title><g id="a_node9"><a target="_top" xlink:href="classarm__compute_1_1utils_1_1_simple_option.xhtml" xlink:title="SimpleOption\&lt; arm_compute\l::DataType \&gt;"><polygon fill="#fff" stroke="#000" points="83 -251.5 83 -281.5 226 -281.5 226 -251.5 83 -251.5"/><text x="91" y="-269.5" fill="#000" font-family="Helvetica,sans-Serif" font-size="10" text-anchor="start">SimpleOption&lt; arm_compute</text><text x="154.5" y="-258.5" fill="#000" font-family="Helvetica,sans-Serif" font-size="10" text-anchor="middle">::DataType &gt;</text></a></g></g><g id="edge8" class="edge"><title>Node0-&gt;Node8</title><path fill="none" stroke="#191970" d="M55.2914,-247.7105C63.7265,-249.3081 73.1404,-251.091 82.7179,-252.9049"/><polygon fill="#191970" stroke="#191970" points="55.668 -244.22 45.192 -245.798 54.366 -251.097 55.668 -244.22"/></g><g id="node11" class="node"><title>Node10</title><g id="a_node11"><a target="_top" xlink:href="classarm__compute_1_1utils_1_1_simple_option.xhtml" xlink:title="SimpleOption\&lt; arm_compute\l::graph::Target \&gt;"><polygon fill="#fff" stroke="#000" points="83 -202.5 83 -232.5 226 -232.5 226 -202.5 83 -202.5"/><text x="91" y="-220.5" fill="#000" font-family="Helvetica,sans-Serif" font-size="10" text-anchor="start">SimpleOption&lt; arm_compute</text><text x="154.5" y="-209.5" fill="#000" font-family="Helvetica,sans-Serif" font-size="10" text-anchor="middle">::graph::Target &gt;</text></a></g></g><g id="edge10" class="edge"><title>Node0-&gt;Node10</title><path fill="none" stroke="#191970" d="M55.2914,-235.5379C63.7265,-234.0043 73.1404,-232.2927 82.7179,-230.5513"/><polygon fill="#191970" stroke="#191970" points="54.404 -232.142 45.192 -237.374 55.656 -239.029 54.404 -232.142"/></g><g id="node13" class="node"><title>Node12</title><g id="a_node13"><a target="_top" xlink:href="classarm__compute_1_1utils_1_1_simple_option.xhtml" xlink:title="SimpleOption\&lt; bool \&gt;"><polygon fill="#fff" stroke="#000" points="99 -164 99 -183 210 -183 210 -164 99 -164"/><text x="154.5" y="-171" fill="#000" font-family="Helvetica,sans-Serif" font-size="10" text-anchor="middle">SimpleOption&lt; bool &gt;</text></a></g></g><g id="edge12" class="edge"><title>Node0-&gt;Node12</title><path fill="none" stroke="#191970" d="M38.7439,-224.961C49.79,-214.5727 65.2173,-201.6446 81,-193.5 89.2263,-189.2549 98.4493,-185.8359 107.5089,-183.1088"/><polygon fill="#191970" stroke="#191970" points="36.263 -222.492 31.533 -231.972 41.142 -227.511 36.263 -222.492"/></g><g id="node15" class="node"><title>Node14</title><g id="a_node15"><a target="_top" xlink:href="classarm__compute_1_1utils_1_1_simple_option.xhtml" xlink:title="SimpleOption\&lt; int \&gt;"><polygon fill="#fff" stroke="#000" points="102.5 -126 102.5 -145 206.5 -145 206.5 -126 102.5 -126"/><text x="154.5" y="-133" fill="#000" font-family="Helvetica,sans-Serif" font-size="10" text-anchor="middle">SimpleOption&lt; int &gt;</text></a></g></g><g id="edge14" class="edge"><title>Node0-&gt;Node14</title><path fill="none" stroke="#191970" d="M30.2362,-222.6771C39.4055,-202.7314 56.5825,-171.781 81,-154.5 87.3473,-150.0078 94.6729,-146.577 102.1888,-143.957"/><polygon fill="#191970" stroke="#191970" points="26.971 -221.409 26.175 -231.974 33.386 -224.211 26.971 -221.409"/></g><g id="node16" class="node"><title>Node15</title><g id="a_node16"><a target="_top" xlink:href="classarm__compute_1_1utils_1_1_simple_option.xhtml" xlink:title="SimpleOption\&lt; LogFormat \&gt;"><polygon fill="#fff" stroke="#000" points="84.5 -88 84.5 -107 224.5 -107 224.5 -88 84.5 -88"/><text x="154.5" y="-95" fill="#000" font-family="Helvetica,sans-Serif" font-size="10" text-anchor="middle">SimpleOption&lt; LogFormat &gt;</text></a></g></g><g id="edge15" class="edge"><title>Node0-&gt;Node15</title><path fill="none" stroke="#191970" d="M26.2071,-221.9512C32.4989,-194.2629 47.9499,-143.9457 81,-116.5 85.6642,-112.6267 91.0253,-109.532 96.6823,-107.061"/><polygon fill="#191970" stroke="#191970" points="22.729 -221.483 24.106 -231.988 29.581 -222.917 22.729 -221.483"/></g><g id="node18" class="node"><title>Node17</title><g id="a_node18"><a target="_top" xlink:href="classarm__compute_1_1utils_1_1_simple_option.xhtml" xlink:title="SimpleOption\&lt; LogLevel \&gt;"><polygon fill="#fff" stroke="#000" points="88.5 -50 88.5 -69 220.5 -69 220.5 -50 88.5 -50"/><text x="154.5" y="-57" fill="#000" font-family="Helvetica,sans-Serif" font-size="10" text-anchor="middle">SimpleOption&lt; LogLevel &gt;</text></a></g></g><g id="edge17" class="edge"><title>Node0-&gt;Node17</title><path fill="none" stroke="#191970" d="M23.815,-221.5402C27.1821,-187.1468 39.0941,-116.7326 81,-78.5 85.1867,-74.6803 90.0406,-71.6077 95.2195,-69.139"/><polygon fill="#191970" stroke="#191970" points="20.309 -221.469 22.97 -231.725 27.285 -222.048 20.309 -221.469"/></g><g id="node20" class="node"><title>Node19</title><g id="a_node20"><a target="_top" xlink:href="classarm__compute_1_1utils_1_1_simple_option.xhtml" xlink:title="SimpleOption\&lt; std::\lstring \&gt;"><polygon fill="#fff" stroke="#000" points="102.5 -.5 102.5 -30.5 206.5 -30.5 206.5 -.5 102.5 -.5"/><text x="110.5" y="-18.5" fill="#000" font-family="Helvetica,sans-Serif" font-size="10" text-anchor="start">SimpleOption&lt; std::</text><text x="154.5" y="-7.5" fill="#000" font-family="Helvetica,sans-Serif" font-size="10" text-anchor="middle">string &gt;</text></a></g></g><g id="edge19" class="edge"><title>Node0-&gt;Node19</title><path fill="none" stroke="#191970" d="M25.8373,-221.9105C33.8973,-176.7195 55.6436,-67.0144 81,-40.5 86.8688,-34.3632 94.3004,-29.7328 102.1701,-26.239"/><polygon fill="#191970" stroke="#191970" points="22.362 -221.467 24.089 -231.92 29.258 -222.671 22.362 -221.467"/></g><g id="node5" class="node"><title>Node4</title><g id="a_node5"><a target="_top" xlink:href="classarm__compute_1_1utils_1_1_enum_option.xhtml" xlink:title="Implementation of a simple option that accepts a value from a fixed set."><polygon fill="#fff" stroke="#000" points="286 -399 286 -418 381 -418 381 -399 286 -399"/><text x="333.5" y="-406" fill="#000" font-family="Helvetica,sans-Serif" font-size="10" text-anchor="middle">EnumOption&lt; T &gt;</text></a></g></g><g id="edge4" class="edge"><title>Node3-&gt;Node4</title><path fill="none" stroke="#191970" d="M214.4461,-408.5C237.6573,-408.5 263.8558,-408.5 285.7554,-408.5"/><polygon fill="#191970" stroke="#191970" points="214.362 -405 204.362 -408.5 214.361 -412 214.362 -405"/></g><g id="node8" class="node"><title>Node7</title><g id="a_node8"><a target="_top" xlink:href="classarm__compute_1_1utils_1_1_enum_option.xhtml" xlink:title="EnumOption\&lt; arm_compute\l::DataLayout \&gt;"><polygon fill="#fff" stroke="#000" points="264 -300.5 264 -330.5 403 -330.5 403 -300.5 264 -300.5"/><text x="272" y="-318.5" fill="#000" font-family="Helvetica,sans-Serif" font-size="10" text-anchor="start">EnumOption&lt; arm_compute</text><text x="333.5" y="-307.5" fill="#000" font-family="Helvetica,sans-Serif" font-size="10" text-anchor="middle">::DataLayout &gt;</text></a></g></g><g id="edge7" class="edge"><title>Node6-&gt;Node7</title><path fill="none" stroke="#191970" d="M236.0336,-315.5C245.3237,-315.5 254.7292,-315.5 263.8455,-315.5"/><polygon fill="#191970" stroke="#191970" points="236.017 -312 226.017 -315.5 236.017 -319 236.017 -312"/></g><g id="node10" class="node"><title>Node9</title><g id="a_node10"><a target="_top" xlink:href="classarm__compute_1_1utils_1_1_enum_option.xhtml" xlink:title="EnumOption\&lt; arm_compute\l::DataType \&gt;"><polygon fill="#fff" stroke="#000" points="264 -251.5 264 -281.5 403 -281.5 403 -251.5 264 -251.5"/><text x="272" y="-269.5" fill="#000" font-family="Helvetica,sans-Serif" font-size="10" text-anchor="start">EnumOption&lt; arm_compute</text><text x="333.5" y="-258.5" fill="#000" font-family="Helvetica,sans-Serif" font-size="10" text-anchor="middle">::DataType &gt;</text></a></g></g><g id="edge9" class="edge"><title>Node8-&gt;Node9</title><path fill="none" stroke="#191970" d="M236.0336,-266.5C245.3237,-266.5 254.7292,-266.5 263.8455,-266.5"/><polygon fill="#191970" stroke="#191970" points="236.017 -263 226.017 -266.5 236.017 -270 236.017 -263"/></g><g id="node12" class="node"><title>Node11</title><g id="a_node12"><a target="_top" xlink:href="classarm__compute_1_1utils_1_1_enum_option.xhtml" xlink:title="EnumOption\&lt; arm_compute\l::graph::Target \&gt;"><polygon fill="#fff" stroke="#000" points="264 -202.5 264 -232.5 403 -232.5 403 -202.5 264 -202.5"/><text x="272" y="-220.5" fill="#000" font-family="Helvetica,sans-Serif" font-size="10" text-anchor="start">EnumOption&lt; arm_compute</text><text x="333.5" y="-209.5" fill="#000" font-family="Helvetica,sans-Serif" font-size="10" text-anchor="middle">::graph::Target &gt;</text></a></g></g><g id="edge11" class="edge"><title>Node10-&gt;Node11</title><path fill="none" stroke="#191970" d="M236.0336,-217.5C245.3237,-217.5 254.7292,-217.5 263.8455,-217.5"/><polygon fill="#191970" stroke="#191970" points="236.017 -214 226.017 -217.5 236.017 -221 236.017 -214"/></g><g id="node14" class="node"><title>Node13</title><g id="a_node14"><a target="_top" xlink:href="classarm__compute_1_1utils_1_1_toggle_option.xhtml" xlink:title="Implementation of an option that can be either true or false."><polygon fill="#fff" stroke="#000" points="296.5 -164 296.5 -183 370.5 -183 370.5 -164 296.5 -164"/><text x="333.5" y="-171" fill="#000" font-family="Helvetica,sans-Serif" font-size="10" text-anchor="middle">ToggleOption</text></a></g></g><g id="edge13" class="edge"><title>Node12-&gt;Node13</title><path fill="none" stroke="#191970" d="M220.1975,-173.5C245.8419,-173.5 274.2977,-173.5 296.2769,-173.5"/><polygon fill="#191970" stroke="#191970" points="220.155 -170 210.155 -173.5 220.155 -177 220.155 -170"/></g><g id="node17" class="node"><title>Node16</title><g id="a_node17"><a target="_top" xlink:href="classarm__compute_1_1utils_1_1_enum_option.xhtml" xlink:title="EnumOption\&lt; LogFormat \&gt;"><polygon fill="#fff" stroke="#000" points="266 -88 266 -107 401 -107 401 -88 266 -88"/><text x="333.5" y="-95" fill="#000" font-family="Helvetica,sans-Serif" font-size="10" text-anchor="middle">EnumOption&lt; LogFormat &gt;</text></a></g></g><g id="edge16" class="edge"><title>Node15-&gt;Node16</title><path fill="none" stroke="#191970" d="M234.964,-97.5C245.2705,-97.5 255.7385,-97.5 265.8138,-97.5"/><polygon fill="#191970" stroke="#191970" points="234.732 -94 224.732 -97.5 234.732 -101 234.732 -94"/></g><g id="node19" class="node"><title>Node18</title><g id="a_node19"><a target="_top" xlink:href="classarm__compute_1_1utils_1_1_enum_option.xhtml" xlink:title="EnumOption\&lt; LogLevel \&gt;"><polygon fill="#fff" stroke="#000" points="269.5 -50 269.5 -69 397.5 -69 397.5 -50 269.5 -50"/><text x="333.5" y="-57" fill="#000" font-family="Helvetica,sans-Serif" font-size="10" text-anchor="middle">EnumOption&lt; LogLevel &gt;</text></a></g></g><g id="edge18" class="edge"><title>Node17-&gt;Node18</title><path fill="none" stroke="#191970" d="M230.8489,-59.5C243.6978,-59.5 256.9164,-59.5 269.4141,-59.5"/><polygon fill="#191970" stroke="#191970" points="230.644 -56 220.644 -59.5 230.644 -63 230.644 -56"/></g></g></svg>