<svg xmlns="http://www.w3.org/2000/svg" xmlns:xlink="http://www.w3.org/1999/xlink" width="229pt" height="88" viewBox="0 0 229 66"><g id="graph0" class="graph" transform="scale(1 1) rotate(0) translate(4 62)"><title>Graphical Class Hierarchy</title><polygon fill="#fff" stroke="transparent" points="-4 4 -4 -62 225 -62 225 4 -4 4"/><g id="node1" class="node"><title>Node0</title><g id="a_node1"><a target="_top" xlink:href="classarm__compute_1_1_i_h_o_g.xhtml" xlink:title="Interface for HOG data-object."><polygon fill="#fff" stroke="#000" points="0 -19.5 0 -38.5 42 -38.5 42 -19.5 0 -19.5"/><text x="21" y="-26.5" fill="#000" font-family="Helvetica,sans-Serif" font-size="10" text-anchor="middle">IHOG</text></a></g></g><g id="node2" class="node"><title>Node1</title><g id="a_node2"><a target="_top" xlink:href="classarm__compute_1_1_h_o_g.xhtml" xlink:title="CPU implementation of HOG data-object."><polygon fill="#fff" stroke="#000" points="86 -38.5 86 -57.5 125 -57.5 125 -38.5 86 -38.5"/><text x="105.5" y="-45.5" fill="#000" font-family="Helvetica,sans-Serif" font-size="10" text-anchor="middle">HOG</text></a></g></g><g id="edge1" class="edge"><title>Node0-&gt;Node1</title><path fill="none" stroke="#191970" d="M52.2599,-36.0288C63.5337,-38.5638 75.9295,-41.351 85.9216,-43.5977"/><polygon fill="#191970" stroke="#191970" points="52.847 -32.574 42.323 -33.794 51.312 -39.403 52.847 -32.574"/></g><g id="node3" class="node"><title>Node2</title><g id="a_node3"><a target="_top" xlink:href="classarm__compute_1_1_i_c_l_h_o_g.xhtml" xlink:title="Interface for OpenCL HOG data-object."><polygon fill="#fff" stroke="#000" points="78 -.5 78 -19.5 133 -19.5 133 -.5 78 -.5"/><text x="105.5" y="-7.5" fill="#000" font-family="Helvetica,sans-Serif" font-size="10" text-anchor="middle">ICLHOG</text></a></g></g><g id="edge2" class="edge"><title>Node0-&gt;Node2</title><path fill="none" stroke="#191970" d="M52.1591,-21.9938C60.5595,-20.105 69.5894,-18.0746 77.7877,-16.2312"/><polygon fill="#191970" stroke="#191970" points="51.312 -18.597 42.323 -24.206 52.847 -25.426 51.312 -18.597"/></g><g id="node4" class="node"><title>Node3</title><g id="a_node4"><a target="_top" xlink:href="classarm__compute_1_1_c_l_h_o_g.xhtml" xlink:title="OpenCL implementation of HOG data-object."><polygon fill="#fff" stroke="#000" points="169 -.5 169 -19.5 221 -19.5 221 -.5 169 -.5"/><text x="195" y="-7.5" fill="#000" font-family="Helvetica,sans-Serif" font-size="10" text-anchor="middle">CLHOG</text></a></g></g><g id="edge3" class="edge"><title>Node2-&gt;Node3</title><path fill="none" stroke="#191970" d="M143.4546,-10C151.9632,-10 160.8074,-10 168.7179,-10"/><polygon fill="#191970" stroke="#191970" points="143.328 -6.5 133.328 -10 143.328 -13.5 143.328 -6.5"/></g></g></svg>