<svg xmlns="http://www.w3.org/2000/svg" xmlns:xlink="http://www.w3.org/1999/xlink" width="358pt" height="52" viewBox="0 0 358 39"><g id="graph0" class="graph" transform="scale(1 1) rotate(0) translate(4 35)"><title>Graphical Class Hierarchy</title><polygon fill="#fff" stroke="transparent" points="-4 4 -4 -35 354 -35 354 4 -4 4"/><g id="node1" class="node"><title>Node0</title><g id="a_node1"><a target="_top" xlink:href="structarm__compute_1_1test_1_1validation_1_1compare__base.xhtml" xlink:title="compare_base\&lt; AbsoluteTolerance\l\&lt; U \&gt; \&gt;"><polygon fill="#fff" stroke="#000" points="0 -.5 0 -30.5 170 -30.5 170 -.5 0 -.5"/><text x="8" y="-18.5" fill="#000" font-family="Helvetica,sans-Serif" font-size="10" text-anchor="start">compare_base&lt; AbsoluteTolerance</text><text x="85" y="-7.5" fill="#000" font-family="Helvetica,sans-Serif" font-size="10" text-anchor="middle">&lt; U &gt; &gt;</text></a></g></g><g id="node2" class="node"><title>Node1</title><g id="a_node2"><a target="_top" xlink:href="structarm__compute_1_1test_1_1validation_1_1compare_3_01_absolute_tolerance_3_01_u_01_4_01_4.xhtml" xlink:title="Compare values with an absolute tolerance."><polygon fill="#fff" stroke="#000" points="206 -.5 206 -30.5 350 -30.5 350 -.5 206 -.5"/><text x="214" y="-18.5" fill="#000" font-family="Helvetica,sans-Serif" font-size="10" text-anchor="start">compare&lt; AbsoluteTolerance</text><text x="278" y="-7.5" fill="#000" font-family="Helvetica,sans-Serif" font-size="10" text-anchor="middle">&lt; U &gt; &gt;</text></a></g></g><g id="edge1" class="edge"><title>Node0-&gt;Node1</title><path fill="none" stroke="#191970" d="M180.307,-15.5C188.9235,-15.5 197.5526,-15.5 205.9195,-15.5"/><polygon fill="#191970" stroke="#191970" points="180.214 -12 170.214 -15.5 180.214 -19 180.214 -12"/></g></g></svg>