<svg xmlns="http://www.w3.org/2000/svg" xmlns:xlink="http://www.w3.org/1999/xlink" width="344" height="104pt" viewBox="0 0 258 104"><g id="graph0" class="graph" transform="scale(1 1) rotate(0) translate(4 100)"><title>Graphical Class Hierarchy</title><polygon fill="#fff" stroke="transparent" points="-4 4 -4 -100 254 -100 254 4 -4 4"/><g id="node1" class="node"><title>Node0</title><g id="a_node1"><a target="_top" xlink:href="classarm__compute_1_1test_1_1_i_lut_accessor.xhtml" xlink:title="Common interface to provide information and access to Lut like structures."><polygon fill="#fff" stroke="#000" points="0 -38.5 0 -57.5 98 -57.5 98 -38.5 0 -38.5"/><text x="49" y="-45.5" fill="#000" font-family="Helvetica,sans-Serif" font-size="10" text-anchor="middle">ILutAccessor&lt; T &gt;</text></a></g></g><g id="node2" class="node"><title>Node1</title><g id="a_node2"><a target="_top" xlink:href="classarm__compute_1_1test_1_1_c_l_lut_accessor.xhtml" xlink:title="Accessor implementation for CLLut objects."><polygon fill="#fff" stroke="#000" points="138 -76.5 138 -95.5 246 -95.5 246 -76.5 138 -76.5"/><text x="192" y="-83.5" fill="#000" font-family="Helvetica,sans-Serif" font-size="10" text-anchor="middle">CLLutAccessor&lt; T &gt;</text></a></g></g><g id="edge1" class="edge"><title>Node0-&gt;Node1</title><path fill="none" stroke="#191970" d="M94.8133,-60.1742C114.5871,-65.4287 137.3838,-71.4866 155.9266,-76.4141"/><polygon fill="#191970" stroke="#191970" points="95.648 -56.775 85.085 -57.589 93.851 -63.54 95.648 -56.775"/></g><g id="node3" class="node"><title>Node2</title><g id="a_node3"><a target="_top" xlink:href="classarm__compute_1_1test_1_1_lut_accessor.xhtml" xlink:title="Accessor implementation for Lut objects."><polygon fill="#fff" stroke="#000" points="144.5 -38.5 144.5 -57.5 239.5 -57.5 239.5 -38.5 144.5 -38.5"/><text x="192" y="-45.5" fill="#000" font-family="Helvetica,sans-Serif" font-size="10" text-anchor="middle">LutAccessor&lt; T &gt;</text></a></g></g><g id="edge2" class="edge"><title>Node0-&gt;Node2</title><path fill="none" stroke="#191970" d="M108.502,-48C120.3831,-48 132.7191,-48 144.147,-48"/><polygon fill="#191970" stroke="#191970" points="108.213 -44.5 98.213 -48 108.213 -51.5 108.213 -44.5"/></g><g id="node4" class="node"><title>Node3</title><g id="a_node4"><a target="_top" xlink:href="classarm__compute_1_1test_1_1_raw_lut_accessor.xhtml" xlink:title="Accessor implementation for std::map-lut objects."><polygon fill="#fff" stroke="#000" points="134 -.5 134 -19.5 250 -19.5 250 -.5 134 -.5"/><text x="192" y="-7.5" fill="#000" font-family="Helvetica,sans-Serif" font-size="10" text-anchor="middle">RawLutAccessor&lt; T &gt;</text></a></g></g><g id="edge3" class="edge"><title>Node0-&gt;Node3</title><path fill="none" stroke="#191970" d="M94.8133,-35.8258C114.5871,-30.5713 137.3838,-24.5134 155.9266,-19.5859"/><polygon fill="#191970" stroke="#191970" points="93.851 -32.46 85.085 -38.411 95.648 -39.225 93.851 -32.46"/></g></g></svg>