<svg xmlns="http://www.w3.org/2000/svg" xmlns:xlink="http://www.w3.org/1999/xlink" width="272" height="142pt" viewBox="0 0 204 142"><g id="graph0" class="graph" transform="scale(1 1) rotate(0) translate(4 138)"><title>Graphical Class Hierarchy</title><polygon fill="#fff" stroke="transparent" points="-4 4 -4 -138 200 -138 200 4 -4 4"/><g id="node1" class="node"><title>Node0</title><g id="a_node1"><a target="_top" xlink:href="classarm__compute_1_1logging_1_1_i_decorator.xhtml" xlink:title="Log message decorator interface."><polygon fill="#fff" stroke="#000" points="0 -57.5 0 -76.5 62 -76.5 62 -57.5 0 -57.5"/><text x="31" y="-64.5" fill="#000" font-family="Helvetica,sans-Serif" font-size="10" text-anchor="middle">IDecorator</text></a></g></g><g id="node2" class="node"><title>Node1</title><g id="a_node2"><a target="_top" xlink:href="classarm__compute_1_1logging_1_1_date_decorator.xhtml" xlink:title="Date Decorator."><polygon fill="#fff" stroke="#000" points="107 -114.5 107 -133.5 187 -133.5 187 -114.5 107 -114.5"/><text x="147" y="-121.5" fill="#000" font-family="Helvetica,sans-Serif" font-size="10" text-anchor="middle">DateDecorator</text></a></g></g><g id="edge1" class="edge"><title>Node0-&gt;Node1</title><path fill="none" stroke="#191970" d="M55.2583,-81.8954C67.7881,-89.2951 83.4617,-98.1038 98,-105 105.0896,-108.3629 112.9457,-111.6106 120.2532,-114.4409"/><polygon fill="#191970" stroke="#191970" points="56.738 -78.702 46.36 -76.567 53.141 -84.707 56.738 -78.702"/></g><g id="node3" class="node"><title>Node2</title><g id="a_node3"><a target="_top" xlink:href="classarm__compute_1_1logging_1_1_log_level_decorator.xhtml" xlink:title="Log Level Decorator."><polygon fill="#fff" stroke="#000" points="98 -76.5 98 -95.5 196 -95.5 196 -76.5 98 -76.5"/><text x="147" y="-83.5" fill="#000" font-family="Helvetica,sans-Serif" font-size="10" text-anchor="middle">LogLevelDecorator</text></a></g></g><g id="edge2" class="edge"><title>Node0-&gt;Node2</title><path fill="none" stroke="#191970" d="M71.9937,-73.7145C80.3709,-75.0866 89.2674,-76.5438 97.8949,-77.9569"/><polygon fill="#191970" stroke="#191970" points="72.52 -70.254 62.086 -72.092 71.389 -77.162 72.52 -70.254"/></g><g id="node4" class="node"><title>Node3</title><g id="a_node4"><a target="_top" xlink:href="classarm__compute_1_1logging_1_1_string_decorator.xhtml" xlink:title="String Decorator."><polygon fill="#fff" stroke="#000" points="104.5 -38.5 104.5 -57.5 189.5 -57.5 189.5 -38.5 104.5 -38.5"/><text x="147" y="-45.5" fill="#000" font-family="Helvetica,sans-Serif" font-size="10" text-anchor="middle">StringDecorator</text></a></g></g><g id="edge3" class="edge"><title>Node0-&gt;Node3</title><path fill="none" stroke="#191970" d="M72.2296,-60.2469C82.6958,-58.5326 93.9591,-56.6877 104.4877,-54.9632"/><polygon fill="#191970" stroke="#191970" points="71.389 -56.838 62.086 -61.908 72.52 -63.746 71.389 -56.838"/></g><g id="node5" class="node"><title>Node4</title><g id="a_node5"><a target="_top" xlink:href="classarm__compute_1_1logging_1_1_thread_id_decorator.xhtml" xlink:title="Thread ID Decorator."><polygon fill="#fff" stroke="#000" points="98 -.5 98 -19.5 196 -19.5 196 -.5 98 -.5"/><text x="147" y="-7.5" fill="#000" font-family="Helvetica,sans-Serif" font-size="10" text-anchor="middle">ThreadIdDecorator</text></a></g></g><g id="edge4" class="edge"><title>Node0-&gt;Node4</title><path fill="none" stroke="#191970" d="M55.2583,-52.1046C67.7881,-44.7049 83.4617,-35.8962 98,-29 105.0896,-25.6371 112.9457,-22.3894 120.2532,-19.5591"/><polygon fill="#191970" stroke="#191970" points="53.141 -49.293 46.36 -57.434 56.738 -55.298 53.141 -49.293"/></g></g></svg>