<svg xmlns="http://www.w3.org/2000/svg" xmlns:xlink="http://www.w3.org/1999/xlink" width="388" height="52" viewBox="0 0 291 39"><g id="graph0" class="graph" transform="scale(1 1) rotate(0) translate(4 35)"><title>Graphical Class Hierarchy</title><polygon fill="#fff" stroke="transparent" points="-4 4 -4 -35 287 -35 287 4 -4 4"/><g id="node1" class="node"><title>Node0</title><g id="a_node1"><a target="_top" xlink:href="classarm__gemm_1_1_gemm_implementation.xhtml" xlink:title="GemmImplementation\l\&lt; Top, Tret \&gt;"><polygon fill="#fff" stroke="#000" points="0 -.5 0 -30.5 113 -30.5 113 -.5 0 -.5"/><text x="8" y="-18.5" fill="#000" font-family="Helvetica,sans-Serif" font-size="10" text-anchor="start">GemmImplementation</text><text x="56.5" y="-7.5" fill="#000" font-family="Helvetica,sans-Serif" font-size="10" text-anchor="middle">&lt; Top, Tret &gt;</text></a></g></g><g id="node2" class="node"><title>Node1</title><g id="a_node2"><a target="_top" xlink:href="classarm__gemm_1_1_gemm_impl__gemv__batched.xhtml" xlink:title="GemmImpl_gemv_batched\l\&lt; Top, Tret \&gt;"><polygon fill="#fff" stroke="#000" points="149 -.5 149 -30.5 283 -30.5 283 -.5 149 -.5"/><text x="157" y="-18.5" fill="#000" font-family="Helvetica,sans-Serif" font-size="10" text-anchor="start">GemmImpl_gemv_batched</text><text x="216" y="-7.5" fill="#000" font-family="Helvetica,sans-Serif" font-size="10" text-anchor="middle">&lt; Top, Tret &gt;</text></a></g></g><g id="edge1" class="edge"><title>Node0-&gt;Node1</title><path fill="none" stroke="#191970" d="M123.3503,-15.5C131.7878,-15.5 140.4231,-15.5 148.865,-15.5"/><polygon fill="#191970" stroke="#191970" points="123.183 -12 113.183 -15.5 123.183 -19 123.183 -12"/></g></g></svg>