<svg xmlns="http://www.w3.org/2000/svg" xmlns:xlink="http://www.w3.org/1999/xlink" width="271pt" height="300" viewBox="0 0 271 225"><g id="graph0" class="graph" transform="scale(1 1) rotate(0) translate(4 221)"><title>Graphical Class Hierarchy</title><polygon fill="#fff" stroke="transparent" points="-4 4 -4 -221 267 -221 267 4 -4 4"/><g id="node1" class="node"><title>Node981</title><polygon fill="#fff" stroke="#bfbfbf" points="0 -99 0 -118 86 -118 86 -99 0 -99"/><text x="43" y="-106" fill="#000" font-family="Helvetica,sans-Serif" font-size="10" text-anchor="middle">GemmCommon</text></g><g id="node2" class="node"><title>Node0</title><g id="a_node2"><a target="_top" xlink:href="classarm__gemm_1_1_gemm_interleaved.xhtml" xlink:title="GemmInterleaved\&lt; strategy,\l To, Tr \&gt;"><polygon fill="#fff" stroke="#000" points="122 -186.5 122 -216.5 263 -216.5 263 -186.5 122 -186.5"/><text x="130" y="-204.5" fill="#000" font-family="Helvetica,sans-Serif" font-size="10" text-anchor="start">GemmInterleaved&lt; strategy,</text><text x="192.5" y="-193.5" fill="#000" font-family="Helvetica,sans-Serif" font-size="10" text-anchor="middle">To, Tr &gt;</text></a></g></g><g id="edge1" class="edge"><title>Node981-&gt;Node0</title><path fill="none" stroke="#191970" d="M58.7735,-125.6669C73.7496,-141.0847 97.5502,-163.4026 122,-177.5 127.8244,-180.8583 134.1915,-183.8425 140.6405,-186.4661"/><polygon fill="#191970" stroke="#191970" points="61.214 -123.154 51.79 -118.313 56.138 -127.975 61.214 -123.154"/></g><g id="node3" class="node"><title>Node983</title><g id="a_node3"><a target="_top" xlink:href="classarm__gemm_1_1_gemm_native.xhtml" xlink:title="GemmNative\&lt; strategy,\l To, Tr \&gt;"><polygon fill="#fff" stroke="#000" points="131.5 -137.5 131.5 -167.5 253.5 -167.5 253.5 -137.5 131.5 -137.5"/><text x="139.5" y="-155.5" fill="#000" font-family="Helvetica,sans-Serif" font-size="10" text-anchor="start">GemmNative&lt; strategy,</text><text x="192.5" y="-144.5" fill="#000" font-family="Helvetica,sans-Serif" font-size="10" text-anchor="middle">To, Tr &gt;</text></a></g></g><g id="edge2" class="edge"><title>Node981-&gt;Node983</title><path fill="none" stroke="#191970" d="M85.3196,-120.9553C102.7364,-126.0813 123.0672,-132.0649 141.312,-137.4346"/><polygon fill="#191970" stroke="#191970" points="86.021 -117.513 75.439 -118.047 84.044 -124.228 86.021 -117.513"/></g><g id="node4" class="node"><title>Node984</title><g id="a_node4"><a target="_top" xlink:href="classarm__gemm_1_1_gemv_batched.xhtml" xlink:title="GemvBatched\&lt; To, Tr \&gt;"><polygon fill="#fff" stroke="#000" points="131 -99 131 -118 254 -118 254 -99 131 -99"/><text x="192.5" y="-106" fill="#000" font-family="Helvetica,sans-Serif" font-size="10" text-anchor="middle">GemvBatched&lt; To, Tr &gt;</text></a></g></g><g id="edge3" class="edge"><title>Node981-&gt;Node984</title><path fill="none" stroke="#191970" d="M96.2643,-108.5C107.4267,-108.5 119.2876,-108.5 130.7299,-108.5"/><polygon fill="#191970" stroke="#191970" points="96.242 -105 86.242 -108.5 96.242 -112 96.242 -105"/></g><g id="node5" class="node"><title>Node985</title><g id="a_node5"><a target="_top" xlink:href="classarm__gemm_1_1_gemv_native_transposed.xhtml" xlink:title="GemvNativeTransposed\l\&lt; strategy, To, Tr \&gt;"><polygon fill="#fff" stroke="#000" points="131.5 -49.5 131.5 -79.5 253.5 -79.5 253.5 -49.5 131.5 -49.5"/><text x="139.5" y="-67.5" fill="#000" font-family="Helvetica,sans-Serif" font-size="10" text-anchor="start">GemvNativeTransposed</text><text x="192.5" y="-56.5" fill="#000" font-family="Helvetica,sans-Serif" font-size="10" text-anchor="middle">&lt; strategy, To, Tr &gt;</text></a></g></g><g id="edge4" class="edge"><title>Node981-&gt;Node985</title><path fill="none" stroke="#191970" d="M85.3196,-96.0447C102.7364,-90.9187 123.0672,-84.9351 141.312,-79.5654"/><polygon fill="#191970" stroke="#191970" points="84.044 -92.772 75.439 -98.953 86.021 -99.487 84.044 -92.772"/></g><g id="node6" class="node"><title>Node986</title><g id="a_node6"><a target="_top" xlink:href="classarm__gemm_1_1_gemv_pretransposed.xhtml" xlink:title="GemvPretransposed\&lt;\l strategy, To, Tr \&gt;"><polygon fill="#fff" stroke="#000" points="136.5 -.5 136.5 -30.5 248.5 -30.5 248.5 -.5 136.5 -.5"/><text x="144.5" y="-18.5" fill="#000" font-family="Helvetica,sans-Serif" font-size="10" text-anchor="start">GemvPretransposed&lt;</text><text x="192.5" y="-7.5" fill="#000" font-family="Helvetica,sans-Serif" font-size="10" text-anchor="middle">strategy, To, Tr &gt;</text></a></g></g><g id="edge5" class="edge"><title>Node981-&gt;Node986</title><path fill="none" stroke="#191970" d="M58.8626,-91.667C73.9002,-76.5313 97.741,-54.5753 122,-40.5 128.4026,-36.7852 135.4491,-33.4852 142.5354,-30.5995"/><polygon fill="#191970" stroke="#191970" points="56.308 -89.273 51.846 -98.882 61.327 -94.153 56.308 -89.273"/></g></g></svg>