<svg xmlns="http://www.w3.org/2000/svg" xmlns:xlink="http://www.w3.org/1999/xlink" width="305pt" height="88" viewBox="0 0 305 66"><g id="graph0" class="graph" transform="scale(1 1) rotate(0) translate(4 62)"><title>Graphical Class Hierarchy</title><polygon fill="#fff" stroke="transparent" points="-4 4 -4 -62 301 -62 301 4 -4 4"/><g id="node1" class="node"><title>Node0</title><g id="a_node1"><a target="_top" xlink:href="classarm__compute_1_1_i_multi_image.xhtml" xlink:title="Interface for multi-planar images."><polygon fill="#fff" stroke="#000" points="0 -19.5 0 -38.5 68 -38.5 68 -19.5 0 -19.5"/><text x="34" y="-26.5" fill="#000" font-family="Helvetica,sans-Serif" font-size="10" text-anchor="middle">IMultiImage</text></a></g></g><g id="node2" class="node"><title>Node1</title><g id="a_node2"><a target="_top" xlink:href="classarm__compute_1_1_i_c_l_multi_image.xhtml" xlink:title="Interface for OpenCL multi-planar images."><polygon fill="#fff" stroke="#000" points="104 -38.5 104 -57.5 184 -57.5 184 -38.5 104 -38.5"/><text x="144" y="-45.5" fill="#000" font-family="Helvetica,sans-Serif" font-size="10" text-anchor="middle">ICLMultiImage</text></a></g></g><g id="edge1" class="edge"><title>Node0-&gt;Node1</title><path fill="none" stroke="#191970" d="M78.2211,-36.6382C86.6228,-38.0894 95.3737,-39.6009 103.6476,-41.03"/><polygon fill="#191970" stroke="#191970" points="78.651 -33.161 68.202 -34.908 77.46 -40.059 78.651 -33.161"/></g><g id="node4" class="node"><title>Node3</title><g id="a_node4"><a target="_top" xlink:href="classarm__compute_1_1_multi_image.xhtml" xlink:title="Basic implementation of the multi-planar image interface."><polygon fill="#fff" stroke="#000" points="111.5 -.5 111.5 -19.5 176.5 -19.5 176.5 -.5 111.5 -.5"/><text x="144" y="-7.5" fill="#000" font-family="Helvetica,sans-Serif" font-size="10" text-anchor="middle">MultiImage</text></a></g></g><g id="edge3" class="edge"><title>Node0-&gt;Node3</title><path fill="none" stroke="#191970" d="M78.1496,-21.3742C89.2281,-19.4606 100.9183,-17.4414 111.3244,-15.644"/><polygon fill="#191970" stroke="#191970" points="77.46 -17.941 68.202 -23.092 78.651 -24.839 77.46 -17.941"/></g><g id="node3" class="node"><title>Node2</title><g id="a_node3"><a target="_top" xlink:href="classarm__compute_1_1_c_l_multi_image.xhtml" xlink:title="Basic implementation of the CL multi-planar image interface."><polygon fill="#fff" stroke="#000" points="220 -38.5 220 -57.5 297 -57.5 297 -38.5 220 -38.5"/><text x="258.5" y="-45.5" fill="#000" font-family="Helvetica,sans-Serif" font-size="10" text-anchor="middle">CLMultiImage</text></a></g></g><g id="edge2" class="edge"><title>Node1-&gt;Node2</title><path fill="none" stroke="#191970" d="M194.3214,-48C202.8728,-48 211.6336,-48 219.8253,-48"/><polygon fill="#191970" stroke="#191970" points="194.047 -44.5 184.047 -48 194.047 -51.5 194.047 -44.5"/></g></g></svg>