<svg xmlns="http://www.w3.org/2000/svg" xmlns:xlink="http://www.w3.org/1999/xlink" width="454pt" height="88" viewBox="0 0 454 66"><g id="graph0" class="graph" transform="scale(1 1) rotate(0) translate(4 62)"><title>Graphical Class Hierarchy</title><polygon fill="#fff" stroke="transparent" points="-4 4 -4 -62 450 -62 450 4 -4 4"/><g id="node1" class="node"><title>Node0</title><g id="a_node1"><a target="_top" xlink:href="classarm__compute_1_1_i_distribution.xhtml" xlink:title="Interface for distribution objects."><polygon fill="#fff" stroke="#000" points="0 -19.5 0 -38.5 69 -38.5 69 -19.5 0 -19.5"/><text x="34.5" y="-26.5" fill="#000" font-family="Helvetica,sans-Serif" font-size="10" text-anchor="middle">IDistribution</text></a></g></g><g id="node2" class="node"><title>Node1</title><g id="a_node2"><a target="_top" xlink:href="classarm__compute_1_1_i_distribution1_d.xhtml" xlink:title="1D Distribution interface"><polygon fill="#fff" stroke="#000" points="105 -19.5 105 -38.5 187 -38.5 187 -19.5 105 -19.5"/><text x="146" y="-26.5" fill="#000" font-family="Helvetica,sans-Serif" font-size="10" text-anchor="middle">IDistribution1D</text></a></g></g><g id="edge1" class="edge"><title>Node0-&gt;Node1</title><path fill="none" stroke="#191970" d="M79.2074,-29C87.6248,-29 96.3919,-29 104.6994,-29"/><polygon fill="#191970" stroke="#191970" points="79.168 -25.5 69.168 -29 79.168 -32.5 79.168 -25.5"/></g><g id="node3" class="node"><title>Node2</title><g id="a_node3"><a target="_top" xlink:href="classarm__compute_1_1_distribution1_d.xhtml" xlink:title="Basic implementation of the 1D distribution interface."><polygon fill="#fff" stroke="#000" points="231 -38.5 231 -57.5 310 -57.5 310 -38.5 231 -38.5"/><text x="270.5" y="-45.5" fill="#000" font-family="Helvetica,sans-Serif" font-size="10" text-anchor="middle">Distribution1D</text></a></g></g><g id="edge2" class="edge"><title>Node1-&gt;Node2</title><path fill="none" stroke="#191970" d="M197.1961,-36.8131C208.3751,-38.5191 220.0455,-40.3001 230.7022,-41.9264"/><polygon fill="#191970" stroke="#191970" points="197.525 -33.323 187.111 -35.274 196.469 -40.243 197.525 -33.323"/></g><g id="node4" class="node"><title>Node3</title><g id="a_node4"><a target="_top" xlink:href="classarm__compute_1_1_i_c_l_distribution1_d.xhtml" xlink:title="ICLDistribution1D interface class."><polygon fill="#fff" stroke="#000" points="223 -.5 223 -19.5 318 -19.5 318 -.5 223 -.5"/><text x="270.5" y="-7.5" fill="#000" font-family="Helvetica,sans-Serif" font-size="10" text-anchor="middle">ICLDistribution1D</text></a></g></g><g id="edge3" class="edge"><title>Node1-&gt;Node3</title><path fill="none" stroke="#191970" d="M197.0095,-21.2154C205.5917,-19.9057 214.4688,-18.5509 222.9587,-17.2553"/><polygon fill="#191970" stroke="#191970" points="196.469 -17.757 187.111 -22.726 197.525 -24.677 196.469 -17.757"/></g><g id="node5" class="node"><title>Node4</title><g id="a_node5"><a target="_top" xlink:href="classarm__compute_1_1_c_l_distribution1_d.xhtml" xlink:title="CLDistribution1D object class."><polygon fill="#fff" stroke="#000" points="354 -.5 354 -19.5 446 -19.5 446 -.5 354 -.5"/><text x="400" y="-7.5" fill="#000" font-family="Helvetica,sans-Serif" font-size="10" text-anchor="middle">CLDistribution1D</text></a></g></g><g id="edge4" class="edge"><title>Node3-&gt;Node4</title><path fill="none" stroke="#191970" d="M328.5039,-10C336.92,-10 345.4897,-10 353.6361,-10"/><polygon fill="#191970" stroke="#191970" points="328.353 -6.5 318.353 -10 328.353 -13.5 328.353 -6.5"/></g></g></svg>