<svg xmlns="http://www.w3.org/2000/svg" xmlns:xlink="http://www.w3.org/1999/xlink" width="236" height="104pt" viewBox="0 0 177 104"><g id="graph0" class="graph" transform="scale(1 1) rotate(0) translate(4 100)"><title>Graphical Class Hierarchy</title><polygon fill="#fff" stroke="transparent" points="-4 4 -4 -100 173 -100 173 4 -4 4"/><g id="node1" class="node"><title>Node0</title><g id="a_node1"><a target="_top" xlink:href="classarm__compute_1_1_i_c_l_tuner.xhtml" xlink:title="Basic interface for tuning the OpenCL kernels."><polygon fill="#fff" stroke="#000" points="0 -38.5 0 -57.5 57 -57.5 57 -38.5 0 -38.5"/><text x="28.5" y="-45.5" fill="#000" font-family="Helvetica,sans-Serif" font-size="10" text-anchor="middle">ICLTuner</text></a></g></g><g id="node2" class="node"><title>Node1</title><g id="a_node2"><a target="_top" xlink:href="classarm__compute_1_1_c_l_tuner.xhtml" xlink:title="Basic implementation of the OpenCL tuner interface."><polygon fill="#fff" stroke="#000" points="104 -76.5 104 -95.5 158 -95.5 158 -76.5 104 -76.5"/><text x="131" y="-83.5" fill="#000" font-family="Helvetica,sans-Serif" font-size="10" text-anchor="middle">CLTuner</text></a></g></g><g id="edge1" class="edge"><title>Node0-&gt;Node1</title><path fill="none" stroke="#191970" d="M63.8841,-61.118C77.4409,-66.1439 92.641,-71.7791 105.1432,-76.4141"/><polygon fill="#191970" stroke="#191970" points="64.958 -57.783 54.365 -57.589 62.525 -64.347 64.958 -57.783"/></g><g id="node3" class="node"><title>Node2</title><g id="a_node3"><a target="_top" xlink:href="classarm__compute_1_1tuners_1_1_bifrost_tuner.xhtml" xlink:title="Bifrost based OpenCL tuner implementation."><polygon fill="#fff" stroke="#000" points="96 -38.5 96 -57.5 166 -57.5 166 -38.5 96 -38.5"/><text x="131" y="-45.5" fill="#000" font-family="Helvetica,sans-Serif" font-size="10" text-anchor="middle">BifrostTuner</text></a></g></g><g id="edge2" class="edge"><title>Node0-&gt;Node2</title><path fill="none" stroke="#191970" d="M67.2601,-48C76.5861,-48 86.4996,-48 95.6603,-48"/><polygon fill="#191970" stroke="#191970" points="67.052 -44.5 57.052 -48 67.052 -51.5 67.052 -44.5"/></g><g id="node4" class="node"><title>Node3</title><g id="a_node4"><a target="_top" xlink:href="classarm__compute_1_1tuners_1_1_midgard_tuner.xhtml" xlink:title="Midgard based OpenCL tuner implementation."><polygon fill="#fff" stroke="#000" points="93 -.5 93 -19.5 169 -19.5 169 -.5 93 -.5"/><text x="131" y="-7.5" fill="#000" font-family="Helvetica,sans-Serif" font-size="10" text-anchor="middle">MidgardTuner</text></a></g></g><g id="edge3" class="edge"><title>Node0-&gt;Node3</title><path fill="none" stroke="#191970" d="M63.8841,-34.882C77.4409,-29.8561 92.641,-24.2209 105.1432,-19.5859"/><polygon fill="#191970" stroke="#191970" points="62.525 -31.653 54.365 -38.411 64.958 -38.217 62.525 -31.653"/></g></g></svg>