<svg xmlns="http://www.w3.org/2000/svg" xmlns:xlink="http://www.w3.org/1999/xlink" width="292pt" height="88" viewBox="0 0 292 66"><g id="graph0" class="graph" transform="scale(1 1) rotate(0) translate(4 62)"><title>Graphical Class Hierarchy</title><polygon fill="#fff" stroke="transparent" points="-4 4 -4 -62 288 -62 288 4 -4 4"/><g id="node1" class="node"><title>Node0</title><g id="a_node1"><a target="_top" xlink:href="classarm__compute_1_1_i_multi_h_o_g.xhtml" xlink:title="Interface for storing multiple HOG data-objects."><polygon fill="#fff" stroke="#000" points="0 -19.5 0 -38.5 63 -38.5 63 -19.5 0 -19.5"/><text x="31.5" y="-26.5" fill="#000" font-family="Helvetica,sans-Serif" font-size="10" text-anchor="middle">IMultiHOG</text></a></g></g><g id="node2" class="node"><title>Node1</title><g id="a_node2"><a target="_top" xlink:href="classarm__compute_1_1_i_c_l_multi_h_o_g.xhtml" xlink:title="Interface for storing multiple HOG data-objects."><polygon fill="#fff" stroke="#000" points="99 -38.5 99 -57.5 175 -57.5 175 -38.5 99 -38.5"/><text x="137" y="-45.5" fill="#000" font-family="Helvetica,sans-Serif" font-size="10" text-anchor="middle">ICLMultiHOG</text></a></g></g><g id="edge1" class="edge"><title>Node0-&gt;Node1</title><path fill="none" stroke="#191970" d="M73.1556,-36.502C81.5659,-38.0166 90.3702,-39.6022 98.6603,-41.0952"/><polygon fill="#191970" stroke="#191970" points="73.615 -33.029 63.154 -34.701 72.375 -39.918 73.615 -33.029"/></g><g id="node4" class="node"><title>Node3</title><g id="a_node4"><a target="_top" xlink:href="classarm__compute_1_1_multi_h_o_g.xhtml" xlink:title="CPU implementation of multi HOG data-object."><polygon fill="#fff" stroke="#000" points="107 -.5 107 -19.5 167 -19.5 167 -.5 107 -.5"/><text x="137" y="-7.5" fill="#000" font-family="Helvetica,sans-Serif" font-size="10" text-anchor="middle">MultiHOG</text></a></g></g><g id="edge3" class="edge"><title>Node0-&gt;Node3</title><path fill="none" stroke="#191970" d="M73.2039,-21.4894C84.4289,-19.4678 96.3527,-17.3204 106.8165,-15.4359"/><polygon fill="#191970" stroke="#191970" points="72.375 -18.082 63.154 -23.299 73.615 -24.971 72.375 -18.082"/></g><g id="node3" class="node"><title>Node2</title><g id="a_node3"><a target="_top" xlink:href="classarm__compute_1_1_c_l_multi_h_o_g.xhtml" xlink:title="Basic implementation of the CL multi HOG data-objects."><polygon fill="#fff" stroke="#000" points="211 -38.5 211 -57.5 284 -57.5 284 -38.5 211 -38.5"/><text x="247.5" y="-45.5" fill="#000" font-family="Helvetica,sans-Serif" font-size="10" text-anchor="middle">CLMultiHOG</text></a></g></g><g id="edge2" class="edge"><title>Node1-&gt;Node2</title><path fill="none" stroke="#191970" d="M185.0406,-48C193.7088,-48 202.6178,-48 210.8945,-48"/><polygon fill="#191970" stroke="#191970" points="185.028 -44.5 175.028 -48 185.028 -51.5 185.028 -44.5"/></g></g></svg>