<svg xmlns="http://www.w3.org/2000/svg" xmlns:xlink="http://www.w3.org/1999/xlink" width="193pt" height="88" viewBox="0 0 193 66"><g id="graph0" class="graph" transform="scale(1 1) rotate(0) translate(4 62)"><title>Graphical Class Hierarchy</title><polygon fill="#fff" stroke="transparent" points="-4 4 -4 -62 189 -62 189 4 -4 4"/><g id="node1" class="node"><title>Node58</title><polygon fill="#fff" stroke="#bfbfbf" points="0 -19.5 0 -38.5 74 -38.5 74 -19.5 0 -19.5"/><text x="37" y="-26.5" fill="#000" font-family="Helvetica,sans-Serif" font-size="10" text-anchor="middle">runtime_error</text></g><g id="node2" class="node"><title>Node0</title><g id="a_node2"><a target="_top" xlink:href="classarm__compute_1_1test_1_1framework_1_1_file_not_found.xhtml" xlink:title="Error class for when some external assets are missing."><polygon fill="#fff" stroke="#000" points="110 -38.5 110 -57.5 185 -57.5 185 -38.5 110 -38.5"/><text x="147.5" y="-45.5" fill="#000" font-family="Helvetica,sans-Serif" font-size="10" text-anchor="middle">FileNotFound</text></a></g></g><g id="edge1" class="edge"><title>Node58-&gt;Node0</title><path fill="none" stroke="#191970" d="M84.0658,-37.0928C92.7045,-38.5782 101.6162,-40.1105 109.9307,-41.5401"/><polygon fill="#191970" stroke="#191970" points="84.551 -33.625 74.102 -35.38 83.365 -40.524 84.551 -33.625"/></g><g id="node3" class="node"><title>Node60</title><g id="a_node3"><a target="_top" xlink:href="classarm__compute_1_1test_1_1framework_1_1_test_error.xhtml" xlink:title="Error class for failures during test execution."><polygon fill="#fff" stroke="#000" points="119 -.5 119 -19.5 176 -19.5 176 -.5 119 -.5"/><text x="147.5" y="-7.5" fill="#000" font-family="Helvetica,sans-Serif" font-size="10" text-anchor="middle">TestError</text></a></g></g><g id="edge2" class="edge"><title>Node58-&gt;Node60</title><path fill="none" stroke="#191970" d="M84.2251,-20.8798C95.9506,-18.8637 108.1689,-16.7628 118.7064,-14.9509"/><polygon fill="#191970" stroke="#191970" points="83.365 -17.476 74.102 -22.62 84.551 -24.375 83.365 -17.476"/></g></g></svg>