<svg xmlns="http://www.w3.org/2000/svg" xmlns:xlink="http://www.w3.org/1999/xlink" width="202pt" height="88" viewBox="0 0 202 66"><g id="graph0" class="graph" transform="scale(1 1) rotate(0) translate(4 62)"><title>Graphical Class Hierarchy</title><polygon fill="#fff" stroke="transparent" points="-4 4 -4 -62 198 -62 198 4 -4 4"/><g id="node1" class="node"><title>Node0</title><g id="a_node1"><a target="_top" xlink:href="classarm__compute_1_1_i_lut.xhtml" xlink:title="Lookup Table object interface."><polygon fill="#fff" stroke="#000" points="0 -19.5 0 -38.5 33 -38.5 33 -19.5 0 -19.5"/><text x="16.5" y="-26.5" fill="#000" font-family="Helvetica,sans-Serif" font-size="10" text-anchor="middle">ILut</text></a></g></g><g id="node2" class="node"><title>Node1</title><g id="a_node2"><a target="_top" xlink:href="classarm__compute_1_1_i_c_l_lut.xhtml" xlink:title="Interface for OpenCL LUT."><polygon fill="#fff" stroke="#000" points="69 -38.5 69 -57.5 115 -57.5 115 -38.5 69 -38.5"/><text x="92" y="-45.5" fill="#000" font-family="Helvetica,sans-Serif" font-size="10" text-anchor="middle">ICLLut</text></a></g></g><g id="edge1" class="edge"><title>Node0-&gt;Node1</title><path fill="none" stroke="#191970" d="M43.0419,-35.6794C51.507,-37.8097 60.7989,-40.1481 68.9919,-42.2099"/><polygon fill="#191970" stroke="#191970" points="43.808 -32.263 33.256 -33.217 42.099 -39.051 43.808 -32.263"/></g><g id="node4" class="node"><title>Node3</title><g id="a_node4"><a target="_top" xlink:href="classarm__compute_1_1_lut.xhtml" xlink:title="Basic implementation of the LUT interface."><polygon fill="#fff" stroke="#000" points="77 -.5 77 -19.5 107 -19.5 107 -.5 77 -.5"/><text x="92" y="-7.5" fill="#000" font-family="Helvetica,sans-Serif" font-size="10" text-anchor="middle">Lut</text></a></g></g><g id="edge3" class="edge"><title>Node0-&gt;Node3</title><path fill="none" stroke="#191970" d="M43.0949,-22.3072C54.4007,-19.4621 67.173,-16.2479 76.8293,-13.8178"/><polygon fill="#191970" stroke="#191970" points="42.099 -18.949 33.256 -24.783 43.808 -25.737 42.099 -18.949"/></g><g id="node3" class="node"><title>Node2</title><g id="a_node3"><a target="_top" xlink:href="classarm__compute_1_1_c_l_lut.xhtml" xlink:title="Basic implementation of the OpenCL lut interface."><polygon fill="#fff" stroke="#000" points="151 -38.5 151 -57.5 194 -57.5 194 -38.5 151 -38.5"/><text x="172.5" y="-45.5" fill="#000" font-family="Helvetica,sans-Serif" font-size="10" text-anchor="middle">CLLut</text></a></g></g><g id="edge2" class="edge"><title>Node1-&gt;Node2</title><path fill="none" stroke="#191970" d="M125.4601,-48C134.0663,-48 143.099,-48 150.9225,-48"/><polygon fill="#191970" stroke="#191970" points="125.284 -44.5 115.284 -48 125.284 -51.5 125.284 -44.5"/></g></g></svg>