<svg xmlns="http://www.w3.org/2000/svg" xmlns:xlink="http://www.w3.org/1999/xlink" width="161pt" height="88" viewBox="0 0 161 66"><g id="graph0" class="graph" transform="scale(1 1) rotate(0) translate(4 62)"><title>Graphical Class Hierarchy</title><polygon fill="#fff" stroke="transparent" points="-4 4 -4 -62 157 -62 157 4 -4 4"/><g id="node1" class="node"><title>Node0</title><g id="a_node1"><a target="_top" xlink:href="classarm__compute_1_1test_1_1framework_1_1_printer.xhtml" xlink:title="Abstract printer class used by the Framework to present output."><polygon fill="#fff" stroke="#000" points="0 -19.5 0 -38.5 45 -38.5 45 -19.5 0 -19.5"/><text x="22.5" y="-26.5" fill="#000" font-family="Helvetica,sans-Serif" font-size="10" text-anchor="middle">Printer</text></a></g></g><g id="node2" class="node"><title>Node1</title><g id="a_node2"><a target="_top" xlink:href="classarm__compute_1_1test_1_1framework_1_1_j_s_o_n_printer.xhtml" xlink:title="Implementation of a Printer that produces JSON output."><polygon fill="#fff" stroke="#000" points="81 -38.5 81 -57.5 153 -57.5 153 -38.5 81 -38.5"/><text x="117" y="-45.5" fill="#000" font-family="Helvetica,sans-Serif" font-size="10" text-anchor="middle">JSONPrinter</text></a></g></g><g id="edge1" class="edge"><title>Node0-&gt;Node1</title><path fill="none" stroke="#191970" d="M55.3249,-35.5997C63.5163,-37.2467 72.3474,-39.0222 80.6961,-40.7008"/><polygon fill="#191970" stroke="#191970" points="55.87 -32.139 45.376 -33.599 54.49 -39.002 55.87 -32.139"/></g><g id="node3" class="node"><title>Node2</title><g id="a_node3"><a target="_top" xlink:href="classarm__compute_1_1test_1_1framework_1_1_pretty_printer.xhtml" xlink:title="Implementation of a Printer that produces human readable output."><polygon fill="#fff" stroke="#000" points="81.5 -.5 81.5 -19.5 152.5 -19.5 152.5 -.5 81.5 -.5"/><text x="117" y="-7.5" fill="#000" font-family="Helvetica,sans-Serif" font-size="10" text-anchor="middle">PrettyPrinter</text></a></g></g><g id="edge2" class="edge"><title>Node0-&gt;Node2</title><path fill="none" stroke="#191970" d="M55.2602,-22.4133C63.7099,-20.7144 72.844,-18.8779 81.4293,-17.1518"/><polygon fill="#191970" stroke="#191970" points="54.49 -18.998 45.376 -24.401 55.87 -25.861 54.49 -18.998"/></g></g></svg>