<svg xmlns="http://www.w3.org/2000/svg" xmlns:xlink="http://www.w3.org/1999/xlink" width="264" height="104pt" viewBox="0 0 198 104"><g id="graph0" class="graph" transform="scale(1 1) rotate(0) translate(4 100)"><title>Graphical Class Hierarchy</title><polygon fill="#fff" stroke="transparent" points="-4 4 -4 -100 194 -100 194 4 -4 4"/><g id="node1" class="node"><title>Node0</title><g id="a_node1"><a target="_top" xlink:href="classarm__compute_1_1_i_allocator.xhtml" xlink:title="Allocator interface."><polygon fill="#fff" stroke="#000" points="0 -38.5 0 -57.5 58 -57.5 58 -38.5 0 -38.5"/><text x="29" y="-45.5" fill="#000" font-family="Helvetica,sans-Serif" font-size="10" text-anchor="middle">IAllocator</text></a></g></g><g id="node2" class="node"><title>Node1</title><g id="a_node2"><a target="_top" xlink:href="classarm__compute_1_1_allocator.xhtml" xlink:title="Default malloc allocator implementation."><polygon fill="#fff" stroke="#000" points="114.5 -76.5 114.5 -95.5 169.5 -95.5 169.5 -76.5 114.5 -76.5"/><text x="142" y="-83.5" fill="#000" font-family="Helvetica,sans-Serif" font-size="10" text-anchor="middle">Allocator</text></a></g></g><g id="edge1" class="edge"><title>Node0-&gt;Node1</title><path fill="none" stroke="#191970" d="M67.2924,-60.8771C82.6995,-66.0583 100.1292,-71.9196 114.2757,-76.6768"/><polygon fill="#191970" stroke="#191970" points="68.109 -57.459 57.515 -57.589 65.877 -64.094 68.109 -57.459"/></g><g id="node3" class="node"><title>Node2</title><g id="a_node3"><a target="_top" xlink:href="classarm__compute_1_1_c_l_buffer_allocator.xhtml" xlink:title="Default OpenCL cl buffer allocator implementation."><polygon fill="#fff" stroke="#000" points="95 -38.5 95 -57.5 189 -57.5 189 -38.5 95 -38.5"/><text x="142" y="-45.5" fill="#000" font-family="Helvetica,sans-Serif" font-size="10" text-anchor="middle">CLBufferAllocator</text></a></g></g><g id="edge2" class="edge"><title>Node0-&gt;Node2</title><path fill="none" stroke="#191970" d="M68.1492,-48C76.6735,-48 85.7814,-48 94.5869,-48"/><polygon fill="#191970" stroke="#191970" points="68.1 -44.5 58.1 -48 68.1 -51.5 68.1 -44.5"/></g><g id="node4" class="node"><title>Node3</title><g id="a_node4"><a target="_top" xlink:href="classarm__compute_1_1_g_c_buffer_allocator.xhtml" xlink:title="Default GLES buffer allocator implementation."><polygon fill="#fff" stroke="#000" points="94 -.5 94 -19.5 190 -19.5 190 -.5 94 -.5"/><text x="142" y="-7.5" fill="#000" font-family="Helvetica,sans-Serif" font-size="10" text-anchor="middle">GCBufferAllocator</text></a></g></g><g id="edge3" class="edge"><title>Node0-&gt;Node3</title><path fill="none" stroke="#191970" d="M67.1402,-35.1741C82.3025,-30.0753 99.4439,-24.3109 113.4945,-19.5859"/><polygon fill="#191970" stroke="#191970" points="65.877 -31.906 57.515 -38.411 68.109 -38.541 65.877 -31.906"/></g></g></svg>