<svg xmlns="http://www.w3.org/2000/svg" xmlns:xlink="http://www.w3.org/1999/xlink" width="768" height="142pt" viewBox="0 0 576 142"><g id="graph0" class="graph" transform="scale(1 1) rotate(0) translate(4 138)"><title>Graphical Class Hierarchy</title><polygon fill="#fff" stroke="transparent" points="-4 4 -4 -138 572 -138 572 4 -4 4"/><g id="node1" class="node"><title>Node0</title><g id="a_node1"><a target="_top" xlink:href="classarm__compute_1_1_i_memory_region.xhtml" xlink:title="Memory region interface."><polygon fill="#fff" stroke="#000" points="0 -38.5 0 -57.5 86 -57.5 86 -38.5 0 -38.5"/><text x="43" y="-45.5" fill="#000" font-family="Helvetica,sans-Serif" font-size="10" text-anchor="middle">IMemoryRegion</text></a></g></g><g id="node2" class="node"><title>Node1</title><g id="a_node2"><a target="_top" xlink:href="classarm__compute_1_1_i_c_l_memory_region.xhtml" xlink:title="OpenCL memory region interface."><polygon fill="#fff" stroke="#000" points="123.5 -76.5 123.5 -95.5 221.5 -95.5 221.5 -76.5 123.5 -76.5"/><text x="172.5" y="-83.5" fill="#000" font-family="Helvetica,sans-Serif" font-size="10" text-anchor="middle">ICLMemoryRegion</text></a></g></g><g id="edge1" class="edge"><title>Node0-&gt;Node1</title><path fill="none" stroke="#191970" d="M85.719,-60.5353C103.336,-65.7048 123.4232,-71.5991 139.8321,-76.4141"/><polygon fill="#191970" stroke="#191970" points="86.259 -57.046 75.678 -57.589 84.288 -63.763 86.259 -57.046"/></g><g id="node7" class="node"><title>Node6</title><g id="a_node7"><a target="_top" xlink:href="classarm__compute_1_1_i_g_c_memory_region.xhtml" xlink:title="GLES memory region interface."><polygon fill="#fff" stroke="#000" points="122 -38.5 122 -57.5 223 -57.5 223 -38.5 122 -38.5"/><text x="172.5" y="-45.5" fill="#000" font-family="Helvetica,sans-Serif" font-size="10" text-anchor="middle">IGCMemoryRegion</text></a></g></g><g id="edge6" class="edge"><title>Node0-&gt;Node6</title><path fill="none" stroke="#191970" d="M96.2912,-48C104.7721,-48 113.5239,-48 121.9393,-48"/><polygon fill="#191970" stroke="#191970" points="96.122 -44.5 86.122 -48 96.122 -51.5 96.122 -44.5"/></g><g id="node9" class="node"><title>Node8</title><g id="a_node9"><a target="_top" xlink:href="classarm__compute_1_1_memory_region.xhtml" xlink:title="Memory region CPU implementation."><polygon fill="#fff" stroke="#000" points="131 -.5 131 -19.5 214 -19.5 214 -.5 131 -.5"/><text x="172.5" y="-7.5" fill="#000" font-family="Helvetica,sans-Serif" font-size="10" text-anchor="middle">MemoryRegion</text></a></g></g><g id="edge8" class="edge"><title>Node0-&gt;Node8</title><path fill="none" stroke="#191970" d="M85.719,-35.4647C103.336,-30.2952 123.4232,-24.4009 139.8321,-19.5859"/><polygon fill="#191970" stroke="#191970" points="84.288 -32.237 75.678 -38.411 86.259 -38.954 84.288 -32.237"/></g><g id="node3" class="node"><title>Node2</title><g id="a_node3"><a target="_top" xlink:href="classarm__compute_1_1_c_l_buffer_memory_region.xhtml" xlink:title="OpenCL buffer memory region implementation."><polygon fill="#fff" stroke="#000" points="260 -114.5 260 -133.5 382 -133.5 382 -114.5 260 -114.5"/><text x="321" y="-121.5" fill="#000" font-family="Helvetica,sans-Serif" font-size="10" text-anchor="middle">CLBufferMemoryRegion</text></a></g></g><g id="edge2" class="edge"><title>Node1-&gt;Node2</title><path fill="none" stroke="#191970" d="M219.8329,-98.1121C240.5146,-103.4044 264.4188,-109.5213 283.7966,-114.4799"/><polygon fill="#191970" stroke="#191970" points="220.528 -94.677 209.973 -95.589 218.793 -101.459 220.528 -94.677"/></g><g id="node4" class="node"><title>Node3</title><g id="a_node4"><a target="_top" xlink:href="classarm__compute_1_1_i_c_l_s_v_m_memory_region.xhtml" xlink:title="OpenCL SVM memory region interface."><polygon fill="#fff" stroke="#000" points="261 -76.5 261 -95.5 381 -95.5 381 -76.5 261 -76.5"/><text x="321" y="-83.5" fill="#000" font-family="Helvetica,sans-Serif" font-size="10" text-anchor="middle">ICLSVMMemoryRegion</text></a></g></g><g id="edge3" class="edge"><title>Node1-&gt;Node3</title><path fill="none" stroke="#191970" d="M231.7672,-86C241.3511,-86 251.2824,-86 260.8862,-86"/><polygon fill="#191970" stroke="#191970" points="231.536 -82.5 221.536 -86 231.536 -89.5 231.536 -82.5"/></g><g id="node5" class="node"><title>Node4</title><g id="a_node5"><a target="_top" xlink:href="classarm__compute_1_1_c_l_coarse_s_v_m_memory_region.xhtml" xlink:title="OpenCL coarse-grain SVM memory region implementation."><polygon fill="#fff" stroke="#000" points="419 -95.5 419 -114.5 568 -114.5 568 -95.5 419 -95.5"/><text x="493.5" y="-102.5" fill="#000" font-family="Helvetica,sans-Serif" font-size="10" text-anchor="middle">CLCoarseSVMMemoryRegion</text></a></g></g><g id="edge4" class="edge"><title>Node3-&gt;Node4</title><path fill="none" stroke="#191970" d="M391.4416,-93.7588C400.5063,-94.7572 409.8122,-95.7822 418.9402,-96.7876"/><polygon fill="#191970" stroke="#191970" points="391.655 -90.261 381.332 -92.645 390.889 -97.219 391.655 -90.261"/></g><g id="node6" class="node"><title>Node5</title><g id="a_node6"><a target="_top" xlink:href="classarm__compute_1_1_c_l_fine_s_v_m_memory_region.xhtml" xlink:title="OpenCL fine-grain SVM memory region implementation."><polygon fill="#fff" stroke="#000" points="425.5 -57.5 425.5 -76.5 561.5 -76.5 561.5 -57.5 425.5 -57.5"/><text x="493.5" y="-64.5" fill="#000" font-family="Helvetica,sans-Serif" font-size="10" text-anchor="middle">CLFineSVMMemoryRegion</text></a></g></g><g id="edge5" class="edge"><title>Node3-&gt;Node5</title><path fill="none" stroke="#191970" d="M391.4533,-78.2399C402.6104,-77.011 414.1325,-75.7419 425.2383,-74.5187"/><polygon fill="#191970" stroke="#191970" points="390.889 -74.781 381.332 -79.355 391.655 -81.739 390.889 -74.781"/></g><g id="node8" class="node"><title>Node7</title><g id="a_node8"><a target="_top" xlink:href="classarm__compute_1_1_g_c_buffer_memory_region.xhtml" xlink:title="GLES buffer memory region implementation."><polygon fill="#fff" stroke="#000" points="259 -38.5 259 -57.5 383 -57.5 383 -38.5 259 -38.5"/><text x="321" y="-45.5" fill="#000" font-family="Helvetica,sans-Serif" font-size="10" text-anchor="middle">GCBufferMemoryRegion</text></a></g></g><g id="edge7" class="edge"><title>Node6-&gt;Node7</title><path fill="none" stroke="#191970" d="M233.3526,-48C241.8069,-48 250.5008,-48 258.9762,-48"/><polygon fill="#191970" stroke="#191970" points="233.19 -44.5 223.19 -48 233.19 -51.5 233.19 -44.5"/></g></g></svg>