<svg xmlns="http://www.w3.org/2000/svg" xmlns:xlink="http://www.w3.org/1999/xlink" width="628" height="106pt" viewBox="0 0 471 106"><g id="graph0" class="graph" transform="scale(1 1) rotate(0) translate(4 102)"><title>StreamHints</title><polygon fill="#fff" stroke="transparent" points="-4 4 -4 -102 467 -102 467 4 -4 4"/><g id="node1" class="node"><title>Node0</title><polygon fill="#bfbfbf" stroke="#000" points="129.5 -.5 129.5 -19.5 200.5 -19.5 200.5 -.5 129.5 -.5"/><text x="165" y="-7.5" fill="#000" font-family="Helvetica,sans-Serif" font-size="10" text-anchor="middle">StreamHints</text></g><g id="node2" class="node"><title>Node1</title><polygon fill="#fff" stroke="#bfbfbf" points="0 -78.5 0 -97.5 44 -97.5 44 -78.5 0 -78.5"/><text x="22" y="-85.5" fill="#000" font-family="Helvetica,sans-Serif" font-size="10" text-anchor="middle">Target</text></g><g id="edge1" class="edge"><title>Node1-&gt;Node0</title><path fill="none" stroke="#9a32cd" stroke-dasharray="5 2" d="M34.5493,-70.4762C43.1255,-59.6811 55.3763,-46.3538 69,-38 87.3523,-26.7467 110.4493,-19.8257 129.3887,-15.6803"/><polygon fill="#9a32cd" stroke="#9a32cd" points="31.758 -68.365 28.503 -78.447 37.335 -72.595 31.758 -68.365"/><text x="93.5" y="-46.5" fill="#000" font-family="Helvetica,sans-Serif" font-size="10" text-anchor="middle">target_hint</text></g><g id="node3" class="node"><title>Node2</title><polygon fill="#fff" stroke="#bfbfbf" points="62 -78.5 62 -97.5 138 -97.5 138 -78.5 62 -78.5"/><text x="100" y="-85.5" fill="#000" font-family="Helvetica,sans-Serif" font-size="10" text-anchor="middle">FastMathHint</text></g><g id="edge2" class="edge"><title>Node2-&gt;Node0</title><path fill="none" stroke="#9a32cd" stroke-dasharray="5 2" d="M113.8334,-70.2322C121.4331,-60.593 131.0986,-48.5296 140,-38 145.2169,-31.8288 151.2454,-25.0666 156.0753,-19.7339"/><polygon fill="#9a32cd" stroke="#9a32cd" points="110.932 -68.26 107.516 -78.29 116.441 -72.579 110.932 -68.26"/><text x="174" y="-46.5" fill="#000" font-family="Helvetica,sans-Serif" font-size="10" text-anchor="middle">fast_math_hint</text></g><g id="node4" class="node"><title>Node3</title><polygon fill="#fff" stroke="#bfbfbf" points="156.5 -78.5 156.5 -97.5 303.5 -97.5 303.5 -78.5 156.5 -78.5"/><text x="230" y="-85.5" fill="#000" font-family="Helvetica,sans-Serif" font-size="10" text-anchor="middle">DepthwiseConvolutionMethod</text></g><g id="edge3" class="edge"><title>Node3-&gt;Node0</title><path fill="none" stroke="#9a32cd" stroke-dasharray="5 2" d="M224.375,-68.4695C220.8288,-58.5699 215.4837,-46.8122 208,-38 201.6568,-30.5307 192.8256,-24.3107 184.8157,-19.6454"/><polygon fill="#9a32cd" stroke="#9a32cd" points="221.131 -69.813 227.533 -78.255 227.793 -67.663 221.131 -69.813"/><text x="220" y="-52" fill="#000" font-family="Helvetica,sans-Serif" font-size="10" text-anchor="start">depthwise_convolution</text><text x="271.5" y="-41" fill="#000" font-family="Helvetica,sans-Serif" font-size="10" text-anchor="middle">_method_hint</text></g><g id="node5" class="node"><title>Node4</title><polygon fill="#fff" stroke="#bfbfbf" points="321.5 -78.5 321.5 -97.5 422.5 -97.5 422.5 -78.5 321.5 -78.5"/><text x="372" y="-85.5" fill="#000" font-family="Helvetica,sans-Serif" font-size="10" text-anchor="middle">ConvolutionMethod</text></g><g id="edge4" class="edge"><title>Node4-&gt;Node0</title><path fill="none" stroke="#9a32cd" stroke-dasharray="5 2" d="M360.2002,-69.618C352.179,-58.6739 340.5777,-45.4982 327,-38 305.825,-26.3062 241.6713,-17.8227 200.7351,-13.4247"/><polygon fill="#9a32cd" stroke="#9a32cd" points="357.501 -71.869 366.061 -78.112 363.263 -67.894 357.501 -71.869"/><text x="407" y="-46.5" fill="#000" font-family="Helvetica,sans-Serif" font-size="10" text-anchor="middle">convolution_method_hint</text></g></g></svg>