<svg xmlns="http://www.w3.org/2000/svg" xmlns:xlink="http://www.w3.org/1999/xlink" width="244" height="232" viewBox="0 0 182.5 174"><g id="graph0" class="graph" transform="scale(1 1) rotate(0) translate(4 170)"><title>is_contained&lt; T, std::tuple&lt; U, Ts... &gt; &gt;</title><polygon fill="#fff" stroke="transparent" points="-4 4 -4 -170 178.5 -170 178.5 4 -4 4"/><g id="node1" class="node"><title>Node0</title><polygon fill="#bfbfbf" stroke="#000" points="9.5 -.5 9.5 -30.5 115.5 -30.5 115.5 -.5 9.5 -.5"/><text x="17.5" y="-18.5" fill="#000" font-family="Helvetica,sans-Serif" font-size="10" text-anchor="start">is_contained&lt; T, std</text><text x="62.5" y="-7.5" fill="#000" font-family="Helvetica,sans-Serif" font-size="10" text-anchor="middle">::tuple&lt; U, Ts... &gt; &gt;</text></g><g id="node2" class="node"><title>Node1</title><g id="a_node2"><a target="_top" xlink:href="structarm__compute_1_1traits_1_1is__contained.xhtml" xlink:title="is_contained\&lt; T, std\l::tuple\&lt; Ts... \&gt; \&gt;"><polygon fill="#fff" stroke="#000" points="9.5 -68.5 9.5 -98.5 115.5 -98.5 115.5 -68.5 9.5 -68.5"/><text x="17.5" y="-86.5" fill="#000" font-family="Helvetica,sans-Serif" font-size="10" text-anchor="start">is_contained&lt; T, std</text><text x="62.5" y="-75.5" fill="#000" font-family="Helvetica,sans-Serif" font-size="10" text-anchor="middle">::tuple&lt; Ts... &gt; &gt;</text></a></g></g><g id="edge1" class="edge"><title>Node1-&gt;Node0</title><path fill="none" stroke="#191970" d="M62.5,-58.1174C62.5,-48.8378 62.5,-38.6413 62.5,-30.5492"/><polygon fill="#191970" stroke="#191970" points="59 -58.409 62.5 -68.409 66 -58.409 59 -58.409"/></g><g id="node3" class="node"><title>Node2</title><g id="a_node3"><a target="_top" xlink:href="structarm__compute_1_1traits_1_1is__contained.xhtml" xlink:title="Check if a type T is contained in a tuple Tuple of types."><polygon fill="#fff" stroke="#000" points="0 -146.5 0 -165.5 125 -165.5 125 -146.5 0 -146.5"/><text x="62.5" y="-153.5" fill="#000" font-family="Helvetica,sans-Serif" font-size="10" text-anchor="middle">is_contained&lt; T, Tuple &gt;</text></a></g></g><g id="edge2" class="edge"><title>Node2-&gt;Node1</title><path fill="none" stroke="orange" stroke-dasharray="5 2" d="M62.5,-136.0177C62.5,-124.2164 62.5,-109.513 62.5,-98.668"/><polygon fill="orange" stroke="orange" points="59 -136.222 62.5 -146.222 66 -136.222 59 -136.222"/><text x="118.5" y="-120" fill="#000" font-family="Helvetica,sans-Serif" font-size="10" text-anchor="middle">&lt; T, std::tuple&lt; Ts... &gt; &gt;</text></g></g></svg>