<svg xmlns="http://www.w3.org/2000/svg" xmlns:xlink="http://www.w3.org/1999/xlink" width="700" height="229pt" viewBox="0 0 525 229"><g id="graph0" class="graph" transform="scale(1 1) rotate(0) translate(4 225)"><title>TensorDescriptor</title><polygon fill="#fff" stroke="transparent" points="-4 4 -4 -225 521 -225 521 4 -4 4"/><g id="node1" class="node"><title>Node0</title><polygon fill="#bfbfbf" stroke="#000" points="243 -.5 243 -19.5 335 -19.5 335 -.5 243 -.5"/><text x="289" y="-7.5" fill="#000" font-family="Helvetica,sans-Serif" font-size="10" text-anchor="middle">TensorDescriptor</text></g><g id="node2" class="node"><title>Node1</title><g id="a_node2"><a target="_top" xlink:href="classarm__compute_1_1misc_1_1_i_cloneable.xhtml" xlink:title="ICloneable\&lt; TensorDescriptor \&gt;"><polygon fill="#fff" stroke="#000" points="0 -67.5 0 -86.5 156 -86.5 156 -67.5 0 -67.5"/><text x="78" y="-74.5" fill="#000" font-family="Helvetica,sans-Serif" font-size="10" text-anchor="middle">ICloneable&lt; TensorDescriptor &gt;</text></a></g></g><g id="edge1" class="edge"><title>Node1-&gt;Node0</title><path fill="none" stroke="#191970" d="M117.8976,-64.3311C158.8913,-51.3141 221.7953,-31.3399 258.8249,-19.5817"/><polygon fill="#191970" stroke="#191970" points="116.703 -61.038 108.231 -67.4 118.822 -67.71 116.703 -61.038"/></g><g id="node3" class="node"><title>Node2</title><g id="a_node3"><a target="_top" xlink:href="classarm__compute_1_1misc_1_1_i_cloneable.xhtml" xlink:title="Clonable Interface."><polygon fill="#fff" stroke="#000" points="34.5 -134.5 34.5 -153.5 121.5 -153.5 121.5 -134.5 34.5 -134.5"/><text x="78" y="-141.5" fill="#000" font-family="Helvetica,sans-Serif" font-size="10" text-anchor="middle">ICloneable&lt; T &gt;</text></a></g></g><g id="edge2" class="edge"><title>Node2-&gt;Node1</title><path fill="none" stroke="orange" stroke-dasharray="5 2" d="M78,-124.1079C78,-111.714 78,-96.3263 78,-86.5817"/><polygon fill="orange" stroke="orange" points="74.5 -124.4 78 -134.4 81.5 -124.401 74.5 -124.4"/><text x="126.5" y="-108" fill="#000" font-family="Helvetica,sans-Serif" font-size="10" text-anchor="middle">&lt; TensorDescriptor &gt;</text></g><g id="node4" class="node"><title>Node3</title><polygon fill="#fff" stroke="#bfbfbf" points="174.5 -67.5 174.5 -86.5 241.5 -86.5 241.5 -67.5 174.5 -67.5"/><text x="208" y="-74.5" fill="#000" font-family="Helvetica,sans-Serif" font-size="10" text-anchor="middle">DataLayout</text></g><g id="edge3" class="edge"><title>Node3-&gt;Node0</title><path fill="none" stroke="#9a32cd" stroke-dasharray="5 2" d="M227.4235,-60.8553C235.8878,-53.8268 245.9288,-45.4988 255,-38 262.4261,-31.8612 270.7786,-24.9823 277.3466,-19.579"/><polygon fill="#9a32cd" stroke="#9a32cd" points="225.035 -58.289 219.579 -67.372 229.508 -63.674 225.035 -58.289"/><text x="270" y="-41" fill="#000" font-family="Helvetica,sans-Serif" font-size="10" text-anchor="middle">layout</text></g><g id="node5" class="node"><title>Node4</title><polygon fill="#fff" stroke="#bfbfbf" points="259.5 -67.5 259.5 -86.5 318.5 -86.5 318.5 -67.5 259.5 -67.5"/><text x="289" y="-74.5" fill="#000" font-family="Helvetica,sans-Serif" font-size="10" text-anchor="middle">DataType</text></g><g id="edge4" class="edge"><title>Node4-&gt;Node0</title><path fill="none" stroke="#9a32cd" stroke-dasharray="5 2" d="M289,-57.1079C289,-44.714 289,-29.3263 289,-19.5817"/><polygon fill="#9a32cd" stroke="#9a32cd" points="285.5 -57.401 289 -67.4 292.5 -57.401 285.5 -57.401"/><text x="312" y="-41" fill="#000" font-family="Helvetica,sans-Serif" font-size="10" text-anchor="middle">data_type</text></g><g id="node6" class="node"><title>Node5</title><g id="a_node6"><a target="_top" xlink:href="classarm__compute_1_1_tensor_shape.xhtml" xlink:title="Shape of a tensor."><polygon fill="#fff" stroke="#000" points="337 -67.5 337 -86.5 411 -86.5 411 -67.5 337 -67.5"/><text x="374" y="-74.5" fill="#000" font-family="Helvetica,sans-Serif" font-size="10" text-anchor="middle">TensorShape</text></a></g></g><g id="edge5" class="edge"><title>Node5-&gt;Node0</title><path fill="none" stroke="#9a32cd" stroke-dasharray="5 2" d="M360.3322,-59.3684C354.2709,-52.223 346.7599,-44.2105 339,-38 330.1449,-30.913 319.2613,-24.5854 309.9117,-19.7462"/><polygon fill="#9a32cd" stroke="#9a32cd" points="357.681 -61.655 366.71 -67.198 363.108 -57.234 357.681 -61.655"/><text x="365" y="-41" fill="#000" font-family="Helvetica,sans-Serif" font-size="10" text-anchor="middle">shape</text></g><g id="node7" class="node"><title>Node6</title><g id="a_node7"><a target="_top" xlink:href="classarm__compute_1_1_dimensions.xhtml" xlink:title="Dimensions\&lt; size_t \&gt;"><polygon fill="#fff" stroke="#000" points="317.5 -134.5 317.5 -153.5 430.5 -153.5 430.5 -134.5 317.5 -134.5"/><text x="374" y="-141.5" fill="#000" font-family="Helvetica,sans-Serif" font-size="10" text-anchor="middle">Dimensions&lt; size_t &gt;</text></a></g></g><g id="edge6" class="edge"><title>Node6-&gt;Node5</title><path fill="none" stroke="#191970" d="M374,-124.1079C374,-111.714 374,-96.3263 374,-86.5817"/><polygon fill="#191970" stroke="#191970" points="370.5 -124.4 374 -134.4 377.5 -124.401 370.5 -124.4"/></g><g id="node8" class="node"><title>Node7</title><g id="a_node8"><a target="_top" xlink:href="classarm__compute_1_1_dimensions.xhtml" xlink:title="Dimensions with dimensionality."><polygon fill="#fff" stroke="#000" points="328 -201.5 328 -220.5 420 -220.5 420 -201.5 328 -201.5"/><text x="374" y="-208.5" fill="#000" font-family="Helvetica,sans-Serif" font-size="10" text-anchor="middle">Dimensions&lt; T &gt;</text></a></g></g><g id="edge7" class="edge"><title>Node7-&gt;Node6</title><path fill="none" stroke="orange" stroke-dasharray="5 2" d="M374,-191.1079C374,-178.714 374,-163.3263 374,-153.5817"/><polygon fill="orange" stroke="orange" points="370.5 -191.4 374 -201.4 377.5 -191.401 370.5 -191.4"/><text x="398" y="-175" fill="#000" font-family="Helvetica,sans-Serif" font-size="10" text-anchor="middle">&lt; size_t &gt;</text></g><g id="node9" class="node"><title>Node8</title><g id="a_node9"><a target="_top" xlink:href="structarm__compute_1_1_quantization_info.xhtml" xlink:title="Quantization settings (used for QASYMM8 data type)"><polygon fill="#fff" stroke="#000" points="429 -67.5 429 -86.5 517 -86.5 517 -67.5 429 -67.5"/><text x="473" y="-74.5" fill="#000" font-family="Helvetica,sans-Serif" font-size="10" text-anchor="middle">QuantizationInfo</text></a></g></g><g id="edge8" class="edge"><title>Node8-&gt;Node0</title><path fill="none" stroke="#9a32cd" stroke-dasharray="5 2" d="M443.6733,-63.0315C426.5003,-55.135 404.2695,-45.3946 384,-38 364.9393,-31.0464 343.2661,-24.5542 325.4386,-19.5754"/><polygon fill="#9a32cd" stroke="#9a32cd" points="442.603 -66.394 453.147 -67.436 445.555 -60.046 442.603 -66.394"/><text x="435.5" y="-41" fill="#000" font-family="Helvetica,sans-Serif" font-size="10" text-anchor="middle">quant_info</text></g></g></svg>