<svg xmlns="http://www.w3.org/2000/svg" xmlns:xlink="http://www.w3.org/1999/xlink" width="204" height="95pt" viewBox="0 0 152.5 95"><g id="graph0" class="graph" transform="scale(1 1) rotate(0) translate(4 91)"><title>CommonGraphParams</title><polygon fill="#fff" stroke="transparent" points="-4 4 -4 -91 148.5 -91 148.5 4 -4 4"/><g id="node1" class="node"><title>Node0</title><polygon fill="#bfbfbf" stroke="#000" points="15.5 -.5 15.5 -19.5 131.5 -19.5 131.5 -.5 15.5 -.5"/><text x="73.5" y="-7.5" fill="#000" font-family="Helvetica,sans-Serif" font-size="10" text-anchor="middle">CommonGraphParams</text></g><g id="node2" class="node"><title>Node1</title><polygon fill="#fff" stroke="#bfbfbf" points="0 -67.5 0 -86.5 67 -86.5 67 -67.5 0 -67.5"/><text x="33.5" y="-74.5" fill="#000" font-family="Helvetica,sans-Serif" font-size="10" text-anchor="middle">DataLayout</text></g><g id="edge1" class="edge"><title>Node1-&gt;Node0</title><path fill="none" stroke="#9a32cd" stroke-dasharray="5 2" d="M33.1306,-57.3105C33.7425,-50.8246 35.2447,-43.7954 38.5,-38 42.692,-30.537 49.7436,-24.3178 56.4233,-19.6515"/><polygon fill="#9a32cd" stroke="#9a32cd" points="29.63 -57.286 32.789 -67.399 36.626 -57.523 29.63 -57.286"/><text x="65.5" y="-41" fill="#000" font-family="Helvetica,sans-Serif" font-size="10" text-anchor="middle">data_layout</text></g><g id="node3" class="node"><title>Node2</title><polygon fill="#fff" stroke="#bfbfbf" points="85 -67.5 85 -86.5 144 -86.5 144 -67.5 85 -67.5"/><text x="114.5" y="-74.5" fill="#000" font-family="Helvetica,sans-Serif" font-size="10" text-anchor="middle">DataType</text></g><g id="edge2" class="edge"><title>Node2-&gt;Node0</title><path fill="none" stroke="#9a32cd" stroke-dasharray="5 2" d="M104.449,-58.4535C100.8008,-51.9205 96.5727,-44.5702 92.5,-38 88.6621,-31.8085 84.0844,-25.0457 80.384,-19.7176"/><polygon fill="#9a32cd" stroke="#9a32cd" points="101.405 -60.182 109.294 -67.254 107.537 -56.806 101.405 -60.182"/><text x="121.5" y="-41" fill="#000" font-family="Helvetica,sans-Serif" font-size="10" text-anchor="middle">data_type</text></g></g></svg>