<svg xmlns="http://www.w3.org/2000/svg" xmlns:xlink="http://www.w3.org/1999/xlink" width="211pt" height="156" viewBox="0 0 211 117"><g id="graph0" class="graph" transform="scale(1 1) rotate(0) translate(4 113)"><title>WinogradInfo</title><polygon fill="#fff" stroke="transparent" points="-4 4 -4 -113 207 -113 207 4 -4 4"/><g id="node1" class="node"><title>Node0</title><polygon fill="#bfbfbf" stroke="#000" points="49 -.5 49 -19.5 123 -19.5 123 -.5 49 -.5"/><text x="86" y="-7.5" fill="#000" font-family="Helvetica,sans-Serif" font-size="10" text-anchor="middle">WinogradInfo</text></g><g id="node2" class="node"><title>Node1</title><g id="a_node2"><a target="_top" xlink:href="classarm__compute_1_1_pad_stride_info.xhtml" xlink:title="Padding and stride information class."><polygon fill="#fff" stroke="#000" points="0 -89.5 0 -108.5 76 -108.5 76 -89.5 0 -89.5"/><text x="38" y="-96.5" fill="#000" font-family="Helvetica,sans-Serif" font-size="10" text-anchor="middle">PadStrideInfo</text></a></g></g><g id="edge1" class="edge"><title>Node1-&gt;Node0</title><path fill="none" stroke="#9a32cd" stroke-dasharray="5 2" d="M33.6402,-79.1738C31.947,-66.5586 31.8562,-50.3348 39,-38 43.6649,-29.9453 51.6459,-23.9542 59.7204,-19.6272"/><polygon fill="#9a32cd" stroke="#9a32cd" points="30.215 -79.903 35.399 -89.142 37.108 -78.686 30.215 -79.903"/><text x="76" y="-52" fill="#000" font-family="Helvetica,sans-Serif" font-size="10" text-anchor="middle">convolution_info</text></g><g id="node3" class="node"><title>Node2</title><g id="a_node3"><a target="_top" xlink:href="classarm__compute_1_1_size2_d.xhtml" xlink:title="Class for specifying the size of an image or rectangle."><polygon fill="#fff" stroke="#000" points="110.5 -89.5 110.5 -108.5 159.5 -108.5 159.5 -89.5 110.5 -89.5"/><text x="135" y="-96.5" fill="#000" font-family="Helvetica,sans-Serif" font-size="10" text-anchor="middle">Size2D</text></a></g></g><g id="edge2" class="edge"><title>Node2-&gt;Node0</title><path fill="none" stroke="#9a32cd" stroke-dasharray="5 2" d="M130.2499,-79.5304C126.6736,-67.0599 121.0052,-50.8632 113,-38 108.7897,-31.2346 102.7242,-24.7571 97.4084,-19.7394"/><polygon fill="#9a32cd" stroke="#9a32cd" points="126.909 -80.587 132.86 -89.353 133.674 -78.789 126.909 -80.587"/><text x="165" y="-63" fill="#000" font-family="Helvetica,sans-Serif" font-size="10" text-anchor="middle">kernel_size</text><text x="165" y="-52" fill="#000" font-family="Helvetica,sans-Serif" font-size="10" text-anchor="middle">output_tile_size</text><text x="165" y="-41" fill="#000" font-family="Helvetica,sans-Serif" font-size="10" text-anchor="middle">input_dimensions</text></g></g></svg>