<svg xmlns="http://www.w3.org/2000/svg" xmlns:xlink="http://www.w3.org/1999/xlink" width="146pt" height="95pt" viewBox="0 0 146 95"><g id="graph0" class="graph" transform="scale(1 1) rotate(0) translate(4 91)"><title>ExecutionWorkload</title><polygon fill="#fff" stroke="transparent" points="-4 4 -4 -91 142 -91 142 4 -4 4"/><g id="node1" class="node"><title>Node0</title><polygon fill="#bfbfbf" stroke="#000" points="10 -.5 10 -19.5 111 -19.5 111 -.5 10 -.5"/><text x="60.5" y="-7.5" fill="#000" font-family="Helvetica,sans-Serif" font-size="10" text-anchor="middle">ExecutionWorkload</text></g><g id="node2" class="node"><title>Node1</title><g id="a_node2"><a target="_top" xlink:href="classarm__compute_1_1graph_1_1_graph.xhtml" xlink:title="Graph class."><polygon fill="#fff" stroke="#000" points="0 -67.5 0 -86.5 43 -86.5 43 -67.5 0 -67.5"/><text x="21.5" y="-74.5" fill="#000" font-family="Helvetica,sans-Serif" font-size="10" text-anchor="middle">Graph</text></a></g></g><g id="edge1" class="edge"><title>Node1-&gt;Node0</title><path fill="none" stroke="#9a32cd" stroke-dasharray="5 2" d="M32.2047,-58.6099C39.5567,-45.9795 49.0188,-29.7241 54.9226,-19.5817"/><polygon fill="#9a32cd" stroke="#9a32cd" points="29.094 -56.997 27.088 -67.4 35.143 -60.519 29.094 -56.997"/><text x="57.5" y="-41" fill="#000" font-family="Helvetica,sans-Serif" font-size="10" text-anchor="middle">graph</text></g><g id="node3" class="node"><title>Node2</title><g id="a_node3"><a target="_top" xlink:href="classarm__compute_1_1graph_1_1_graph_context.xhtml" xlink:title="Graph context."><polygon fill="#fff" stroke="#000" points="61 -67.5 61 -86.5 138 -86.5 138 -67.5 61 -67.5"/><text x="99.5" y="-74.5" fill="#000" font-family="Helvetica,sans-Serif" font-size="10" text-anchor="middle">GraphContext</text></a></g></g><g id="edge2" class="edge"><title>Node2-&gt;Node0</title><path fill="none" stroke="#9a32cd" stroke-dasharray="5 2" d="M88.7953,-58.6099C81.4433,-45.9795 71.9812,-29.7241 66.0774,-19.5817"/><polygon fill="#9a32cd" stroke="#9a32cd" points="85.857 -60.519 93.912 -67.4 91.906 -56.997 85.857 -60.519"/><text x="90" y="-41" fill="#000" font-family="Helvetica,sans-Serif" font-size="10" text-anchor="middle">ctx</text></g></g></svg>